<svg enable-background="new 0 0 105.6 105.5" viewBox="0 0 105.6 105.5" xmlns="http://www.w3.org/2000/svg"><path d="m52.8 105.4c-29 0-52.7-23.6-52.7-52.7 0-29 23.6-52.7 52.7-52.7s52.7 23.6 52.7 52.7-23.7 52.7-52.7 52.7zm0-103.3c-27.9 0-50.7 22.7-50.7 50.6s22.7 50.7 50.7 50.7c27.9 0 50.7-22.7 50.7-50.7s-22.8-50.6-50.7-50.6z" fill="#575756"/><g clip-rule="evenodd" fill-rule="evenodd"><path d="m51.3 27.9c-.5.3-1 .6-1 .7s.5.7 1.3 1.3c2.8 2.3 5.3 5.1 6.2 7.1.5 1.2.5 2.7 0 3.4-.2.3-.4.6-.3.7 1.3 1.1 2.1 1.7 2.2 1.7s.4.2.7.4c.4.4.5.6.5 1.9v1.4l.1-1.2.1-1.2 1.8 1.8c2.2 2.2 3.6 4.1 4.6 6 1.1 2.1 1.4 3.3 1.3 5-.1 1.6-.5 2.2-1.6 2.5l-.6.1.6.9c.4.5 1.1 1.6 1.7 2.4.9 1.3 1.2 1.6 1.8 1.9.4.2 1 .6 1.3 1 .5.6.5.8.6 3.1 0 1.5.1 2.2.2 1.8.1-.7.1-.7 1 1.5 1.1 2.9 1.6 5.1 1.7 6.9v1.5l1.8.8c1 .5 2.2.9 2.7 1 .8.2.9.1 1.2-.2 2.3-2.3-1.3-12.8-7-20.5-.6-.8-1.2-1.7-1.2-1.9-.3-.8.3-1.6 1.4-1.8l.7-.1.1-1.2c.2-3.5-3.1-8.2-9.5-13.5-1.8-1.5-2-1.7-2-2.2 0-.3.2-.8.4-1.1.9-1.1.2-3-2-5.4-1.2-1.4-1.3-1.7-.9-2.7.1-.4-1.9-2.1-2.4-2-1.4.3-1.5.3-2.8-.7-1.5-1.1-2.5-1.6-3.2-1.6-.3 0-.9.2-1.5.5m-6.9 5.4c-.4.5-.8.8-.7.8s.5-.4.9-.8c.4-.5.8-.8.7-.8s-.5.4-.9.8m3.9 1.3-.9 1 .9-1c.9-.8 1.1-1 1-1s-.5.4-1 1m2.1 1.9-.6.7.6-.7c.7-.5.8-.7.7-.7 0 0-.3.3-.7.7m.8 4.6-.9 1 .9-1c.9-.8 1.1-1 1-1 0 .1-.5.5-1 1m-15.2 9.8c.3 2.9 2.4 4.8 5.3 4.8 2.8 0 4.9-1.9 5.3-4.8l.1-1.2-.7.7c-.4.4-1.3 1-1.9 1.3-1 .5-1.4.6-2.7.6-1.4 0-1.7-.1-2.7-.6-.7-.3-1.5-.9-1.9-1.3l-.7-.7zm28.2 6.7c-1.1 1.2-2.5 1.8-4.4 1.9-2 .1-3.2-.4-4.6-1.6l-1-.9.1 1.1c.2 2 1.2 3.4 2.9 4.3 1.5.7 3.4.7 4.7 0 1.7-.9 2.6-2.3 3-4.5.1-.6.2-1.1.2-1.1-.2 0-.5.4-.9.8m-22.3 3.2c0 1 0 1.3.1.9s0-1.3 0-1.7-.1-.1-.1.8m-3.4 3.4-.6.7.6-.7c.7-.5.8-.7.7-.7 0 .1-.3.4-.7.7m21 .2h1.2c.3 0 .1-.1-.6-.1s-.9.1-.6.1m8.3 0h1.4c.4 0 .1-.1-.7-.1-.7.1-1.1.1-.7.1m-31.2 4.5c0 .4 0 .5.1.3s0-.6 0-.7c-.1-.1-.1 0-.1.4m-5.5 2.6c-.4.5-.8.8-.7.8s.5-.4.9-.8c.4-.5.8-.8.7-.8s-.5.4-.9.8m2 2-.7.8.7-.8c.8-.6.9-.8.8-.8 0 0-.4.3-.8.8m5 .6c.3 2.9 2.4 4.9 5.2 4.9s5-2 5.3-4.7l.1-1.1-.8.7c-.4.4-1.2.9-1.8 1.2-.9.4-1.3.5-2.8.5-2.1 0-3-.4-4.4-1.7l-1-.9zm33-.6c0 .1-.1 2.4 0 5.1v4.8l.1-5.1c.1-2.8.1-5.1 0-5.1.1 0 0 .1-.1.3m-14.8 7.5-1.2 1.2 1.2-1.2c.7-.6 1.3-1.2 1.3-1.2-.1-.1-.2.1-1.3 1.2m-14.1 3.3c0 .4 0 .5.1.3 0-.2 0-.6 0-.7s-.1 0-.1.4" fill="#6bc94d"/><path d="m48.4 30c-3.4 2.6-5.8 5.2-6.8 7.2-.7 1.4-.6 1.6.4 1.8 2.4.4 4.5 1.9 5.4 4 .5 1 .5 1.4.5 2.8 0 1.5 0 1.8-.7 3-.4.8-.7 1.7-.8 2.3-.2 1.9-1.6 3.7-3.4 4.3-3.3 1.1-6.8-1-7.1-4.4-.1-.7-.3-1.4-.6-2l-.5-1-.6.7c-2.6 3.1-3.9 5.8-3.9 8 0 1 .3 1.4.9 1.4.7 0 1.4.7 1.4 1.3s-2.9 4.6-3.5 4.9c-.3.1-.7.2-1 .1-.4-.1-.5 0-1.2 1.2l-.8 1.3.4.4c.6.6.5 1.1-.5 3.3-1.2 2.7-2.2 5.7-2.4 7.5-.3 2.4.2 4.3 1.1 4.3.6 0 2.2-.6 3.7-1.3 1.4-.7 1.6-.8 2.3-.5.6.3.9.9.7 1.9-.1.7-.1.8.3.9 1.8.5 6.6-.4 8-1.6.6-.5 1.5-.4 2 .1.3.4.4.6.4 1.9 0 2 .3 2.6 1.3 2.6.9 0 1.6-.3 3.5-1.4 2.3-1.4 3.2-1.7 5.4-1.8l1.9-.1.7-.9c.4-.5 1.1-1.2 1.5-1.7l.8-.8v-3.1-3.1l-.2-.4c-.9-.8-1.1-1.4-1.1-4s.2-3.4 1.2-4.1 3.1-1 4.5-.6c.5.1.8.3.9.7.2.5.2.5 1.8.5 1.5 0 1.6 0 1.7-.5.2-.7 1.1-1 2.7-1h1.3c0-.1-2.1-3.1-2.7-4l-.6-.8.6-.1c1.1-.2 1.5-.8 1.5-2.5.1-3.1-1.5-6.2-5.3-10.5-.8-.9-1.7-1.8-2-2h-.5v1.1 1.1l.7.2c3 1 4.9 4.2 4.4 7.4-.1.6-.4 1.6-.7 2.2s-.6 1.5-.7 2c-.2 1.9-1.3 3.4-2.9 4.3-1.4.7-3.3.7-4.7 0-1.6-.8-2.7-2.3-2.8-4.1 0-.6-.3-1.4-.7-2.3-.6-1.3-.7-1.4-.7-3.2 0-1.6.1-2 .5-2.9.3-.6.9-1.4 1.4-1.9.8-.8 2.5-1.7 3.1-1.7.2 0 .2-.4.2-1.4 0-1.2.1-1.5.4-1.8.2-.2.5-.4.7-.4s-.1-.3-.6-.8c-.5-.4-1-.8-1-.8-.1-.1 0-.4.3-.7.5-.7.5-2.2 0-3.4-.9-2-3.3-4.7-6.2-7.1l-1.4-1.1zm0 4.4c-.9.8-1 1.1-1 1.6 0 1.5 1.4 1.9 2.8.7 1.3-1.1 1.6-2.1.9-2.9-.8-.7-1.5-.5-2.7.6m2.9 6.7c-.8.8-1.1 1.2-1.1 1.6 0 .7.5 1.3 1.2 1.4.5.1.7 0 1.7-1 .9-.9 1.1-1.2 1.1-1.7 0-.4-.1-.7-.5-1-.7-.7-1.2-.5-2.4.7m-8.3 16.9c-.8.1-1.1.7-1.1 2.6 0 1.3-.1 1.8-.3 1.8-.5 0-2.5 1.2-3.1 1.9-.4.4-.9 1.3-1.2 2-.5 1-.6 1.4-.6 2.7 0 1.5.3 2.6.9 3.5.2.3.4 1 .5 1.6.3 2.9 2.4 4.9 5.2 4.9s5-2 5.3-4.7c.1-.7.2-1.3.5-1.8 1.4-2.1 1.3-5.5-.4-7.6-.8-1-2.2-2.1-3.2-2.3l-.8-.2v-1.7c0-.9-.1-1.9-.2-2-.1-.5-.9-.8-1.5-.7m29.9 12.4c0 1-.4 1.8-1 2.5l-.6.6-.1 5-.1 5h1c.6 0 1.2-.1 1.4-.1.4-.1.4-.2.3-.9-.1-.4 0-1 .1-1.2.2-.4.9-.8 1.4-.8.3 0 .3-.2.2-1.5-.1-1.9-.8-4.5-1.8-6.9-.4-1-.8-1.9-.8-2 0-.2 0 0 0 .3m-40.7.2c-.3.1-.9.6-1.3 1.1-1 1-1.1 1.9-.3 2.5s1.4.5 2.5-.6c.8-.8 1-1.1 1-1.6.1-1.2-.8-1.9-1.9-1.4" fill="#83d167"/><path d="m45.2 45.7c0 .4 0 .5.1.3 0-.2 0-.5 0-.6-.1-.2-.1-.1-.1.3m24.8 23.4c0 .9 0 1.3.1.9 0-.4 0-1.2 0-1.6 0-.5-.1-.2-.1.7m-9.7 8v3.3-3.3l.1-3.1 4-.1 4-.1h-4.1-4.1zm-9.1 9c-.5.1-1.3.4-1.7.7l-.7.4v2 2l.6-.3c.7-.4 2.3-.8 2.9-.8h.5v3.4 3.4l2-.1 2-.1.1-2.3.1-2.3-1-.8c-1.1-1-2-2.7-2.1-4.1-.1-.6-.2-1.2-.3-1.3-.3-.1-1.3-.1-2.4.2m6 2.5s.3.3.6.6l.6.5-.5-.6c-.6-.5-.7-.6-.7-.5m2.9 1.8h.9c.2 0 0-.1-.5-.1-.4 0-.6 0-.4.1" fill="#c2583f"/><path d="m60.5 75.5v1.6h2.1 2.1l-.1 2.5c-.1 3.5-.4 4-3.9 7.4l-2.6 2.6.7.4c.9.4 2.5.5 3.4.1.8-.3 5.1-4.6 5.6-5.6.3-.6.3-1.2.4-5.5l.1-4.9h-3.9-3.9zm-9.7 14.8c-.5.1-1.1.4-1.4.5l-.6.3v2.7c0 2.3 0 2.7.3 2.8.2.1 1.1.1 2 .1h1.7v-3.4-3.3h-.6c-.3.1-1 .2-1.4.3" fill="#d46a50"/><path d="m60.4 79-.1 1.9-1.5 1.5c-2.1 2.1-2.5 3.3-2 5.1.2.7 1 1.8 1.3 1.8.1 0 1.3-1.1 2.7-2.5 3.4-3.3 3.7-3.8 3.8-7.3l.1-2.5h-2.1-2.1z" fill="#dc7f69"/><path d="m51.7 10.8c-.5.9-1.2 1.7-1.4 1.8s-1 .3-1.8.5-1.6.4-1.7.4c-.1.1.2.6 1 1.6 1.2 1.3 1.3 1.5 1.3 2.3v.8l1.2-.1c1.6-.1 3-.8 4.1-1.9 1.3-1.3 2.2-3.3 1.5-3.3s-1.2-.5-2.1-2c-.5-.9-1-1.6-1.1-1.6 0-.2-.4.6-1 1.5m12.2 55.1c1.1.1 1.4.1 1.8.5.5.5.5.6.5 2.6v2.1l1.8-.1 1.9-.1v-1.8-1.8l-1.7-.1c-1.8-.1-2.2-.3-2.2-1.1 0-.3-.2-.3-1.7-.3-1.6 0-1.7 0-.4.1m-5.2 3.2c0 .9 0 1.3.1.9 0-.4 0-1.2 0-1.6-.1-.5-.1-.2-.1.7" fill="#f8e0c1"/><path d="m62.7 66.2c0 .1-.2.4-.4.6-.3.3-.7.4-1.9.4l-1.5.1v1.8 1.9h3.6 3.6v-2c0-2 0-2.1-.5-2.6-.4-.4-.6-.5-1.7-.5-.9 0-1.2.1-1.2.3" fill="#fef0dc"/><path d="m40.9 42.1c.6.4 1.3 1.7 1.5 2.7.3 1.2 0 2.6-.8 3.8-.4.5-.6 1-.6 1 .2.2 1.7-.2 2.5-.7 3.2-2.2 1.5-7.1-2.4-7.1-.6 0-.6 0-.2.3m18.6 7.6c.8 1 1.2 1.9 1.2 3.2s-.3 2.2-1.1 3.2l-.6.7h.5c2 0 3.9-1.9 3.9-3.9s-1.8-3.8-3.7-3.8h-.7zm-16.6 15.4s.3.5.6.9c.7 1 1.1 2.4 1 3.6-.1 1-.5 1.7-1.2 2.6l-.6.6h.5c1.5 0 3-1 3.6-2.3.7-1.5.2-3.5-1.1-4.6-.7-.6-2.8-1.2-2.8-.8" fill="#fbcc85"/><path d="m56.1 13.7c-.3.9-1.4 2.4-2.4 3.1s-2.5 1.3-3.7 1.3h-.9l-.1 1.3v1.3s.9-.3 1.9-.7l1.9-.8 1.9.8c1 .4 1.9.7 1.9.7s0-.8-.1-1.8c-.1-.9-.1-1.9-.1-2.1s.6-1 1.3-1.8 1.2-1.5 1.2-1.5c-.1-.1-2.1-.6-2.4-.6-.1.1-.3.4-.4.8m-16.7 28.7c-1.1.6-1.8 1.7-1.9 3-.2 1.9 1.3 3.9 2.9 4 .5 0 .7-.1 1.2-.8 1.2-1.7 1.2-3.8 0-5.6-.7-1.1-1.2-1.2-2.2-.6m18.3 7.2c-1.5.8-2.3 2.5-1.9 4.4.2.9 1.3 2.1 2.3 2.5l.8.4.5-.6c.8-1 1.1-1.6 1.2-3s-.2-2.4-1.1-3.5c-.6-.8-.7-.8-1.8-.2m-16 15.9c-1.4.7-2.4 2.5-2.2 4 .2 1.4 1.8 3.2 3 3.2.4 0 1.2-.8 1.6-1.7.7-1.4.4-3.8-.7-5.1-.6-.8-.8-.8-1.7-.4" fill="#fcd79f"/><path d="m51.7 10.8c-.5.9-1.2 1.7-1.4 1.8s-1 .3-1.8.5-1.6.4-1.7.4c-.1.1.2.6 1 1.6 1.2 1.3 1.3 1.5 1.3 2.3v.8l1.2-.1c1.6-.1 3-.8 4.1-1.9 1.3-1.3 2.2-3.3 1.5-3.3s-1.2-.5-2.1-2c-.5-.9-1-1.6-1.1-1.6 0-.2-.4.6-1 1.5m12.2 55.1c1.1.1 1.4.1 1.8.5.5.5.5.6.5 2.6v2.1l1.8-.1 1.9-.1v-1.8-1.8l-1.7-.1c-1.8-.1-2.2-.3-2.2-1.1 0-.3-.2-.3-1.7-.3-1.6 0-1.7 0-.4.1m-5.2 3.2c0 .9 0 1.3.1.9 0-.4 0-1.2 0-1.6-.1-.5-.1-.2-.1.7" fill="#f8e0c1"/><path d="m51.3 6.4c-.3.2-1 1.1-1.5 1.9s-1 1.5-1 1.6c-.1.1-.8.3-1.6.5s-1.8.5-2 .6c-1.2.5-1.9 2.2-1.3 3.5.2.3.8 1.2 1.4 1.9l1.1 1.3v2.3c0 2.6.1 3 1.5 3.7.9.4 1.5.4 2.9-.2l.8-.3v.9c0 .9 0 .9-.9 1.2-1.3.5-5.2 3.5-7.5 5.8-3.2 3.1-4.8 5.8-4.8 8 0 .5-.1.9-.2.9-.5 0-2.2 1.9-2.8 3.1-.4.8-1.1 1.8-2.2 2.9-4 4.2-6 8.5-5.5 11.9.2 1.2.3 1.6 1 2.5.1.1-.1.6-.6 1.3-.8 1.2-1 1.9-.4 2.5.4.4 1.1.5 1.7.3.2-.1.7-.7 1.2-1.4s1.1-1.6 1.5-2c1-1.3.6-2.4-.8-2.7l-.9-.4-.1-1.2c0-.8.1-1.6.2-2.2.6-1.8 2-4.2 3.7-6l.6-.7.4.9c.6 1.2 1.8 2.4 3.2 3 1 .5 1.4.6 2.7.6s1.7-.1 2.7-.5c1.5-.7 3-2.2 3.5-3.7.6-1.5.5-3.7-.2-5.2-1-2-3.1-3.6-5.3-3.8l-.9-.2.1-.6c.5-2.3 3.4-5.6 8.3-9.3 3-2.2 3.7-2.3 6.3-.4 1.8 1.3 2.4 1.4 3.2.8.3-.3.4-.5.4-1-.1-.7-.2-.8-1.7-2-.9-.7-2-1.4-2.4-1.5-.8-.3-.8-.3-.8-1.2v-.8l1.1.4c.6.2 1.3.4 1.5.4.8 0 1.9-.7 2.3-1.5.4-.7.4-.9.3-2.8l-.1-2 1.1-1.3c1.7-1.9 1.9-2.6 1.3-4.1-.5-1-1-1.3-3.1-1.8-1-.2-1.8-.5-1.9-.5-.1-.1-.5-.8-1-1.6-1.1-1.7-1.8-2.2-3-2.2-.6 0-1.1.1-1.5.4m.3 4.3c-1.1 1.9-1 1.8-3.7 2.4-.8.2-1.5.3-1.5.4 0 0 .4.6 1.1 1.4 1.8 2.1 1.7 1.8 1.5 4.1-.1 1.1-.2 2-.1 2 0 0 .9-.3 1.8-.7 1-.4 1.9-.7 2.1-.7s1.1.3 2.1.7 1.8.7 1.8.7 0-1-.1-2c-.2-2.2-.3-2 1.5-4.1.6-.7 1.1-1.3 1.1-1.4 0 0-.7-.2-1.5-.4-2.7-.6-2.5-.5-3.7-2.4-.6-.9-1.1-1.7-1.2-1.7s-.6.7-1.2 1.7m9.9 21c-.8.8-.7 1.1 1.3 3.6.9 1.1 1.6 2.4 1.8 3.3.1.5 0 .8-.4 1.3-.5.7-.6 1.5-.1 2 .2.2 1.1 1 2 1.8 2.1 1.8 4.8 4.5 6.1 6.2 2.2 2.9 3.1 5 3 7.1v1l-.7.1c-1.7.3-1.9 1.4-.5 3.1 5.8 7.7 9.4 17.6 7.6 20.7-.3.5-.4.6-1.1.5s-3-.9-4-1.5c-.7-.4-1.6-.4-2.1.1-.4.3-.4.5-.4 1.2.1 1.1-.1 1.3-1.7 1.3h-1.2v-5-5l.5-.3c.9-.6 1.2-1.5 1.2-4.1 0-2.1 0-2.4-.4-3.1-.7-1.1-1.7-1.6-3.7-1.6-1.6 0-1.7 0-2.2.5-.4.4-.4.6-.4 1 .2 1 .5 1.1 2.3 1.2.9 0 1.6.2 1.7.3.2.3.2 3.1 0 3.4-.2.2-1.5.2-5.8.2h-5.6v-1.8-1.8l1.5-.1c1.8-.1 2-.2 2.3-.9.2-.6 0-1.3-.5-1.6-.6-.3-3.4-.2-4.2.2-1.5.8-1.9 1.7-1.9 4.4 0 2.2.3 3.1 1.2 3.9l.5.4v3.2 3.2l-1.2 1.2c-.7.7-1.3 1.4-1.5 1.7-.3.5-.3.5-1.1.4-1.1-.2-3.3.2-4.4.6-.5.2-1.6.8-2.5 1.4-1.8 1.1-2.9 1.5-3.6 1.3s-1.1-1.5-1-2.8c.1-1.2-.1-1.8-.8-2.1-.5-.2-.6-.2-1.1.1-2.2 1.2-4.3 1.8-6.7 1.8-2.2 0-2.4-.1-2.2-1.3.1-.7 0-.9-.3-1.3-.6-.6-1.2-.5-2.9.3-.8.4-2 .9-2.6 1-1.1.3-1.2.3-1.5-.1-1.4-1.7-.6-6.4 2.1-12.2.7-1.6.8-2 .2-2.7-.4-.5-1.2-.5-1.7-.1-.8.6-2.9 6.1-3.6 9.1-.4 2-.5 4.8-.1 6 .7 2.2 2.2 3.3 4.1 3.1.6-.1 1.6-.3 2.3-.6l1.3-.4.5.6c.3.4.9.8 1.4 1 1.5.7 6 .4 8.5-.5.2-.1.4.1.6.9.6 2.1 2.2 3.2 4.4 3 .6-.1 1.3-.2 1.4-.2.3-.1.3.2.4 4 .1 4.7.1 4.9 1.4 5.9l.7.5h4.9 4.9l.7-.5c1.1-.8 1.3-1.4 1.4-3.7l.1-2 1.3-.1c2.2-.1 3.2-.7 6.4-4l2.7-2.8h1.9c2.3 0 3.3-.4 4.1-1.4l.5-.6 1.3.5c1.8.6 3.6.7 4.5.1 2.5-1.7 2.9-6 .9-11.8-1.2-3.5-3.2-7.5-5.5-11-.9-1.3-1-1.7-.9-1.9 2.3-3.2.7-8.6-4.1-13.9-1.4-1.5-3.7-3.7-5-4.8-.8-.7-.8-.7-.7-1.3.6-2.1-.6-5-3.2-7.7-1.5-1.7-2.1-1.9-2.8-1.1m-11.8 1.8c-.2.1-.7.5-1.2 1-1.1 1.1-1.3 1.8-.5 2.5.8.6 1.3.5 2.4-.6.8-.8 1-1.1 1-1.6-.1-.9-.9-1.5-1.7-1.3m1.6 7.7c-1.1 1.1-1.3 1.9-.6 2.5.8.6 1.4.4 2.5-.6 1.1-1.1 1.3-1.8.6-2.5-.6-.7-1.4-.5-2.5.6m-11.5.8c-1.2.5-2.2 1.6-2.5 3-.3 1.6.6 3.4 2.1 4.1 1.7.8 3.4.5 4.7-.9 2.3-2.5.4-6.5-3-6.4-.4 0-1 .1-1.3.2m19.1.9c-.6.2-.8.9-.8 2.3 0 1-.1 1.2-.3 1.3-2 .6-3.4 1.9-4.3 3.7-.5 1.1-.6 1.4-.6 2.8 0 1.9.5 3.1 1.8 4.6 1.2 1.3 2.5 1.9 4.3 2 1.7.1 3-.2 4.3-1.1 4.3-3 3.6-9.4-1.2-11.5l-1.2-.5v-1.5c0-1.2-.1-1.4-.4-1.8-.6-.5-1-.5-1.6-.3m-1.2 6.6c-2.5 1.3-2.9 4.5-.8 6.4 1.6 1.4 3.9 1.3 5.4-.2.9-.9 1.2-1.7 1.1-3.1s-.8-2.4-2.1-3.1c-1.4-.7-2.3-.7-3.6 0m-15.2 9c-.5.3-.5.4-.5 2.2 0 1.4-.1 1.8-.2 1.8-.6 0-2.5 1.2-3.2 1.9-.4.5-1 1.3-1.3 1.9-.4.9-.5 1.3-.5 2.8 0 1.6 0 1.8.6 2.8.7 1.4 1.9 2.5 3.3 3.1.9.4 1.3.5 2.7.5 1.5 0 1.8-.1 2.9-.6 2-1 3.3-2.7 3.7-5 .5-3-1.4-6.2-4.3-7.2l-.9-.3-.1-1.8c-.1-1.7-.1-1.9-.5-2.2-.5-.4-1.1-.4-1.7.1m-.7 6.8c-1.5.6-2.4 2-2.4 3.6 0 1.2.2 1.7.9 2.6 1.7 1.9 4.6 1.8 6.1-.2 1.9-2.5 0-6.3-3.1-6.2-.4-.1-1.1.1-1.5.2m-10.6 6.3c-1.2 1.2-1.3 1.6-.6 2.3.7.8 1.4.7 2.6-.5 1.1-1.2 1.2-1.7.5-2.4-.7-.8-1.3-.6-2.5.6m29.1 5.8v3.6l-1.5 1.6c-.8.9-1.7 1.8-1.8 2.2-.6 1.2-.3 3.4.7 4.4.6.6 2.1 1.3 2.9 1.3 1.5 0 2-.3 4.6-2.9 1.5-1.5 2.7-2.8 2.9-3.2.3-.7.3-1.2.3-5.6v-4.9h-4-4v3.5m-9.2 8.7c-.5.1-1.3.4-1.7.7l-.7.4v4.8 4.8h3.9 3.9l.1-2.3.1-2.3-.8-.9c-1.1-1-2-2.7-2.1-4.1-.1-.6-.2-1.2-.3-1.3-.3-.1-1.3-.1-2.4.2"/></g></svg>