<svg enable-background="new 0 0 105.6 105.5" viewBox="0 0 105.6 105.5" xmlns="http://www.w3.org/2000/svg"><path d="m52.8 105.4c-29 0-52.7-23.6-52.7-52.7 0-29 23.6-52.7 52.7-52.7s52.7 23.6 52.7 52.7-23.6 52.7-52.7 52.7zm0-103.3c-27.9 0-50.7 22.7-50.7 50.7 0 27.9 22.7 50.7 50.7 50.7 27.9 0 50.7-22.7 50.7-50.7s-22.7-50.7-50.7-50.7z" fill="#575756"/><g clip-rule="evenodd" fill-rule="evenodd"><path d="m83 63.4c-.3.2-1.4.7-2.3 1.2l-1.6.8v3.4c0 3.8-.2 5.7-.7 7.7-1 4-3.7 7.9-7 10.4-.6.4-1.8 1.2-2.7 1.7l-1.7.9 1.2-.1c2.6-.2 5.7-1.3 8.1-2.9 2.3-1.5 4.6-4.2 5.9-6.8 1.1-2.2 1.8-5.2 1.8-7.5 0-1.3.3-1.9.9-2.1.3-.1.3-.2.3-1.5s0-1.4-.3-1.5c-.7-.2-.9-.8-.9-2.1 0-1.2-.1-1.9-.3-1.9-.1-.1-.4.1-.7.3m-48.1 18.2v8h2.4 2.4v-8-8h-4.8zm18.7 2.6.8.8s-.3-.3-.7-.8l-.8-.8c0 .1.3.4.7.8" fill="#ffd15b"/><path d="m77.7 66.1c-.7.3-1.9.8-2.6 1.1l-1.3.5v2.5c0 3.7-.4 5-2.2 6.8-1.5 1.5-3.2 2.2-5.3 2.2-2 0-3.7-.7-5.1-2-1.4-1.4-2.3-3.2-2.3-4.9 0-.8 0-.8-.4-.7-.9.2-4.7.7-7.1 1-1.4.2-2.6.3-2.7.4s.4 2.9.8 4.1c.9 2.7 2.2 4.8 4.3 6.9 3.1 3.2 7.2 5.1 11.5 5.3l1.8.1 1.7-.9c3-1.5 5.4-3.6 7.2-6.4 2.5-3.8 3.3-7.2 3.2-13.6v-3.1zm7.5 2.5c0 .8 0 1.2.1.7v-1.5c0-.4-.1-.1-.1.8m-55.6 12.8c0 5.9 0 7.9.2 8 .1.1.9.2 2.7.2h2.5v-16h-2.7-2.7z" fill="#ffe177"/><path d="m81.7 32.2c-.3 0-1 .1-1.6.1l-1.1.2v4.9c0 4.1-.1 5.1-.3 6.3-.5 2.6-1.6 5.2-3.1 7.3-1.2 1.7-1.2 1.8 0 3.7 1.6 2.4 2.6 4.8 3 7.2l.2 1.2 2-1.1c1.1-.6 2.1-1.2 2.3-1.3.2-.2.2-.2-.1-1.3-.5-1.5-.9-2.2-2.1-4-1.5-2.3-1.5-2.8-.1-4.9 1.8-2.6 2.9-5.5 3.2-8.5.2-1.6.2-8 .1-9.1l-.1-.7h-.9zm-33.3 8.7c0 .4 0 .6.1.3v-.8c-.1-.1-.1.1-.1.5m-11.2 2.1-2.4 1.1v13.6 13.6h1.4c.7 0 1.9 0 2.5-.1l1.3-.2v-14.5c0-11.6 0-14.6-.2-14.6-.1 0-1.3.5-2.6 1.1m28.7 4.7h.7c.2 0 0-.1-.3-.1-.4 0-.6 0-.4.1m5.5 12.5c.3.3.6.5.6.5s-.2-.2-.4-.5c-.3-.3-.6-.5-.6-.5 0-.1.2.2.4.5m-23 4.4c0 .4 0 .6.1.3v-.8c-.1-.1-.1.1-.1.5" fill="#fe4fb7"/><path d="m76.6 32.7c-3 .3-2.8.2-2.8 1.2 0 .7-.1.9-.4 1.2-.2.2-.5.4-.6.4-.2 0-.2.2-.2 1.4v1.4l.5.2c.6.3.8.6.8 1.6 0 2-.9 4-2.4 5.4-1.2 1.1-2.2 1.6-3.8 1.9-3.6.7-7.5-1.6-8.6-5.3-.2-.6-.2-1.5-.2-3.7v-2.9l-2.3.6c-2.3.6-6.1 1.7-7.4 2.2l-.6.2v1.7c.1 3.9 1 6.6 3.2 9.9 1.5 2.2 1.5 2.8.1 4.8-1.6 2.3-2.7 4.9-3.1 7.5-.1.5-.2 2.5-.3 4.4-.1 3.4-.1 3.5.2 3.5.8 0 8.2-1 9.7-1.3l.4-.1v-2.4c0-2.6.1-3.4.9-4.8.5-1 2-2.5 3-3 4.5-2.4 10 .3 10.9 5.3l.2 1 1.4-.6c.8-.3 1.9-.8 2.5-1.1 1.3-.6 1.3-.6.7-2.8-.5-2.1-1.3-3.9-2.6-5.8-1.4-2.1-1.4-2.2-.2-3.9 1-1.5 1.8-2.9 2.4-4.7.9-2.4 1-3.4 1.1-8.5.1-4.4 0-5.4-.2-5.4-.2.3-1.2.4-2.3.5m-44.5 12.8-2.6 1.3v6.3c0 3.8-.1 6.4-.1 6.6-.1.2-.4.4-.6.4l-.5.2v1.5c0 1.1 0 1.5.2 1.5.1 0 .4.1.6.3l.4.3v7.1l.6.1c.3.1 1.5.1 2.7.1h2.1v-13.5c0-7.4-.1-13.5-.1-13.5-.1 0-1.3.6-2.7 1.3" fill="#fe73c5"/><path d="m34.9 28.7v12.8l5.2-2.2v-11.5c0-6.3 0-11.5-.1-11.7s-.4-.2-2.5-.2h-2.4zm31.2-12.6c.9.1 1.4.2 2.6.9 4.8 2.5 8.4 6.9 9.7 12l.3 1.3 1-.1c.5 0 1.7-.1 2.5-.2l1.5-.1-.3-.9c-.8-2.8-2.2-5.2-4.2-7.3-3.4-3.7-7.5-5.5-12.5-5.7-1.3 0-1.5 0-.6.1m-38.9 4.5-.4.4.4-.4c.3-.2.5-.4.5-.4 0-.2-.1-.1-.5.4m-5 1.7h1.1c.3 0 .1-.1-.5-.1s-.9.1-.6.1m-.7 5.1v2.5s0-3.6 0-5 0-.2 0 2.5m49.9 1.1c.6.7.8.8.8.7 0 0-.3-.4-.8-.7l-.7-.7zm-23 5.8c0 1 0 1.4.1.9v-1.8c0-.5-.1-.1-.1.9m35.6 30.6c0 .3 0 .5.1.3s0-.5 0-.6-.1 0-.1.3m0 7.3c0 .3 0 .5.1.3s0-.5 0-.6-.1 0-.1.3m-45.8 1.3h.6s0-.1-.3-.1-.4 0-.3.1" fill="#fe860a"/><path d="m29.5 16c-.1.1-.3.6-.4 1.2-.8 3.3-3.2 5.1-6.5 5.1h-1v5.1 5.1l2.7.1c2.7.1 2.7.1 3.4.5.5.3.9.7 1.2 1.2l.5.7v4.5c0 2.5.1 4.5.1 4.5s1.2-.6 2.7-1.3l2.6-1.3v-25.5h-2.6c-1.4 0-2.6.1-2.7.1m33.5.3c-5 .9-9.5 4.1-12.1 8.6-1.6 2.7-2.4 5.7-2.4 9.1v2.1l1.9-.6c1.6-.5 5.1-1.5 7.6-2.1.6-.2.6-.2.8-1.1.3-1.3 1-2.6 2-3.7 3.3-3.5 9.2-2.9 11.7 1.2.3.4.5.8.5.8.1.1 5.6-.5 5.6-.7 0-.1-.1-.7-.3-1.3-1.4-5-5-9.4-9.8-11.8-1.5-.8-1.5-.8-2.9-.8-.8.1-1.9.2-2.6.3m-23.5 57.2.3.1v7.8 7.8-7.9-7.9l-.3.1c-.3-.1-.3-.1 0 0m26.1 16h1c.3 0 0-.1-.5-.1s-.8.1-.5.1" fill="#fe9738"/><path d="m28.4 13.9c-1 .5-1.3 1-1.7 2.6-.6 2.4-1.9 3.4-4.3 3.4-1.2 0-2.1.3-2.6.9-.7.8-.7 1.1-.7 6.7 0 5 0 5.3.3 5.9.6 1.3 1.5 1.6 4.7 1.6 2.2 0 2.3 0 2.6.4l.3.4v11.7c0 10.8 0 11.7.3 12.2.2.4.4.5.8.6.4 0 .7-.1.9-.3l.4-.3.2-13 2-1c2.3-1.2 7.4-3.6 7.9-3.7l.4-.1v29.1l-1.2.1c-.6.1-3 .1-5.2.1h-4v-3.5c0-3.8-.1-4.1-.9-4.4-.7-.2-1.2.1-1.4.8s-.2 24.6 0 25.5.6 1.5 1.4 1.9c.6.3.9.3 6.1.3 4.4 0 5.6 0 5.9-.2.6-.3 1.2-1 1.4-1.5.2-.6.2-74.2 0-74.8-.2-.5-.8-1.2-1.4-1.5-.5-.3-11.5-.3-12.2.1m35.5-.2c-3.8.6-6.9 1.8-9.7 4-3.9 2.9-6.6 7.1-7.7 12.1-.4 1.7-.5 11.3-.2 13.5.5 2.8 1.8 6.3 3.4 8.4.4.5.7 1 .7 1.1s-.3.6-.7 1.1c-1.5 2.2-2.4 4.2-3.1 7-.4 1.6-.4 1.6-.4 7.5 0 6.4.1 7 .9 9.6 1.7 5 5.4 9.3 9.9 11.7 3.2 1.6 5.5 2.2 9.2 2.2 3.8 0 6.1-.6 9.3-2.2 5.7-2.9 9.7-8.5 10.7-15 .3-1.7.3-3.6.1-4-.3-.5-.8-.6-1.4-.4-.6.3-.6.3-.8 2.4-.3 4.7-2.1 8.7-5.4 11.8-2.6 2.5-5.3 4-9 4.8-1.6.3-5.4.4-7 0-3.7-.8-6.4-2.3-9.1-5-2.2-2.2-3.6-4.5-4.5-7.3-.4-1.4-.9-3.8-.7-4 .1-.1.9-.2 1.9-.3s3-.4 4.4-.6 2.9-.4 3.2-.5l.6-.1.2 1.2c.5 3.2 3 5.8 6.2 6.4 3.5.6 7-1.5 8.3-5 .3-.7.3-1.4.4-3.7l.1-2.8 2.2-.9c2.2-.9 5.4-2.4 7-3.4.4-.3.8-.4.9-.3 0 .1.1.8.2 1.7s.2 1.7.2 1.9c.2.4 1.1.6 1.5.4.5-.3.6-.7.6-1.9 0-3.6-1.3-7.7-3.4-10.9-.5-.7-.8-1.3-.8-1.4s.4-.7.8-1.4c1.5-2.1 2.4-4.4 3-7.1.3-1.2.3-2.1.4-6.6.1-4.1 0-5.5-.2-6.7-1.3-8.5-7.5-15.1-15.9-17-1-.2-5.4-.4-6.3-.3m-34.6 2.5c-.1.1-.2.6-.3 1.1-.4 1.9-1.8 3.6-3.5 4.4-.7.3-1.2.4-2.2.5-.8 0-1.5.1-1.6.2s-.2 1.3-.2 5c0 2.7.1 4.9.1 5 .1.1 1 .2 2.7.2 2.1 0 2.7.1 3.1.3.7.4 1.3 1 1.7 1.7.3.6.3.8.4 5.1v4.5l2.7-1.4c1.5-.7 3.8-1.9 5.2-2.5l2.5-1.1v-11.4c0-6.3 0-11.5-.1-11.7s-.7-.2-5.3-.2c-4.7 0-5.1.1-5.2.3m34.8-.1c-7.7 1.1-13.7 6.7-15.4 14.4-.3 1.4-.5 5.7-.3 5.7.1 0 .9-.2 1.9-.5 1.8-.6 7-2 7.8-2.1.5-.1.5-.1.7-1 .4-2.2 2-4.3 4-5.3 3.8-1.9 8-.4 10.1 3.5 0 0 .9-.1 1.9-.2 1.9-.2 7.5-.7 8.3-.7h.4l-.1-.9c-.8-2.8-2.2-5.2-4.2-7.3-2.7-2.9-5.8-4.6-9.5-5.4-1.4-.3-4.3-.4-5.6-.2m.2 13c-1.1.4-2.1 1.4-2.7 2.6l-.5 1v4.2c0 3.7 0 4.3.3 5 .4 1.1 1.5 2.3 2.7 2.9.7.4 1 .4 2.2.4 1.1 0 1.4-.1 2.2-.4 1.7-.9 2.7-2.3 2.9-4.4.1-1.4.4-1.8 1.2-1.8.7 0 1.2.6 1.2 1.5 0 3.4-2.4 6.5-5.6 7.4-3.4.9-7.1-.8-8.6-4-.6-1.4-.8-2.3-.8-5.1 0-1.4 0-2.6-.1-2.6-.2 0-5.7 1.5-7.7 2.1-1.4.4-2.5.8-2.6.8 0 0-.1.6 0 1.3 0 3.8 1 7.1 3.1 10.3.6.9 1.1 1.8 1.2 2.1.2.8-.1 1.6-1 2.9-1.6 2.3-2.7 4.9-3.1 7.7-.1.9-.2 2.6-.2 4.5v3.1h.5c.7 0 6.4-.7 8.3-1l1.5-.3.1-2.7c.1-2.9.2-3.4 1.1-5 1-1.7 3.1-3.1 5.2-3.4 3.5-.6 7 1.5 8.2 5 .2.5.3 1.1.3 1.3 0 .8.2.8 1.6.2 2.4-1 6.5-3 8-4 .2-.1.1-.4-.2-1.3-.5-1.5-.9-2.2-2.1-4-1.5-2.3-1.5-2.8-.1-4.9 1.9-2.7 2.9-5.5 3.2-8.8.2-1.8.1-9.3 0-9.5-.1-.1-4.1.1-7.7.5l-2.5.3v.7c0 1.2-.5 1.8-1.4 1.8-.2 0-.9-.5-.9-.7 0 0-.1-.6-.1-1.3-.2-2-1.2-3.5-2.8-4.3-1.2-.5-3.2-.6-4.3-.1m.1 31.6c-1.7.7-2.8 2.1-3.2 4-.1.6-.2 2.3-.1 4.6l.1 3.6.5 1c1 2 2.6 2.9 4.8 2.8 2-.1 3.5-1.1 4.4-2.8.4-.8.4-.8.4-5.3s0-4.6-.4-5.3c-.5-1-1.5-2-2.4-2.4-1.1-.6-3.1-.6-4.1-.2m-30.6 12.8h-4.2v8 8h10.2v-8.1-8.1h-1c-.3.1-2.7.2-5 .2"/></g></svg>