<svg enable-background="new 0 0 105.6 105.5" viewBox="0 0 105.6 105.5" xmlns="http://www.w3.org/2000/svg"><path d="m52.8 105.4c-29 0-52.7-23.6-52.7-52.7 0-29 23.6-52.7 52.7-52.7s52.7 23.6 52.7 52.7-23.7 52.7-52.7 52.7zm0-103.3c-27.9 0-50.7 22.7-50.7 50.6s22.7 50.7 50.7 50.7c27.9 0 50.7-22.7 50.7-50.7s-22.8-50.6-50.7-50.6z" fill="#575756"/><g clip-rule="evenodd" fill-rule="evenodd"><path d="m50.7 24.4h1.7c.4 0 0-.1-.9-.1s-1.3.1-.8.1m-9.7.9-.5.6.5-.6c.6-.4.7-.6.6-.6-.1.1-.3.3-.6.6m-15.1 18.5c0 .4 0 .5.1.3 0-.2 0-.5 0-.7s-.1 0-.1.4m52 0c0 .4 0 .5.1.3 0-.2 0-.5 0-.7s-.1 0-.1.4m-9.5 4.4c0 .4 0 .5.1.3 0-.2 0-.5 0-.7s-.1 0-.1.4m-33 .1c0 .3 0 .5.1.3 0-.2 0-.4 0-.6-.1-.2-.1 0-.1.3m24.7 7.2s.2.3.6.6l.6.5-.6-.6c-.5-.6-.6-.7-.6-.5m-17 .6-.5.6.5-.6c.6-.4.7-.6.6-.6-.1.1-.4.3-.6.6m7.2-.1h3.3c.9 0 .2-.1-1.7-.1s-2.5.1-1.6.1m-2.3 4.8h7.9c2.2 0 .4 0-3.9 0s-6.1 0-4 0m3.7 8.6h.6c.2 0 0-.1-.3-.1s-.5.1-.3.1m11.4 10.6c-.5 1.7-.6 2.1-.4 2.3 1.3 1.5 2.8 6 3.1 8.8.1 1.2.1 1.2-.4 1.7l-.5.5.5.1c.4.1.5 0 .5-.2s.2-.4.4-.6c.4-.3.6-.4 2.6-.4 1.3 0 2.3-.1 2.4-.2.2-.2 0-1.8-.4-3.6-.8-3.2-2.6-6.3-5-8.7-2.3-2.1-2.1-2.1-2.8.3m-25-.3-.8.9.8-.9c.5-.4.9-.8.9-.8.1-.2-.1-.1-.9.8m13.5.9h.8c.2 0 0-.1-.4-.1s-.6 0-.4.1" fill="#855151"/><path d="m51 21.8h1.3c.3 0 .1-.1-.6-.1-.8.1-1.1.1-.7.1m-13 25.7c0 .8 0 1.1.1.7 0-.4 0-1 0-1.4-.1-.5-.1-.1-.1.7m27.9 0c0 .8 0 1.1.1.7 0-.4 0-1 0-1.4-.1-.5-.1-.1-.1.7m-17.9 15.8h7.9c2.2 0 .4 0-3.9 0s-6.1 0-4 0m-9.8 16.5c-1.9 1.9-3.2 3.9-4.1 6.1-.7 1.8-1.2 3.8-1.3 5.1v1h5.7c3.1 0 5.7 0 5.7-.1 0-.4-4-13.9-4.1-13.9-.1.1-1 .9-1.9 1.8m22.9 7.2c-.8 2.7-1.4 4.9-1.4 5s.6.1 1.3.1c1.2 0 1.4 0 1.7.4.2.2.4.6.4.7 0 .2.3.2 1.3.2.7 0 1.1-.1.9-.1l-.4-.1.5-.5c.5-.5.5-.5.4-1.7-.1-1.6-.7-3.8-1.3-5.4-.5-1.3-1.6-3.3-1.8-3.5-.1.1-.8 2.3-1.6 4.9" fill="#9b5e5e"/><path d="m47.8 47.5c0 .7 0 1 .1.6 0-.3 0-.9 0-1.3-.1-.3-.1 0-.1.7m8.3 0c0 .7 0 1 .1.6 0-.3 0-.9 0-1.3-.1-.3-.1 0-.1.7m1.9 28.4-.2.9 1.4 1.4 1.4 1.4.4-1.3c.2-.7.4-1.4.5-1.6s-.2-.4-1.2-.8c-2.1-1-2-1-2.3 0" fill="#9be69d"/><path d="m44.7 75.5c-.5.2-1.2.5-1.5.7l-.6.3 2.1 7.2c1.1 4 2.2 7.5 2.3 7.8l.2.6h4.9c4.5 0 4.9 0 5-.3.7-2.2 3.5-12.1 3.5-12.3s-1.4-1.6-2.3-2.4c-.4-.3-.4-.3-.8.4-.6 1-1.6 1.9-2.8 2.5-.8.4-1.2.4-2.6.4s-1.7-.1-2.6-.4c-1.8-.8-2.9-2.2-3.5-4.1l-.3-.9z" fill="#bbf49b"/><path d="m49.7 10.7c-3.3.3-6.3 1.2-9.3 2.7-2.1 1.1-2.7 1.2-3.2.7-.3-.2-.4-.2-1.1.4-.8.6-.9.7-.8 1.4s.1.7-1.6 2.5c-3.4 3.6-5.5 7.4-6.6 12.2-.3 1.4-.4 2.4-.5 4.7l-.1 2.9.7-.3c.4-.2 1-.4 1.4-.5.5-.1.7-.2.9-.5.5-1.1 2-2.4 3.4-2.9.3-.1 1.2-.3 1.9-.3 2.2-.2 3-1 3.7-3.5.9-3.6 3.2-6.1 6.6-7.3s8.4-1.4 12.4-.4c4.2 1.1 7.3 4 8.2 7.9.5 2.2 1.5 3 3.6 3.3.7.1 1.6.2 1.9.3 1.4.5 2.9 1.8 3.4 2.9.1.3.4.4.9.5.4.1 1 .3 1.4.5l.7.3-.1-2.9c-.1-2.3-.2-3.3-.5-4.7-1.2-4.9-3.3-8.8-6.9-12.4s-7.8-5.9-12.6-6.9c-1.4-.3-5-.7-5.8-.6-.4-.1-1.2 0-2 0m-11.3 35c-.2.2-.3.6-.3 1.8 0 2.1-.3 2 4.9 2 3.6 0 4.3 0 4.5-.3.2-.2.3-.6.3-1.8 0-2-.1-2-2.1-2h-1.6l.1.7c.1.6 0 .8-.4 1.1-.6.5-1.2.5-1.7-.1-.4-.4-.4-.6-.4-1.1l.1-.7h-1.5c-1.4.1-1.7.2-1.9.4m18 0c-.2.2-.3.6-.3 1.8s.1 1.6.3 1.8.9.3 4.5.3c5.1 0 4.8.1 4.8-2.1 0-1.9-.1-2-2.1-2h-1.5l.1.7c.1.6 0 .8-.4 1.1-.3.2-.6.4-.8.4s-.6-.2-.8-.4c-.4-.3-.5-.5-.4-1.1l.1-.7h-1.6c-1.2-.1-1.6 0-1.9.2m-8.8 10.6c-1.6.5-3 1.7-3.7 3.1-.2.4-.2.7-.1.9.2.3.3.3 7.9.3 4.3 0 7.9 0 8-.1.8-.3-.2-2.2-1.7-3.3-1.3-1-2.2-1.2-6.3-1.2-2.3.1-3.6.2-4.1.3" fill="#f7f9fa"/><path d="m48.4 24.6c-2.5.4-4.8 1.5-6 3.1-.8 1-1.2 2-1.6 3.6-.4 1.5-.6 2-1.7 3.1s-2.3 1.7-4.1 1.9c-1.4.2-2.1.4-2.7 1.1-.7.8-1 1.5-1 3v1.4l2.1 1.5 2.1 1.5.7-.8c1.2-1.3 1.3-1.3 6.7-1.3 4.2 0 4.8 0 5.4.3.9.4 1.7 1.3 2 2.2l.2.7h1.5 1.5l.2-.7c.3-.9 1.1-1.8 2-2.2.6-.3 1.2-.3 5.4-.3 4.4 0 4.8 0 5.4.3.4.2.7.3.7.3s0-1 0-2.3c-.1-1.9-.1-2.5-.5-3.2-.7-1.7-2.6-2.9-4.4-2.9-1 0-2.3-.5-3.1-1.2s-2.8-1.6-4.4-2c-2.4-.6-5.8-.2-8.2.8-1.2.5-1.7.6-2.2 0-.9-.9-.5-1.7 1.3-2.5 2.3-1 3.2-1.2 6.3-1.2 2.6 0 3.7.1 5.1.7.2.1.2 0 .1-.5-.4-1.6-1.7-3.2-3.6-4.2-1-.5-1.2-.5-2.6-.5-.8.2-2 .2-2.6.3m-21.1 16.5c-.7.6-1 1.1-1.1 1.7-.4 1.6.2 3.5 1.5 4.3.3.2.7.4.8.4s.1-1.6.1-3.6c0-2.4-.1-3.6-.2-3.6-.1-.1-.6.3-1.1.8m48 2.7c0 2 .1 3.6.1 3.6.3 0 1.2-.8 1.7-1.4 1.2-1.6 1-3.5-.5-5-.5-.5-1-.9-1.1-.9-.1.1-.2 1.3-.2 3.7m-44 3c0 2.2.3 5.1.6 6.5 1.9 8.4 9.1 14.8 17.7 15.8 2.6.3 3.1.3 4.9-.6 6.1-2.9 10.5-8.2 12.1-14.9.5-1.9.5-2-.3-1.7-.5.2-1.6.2-5.3.2-5.2 0-5.5-.1-6.5-1.1-.5-.5-1-1.6-1-2.1 0-.3-.1-.3-1.5-.3-1.5 0-1.5 0-1.5.4 0 1.1-1.3 2.7-2.5 3-.4.1-2.3.2-5.4.1l-4.8-.1-.7-.5c-1-.7-1.6-1.6-1.7-2.8-.1-.9-.2-1-.6-1.3-.3-.2-1.2-.8-2-1.4l-1.5-1zm16.3 6.8c-3 .6-5.9 3.2-6.5 5.7-.4 1.5.8 3.5 2.3 3.9.5.1 3.2.2 8.9.1h8.2l.7-.5c1.5-1.1 1.9-2.9 1.1-4.6-.6-1.3-2.4-3.1-3.6-3.7-1.6-.8-2.8-1-6.9-1-1.9-.1-3.8 0-4.2.1m.6 19.2c0 2.6.6 3.9 2 4.6 1.1.6 2.3.6 3.4 0 1.5-.8 2-2.1 2-4.6v-1.2l-1.1.1c-.6.1-1.8.1-2.6.1s-2-.1-2.6-.1l-1.1-.1z" fill="#ffdfcf"/><path d="m53.6 25c1.8 1 3.6 3 3.6 4.2 0 .4.2.6 1.4 1.2s1.5 1.1 1.2 1.9c-.1.3-.4.6-.7.8l-.5.2.7.6c.8.7 2 1.1 3 1.1 1.8 0 3.7 1.2 4.4 2.9.3.8.4 1.2.4 3.3v2.4l.5.6.5.6 2.2-1.6 2.2-1.6v-1c0-1.3-.3-2.1-.9-2.8-.7-.8-1.5-1.2-2.9-1.3-1.5-.1-2.8-.6-3.8-1.5s-1.6-1.9-2.1-3.7-1.1-2.8-2.2-3.9c-1.6-1.5-3.8-2.3-6.8-2.6l-1.4-.1zm-2.1 6.5h.9c.3 0 0-.1-.5-.1s-.7.1-.4.1m-25.1 5.5c0 .7 0 .9.1.5 0-.4 0-.9 0-1.2 0-.2-.1.1-.1.7m51 0c0 .7 0 .9.1.5 0-.4 0-.9 0-1.2-.1-.2-.1.1-.1.7m-48.7 6.8c0 2.1 0 3 .1 1.9 0-1.1 0-2.9 0-3.9-.1-1-.1-.1-.1 2m46.5 0c0 2.1 0 3 .1 1.9 0-1.1 0-2.9 0-3.9-.1-1-.1-.1-.1 2m-48.1-2.7-.5.6.5-.6c.4-.2.6-.5.6-.5 0-.2-.1 0-.6.5m49.1-.5s.2.3.6.6l.6.5-.5-.6c-.6-.5-.7-.7-.7-.5m-5.6 5.5-2 1.5-.1 1.1c-.1 1.1-.7 2.4-1.3 2.8-.2.1-.3.3-.3.6 0 .2-.1 1-.3 1.7-1.6 6.6-5.9 11.9-12 14.9-.9.4-1.5.8-1.3.8.9 0 3.9-.6 5.4-1.1 3.9-1.3 7.1-3.6 9.6-6.8 3.3-4.2 4.6-8.6 4.5-14.6l-.1-2.2zm-31-.7h1.6c.4 0 .1-.1-.8-.1s-1.2 0-.8.1m4.9 0h1.6c.4 0 .1-.1-.8-.1s-1.2 0-.8.1m13.2 0h1.6c.4 0 .1-.1-.8-.1s-1.2 0-.8.1m5 0h1.6c.4 0 .1-.1-.8-.1s-1.3 0-.8.1m-11.6 3.2h1.6c.4 0 .1-.1-.8-.1s-1.2.1-.8.1m-10.2 1h4.1c1.1 0 .2-.1-2.1-.1-2.2.1-3.1.1-2 .1m18.1 0h4.1c1.1 0 .2-.1-2.1-.1-2.2.1-3.1.1-2 .1m-9 3.9h3.8c1 0 .2-.1-1.9-.1-2 .1-2.9.1-1.9.1m1.2 18.5h1.4c.4 0 .1-.1-.7-.1s-1.1 0-.7.1" fill="#ffcebf"/><path d="m47.7 8.3c-3 .5-6 1.5-8.6 2.8-1.9 1-2.3 1.4-2.3 2.1 0 .5.2.7.7.9l.6.3 2.1-1.1c2.5-1.3 5-2.1 7.7-2.6 2.6-.4 6.9-.4 9.3.2 10.2 2.2 18 10.1 20 20.3.3 1.6.6 6.9.3 6.9-.1 0-.3-.1-.5-.2s-.8-.4-1.4-.5c-.9-.2-1.1-.4-1.3-.8-.3-.7-1.6-1.9-2.6-2.4-.6-.3-1.4-.5-2.3-.6-2.5-.3-3.5-1.2-4-3.4-1.3-5.5-6.1-8.4-13.8-8.4-4.9 0-8.3 1.2-10.6 3.6-1.2 1.3-2.1 3-2.5 4.8-.5 2.3-1.6 3.2-4 3.5-.9.1-1.7.3-2.3.6-1 .5-2.3 1.7-2.6 2.4-.2.4-.4.5-1.3.8-.6.2-1.2.4-1.4.5s-.4.2-.5.2c-.2 0 0-5.3.3-6.9 1-4.9 3.2-9.2 6.7-12.9 1.7-1.8 1.7-1.8 1.6-2.5s-.3-.9-.9-1.1c-1.2-.3-5.6 4.8-7.5 9-2.1 4.5-2.8 7.8-2.8 13.9 0 2.3-.1 3.8-.2 4.1-.3.8-.3 3.2.1 4.2.7 1.8 2.3 3.4 4.1 4l.9.3.3 1.8c1 6.4 4.7 12.2 10.1 15.9 1.8 1.2 3.6 2.1 5.4 2.7 1.2.4 1.2.4 1.2 1s0 .6-1 .9c-.5.2-1.7.6-2.5 1.1-6.6 3.2-11.3 9.8-12.1 17.2-.2 1.3 0 2.1.6 2.8 1 1.2-.1 1.1 16.6 1.1h15.1l.4-.4c.5-.5.4-1.2-.2-1.7-.4-.3-.6-.4-1.7-.4s-1.3 0-1.2-.3c0-.2.9-3.2 2-6.7 1-3.5 1.9-6.6 2-6.8.1-.4.2-.4 1.1.4 2 1.6 4 4.3 5.1 6.9 1 2.4 1.8 6 1.4 6.4-.1.1-1.1.2-2.4.2-2.1 0-2.2 0-2.6.4-.5.6-.6 1.2-.2 1.7l.3.4h2.7c3.1 0 3.4-.1 4.3-1.3.4-.6.5-.8.5-1.9 0-4.8-3.1-10.9-7.3-14.6-2-1.8-5.1-3.6-7.3-4.3-1-.3-1.1-.3-1.1-.9s0-.6 1.3-1c3.1-1 6.2-3 8.9-5.6 3.5-3.5 5.8-7.9 6.5-12.8l.3-1.9.9-.3c3-1.1 5-4.4 4.3-7.4-.1-.5-.3-3-.3-5.6-.1-3.8-.2-5-.5-6.4-2.4-11.3-10.8-19.8-22-22.2-2.2-.7-7.7-.8-9.9-.4m1.1 16.2c-2.6.3-4.6 1.2-5.9 2.6-1 1-1.6 2.2-2.1 4.1-.4 1.7-.9 2.5-1.9 3.4s-2.1 1.4-3.6 1.5c-1.6.2-2 .3-2.8 1-.9.8-1.2 1.7-1.1 3.4v1.4l2.1 1.5c1.2.8 2.1 1.5 2.2 1.5s.3-.3.6-.7.8-.8 1.2-1.1c.7-.4.9-.4 5.5-.4 5.1 0 5.3 0 6.3 1 .4.4 1 1.5 1 1.9 0 .2.3.3 1.7.3s1.7 0 1.7-.3c0-.4.6-1.5 1-1.9 1.1-1 1.2-1 6.3-1 4.6 0 4.8 0 5.4.4.4.2.9.6 1.2 1l.5.6 2.2-1.6 2.2-1.6v-1.3c0-1.5-.3-2.4-1.2-3.1-.7-.6-1.2-.8-2.7-1-1.6-.2-2.6-.6-3.6-1.5s-1.5-1.8-2-3.5c-1.1-4.2-3.8-6.1-9-6.7-1.7-.2-3.5-.2-5.2.1m2.1 4.4c-2.3.2-5.3 1.1-6.2 1.9-.6.5-.7 1.1-.2 1.7.4.5 1.2.5 2.5-.1.6-.3 1.7-.6 2.4-.8 2.6-.5 5.6-.2 7.7.8 1.3.6 2.1.6 2.5.1.8-1.2 0-2-2.9-2.9-1.1-.4-4.5-.9-4.9-.8-.2.1-.6.1-.9.1m-23.1 11.6c-.8.5-1.5 1.5-1.8 2.5-.2.9 0 2.3.7 3.2.5.7 1.5 1.5 1.9 1.5.2 0 .2-.8.2-3.8 0-2.1-.1-3.8-.1-3.8s-.5.1-.9.4m47.3 3.3c0 2.9.1 3.8.2 3.8.4 0 1.5-.9 1.9-1.5.6-.9.9-2.3.6-3.1-.4-1.3-1.4-2.5-2.4-2.9-.2-.1-.3.1-.3 3.7m-4.7 2.3-2 1.5v.8c0 1.5-.6 2.6-1.9 3.3-.6.3-.9.4-5.4.4s-4.8 0-5.4-.4c-1.1-.6-1.9-1.8-1.9-2.8v-.5h-1.8-1.7v.4c0 1.1-.8 2.2-1.9 2.8-.6.3-.9.4-5.4.4s-4.8 0-5.4-.4c-1.3-.7-1.9-1.8-2-3.1v-.7l-2.1-1.5-2.1-1.5-.1 2.7c-.1 5.1.9 8.6 3.4 12.5 4.9 7.3 13.8 10.7 22.3 8.6 6.2-1.6 11.6-6.3 14-12.2 1.1-2.9 1.4-4.2 1.5-8.3 0-2 0-3.7-.1-3.7 0 .2-.9.9-2 1.7m-32.1-.5c-.3.3-.4.6-.4 1.8 0 1.3 0 1.5.4 1.8.4.4.5.4 4.6.4 4.2 0 4.2 0 4.6-.4.3-.3.4-.6.4-1.8 0-1.3 0-1.5-.4-1.8-.3-.3-.6-.4-2.1-.4h-1.7l.3.4c.5.7-.1 1.8-1 1.8s-1.4-.9-1-1.7l.2-.5h-1.7c-1.7.1-1.9.1-2.2.4m18.1 0c-.3.4-.4.6-.4 1.9s0 1.5.4 1.8c.4.4.5.4 4.6.4 4.2 0 4.2 0 4.6-.4.3-.3.4-.6.4-1.8 0-1.3 0-1.5-.4-1.8-.3-.3-.6-.4-2.1-.4h-1.7l.2.5c.6 1.3-1.1 2.4-2 1.3-.4-.5-.4-.9-.1-1.4l.3-.4h-1.8c-1.5 0-1.7 0-2 .3m-9.3 8.2c-2.3.6-4.5 2.4-5.5 4.6-.4.9-.5 1.2-.4 1.9.1 1 .9 2.1 1.8 2.5l.8.4h8.4 8.4l.7-.5c1.4-.9 1.8-2.8 1-4.5-1-2-3.2-3.8-5.4-4.4-1.5-.3-8.5-.3-9.8 0m1.3 2.2c-.2 0-.8.2-1.2.3-2.2.8-4.4 3.7-3.2 4.4.2.1 3 .2 8 .2 6.8 0 7.7 0 8-.3.4-.4.3-.9-.3-1.8-1-1.5-2.2-2.3-4-2.7-.9-.2-6.4-.2-7.3-.1m-.2 17.3c0 1.7 0 1.9.5 2.7.7 1.3 1.7 1.9 3.3 1.9s2.6-.6 3.3-1.9c.4-.8.5-1.1.5-2.7v-1.8l-.6.1c-.3.1-1.7.1-3.2.1-1.4 0-2.9-.1-3.2-.1l-.6-.1zm-4.1 2.3c-.8.4-1.5.7-1.6.7s.2 1.2 2.2 8.2l2.2 7.7h5 5l2.2-7.7c1.2-4.3 2.2-7.8 2.2-7.9 0-.2-.3-.4-2.1-1.1-1.2-.5-1.3-.5-1.3 0 0 .2-.2.7-.4 1.2-.5 1.2-1.7 2.6-3 3.2-.9.5-1.1.5-2.8.5-1.6 0-1.9 0-2.8-.5-1.3-.6-2.5-2-3-3.2-.2-.5-.4-1.1-.4-1.3s-.1-.4-.1-.4c.3-.1-.5.2-1.3.6m-5.7 3.9c-2.5 2.5-4.2 5.3-5.1 8.5-.4 1.5-.8 3.6-.7 4 .1.2 1.4.2 5.9.2 5.5 0 5.8 0 5.7-.3s-3-10.5-3.8-13c-.1-.5-.3-.9-.4-.9s-.8.6-1.6 1.5"/></g></svg>