<svg enable-background="new 0 0 105.6 105.5" viewBox="0 0 105.6 105.5" xmlns="http://www.w3.org/2000/svg"><path d="m52.8 105.4c-29 0-52.7-23.6-52.7-52.7 0-29 23.6-52.7 52.7-52.7s52.7 23.6 52.7 52.7-23.7 52.7-52.7 52.7zm0-103.3c-27.9 0-50.7 22.7-50.7 50.6s22.7 50.7 50.7 50.7c27.9 0 50.7-22.7 50.7-50.7s-22.8-50.6-50.7-50.6z" fill="#575756"/><g clip-rule="evenodd" fill-rule="evenodd"><path d="m57.1 15.4c.9 2.1.9 1.9.9 5.9 0 2.4 0 4.1-.1 4.5s-.2.7-.1.7c.2.2 1.3-.9 1.7-1.5.8-1.3.8-2.2 0-5.7-1.1-4.7-1-4.3-1.8-4.3-.6.1-.7.2-.6.4m-6.8 4.9v5l-.5.8c-.6 1-.4 1.1 1 .9 1.2-.2 2-.7 2.4-1.5.3-.6.4-1 .3-4.1l-.1-3.4-.5-.9c-.5-.8-1.6-1.7-2.3-1.9-.3.1-.3.2-.3 5.1m10.6 43.7c0 .2.2.8.3 1.2s.2 1.6.2 2.5c0 3.6-1.2 6.7-3.6 9.2-.5.6-1 1-1.1.9-.1 0-.1.1-.1.4 0 .7-.6 1.2-1.5 1.2h-.8v.8c0 .4-.2 1-.3 1.2-.5.8-1.8.7-2.3-.1-.3-.4-.4-.5-.8-.3-2.1.6-5.8.2-8.2-.8-.8-.3-1.4-.6-1.4-.5 0 0 .2.4.6.9.5.6.7.8.8.6.4-.4 1.3-.2 2.2.6 1.2 1.1 2.7 1.9 4.3 2.5 1.2.4 1.7.5 3.7.5 2.6 0 3.6-.2 5.8-1.4 2-1 4.1-3.2 5.1-5.2.9-1.9 1.3-3.5 1.3-5.5 0-3-1.1-6-3-8-1.1-1-1.2-1.1-1.2-.7m-20.3 8.5c0 .5 0 .7.1.5 0-.3 0-.7 0-1-.1-.2-.1 0-.1.5m10 7h.6c.2 0 0-.1-.3-.1s-.5 0-.3.1" fill="#fe76a8"/><path d="m47 15.8c-1 3.6-1.6 6.9-1.5 7.7.1 1.2.9 2.3 2 3 1.3.8 1.7.7 2.3-.3.4-.8.4-.8.5-5.7 0-2.9 0-4.9-.1-5s-.8-.2-1.6-.3l-1.4-.1zm4 44.8c-3.7.6-7.4 3.3-9 6.5-.4.8-.8 2-1 2.6-.4 1.7-.3 4.4.1 6.1.4 1.5.3 2.2-.3 2.5-.2.1-.2.2 0 .7.2.4.6.7 1.5 1.1 2 .9 3.3 1.1 5.8 1.1 2.8 0 3.2-.1 3.3-1l.1-.6-.9-.1c-1.3-.2-1.9-1-1.4-2 .3-.6.6-.7 1.5-.7.7 0 .7 0 .7-.7 0-.5-.1-.7-.3-.7-.5 0-2-.9-2.7-1.6-1.1-1.1-1.6-2.3-1.7-4-.1-1.2 0-1.7.3-2.5.5-1.3 1.8-2.8 3.1-3.4.9-.4 1.2-.5 2.7-.5s1.8.1 2.7.5c1.3.6 2.6 2.1 3.1 3.4.3.8.4 1.3.3 2.5-.1 1.7-.6 2.9-1.7 4-.7.7-2.2 1.6-2.7 1.6-.2 0-.3.2-.3.7 0 .7 0 .7.7.7.9 0 1.2.1 1.5.7l.3.5.9-.9c1-1 2.2-2.7 2.8-4 1-2.3 1.3-5.7.8-8.3-.2-1.1-.4-1.4-.8-1.8-.8-.6-3-1.8-4.2-2.1-1-.3-4.2-.5-5.2-.3m.2 5.8c-1.6.9-2.3 2.9-1.4 4.6.5 1 2 1.9 3 1.9s2.6-.9 3-1.9c.8-1.7.2-3.7-1.5-4.6-.8-.4-2.2-.4-3.1 0" fill="#fe93bb"/><path d="m67.4 37.2c0 .5 0 .7.1.5 0-.3 0-.7 0-1-.1-.3-.1 0-.1.5m-4.5 19.8c0 .1-.3 1.1-.5 2.1l-.4 1.8.7.6c.4.3.8.6.9.6s.7-.9 1.3-1.9c.6-1.1 1-1.8.9-1.7-.2.2-.4 0-1.3-.6-1.4-1.1-1.5-1.2-1.6-.9m-10.6.8h1c.3 0 0-.1-.5-.1s-.7 0-.5.1m3.8 31.2c-.3 1.2-.6 2.2-.7 2.4s0 .2.1.1.7-.3 1.3-.5c.7-.2 1.3-.3 1.3-.4.2-.1-1.1-3.8-1.3-3.8 0 .1-.3.9-.7 2.2m-3.6-1.5h.6c.2 0 0-.1-.3-.1-.3.1-.5.1-.3.1" fill="#62dbfb"/><path d="m66.3 32.5c.8 1.4 1.1 2.8 1.1 4.7 0 1.5-.2 2.4-2.1 10.3-1.2 4.8-2.2 8.8-2.2 8.9-.1.2.4.6 1.2 1.3l1.3 1 .4-.7c.2-.4 1.3-2.2 2.4-4s2.1-3.5 2.3-3.7.6-.3 1-.3c.6 0 .7 0 1.5-1.3s.8-1.3.5-1.7c-.6-.7-.4-1.2 1.9-5.1 2.4-4 2.5-4.6 1.8-5.2-.6-.6-3.3-2-5.4-2.9-1.5-.7-5.7-2.2-6.1-2.2-.1 0 .1.4.4.9m-9.3 58.5-1.4.3-.3 1c-.2.5-.4 1.4-.5 1.8l-.2.8h2.4c2 0 2.5 0 2.5-.3.1-.1-.2-1.1-.6-2.1l-.7-1.9z" fill="#99e6fc"/><path d="m51.2 30h.7c.2 0 0-.1-.4-.1s-.5 0-.3.1m6.4.9c1.9 1.8 2.8 3.7 2.8 6.2 0 1.4-.2 2.4-1.6 7.9-1.7 7-1.9 7.4-3.3 8.2-.7.4-1 .5-3.2.6-4.5.2-7.7 1.4-11.1 4-.6.5-1.2.8-1.2.7-.1-.1.3.6.8 1.5s1 1.7 1.1 1.9.4.1 1.6-.8c4.5-3.6 10.3-4.3 15.8-1.9.2.1.7-1.7 2.8-10.3 1.4-5.7 2.6-10.8 2.6-11.3.2-1.8-.5-3.7-1.8-5.1s-2.8-2.1-5.2-2.4l-1-.1zm-10.4 59.9c-1.1 3.1-1.2 3.8-1 4 .1.1 1.4.2 2.9.2 2.4 0 2.7 0 2.7-.3.3-1.1 1.9-6.8 1.9-6.9s-.4-.1-.8-.1c-.8 0-1.8-.1-3.6-.4l-.8-.3z" fill="#c8effe"/><path d="m49.7 30c-7 .4-13.7 2.3-19.1 5.3-2 1.1-2.6 1.7-2.6 2.4 0 .3.7 1.6 1.9 3.8 1.1 1.8 1.9 3.5 1.9 3.7s-.2.6-.3.9l-.3.4.8 1.4c.8 1.3.8 1.4 1.4 1.3.3 0 .7 0 .9.1s1.5 2.1 2.8 4.4c1.4 2.3 2.6 4.4 2.7 4.6l.2.4 1.1-.9c3.4-2.6 6.6-3.8 11.1-4 2.2-.1 2.5-.2 3.2-.6 1.4-.8 1.6-1.2 3.3-8.2 1.4-5.5 1.6-6.5 1.6-7.9 0-2.5-.9-4.5-2.8-6.2-.9-.8-1-.9-1.9-.9-.5 0-1.5 0-2.2-.1-.6 0-2.3 0-3.7.1" fill="#dff6fd"/><path d="m57.1 15.4c.9 2.1.9 1.9.9 5.9 0 2.4 0 4.1-.1 4.5s-.2.7-.1.7c.2.2 1.3-.9 1.7-1.5.8-1.3.8-2.2 0-5.7-1.1-4.7-1-4.3-1.8-4.3-.6.1-.7.2-.6.4m-6.8 4.9v5l-.5.8c-.6 1-.4 1.1 1 .9 1.2-.2 2-.7 2.4-1.5.3-.6.4-1 .3-4.1l-.1-3.4-.5-.9c-.5-.8-1.6-1.7-2.3-1.9-.3.1-.3.2-.3 5.1m10.6 43.7c0 .2.2.8.3 1.2s.2 1.6.2 2.5c0 3.6-1.2 6.7-3.6 9.2-.5.6-1 1-1.1.9-.1 0-.1.1-.1.4 0 .7-.6 1.2-1.5 1.2h-.8v.8c0 .4-.2 1-.3 1.2-.5.8-1.8.7-2.3-.1-.3-.4-.4-.5-.8-.3-2.1.6-5.8.2-8.2-.8-.8-.3-1.4-.6-1.4-.5 0 0 .2.4.6.9.5.6.7.8.8.6.4-.4 1.3-.2 2.2.6 1.2 1.1 2.7 1.9 4.3 2.5 1.2.4 1.7.5 3.7.5 2.6 0 3.6-.2 5.8-1.4 2-1 4.1-3.2 5.1-5.2.9-1.9 1.3-3.5 1.3-5.5 0-3-1.1-6-3-8-1.1-1-1.2-1.1-1.2-.7m-20.3 8.5c0 .5 0 .7.1.5 0-.3 0-.7 0-1-.1-.2-.1 0-.1.5m10 7h.6c.2 0 0-.1-.3-.1s-.5 0-.3.1" fill="#fe76a8"/><path d="m55.6 15.3c-.3 0-.5.1-.5.2 0 0 .2.5.4.9.7 1.3.8 2.6.8 6.1-.1 2.8-.1 3.2-.4 4-.4.9-.4.9 1 .6.8-.2.9-.2 1.1-1 .2-1 .2-7.4 0-8.5-.1-.4-.3-1.2-.5-1.6-.6-.9-.6-.9-1.9-.7m7.6 5.5c-.2.5-.3 1-.4 2 0 1.6-.4 2.8-1.2 4-.7 1-.8.8 1.2 1.2.6.1 1.8.4 2.8.6.9.2 1.7.4 1.8.4 0 0 .3-.8.6-1.7 1-2.9.6-4.6-1.2-6-.5-.4-2.6-1.2-3.1-1.2-.1.1-.3.4-.5.7m-30.8 2.4c-1 .3-1.1.4-1.1.9 0 1.2.6 7 .7 7.2.1.1.6-.1 1.3-.3.6-.3 2.3-.9 3.7-1.3 1.4-.5 2.6-.9 2.6-1 .1-.3-1.2-3.7-1.6-4.3-.3-.3-.9-.8-1.4-1.1-1.2-.6-2.6-.6-4.2-.1m28.4 40.3s.3.3.6.6l.6.5-.5-.6c-.5-.5-.7-.6-.7-.5" fill="#fe5694"/><path d="m57.1 15.4c.9 2.1.9 1.9.9 5.9 0 2.4 0 4.1-.1 4.5s-.2.7-.1.7c.2.2 1.3-.9 1.7-1.5.8-1.3.8-2.2 0-5.7-1.1-4.7-1-4.3-1.8-4.3-.6.1-.7.2-.6.4m-6.8 4.9v5l-.5.8c-.6 1-.4 1.1 1 .9 1.2-.2 2-.7 2.4-1.5.3-.6.4-1 .3-4.1l-.1-3.4-.5-.9c-.5-.8-1.6-1.7-2.3-1.9-.3.1-.3.2-.3 5.1m10.6 43.7c0 .2.2.8.3 1.2s.2 1.6.2 2.5c0 3.6-1.2 6.7-3.6 9.2-.5.6-1 1-1.1.9-.1 0-.1.1-.1.4 0 .7-.6 1.2-1.5 1.2h-.8v.8c0 .4-.2 1-.3 1.2-.5.8-1.8.7-2.3-.1-.3-.4-.4-.5-.8-.3-2.1.6-5.8.2-8.2-.8-.8-.3-1.4-.6-1.4-.5 0 0 .2.4.6.9.5.6.7.8.8.6.4-.4 1.3-.2 2.2.6 1.2 1.1 2.7 1.9 4.3 2.5 1.2.4 1.7.5 3.7.5 2.6 0 3.6-.2 5.8-1.4 2-1 4.1-3.2 5.1-5.2.9-1.9 1.3-3.5 1.3-5.5 0-3-1.1-6-3-8-1.1-1-1.2-1.1-1.2-.7m-20.3 8.5c0 .5 0 .7.1.5 0-.3 0-.7 0-1-.1-.2-.1 0-.1.5m10 7h.6c.2 0 0-.1-.3-.1s-.5 0-.3.1" fill="#fe76a8"/><path d="m47 15.8c-1 3.6-1.6 6.9-1.5 7.7.1 1.2.9 2.3 2 3 1.3.8 1.7.7 2.3-.3.4-.8.4-.8.5-5.7 0-2.9 0-4.9-.1-5s-.8-.2-1.6-.3l-1.4-.1zm4 44.8c-3.7.6-7.4 3.3-9 6.5-.4.8-.8 2-1 2.6-.4 1.7-.3 4.4.1 6.1.4 1.5.3 2.2-.3 2.5-.2.1-.2.2 0 .7.2.4.6.7 1.5 1.1 2 .9 3.3 1.1 5.8 1.1 2.8 0 3.2-.1 3.3-1l.1-.6-.9-.1c-1.3-.2-1.9-1-1.4-2 .3-.6.6-.7 1.5-.7.7 0 .7 0 .7-.7 0-.5-.1-.7-.3-.7-.5 0-2-.9-2.7-1.6-1.1-1.1-1.6-2.3-1.7-4-.1-1.2 0-1.7.3-2.5.5-1.3 1.8-2.8 3.1-3.4.9-.4 1.2-.5 2.7-.5s1.8.1 2.7.5c1.3.6 2.6 2.1 3.1 3.4.3.8.4 1.3.3 2.5-.1 1.7-.6 2.9-1.7 4-.7.7-2.2 1.6-2.7 1.6-.2 0-.3.2-.3.7 0 .7 0 .7.7.7.9 0 1.2.1 1.5.7l.3.5.9-.9c1-1 2.2-2.7 2.8-4 1-2.3 1.3-5.7.8-8.3-.2-1.1-.4-1.4-.8-1.8-.8-.6-3-1.8-4.2-2.1-1-.3-4.2-.5-5.2-.3m.2 5.8c-1.6.9-2.3 2.9-1.4 4.6.5 1 2 1.9 3 1.9s2.6-.9 3-1.9c.8-1.7.2-3.7-1.5-4.6-.8-.4-2.2-.4-3.1 0" fill="#fe93bb"/><path d="m50.2 10.8c-.2.2-.6 1.3-.6 1.5 0 .1.3.2.7.2.4.1 1.1.3 1.5.5l.9.4 1.3-.4c.7-.2 1.5-.4 1.6-.4.2 0 .3-.1.2-.5-.1-.3-.2-.7-.3-.9-.2-.4-.2-.4-2.7-.5-1.8-.1-2.4-.1-2.6.1m6 11.1c0 1.8 0 2.6.1 1.6 0-.9 0-2.4 0-3.3-.1-.9-.1-.2-.1 1.7m-2.6 0c0 1.5 0 2.1.1 1.3 0-.8 0-2.1 0-2.8-.1-.7-.1-.1-.1 1.5m-13.1-1.3c-.8.3-1.5.6-1.6.7s0 .4.6 1c1 1.1 1.3 1.6 2 3.9.3 1 .7 1.9.7 1.9.7 0 2.3-.3 2.3-.4s-.2-.3-.3-.5c-.2-.2-.6-.8-.8-1.3-.4-.8-.5-1.2-.6-2.7s-.1-1.8-.5-2.4c-.2-.4-.4-.7-.5-.7.1 0-.6.2-1.3.5m22.3 2.2c0 .4 0 .6.1.4 0-.2 0-.6 0-.8s-.1 0-.1.4m-28.6 0h.7c.2 0 0-.1-.4-.1s-.5 0-.3.1m36.9.5c.3 1.3.1 2.9-.5 4.8l-.6 1.9.6.3c.4.1 1.2.5 1.8.8.7.3 1.2.4 1.3.3s.2-1.9.4-3.9c.3-4.3.5-3.8-1.4-4.4-1.7-.6-1.7-.6-1.6.2m-2.5 1.6c0 .4 0 .5.1.3 0-.2 0-.5 0-.7-.1-.2-.1 0-.1.4m-17.2 51.2c0 .4 0 .5.1.3s0-.5 0-.7-.1 0-.1.4m2.7 0c0 .4 0 .5.1.3 0-.2 0-.5 0-.7-.1-.1-.1 0-.1.4m-2.7 3.9c0 .4 0 .5.1.3s0-.5 0-.7-.1 0-.1.4m2.7.1c0 .5 0 .7.1.4 0-.3 0-.7 0-.9-.1-.1-.1.1-.1.5" fill="#fd3581"/><path d="m55.6 15.3c-.3 0-.5.1-.5.2 0 0 .2.5.4.9.7 1.3.8 2.6.8 6.1-.1 2.8-.1 3.2-.4 4-.4.9-.4.9 1 .6.8-.2.9-.2 1.1-1 .2-1 .2-7.4 0-8.5-.1-.4-.3-1.2-.5-1.6-.6-.9-.6-.9-1.9-.7m7.6 5.5c-.2.5-.3 1-.4 2 0 1.6-.4 2.8-1.2 4-.7 1-.8.8 1.2 1.2.6.1 1.8.4 2.8.6.9.2 1.7.4 1.8.4 0 0 .3-.8.6-1.7 1-2.9.6-4.6-1.2-6-.5-.4-2.6-1.2-3.1-1.2-.1.1-.3.4-.5.7m-30.8 2.4c-1 .3-1.1.4-1.1.9 0 1.2.6 7 .7 7.2.1.1.6-.1 1.3-.3.6-.3 2.3-.9 3.7-1.3 1.4-.5 2.6-.9 2.6-1 .1-.3-1.2-3.7-1.6-4.3-.3-.3-.9-.8-1.4-1.1-1.2-.6-2.6-.6-4.2-.1m28.4 40.3s.3.3.6.6l.6.5-.5-.6c-.5-.5-.7-.6-.7-.5" fill="#fe5694"/><path d="m50.2 10.8c-.2.2-.6 1.3-.6 1.5 0 .1.3.2.7.2.4.1 1.1.3 1.5.5l.9.4 1.3-.4c.7-.2 1.5-.4 1.6-.4.2 0 .3-.1.2-.5-.1-.3-.2-.7-.3-.9-.2-.4-.2-.4-2.7-.5-1.8-.1-2.4-.1-2.6.1m6 11.1c0 1.8 0 2.6.1 1.6 0-.9 0-2.4 0-3.3-.1-.9-.1-.2-.1 1.7m-2.6 0c0 1.5 0 2.1.1 1.3 0-.8 0-2.1 0-2.8-.1-.7-.1-.1-.1 1.5m-13.1-1.3c-.8.3-1.5.6-1.6.7s0 .4.6 1c1 1.1 1.3 1.6 2 3.9.3 1 .7 1.9.7 1.9.7 0 2.3-.3 2.3-.4s-.2-.3-.3-.5c-.2-.2-.6-.8-.8-1.3-.4-.8-.5-1.2-.6-2.7s-.1-1.8-.5-2.4c-.2-.4-.4-.7-.5-.7.1 0-.6.2-1.3.5m22.3 2.2c0 .4 0 .6.1.4 0-.2 0-.6 0-.8s-.1 0-.1.4m-28.6 0h.7c.2 0 0-.1-.4-.1s-.5 0-.3.1m36.9.5c.3 1.3.1 2.9-.5 4.8l-.6 1.9.6.3c.4.1 1.2.5 1.8.8.7.3 1.2.4 1.3.3s.2-1.9.4-3.9c.3-4.3.5-3.8-1.4-4.4-1.7-.6-1.7-.6-1.6.2m-2.5 1.6c0 .4 0 .5.1.3 0-.2 0-.5 0-.7-.1-.2-.1 0-.1.4m-17.2 51.2c0 .4 0 .5.1.3s0-.5 0-.7-.1 0-.1.4m2.7 0c0 .4 0 .5.1.3 0-.2 0-.5 0-.7-.1-.1-.1 0-.1.4m-2.7 3.9c0 .4 0 .5.1.3s0-.5 0-.7-.1 0-.1.4m2.7.1c0 .5 0 .7.1.4 0-.3 0-.7 0-.9-.1-.1-.1.1-.1.5" fill="#fd3581"/><path d="m35.7 17.3c-.9.3-1.9.6-2.3.8l-.7.3v1 1l.7-.2c.4-.1 1.2-.1 1.7-.1.8.1 1 .1 1.3-.3.2-.2.8-.6 1.3-1l1-.6-.6-.7c-.3-.4-.7-.7-.7-.7s-.8.2-1.7.5m32-.2c-1.1 1.2-1.1 1.1 0 1.7.5.3 1.1.7 1.4 1 .4.4.5.4 1.4.3.5-.1 1.3 0 1.7.1l.7.2v-1-1l-.7-.3c-.4-.1-1.4-.5-2.2-.7-.8-.3-1.6-.5-1.7-.5-.1-.2-.4 0-.6.2" fill="#fe0364"/><path d="m49.2 8.2c-.8.4-1.4 1.2-1.9 2.8-.4 1.3-.5 1.5-1 1.7-1 .4-1.5 1.2-2.1 3.3-.5 1.8-.5 1.9-.8 1.8-.2-.1-.7-.2-1.1-.3-.7-.1-.8-.2-1.7-1.3-1.8-2.4-2.4-2.5-6.3-1.2-2.2.7-2.8 1-3.3 1.5-.8.9-.9 1.2-.9 3 0 1.6 0 1.6-.6 2.2-1.1 1-1.1 1.2-.7 5.6.2 2.2.4 4.3.5 4.8l.2.8-1.1.7c-1.8 1.1-2.2 1.5-2.7 2.5-.4.8-.5 1.1-.4 2.1s.2 1.3 2 4.5c1.1 1.9 2.1 3.5 2.3 3.7.5.4 1.3.4 1.7-.1.6-.7.4-1.3-1.5-4.6-1-1.7-1.9-3.4-1.9-3.6-.1-.7.3-1.2 1.8-2.1 4.8-2.8 10.6-4.7 17-5.6 2.6-.3 10.8-.3 12.4.1 2.3.5 4 1.9 5 4 .4.8.5 1.3.5 2.6.1 1.5 0 1.8-2.5 12-1.4 5.7-2.5 10.5-2.5 10.5s-.6-.2-1.3-.4c-1.9-.7-3.5-1-5.6-1-3.7 0-6.9 1.2-9.7 3.7l-1 .8-3.7-6.7c-2.1-3.5-3.9-6.5-4.2-6.7-.9-.6-2.2.4-1.9 1.4.1.2 1.9 3.4 4.1 7.1l3.9 6.7-.8 1.6c-1.2 2.4-1.4 3.5-1.4 6.4 0 4 .6 5.9 2 5.9.6 0 1.3-.6 1.3-1.3 0-.3-.1-.9-.3-1.5-.2-.7-.3-1.6-.3-3.2 0-1.9.1-2.4.5-3.6.7-2 1.6-3.5 3.1-5 1.1-1.1 1.7-1.5 3-2.1 2.1-1 3.3-1.3 5.6-1.3s3.4.3 5.6 1.3c2.9 1.4 5.1 4 6.1 7.2.4 1.2.5 1.7.5 3.7s-.1 2.5-.5 3.7c-1.7 5.2-6.3 8.5-11.7 8.5-3 0-5.5-.9-7.9-2.9-.7-.5-1.4-1-1.6-1-.7 0-1.3.6-1.3 1.3 0 .5.1.7.8 1.4.5.4 1.4 1.1 2 1.5s1.2.8 1.1.9c-2.3 6.7-2.8 8.3-2.7 8.9.1.8.7 1.6 1.4 2.1.5.4.7.4 8.2.4s7.7 0 8.2-.4c.7-.5 1.2-1.4 1.4-2.1.1-.5-.1-1.3-1.3-4.7-.8-2.3-1.4-4.2-1.4-4.2 0-.1.4-.4.9-.7 1.3-.7 3.6-2.9 4.6-4.5 1.8-2.7 2.6-5.5 2.4-8.9-.1-2.5-.4-3.7-1.4-5.8l-.8-1.6 3.7-6.3c4-6.7 4.1-7.1 3.3-7.8-.5-.4-1.3-.4-1.7 0-.2.2-1.8 2.8-3.6 5.9s-3.3 5.7-3.4 5.8-.5-.1-.9-.5c-.6-.5-.8-.8-.7-1 0-.2 1.3-5.2 2.7-11.2 2.3-9.4 2.6-11 2.6-12.2 0-1.7-.4-3.2-1.1-4.5-.3-.5-.5-1-.4-1 .1-.1 3.5 1 5.6 1.9 2.2.9 5.1 2.5 5.8 3.1.6.6.7 1.2.3 1.9-.2.4-1.2 2.1-2.3 4-1.1 1.8-1.9 3.5-1.9 3.7 0 .5.8 1.3 1.3 1.3.2 0 .5-.1.7-.3.4-.3 4.6-7.3 5-8.2.3-.7.2-2.2-.1-3-.4-1-1.2-1.7-2.7-2.5l-1.3-.7.2-.8c.1-.4.3-2.6.5-4.8.3-4.4.3-4.6-.7-5.6-.6-.6-.6-.6-.6-2.2 0-1.8-.1-2.1-.9-3-.4-.5-1-.7-3.3-1.5-3.9-1.3-4.5-1.2-6.3 1.2-.8 1.1-1 1.2-1.7 1.3-.4.1-.9.2-1.1.3-.3.2-.4.1-.8-1.7-.5-2.1-.9-2.7-2-3.3-.6-.3-.7-.5-1-1.6-.7-1.5-1.2-2.2-1.9-2.8-.5-.3-.8-.4-3.8-.4-2.4 0-3.4 0-3.8.2m1 2.6c-.2.2-.6 1.3-.6 1.6 0 .1.3.2.7.3s1.1.3 1.6.5c.9.3.9.3 1.8 0 .5-.2 1.2-.4 1.6-.5.6-.1.7-.2.6-.6-.1-.3-.2-.7-.3-.9-.2-.4-.2-.4-2.7-.5-1.9-.1-2.5-.1-2.7.1m-3.9 7.8c-.9 3.8-1 5-.5 6.1.4.9 1.7 2.1 2.6 2.3.9.3 2.7.3 3.4 0 .8-.3 1.5-1.2 1.7-2.1.1-.5.2-1.8.1-3.5-.1-3.1-.2-3.7-1.2-4.8-.9-1-2.1-1.4-3.8-1.4h-1.5zm9-3.3c-.4.1-.4.1.2 1.2l.6 1.1v4.2c0 3.7 0 4.3-.3 4.8-.2.3-.3.6-.3.7 0 .2 1.8-.1 2.4-.5.9-.4 1.7-1.3 2.1-2.2.4-1.1.3-2.3-.6-6l-.8-3.5h-1.4c-.9.1-1.7.1-1.9.2m-19.6 2c-.9.3-1.9.6-2.3.8l-.7.3v1 1l.7-.2c.4-.1 1.2-.1 1.7-.1.8.1 1 .1 1.3-.3.2-.2.8-.6 1.3-1l1-.6-.6-.7c-.3-.4-.7-.7-.7-.7s-.8.2-1.7.5m32-.2c-1.1 1.2-1.1 1.1 0 1.7.5.3 1.1.7 1.4 1 .4.4.5.4 1.4.3.5-.1 1.3 0 1.7.1l.7.2v-1-1l-.7-.3c-.4-.1-1.4-.5-2.2-.7-.8-.3-1.6-.5-1.7-.5-.1-.2-.4 0-.6.2m-26.8 3.3c-.5.2-1.3.5-1.6.6l-.7.3.9.9c1 1.1 1.4 1.7 2.1 4 .3 1 .6 1.8.7 1.9s1.6-.1 2.3-.3c.2 0 .1-.3-.3-.7-.9-1.2-1.3-2.2-1.4-4.1-.1-1.4-.2-1.8-.5-2.3-.2-.4-.4-.7-.5-.6 0 0-.5.1-1 .3m22.3.3c-.3.5-.4 1-.5 2.3-.1 1.8-.5 2.9-1.4 4.1-.6.8-.8.7 1.9 1.2 1.1.2 2.5.5 3.1.7l1.1.3.6-1.8c.3-1 .6-2 .6-2.3.1-.8-.4-2.3-1-3.1s-1.1-1.1-2.8-1.6l-1.2-.4zm-30.6 2.4c-.7.2-1.4.4-1.4.5-.1.1.5 7.6.7 7.8.1.1.5 0 1.4-.4.7-.3 2.4-.9 3.8-1.4s2.5-.9 2.5-1-.3-1-.6-2c-.5-1.6-.7-1.9-1.4-2.7-.6-.6-1.1-.9-1.7-1.1-1.3-.2-1.6-.2-3.3.3m38.5.2c.3 1.3.1 2.9-.5 4.9-.3 1.1-.6 1.9-.6 1.9 1.1.5 3.7 1.4 3.7 1.3.1-.1.2-1.5.3-3.1s.3-3.3.3-3.8l.1-.9-1.2-.4c-.6-.2-1.4-.4-1.7-.5l-.5-.1zm-19.9 40.2c-1.8.5-3.3 1.7-4.1 3.5-.3.7-.4 1.2-.4 2.3 0 1.3.1 1.6.6 2.6.7 1.4 1.6 2.3 3.1 3 1.1.5 1.1.5 1.1 1.1s0 .6-.8.6c-.6 0-.9.1-1.2.4-1 1-.3 2.2 1.2 2.2h.8v.9c0 .8.1 1 .5 1.3.6.5.9.5 1.5 0 .4-.3.5-.5.5-1.3v-.9h.8c.7 0 .9-.1 1.2-.4.9-.9.1-2.2-1.3-2.2-.8 0-.8 0-.8-.6s.1-.6 1.1-1.1c1.5-.7 2.4-1.6 3.1-2.9 1.7-3.5-.1-7.6-3.9-8.6-1.2-.2-1.7-.2-3 .1m.5 2.6c-2 .7-2.9 2.9-2 4.8 1.3 2.8 5.5 2.6 6.5-.4.5-1.5-.2-3.4-1.6-4.2-.9-.4-2.2-.5-2.9-.2m-4.5 24.6c-.7 2.1-1.3 3.9-1.2 4 .1.2.8.2 3 .2h2.9l.9-3.5c.5-1.9 1-3.6 1-3.8.1-.2-.3-.2-1.4-.2-.8 0-2-.1-2.6-.3s-1.2-.3-1.2-.3c-.1.1-.7 1.8-1.4 3.9m8.5-.1c-.6 2-1.1 3.9-1.1 4-.1.3.1.3 2.4.3 2.2 0 2.5-.1 2.6-.4.1-.5-2.4-7.7-2.7-7.7-.1.1-.6 1.7-1.2 3.8"/></g></svg>