<svg enable-background="new 0 0 105.6 105.5" viewBox="0 0 105.6 105.5" xmlns="http://www.w3.org/2000/svg"><path d="m52.8 105.4c-29.1 0-52.7-23.6-52.7-52.7 0-29.1 23.6-52.7 52.7-52.7s52.7 23.6 52.7 52.7-23.6 52.7-52.7 52.7zm0-103.4c-28 0-50.7 22.7-50.7 50.7s22.7 50.7 50.7 50.7 50.7-22.7 50.7-50.7-22.7-50.7-50.7-50.7z" fill="#575756"/><g clip-rule="evenodd" fill-rule="evenodd"><path d="m74.7 62.2c0 .1.2.3.5.5.7.5 1.6 1.8 1.9 2.7.3 1 .3 2.9 0 4.1-.9 3.3-3.7 6.3-7.1 7.6-.9.3-1.3.4-2.8.4-1.6 0-1.8 0-2.8-.5-1.9-.9-2.9-2.5-3.1-4.8l-.1-1.1-1.2 1.1-1.2 1.1.1.7c.4 3 2.7 7.1 5.1 9.3 1.9 1.8 4.8 3.6 5.2 3.2.2-.1.2-.3.1-.6-.3-.7-.2-2.1.1-3 .4-1.2 1.9-2.7 3-3 .8-.3 2.6-.3 3.1-.1.3.1.6-.1 1.6-1.1.7-.7 1.4-1.2 1.6-1.3.5 0 .9 0 1.1.2.1.1.4-.1.8-.7.6-.8.6-.8.4-1.1-.5-.5-.5-.8 0-2.2.5-1.3.5-1.5.5-3.6 0-2 0-2.3-.5-3.4-.8-2.2-2.2-4-3.3-4.3-.7-.1-2.9-.3-3-.1m-18.7 14.2c-1.4 1.7-2.4 4.1-2.6 6.6-.1 1.2.3 3.8.6 4.4.6.9 3.4 2.5 5.2 2.9 1.3.3 3.4.2 4.7-.1 1-.3 3.3-1.3 3.3-1.5 0-.1-.5-.4-1-.7-4.2-2.5-7.7-6.9-8.9-11.3-.2-.5-.3-1-.4-1-.3 0-.6.3-.9.7" fill="#efecef"/><path d="m69.4 60c-2.7.6-3.7 1.3-7.6 5.2l-3.2 3.2.1 2.4c.1 1.3.1 2.4.2 2.5 0 0 .6-.4 1.3-1.1 1.1-1 1.2-1.2 1.3-1.9.4-2.8 3.1-6.3 6-7.7.7-.3 1.7-.7 2.3-.9 1.3-.3 3.1-.2 4.1.2.4.2.8.3.8.2.1-.1 1.6-.1 2.7.2.6.1 1.1.3 1.5.6.3.3.2.1-.3-.3-1.9-1.7-4.1-2.7-6.7-2.8-1 0-2 .1-2.5.2m-14.8 12.4c-2.4 2.5-3.3 4.4-3.4 7.2-.1 2.6.7 5.2 2.2 7l.5.6-.2-.9c-.4-1.5-.3-4.1.1-5.6.4-1.6 1.4-3.5 2.4-4.5l.7-.8-.2-.8c-.1-.5-.2-1.5-.3-2.2-.1-.8-.2-1.4-.2-1.5-.2.1-.9.7-1.6 1.5m22.4 6.6-1.1 1.1 1.1-1.1c.7-.6 1.2-1.1 1.2-1.1 0-.1-.1 0-1.2 1.1" fill="#c6d0da"/><path d="m53.6 70-1.5 1.5 1.5-1.5c1.5-1.3 1.6-1.5 1.5-1.5 0-.1-.7.6-1.5 1.5m7.7 1.7c0 .4 0 .5.1.4 0-.2 0-.5 0-.7-.1-.2-.1 0-.1.3m-13.5.8c-2.1 1.6-3.7 4.1-4.1 6.6-.1.5-.1.6.3.7.8.2.9.7.9 6v4.8h4.5 4.5l-1.1-1c-3.5-3.3-4.9-8.2-3.6-12.8.2-.8.6-1.7.8-2.1s.3-.8.2-.9-.3-.5-.5-1c-.2-.6-.4-.9-.6-.9-.2-.2-.8.2-1.3.6m15.5 10.3s.2.3.5.5l.5.5-.5-.5c-.4-.5-.5-.6-.5-.5m6.7 6.8-1.1 1h1.5 1.5v-.6c0-.4-.1-.7-.4-1l-.4-.4z" fill="#738b95"/><path d="m51.6 68.5c0 .1-.1.6 0 1.1l.1.9v-1.1l-.1-.9 1.9-.1 1.8-.1h-1.8c-1.4 0-1.8 0-1.9.2m-4.5 3.2c-3.1.4-5.8 2.2-7.2 4.9-1 2-1 2.3-1.1 8.4v5.5h1.7 1.7v-5-5l.4-.4c.2-.2.5-.4.6-.4.2 0 .3-.4.5-1.1.3-1.5 1.1-3.1 2.1-4.3.8-1 2.7-2.5 3.3-2.6s-1-.1-2 0m-2.4 14c0 2.7 0 3.8 0 2.5 0-1.4 0-3.6 0-4.9 0-1.4 0-.3 0 2.4" fill="#617881"/><path d="m54.2 48.6h2.2c.6 0 .2-.1-1.1-.1-1.1.1-1.6.1-1.1.1m23 3.1c0 .6 0 .8.1.5 0-.3 0-.7 0-1-.1-.3-.1-.1-.1.5m-35.6-.3c-1.7.5-2.2 1.9-1.2 2.9 1.7 1.7 6.1.9 6.1-1.1 0-1.4-2.7-2.5-4.9-1.8m24.6 0c-.9.2-1.7.7-1.9 1.3-.2.5-.2.6 0 1.1.8 1.7 4.8 1.9 6.1.3 1.4-1.6-1.3-3.4-4.2-2.7m5 6h.5c.2 0 0-.1-.3-.1-.2 0-.4.1-.2.1m-11 6-2.6 2.6 2.6-2.6c2.5-2.4 2.7-2.6 2.6-2.6 0 0-1.2 1.1-2.6 2.6m16.2 20.1c.4.4.8.8.9.8 0 0-.3-.4-.7-.8s-.8-.8-.9-.8c0 0 .3.4.7.8m-3.4 3.5c.4.4.8.8.9.8s-.3-.4-.7-.8-.8-.8-.9-.8.2.3.7.8" fill="#e490b7"/><path d="m63.9 33.9c-1.6 1.1-5.7 3.1-8.3 4.1-2.5.9-5.7 1.8-8.6 2.5l-2.3.5v1.4c0 1.3 0 1.4.3 1.4.8 0 1.9 1.8 1.9 3.3s-1 3.3-1.9 3.3c-.3 0-.3.1-.3.5s.1.6.7.9c1.5.8 1.6 2.1.3 3-.7.2-.7.3-.7.8.2.9.8 2.7 1.4 3.7 1.2 2.2 3.3 4.4 5.6 5.8l1.3.8 2.1.1 2.1.1 3-3c3-3 4.1-3.8 5.7-4.5 1.7-.8 3.1-1 5.4-1.1h2.1l.4-1.1c.6-1.8.7-3.4.7-9.1v-5.4l-.8-.3c-2.5-1-5.7-3.9-7.6-6.8-.6-.8-1-1.5-1.1-1.6-.1-.2-.7.2-1.4.7m1.3 10c-1.1.6-1.6 3.5-.8 5.1.6 1.2 1.6 1.5 2.5.8.6-.5 1-1.6 1-2.7v-.9l.6-.1c.7-.1 1.2-.7 1.2-1.3 0-.2-.2-.6-.4-.8-.4-.4-.5-.4-2.1-.4-1.1.1-1.7.1-2 .3m-12.3 4.8c-.7.3-.9 1.4-.3 2 .3.3.5.3 2.8.3 2.4 0 2.5 0 2.9-.4.6-.6.5-1.5-.3-1.9-.5-.2-4.6-.2-5.1 0m13.2 2.6c-1.7.5-2.5 1.7-1.7 2.7 1.5 2 6.4 1.3 6.4-.9 0-.8-.6-1.4-1.7-1.8-.7-.1-2.3-.2-3 0m-15.5 2.7c-.8.8.1 2.7 1.8 3.8 2.6 1.7 6 .9 7.7-1.7.5-.9.6-1.6.1-2-.7-.7-1.6-.4-2.2.6-.2.3-.6.8-.9 1-1.5 1-3.6.5-4.4-1.2-.2-.3-.4-.6-.6-.7-.5-.2-1.2-.1-1.5.2m22.1 10.8c-.3 0-.9.2-1.4.4l-1 .3v.6c0 1.1-.9 1.6-1.8 1.2-.5-.3-.5-.3-1.1.3-1.5 1.5-2.8 4-2.8 5.6 0 .7.1.9.4 1.1 1.2.9 3 .9 5-.1 4-2 6.1-6.9 4.1-9.3-.3-.2-.5-.2-1.4-.1m-1.9 3c-.9.7-.2 2.3.9 2.1 1-.2 1.4-1.5.6-2.1-.2-.2-.6-.3-.8-.3s-.5.1-.7.3m2.8 14.5c-.3.1-.7.4-1 .6-.5.5-.6.8 0 1.8.4.8 2.5 2.7 3.3 3l.8.3.5-.4c.6-.6.8-1.3.7-2.1s-2.2-2.9-3.1-3.2c-.7-.2-.6-.2-1.2 0" fill="#ffcbbe"/><path d="m43.3 41.2c-1.7.4-5.8.9-6.7.9h-.6l.1 6.2.1 6.2.4 1.4c1.5 4.7 5.1 8.2 9.8 9.5 1 .3 1.8.3 4.3.4 2.8.1 3 0 2.5-.2-1.7-.8-4.1-2.7-5.5-4.5-1.2-1.6-2.3-4-2.7-5.7-.1-.6-.1-.6-.6-.4-.7.2-1.8.2-2.7-.1-1.7-.5-2.3-1.9-1.3-2.9.7-.6 2-1 3.2-.9l1 .1v-.5c0-.4-.1-.6-.5-.8-.7-.4-1.2-1.6-1.3-2.8l-.1-1-.6-.1c-.7-.2-.9-.5-.9-1.2 0-.8.6-1.1 2.1-1.1h1.3l.1-1.4c0-.8.1-1.4.1-1.4-.1 0-.7.1-1.5.3m-12.2 5.1c-1.1.3-1.6 1.3-1.5 3 .1 2 1.5 3.8 3.4 4.5.7.2.7.2.6-.1-.1-.2-.1-1-.1-1.7v-1.4l-.5-.4c-.4-.2-.7-.3-1.2-.2-.6.1-.8 0-1.2-.3-.6-.5-.6-1.3 0-1.8.5-.4 1.7-.6 2.4-.4.5.1.5.1.4-.1-.2-.5-.7-1-1.3-1.1-.3-.1-.6-.1-.6-.1-.1 0-.3 0-.4.1m47.5 0c-.6.2-.9.4-1.2.9-.2.4-.2.4.6.3 2-.3 3.3 1.1 2.2 2.2-.4.4-.5.4-1.2.3s-.9-.1-1.2.3c-.4.3-.4.5-.5 2.1l-.2 1.6.4-.2c1.5-.6 2.7-1.6 3.3-3 .4-1 .5-3.1.1-3.7-.6-.7-1.4-1-2.3-.8m-10.7.6c0 .3 0 .4.1.3 0-.2 0-.4 0-.5-.1-.2-.1-.1-.1.2m1.7 17.5c-4 1.4-6.8 6.1-5.5 8.9l.3.7.1-1c.2-1.8 1.4-4.1 2.9-5.5.4-.4.6-.7.6-.7-.1-.1-.1-.3-.1-.6 0-1 1.3-1.6 1.9-.9.3.3.3.3 1.3-.1.6-.2 1.4-.4 1.8-.5l.8-.1-.6-.3c-.8-.3-2.4-.3-3.5.1m-17.9 5.4c0 .8.1 1.5.1 1.6.1.1.6-.3 1.7-1.4l1.6-1.6h-1.7-1.7zm20.1 14.3c-.3.9-.1 1.5 1.2 2.7 1.6 1.6 2.2 1.9 3.3 1.4l.5-.2-.8-.3c-1.3-.5-3.7-3-3.7-3.9 0-.5-.3-.3-.5.3" fill="#eaac9d"/><path d="m24.1 20.4c-1 1.1-1.3 1.9-1.4 3.6-.1 1.9.2 3.2 1.3 5.3 1.2 2.3 2 3.3 3.5 4.2l1.2.7.6-.3c1.1-.5 3.2-2 4.4-3.1 1.5-1.4 2.4-2.6 3.1-4 .4-.9.5-1.2.5-2.3 0-1-.1-1.4-.4-2.2-1.2-2.6-3.8-3.6-5.5-2-.6.6-1.2 1.8-1.2 2.6 0 1.4-1.1 2.2-2 1.4-.3-.2-.4-.5-.5-1.3-.2-1.2-.7-2.2-1.4-2.8-1.1-.7-1.4-.7-2.2.2" fill="#dd636e"/><path d="m23 19.9c-1.5.7-2.6 2.4-2.7 4.4-.1 1.5.2 2.5 1.1 3.9.6.9.7 1.7.3 2-.2.2-.1.3.6 1 .8.8.8.8 1.1.6.5-.4 1-.3 1.9.4l.8.6-.8-1c-1-1.3-2.3-3.9-2.6-5.3-.3-1.5-.2-3.7.2-4.7.2-.4.6-1.1 1-1.5l.7-.7h-.6c-.2.1-.7.2-1 .3" fill="#da4a54"/><path d="m46.2 15.2c-2.9.5-5.7 1.8-7.7 3.6l-.7.6.5.8c1.1 1.7 1.6 4.2 1.2 6.1-.6 2.6-3.3 6.1-6.3 8.1l-.6.4v4.6 4.6l.5.2c.3.1.5.1.5.1s.1-.9.1-1.9c0-2.4 0-2.4 2.4-2.5 2.4-.2 7.1-.8 8.2-1.2.2-.1.3-.6.3-5.2.1-5 .1-5.2.5-6.6 1.4-4.9 5-9.2 9.5-11.3l1-.5h-4.1c-2.8-.1-4.5-.1-5.3.1m16.4-.2h.7c.2 0 0-.1-.4-.1s-.4.1-.3.1m-38.4 4.6h.6c.2 0 0-.1-.4-.1s-.4.1-.2.1m-4 5.1c0 .4 0 .5.1.4 0-.2 0-.5 0-.7-.1-.3-.1-.1-.1.3m57.9 5.8c0 .5 0 .7.1.4s0-.6 0-.9c-.1-.2-.1 0-.1.5m-13.8-.1-.5.5.5-.5c.5-.4.6-.5.5-.5 0-.1-.2.2-.5.5m12.9 12c0 1 0 1.8.1 1.8s.1-.6.1-1.3c-.2-2.2-.2-2.4-.2-.5m-2.4 4.6c0 2.9 0 4.1 0 2.6s0-3.9 0-5.3c.1-1.4 0-.2 0 2.7m-20.6 4h2.2c.6 0 .2-.1-1.1-.1-1.1 0-1.6.1-1.1.1m-21.6 7.3c0 3.1-.1 3.2-2.4 3.2-1.5 0-2.4.3-3.3 1.1-2.3 2.1-1.8 5.8 1.1 7.2l.8.4h7.4c6.9 0 7.5 0 8.3-.3 1.1-.4 2.8-.6 4-.6.9 0 .9 0 .9-.4s0-.4-1.1-.5c-4-.3-8.3-2.7-10.9-5.9-1-1.3-2.4-3.8-2.8-5-.2-.7-.4-.8-1.3-1l-.6-.1v1.9m38.4 1.5h.7c.2 0 0-.1-.4-.1s-.5 0-.3.1m.2 1.9h.6c.2 0 0-.1-.4-.1-.3 0-.4 0-.2.1m12.3.7s.2.3.5.5l.5.5-.5-.5c-.4-.5-.5-.6-.5-.5m-21.2 2.1-1.6 1.7 1.6-1.7c1.6-1.5 1.8-1.7 1.7-1.7s-.8.8-1.7 1.7m-13.3 1.5h.5c.2 0 0-.1-.3-.1s-.4.1-.2.1m9.4 4.3c0 .6 0 .8.1.5 0-.3 0-.7 0-1-.1-.3-.1 0-.1.5m-3.3 1.3-.8.8.8-.8c.8-.7.9-.8.8-.8 0 0-.3.4-.8.8m17.1 1.1-.5.5.5-.5c.3-.2.6-.4.6-.5s-.1 0-.6.5m4.9 6.3c-.7.7-1.2 1.3-1.2 1.3.1 0 .7-.6 1.3-1.3.7-.7 1.2-1.3 1.2-1.3s-.6.6-1.3 1.3m-15.3 5.7c.3.3.6.5.6.5s-.2-.2-.5-.5-.6-.5-.6-.5.2.2.5.5m10.1 5.2c0 .4 0 .5.1.4 0-.2 0-.5 0-.7-.1-.2-.1 0-.1.3" fill="#454045"/><path d="m54.5 15.4c-4.6 2.2-8.1 6.4-9.5 11.3-.4 1.4-.4 1.6-.5 6.6l-.1 5.1 1.4-.3c8.1-1.8 15.2-4.8 18.4-7.8.3-.3.7-.6.9-.6.5-.2 1.1.2 1.4.7.7 1.3 2.5 3.8 3.4 4.9 1.7 2 4.1 3.6 5.9 4.1 1.1.3 1.2.6 1.3 2.7 0 1 .1 1.9.1 1.9s.2-.1.5-.2l.4-.2v-5.9c0-3.3-.1-6.7-.2-7.7-.5-5.9-3.9-10.9-9.2-13.5-2.8-1.3-4.9-1.7-10.2-1.7h-3.1zm-18.6 32c0 3 0 4.2 0 2.7s0-3.9 0-5.4 0-.3 0 2.7m6.9-3.6h1.5c.4 0 .1-.1-.7-.1-.9 0-1.2 0-.8.1m23.9 0h1.4c.4 0 0-.1-.8-.1s-1.1 0-.6.1m-33.4 6.6c.1.1.2.7.2 1.2l.1.9v-1c.1-.7 0-1-.3-1.1-.2-.2-.2-.2 0 0m44.1 6c-.7.2-.8.2-1 .9l-.3.8 1 .5c.6.3 1 .5 1.1.5 0 0 0-.7 0-1.5v-1.4zm3.6 5.2s.3.4.6.9c1.1 1.4 2.4 4.4 2.4 5.7 0 .6.3.5.8-.4s.6-2.9 0-3.8c-.4-.8-1.4-1.7-2.1-2-.6-.3-1.7-.5-1.7-.4m-29.3 4.5h4c1.1 0 .2 0-2 0s-3.1-.1-2 0m-.7 14.1c0 .4 0 .5.1.4 0-.2 0-.5 0-.7-.1-.2-.1-.1-.1.3m-12.3 5.3c0 2.8 0 4 0 2.6s0-3.7 0-5.2c.1-1.4 0-.3 0 2.6" fill="#544f57"/><path d="m45.6 12.8c-3.3.6-6.8 2.3-9.2 4.4l-.6.5-.7-.3c-.5-.2-1.2-.3-2-.3-1.5 0-2.4.3-3.5 1.4l-.8.7-.8-.6c-1.2-1.1-2-1.4-3.6-1.4-1.2 0-1.4 0-2.5.6-2.8 1.4-4.5 4.9-3.9 8.1.2 1.3 1.2 3.3 1.9 4.2.6.7 1.4.8 1.9.2.4-.6.4-.9-.1-1.8-1-1.6-1.3-2.5-1.3-3.9 0-1.1.1-1.4.5-2.3.8-1.8 2.1-2.7 3.7-2.7s2.8 1.2 3.2 3.3c.2 1.3.5 1.6 1.2 1.6s1.2-.5 1.2-1.1c0-.9.4-2.1 1-2.7 1.3-1.6 3.5-1.4 5 .3 1 1.1 1.3 1.9 1.3 3.7 0 1.5 0 1.6-.5 2.6-1.2 2.4-3.4 4.6-6.7 6.5l-1.2.7-1.1-.5c-.4-.2-1.3-.8-2-1.3-1.6-1.1-1.8-1.2-2.5-.8-.4.3-.5.4-.5.8 0 .6.4 1 1.8 2 1.3.9 3.6 2.2 4 2.2.2 0 .6-.1.8-.2l.5-.2v3.7 3.7l-.8.5c-1.3.8-2 2-2.2 3.9-.2 2 .6 4.2 2.1 5.8l.9.9v2 2l-.5.1c-.3 0-.8.1-1.1.2-1.6.2-3.3 1.4-4.3 2.9-2.5 3.9-.4 9.2 4.1 10.2.9.2 2.1.2 6.3.2h5.2l-.8 1c-.9 1.2-1.5 2.4-2 3.9-.4 1.1-.4 1.3-.4 7.8l-.1 6.7.4.4.4.4h18.4 18.4l.3-.4c.2-.3.3-.6.3-1.1v-.6h.9c1.3 0 2.3-.4 3.4-1.4 1.1-1.1 1.6-2.1 1.6-3.5 0-1.3-.4-2.3-1.5-3.4l-1.1-.8 1.1-1.1c1.2-1.2 1.4-1.5 1.2-2.1-.1-.4-.8-.8-1.2-.8-.1 0-.9.6-1.6 1.3-1.3 1.3-1.4 1.3-1.7 1.1-.6-.3-2.4-.3-3.3.1-2.2 1-3.5 3.5-2.9 5.7.4 1.5-.2 1.4-3-.4-3.8-2.6-6.5-6.4-7.5-10.8-.4-1.5-.6-4.1-.5-5.3l.1-1.1 3.2-3.2c2.1-2 3.6-3.4 4.1-3.8 2.1-1.2 4.5-1.7 6.7-1.4 2.6.3 4.4 1.3 6.2 3.2 2.8 2.9 3.6 6.8 2.3 10.6-.6 1.6-.5 2 .2 2.5.4.2.5.2.9 0s.6-.5.9-1.3c.2-.6.5-1.4.6-2 .2-.9.2-1 1-1.4 2-1.3 3.3-4.2 2.8-6.6-.5-2.8-2.9-5.2-5.3-5.6-.4-.1-1-.1-1.2-.2h-.5v-1.9-1.9l.9-.9c3-3.1 2.9-8.5-.2-10l-.7-.3v-7.2c0-5.7 0-7.5-.2-8.6-.8-4.7-3.4-9-7.1-11.8-2.4-1.8-5.4-3.1-8.1-3.6-1.9-.3-17.8-.3-19.6 0m.6 2.4c-2.9.5-5.7 1.8-7.7 3.6l-.7.6.5.8c1.1 1.7 1.6 4.2 1.2 6.1-.6 2.6-3.3 6.1-6.3 8.1l-.6.4v4.6 4.6l.5.2c.3.1.5.1.5.1s.1-.9.1-1.9c0-2.4 0-2.4 2.4-2.5 2.3-.2 3.7-.4 6.9-.9 9.3-1.7 17.1-4.7 21.2-8.2 1.4-1.2 1.8-1.1 3.1 1.1 1 1.7 2.4 3.4 3.9 4.9 1.6 1.5 2.8 2.3 4.5 2.9.6.2 1.2.5 1.3.7s.2.9.2 2.2c0 1.8 0 1.9.3 1.8.2-.1.4-.1.6-.2.3-.1.3-.5.2-7.6l-.1-7.6-.4-1.5c-1.8-6.5-6.6-11-13-12.3-1.4-.3-2.3-.3-9.5-.3-6.1.1-8.2.1-9.1.3m17.4 18.6c-1.7 1.1-4.5 2.6-6.7 3.5-5.1 2-12.2 3.8-17.9 4.4-1.2.1-2.4.3-2.7.3l-.5.1v5.3c0 2.9.1 5.9.2 6.5.6 4.6 3.4 8.5 7.6 10.6 2.7 1.3 3.3 1.4 9 1.5l4.9.1 3-3c1.7-1.6 3.5-3.3 4-3.6 2.3-1.5 4.9-2.2 7.7-2l1.6.1.3-1.1c.7-2 .7-2.4.8-8.6l.1-6.1-1.2-.5c-.6-.3-1.6-.8-2.2-1.2-1.4-.9-3.9-3.6-5.1-5.3-.5-.8-1.1-1.5-1.2-1.7-.2-.2-.3-.2-1.7.7m-22 10.3c-.4.4-.4.7-.2 1.3.2.4.3.5.8.6l.6.1v.9c0 1.7.8 3.1 1.8 3.1 1.9 0 2.7-4 1.1-5.7l-.5-.5h-1.7c-1.4-.1-1.7 0-1.9.2m23.4.1c-.6.7-.9 1.5-.9 2.7 0 3.4 2.7 4.4 3.5 1.3.1-.5.2-1.2.2-1.6-.1-.7 0-.7.4-.7 1.1 0 1.7-1.2 1-1.9-.3-.3-.5-.3-2.1-.3-1.6.1-1.7.1-2.1.5m-34.5 2.2c-.7.4-1 1.1-1 2.5 0 1 .1 1.4.4 2.1.5 1.1 1.4 2 2.5 2.6 1.3.7 1.3.7 1.2-1.4v-1.8l-.6-.3c-.4-.3-.7-.3-1.3-.3-.8.1-.8.1-1.2-.3-.4-.6-.4-.9 0-1.4.4-.4.5-.4 1.6-.4 1.4 0 1.5-.1.8-.9-.4-.4-.6-.5-1.3-.6-.4 0-.8 0-1.1.2m47.4.2c-.3.3-.6.6-.6.8-.1.3 0 .3.9.2 1.6-.2 2.7.6 2.3 1.6-.2.6-.6.8-1.4.7-.7-.1-1.4.1-1.7.6-.1.1-.2 1-.2 1.9-.1 1.9-.1 1.9 1.1 1.4 1-.5 2.1-1.6 2.6-2.7.3-.8.4-1.2.4-2.1 0-1.8-.7-2.8-2.1-2.8-.7 0-.9 0-1.3.4m-25.3 2.4c-.4.4-.5 1.1-.1 1.6.3.3.5.3 2.8.3 2.5 0 2.6 0 2.8-.3.3-.5.3-1.1-.1-1.5-.3-.3-.5-.3-2.7-.3-2-.1-2.4-.1-2.7.2m-1.6 4.9c-.2.1-.4.4-.5.6-.2.4-.1.6.2 1.1.5 1 1.5 1.9 2.5 2.4 1.2.6 3.3.6 4.4.1 2-.9 3.4-3.2 2.5-4-.7-.6-1.4-.4-2 .6-.8 1.3-2.3 1.9-3.6 1.5-.7-.2-1.7-1.1-2-1.7-.1-.2-.4-.5-.6-.6-.4-.2-.5-.2-.9 0m-18.4 4.4c0 3.1-.1 3.2-2.4 3.2-1.5 0-2.4.3-3.3 1.1-2.3 2.1-1.8 5.8 1.1 7.2l.8.4h7.4c6.9 0 7.5 0 8.3-.3 1.1-.4 2.8-.6 4-.6.9 0 .9 0 .9-.4s0-.4-1.1-.5c-4-.3-8.3-2.7-10.9-5.9-1-1.3-2.4-3.8-2.8-5-.2-.7-.4-.8-1.3-1l-.6-.1v1.9m44.8-2c-.2 0-.5.1-.6.1-.2.1-.4.3-.6.8-.1.4-.3.8-.3.9 0 0 .5.3 1.1.6l1.1.6v-1.6c0-1.6 0-1.5-.7-1.4m3.8 5.7c1.3 1.6 2.5 4.3 2.7 6 .1.8.1.8.4.6.5-.5 1-1.8 1-2.9 0-2.2-1.9-4.3-4-4.3h-.5zm-11.9-.1c-3.3 1-6.4 3.9-7.6 7.2-.3.8-.4 1.4-.4 2.7 0 1.5 0 1.8.4 2.5.6 1.2 1.2 1.9 2.4 2.5.8.5 1.2.5 2.3.6 1.7.1 2.8-.1 4.3-.9 4-2 6.8-6.5 6.2-10.1-.3-2-1.4-3.5-3.1-4.2-.8-.5-3.3-.6-4.5-.3m.7 2.2c-1.4.4-2.6 1.1-3.8 2.3-3.1 3.1-3.5 7.1-.9 8.4 1.9.9 4.8 0 7-2.2 2.6-2.6 3.3-6.3 1.5-8-.9-.7-2.3-.9-3.8-.5m-1.8 1.4c-.6.7-.1 1.9.8 1.9.4 0 1.2-.6 1.2-1 0-.3-.3-.9-.5-1.1-.5-.3-1.3-.2-1.5.2m2.4 2.6c-.4.5-.3 1.1.2 1.5.7.6 1.8.1 1.8-.8-.1-1.1-1.3-1.6-2-.7m-19.1 1.8c0 .9.1 1.7.2 1.8s.9-.7 1.9-1.6l1.8-1.8h-1.9-1.9zm2.7 2.7c-1.3 1.4-1.8 2.1-2.3 3.1-1.5 3.1-1.5 6.1.1 9.2 1.2 2.5 3.5 4.4 6.1 5.3.9.3 1.5.3 3.2.3 2 0 2.2 0 3.4-.5.7-.3 1.6-.7 1.9-.9l.7-.4-1.3-.8c-5.8-3.5-9.2-9-9.8-15.9-.1-.7-.2-1.2-.2-1.2-.1 0-.9.8-1.8 1.8m-8-.9c-3.5.7-6.4 3.5-7.3 7-.3 1.1-.3 1.7-.3 6.5v5.3h1.8 1.8v-4.9c0-5.2 0-5.5.8-5.8.5-.2 1.3.1 1.5.5.1.1.1 2.5.1 5.2v4.9h4.6 4.6l-1.2-1.1c-2.8-2.6-4.2-5.9-4-9.8.1-1.9.4-3.1 1.1-4.7l.5-1.1-.4-.7c-.2-.5-.4-1-.5-1.2s-.3-.3-1.3-.3c-.6.1-1.5.2-1.8.2m26.6 10.8c-.9.7-1.3 1.3-1.3 2.3v.9l1.3 1.3c1.8 1.9 2.8 2.1 4.1.8.8-.8 1.1-1.6.9-2.5-.2-.6-2-2.5-2.7-2.9s-1.7-.4-2.3.1m-3 7-1.2 1.1h1.7 1.7v-.6c0-.5-.1-.7-.5-1.1l-.5-.5z"/></g></svg>