<svg enable-background="new 0 0 105.6 105.5" viewBox="0 0 105.6 105.5" xmlns="http://www.w3.org/2000/svg"><path d="m52.8 105.4c-29.1 0-52.7-23.6-52.7-52.7 0-29.1 23.6-52.7 52.7-52.7s52.7 23.6 52.7 52.7-23.6 52.7-52.7 52.7zm0-103.4c-28 0-50.7 22.7-50.7 50.7s22.7 50.7 50.7 50.7 50.7-22.7 50.7-50.7-22.7-50.7-50.7-50.7z" fill="#575756"/><g clip-rule="evenodd" fill-rule="evenodd"><path d="m56.8 23.5c-1.5 1.8-2.7 3.2-2.9 3.3-.9.3-1.2.1-4.2-3-1.6-1.6-2.9-2.9-2.9-2.9s-.7 1.7-1.6 3.7c-1.6 3.9-2 4.5-2.9 4.5-.3 0-1.6-.6-3.8-1.8-1.8-1-3.4-1.8-3.5-1.8s-.4 1.9-.6 4.2c-.5 4-.5 4.2-.9 4.6-.6.6-.8.6-5-.1-1.9-.3-3.5-.5-3.5-.5s.3 1.8.7 4c.9 4.2.9 4.7.6 5.2-.3.4-.8.6-4.7 1.7-1.7.5-3.2.9-3.2.9s1 1.6 2.4 3.4c1.3 1.9 2.4 3.5 2.5 3.7v.7c-.1.2-1.3 1.7-2.9 3.3l-2.8 2.9 1.4.7c.8.4 2.4 1.1 3.5 1.6 2.2 1 2.7 1.3 2.8 2 .1.3-.3 1.9-.9 4.4-.5 2.2-.9 4-.9 4.1s1.7-.1 3.8-.3c3.5-.4 3.8-.4 4.3-.2.3.1.6.4.7.7.1.2.5 2.2.9 4.4s.7 3.9.8 4c0 0 1.4-.8 3-1.8s3.1-1.9 3.3-2c.5-.3 1.2-.2 1.7.2.2.2 1.2 1.9 2.3 3.8 1 1.9 1.9 3.5 2 3.5s1.2-1.3 2.4-2.8c1.3-1.6 2.5-3 2.7-3.2s.6-.3 1-.3c.5 0 .8.2 3.5 3 1.6 1.6 3 2.9 3 2.9s.8-1.7 1.6-3.8c1-2.3 1.7-3.8 1.9-4 .7-.6 1.3-.4 4.8 1.6 1.8 1 3.4 1.8 3.4 1.8.1 0 .3-1.8.5-3.9s.5-4.1.6-4.4.4-.6.7-.8c.6-.7.6-.7 4.4 0 2.1.3 3.8.6 3.9.6 0 0-.3-1.8-.7-4-.4-2.1-.8-4.1-.8-4.4 0-1 .4-1.2 4-2.2 1.8-.5 3.5-1 3.7-1l.4-.1-2.3-3.4c-2.6-3.7-2.6-3.7-2.6-4.2 0-.6.3-.9 3-3.7 1.4-1.5 2.6-2.8 2.6-2.8 0-.1-1.6-.8-3.6-1.7-3.3-1.5-3.6-1.7-3.9-2.2l-.3-.6 1-4.1c.5-2.3.9-4.1.9-4.2 0 0-1.7.1-3.7.4s-3.8.4-4 .4c-.9-.2-1-.5-1.8-4.9-.4-2.3-.8-4.2-.8-4.2 0-.1-1.5.8-3.2 1.9-1.8 1.1-3.4 2-3.6 2.1-1 .2-1.3-.2-3.2-3.8-1-1.9-1.9-3.6-2.1-3.7-.3-.5-.6-.2-2.9 2.6m-4.7 10.5c-.2.2-.5.4-.6.6-.2.3-2.3 13-2.3 13.7 0 .3.2.7.4.9.3.4.5.5 1.1.5.5 0 .8-.1 1-.4.3-.3.4-.6.8-2.6.1-.4.2-.4 2.5-.9 1.3-.3 2.5-.5 2.6-.5s.5.5.9 1.1.8 1.1 1 1.2c.6.3 1.2.2 1.7-.3 1-.9.9-.9-3-7.3-1.9-3.1-3.7-5.8-4-6.1-.5-.4-1.5-.4-2.1.1m-10.2 2c-.3.2-.5.6-.6.8s.1 1.4.4 2.6.4 2.3.4 2.3c-.1.1-5.2 1.1-5.3 1.1 0 0-.2-1-.4-2.1-.5-2.5-.6-2.9-1.2-3.2-1-.5-2-.1-2.2.9-.1.3 1.1 6.5 2.3 12.3.2 1.1.8 1.7 1.5 1.7.8 0 1.2-.2 1.5-.8.2-.5.2-.7-.3-3.1-.4-1.8-.5-2.6-.3-2.6.7-.2 5.1-1 5.1-.9 0 0 .3 1.2.6 2.6s.6 2.6.7 2.7c.3.4 1.1.6 1.6.6.5-.1 1.2-.9 1.2-1.3 0-.2-.6-3.2-1.3-6.6-1.4-7-1.4-7-2.5-7.1-.6-.2-.8-.2-1.2.1m30.7 2.2c-.4.1-1.1.9-1.1 1.2 0 .1-.2 2.3-.5 4.8s-.5 4.9-.5 5.2c0 1.6 2.2 2.1 2.8.7.3-.7 1.4-10.4 1.2-10.9-.4-.7-1.2-1.1-1.9-1m-18.8 1.1c-.2.5-.6 3.6-.6 3.7.1.1 2.1-.3 2.6-.5.2-.1.2-.1-1.2-2.4-.5-.8-.7-1-.8-.8m16.4 15.9c-.4.4-.5.6-.5 1.1s.1.7.5 1.1c.7.6 1.4.6 2 0 .7-.7.6-1.9-.3-2.4-.7-.3-1.2-.3-1.7.2m-28.1.6c-.3.1-.6.4-.7.6-.2.3-.8 9.8-.8 12.5 0 1.1 0 1.2.4 1.7.6.6 1.5.6 2.1 0 .4-.4.4-.6.6-2.4.1-1.1.1-2.3.1-2.7v-.7l2.6.1c1.5.1 2.7.1 2.7.2v2.5c-.1 1.3-.1 2.6 0 2.8.3 1.3 2.2 1.5 2.8.3.1-.2.3-3.2.5-6.8.4-7 .4-7.1-.5-7.6-.7-.3-1.2-.3-1.7.2-.5.4-.5.5-.6 1.7-.1.7-.1 1.8-.1 2.5v1.2l-2.7-.1c-1.5-.1-2.7-.1-2.8-.2s0-1.1 0-2.3c.1-2.5 0-3.1-.7-3.5-.4-.3-.6-.3-1.2 0m18.5 1.2c-.6.5-5.8 12.5-5.8 13.3 0 .5.1.7.5 1.1s.6.5 1.1.4c.8-.1 1-.3 1.6-1.7l.5-1.2 1.6.1c.9 0 2 .1 2.6.2l1.1.1.4 1.2c.4 1.4.9 1.9 1.8 1.9.8 0 1.4-.7 1.4-1.5 0-.3-.9-3.5-2.1-7-2.3-7.2-2.3-7.1-3.7-7.1-.4-.2-.7-.1-1 .2m.1 6.8c-.4 1-.7 1.9-.7 1.9.1.1.7.1 1.4.1h1.3l-.5-1.8c-.3-1-.6-1.8-.6-1.9-.1 0-.5.8-.9 1.7" fill="#fff2a0"/><path d="m59 16.1c-.3.2-4.4 5.1-5.5 6.5-.2.3-.4.2-3.2-2.8-3.3-3.4-3.6-3.6-4.6-3.2-.3.1-.6.3-.7.4s-.9 2-1.8 4.1-1.7 4-1.7 4-1.7-.8-3.7-2c-3.7-2.1-4.3-2.3-5-1.9-.6.3-.7 1-1.2 5.3-.4 2.5-.6 4.5-.7 4.6s-1.8-.2-3.8-.5c-4.3-.7-4.6-.7-5.2-.3-.8.6-.8.7.2 5.7.5 2.5.9 4.6.9 4.6s-1.8.5-4 1.1c-4.3 1.2-4.6 1.3-4.8 2.3-.1.6-.1.7 2.9 5 1.3 1.9 2.4 3.5 2.4 3.5 0 .1-1 1.1-2.1 2.3-4 4.2-4 4.3-4 4.9 0 .4.1.7.3 1s1.6 1 4.3 2.2c2.3 1 4 1.9 3.9 2-.2.6-2.1 8.8-2.1 9.1 0 .5.7 1.3 1.3 1.4.3 0 2.3-.1 4.5-.4 2.7-.3 4-.5 4-.3 0 .1.4 2 .8 4.2.8 4.7.9 5 1.4 5.4.8.6 1.2.5 4.9-1.8 1.9-1.2 3.5-2.1 3.6-2.2.1 0 1 1.5 2.2 3.8 1.1 2.1 2.2 4 2.4 4.2.5.5 1.6.5 2.1 0 .2-.2 1.4-1.7 2.7-3.3s2.4-3 2.5-3.1 1.4 1.1 3.3 3c3.4 3.4 3.5 3.5 4.6 3 .5-.2.6-.5 2.3-4.4.7-1.7 1.4-3.4 1.5-3.6l.2-.5 3.7 2.1c4.2 2.3 4.4 2.4 5.2 1.6.5-.6.4.2 1.4-7.9.1-.9.3-1.6.3-1.6.1 0 2 .3 4.2.7 4.6.8 4.6.8 5.2-.3.3-.5.3-.6-.7-5.1-.5-2.5-.9-4.6-.9-4.7 0 0 1.7-.5 3.7-1.1 2-.5 3.9-1.1 4.2-1.2.6-.3 1-1 .9-1.7-.1-.3-1.2-2.1-2.6-4.1s-2.6-3.7-2.6-3.8.7-1 1.7-2c4.8-5 4.4-4.6 4.4-5.3 0-.3-.1-.8-.2-1-.2-.3-2.3-1.3-8.3-4 0 0 .5-2 1-4.5.6-2.5 1.1-4.6 1.1-4.7 0-.5-.4-1.2-.9-1.4-.4-.2-1-.1-4.6.3-2.2.3-4.1.4-4.2.4-.1-.1-.5-2.1-.9-4.6-.4-2.4-.9-4.6-1-4.7-.3-.4-1.1-.8-1.6-.7-.2.1-2 1.1-3.9 2.3s-3.5 2.1-3.5 2.1-1-1.8-2.1-3.9c-1.2-2.1-2.2-4-2.4-4.1-.4-.5-1.3-.6-1.7-.4m21.7.1c-.5.3-.8.8-.8 1.5 0 .4.1.6.5 1 .6.6 1.1.7 1.8.3.5-.3.8-.7.8-1.4s-.3-1.1-.8-1.4-1-.3-1.5 0m-58.8 1.4c-1 .4-1.3 1.8-.5 2.6.3.3.6.4 1.1.4.6 0 .8-.1 1.2-.5.6-.7.6-1.4 0-2-.5-.5-1.3-.7-1.8-.5m34.9 5.9c-1.5 1.8-2.7 3.2-2.9 3.3-.9.3-1.2.1-4.2-3-1.6-1.6-2.9-2.9-2.9-2.9s-.7 1.7-1.6 3.7c-1.6 3.9-2 4.5-2.9 4.5-.3 0-1.6-.6-3.8-1.8-1.8-1-3.4-1.8-3.5-1.8s-.4 1.9-.6 4.2c-.5 4-.5 4.2-.9 4.6-.6.6-.8.6-5-.1-1.9-.3-3.5-.5-3.5-.5s.3 1.8.7 4c.9 4.2.9 4.7.6 5.2-.3.4-.8.6-4.7 1.7-1.7.5-3.2.9-3.2.9s1 1.6 2.4 3.4c1.3 1.9 2.4 3.5 2.5 3.7v.7c-.1.2-1.3 1.7-2.9 3.3l-2.8 2.9 1.4.7c.8.4 2.4 1.1 3.5 1.6 2.2 1 2.7 1.3 2.8 2 .1.3-.3 1.9-.9 4.4-.5 2.2-.9 4-.9 4.1s1.7-.1 3.8-.3c3.5-.4 3.8-.4 4.3-.2.3.1.6.4.7.7.1.2.5 2.2.9 4.4s.7 3.9.8 4c0 0 1.4-.8 3-1.8s3.1-1.9 3.3-2c.5-.3 1.2-.2 1.7.2.2.2 1.2 1.9 2.3 3.8 1 1.9 1.9 3.5 2 3.5s1.2-1.3 2.4-2.8c1.3-1.6 2.5-3 2.7-3.2s.6-.3 1-.3c.5 0 .8.2 3.5 3 1.6 1.6 3 2.9 3 2.9s.8-1.7 1.6-3.8c1-2.3 1.7-3.8 1.9-4 .7-.6 1.3-.4 4.8 1.6 1.8 1 3.4 1.8 3.4 1.8.1 0 .3-1.8.5-3.9s.5-4.1.6-4.4.4-.6.7-.8c.6-.7.6-.7 4.4 0 2.1.3 3.8.6 3.9.6 0 0-.3-1.8-.7-4-.4-2.1-.8-4.1-.8-4.4 0-1 .4-1.2 4-2.2 1.8-.5 3.5-1 3.7-1l.4-.1-2.3-3.4c-2.6-3.7-2.6-3.7-2.6-4.2 0-.6.3-.9 3-3.7 1.4-1.5 2.6-2.8 2.6-2.8 0-.1-1.6-.8-3.6-1.7-3.3-1.5-3.6-1.7-3.9-2.2l-.3-.6 1-4.1c.5-2.3.9-4.1.9-4.2 0 0-1.7.1-3.7.4s-3.8.4-4 .4c-.9-.2-1-.5-1.8-4.9-.4-2.3-.8-4.2-.8-4.2 0-.1-1.5.8-3.2 1.9-1.8 1.1-3.4 2-3.6 2.1-1 .2-1.3-.2-3.2-3.8-1-1.9-1.9-3.6-2.1-3.7-.3-.5-.6-.2-2.9 2.6m29.6-1.3c-.5.3-.7.7-.7 1.4s.2 1.1.8 1.4 1 .3 1.5 0c1.7-1.1.2-3.8-1.6-2.8m-34.3 11.8c-.2.2-.5.4-.6.6-.2.3-2.3 13-2.3 13.7 0 .3.2.7.4.9.3.4.5.5 1.1.5.5 0 .8-.1 1-.4.3-.3.4-.6.8-2.6.1-.4.2-.4 2.5-.9 1.3-.3 2.5-.5 2.6-.5s.5.5.9 1.1.8 1.1 1 1.2c.6.3 1.2.2 1.7-.3 1-.9.9-.9-3-7.3-1.9-3.1-3.7-5.8-4-6.1-.5-.4-1.5-.4-2.1.1m-10.2 2c-.3.2-.5.6-.6.8s.1 1.4.4 2.6.4 2.3.4 2.3c-.1.1-5.2 1.1-5.3 1.1 0 0-.2-1-.4-2.1-.5-2.5-.6-2.9-1.2-3.2-1-.5-2-.1-2.2.9-.1.3 1.1 6.5 2.3 12.3.2 1.1.8 1.7 1.5 1.7.8 0 1.2-.2 1.5-.8.2-.5.2-.7-.3-3.1-.4-1.8-.5-2.6-.3-2.6.7-.2 5.1-1 5.1-.9 0 0 .3 1.2.6 2.6s.6 2.6.7 2.7c.3.4 1.1.6 1.6.6.5-.1 1.2-.9 1.2-1.3 0-.2-.6-3.2-1.3-6.6-1.4-7-1.4-7-2.5-7.1-.6-.2-.8-.2-1.2.1m30.7 2.2c-.4.1-1.1.9-1.1 1.2 0 .1-.2 2.3-.5 4.8s-.5 4.9-.5 5.2c0 1.6 2.2 2.1 2.8.7.3-.7 1.4-10.4 1.2-10.9-.4-.7-1.2-1.1-1.9-1m-18.8 1.1c-.2.5-.6 3.6-.6 3.7.1.1 2.1-.3 2.6-.5.2-.1.2-.1-1.2-2.4-.5-.8-.7-1-.8-.8m16.4 15.9c-.4.4-.5.6-.5 1.1s.1.7.5 1.1c.7.6 1.4.6 2 0 .7-.7.6-1.9-.3-2.4-.7-.3-1.2-.3-1.7.2m-28.1.6c-.3.1-.6.4-.7.6-.2.3-.8 9.8-.8 12.5 0 1.1 0 1.2.4 1.7.6.6 1.5.6 2.1 0 .4-.4.4-.6.6-2.4.1-1.1.1-2.3.1-2.7v-.7l2.6.1c1.5.1 2.7.1 2.7.2v2.5c-.1 1.3-.1 2.6 0 2.8.3 1.3 2.2 1.5 2.8.3.1-.2.3-3.2.5-6.8.4-7 .4-7.1-.5-7.6-.7-.3-1.2-.3-1.7.2-.5.4-.5.5-.6 1.7-.1.7-.1 1.8-.1 2.5v1.2l-2.7-.1c-1.5-.1-2.7-.1-2.8-.2s0-1.1 0-2.3c.1-2.5 0-3.1-.7-3.5-.4-.3-.6-.3-1.2 0m18.5 1.2c-.6.5-5.8 12.5-5.8 13.3 0 .5.1.7.5 1.1s.6.5 1.1.4c.8-.1 1-.3 1.6-1.7l.5-1.2 1.6.1c.9 0 2 .1 2.6.2l1.1.1.4 1.2c.4 1.4.9 1.9 1.8 1.9.8 0 1.4-.7 1.4-1.5 0-.3-.9-3.5-2.1-7-2.3-7.2-2.3-7.1-3.7-7.1-.4-.2-.7-.1-1 .2m.1 6.8c-.4 1-.7 1.9-.7 1.9.1.1.7.1 1.4.1h1.3l-.5-1.8c-.3-1-.6-1.8-.6-1.9-.1 0-.5.8-.9 1.7m25.3 14.3c-1.1.5-1.2 1.9-.3 2.6 1 .9 2.6.2 2.6-1.1 0-.6-.5-1.2-1-1.5-.7-.2-.7-.2-1.3 0m-64.6 1.6c-.5.2-1 .9-1 1.5 0 .8.8 1.5 1.7 1.5.6 0 1.5-.9 1.5-1.5s-.4-1.3-1-1.6c-.6-.2-.6-.2-1.2.1m53.4 6.4c-.8.8-.5 2.1.5 2.6.7.3 1.3.1 1.7-.4.9-1.1.2-2.6-1.2-2.6-.4-.1-.6 0-1 .4m-50.3.4c-1 .4-1.3 1.8-.5 2.6.3.3.6.4 1.1.4 1.9 0 2.1-2.8.2-3.1-.2 0-.6 0-.8.1"/></g></svg>