<svg enable-background="new 0 0 105.6 105.5" viewBox="0 0 105.6 105.5" xmlns="http://www.w3.org/2000/svg"><path d="m52.8 105.4c-29.1 0-52.7-23.6-52.7-52.7 0-29.1 23.6-52.7 52.7-52.7s52.7 23.6 52.7 52.7-23.6 52.7-52.7 52.7zm0-103.4c-28 0-50.7 22.7-50.7 50.7s22.7 50.7 50.7 50.7 50.7-22.7 50.7-50.7-22.7-50.7-50.7-50.7z" fill="#575756"/><path d="m52.8 105.4c-29.1 0-52.7-23.6-52.7-52.7 0-29.1 23.6-52.7 52.7-52.7s52.7 23.6 52.7 52.7-23.6 52.7-52.7 52.7zm0-103.4c-28 0-50.7 22.7-50.7 50.7s22.7 50.7 50.7 50.7 50.7-22.7 50.7-50.7-22.7-50.7-50.7-50.7z" fill="#575756"/><g clip-rule="evenodd" fill-rule="evenodd"><path d="m40.2 54.7c-.4 1.8-.4 2.5-.4 6 0 3.7 0 4.2.5 6.2 2.3 10.6 9 18.8 18 21.7 2.3.8 3.9 1 6.4 1h2l1.2-1.1c2.3-2.3 4.3-5.4 5.6-8.6 1.1-2.8 1.1-2.8-.2-4.8-1.8-2.8-3.9-5.2-6.7-8-3-3-5.1-4.7-8.5-7-2.8-1.9-5.6-3.4-8.4-4.6-2.2-.9-6.2-2.3-8.1-2.7l-1.2-.3z" fill="#b0f0ef"/><path d="m35.7 52.6c-1.5.5-3 1.6-3.7 2.8-1.9 2.8-2.9 9.7-2.3 15 .7 6.2 3.3 12.1 7.1 16.4 1.2 1.4 1.4 1.8 1.1 2.5-.1.3 0 .5.8 1.2.9.8 1 .9 1.3.6.5-.5 1.2-.3 2.8.6 7 4 14.5 4 21.2-.1.7-.4 1.7-1.1 2.1-1.4l.7-.6h-2.1c-2.5 0-4.1-.3-6.4-1-9-2.9-15.7-11.1-18-21.7-.4-2-.5-2.5-.5-6.2 0-3.5 0-4.3.4-6 .2-1.1.4-2 .3-2.1-.2-.2-1.5-.4-2.6-.4-.7 0-1.5.2-2.2.4m29.4-.1c-2.1.4-5.4 1.4-7.3 2.2-1.5.6-1.8.8-1.6.9.1.1 1.2.8 2.3 1.5 6 3.7 11.5 8.8 15.8 14.6.8 1 1.3 1.6 1.4 1.5.5-1.5.8-6.6.5-9.4-.2-2.1-1-5.6-1.6-6.9-1.2-2.7-4-4.6-6.9-4.5-.9-.1-1.9 0-2.6.1m1.7 14.7c.8.8 1.5 1.5 1.6 1.5 0 0-.6-.7-1.4-1.5s-1.5-1.5-1.6-1.5.5.6 1.4 1.5m1.1 21.4-1 1.1 1-1.1c1.1-.9 1.2-1.1 1.1-1.1s-.5.5-1.1 1.1" fill="#93ecea"/><path d="m52 14.9h1.9c.5 0 0-.1-1-.1-1.1 0-1.5 0-.9.1m3.5 3.6h.6c.2 0 0-.1-.3-.1s-.5.1-.3.1m-14.3 14.3h.7c.2 0 0-.1-.4-.1-.3 0-.5.1-.3.1m22.5 0h.7s0-.1-.4-.1c-.3 0-.5.1-.3.1m-38.6 4.3c0 1 0 1.3.1.8 0-.5 0-1.3 0-1.7-.1-.4-.1 0-.1.9m55.3 0c0 .9 0 1.3.1.8 0-.5 0-1.2 0-1.7 0-.4-.1-.1-.1.9m-42.8-.6c0 .5-.1.6-1 .8-2.1.6-3.4 2.1-3.4 3.9 0 3.2 4.3 5.2 7.7 3.6 3.5-1.6 3.6-5.5.2-7.2l-.9-.5-.4.4c-.8.7-2 .2-2.1-1 0-.5 0-.5-.1 0m29.8 1c-.6.5-1.1.6-1.7.1l-.4-.4-.9.5c-2.8 1.4-3.3 4.2-1.2 6.2 1.5 1.4 4.4 1.9 6.4 1 1.3-.6 2-1.2 2.4-2.1.9-1.9-.1-4.2-2.3-5.1-1.3-.7-1.8-.7-2.3-.2" fill="#ffa1ac"/><path d="m48.8 15.1c-.6.1-2 .4-3.1.7-11.8 3.1-19.5 13.7-17.6 24.6.6 3.5 2.2 7 4.4 9.7l.6.7.7-.3c1.9-1 4.6-1.2 7.5-.5.9.2 1.7.3 1.7.3s-.2-.5-.6-1c-.8-1.2-2.2-3.9-2.1-4s-.2 0-.6.1c-1.1.2-2 .2-3.2-.2-4.4-1.4-4.4-6.5.1-7.8 1-.3 1-.3 1.1-1 .1-.8.6-2 1-2.3.1-.1.3-.6.4-1 .1-.5.3-1.4.6-2.2 1.4-4.6 4.5-8.8 8.5-11.7 1-.7 2-1.5 2.3-1.8s.7-.5.9-.5.9-.2 1.5-.6c.7-.3 1.6-.7 2.2-.9l1-.3h-3.1c-1.7-.2-3.6-.1-4.2 0m-24 16.6c-3.8.6-6.4 4.5-5.5 8.2.5 2.1 1.8 3.7 3.7 4.6 1.2.5 3.4.9 3.4.5 0-.1-.2-.6-.3-1.2-1-2.8-1.3-7.8-.6-10.8.2-.8.3-1.4.2-1.4 0-.1-.4 0-.9.1m55.1.2c.9 3.6.7 8.7-.4 11.9-.2.6-.3 1.1-.3 1.2s.4.1 1.1.1c2.1-.2 4.1-1.5 5.2-3.3 2.4-4.1-.1-9.3-4.8-10.1-.8-.2-.9-.2-.8.2m-9.1 6.3s.3.3.6.6l.6.5-.5-.6c-.6-.6-.7-.7-.7-.5m1.6 3c0 .3 0 .5.1.3 0-.2 0-.4 0-.6-.1-.1-.1 0-.1.3m-5.3 8.4h.6c.2 0 0-.1-.3-.1s-.4 0-.3.1" fill="#ffc7ab"/><path d="m55.1 15.2c-1.8.7-3.1 1.3-3.1 1.4 0 .2 1.7 1.3 2.3 1.5.9.4 2.4.3 3.3-.2.9-.4 2.2-1.8 2.1-2.1s-3.9-.9-4.6-.6m7.1 2.1c-1.1 2.3-3.8 3.9-6.4 3.9-2.5 0-5.6-1.7-5.6-3.1 0-.2-.1-.4-.2-.4-.4 0-3.7 2.7-5 4.1-2.9 3.1-5.3 7.5-5.9 11l-.1.8.7-.4c2.5-1.3 5.3.2 5.7 3 .1.7 0 .8-.3 1.2-.9.9-2.4.3-2.4-.9 0-.5-.6-1.1-1.1-1.1-.6 0-1 .4-1.2 1.1-.1.6-.1.6.6.9.9.3 2 1.3 2.4 2.2.4.8.4 2.1 0 3-.4 1-1.4 1.9-2.4 2.3l-.7.3.7 1.4c.4.8 1.1 2 1.5 2.6.6 1 .9 1.2 1.4 1.3 1.1.2 4.3 1.3 6.7 2.3l2.3 1 2.3-1c3.9-1.6 8-2.8 11-3.2 1.9-.3 4.1.1 5.7.9l.6.3 1-1.3c5.3-7.1 5.7-16 1.1-23.4-.9-1.4-.9-1.6-.5-2.3.3-.5.3-.5-.6-1.5s-.9-1-1.3-.8c-.6.4-1.1.3-1.9-.3-1.6-1.3-4.2-2.9-5.8-3.7-.9-.4-1.7-.8-1.8-.8s-.4.2-.5.6m.6 15.6c-1.4.5-2.4 1.8-2.6 3.3-.1.7 0 .8.3 1.2.9.9 2.4.3 2.4-.9 0-.5.6-1.1 1.1-1.1.6 0 1 .4 1.2 1.1.1.6.1.6-.7 1-3.5 1.6-3.4 5.7.2 7.4 1.2.6 3.8.5 5 0s2.4-1.8 2.7-2.8c.6-2.1-1.2-4.5-3.7-5-.6-.1-.7-.2-.7-.5 0-.9-.4-1.9-1.2-2.7-1.2-1.1-2.6-1.5-4-1m-13.3 5.5c-1 .4-1.1 1.5-.1 2.4 1.1 1 1.7 1.3 3.4 1.3s2.3-.2 3.4-1.3c1-.9.9-2.1-.2-2.5-.6-.2-1-.1-1.9.6s-2 .6-2.9-.3c-.6-.4-1-.5-1.7-.2" fill="#fce7ca"/><path d="m58.6 8.6c-.5.7-.5 1.1.3 2 .6.7 1.3 1.9 1.3 2.2 0 .1-.8 0-1.7-.2-1.4-.3-2.4-.4-5.6-.4-3.4 0-4.2 0-5.8.4-9 2-16.1 7.2-19.7 14.6l-.8 1.7h-1.1c-2.8 0-6 1.8-7.6 4.4-2.4 3.7-1.7 9.1 1.5 12 1.9 1.8 4.5 2.7 7 2.6l1.3-.1.6 1.1c.3.6 1.1 1.6 1.6 2.3l1 1.3-.7.9c-1.8 2.3-3 6.3-3.3 11.3-.7 8.7 2.4 17.9 8 24.1.6.6 1.3 1.2 1.5 1.3.7.2 1.2-.1 1.4-.5.4-.8.2-1.2-1-2.6-3.8-4.3-6.4-10.2-7.1-16.4-.6-5.4.4-12.2 2.3-15 1.2-1.9 3.8-3.2 6-3.2 1.4 0 4.8.7 7.6 1.7 10.4 3.2 19.7 10 26.5 19.1.7.9 1.6 2.2 1.9 2.8l.7 1.1-.6 1.6c-4.1 11.9-14.9 18.3-25.9 15.5-1.7-.4-3.5-1.2-5.4-2.3-.9-.5-1.8-.9-2-.9-1 0-1.6 1.4-.9 2.2.5.5 3.1 2 4.8 2.7 2.6 1.1 4.7 1.5 7.8 1.6s5.3-.2 7.9-1c7.2-2.4 13.2-8.3 16-16 2.9-8 3.3-15.9 1.1-22.9-.6-1.8-1.1-2.9-2-4.1l-.7-.9 1-1.3c.5-.7 1.2-1.8 1.6-2.3l.6-1.1 1.3.1c1.6.1 3.7-.4 5.1-1.2 4.6-2.6 6.2-8.6 3.6-13.1-.6-1.1-2-2.6-3.1-3.3-1.3-.8-3.3-1.5-4.6-1.5h-1.3l-1-2.2c-1.3-2.7-2-3.5-2.8-3.5-1.2 0-1.6 1.3-.7 2.7 1.3 2 2.6 5 3 7.5.3 1.7.4 5.1.1 6.8-.6 3.5-2.2 7.1-4.6 10.1l-.5.6-1.1-.5c-1.7-.7-2.8-.9-4.6-.8-2.7.2-8.3 1.8-12.4 3.6l-1.6.8-1.6-.7c-4.3-1.9-9.7-3.4-12.5-3.6-1.8-.1-3.5.2-4.7.8-.4.2-.8.4-.8.4-.2 0-1.8-2.1-2.5-3.5-.9-1.5-1.6-3.3-2.2-5.2-.6-2.1-.8-6.4-.3-8.7.8-4.4 2.8-7.9 6.2-11.3 2.2-2.2 3.7-3.3 6.5-4.7 4.3-2.2 9.6-3.1 14.4-2.7 2.2.2 4.8.7 4.8.9 0 .4-1.1 1.6-1.8 2-1.7 1-3.6.9-5.1-.2-1.3-1-2-1.1-2.6-.2-.4.6-.3.9.3 1.7 1.8 2 5.4 2.5 8.1 1.3 1.2-.6 2.6-1.9 3.2-3 .2-.4.4-.8.4-.8.1-.1 3.7 1.7 4.9 2.5.7.4 1.7 1.2 2.3 1.7 1.3 1 1.9 1.2 2.6.5.7-.6.5-1.3-.4-2.2-1.8-1.6-6.5-4.4-8.1-4.9-.6-.1-.7-.4-.9-1.5-.2-1.2-.9-2.7-1.9-3.6-.7-.7-.9-.8-1.4-.8-.6-.1-.9 0-1.1.4m-34.3 23.1c-1.9.5-3.7 1.9-4.5 3.8-.5 1.1-.6 1.3-.6 2.9 0 1.5.1 1.9.5 2.7 1 2.1 3 3.6 5.2 4 1.7.3 1.7.2 1.3-1.3-.8-2.4-1-4.4-.9-7.5.1-1.5.2-3.3.3-3.8l.3-1h-.5c-.2 0-.7.1-1.1.2m55.7.8c.1.6.3 2.2.4 3.7.1 3-.2 5.3-.9 7.6-.5 1.6-.5 1.6 1.2 1.3 2.2-.4 4.3-1.9 5.2-4 .4-.9.5-1.2.5-2.7 0-1.6 0-1.8-.6-2.9-1-2.1-3.1-3.6-5.2-3.9l-.9-.1zm-40.1.7c-1.3.7-2.1 1.9-2.1 3.2 0 .6.1.9.5 1.2.9.7 1.8.3 2.1-.9.1-.7.6-1.2 1.3-1.2.6 0 1 .5 1.3 1.4.1.5.3.8.6.9.6.3.8.3 1.4-.2 1.1-.9.2-3.4-1.7-4.4-1-.4-2.6-.4-3.4 0m22.6 0c-1.3.7-2.2 2-2.2 3.3 0 .6.1.8.5 1.1.5.4.7.4 1.4.2.3-.1.5-.4.6-.9.3-.9.7-1.4 1.3-1.4s1.1.5 1.3 1.2c.2 1.2 1.2 1.6 2.1.9.4-.3.5-.5.5-1.1 0-1.3-.8-2.6-2.1-3.2-1-.5-2.7-.5-3.4-.1m-13.3 5.5c-.5.5-.5.8-.2 1.5.6 1.3 2.9 2.1 4.7 1.8 2.4-.5 3.9-2.5 2.5-3.4-.6-.4-1.1-.3-1.9.3-.6.5-.9.6-1.5.6-.7 0-1-.1-1.5-.6-.9-.7-1.5-.8-2.1-.2m15.9 13.8c-2.1.4-5.4 1.4-7.3 2.2-1.5.6-1.8.8-1.6.9.1.1 1.2.8 2.3 1.5 6 3.7 11.5 8.8 15.8 14.6.8 1 1.3 1.6 1.4 1.5.5-1.5.8-6.6.5-9.4-.2-2.1-1-5.6-1.6-6.9-1.2-2.7-4-4.6-6.9-4.5-.9-.1-1.9 0-2.6.1" fill="#050505"/></g></svg>