<svg enable-background="new 0 0 105.6 105.5" viewBox="0 0 105.6 105.5" xmlns="http://www.w3.org/2000/svg"><path d="m52.8 105.4c-29.1 0-52.7-23.6-52.7-52.7 0-29.1 23.6-52.7 52.7-52.7s52.7 23.6 52.7 52.7-23.6 52.7-52.7 52.7zm0-103.4c-28 0-50.7 22.7-50.7 50.7s22.7 50.7 50.7 50.7 50.7-22.7 50.7-50.7-22.7-50.7-50.7-50.7z" fill="#575756"/><g clip-rule="evenodd" fill-rule="evenodd"><path d="m38.1 38.7c-.6.5-.9.6-1.7.6-.8.1-1 0-1.7-.5-.4-.3-.8-.5-.8-.5s-.2.3-.3.6c-.3.6-.3 1-.3 4.2 0 3.5 0 3.5.6 3.6.8.1 2 .8 2.6 1.5.9 1.1 1 1.4 1 5.3.1 2.4.1 3.7.3 3.9.2.4 1 1.1 1.2 1.1.1 0 .3-.3.4-.6.3-.5.3-.9.3-3.5 0-3.3.1-4.4.7-5.2.5-.7 1.4-1.3 2.1-1.4.3 0 .8-.2 1-.4 1.2-.9 2.8-1.1 4.1-.6.8.3 2 1.3 2.5 2.2.3.6.3.9.4 4.3.1 3.5.1 3.7.4 4.2s1 1 1.2 1c0 0 .2-.3.4-.7.3-.7.3-1 .3-3.8 0-1.8.1-3.4.2-3.7.3-1.2 1.7-2.4 2.8-2.4.2 0 .7-.2 1-.4 2.1-1.5 5.2-.7 6.4 1.7.4.7.4.8.5 4.4.1 4 .1 4.2 1.1 4.7.6.3.7.2 1-.7.2-.6.2-1.4.2-4 0-3.2 0-3.2.4-4 .5-1 1.3-1.6 2.3-1.7.4-.1 1-.3 1.3-.5 1.7-1.1 4.4-.8 5.7.8 1 1.2 1.1 1.5 1.2 5.4.1 2.4.1 3.7.3 3.9.2.4 1 1.1 1.2 1.1.1 0 .3-.3.4-.6.2-.5.3-1 .3-3.6 0-1.7.1-3.4.2-3.8.3-1.3 1.3-2.4 2.5-2.6.5-.1.5-.1.5-.5 0-.3-.1-.4-.2-.4s-.4-.1-.5-.3c-.3-.3-.3-.3-.4-3.7-.2-3.9-.2-4-1.2-4.6-.8-.5-1.6-.4-2.6.3-.7.4-.9.6-1.7.6-.8.1-.9 0-1.8-.5-1.2-.8-1.9-.8-3.2 0-.8.6-.9.6-1.8.5-.7 0-1-.1-1.7-.6-1.1-.7-1.8-.7-2.9 0-1 .6-1.3.7-2.2.6-.5 0-.9-.2-1.5-.6-1.1-.7-1.8-.7-2.9 0-1 .6-1.3.7-2.2.6-.5 0-.9-.2-1.5-.6-1.1-.7-1.9-.7-3 0-.5.4-1 .6-1.5.6-.9.1-1.2 0-2.2-.6-1.1-.7-1.8-.7-2.9 0-.6.4-1 .6-1.5.6-.9.1-1.2 0-2.2-.6-.8-.8-1.5-.8-2.6-.1m-6.1 14.8h2.2c.6 0 .1-.1-1.1-.1-1.2.1-1.7.1-1.1.1m13.2 0h2.2c.6 0 .1-.1-1.1-.1-1.3.1-1.7.1-1.1.1m13 0h2.2c.6 0 .1-.1-1.1-.1-1.3.1-1.7.1-1.1.1m13.2 0h2.2c.6 0 .1-.1-1.1-.1-1.3.1-1.8.1-1.1.1m-34.3 24.7h31.6c8.7 0 1.5 0-15.8 0s-24.5 0-15.8 0" fill="#f27182"/><path d="m25.6 38.4c-1.2.7-1.2.2-1.2 10s-.1 9.3 1.2 10c1.1.6 2.2.2 2.9-1 .3-.6.3-.8.3-3.9 0-3.3 0-3.3.4-4.2.7-1.4 2-2.3 3.4-2.5.7-.1.7-.1.7-3.6 0-3.4 0-3.6.3-4.2.3-.7.3-.7-.2-.8-.6-.1-.9 0-2.5.9-.4.2-.9.4-1.2.4-.6 0-1.5-.4-2.1-.9-.5-.6-1.3-.6-2-.2m13.7-.3h.5c.1 0 0-.1-.3-.1-.2.1-.3.1-.2.1m6.6 0h.5c.1 0 0-.1-.3-.1-.2.1-.3.1-.2.1m6.6 0h.5c.1 0 0-.1-.3-.1-.2.1-.4.1-.2.1m6.6 0h.5c.1 0 0-.1-.3-.1s-.4.1-.2.1m6.5 0h.5c.1 0 0-.1-.3-.1-.2.1-.3.1-.2.1m6.6 0h.6c.1 0 0-.1-.3-.1-.4.1-.5.1-.3.1m6.5 0h.5c.1 0 0-.1-.3-.1-.3.1-.4.1-.2.1m-35.4 9.6c0 .1-.4.2-.7.2-1.4.2-2.5 1.3-2.7 2.8-.1.5-.1 2.2-.1 3.8 0 2.6 0 3-.3 3.5-.2.3-.2.6-.2.7.3.3 1.7-.2 2.1-.8.3-.4.3-.6.4-4 .1-3.3.1-3.6.4-4.3.2-.4.6-1 .9-1.3s.5-.5.4-.5-.1-.2-.2-.1m25.5.1c-.9.2-1.7.7-2.2 1.6-.4.7-.4.7-.5 4.3-.1 3.3-.1 3.6-.4 4.2-.3.5-.3.6-.1.7.3.1 1.2-.1 1.6-.4.8-.7.9-.9 1-4.8.1-3.4.1-3.6.4-4.2.2-.4.5-.8.7-1.1.2-.2.4-.4.3-.4s-.4.1-.8.1m-13.9.3c-.8.4-1.6 1.3-1.8 2.1-.1.4-.2 2-.2 3.8 0 2.8 0 3.2-.3 3.8-.4.9-.4.9.3.9.7-.1 1.2-.4 1.6-1 .3-.4.3-.7.4-4 .1-3.9.1-4.1 1-5.2.4-.5.4-.5 0-.5-.3-.2-.7 0-1 .1m26.1.1c-.8.4-1.5 1.4-1.7 2.3-.1.4-.2 2.1-.2 3.8 0 2.7 0 3.1-.3 3.7-.2.4-.3.7-.3.7 0 .2.9 0 1.5-.3 1.1-.6 1.2-.8 1.2-4.5 0-3 0-3.2.3-3.5.2-.2.4-.4.6-.4.3 0 .3-.1.3-1 0-1 0-1-.3-1-.3-.2-.8 0-1.1.2m-43.6 5.3c0 1.7 0 2.4 0 1.6 0-.9 0-2.3 0-3.1.1-.9 0-.2 0 1.5m39.4 0c0 1.7 0 2.4 0 1.6s0-2.3 0-3.1 0-.2 0 1.5m-41.6-1.3c0 .7 0 1 .1.7 0-.3 0-.9 0-1.3s-.1-.2-.1.6m39.4 0c0 .7 0 1 .1.7 0-.3 0-.9 0-1.3-.1-.4-.1-.2-.1.6m-43.7 0c0 .7 0 1 .1.6 0-.3 0-.9 0-1.2-.1-.3-.1-.1-.1.6m39.3 0c0 .7 0 1 .1.6 0-.3 0-.9 0-1.2-.1-.3-.1-.1-.1.6m-35 4.1c0 .4 0 .5.1.3 0-.2 0-.5 0-.7 0-.1-.1.1-.1.4m35 0c0 .4 0 .5.1.3 0-.2 0-.5 0-.7-.1-.1-.1.1-.1.4m-31.1 10.1h27.3c7.5 0 1.4 0-13.6 0s-21.2 0-13.7 0m.1 2.2h27.1c7.5 0 1.4 0-13.6 0s-21-.1-13.5 0m.4 7.4h26.2c7.2 0 1.3 0-13.1 0s-20.3 0-13.1 0" fill="#ed5469"/><path d="m52.9 27.6c-.1.3-.2 2.2-.2 4.4 0 3.8 0 3.8.6 3.9.3 0 .7.1.9.2s.3-.2.3-4.1c0-4.2 0-4.2-.4-4.5-.6-.6-1-.6-1.2.1" fill="#00d2fc"/><path d="m51.4 27.4c-.5.4-.5.4-.5 4.7 0 4.1 0 4.3.2 4.2.1-.1.6-.2 1-.3.7-.1.7-.1.7-4 0-4.1.1-4.9.6-5 .2 0-.1-.1-.6-.1-.8 0-1 .1-1.4.5m3.1 4.8c0 2.3 0 4.1.1 4.1s.1-1.8.1-4.1 0-4.1-.1-4.1-.1 1.8-.1 4.1" fill="#00c2fb"/><path d="m53.2 19.4c-.3.5-.3 1.8-.1 2.4.1.3.2.4.5.3.4-.2.7-.9.7-1.5 0-.4-.6-1.6-.8-1.6 0 0-.1.2-.3.4m8.2 32.8c0 .7 0 1 .1.7 0-.3 0-.9 0-1.3-.1-.4-.1-.2-.1.6m-17.4 0c0 .7 0 1 .1.6 0-.3 0-.9 0-1.2-.1-.3-.1-.1-.1.6m-10.7 8.8v5.3h23.2 23.2v-2.7-2.7l-1.1-.1c-2.3-.2-4-1.8-4.2-4.1-.1-.9-.1-.9-2.2-.9s-2.1 0-2.2 1c-.2 2.3-1.8 4-4.1 4.1-1.3.1-2.2-.2-3.2-1.1-.9-.8-1.4-1.9-1.6-3.1-.1-.9-.1-.9-2.2-.9s-2.1 0-2.1.8c0 1.6-.9 3.1-2.4 3.9-.6.3-.9.4-2 .4-1 0-1.4-.1-1.9-.3-1.5-.8-2.4-2.1-2.5-3.7-.1-1-.1-1-2.2-1s-2.1 0-2.2.9c-.2 1.7-1.1 3.1-2.6 3.8-1 .5-2.9.5-3.8 0-1.4-.8-2.4-2.2-2.5-3.8-.1-.9-.1-.9-1-.9h-.9v5.1m-7.2 10.8c0 1.8 0 2.5 0 1.6s0-2.4 0-3.3c0-.8 0-.1 0 1.7m54.3 0c0 1.8 0 2.5 0 1.6s0-2.4 0-3.3c0-.8 0-.1 0 1.7" fill="#ffb640"/><path d="m51.9 19.1c-.7.9-.8 1.2-.8 1.9.1.8 1.1 1.5 1.8 1.3.3-.1.3-.1.1-.7-.3-.7-.2-1.7.2-2.3.2-.3.2-.4-.1-.8-.2-.2-.4-.4-.4-.4s-.4.5-.8 1m-21 37.6c-.2 2.4-1.9 4-4.3 4.1l-1.1.1v2.7 2.7h3.9 3.9v-5.3-5.3h-1.1c-1.2 0-1.2 0-1.3 1m49 6.9c0 1.5 0 2.1 0 1.3s0-2 0-2.8 0-.1 0 1.5" fill="#ffa90f"/><path d="m52.4 14.2c-1.3 1.6-1.3 1.5-1.5 2.2-.2.6-.2.6.4-.1.6-.6.7-.7 1.4-.7.4 0 .8.1 1 .3.5.4 2.4 2.7 2.6 3.2.3.5.3.5.4-.1.2-.8-.1-2-.6-2.8s-2.5-3.1-2.7-3.1c0-.1-.5.4-1 1.1m-19.1 37c0 2.2 0 2.2 1 2.2s1 0 1-1.4c0-.9-.1-1.5-.2-1.8-.3-.5-1-1.2-1.4-1.2s-.4.1-.4 2.2m11.8-1.9c-.7.5-1 1.1-1 2.7v1.4h2.1 2.1l-.1-1.5c-.1-1.7-.3-2.2-1.2-2.7-.4-.3-1.4-.2-1.9.1m13.1 0c-.7.4-1 1.1-1 2.7l-.1 1.4h2.1 2.1v-1.5c0-1.7-.2-2.3-1-2.7-.6-.3-1.5-.2-2.1.1m13 .1c-.7.6-.9 1.2-.9 2.7v1.3h2.1 2.1v-1.3c0-1.5-.2-2.1-.9-2.7-.3-.3-.6-.4-1.2-.4s-.9.1-1.2.4m-37.9 22.9v3.7h23c22.8 0 23 0 23.2-.3.3-.3.3-.5.3-3.7v-3.4h-23.3-23.2zm-12 6.5c.2 1.3 1.1 2.4 2.4 3 1 .5 1 .5 13.9.5s12.9 0 13.3.4c.2.2.3.4.3.6s.1.3 1.5.3 1.5 0 1.5-.3c0-.1.2-.4.3-.6.3-.3.3-.3 12.9-.3 13.8 0 13.6 0 14.9-.9.9-.6 1.8-2.1 1.8-2.9 0-.3-.9-.3-31.5-.3-31.3 0-31.3 0-31.3.5" fill="#fee17d"/><path d="m51.2 13.9c-.8 1-1.6 2-1.8 2.3-.5.7-.7 1.9-.6 2.7.1.7.1.7.5 0 .2-.3.5-.9.8-1.2s.7-.9.8-1.3c.4-.8 2.3-3.4 2.6-3.4.1 0 0-.2-.3-.4-.2-.2-.5-.4-.5-.4s-.7.7-1.5 1.7m-18.6 35.1c-1.1.3-1.6 1.2-1.6 3.1 0 1.3 0 1.3 1.2 1.3h1.2v-2.3c0-1.2 0-2.3-.1-2.3-.2.1-.4.1-.7.2m-6.9 23c0 3.2 0 3.4.3 3.7s.5.3 3.8.3h3.5v-3.7-3.7h-3.8-3.8z" fill="#ffce65"/><path d="m51.7 9.9c-.6.3-4.3 4.8-4.7 5.8-1.1 2.4-.6 5.2 1.3 7.2.8.8 2.3 1.7 2.9 1.7.5 0 .4.3-.3.6-.9.2-1.5.8-1.9 1.7-.3.7-.3.8-.3 5.2 0 4.5 0 4.5-.6 4.2-.5-.2-.9-.3-1.9-.3-1.3 0-1.6.1-2.9 1-.4.2-.4.2-1.1-.2-1.7-1.2-3.4-1.1-5.5.2-.3.2-.4.2-.7 0-1.2-.8-1.7-.9-2.9-.9s-1.7.2-2.9.9c-.4.2-.4.2-.7 0-1.4-.9-1.6-1-2.9-1-1 0-1.4.1-1.9.3-.9.5-1.7 1.3-2.2 2.2-.4.8-.4.8-.4 9.7 0 4.9.1 9.1.1 9.4.1.3.3.9.6 1.3.5.7.5.7.5 8.9v8.2h-1.5c-1.6 0-2.1.1-2.6.8-.4.5-.4 1.9 0 3.2.7 2.1 2.2 3.6 4.4 4.3.9.3 1.2.3 14 .3 12.9 0 13.1 0 13.4-.3.4-.4.4-1 0-1.5-.3-.3-.3-.3-13.4-.4s-13.1-.1-13.9-.5c-1.3-.7-2.2-2-2.5-3.2-.1-.5-.1-.5 31.5-.5s31.6 0 31.5.5c-.2 1.3-1.2 2.6-2.5 3.2-.7.4-.7.4-13.9.5-13.1.1-13.1.1-13.4.4-.4.4-.4 1.1 0 1.5.3.3.5.3 13.4.3 12.8 0 13.1 0 14-.3 2.1-.7 3.6-2.2 4.4-4.3.4-1.2.4-2.6 0-3.2-.5-.7-1-.8-2.6-.8h-1.5v-8.2c0-7.9.1-8.2.3-8.5.2-.2.4-.6.6-1 .3-.7.3-.9.3-4.2 0-3.5 0-3.5-.4-3.8-.5-.4-1-.4-1.5.1-.3.3-.3.5-.4 3.7s-.1 3.4-.4 3.9c-.4.6-1.4 1-2.2.9-.7-.1-1.4-.9-1.6-1.6-.1-.3-.2-1.9-.2-3.7 0-3.6-.1-4-1.1-5.2-2-2.2-5.7-1.8-7.1 1-.3.7-.4.8-.4 4.3-.1 3.9-.1 4.2-1 4.8-.9.7-2.4.5-3-.5-.3-.4-.3-.6-.4-4-.1-3.5-.1-3.6-.5-4.4-.5-1-1.2-1.7-2.2-2.2-.9-.5-2.6-.5-3.6 0-.9.4-1.8 1.3-2.2 2.2-.3.6-.3 1-.4 4.3-.1 4-.1 4-1.1 4.7-.6.4-1.7.4-2.2 0-1-.7-1-.8-1.1-4.7-.1-3.6-.1-3.6-.5-4.4-1.3-2.6-4.6-3.2-6.8-1.3-1.3 1.2-1.4 1.6-1.5 5.8-.1 3.4-.1 3.6-.4 4-.4.6-1.4 1-2.1.9s-1.5-.8-1.7-1.6c-.1-.3-.2-1.9-.2-3.7 0-3.6-.1-4-1.1-5.2-.9-1-1.9-1.4-3.3-1.4-.9 0-1.2.1-1.7.3-1 .5-1.7 1.2-2.1 2.2-.4.9-.4.9-.4 4.2 0 3.1 0 3.3-.3 3.9-.6 1.2-1.7 1.6-2.9 1-1.2-.7-1.2-.2-1.2-10s-.1-9.3 1.2-10c.8-.4 1.6-.4 2.2.1s1.5.9 2.1.9c.3 0 .8-.2 1.2-.4 2.1-1.1 2.4-1.2 3.7-.3 1.2.8 2.2.8 3.2.1.7-.5 1.4-.8 1.8-.8.2 0 .6.2 1 .4 2.2 1.2 2.7 1.2 4.1.3 1.1-.8 1.8-.8 3.1 0 .8.5 1.1.6 1.8.6s.9-.1 1.7-.6c1.2-.8 1.9-.8 3.1 0 .7.5.9.6 1.7.6.7 0 1-.1 1.8-.6 1.3-.8 2-.8 3.1 0 1.4.9 1.9.9 4.1-.3.4-.2.8-.4 1-.4.4 0 1.1.3 1.8.8 1 .7 2 .7 3.3-.2.6-.5.9-.5 1.5-.5s.9.1 1.5.5c1.2.8 2.3.9 3.3.2.7-.5 1.4-.8 1.8-.8.6 0 1.6.6 1.9 1.2.2.4.3.9.3 3.7 0 3.1 0 3.2.3 3.5.5.6 1 .6 1.5.2.4-.4.4-.4.4-3.8s0-3.5-.4-4.3c-.4-.9-1.3-1.8-2.2-2.2-.5-.3-.9-.3-1.9-.3-1.3 0-1.5.1-2.9 1-.3.2-.4.2-.7 0-1.2-.8-1.7-.9-2.9-.9s-1.7.2-2.9.9c-.4.2-.4.2-.7 0-1.2-.7-1.7-.9-2.6-1-1.2-.1-2.2.2-3 .9-.5.4-.6.4-.9.2-1.3-.9-1.7-1-2.9-1-1 0-1.4.1-1.9.3-.6.3-.6.3-.6-4.2 0-4.4 0-4.5-.3-5.2-.4-.9-1-1.4-2-1.9-.8-.4-.8-.4-.1-.5 3.1-.8 5.1-3.9 4.7-7-.2-1.5-.8-2.5-3-5.1-1.1-1.3-2.2-2.4-2.4-2.5-.8-.6-1.8-.6-2.3-.3m-.7 4.1c-1.9 2.3-2.3 3-2.3 4.2 0 .9.1 1.5.3 1.5.1 0 .2-.2.3-.5.2-.6 2.4-3.2 2.9-3.4.9-.4 1.4-.1 2.9 1.6.6.8 1.2 1.6 1.3 1.9.2.6.3.6.5.1.2-.7.1-1.9-.2-2.6-.5-.8-3.7-4.8-4-4.8 0 0-.8.9-1.7 2m.9 5c-.4.5-.8 1-.8 1.2-.2.6.1 1.3.6 1.8.5.4.6.5 1.2.4 1.1-.1 1.9-1.2 1.6-2.1-.1-.4-1.5-2.1-1.7-2.1-.1 0-.5.3-.9.8m-.5 8.4c-.5.4-.5.4-.5 4.7 0 4.1 0 4.3.2 4.2 1-.4 2.2-.4 3.3 0 .2.1.3-.1.2-4.2 0-4.3 0-4.3-.5-4.7-.4-.4-.6-.4-1.4-.4-.7-.1-.9 0-1.3.4m-19.3 21.7c-1 .5-1.4 1.6-1.3 3.5 0 .8 0 .8 2.2.8h2.2v-1c0-.6 0-1.4-.1-1.8-.2-1.4-1.7-2.1-3-1.5m13 .1c-.9.6-1.1 1-1.1 2.8v1.6h2.2 2.2v-1.6c0-1.4 0-1.6-.3-2.1-.7-1-2.1-1.3-3-.7m13.2-.1c-.9.5-1.1.9-1.2 2.8v1.6h2.2 2.2v-1.4c0-1.1-.1-1.5-.3-2-.5-1.1-1.8-1.5-2.9-1m13 .1c-.9.6-1.1 1.1-1.1 2.8v1.5h2.2 2.2v-1.5c0-1.2-.1-1.5-.3-2-.4-.7-1.1-1.2-1.9-1.2-.4.1-.8.2-1.1.4m-40.4 7.4c-.1 1.2-.4 2-1.1 2.7-.8 1-2 1.5-3.2 1.5h-1v2.8 2.8h27.2 27.2v-2.8-2.8h-1c-2.3 0-3.9-1.5-4.3-4-.2-1-.2-1-2.3-1-2.2 0-2.2 0-2.2.8 0 1.7-.9 3.1-2.4 3.9-1.1.5-2.5.6-3.6.1-1.5-.7-2.6-2.4-2.6-4 0-.7 0-.7-2.2-.7s-2.2 0-2.3.9c-.2 2.4-2.1 4.1-4.3 4.1-2.3 0-4.1-1.8-4.3-4.2-.1-.9-.1-.9-2.2-.9-2.2 0-2.2 0-2.2 1-.2 2.4-1.9 4.1-4.3 4-1.8 0-3.1-.9-3.9-2.5-.3-.6-.4-1.1-.4-1.7 0-.8 0-.8-2.2-.8-2.3-.1-2.3-.1-2.4.8m-5.3 12c-.1.1-.1 1.6-.1 3.4 0 3.2 0 3.3.4 3.7.3.3.3.3 26.8.3s26.5 0 26.8-.4c.4-.4.4-.4.3-3.7v-3.3h-27.1c-14.8-.1-27-.1-27.1 0"/></g></svg>