<svg enable-background="new 0 0 105.6 105.5" viewBox="0 0 105.6 105.5" xmlns="http://www.w3.org/2000/svg"><path d="m52.8 105.4c-29.1 0-52.7-23.6-52.7-52.7 0-29.1 23.6-52.7 52.7-52.7s52.7 23.6 52.7 52.7-23.6 52.7-52.7 52.7zm0-103.4c-28 0-50.7 22.7-50.7 50.7s22.7 50.7 50.7 50.7 50.7-22.7 50.7-50.7-22.7-50.7-50.7-50.7z" fill="#575756"/><g clip-rule="evenodd" fill-rule="evenodd"><path d="m78.6 65.6c.5.7.9 1.7 1 2.4.1.4.2.8.3 1 .3.4.3.9 0 1.3-.2.2-.2 1.3-.3 6.2 0 6.5 0 6.4-1 7.6l-.4.6 2.2-.1c1.8 0 2.3-.1 2.7-.3.7-.4 1.1-.8 1.5-1.5.3-.6.3-.7.4-7.6 0-7.8 0-8.1-.9-9s-1.3-1-3.7-1h-2.1zm-28.3 9c0 2.9 0 4.1 0 2.7s0-3.8 0-5.2c0-1.6 0-.4 0 2.5m11-2.9c0 1.3 0 1.9 0 1.2s0-1.7 0-2.4c0-.6 0-.1 0 1.2m-8.4-1h.9c.3 0 0-.1-.5-.1s-.7.1-.4.1m11 0h.9c.3 0 0-.1-.5-.1-.4 0-.6.1-.4.1m-27.3 7.8s.2.2.5.5l.5.4-.4-.5c-.5-.5-.6-.6-.6-.4" fill="#fb4455"/><path d="m22.5 65.5c-.7.3-1.3.9-1.6 1.6-.3.6-.3.7-.3 7.8v7.2l.3.7c.4.9 1.2 1.5 2.2 1.7.5.1 5.1.2 14.1.2 14.5 0 13.8 0 14.1.8.1.4.1.4 1.5.4 1.2 0 1.4 0 1.4-.3 0-.1.2-.4.3-.6l.3-.3h11.7 11.7l.4-.5c.2-.3.5-.8.7-1.1.3-.6.3-.9.3-6.5v-5.9l-1.4 2.1-1.2 2.1v2.6c0 2.5 0 2.6-.4 2.9-.4.4-.9.5-1.4.1l-.4-.3v-2.6-2.6l-1.6-2.4c-.9-1.3-1.6-2.6-1.7-2.7-.1-.4.3-1.2.7-1.3.8-.2 1 0 2.3 1.9.6 1 1.2 1.8 1.3 1.9s.6-.7 1.3-1.7 1.3-1.9 1.5-2 .5-.1.7-.1l.4.1-.1-.7c-.1-.7-.5-1.5-1-2.2l-.3-.4h-27.7c-24.3-.2-27.6-.1-28.1.1m5.3 3.2c-.5.2-1 .5-1.3.9-.9 1-1.1 2.2-.5 3.5.4.9.9 1.3 3.2 2.2 1 .4 1.9.8 2.1 1 .8.8.1 1.9-1.3 2-1 .1-1.7-.1-2.6-.9-.9-.7-1.4-.7-1.9-.2-.6.6-.4 1.4.7 2.2 1 .8 2 1.1 3.5 1.1s2.3-.3 3.2-1.3c1-1 1.3-2.4.7-3.7-.5-1.2-1.2-1.6-3.9-2.7-.8-.3-1.6-.7-1.6-.8-.2-.4-.1-1 .3-1.2.6-.5 1.8-.4 3 .2 1 .5 1.1.5 1.4.3.2-.1.5-.4.6-.6.4-.8-.1-1.3-1.6-2-1.2-.3-2.9-.4-4 0m11.8 0c-1.7.5-3 1.7-3.8 3.4-.5 1.1-.6 3-.3 4.2.4 1.2 1.2 2.4 2.2 3.2 1.2.9 2.1 1.2 3.8 1.2 1.3 0 1.5 0 2.5-.5 1.4-.7 2.3-1.6 3-3 .5-1 .5-1.2.5-2.5 0-1.6-.3-2.5-1.1-3.7-1.5-2.1-4.4-3.1-6.8-2.3m11 0c-.2.2-.3.5-.4.8 0 .3-.1 2.7 0 5.5v5l.4.3c.5.4 1 .4 1.4.1.3-.3.3-.4.4-2.1l.1-1.8 1.6 1.8c2 2.3 2.2 2.4 2.7 2.4s1-.4 1.1-.9c.1-.4-.1-.8-1.5-2.3-1.6-1.7-1.5-1.6-.9-1.9.7-.3 1.7-1.2 2-1.8.7-1.4.4-3.1-.7-4.2-1-1-1.6-1.2-4-1.2-1.7 0-1.9 0-2.2.3m11.1-.1c-.5.4-.6.9-.5 6.3l.1 5.3.4.3c.5.4.9.4 1.4 0 .3-.3.3-.4.4-2.1l.1-1.9 1.8 2c1 1.1 1.9 2.1 2.1 2.2.8.3 1.7-.5 1.5-1.3 0-.2-.6-.9-1.3-1.7-1.8-2-1.7-1.8-1.1-2.1.7-.3 1.7-1.2 2-1.9 1-1.9-.1-4.4-2.1-5.1-.9-.2-4.4-.3-4.8 0m-22 2.5c-1.3.7-2.1 1.9-2.1 3.5 0 2.1 1.5 3.7 3.7 3.8 2.3.1 4.2-1.7 4-4.1-.1-1.1-.4-1.8-1.1-2.5-.8-.8-1.4-1-2.7-1.1-.9 0-1.2.1-1.8.4m12.8 1.1v1.4h.9c1.8 0 2.6-.9 2.1-2.1-.3-.6-.8-.8-2-.8h-1zm11 0v1.5l1.2-.1c1.1-.1 1.2-.1 1.6-.5.6-.7.5-1.5-.2-2.1-.2-.2-.6-.3-1.4-.3h-1.1v1.5" fill="#ff646f"/><path d="m49.8 14.9h.5c.1 0 0-.1-.3-.1-.2.1-.3.1-.2.1m4.2 0h.5c.1 0 0-.1-.3-.1-.2.1-.3.1-.2.1m-9.1 7.4h.5c.1 0 0-.1-.3-.1s-.4.1-.2.1m13.7 0h.5c.1 0 0-.1-.3-.1-.2.1-.3.1-.2.1m13.3.1s.5.5 1.1 1.1l1.1 1.1-1.1-1.1c-.9-1-1.1-1.2-1.1-1.1m-27.2 2.2c-.2.1-.6.4-.8.8-.9 1.4-2.3 2.4-3.9 2.6-1 .2-1.6.1-2.8-.3-1.1-.4-1.6-.3-1.9.4-.5 1 .2 1.7 2.4 2.2 1.8.4 3.8 0 5.5-1 1.4-.9 3.1-3 3-3.8s-.8-1.2-1.5-.9m13.8-.1c-.4.2-.8.7-.8 1.2s1.2 2.3 2 2.8c1.7 1.3 3 1.8 5 1.8 1.6 0 3.2-.4 3.8-1 .5-.5.4-1.2-.1-1.6s-.8-.4-1.5-.1c-2.4 1-5.3.2-6.7-2-.6-1-1.1-1.3-1.7-1.1m-10.1 1.1c0 .4 0 .5.1.3 0-.2 0-.5 0-.7s-.1 0-.1.4m-9.5.4h.7c.2 0 0-.1-.3-.1s-.6 0-.4.1m25.6 0h.7c.2 0 0-.1-.3-.1-.4 0-.6 0-.4.1m6.4 2.6c0 .3 0 .4.1.3 0-.1 0-.4 0-.5 0-.2-.1-.1-.1.2m-24.8 1.1c-.4.4-.6.7-.6.7s.4-.3.7-.7c.4-.4.6-.7.6-.7s-.3.3-.7.7m-7.8 2.9h.6c.1 0 0-.1-.3-.1-.4 0-.5.1-.3.1m1.2 0h.5c.1 0 0-.1-.3-.1s-.3.1-.2.1m24.4 0h.6c.1 0 0-.1-.3-.1-.4 0-.5.1-.3.1m1.2 0h.6c.1 0 0-.1-.3-.1-.4 0-.5.1-.3.1m3.8 4.7c.3.3.6.6.6.6s-.2-.3-.5-.6-.6-.6-.6-.6.2.3.5.6m-28.3-.3h.7c.2 0 0-.1-.3-.1-.4 0-.6 0-.4.1m22.1 0h.7c.2 0 0-.1-.4-.1s-.5 0-.3.1m-17.4 1.8c.4.4.7.7.7.7.1 0-.1-.2-.7-.7l-.6-.7zm22.1 0c.3.3.5.5.6.5s-.1-.2-.4-.5-.6-.5-.6-.5.2.2.4.5m-26.7.8h.5c.1 0 0-.1-.3-.1s-.4 0-.2.1m40.8 2.5c0 .3 0 .4.1.3 0-.1 0-.4 0-.5-.1-.2-.1-.1-.1.2m-41.6.1c-1.2 1.2.3 3.1 1.8 2.2 1.3-.8.8-2.7-.7-2.7-.5.1-.8.2-1.1.5m22.1 0c-.4.4-.5 1.2-.2 1.8.2.4 1 .8 1.5.7.6-.1 1.2-.8 1.2-1.3s-.4-1.2-.7-1.4c-.5-.4-1.4-.3-1.8.2m-39.3 2c0 1 0 1.3.1.8 0-.5 0-1.3 0-1.7 0-.5-.1-.1-.1.9m34.1-1c0 .4 0 .6.1.4s0-.6 0-.8c-.1-.2-.1 0-.1.4m-2.2 0c0 .3 0 .4.1.3 0-.2 0-.4 0-.6-.1-.2-.1-.1-.1.3m-20 0c0 .3 0 .4.1.3 0-.1 0-.4 0-.5-.1-.2-.1-.1-.1.2m46.9 3.1c0 .3 0 .4.1.3 0-.2 0-.4 0-.6-.1-.1-.1 0-.1.3m-23.3.9s.2.2.5.5l.5.4-.4-.5c-.5-.4-.6-.5-.6-.4m-1.2 1.9c.3.3.5.5.6.5 0 0-.1-.2-.4-.5s-.5-.5-.6-.5.1.2.4.5m-16.9 2.5h.5c.1 0 0-.1-.3-.1s-.3 0-.2.1m1.2 0h.5c.1 0 0-.1-.3-.1s-.4 0-.2.1m20.9 0h.5c.1 0 0-.1-.3-.1-.2 0-.3 0-.2.1m1.2 0h.5c.1 0 0-.1-.3-.1-.2 0-.3 0-.2.1m-12.3 3.5h.8c.2 0 0-.1-.4-.1s-.6 0-.4.1m-.1 2.1h1.1c.3 0 .1-.1-.5-.1-.7.1-.9.1-.6.1m-10.1 5.8h22.7c6.2 0 1.1 0-11.3 0s-17.6 0-11.4 0m-2.9 2.2h29.6c8.1 0 1.5 0-14.8 0s-22.9 0-14.8 0m-11.5 4.4-.4.5.4-.5c.3-.2.5-.4.5-.4 0-.1-.1 0-.5.4m-.9 2.2c0 .3 0 .4.1.3 0-.2 0-.4 0-.6s-.1 0-.1.3m27.6 1.9h.7c.2 0 0-.1-.3-.1-.4.1-.6.1-.4.1m11 0h.7c.2 0 0-.1-.3-.1-.4.1-.6.1-.4.1m-16.7.9c0 .5 0 .7.1.4 0-.3 0-.7 0-.9-.1-.2-.1 0-.1.5m-13.8 2.4c0 .3 0 .4.1.3 0-.2 0-.4 0-.6 0-.1-.1 0-.1.3m-4.4 1.5h.7c.2 0 0-.1-.3-.1-.4 0-.6.1-.4.1m-.1 2.2h.7c.2 0 0-.1-.4-.1-.3 0-.5 0-.3.1m11.8 0h.8c.2 0 0-.1-.4-.1-.5 0-.7 0-.4.1" fill="#554e56"/><path d="m43.2 38c.9.9 1.6 2.2 1.9 3.3.2.9.2 2.7 0 3.6-.4 1.5-1.5 3.1-2.8 4.1l-.4.3.4-.1c.9-.2 2.3-.9 3-1.7 1.9-1.9 2.3-4.7 1.1-7.1-.5-1-1.7-2.2-2.7-2.7-1.3-.7-1.4-.6-.5.3m22.1-.1c2.3 2.3 2.8 5.8 1.3 8.7-.3.5-.9 1.2-1.5 1.8-.9.8-.9.9-.6.9.9-.2 2.3-1 3-1.7.8-.8 1.5-2.2 1.7-3.4.4-2.4-.9-5.2-3.2-6.4-1.4-.8-1.6-.8-.7.1m-6.7.9-.5.5.5-.5c.3-.2.6-.5.6-.5 0-.1-.2 0-.6.5m-15.5 1.4s.2.2.5.5l.5.4-.4-.5c-.5-.4-.6-.5-.6-.4m-5.9 3c0 .3 0 .4.1.3s0-.4 0-.6c-.1-.2-.1-.1-.1.3m3.5 6.2h.5c.1 0 0-.1-.3-.1s-.4.1-.2.1m22.1 0h.6c.1 0 0-.1-.3-.1-.4 0-.5.1-.3.1" fill="#d7d0d6"/><path d="m39.3 37.2c-2.8.8-4.8 3.6-4.6 6.4.3 3.2 2.9 5.7 6.1 5.7.9 0 1.1 0 1.7-.5 1.2-.8 2.2-2.5 2.6-4.1.3-1.2.1-3.2-.3-4.3s-1.3-2.3-2.1-2.9c-.4-.3-.7-.4-1.6-.4-.6-.1-1.3 0-1.8.1m22.2 0c-2.9.8-4.9 3.5-4.6 6.4.3 3.2 2.9 5.7 6.1 5.7h1.1l1-1c1.1-1.1 1.9-2.4 2.2-3.8.2-1.1.1-2.9-.3-4s-1.3-2.5-2.1-3c-.5-.4-.7-.5-1.6-.5-.6 0-1.3.1-1.8.2m-21.6 2.4c-.7.2-1.3.6-1.8 1.2-2 2.2-.5 5.9 2.4 6.1 1.3.1 2-.2 2.9-.9 1.6-1.5 1.6-4 0-5.5-1-.9-2.4-1.2-3.5-.9m22.2 0c-2 .6-3.2 2.8-2.5 4.7.6 1.9 2.7 3 4.8 2.3.7-.2 1.8-1.1 2.1-1.9.7-1.4.2-3.5-1-4.4-1-.7-2.4-1-3.4-.7" fill="#e5e1e5"/><path d="m51 14.9h.7c.2 0 0-.1-.4-.1-.4.1-.6.1-.3.1m1.7 0h.8c.2 0 0-.1-.4-.1-.4.1-.6.1-.4.1m4.4.6c2.5.9 5.8 2.6 8.1 4.3 1.9 1.4 4.8 4.3 6.2 6.1 3.2 4.3 5.1 9 5.9 14.2.3 1.9.3 5.8.1 7.7-.6 5.1-2.5 10-5.4 14l-.8 1.1h1.9 1.9l.5-.5c.9-1 2.5-3.6 3.3-5.3 4.3-8.9 4-19-1-27.7-.9-1.6-1-1.8-.9-2.2.1-.2.2-.5.3-.5.1-.1-.2-.5-.6-1.1l-.8-1-.7.1-.7.1-1.4-1.4c-.8-.8-1.9-1.8-2.5-2.3-3.2-2.5-7.5-4.6-11.6-5.5-1.8-.3-2.6-.4-1.8-.1m-25.8 8.1-.9.9.9-.9c.9-.8 1-.9.9-.9 0 0-.4.4-.9.9m15.7-.7s.2.2.5.5l.5.4-.4-.5c-.5-.5-.6-.6-.6-.4m10.3 6.5s.2.2.5.5l.5.4-.4-.5c-.5-.4-.6-.5-.6-.4m-.3 7.8c-.4.4-.6.7-.6.7s.4-.3.7-.7c.4-.4.6-.7.6-.7 0 .1-.3.4-.7.7m-22.2.1-.5.5.5-.5c.5-.4.7-.5.5-.5.1-.1-.2.2-.5.5m-2.4 5.9c0 .5 0 .7.1.4 0-.3 0-.7 0-.9s-.1 0-.1.5m17 0c0 .3 0 .4.1.3 0-.1 0-.4 0-.5-.1-.2-.1-.1-.1.2m19.5 6-.6.6.6-.6c.6-.5.7-.6.6-.6 0 0-.2.3-.6.6" fill="#feb237"/><path d="m50.3 15c-9.5.6-18.3 5.9-23.3 14.3-6 10.1-5.4 22.9 1.7 32.4l.9 1.2h20.7 20.7l.4-.5c1.6-2 3.6-5.8 4.5-8.6 1.1-3.3 1.5-6 1.5-9.7 0-6.7-2.1-12.8-6.1-18.2-1.3-1.8-4.3-4.7-6.2-6.1-2.5-1.8-5.4-3.4-8.1-4.3-.7-.2-1.5-.4-2.5-.4-.8 0-1.7-.1-2-.1-.2-.1-1.3-.1-2.2 0m-6.2 7.4c-.8.2-1.5.8-2.1 1.7-.5.8-.8 1-1.4 1.4-.9.5-1.7.5-2.7.1-2.4-.9-4.7.4-4.9 2.8-.1.8 0 1 .3 1.7.5 1 1.1 1.5 2.7 2 3.4 1.2 7.3.3 9.9-2.1 1.1-1 2.1-2.4 2.4-3.3.4-1.1 0-2.8-.9-3.6-.8-.7-2.2-1.1-3.3-.7m13.6 0c-2 .7-2.8 3-1.8 5 1 1.9 2.6 3.4 4.6 4.4 2.6 1.2 6 1.2 8.4 0 2.1-1.1 2.7-3.6 1.2-5.3-1-1.1-2.5-1.5-4.1-.8-1.6.6-3.1.1-4.1-1.4-1-1.8-2.6-2.4-4.2-1.9m-18.1 12.4c-.7.1-2.3.7-2.8 1-1.9 1.1-3.2 2.6-3.9 4.7-.4 1.1-.4 1.5-.4 2.7 0 2.4.7 4.2 2.4 5.9 2.7 2.7 6.6 3.3 9.9 1.6 5.1-2.7 6.1-9.4 2.1-13.5-1.8-1.8-4.8-2.8-7.3-2.4m21.6.1c-3.8.8-6.7 4.4-6.7 8.3 0 3.8 2.8 7.4 6.5 8.2 1.1.3 2.7.3 3.8.1.4-.1 1.3-.4 2-.7 2.1-1 3.8-3.1 4.4-5.4.3-1 .3-2.9.1-4-.5-2.3-2.4-4.7-4.5-5.7-1.8-1-3.7-1.2-5.6-.8m-11.8 20.3c-1.7.3-3.6 1.2-4.6 2.1-.6.6-.6 1.3-.1 1.7s1.1.4 1.7-.1c.3-.2.9-.6 1.3-.8 2.7-1.4 6.3-1.1 8.8.8.6.5 1.1.5 1.7.1.6-.5.5-1.2-.2-1.8s-2.6-1.6-3.7-1.9c-1.2-.3-3.7-.4-4.9-.1" fill="#ffc344"/><path d="m47.9 12.9c-7.6 1-15 5-19.9 10.9-5.5 6.5-8.1 14.9-7.3 23.2.5 5 2.3 10.3 5 14.3.5.8 1 1.5 1 1.5s-.9.1-2.1.1c-1.9.1-2.1.1-2.9.4-1.1.5-2.2 1.6-2.8 2.6l-.5.9v8 8l.4.8c.5 1.1 1.5 2.1 2.7 2.7l.9.4h14.1c9.9 0 14.2 0 14.4-.1.4-.2.6-.7.4-1.2-.3-.9.5-.8-14.4-.8-13 0-13.7 0-14.3-.3-.3-.1-.8-.5-1-.8-.9-1-.9-.8-.9-8.6 0-4.9.1-7.2.2-7.6.2-.7.9-1.5 1.6-1.9l.6-.3h29.6c19.5 0 29.8 0 30.1.1.9.2 1.7.9 2.1 1.8l.3.8v7.1c0 7.9 0 7.7-.9 8.7-.3.3-.7.6-1 .8-.6.3-1.2.3-14.3.3-10.8 0-13.8 0-14.1.2-.2.1-.4.4-.5.7-.1.5-.1.6.2.9l.3.4h14.3 14.3l.8-.4c1.1-.5 2.1-1.5 2.7-2.7l.4-.9v-8-8l-.4-.8c-.5-1-1.7-2.2-2.8-2.7-.8-.4-1-.4-3.5-.4l-2.7-.1.8-1.3c2.3-3.5 4-7.6 4.8-12 .4-2 .5-6.7.3-8.9-.5-4.3-1.9-8.5-4-12.2-1-1.8-1.3-2.1-1.9-2.1-.5 0-1.1.5-1.1 1 0 .2.5 1.1 1 2.1 3.6 6.2 4.8 13.6 3.3 20.7-.8 4.1-3.1 8.9-5.6 12.1l-.6.8h-22.8-22.6l-.4-.4c-.7-.7-2.7-3.8-3.4-5.2-5.8-11.6-3.5-25.3 5.8-34.3 5.6-5.4 12.7-8.3 20.5-8.3 7.9 0 15 2.9 21 8.7 1.2 1.2 1.5 1.3 2.1 1 .4-.2.5-.4.5-.9 0-.3-.2-.6-.9-1.4-4.9-5.1-11.8-8.6-19.1-9.4-1.6-.3-6-.2-7.8 0m-4.4 9.9c-.6.3-.9.6-1.4 1.4-1 1.6-2.5 2.2-4 1.7-1.3-.5-1.8-.5-2.5-.4-2.4.5-3.4 3.3-1.9 5.2 1.2 1.6 5 2.3 8 1.6 1.8-.5 3-1.2 4.4-2.6 1.5-1.6 2.2-2.7 2.2-3.9 0-.5-.1-1.1-.2-1.3-.7-1.9-2.8-2.6-4.6-1.7m14-.2c-1.2.6-2.1 2.2-1.9 3.5.3 1.9 2.5 4.3 4.9 5.5 1.5.7 2.6 1 4.2 1 3.8 0 6.2-1.5 6.2-3.9 0-1.3-.6-2.4-1.8-2.9-.9-.5-1.6-.5-2.9-.1s-2 .4-3-.1c-.6-.3-1-.7-1.5-1.5-.8-1.5-2.6-2.2-4.2-1.5m-12.8 2c-.2.1-.6.4-.8.8-.9 1.4-2.3 2.4-3.9 2.6-1 .2-1.6.1-2.8-.3-1.1-.4-1.6-.3-1.9.4-.5 1 .2 1.7 2.4 2.2 1.8.4 3.8 0 5.5-1 1.4-.9 3.1-3 3-3.8s-.8-1.2-1.5-.9m13.8-.1c-.4.2-.8.7-.8 1.2s1.2 2.3 2 2.8c1.7 1.3 3 1.8 5 1.8 1.6 0 3.2-.4 3.8-1 .5-.5.4-1.2-.1-1.6s-.8-.4-1.5-.1c-2.4 1-5.3.2-6.7-2-.6-1-1.1-1.3-1.7-1.1m-19.7 10.6c-3.5.9-5.9 3.9-6.2 7.5-.2 2.1.7 4.6 2.1 6.2 4 4.3 11.1 3.4 13.7-1.9 2.2-4.5 0-10-4.8-11.7-1.3-.4-3.4-.5-4.8-.1m22.5-.1c-1.3.2-3 1.2-4.1 2.3-2.2 2.2-2.9 5.1-2.2 8.1.4 1.5 1 2.5 2.2 3.8 1.6 1.6 3.5 2.4 5.9 2.4 4.7 0 8.3-3.6 8.3-8.3 0-5.4-4.8-9.3-10.1-8.3m-21.7 2c-.4.1-1.1.3-1.5.5-1 .5-2.4 1.9-2.9 2.9-1.5 3.1-.2 6.8 3 8.3 2.4 1.1 5 .7 7-1.1 1.5-1.4 2-2.8 1.9-4.8-.1-1.2-.1-1.5-.6-2.4-.9-1.8-2.5-3-4.5-3.4-1-.2-1.3-.2-2.4 0m21.9.1c-1.2.3-2.1.8-3 1.8-1.4 1.4-2 3.4-1.6 5.3.5 2.4 2.2 4.4 4.6 5 2.3.6 4.6-.1 6.2-1.8 2.9-3.1 1.9-8.1-2-9.9-.8-.4-2-.7-2.8-.6-.3 0-.9.1-1.4.2m-22 2.8c-1.4.6-2.1 1.7-2.1 3.2s.7 2.7 2.1 3.3c2.7 1.2 5.7-1.4 4.9-4.3-.7-2-3-3.1-4.9-2.2m22.3-.1c-.8.3-1.9 1.5-2.2 2.3-.3 1-.1 2.2.4 3s1.6 1.5 2.5 1.6c1.9.3 3.7-1 4.1-2.8.2-1 .1-1.7-.5-2.6-.6-1.1-1.5-1.6-2.8-1.6-.6-.1-1.2 0-1.5.1m-21.9 2.4c-1.2 1.2.3 3.1 1.8 2.2 1.3-.8.8-2.7-.7-2.7-.5.1-.8.2-1.1.5m22.1 0c-.4.4-.5 1.2-.2 1.8.2.4 1 .8 1.5.7.6-.1 1.2-.8 1.2-1.3s-.4-1.2-.7-1.4c-.5-.4-1.4-.3-1.8.2m-12.9 13.1c-1.2.3-3.4 1.3-4.1 1.9-.8.8-.5 1.9.5 1.9.2 0 .8-.2 1.3-.6 2.9-1.9 6.7-1.9 9.5 0 1.3.9 2.2.7 2.2-.5 0-.5-.1-.6-.7-1-1-.7-2.7-1.5-3.9-1.7-1.4-.3-3.5-.3-4.8 0m-20.2 13.2c-1 .2-1.7.5-2.3 1.1-.7.8-.9 1.2-.9 2.2 0 .9.3 1.7.9 2.2.2.2 1.2.7 2.3 1.1 2.7 1.1 3.3 1.8 2.3 2.8-.9.9-2.5.8-3.9-.2-1.1-.9-2.1-.7-2.1.4 0 .6.2.9 1 1.4 1 .8 2.2 1.1 3.5 1.1 1.7 0 2.9-.6 3.7-1.9.7-1.2.5-2.8-.4-3.8-.5-.6-1.3-1-3.1-1.7-1.7-.7-2-.9-2-1.4 0-1.2 1.9-1.6 3.6-.7.9.5 1.3.5 1.8.1.6-.6.4-1.3-.6-1.9-1.3-.6-2.8-.9-3.8-.8m11.6.1c-3.2.4-5.6 3.7-5 6.8.3 2.1 1.5 3.6 3.3 4.5 1.1.5 1.1.5 2.7.5 1.5 0 1.7 0 2.6-.5 1.3-.6 2.3-1.6 2.9-2.9.4-.9.5-1.1.5-2.6 0-1.4 0-1.7-.4-2.5-1.3-2.4-3.8-3.7-6.6-3.3m10.2.2-.4.4v5.4c0 5.2 0 5.4.3 5.7.4.4 1.2.4 1.5 0 .2-.3.3-.6.3-2.1l.1-1.8 1.9 2.1c1.7 1.9 1.9 2.1 2.4 2.1.6 0 1.1-.4 1.1-1 0-.3-.3-.8-1.4-2.1-.8-.9-1.4-1.7-1.4-1.7s.2-.2.5-.3c2-.7 3-3 2.1-4.9-.4-.9-1-1.4-1.9-1.8-.6-.3-1.1-.3-2.6-.4-2.1 0-2.1 0-2.5.4m11 0-.4.4v5.3c0 6.1 0 6.1 1.1 6.1.8 0 1-.4 1.1-2.4l.1-1.8 1.9 2.1c1.8 2 1.9 2.1 2.4 2.1.4 0 .6-.1.8-.3.5-.7.3-1-1.2-2.7-.8-.9-1.4-1.7-1.5-1.7 0-.1.2-.2.5-.3 1.9-.7 2.8-2.6 2.2-4.6-.2-.8-1.4-2-2.2-2.2-.3-.1-1.4-.2-2.5-.3-1.9-.1-1.9-.1-2.3.3m10.5-.2c-.4.1-.6.6-.6 1 0 .2.7 1.4 1.6 2.7l1.6 2.5v2.5c0 3 .1 3.3 1.1 3.3.3 0 .5-.1.8-.4.3-.4.3-.6.3-2.9v-2.6l1.6-2.4c.9-1.3 1.6-2.5 1.6-2.7 0-.3-.3-.8-.5-.9-.3-.2-1.1-.1-1.3.2-.2.2-.8 1.1-1.3 2-.6.9-1.1 1.6-1.1 1.6s-.6-.8-1.2-1.8-1.3-1.9-1.4-1.9c-.4-.3-.8-.4-1.2-.2m-31.9 2.1c-1.1.3-2.2 1.4-2.7 2.5-.3.9-.2 2.2.2 3.1.6 1.2 2.2 2.2 3.6 2.2 2.1 0 4-1.9 4-4s-1.9-4-4-4c-.4.1-.9.2-1.1.2m12.2 1.4v1.5l.4.1c.6.1 1.8-.1 2.2-.4.5-.4.7-1.1.5-1.6-.1-.2-.3-.5-.5-.7-.3-.3-.6-.4-1.5-.4l-1.1-.1zm11 0v1.5l.4.1c.6.1 1.7 0 2.1-.3.5-.3.8-1 .7-1.5 0-.2-.3-.6-.5-.8-.4-.4-.6-.4-1.6-.5l-1.1-.1z"/></g></svg>