<svg enable-background="new 0 0 105.6 105.5" viewBox="0 0 105.6 105.5" xmlns="http://www.w3.org/2000/svg"><path d="m52.8 105.4c-29.1 0-52.7-23.6-52.7-52.7 0-29.1 23.6-52.7 52.7-52.7s52.7 23.6 52.7 52.7-23.6 52.7-52.7 52.7zm0-103.4c-28 0-50.7 22.7-50.7 50.7s22.7 50.7 50.7 50.7 50.7-22.7 50.7-50.7-22.7-50.7-50.7-50.7z" fill="#575756"/><g clip-rule="evenodd" fill-rule="evenodd"><path d="m66.7 23.9c-.7 1.4-3.6 6.6-5.7 10-8 13.4-17.5 27.4-29.5 43.3l-3.1 4.1 2.5 4.5c1.4 2.5 2.5 4.5 2.6 4.5.2 0 10.4-14 15.4-21.2 12.8-18.4 20.6-32 20.5-35.8 0-1.7-1.4-7.7-2.2-9.7-.1-.5-.1-.5-.5.3" fill="#52575c"/><path d="m38.2 23.8c-.3.9-1.2 4.2-1.5 5.5-.6 2.9-.7 4.1-.5 4.9.7 2.7 2.4 6.2 5.5 11.6 2 3.5 4 6.7 4.2 6.7.1 0 1.3-1.8 2.7-3.9 2.6-3.9 2.6-3.9 2.3-4.4-.2-.3-1.2-1.9-2.3-3.6-3.4-5.4-8-13.3-9.5-16.3-.3-.6-.5-1-.6-1s-.2.2-.3.5m20.6 35.4c-.5.8-1.7 2.6-2.7 4l-1.7 2.6 2.8 4.1c3.3 4.7 7.5 10.6 11 15.3 3.4 4.6 3.7 5 3.8 5 0 0 1.2-2 2.6-4.5l2.5-4.5-2.3-3.1c-4.8-6.4-9-12.2-13.7-18.8-.6-.9-1.2-1.7-1.2-1.7-.1.1-.6.8-1.1 1.6" fill="#35383b"/><path d="m49.9 14.2c-3.5.7-6.9 2.6-9 5.2-1 1.2-1.1.7.7 4.2l1 1.8.9-.8c1.1-1 2.7-1.9 4.7-2.4 1.4-.4 1.8-.4 4.5-.4s3.1 0 4.5.4c2 .5 3.6 1.3 4.7 2.4l.9.8 1.3-2.5c1.5-2.8 1.5-2.5-.5-4.6-2-2-4.2-3.2-7-4-1.5-.3-5-.5-6.7-.1" fill="#222426"/><path d="m49.2 11.6c-3.6.7-7.2 2.7-9.6 5.4-1.6 1.7-3.3 4.3-3.9 6-1 2.7-2.3 8.6-2.3 10.4 0 2.8 3.4 9.9 9.2 19.4.8 1.3 1.4 2.4 1.4 2.5 0 .4-8.4 12.1-14.6 20.4-3.1 4.1-3.8 5.2-3.8 5.6 0 .3 1 2.3 3.3 6.4 1.8 3.2 3.4 6 3.6 6.2.5.5 1.4.5 1.9-.1 1-1.1 10.7-14.4 15.3-21.1 1.6-2.4 3-4.3 3.1-4.3s.4.5.8 1.1c3.3 4.9 16.5 23.1 17.6 24.3.5.6 1.4.6 1.9.1.2-.2 1.8-3 3.6-6.2 2.3-4.1 3.3-6 3.3-6.4s-.7-1.5-3.6-5.3c-6.1-8.1-15-20.5-14.9-20.7 0-.1.7-1.2 1.5-2.4 5.7-9.2 9.2-16.6 9.2-19.4 0-1.9-1.3-7.6-2.2-10.3-1.1-3-4-6.6-6.7-8.5-2.1-1.4-4.5-2.4-6.9-2.9-1.7-.5-5.7-.5-7.2-.2m.7 2.6c-3.5.7-6.9 2.6-9 5.2-1 1.2-1.1.7.7 4.2l1 1.8.9-.8c1.1-1 2.7-1.9 4.7-2.4 1.4-.4 1.8-.4 4.5-.4s3.1 0 4.5.4c2 .5 3.6 1.3 4.7 2.4l.9.8 1.3-2.5c1.5-2.8 1.5-2.5-.5-4.6-2-2-4.2-3.2-7-4-1.5-.3-5-.5-6.7-.1m16.7 9.8c-1 2-3.4 6.1-5.4 9.6-7.8 13.1-17.7 27.7-29.1 42.9l-3.7 4.9 2.5 4.5c1.4 2.5 2.6 4.5 2.6 4.5.2 0 8.4-11.3 13.6-18.6 12-17.1 19.8-30.1 21.9-36.3.5-1.6.6-1.9.5-2.8-.2-2.3-1.7-8.2-2.2-9.3-.2-.4-.2-.4-.7.6m-28.2-.7c-.2.3-1.1 3.5-1.5 5-.7 3.2-1 4.9-.7 5.9.6 2.9 3.7 8.9 8.1 16.2.8 1.3 1.5 2.4 1.6 2.4.2 0 5.4-7.9 5.3-8.2-.1-.1-.6-1.1-1.3-2.1-3.4-5.4-8.2-13.4-10.3-17.5-.6-1-1-1.9-1.1-1.9 0 0-.1.1-.1.2m12.4 1.2c-2.6.2-4.7 1.2-6.1 2.7-.7.7-.7.7.2 2.1 3.7 6.2 7.7 12.7 7.9 12.7s4.2-6.5 7.9-12.7c.8-1.4.8-1.4.2-2.1-1.4-1.5-3.5-2.4-6.4-2.7-1-.1-1.9-.2-2-.1-.2-.1-.9 0-1.7.1m6.3 37.1c-1.5 2.3-2.7 4.2-2.6 4.3.2.5 9.1 13.1 13.5 19.1 1.4 1.9 2.8 3.8 3.2 4.4s.8 1 .8 1c.1 0 4.9-8.6 5-9 0-.1-1.9-2.8-4.2-5.9-4.2-5.7-8.1-10.9-11.3-15.5-.9-1.3-1.7-2.4-1.7-2.4s-1.2 1.8-2.7 4"/></g></svg>