<svg enable-background="new 0 0 105.6 105.5" viewBox="0 0 105.6 105.5" xmlns="http://www.w3.org/2000/svg"><path d="m52.8 105.5c-29.1 0-52.7-23.6-52.7-52.7s23.6-52.7 52.7-52.7 52.7 23.6 52.7 52.7-23.6 52.7-52.7 52.7zm0-103.4c-28 0-50.7 22.7-50.7 50.7s22.7 50.7 50.7 50.7 50.7-22.7 50.7-50.7-22.7-50.7-50.7-50.7z" fill="#575756"/><g clip-rule="evenodd" fill-rule="evenodd"><path d="m79.9 52.8-1 1 1-1c1-.9 1.2-1 1-1 0 0-.4.4-1 1m5.5 3-.6.7.6-.7c.4-.3.7-.6.7-.6.1-.1-.1 0-.7.6m-66.1 2.1c-2.3.9-3.2 1.3-3.7 1.7-1 1-1 1 3.8 14.4 2.4 6.6 4.5 12.1 4.6 12.3.3.5 1.3.9 1.9.9.7 0 6.7-2.2 7.2-2.7.6-.6.8-1.5.6-2.5-.5-1.5-8.5-23.5-8.8-24.1-.4-.7-1-1.1-1.8-1.2-.6.1-1.5.3-3.8 1.2m55.4.3-1.2 1.3 1.2-1.3c1.2-1.1 1.4-1.3 1.3-1.3s-.7.6-1.3 1.3m3.6 5.3-1.2 1.2 1.2-1.2c.7-.6 1.3-1.1 1.3-1.2s-.2.1-1.3 1.2" fill="#695088"/><path d="m88.5 45.5c-1.6.7-5.3 4-11.3 10.2-5.6 5.7-8 7.7-9 7.9-1.7.2-12 1.3-12.5 1.3-.4 0-.7-.2-1.1-.5-.7-.7-.7-1.5 0-2.1.5-.5.6-.5 6.7-1.2l6.2-.7 1.2-1c.6-.6 1.9-1.7 2.8-2.6l1.6-1.6h-14.5c-8 0-12.4.1-9.8.1l4.8.1v8.3c0 7.7 0 8.3-.3 8.4-.2.1.1.1.5 0 .4 0 2.4-.2 4.3-.3 12.2-1 15.1-2.5 24.1-12.4 1.5-1.6 3.7-4 5-5.4 3.6-3.7 4.9-5.5 4.9-6.8 0-.9-1.4-2.1-2.4-2.1-.3.1-.8.2-1.2.4" fill="#e1be90"/><path d="m41.5 55.3c-2 .4-4.5 1.3-6.7 2.4-1.9 1-4.6 3-5.3 3.9l-.4.5 3 8.2c1.6 4.5 3 8.3 3.1 8.3 0 0 .4-.2.8-.5 3.5-2.7 8.5-4.4 15.1-5.2 1.1-.1 2.2-.2 2.5-.3l.6-.1v-8.8-8.7h-5.7c-3.8 0-6 .1-7 .3" fill="#f7d6b0"/><path d="m45.1 15.8c-2.2.6-4 2.1-5 4.2-.5 1.1-.6 1.4-.6 3.2 0 1.9 0 2.1.6 3.3s1.2 1.9 7.1 7.8l6.5 6.5v-11.2c0-10.8 0-11.4-.3-11.4-.2 0-.7-.3-1.2-.8-1.1-.9-2.4-1.6-3.8-1.8-1.3-.2-1.9-.2-3.3.2" fill="#ea4335"/><path d="m58.5 15.6c-1.3.4-1.9.6-3.3 1.7-.6.5-1.3.9-1.4.9-.2 0-.3 2.2-.3 12.1v12.1l3.3-3.3c1.8-1.8 3.5-3.4 3.8-3.5.4-.2.7-.1 1.2.1.6.3.7.3 1.4-.5s.8-.8.5-1.3c-.5-.9-.2-1.5 1.9-3.6 2.2-2.2 2.9-3.4 3.2-5.6.4-2.5-.4-4.9-2.2-6.8-2.1-2.2-5.2-3.1-8.1-2.3m-20.5 8c0 .4 0 .5.1.3s.1-.5 0-.7c0-.2-.1 0-.1.4" fill="#e73125"/><path d="m44.5 13c-2.9.7-5.8 3.1-7.1 5.6-1.8 3.6-1.5 7.7.8 11 .9 1.3 14.2 14.6 14.9 14.8.4.1.6.1 1.1-.1.3-.1 2.2-1.9 4.3-4 3.5-3.5 3.7-3.8 3.7-4.4 0-.9-.7-1.5-1.7-1.5-.7 0-.8.1-3.8 3.1l-3.1 3.1-6.1-6.1c-3.5-3.5-6.4-6.5-6.8-7.1-1.9-2.9-1.5-6.6 1-9.2 1.6-1.7 3.6-2.5 5.9-2.3 1.7.1 3.1.7 4.4 1.7s2 1.1 2.9.3c3.1-2.7 7.4-2.7 10.4.1 2.6 2.4 3.1 6.5 1.2 9.4-.4.6-1.3 1.6-2 2.3-1.5 1.4-1.9 2.1-1.7 2.7.2.8.7 1.3 1.6 1.3.7 0 .8-.1 2.3-1.6 1.9-1.9 3-3.4 3.6-5.3 1.3-4 .4-8-2.6-11-2.3-2.3-4.9-3.3-8.2-3.2-1.9.1-3.5.6-4.8 1.4-.5.3-.9.5-1 .5s-.6-.2-1-.5c-1.5-.9-3-1.3-5.1-1.4-1.4.1-2.6.2-3.1.4m43.6 29.1c-1.9.6-4.6 2.8-9.3 7.4l-2.7 2.6-17.1.1c-15.4.1-17.2.1-18.4.4-4.3 1.1-8.1 2.9-10.9 5.2-1 .8-1.1.9-1.1.5 0-.1-.3-.8-.6-1.5-.7-1.5-1.7-2.4-3.1-2.9-1.6-.6-2.9-.4-6.6.9-3.9 1.4-4 1.5-5 2.6-1.1 1.2-1.4 2.3-1.3 4 .1 1.1.6 2.7 4.6 13.7 3.4 9.2 4.6 12.6 5.1 13.1 1.1 1.5 2.6 2.2 4.5 2.2 1 0 1.7-.2 4.6-1.2 1.9-.7 3.7-1.5 4.1-1.7 1.7-1.2 2.6-3.1 2.3-5.2l-.1-1.2 1.5-1.1c3.8-2.9 7.5-3.8 17.5-4.7 9.9-.8 12.7-1.4 16.3-3.1 3.8-1.9 6.9-4.5 12.5-10.6 1.5-1.6 3.9-4.2 5.4-5.7 3.9-4 5.3-6.2 5.3-8.6 0-1.9-1.2-3.7-3.2-4.8-1.2-.4-3.4-.7-4.3-.4m.3 3.4c-1.4.7-6.2 4.9-11.9 10.8-3.3 3.4-6.4 6.3-7.5 7-.3.2-2.3.5-7.1 1-6.6.7-6.7.7-7.1.4-1.1-.8-.8-2.4.4-2.7.4-.1 3.3-.5 6.5-.8l5.8-.6.8-.7c.4-.4 1.7-1.5 2.8-2.6l2-1.9-15.4.1-15.4.1-1.7.5c-3.9 1.1-7.3 2.9-9.6 5.2l-1.1 1.1.6 1.7c5.2 14.6 5.1 14.1 5.5 13.8 5-3.7 8.9-4.8 20.6-5.7 14-1.1 16.2-2.2 26.2-13.2 1.6-1.8 4-4.3 5.4-5.7 2.7-2.8 3.7-4.3 3.9-5.6.1-.7 0-.9-.5-1.4-1.1-1.2-2-1.4-3.2-.8m-69.1 12.4c-2.3.9-3.2 1.3-3.7 1.7-1 1-1 1 3.8 14.4 2.4 6.6 4.5 12.1 4.6 12.3.3.5 1.3.9 1.9.9.7 0 6.7-2.2 7.2-2.7.6-.6.8-1.5.6-2.5-.5-1.5-8.5-23.5-8.8-24.1-.4-.7-1-1.1-1.8-1.2-.6.1-1.5.3-3.8 1.2"/></g></svg>