<svg enable-background="new 0 0 105.6 105.5" viewBox="0 0 105.6 105.5" xmlns="http://www.w3.org/2000/svg"><path d="m52.8 105.4c-29.1 0-52.7-23.6-52.7-52.7 0-29.1 23.6-52.7 52.7-52.7s52.7 23.6 52.7 52.7-23.6 52.7-52.7 52.7zm0-103.4c-28 0-50.7 22.7-50.7 50.7s22.7 50.7 50.7 50.7 50.7-22.7 50.7-50.7-22.7-50.7-50.7-50.7z" fill="#575756"/><g clip-rule="evenodd" fill-rule="evenodd"><path d="m38.1 52.3c-1.8.3-3.4 1.8-3.6 3.6l-.1.6h4.3 4.3v-.7c-.2-1.3-1.1-2.5-2.4-3.1-.6-.4-1.7-.5-2.5-.4m36.9.2c-1.7.7-2.5 1.8-2.8 3.6l-.1.4h4.3 4.3l-.1-.6c-.2-1.7-1.5-3-3.3-3.5-.9-.3-1.3-.3-2.3.1" fill="#f9a880"/><path d="m48.8 21.2c-4.4.5-8.5 2-12.5 4.4-1.7 1-2.4 1.7-3.6 3.6-2.6 3.9-4.1 7.9-5 12.6-.4 2.3-.5 7.5-.1 9.9.8 4.9 2.7 9.7 5.5 13.7 2 2.8 5.1 5.9 7.9 7.9 4 2.8 8.8 4.7 13.7 5.5 2.4.4 7.6.3 9.9-.1 2.6-.5 4.3-.9 5-1.4 2.1-1.3 5.5-4.5 7.3-6.8 2.5-3.3 4.4-7.1 5.4-10.8.7-2.7.9-4.2 1-7.5l.1-3-.5.6c-1.3 1.3-3.6 2.3-5.4 2.4h-.6l.7.2c.4.1 1 .4 1.4.6 1 .7 1.8 2.1 1.8 3.1v.4h-4.3-4.3l.1-.5c.2-1.4 1.3-2.9 2.6-3.4.3-.1.6-.3.6-.3 0-.1-.3-.1-.7-.1-1.2 0-3.7-.4-4.9-.8-2.3-.7-4.1-2.2-5.6-4.4-.9-1.4-1.4-2.4-2.5-5-.9-2.1-.9-2.2-1.3-2.2s-.4 0-.6.7c-1.3 4.8-4.8 9-8.8 10.6-1.8.7-2.9.9-5.1.9s-3.2-.2-4.8-.8c-3.8-1.4-5.8-4.9-6.3-10.7-.1-1.3-.1-1.3-.5-1.4-.8-.2-1-.6-1.4-3.2-.3-1.9-.2-2.4.4-2.7.8-.5 5.7-1.2 9.2-1.4 1.9-.1 5.8.1 7.9.4 1.8.2 4.2.7 6.7 1.3 3.4.8 4.3.7 9.4-.4 3.9-.9 5.9-1.1 9-1.1h2.5l-.8-1c-.6-.7-.9-1-1.1-.9-1.3.6-2.5-.4-2-1.6l.2-.5-.6-.5c-.6-.5-.6-.5-1-.3-.7.4-1.1.3-2.5-.6-4.5-3.1-8.7-4.7-14-5.4-1.8-.3-5.6-.2-7.5 0m-10.7 31.1c-1.8.3-3.4 1.8-3.6 3.6l-.1.6h4.3 4.3v-.5c-.1-.7-.6-1.8-1.1-2.4s-1.9-1.3-2.6-1.3c-.3-.1-.8-.1-1.2 0m31.2 8c-.3.2-.4.5-.8 1.9-.9 3.2-4.2 5.4-7.5 4.9-1.1-.2-2.4-.7-3.3-1.3-.7-.5-1.3-.6-1.8-.2-.4.3-.7 1.1-.5 1.5.3.8 2.3 2 4.1 2.5.6.2 1.3.2 2.6.2 1.4 0 1.8-.1 2.8-.4 3.2-1 5.6-3.7 6.5-6.9.3-1.2.3-1.6-.2-2.1-.6-.3-1.4-.4-1.9-.1" fill="#ffdb6c"/><path d="m32.9 28.1c-8.7 7.2-12.7 18.5-10.6 29.6 1.5 7.3 5.7 14.1 11.8 18.7 5.4 4.1 11.6 6.1 18.5 6.1 4.4 0 8.2-.8 12.1-2.4 1.5-.6 4.3-2.1 4.2-2.2 0 0-.6.1-1.3.3-2.9.8-4.5.9-8 .9-3.7 0-5.1-.2-8.2-.9-3.6-.9-7.3-2.6-10.4-4.8-2.8-2-5.9-5.1-7.9-7.9-2.8-4-4.7-8.8-5.5-13.7-.4-2.4-.3-7.6.1-9.9.6-3.5 1.7-6.8 3.2-9.7.8-1.5 2.2-3.8 3-4.7.3-.3.4-.6.4-.6s-.6.5-1.4 1.2m11.6 3.8h.5c.1 0 0-.1-.2-.1-.3 0-.4 0-.3.1" fill="#ffb04c"/><path d="m51.7 20.9h.5s0-.1-.3-.1-.4.1-.2.1m-5.9 13.8s-.9 3.2-2 7c-1.8 6.3-2 6.9-1.8 7.1.3.2 1.9.6 3.3.7 1.2.1 1.2.1 1.4-.2.1-.2 1-3.4 2.1-7.1s2-6.8 2-6.9-.4-.2-1.1-.3c-1.7-.3-3.9-.4-3.9-.3m26.4.2c-.5.1-.9.1-1 .1 0 0-.8 2.7-1.8 6-1.3 4.3-1.7 6-1.6 6.1.3.4 1.6 1.2 2.6 1.6 1.5.5 1.7.5 1.8-.2.1-.3 1-3.5 2.1-7.1l1.9-6.6h-1.6c-.7 0-1.9 0-2.4.1m-26.6 17.2h.6c.2 0 0-.1-.3-.1s-.4.1-.3.1m37.7.8c0 .3 0 .4.1.2 0-.2 0-.4 0-.5s-.1 0-.1.3m-31 29.7h.8c.2 0 0-.1-.4-.1-.5 0-.7.1-.4.1" fill="#737891"/><path d="m50.8 20.9h.5c.1 0 0-.1-.2-.1-.3.1-.4.1-.3.1m2.8 0h.5c.1 0 0-.1-.3-.1-.3.1-.4.1-.2.1m-22.2 8.4-.4.4.4-.4c.3-.2.5-.4.5-.4 0-.1-.1-.1-.5.4m-1.4 1.4-.4.4.4-.4c.3-.2.5-.4.5-.4-.1-.1-.2 0-.5.4m11 3.9c-.8.1-2.3.2-3.4.4l-2 .3.1.7c.1.4.2.7.3.8 1.1.7 1.3 1.2 1.5 3.5.3 3.6 1 5.7 2.5 7.1.6.6 2.1 1.6 1.9 1.2 0-.1.8-3.2 1.9-7s2-6.9 2-7c0 0 .2-.1.4-.1.7 0-3.8 0-5.2.1m34.2.1 1.1.1-2.1 7.1c-1.9 6.3-2.1 7.1-2.4 7.1-.6 0 .7.2 2.4.4 4.2.4 6.4-.5 7.6-3 .5-1 .7-1.7 1.2-4.6.2-1 .4-2.1.5-2.4.2-.8.8-1.7 1.2-2 .5-.3.7-1.5.2-1.7-1.9-.5-7.6-1.2-9.9-1.1h-1.1zm-2.8.1h.5c.1 0 0-.1-.3-.1s-.4.1-.2.1m-21.7.4c0 .1-.9 3.2-2 6.9s-2 6.9-2.1 7c-.1.3-.1.3.2.3.6 0 2.1-.4 3-.7 3.3-1.3 6.2-4.7 7.3-8.5.5-1.6.8-2.2 1.6-2.7.6-.4.8-.4 1.7-.4 1.8 0 2.4.5 3.3 2.5 1.6 3.9 2.8 6 3.9 7.2.3.4.5.6.4.4-.2-.3-.4.2 1.6-6.5.9-3 1.6-5.6 1.6-5.6 0-.2-1.1-.1-4.2.6-3.4.8-4.5.9-6.3.9-1.1 0-1.9-.1-2.9-.3-1.7-.4-5.6-1.2-6.4-1.3-.4 0-.6 0-.7.2m-6.2 14.2h.5c.1 0 0-.1-.2-.1-.3 0-.4.1-.3.1m38.8.8c0 .3 0 .4.1.2s0-.4 0-.5-.1 0-.1.3m-61.6.6c0 .5 0 .7.1.4 0-.2 0-.6 0-.9-.1-.2-.1 0-.1.5m0 1.9c0 .5 0 .7.1.4 0-.2 0-.6 0-.9-.1-.2-.1 0-.1.5m39.7 17.2h.9c.2 0 0-.1-.4-.1s-.7.1-.5.1m-31.8 2.5s.2.2.4.4l.4.4-.4-.4c-.3-.4-.4-.5-.4-.4m1.5 1.5s.2.2.4.4l.4.4-.4-.4c-.3-.4-.4-.5-.4-.4m19.9 8.7h.7c.2 0 0-.1-.4-.1s-.5.1-.3.1m2.6 0h.6c.2 0 0-.1-.3-.1s-.5.1-.3.1" fill="#56586f"/><path d="m49.3 18.4c-4.5.6-7.6 1.5-11.3 3.3-3.4 1.7-6.3 3.7-9 6.4-5.5 5.5-8.8 12.5-9.6 20.2-.2 1.7-.2 5.3 0 7 .8 7.7 4.2 14.7 9.6 20.2 2.7 2.7 5.6 4.7 9 6.4 3.1 1.5 5.7 2.4 9.2 3 2 .3 6.9.5 9 .3 16.2-1.9 28.8-15.1 29.8-31.5.1-2.4 0-5.3-.4-7.6l-.3-1.7.3-1.9c.5-2.5.6-2.9 1.1-3 .9-.2 1-.6 1.3-3.4.2-1.8.1-2.2-.4-2.5-.4-.2-3.2-.8-6.1-1.3-1.6-.2-2.5-.3-5.5-.3-4.2 0-5.2.1-9.9 1.1-4.8 1.1-5.9 1.1-10 .1-2-.5-5.2-1-7.3-1.3-2.2-.3-8-.2-10.2.1-2.1.3-5.1.9-5.4 1-.6.3-.7 1-.3 3.4.3 1.8.5 2.2 1.1 2.4.5.2.5.2.6 1.1.6 6.1 2.1 9.1 5.5 10.7 1.7.8 2.8 1.1 5.5 1.1 2.8 0 3.7-.2 5.9-1.3 3.7-1.8 6.8-5.7 7.9-9.8.3-1 .3-1.1.7-1.2h.5c.1.1.5 1 .9 2 2.3 5.4 3.8 7.5 6.5 8.9 1.5.8 2.8 1.1 5.2 1.4 4.2.5 7.1-.2 9.2-2l.7-.7.1.6c.2 1-.1 5.1-.3 6.8-.9 5.2-3 10.1-6.3 14.3-1.1 1.4-4 4.2-5.4 5.3-4.3 3.2-8.7 5.1-14 6-2.3.4-6.8.4-9.1.1-9.9-1.5-18-7.2-22.8-15.8-2.8-5-4.1-11.2-3.7-16.9.4-5.5 2.1-10.5 5.2-15 6.5-9.7 18.1-15 29.6-13.5 4.9.6 9.1 2.3 13.1 5 .9.6 1.9 1.2 2.1 1.3.7.2 1.6-.4 1.6-1.2 0-.7-.2-.9-1.5-1.8-4.7-3.2-9.6-5.1-15.2-5.8-1.3-.1-6.1-.2-7.2 0m25.6 9.4c-.4.2-.7.7-.7 1.2 0 .9.9 1.4 1.8 1.1.6-.2.8-.6.8-1.2 0-.5-.5-1.2-.9-1.2-.1 0-.3 0-.4-.1-.1 0-.4.1-.6.2m-33.9 6.8c-.8.1-2.3.2-3.4.4l-2 .3.1.7c.1.4.2.7.3.8 1.1.7 1.3 1.2 1.5 3.5.3 3.6 1 5.7 2.5 7.1 2.1 2.1 6.4 2.6 9.9 1.2 3.3-1.3 6.2-4.7 7.3-8.5.5-1.6.8-2.2 1.6-2.7.6-.4.8-.4 1.7-.4 1.8 0 2.4.5 3.3 2.5 2.8 6.7 4.2 8.5 7.6 9.3 1.5.4 4.4.7 5.7.6 2.6-.2 4-1.1 5-3.1.5-1 .7-1.7 1.2-4.6.2-1 .4-2.1.5-2.4.2-.8.8-1.7 1.2-2 .5-.3.7-1.5.2-1.7-1.2-.3-4.7-.8-7.2-1-3.4-.3-6.5 0-10.9 1-3 .7-3.4.7-5.1.9-1.8.2-2.9 0-5.5-.6-6.2-1.2-10.8-1.6-15.5-1.3m28.6 25.6c-.4.2-.7.6-.9 1.4-.3 1.3-1.1 2.6-2 3.6-1.4 1.4-2.9 2-4.9 2-1.3 0-2.4-.3-3.8-1.1-1.3-.8-1.8-.8-2.3-.2-.5.7-.4 1.4.4 2 .5.5 2.3 1.3 3.3 1.6 1.1.3 3.3.4 4.5.1 3.6-.8 6.5-3.8 7.4-7.6.2-.8.1-1.2-.5-1.7-.4-.2-.7-.3-1.2-.1"/></g></svg>