<svg enable-background="new 0 0 105.6 105.5" viewBox="0 0 105.6 105.5" xmlns="http://www.w3.org/2000/svg"><path d="m52.8 105.4c-29.1 0-52.7-23.6-52.7-52.7 0-29.1 23.6-52.7 52.7-52.7s52.7 23.6 52.7 52.7-23.6 52.7-52.7 52.7zm0-103.4c-28 0-50.7 22.7-50.7 50.7s22.7 50.7 50.7 50.7 50.7-22.7 50.7-50.7-22.7-50.7-50.7-50.7z" fill="#575756"/><g clip-rule="evenodd" fill-rule="evenodd"><path d="m70.4 26.5c-2.7 1.2-4.6 2.5-6.7 4.6-1.8 1.8-2.9 3.4-4.1 5.8-2.4 5-2.7 10.9-.8 16 1.9 5.3 5.9 9.6 11 12 1.4.7 1.5.7 2.7.6 1.5-.1 3.8-.7 5.2-1.2 1.1-.4 2.6-1.2 2.6-1.3 0 0-.2-.2-.5-.3-.9-.5-1.3-1.8-.7-2.7.2-.3 1-.9 2.5-1.7l2.4-1.3 1.2-2.2c.7-1.2 1.4-2.3 1.5-2.5.6-.5 1.4-.5 2.1-.2l.7.3.3-1.1c.5-1.9.7-2.8.8-4.9.2-4.2-.9-8.1-3.2-11.6-.9-1.3-1-1.9-.6-2.5.2-.3.2-.4-.9-1.4-1-1-1.1-1.1-1.4-.8-.6.4-1.1.3-2.7-.8-2.5-1.7-4.9-2.6-7.7-3.1-2-.2-2.8-.2-3.7.3m-5.2 11.4-.5.5.1 2.1c.1 2 .1 2.1.4 2.4.5.4 1.3.4 1.7-.1.4-.4.4-.5.4-2.3 0-2.1-.1-2.6-.8-2.9-.5-.2-.8-.2-1.3.3m9.9-.3c-.7.4-.7.6-.7 2.8 0 2 0 2.1.4 2.5.8.8 1.9.3 2.1-.8.1-.3.1-1.3 0-2.2 0-1.4-.1-1.7-.4-2-.4-.4-1-.5-1.4-.3m-16.7 7.4c-.3.3-.3.5-.3 1.9.1 1.8.6 3.6 1.5 5.2.6 1.1.9 1.3 1.6 1.3.6 0 1.2-.6 1.2-1.1 0-.2-.3-.9-.6-1.6-.7-1.4-1.1-2.6-1.2-4.3-.1-.8-.2-1.3-.4-1.5-.4-.4-1.4-.4-1.8.1m23.2-.2c-.4.3-.6 1-.6 1.7 0 1.1-.3 2.3-1 3.7-1.2 2.6-3.8 4.7-6.7 5.4-2.1.5-4.9.2-7-.7-.7-.3-.9-.3-1.3-.2-.9.4-1.1 1.5-.4 2.1.4.4 2.3 1.1 3.7 1.4 1.7.4 4.5.2 6.1-.3 5.2-1.6 8.8-6.1 9.1-11.3.1-1.4.1-1.5-.3-1.8-.3-.2-1.2-.3-1.6 0" fill="#fe93d3"/><path d="m68.7 26.1c-4.7.5-8.8 2.6-12.1 5.9-3.6 3.8-5.5 8.4-5.6 13.6 0 3.2-.1 3.1 1.8 4.4 4.5 3 7.5 7.3 9.2 13.2.3.9 4.3 2.1 7.2 2.2l1.8.1-1.4-.7c-6.1-2.9-10.2-8.2-11.7-14.6-.4-1.8-.6-5.2-.3-7.1.4-3.3 1.8-6.7 3.6-9.5 1.1-1.6 3.6-4.1 5.2-5.2 1.4-1 3.9-2.3 4.8-2.5.6-.1.6-.1-.4-.1-.5.2-1.5.2-2.1.3m-3.9 14.3c0 1.1 0 1.6.1 1 0-.6 0-1.5 0-2-.1-.6-.1-.1-.1 1m12 0c0 1 0 1.4.1.9 0-.5 0-1.4 0-1.9s-.1 0-.1 1m4.2 5.9c0 .4 0 .5.1.3s0-.5 0-.6-.1 0-.1.3m-3 6.8-.8.9.8-.9c.8-.7 1-.9.9-.9s-.5.4-.9.9m1.9 1.7-.6.6.6-.6c.4-.3.7-.5.7-.6-.1-.1-.2 0-.7.6m-9.7 1.3h1.1c.3 0 .1-.1-.5-.1s-.9.1-.6.1" fill="#fe73c5"/><path d="m21.5 49.9c-.4.8-.9 1.6-1.1 1.9s-.3.5-.3.6c.1.1.6.4 1.2.7 1 .5 1.1.7 1.8 1.9.6 1.1.8 1.3.9 1 .1-.2.9-.7 1.8-1.2s1.6-.9 1.6-1c0 0-.7-.5-1.7-1l-1.5-.8-.9-1.6c-.5-.9-.9-1.7-1-1.7 0-.1-.4.5-.8 1.2" fill="#fea613"/><path d="m20.3 51.8c-.2.2-1 .7-1.8 1.2-.8.4-1.5.9-1.5.9 0 .1.7.5 1.7 1l1.7.9.9 1.7c.5.9 1 1.7 1.1 1.7s.5-.6.9-1.4l.8-1.4-.9-1.4c-.7-1.3-.8-1.4-1.9-1.9-.6-.3-1.1-.6-1.2-.7 0-.1.1-.3.2-.6.3-.2.4-.3.4-.3-.1-.1-.2.1-.4.3m34 2.6c.4.4.7.8.8.8s0-.2-.8-.8l-.7-.8zm6 14c0 .6 0 .9.1.5 0-.3 0-.8 0-1.1-.1-.3-.1 0-.1.6m-39.7 0c0 .4 0 .6.1.4 0-.2 0-.6 0-.8-.1-.2-.1 0-.1.4m10.4 9.9s.2.3.5.5l.5.5-.5-.5c-.4-.5-.5-.6-.5-.5m18.4.5-.5.5.5-.5c.5-.4.7-.5.5-.5 0-.1-.2.2-.5.5" fill="#fe9901"/><path d="m40.6 22.7-1.2.7.5.3c.3.2.9.5 1.3.7 1.2.6 1.7 1.1 2.5 2.7l.8 1.5.7-1.3.7-1.3-.7-1.3c-.7-1.2-.8-1.3-1.9-2-.7-.4-1.3-.7-1.4-.7s-.7.3-1.3.7m-2.4 26.1c-2.3.3-5.2 1.2-7.2 2.3-1.4.8-1.3.7-.7 1.3.4.4.6.7.7 1.2.1 1.1-.3 1.6-2.7 2.9l-2.1 1.1-1.1 2c-1.3 2.5-1.6 2.8-2.6 2.8-.8 0-.8 0-1 .7-.4 1.4-.7 3.7-.7 5.4 0 5.3 2 10.2 5.8 13.9 3.3 3.3 7.4 5.2 12.1 5.8.9.1 2.2.1 2.7.1l1-.1-1.4-.7c-2.9-1.4-5.9-3.8-7.7-6.3-.5-.7-1-1.4-1-1.5s-.3-.4-.6-.7c-.9-.8-2.2-2.5-2.8-3.8-.7-1.4-1.2-3.6-1.2-5 0-.9.1-1.1.4-1.4.2-.2.5-.4.6-.4.2 0 .3-.2.3-.7 0-.4.1-1.3.2-2l.2-1.3-.5-.4c-.4-.3-.5-.5-.4-1.2 0-1 .5-2.1 1.2-2.9.6-.7 1.8-1.6 2-1.5.1 0 .1 0 0 0-.1-.2.6-1.4 1.6-2.7 1.8-2.4 4.6-4.7 7.4-6.1 1.5-.7 1.5-.8 1.1-.9-.6-.1-2.2 0-3.6.1m45.4 11.3c-.8.5-1.5.9-1.5.9s.8.5 1.8 1.1l1.8 1 1 1.9c1.2 2.1 1 2.1 2.1.2l.6-1.2-.8-1.4c-.7-1.4-.8-1.4-2.1-2.2-.7-.4-1.4-.8-1.4-.9.1-.1-.6.2-1.5.6m-43.3 22.5h.6c.2 0 0-.1-.3-.1-.4 0-.5 0-.3.1" fill="#ffd15b"/><path d="m43.7 19.8c-.5.8-1 1.7-1.2 1.9l-.5.3 1.3.7c1.2.7 1.3.8 1.9 1.8.3.6.7 1.2.7 1.2s.2-.1.3-.3.9-.7 1.8-1.2 1.5-.9 1.4-1-.8-.5-1.6-.9l-1.5-.8-.9-1.7-.9-1.7zm-2.9 29.8c-3.6 1.8-6.7 4.6-8.8 8.1l-.5.8.4-.2c.7-.3 2.4-.2 3.3.1 1.1.4 2.6 1.8 2.9 2.9.6 1.8.2 3-.9 3-.7 0-1.2-.4-1.3-1.3-.3-1.8-1.8-2.8-3.4-2.1-.9.4-1.4 1.1-1.5 2.1-.1.9-.5 1.4-1.2 1.4-.5 0-.6.2-.8 2.6v1.4l.4.1c.5.1.9.9.9 2 0 2.4 1.6 5.4 3.9 7.2 1.9 1.5 3.9 2.2 6.4 2.2 1.9 0 3.6-.5 5.1-1.4 3-1.8 4.6-4.5 5-8.4.1-1.1.5-1.6 1.3-1.6.9 0 1.2.4 1.2 1.8 0 4.5-3.1 9-7.5 11.1-3.9 1.8-9 1.3-12.5-1.2-.4-.3-.8-.5-.9-.5 0 0 .4.7 1 1.5 2 2.6 4.8 4.9 7.8 6.3l1.4.7 1.4-.3c2.6-.5 5.4-1.6 7.5-3 1.3-.9 1.7-1 2.3-.7s.8.2 1.8-.9c.8-.8.9-1.1.6-1.2 0-.1-.1-.4-.1-.7 0-.4.2-.9.9-1.9 2.1-3.2 3.1-6.3 3.3-10.3.2-4.3-.9-8.1-3.3-11.7-1.1-1.7-3.4-4-5.1-5.2-2.5-1.7-5.8-3-8.5-3.3-.8-.2-1-.1-2.5.6m46.1 7.4c-.5 1-1.1 1.9-1.3 2.1s-.4.3-.4.4.6.4 1.4.8c1.4.7 1.4.7 2.1 2.2l.8 1.4.3-.4c.2-.3 1-.8 2.1-1.4 1.3-.7 1.8-1 1.6-1.1-.1-.1-.9-.5-1.8-1l-1.7-1-1-1.9-1.1-1.9zm-40.2 1.3c-2.3.4-4.2 2.5-4.2 4.7 0 1 .4 1.4 1.2 1.4.7 0 1.2-.4 1.3-1.3.2-1.4 1-2.2 2.2-2.4.4-.1.8 0 1.3.3.9.5 1.3 1 1.4 1.9.1 1 .6 1.4 1.4 1.4 1.4 0 1.6-1.5.6-3.5-.9-1.8-3-2.9-5.2-2.5" fill="#ffe177"/><path d="m43.3 15.4c-.3.2-.9 1.3-1.5 2.3l-1 1.9-1.9 1c-1.1.6-2.1 1.2-2.3 1.5-.5.6-.5 1.7-.1 2.3.2.2 1.2.9 2.3 1.5l2 1.1 1.1 2c1.2 2.2 1.7 2.7 2.6 2.7s1.4-.5 2.6-2.6l1.1-2 2-1.1c2.3-1.3 2.7-1.7 2.6-2.8 0-.4-.2-.8-.4-1s-1.2-.8-2.3-1.4l-2-1.1-1.1-2c-.6-1.1-1.3-2.1-1.5-2.3-.5-.5-1.5-.5-2.2 0m.4 4.2c-.5.8-1 1.7-1.2 1.9s-1 .7-1.8 1.1l-1.4.8 1 .6c2.5 1.4 2.4 1.3 3.1 2.7 1.2 2.2 1.1 2.2 2 .5.4-.8.9-1.6 1-1.7.1-.2.9-.7 1.8-1.1.8-.5 1.5-.9 1.4-1 0-.1-.8-.5-1.6-1-1.6-.9-1.5-.7-2.9-3.2l-.6-1zm-19.8 1.2c-.3.3-.4.5-.4 1.5v1.1h-1.1c-.9 0-1.1.1-1.5.4-.5.5-.5 1.1 0 1.7.3.4.5.5 1.5.5l1.1.1v1c0 .8.1 1.1.4 1.4.4.3 1 .4 1.5.3.4-.2.7-1 .7-1.8v-.8h.8c.9 0 1.7-.3 1.8-.7.2-.5.1-1.2-.3-1.5-.3-.3-.6-.4-1.4-.4h-1l-.1-1.1c-.1-.9-.1-1.1-.5-1.5-.4-.7-1-.7-1.5-.2m43.6 2.9c-7.7 1.2-14.1 6.2-17.2 13.4-1.2 2.7-1.8 5.7-1.8 8.8v1.7l-1.3-.4c-2-.7-4.2-1-6.7-1-4.6 0-8.3 1.1-12.1 3.5l-1.3.9-.5-.3c-.3-.2-.8-.9-1.6-2.3-1.2-2.3-1.7-2.8-2.6-2.8-1 0-1.5.4-2.7 2.7l-1.2 2.1-2.1 1.2c-1.2.6-2.2 1.3-2.4 1.5s-.3.6-.3 1c0 1.2.3 1.5 2.6 2.7l2.2 1.2.6 1.2.6 1.2-.4 1.2c-.9 2.5-1.1 4.2-1.1 7.2 0 2.3.1 3.2.3 4.4 1.9 8.2 7.5 14.5 15.3 17 2.5.8 4.3 1 7.5.9 2.4-.1 3-.1 4.6-.6 2.3-.6 4.4-1.5 6.3-2.7s2.2-1.5 2.2-2.1-.6-1.2-1.2-1.2c-.2 0-1 .4-1.7.9-3.7 2.4-7.4 3.4-11.8 3.3-3.2-.1-5.4-.7-8.3-2.2-4.1-2.1-7.8-6.2-9.5-10.6-1.4-3.7-1.6-8-.7-11.8l.3-1.3h.7c.4 0 .9-.1 1.1-.3.2-.1.9-1.2 1.5-2.4l1.1-2.1 2.2-1.2c2.3-1.3 2.6-1.6 2.6-2.7 0-.7-.3-1.1-.9-1.5l-.3-.2 1.1-.7c2.7-1.6 5.7-2.4 9-2.6 4.4-.2 8.2.8 11.8 3.2 4.5 3 7.6 7.6 8.6 12.9.4 1.9.4 5.3 0 7.2-.5 2.7-1.5 5.2-3.1 7.5-.9 1.4-1 1.7-.6 2.3.3.5.9.7 1.4.5 1-.3 3.4-4.8 4.3-7.6.6-1.9.9-4.5.9-6.4 0-.9 0-1.6.1-1.6 0 0 .5.1 1 .3 2.1.7 4.1 1 6.9 1 4.4 0 7.8-.9 11.8-3.2.8-.5 1.2-.2 2.6 2.4.7 1.2 1.4 2.4 1.7 2.5.5.3 1.6.3 2.2 0 .3-.2.9-1.2 1.7-2.5l1.2-2.3 2.2-1.2c1.2-.7 2.3-1.4 2.5-1.6.4-.5.4-1.6 0-2.2-.2-.3-1-.9-2.5-1.7-2.1-1.1-2.3-1.3-2.7-2-.6-.7-.6-.8-.4-1.2 1.4-3.3 1.9-5.8 1.9-9.2 0-4.5-1.1-8.4-3.5-12.1-.9-1.4-1.4-1.8-2.1-1.6-.4.1-.9.8-.9 1.3 0 .2.3.8.7 1.4 1 1.4 1.9 3.4 2.4 5 1.2 3.6 1.2 8.3.1 12l-.3 1.1-.5-.5c-.6-.5-1.7-.4-2.2 0-.2.2-1 1.3-1.6 2.5l-1.2 2.2-2.2 1.2c-2.3 1.2-2.9 1.8-2.9 2.6 0 .6.4 1.3 1.1 1.7l.6.4-1 .5c-1.4.7-3.5 1.4-5.3 1.7-2.2.4-6.1.3-8.2-.3-2.3-.6-3.8-1.3-3.9-1.7-1-3.3-2.2-5.9-3.8-8-1.4-1.9-3.6-4-5.5-5.2s-1.9-1.1-1.9-4.3c.1-9.4 6.6-17.3 15.8-19.3 2-.4 5.5-.5 7.3-.2 2.8.5 5.5 1.6 7.8 3.2 1.5 1 1.7 1.1 2.2.9.6-.2.9-.6.9-1.1 0-1.2-4.4-3.9-8.1-4.9-2.9-.8-6.5-1-9.4-.6m-35.8 7.4c-.4.3-.4.4-.4 2.3v1.9h-1.9c-1.8 0-1.9 0-2.3.4-.5.5-.5 1.2-.1 1.7.3.4.4.4 2.3.4l2 .1v1.8c0 1 0 1.9.1 2 .2.4 1 .8 1.4.6.7-.2.9-.6.9-2.6v-1.7l2-.1c1.8-.1 2-.1 2.3-.4.5-.6.4-1.4-.1-1.8-.4-.3-.7-.3-2.3-.3h-1.8v-1.9c0-1.9 0-1.9-.4-2.3-.2-.2-.6-.3-.8-.3s-.7 0-.9.2m33.5 6.8c-.3.3-.3.5-.3 2.5 0 2.2 0 2.2.4 2.5.6.4.9.4 1.5-.1l.5-.4v-2.1c0-2.1 0-2.2-.4-2.5-.5-.3-1.2-.3-1.7.1m9.5.1c-.3.4-.3.7-.3 2.3 0 1 .1 2 .2 2.2.4.8 1.7.9 2.1.1.1-.2.2-1.2.2-2.3 0-1.9 0-2-.4-2.4-.6-.4-1.4-.4-1.8.1m-16.2 7c-.4.4-.4.5-.3 1.7.1 1.7.5 3.1 1.3 4.6.9 1.8 1.7 2.4 2.5 1.8.6-.4.6-1 0-2.2-.9-1.7-1.2-2.8-1.3-4.3-.1-1-.2-1.4-.5-1.7-.6-.4-1.2-.4-1.7.1m23.1 0c-.3.3-.4.6-.5 1.6-.5 5-4.4 9-9.4 9.5-1.5.1-3.3-.1-4.6-.7-1.4-.6-2.1-.7-2.5-.2-.4.4-.4 1-.2 1.5.2.4 1.5 1 3.2 1.5 1.8.5 4.6.5 6.4 0 5.2-1.5 9-6 9.4-11.4.1-1.2.1-1.3-.3-1.7-.4-.6-1-.6-1.5-.1m-60.1 4.7c-1 1.9-1.3 2.2-3 3.2-.8.5-1.5.9-1.5.9 0 .1.7.5 1.7 1l1.7.9.9 1.7c.5.9 1 1.7 1.1 1.7s.4-.6.9-1.4c.4-.8.9-1.6 1-1.8.2-.2 1-.8 1.9-1.2.9-.5 1.6-.9 1.6-.9s-.5-.4-1.2-.7c-2.2-1.2-2.3-1.2-3.3-3.1-.5-1-1-1.7-1-1.7s-.4.7-.8 1.4m65.7 6.6c-1.3 2.5-1.4 2.6-3.4 3.7-1 .5-1.8 1-1.8 1.1 0 0 .6.4 1.2.7 2.4 1.3 2.5 1.3 3.7 3.4l1 1.9 1-1.9c.6-1 1.2-2 1.5-2.2.2-.2 1.1-.7 1.9-1.1s1.5-.8 1.5-.9c0 0-.6-.4-1.2-.7-2.4-1.3-2.6-1.4-3.4-3-1.4-2.5-1.2-2.4-2-1m-55.4 2.3c-1.8.6-3.1 2.3-3.3 4.2-.1 1-.1 1 .4 1.4 1 .8 2 .1 2-1.2 0-1.1 1.3-2.2 2.6-2.2 1.2 0 2.5 1.3 2.5 2.4 0 .7.6 1.3 1.2 1.3.2 0 .6-.2.8-.4.4-.4.4-.5.3-1.3-.3-3.2-3.5-5.3-6.5-4.2m14.4-.2c-2 .7-3.4 2.3-3.7 4.4-.1.7 0 .8.3 1.2.8.8 1.8.4 2.1-1 .2-.9.5-1.5 1.3-2 .5-.3.7-.4 1.4-.3 1.4.1 2.1.9 2.4 2.4.2 1.2 1.1 1.6 2 .9.4-.3.4-.4.4-1.3-.2-2.5-2.1-4.3-4.6-4.4-.7 0-1.3 0-1.6.1m-17.8 10.3c-.6.3-.8.8-.6 2.5.4 2.9 1.4 5.1 3.4 7.2 1.8 1.9 3.7 3 6.1 3.7 1.6.4 4.9.4 6.6-.1 1.9-.6 3.7-1.5 5.2-2.9 2.5-2.4 3.9-5.1 4.1-8.5.1-1.4-.2-1.9-1.2-1.9-.9 0-1.1.4-1.3 2-.2 2.6-1.1 4.5-3.1 6.5-1 1-1.6 1.5-2.5 1.9-3 1.5-6.2 1.5-9.2 0-1.6-.8-3.8-2.9-4.5-4.5-.6-1.3-1.2-3.3-1.2-4.4-.1-1.3-.8-1.9-1.8-1.5m40.5 5.6c-.7.3-.9.8-.9 2.7v1.8h-1.8c-1.5 0-1.8 0-2.2.3-.7.6-.7 1.5 0 2.1.2.1.9.2 2.1.2h1.8v1.6c0 .9.1 1.9.2 2.1.4.8 1.7.9 2.2.2.2-.3.2-.8.2-2.2v-1.8h1.8c1 0 1.9 0 2-.1.3-.1.7-.9.7-1.3 0-.1-.2-.5-.5-.7-.5-.5-.5-.5-2.3-.5h-1.8v-1.8c0-1.6 0-1.8-.4-2.2-.2-.4-.6-.6-1.1-.4"/></g></svg>