<svg enable-background="new 0 0 80 80" viewBox="0 0 80 80" xmlns="http://www.w3.org/2000/svg" xmlns:xlink="http://www.w3.org/1999/xlink"><clipPath id="a"><ellipse cx="39.9" cy="40" rx="36.1" ry="36" transform="matrix(.1602 -.9871 .9871 .1602 -5.9818 73.024)"/></clipPath><clipPath id="b"><ellipse cx="40" cy="39.9" rx="36.1" ry="36" transform="matrix(.4642 -.8857 .8857 .4642 -13.9733 56.7882)"/></clipPath><g clip-path="url(#a)"><path d="m-14.2 4h108.2v72.1h-108.2z" fill="#050807"/><path d="m-14.2 28h108.2v48.1h-108.2z" fill="#ff0005"/><path d="m-14.2 52h108.2v24.1h-108.2z" fill="#ffdc00"/></g><ellipse clip-path="url(#b)" cx="39.9" cy="40" fill="none" rx="36.1" ry="36" transform="matrix(.1602 -.9871 .9871 .1602 -5.9818 73.024)"/><path d="m40.1 79.5c-21.8 0-39.5-17.7-39.5-39.5s17.7-39.5 39.5-39.5 39.5 17.7 39.5 39.5-17.7 39.5-39.5 39.5zm0-75c-19.6 0-35.5 15.9-35.5 35.5s15.9 35.5 35.5 35.5 35.5-15.9 35.5-35.5-15.9-35.5-35.5-35.5z" fill="#231f20"/></svg>