<svg enable-background="new 0 0 80 80" viewBox="0 0 80 80" xmlns="http://www.w3.org/2000/svg"><path clip-rule="evenodd" d="m40 2.2h-.1c-20.8 0-37.7 16.9-37.7 37.8h75.5c.1-20.9-16.9-37.8-37.7-37.8z" fill="#c8102e" fill-rule="evenodd"/><path clip-rule="evenodd" d="m39.1 77.8h1.6c20.5-.5 36.9-17.2 36.9-37.8h-75.4c0 20.5 16.4 37.2 36.9 37.8z" fill="#c8102e" fill-rule="evenodd"/><path d="m77.8 42c-25.1 0-50.2 0-75.4 0 0-.8-.1-1.6-.1-2.4s.1-1.6.1-2.3h75.3c.1.8.1 1.5.1 2.3.1.8.1 1.6 0 2.4z" fill="#fff"/><path d="m27.6 4.3v71.2c-.8-.3-1.8-.7-2.7-1.1-.8-.3-1.4-.7-2.1-1 0-22.3 0-44.8 0-67.1.8-.4 1.6-.8 2.4-1.2.9-.3 1.6-.5 2.4-.8z" fill="#fff"/><path d="m40.1 79.5c-21.8 0-39.5-17.7-39.5-39.5s17.7-39.5 39.5-39.5 39.5 17.7 39.5 39.5-17.7 39.5-39.5 39.5zm0-75c-19.6 0-35.5 15.9-35.5 35.5s15.9 35.5 35.5 35.5 35.5-15.9 35.5-35.5-15.9-35.5-35.5-35.5z" fill="#231f20"/></svg>