<svg enable-background="new 0 0 80 80" viewBox="0 0 80 80" xmlns="http://www.w3.org/2000/svg" xmlns:xlink="http://www.w3.org/1999/xlink"><clipPath id="a"><circle cx="40" cy="40" r="36.9"/></clipPath><clipPath id="b"><circle cx="40" cy="40" r="36.9"/></clipPath><g clip-path="url(#a)"><path d="m-11.3 3.1h110.8v73.9h-110.8z" fill="#e5000e"/><path d="m-11.3 21.5h110.8v36.9h-110.8z" fill="#ffd500"/><g stroke="#7f2210"><path d="m33 32-.3.8-.5.8-1.6 1.1h-9.8l-1.2-1-.9-1-.1-.6-.2-.2c.7-.6 1.7-1.2 2.9-1.1 2.1.1 1.6-.7 4.4-.7s2.3.8 4.4.7c1.2 0 2.3.6 2.9 1.2z" fill="#e41a24" stroke-width=".047882"/><path d="m25.7 34.2c-2 0-3.8.2-5 .6-.1 0-.2 0-.2-.1s0-.2.1-.2c1.3-.4 3.1-.7 5.1-.7 2.1 0 3.9.2 5.1.7.1 0 .2.1.1.2 0 .1-.1.1-.2.1-1.3-.3-3-.6-5-.6" fill="#e5ad00" stroke-width=".047882"/><path d="m25.7 32.6h.2v.2c0 .4.3.7.7.7.3 0 .6-.2.7-.5l.1-.2v.2c.1.3.3.6.7.6s.7-.3.7-.7v-.1l.2-.2.2.2c-.1.1-.1.2-.1.3 0 .3.3.7.7.7.2 0 .5-.1.6-.3l.2-.2v.2c0 .2.1.4.3.5 0 0 .2 0 .6-.2.3-.2.5-.5.5-.5v.2s-.2.4-.6.6c-.2.1-.4.2-.7.2-.2 0-.3-.2-.4-.4-.2.1-.3.2-.5.2-.4 0-.8-.2-.9-.6-.2.2-.5.3-.7.3-.3 0-.7-.2-.8-.4-.2.2-.4.2-.7.2s-.7-.2-.9-.4c-.2.2-.5.4-.9.4-.2 0-.5-.1-.7-.2-.2.2-.5.4-.8.4s-.6-.2-.7-.3c-.2.3-.5.6-.9.6-.2 0-.3-.1-.5-.2-.1.2-.2.3-.4.4-.2 0-.5-.1-.7-.2-.3-.2-.6-.6-.6-.6v-.2s.2.2.5.5c.3.2.6.2.6.2.2 0 .3-.2.3-.5v-.2l.2.2c.1.2.3.3.6.3.4 0 .7-.3.7-.7 0-.1 0-.2-.1-.3l.1-.2.2.2v.2c0 .4.3.7.7.7.3 0 .7-.2.7-.6v-.2l.1.2c.1.2.3.5.7.5s.7-.3.7-.7c0-.1 0-.2 0-.2h.1" fill="#e5ad00" stroke-width=".047882"/><path d="m29.3 31.4-.2.2-.2-.5c.3-.2.6-.6.6-1 0-.1 0-.1 0-.2 0-.7-.8-1.2-1.8-1.2-.5 0-1 .2-1.3.3 0-.1 0-.2 0-.2.3-.2.8-.3 1.3-.3 1.2 0 2.1.7 2.1 1.4v.2c0 .4-.2.7-.5 1z" fill="#e5ad00" stroke-width=".047882"/><path d="m22.1 31.2c-.3-.2-.5-.7-.5-1 0-.1 0-.1 0-.2.1-.7.9-1.4 2.1-1.4.5 0 1 .2 1.3.3v.2c-.3-.2-.8-.3-1.3-.3-1 0-1.7.5-1.8 1.2v.2c0 .4.2.7.6 1l-.3.5-.2-.2z" fill="#e5ad00" stroke-width=".047882"/><path d="m25.7 28.4c.2 0 .5.2.6.4 0 .2.1.4.1.7v.2c0 .5.1 1 .2 1.2l-.8.7-.8-.7c.1-.2.2-.7.2-1.2v-.2c0-.2 0-.5.1-.7-.1-.2.1-.4.4-.4" fill="#e5ad00" stroke-width=".047882"/><path d="m25.7 28.7c.2 0 .2.1.2.2 0 .2.1.4.1.7v.2c0 .5.1.9.2 1.2l-.5.5-.5-.5c.1-.2.2-.7.2-1.2v-.2c0-.2 0-.4.1-.7-.1-.1 0-.2.2-.2" fill="#e5ad00" stroke-width=".047882"/><path d="m29.3 31.4c.4-.3.6-.7.6-1.2s-.3-.9-.8-1.2c.3.2.5.6.5.9v.2c0 .4-.2.7-.5 1z" fill="#e5ad00" stroke-width=".047882"/><path d="m32.7 31.9c.2-.2.3-.6.3-.9 0-.2-.1-.4-.2-.6-.3-.7-1.3-1.2-2.5-1.2-.3 0-.7 0-.9.1.1.1.1.2.2.2.2-.1.5-.1.7-.1 1.1 0 2 .4 2.2 1 .1.2.1.3.1.5 0 .3-.2.7-.4.8l.4.7.2-.2z" fill="#e5ad00" stroke-width=".047882"/><path d="m32.3 29.8c.2.2.5.4.6.7.1.2.2.4.2.6 0 .3-.2.7-.3.9l.2.4c.2-.3.3-.7.3-1 0-.7-.5-1.2-1-1.6" fill="#e5ad00" stroke-width=".047882"/><path d="m22.1 31.2c-.3-.2-.5-.7-.5-1 0-.1 0-.1 0-.2 0-.3.2-.7.5-.9-.5.3-.8.7-.8 1.2 0 .4.2.8.6 1.2z" fill="#e5ad00" stroke-width=".047882"/><path d="m18.6 31.9-.2.4.2.2.4-.7c-.2-.2-.4-.5-.4-.8 0-.2 0-.3.1-.5.2-.6 1.2-1 2.2-1 .2 0 .5 0 .7.1.1-.1.1-.2.2-.2-.2-.1-.6-.1-.9-.1-1.2 0-2.1.5-2.5 1.2-.1.2-.2.4-.2.6.1.3.2.6.4.8" fill="#e5ad00" stroke-width=".047882"/><path d="m19 29.8c-.6.3-1 .9-1 1.5 0 .3.2.7.3 1l.2-.4c-.2-.2-.3-.6-.3-.9 0-.2.1-.4.2-.6s.4-.4.6-.6" fill="#e5ad00" stroke-width=".047882"/><path d="m17.9 32.5c0-.1.1-.2.2-.2s.2.1.2.2-.1.2-.2.2c-.1-.1-.2-.1-.2-.2z" fill="#fff" stroke-width=".047882"/><path d="m17.8 32.1c0-.1.1-.2.2-.2s.2.1.2.2-.1.2-.2.2c-.2-.1-.2-.1-.2-.2z" fill="#fff" stroke-width=".047882"/><path d="m17.6 31.7c0-.1.1-.2.2-.2s.2.1.2.2-.1.2-.2.2c-.1-.1-.2-.2-.2-.2z" fill="#fff" stroke-width=".047882"/><path d="m17.6 31.2c0-.1.1-.2.2-.2s.2.1.2.2-.1.2-.2.2c-.2-.1-.2-.2-.2-.2z" fill="#fff" stroke-width=".047882"/><path d="m17.7 30.7c0-.1.1-.2.2-.2s.2.1.2.2-.1.2-.2.2-.2-.1-.2-.2z" fill="#fff" stroke-width=".047882"/><path d="m17.9 30.3c0-.1.1-.2.2-.2s.2.1.2.2-.1.2-.2.2c-.1-.1-.2-.2-.2-.2z" fill="#fff" stroke-width=".047882"/><path d="m18.3 29.9c0-.1.1-.2.2-.2s.2.1.2.2-.1.2-.2.2c-.1-.1-.2-.1-.2-.2z" fill="#fff" stroke-width=".047882"/><path d="m18.7 29.6c0-.1.1-.2.2-.2s.2.1.2.2-.1.2-.2.2-.2-.1-.2-.2z" fill="#fff" stroke-width=".047882"/><path d="m19.1 29.4c0-.1.1-.2.2-.2s.2.1.2.2-.1.2-.2.2c-.1-.1-.2-.2-.2-.2z" fill="#fff" stroke-width=".047882"/><path d="m19.6 29.2c0-.1.1-.2.2-.2s.2.1.2.2-.1.2-.2.2-.2-.1-.2-.2z" fill="#fff" stroke-width=".047882"/><path d="m20.2 29.1c0-.1.1-.2.2-.2s.2.1.2.2-.1.2-.2.2c-.2 0-.2-.1-.2-.2z" fill="#fff" stroke-width=".047882"/><path d="m20.7 29c0-.1.1-.2.2-.2s.2.1.2.2-.1.2-.2.2c-.2 0-.2-.1-.2-.2z" fill="#fff" stroke-width=".047882"/><path d="m21.2 29.1c0-.1.1-.2.2-.2s.2.1.2.2-.1.2-.2.2c-.2-.1-.2-.1-.2-.2z" fill="#fff" stroke-width=".047882"/><path d="m21.6 29.1c0-.1.1-.2.2-.2s.2.1.2.2-.1.2-.2.2c-.1-.1-.2-.1-.2-.2z" fill="#fff" stroke-width=".047882"/><path d="m21.4 29.5c0-.1.1-.2.2-.2s.2.1.2.2-.1.2-.2.2-.2-.1-.2-.2" fill="#fff" stroke-width=".047882"/><path d="m21.3 30c0-.1.1-.2.2-.2s.2.1.2.2-.1.2-.2.2c-.2-.1-.2-.1-.2-.2" fill="#fff" stroke-width=".047882"/><path d="m21.2 30.4c0-.1.1-.2.2-.2s.2.1.2.2-.1.2-.2.2-.2-.1-.2-.2" fill="#fff" stroke-width=".047882"/><path d="m21.4 30.8c0-.1.1-.2.2-.2s.2.1.2.2-.1.2-.2.2-.2-.1-.2-.2" fill="#fff" stroke-width=".047882"/><path d="m21.6 31.2c0-.1.1-.2.2-.2s.2.1.2.2-.1.2-.2.2-.2-.1-.2-.2" fill="#fff" stroke-width=".047882"/><path d="m22 28.8c0-.1.1-.2.2-.2s.2.1.2.2-.1.2-.2.2c-.1-.1-.2-.1-.2-.2z" fill="#fff" stroke-width=".047882"/><path d="m22.5 28.5c0-.1.1-.2.2-.2s.2.1.2.2-.1.2-.2.2-.2-.1-.2-.2z" fill="#fff" stroke-width=".047882"/><path d="m23 28.4c0-.1.1-.2.2-.2s.2.1.2.2-.1.2-.2.2c-.2-.1-.2-.2-.2-.2z" fill="#fff" stroke-width=".047882"/><path d="m23.5 28.3c0-.1.1-.2.2-.2s.2.1.2.2-.1.2-.2.2c-.2-.1-.2-.1-.2-.2z" fill="#fff" stroke-width=".047882"/><path d="m24 28.3c0-.1.1-.2.2-.2s.2.1.2.2-.1.2-.2.2c-.2-.1-.2-.1-.2-.2z" fill="#fff" stroke-width=".047882"/><path d="m24.4 28.4c0-.1.1-.2.2-.2s.2.1.2.2-.1.2-.2.2c-.1-.1-.2-.2-.2-.2z" fill="#fff" stroke-width=".047882"/><path d="m24.9 28.5c0-.1.1-.2.2-.2s.2.1.2.2-.1.2-.2.2-.2-.1-.2-.2z" fill="#fff" stroke-width=".047882"/><path d="m25.4 31.1c0-.2.2-.2.2-.2.2 0 .2.1.2.2s-.2.2-.2.2c-.1 0-.2-.1-.2-.2z" fill="#fff" stroke-width=".047882"/><path d="m25.4 30.5c0-.2.2-.2.2-.2.2 0 .2.1.2.2s-.2.2-.2.2c-.1.1-.2 0-.2-.2" fill="#fff" stroke-width=".047882"/><path d="m25.4 29.9c0-.1.1-.2.2-.2s.2.1.2.2-.1.2-.2.2c-.1.1-.2 0-.2-.2" fill="#fff" stroke-width=".047882"/><path d="m25.5 29.4c0-.1.1-.2.2-.2s.2.1.2.2-.1.2-.2.2-.2-.1-.2-.2" fill="#fff" stroke-width=".047882"/><path d="m25.5 29c0-.1.1-.2.2-.2s.2.1.2.2-.1.1-.2.1-.2 0-.2-.1" fill="#fff" stroke-width=".047882"/><path d="m33.2 32.6c-.1 0-.2-.1-.2-.2s.1-.2.2-.2.2.1.2.2-.1.2-.2.2z" fill="#fff" stroke-width=".047882"/><path d="m33.4 32.2c-.1 0-.2-.1-.2-.2s.1-.2.2-.2.2.1.2.2c0 .2-.1.2-.2.2z" fill="#fff" stroke-width=".047882"/><path d="m33.5 31.8c-.1 0-.2-.1-.2-.2s.1-.2.2-.2.2.1.2.2 0 .2-.2.2z" fill="#fff" stroke-width=".047882"/><path d="m33.6 31.3c-.1 0-.2-.1-.2-.2s.1-.2.2-.2.2.1.2.2-.1.2-.2.2z" fill="#fff" stroke-width=".047882"/><path d="m33.4 30.8c-.1 0-.2-.1-.2-.2s.1-.2.2-.2.2.1.2.2c0 .2-.1.2-.2.2z" fill="#fff" stroke-width=".047882"/><path d="m33.2 30.4c-.1 0-.2-.1-.2-.2s.1-.2.2-.2.2.1.2.2c-.1.1-.1.2-.2.2z" fill="#fff" stroke-width=".047882"/><path d="m32.8 30c-.1 0-.2-.1-.2-.2s.1-.2.2-.2.2.1.2.2c0 .2-.1.2-.2.2z" fill="#fff" stroke-width=".047882"/><path d="m32.5 29.8c-.1 0-.2-.1-.2-.2s.1-.2.2-.2.2.1.2.2c-.1.1-.1.2-.2.2z" fill="#fff" stroke-width=".047882"/><path d="m32 29.5c-.1 0-.2-.1-.2-.2s.1-.2.2-.2.2.1.2.2-.1.2-.2.2z" fill="#fff" stroke-width=".047882"/><path d="m31.5 29.4c-.1 0-.2-.1-.2-.2s.1-.2.2-.2.2.1.2.2-.1.2-.2.2z" fill="#fff" stroke-width=".047882"/><path d="m31 29.3c-.1 0-.2-.1-.2-.2s.1-.2.2-.2.2.1.2.2-.1.2-.2.2z" fill="#fff" stroke-width=".047882"/><path d="m30.5 29.2c-.1 0-.2-.1-.2-.2s.1-.2.2-.2.2.1.2.2-.1.2-.2.2z" fill="#fff" stroke-width=".047882"/><path d="m30 29.2c-.1 0-.2-.1-.2-.2s.1-.2.2-.2.2.1.2.2c-.1.2-.1.2-.2.2z" fill="#fff" stroke-width=".047882"/><path d="m29.5 29.2c-.1 0-.2-.1-.2-.2s.1-.2.2-.2.2.1.2.2c-.1.2-.1.2-.2.2z" fill="#fff" stroke-width=".047882"/><path d="m29.9 29.5c0 .1-.1.2-.2.2s-.2-.1-.2-.2.1-.2.2-.2c.2.1.2.1.2.2" fill="#fff" stroke-width=".047882"/><path d="m30 30c0 .1-.1.2-.2.2s-.2-.1-.2-.2.1-.2.2-.2c.2 0 .2 0 .2.2" fill="#fff" stroke-width=".047882"/><path d="m30 30.4c0 .1-.1.2-.2.2s-.2-.1-.2-.2.1-.2.2-.2c.2.1.2.1.2.2" fill="#fff" stroke-width=".047882"/><path d="m29.9 30.8c0 .1-.1.2-.2.2s-.2-.1-.2-.2.1-.2.2-.2c.1.2.2.2.2.2" fill="#fff" stroke-width=".047882"/><path d="m29.6 31.2c0 .1-.1.2-.2.2s-.2-.1-.2-.2.1-.2.2-.2c.2.1.2.2.2.2" fill="#fff" stroke-width=".047882"/><path d="m29.1 28.9c-.1 0-.2-.1-.2-.2s.1-.2.2-.2.2.1.2.2c0 .2-.1.2-.2.2z" fill="#fff" stroke-width=".047882"/><path d="m28.7 28.7c-.1 0-.2-.1-.2-.2s.1-.2.2-.2.2.1.2.2c-.1.1-.1.2-.2.2z" fill="#fff" stroke-width=".047882"/><path d="m28.2 28.5c-.1 0-.2-.1-.2-.2s.1-.2.2-.2.2.1.2.2-.1.2-.2.2z" fill="#fff" stroke-width=".047882"/><path d="m27.7 28.4c-.1 0-.2-.1-.2-.2s.1-.2.2-.2.2.1.2.2c-.1.2-.1.2-.2.2z" fill="#fff" stroke-width=".047882"/><path d="m27.2 28.4c-.1 0-.2-.1-.2-.2s.1-.2.2-.2.2.1.2.2c-.1.2-.1.2-.2.2z" fill="#fff" stroke-width=".047882"/><path d="m26.7 28.5c-.1 0-.2-.1-.2-.2s.1-.2.2-.2.2.1.2.2c-.1.1-.1.2-.2.2z" fill="#fff" stroke-width=".047882"/><path d="m26.2 28.7c-.1 0-.2-.1-.2-.2s.1-.2.2-.2.2.1.2.2c-.1.1-.1.2-.2.2z" fill="#fff" stroke-width=".047882"/><path d="m25 27.9c0-.3.3-.7.7-.7s.7.2.7.7c0 .3-.3.6-.7.6s-.7-.3-.7-.6" fill="#3861ab" stroke-width=".047882"/><path d="m26.3 27.8h-.5v-1h.4v-.3h-.3v-.3h-.3v.3h-.3v.3h.3v1h-.6v.1c0 .1 0 .2.1.2h1.2c0-.1.1-.2.1-.2-.1-.1-.1-.1-.1-.1z" fill="#e5ad00" stroke-width=".047882"/><path d="m22.1 33c-.1 0-.1-.1-.1-.2s0-.2 0-.2l-.2-.1c-.1 0-.3 0-.3 0-.1 0-.2 0-.2 0s0 0 0 .1.1.1.1.1c-.2.1-.3.2-.4.3.2.1.3.2.5.2v.2.1s.1 0 .2-.1c.1 0 .2-.1.3-.2s.1-.2.1-.2z" fill="#e5ad00" stroke-width=".047882"/><path d="m25.9 32.6c.1-.1.1-.1.1-.2s0-.2-.1-.2c0 0 .2-.1.2-.2.1-.1.3-.1.4-.1s.2 0 .2 0 0 0 0 .1-.1.2-.1.2c.2 0 .4.1.6.2-.2.2-.3.2-.6.2 0 0 0 .1.1.2v.1h-.2c-.1 0-.2-.1-.4-.1-.1-.1-.2-.2-.2-.2z" fill="#e5ad00" stroke-width=".047882"/><path d="m20.6 33.1c-.2-.1-.4-.1-.6-.1v-.1c0-.1 0-.1 0-.1s-.1.1-.2.1c-.1.1-.3.2-.3.2-.1.1-.2.2-.2.2s.1-.3 0-.6c-.1-.2-.3-.2-.3-.2v.2c-.1-.1-.2-.2-.3-.2-.2 0-.4.2-.4.4 0 0 .3 0 .5.1s.3.4.3.4c.1-.1.2-.1.3 0s.1.1.1.2h.2.4s.2 0 .2 0 0 0-.1-.1-.1-.1-.1-.1c.2-.1.4-.2.5-.3z" fill="#e5ad00" stroke-width=".047882"/><path d="m22.6 32.9c0-.1.1-.1 0-.2 0-.1-.1-.1-.1-.2 0 0 .1-.1.2-.2s.2-.1.3-.2c.1 0 .2-.1.2-.1s0 0 0 .1v.2c.2 0 .4.1.5.2-.1.2-.2.2-.4.3 0 0 0 0 .1.1v.1s-.1 0-.2 0-.2 0-.3 0c-.2 0-.3-.1-.3-.1z" fill="#e5ad00" stroke-width=".047882"/><path d="m25.4 32.6c-.1 0-.1-.1-.1-.2s0-.2.1-.2c0 0-.2-.1-.2-.2-.1-.1-.3-.1-.4-.1s-.2 0-.2 0 0 0 0 .1.1.2.1.2c-.2 0-.4.1-.6.2.2.2.3.2.6.2 0 0 0 .1-.1.2v.1h.2c.1 0 .2-.1.4-.1.1-.1.2-.2.2-.2z" fill="#e5ad00" stroke-width=".047882"/><path d="m26.1 31.5c-.1 0-.2.1-.2.1 0-.2-.2-.4-.3-.6-.2.2-.2.3-.2.6 0 0 0 0-.2-.1-.1 0-.2 0-.2 0l.1.2c0 .1.1.2.2.4s.2.2.2.2c.1-.1.2-.1.2-.1.1 0 .2.1.2.1s.1-.1.2-.2c.1-.2.1-.3.1-.4s.1-.2.1-.2-.1-.1-.2 0z" fill="#e5ad00" stroke-width=".047882"/><path d="m22.5 31.8c-.1.1-.1.1 0 0-.2-.1-.2-.2-.4-.3-.1.2-.2.3-.2.5 0 0 0 0-.2-.1-.1 0-.2 0-.2 0s.1.1.1.2.1.2.2.3.2.2.2.2c0-.1.1-.1.2-.2.1 0 .2 0 .2.1 0 0 .1-.1.1-.2 0-.2 0-.4 0-.5.1 0 .1-.1 0 0 .1-.1.1-.1 0 0z" fill="#e5ad00" stroke-width=".047882"/><path d="m28.7 32.7c0-.1.1-.1.1-.2 0 0-.1-.1-.2-.2s-.2-.1-.3-.2c-.1 0-.2-.1-.2-.1s0 0 0 .1v.2c-.2 0-.4.1-.5.2.1.2.2.2.4.3 0 0 0 0-.1.1 0 .1-.1.1-.1.1h.2.3c.2 0 .2-.1.2-.1.2-.1.2-.1.2-.2z" fill="#e5ad00" stroke-width=".047882"/><path d="m29.6 31.9c-.1 0-.2.1-.2.1 0-.2 0-.4-.2-.5-.2.1-.3.2-.3.4 0 0 0 0-.1-.1s-.2-.1-.2-.1v.2c0 .1 0 .2.1.3 0 .2.1.2.1.2.1-.1.2-.1.2-.1.1 0 .2.1.2.2 0 0 .1-.1.2-.2s.2-.2.2-.3z" fill="#e5ad00" stroke-width=".047882"/><path d="m29.9 33.1c.2 0 .4-.1.5-.2-.1-.2-.2-.2-.4-.3 0 0 0-.1.1-.1 0-.1 0-.1 0-.1s-.1 0-.2 0-.2 0-.3 0c-.2 0-.2.1-.2.1 0 .1.1.1 0 .2 0 .1-.1.1-.1.2 0 0 .1.1.2.2h.4c0 .1.1.2.1.2s0 0-.1-.2z" fill="#e5ad00" stroke-width=".047882"/><path d="m32.8 32.6c-.2 0-.2.1-.3.2v-.2s-.2 0-.3.2 0 .6 0 .6-.2-.2-.2-.3c-.1-.1-.2-.2-.3-.2-.1-.1-.2-.1-.2-.1s0 0 0 .1 0 .1 0 .1c-.2 0-.4 0-.6.1.1.2.2.2.4.3 0 0-.1.1-.2.1-.1.1-.1.1-.1.1h.2.4.2c0-.1.1-.1.1-.2.1-.1.2-.1.3 0s.2-.3.3-.4c.2-.1.5-.1.5-.1.2-.2 0-.3-.2-.3z" fill="#e5ad00" stroke-width=".047882"/><path d="m22 32.7c0-.2.2-.3.3-.3.2 0 .3.2.3.3 0 .2-.2.3-.3.3s-.3-.1-.3-.3" fill="#e41a24" stroke-width=".047882"/><path d="m28.7 32.7c0-.2.2-.3.3-.3.2 0 .3.2.3.3 0 .2-.2.3-.3.3-.2.1-.3-.1-.3-.3" fill="#e41a24" stroke-width=".047882"/><path d="m32.3 33.4c-.1-.1-.2-.1-.3 0s-.2.2-.1.3.2.1.3 0c.2-.1.2-.2.1-.3" fill="#e41a24" stroke-width=".047882"/><path d="m19.1 33.4c.1-.1.2-.1.3 0s.2.2.1.3-.2.1-.3 0c-.2-.1-.2-.2-.1-.3" fill="#e41a24" stroke-width=".047882"/><path d="m25.4 32.5c0-.2.2-.3.3-.3.2 0 .3.2.3.3 0 .2-.2.3-.3.3-.2 0-.3-.2-.3-.3" fill="#e41a24" stroke-width=".047882"/><path d="m25.7 36.5c-1.8 0-3.5-.2-4.6-.6-.1 0-.2-.1-.1-.2 0-.1 0-.2.1-.2 1.2-.3 2.8-.6 4.6-.6s3.5.2 4.6.6c.1 0 .2.1.1.2 0 .1 0 .2-.1.2-1.2.5-2.8.6-4.6.6" fill="#e5ad00" stroke-width=".047882"/><path d="m25.7 35c-2.1 0-3.7.3-4.5.6.1-.1 0-.2-.1-.4-.2-.4-.3-.3-.3-.3 1.2-.4 3-.6 5-.6s3.8.2 5 .6c0 0-.2 0-.3.3s-.2.4 0 .5c-1.4-.4-3-.7-4.8-.7" fill="#e5ad00" stroke-width=".047882"/><path d="m30.6 33.6c0-.2 0-.2-.1-.2s-.2.1-.2.2c-.1.1 0 .2.1.2s.2-.1.2-.2" fill="#fff" stroke-width=".047882"/><path d="m27.5 33c0-.2-.1-.2-.2-.2s-.2.1-.2.2c0 .2.1.2.2.2.1-.1.2-.1.2-.2" fill="#fff" stroke-width=".047882"/><path d="m23.9 33c0-.2.1-.2.2-.2s.2.1.2.2c0 .2-.1.2-.2.2-.1-.1-.2-.1-.2-.2" fill="#fff" stroke-width=".047882"/><path d="m20.7 33.6c0-.2 0-.2.1-.2s.2.1.2.2 0 .2-.1.2-.2-.1-.2-.2" fill="#fff" stroke-width=".047882"/><path d="m24.3 34.6c0-.1.1-.2.2-.2s.2.1.2.2-.1.2-.2.2c-.2 0-.2-.1-.2-.2" fill="#fff" stroke-width=".047882"/><path d="m25.2 34.8c-.1 0-.2-.1-.2-.2s.1-.2.2-.2h1c.1 0 .2.1.2.2s-.1.2-.2.2z" fill="#e41a24" stroke-width=".047882"/><path d="m23.5 34.5-.7.1c-.1 0-.2.1-.2.2s.1.2.2.2l.7-.1c.1 0 .2-.1.2-.2s-.1-.2-.2-.2z" fill="#008e6e" stroke-width=".047882"/><path d="m21.8 35c0-.1.1-.2.2-.2s.2.1.2.2-.1.2-.2.2c-.1-.1-.2-.2-.2-.2" fill="#fff" stroke-width=".047882"/><path d="m20.7 35.2.2-.2.5.1-.4.3z" fill="#e41a24" stroke-width=".047882"/><path d="m28.5 35c.1 0 .2-.1.2-.2s-.1-.2-.2-.2l-.7-.1c-.1 0-.2.1-.2.2s.1.2.2.2z" fill="#008e6e" stroke-width=".047882"/><path d="m26.8 34.6c0-.1.1-.2.2-.2s.2.1.2.2-.1.2-.2.2c-.2 0-.2-.1-.2-.2" fill="#fff" stroke-width=".047882"/><path d="m29.2 35c0-.1.1-.2.2-.2s.2.1.2.2-.1.2-.2.2c-.2-.1-.2-.2-.2-.2" fill="#fff" stroke-width=".047882"/><path d="m30.6 35.2-.1-.2h-.5l.4.3z" fill="#e41a24" stroke-width=".047882"/><path d="m25.7 36.3c-1.6 0-3.1-.2-4.2-.5 1.2-.3 2.6-.5 4.2-.5s3.1.2 4.2.5c-1.1.3-2.6.5-4.2.5" fill="#e41a24" stroke-width=".047882"/><path d="m21.2 35.9c1.2-.3 2.7-.5 4.4-.5s3.3.2 4.4.5" fill="none" stroke-linecap="round" stroke-linejoin="round" stroke-width=".047882"/><path d="m25.8 36.3v-.9" fill="none" stroke-width=".011049"/><path d="m25.5 36.3v-.9" fill="none" stroke-width=".017189"/><path d="m25.3 36.3v-.9" fill="none" stroke-width=".022099"/><path d="m25 36.3v-.9" fill="none" stroke-width=".028239"/><path d="m24.8 36.3v-.9" fill="none" stroke-width=".034377"/><path d="m24.4 36.3v-.8m.2.8v-.9" fill="none" stroke-width=".040517"/><path d="m24 36.2v-.8m.2.9v-.8" fill="none" stroke-width=".045428"/><path d="m23.5 36.2v-.7m.1.7v-.7m.3.7v-.7" fill="none" stroke-width=".051566"/><path d="m23.3 36.2v-.7" fill="none" stroke-width=".056477"/><path d="m23.1 36.1v-.7" fill="none" stroke-width=".062617"/><path d="m23 36.1v-.6" fill="none" stroke-width=".068755"/><path d="m22.6 36v-.5m.2.6v-.5" fill="none" stroke-width=".073665"/><path d="m22.4 36v-.4" fill="none" stroke-width=".077349"/><path d="m22.2 36v-.3" fill="none" stroke-width=".083489"/><path d="m22.1 35.9v-.2" fill="none" stroke-width=".089627"/><path d="m21.8 35.9v-.2" fill="none" stroke-width=".094538"/><path d="m26.8 36.3v-.8m-.4.8v-.9m-.3.9v-.9" fill="none" stroke-width=".006138"/><path d="m36.6 35.7s-.1.1-.2.2c-.1 0-.2-.1-.2-.1s-.1.1-.2.1-.2-.1-.2-.1-.1.1-.2.2c-.1 0-.2 0-.2 0s0 .1-.1.1h-.1l-.1-.1-.1-.2h-.1s0-.2-.1-.2v-.1c0-.1.2-.2.3-.2s.2 0 .3 0c.1-.1.2-.1.5-.1.2 0 .3 0 .4.1.1-.1.2-.1.4-.1s.4.1.5.1.2 0 .3 0c.2.1.3.2.3.2v.1l-.1.2h.3v.1l-.1.1h-.1c-.1 0-.1-.1-.1-.1s-.1.1-.2 0c-.1 0-.2-.2-.2-.2s-.1.1-.2.1-.2-.1-.2-.1-.1.1-.2.1c.1 0-.1-.1-.1-.1" fill="#e41a24" stroke-width=".031923"/></g><path d="m37.8 35.9c-.1-.1-.2 0-.2-.1-.1 0-.2-.2-.2-.2s-.1.1-.2.1-.2-.1-.2-.1-.1.1-.2.1-.2-.1-.2-.1-.1.1-.2.2c-.1 0-.2-.1-.2-.1s0 .1-.2.1c-.1 0-.2-.1-.2-.1s-.1.1-.2.2c-.1 0-.2 0-.2 0s0 0 0 .1h-.1v.1c.2-.1.7-.2 1.1-.2z" fill="#e5ad00"/><path d="m36.7 35.5c0 .2.1.2.2.2s.2-.1.2-.1v-.1.1c0 .1.1.2.2.2s.2-.1.2-.2h.1v.1c0 .1.1.2.2.2s.1 0 .2-.1v-.1.1c0 .1 0 .1.1.1 0 0 .1 0 .2-.1s.1-.1.1-.1v.1s-.1.1-.2.2c0 0-.1.1-.2 0-.1 0-.1-.1-.1-.1h-.1c-.1 0-.2-.1-.2-.2 0 .1-.1.1-.2.1s-.2 0-.2-.1c-.1.1-.1.1-.2.1s-.2-.1-.2-.1c-.1.1-.1.1-.2.1s-.1 0-.2-.1c0 .1-.1.1-.2.1s-.2 0-.2-.1c0 .1-.1.2-.2.2s-.1 0-.1 0c0 .1-.1.1-.1.1-.1 0-.1 0-.2 0s-.2-.2-.2-.2v-.1l.1.1c.1.1.2.1.2.1.1 0 .1-.1.1-.1v-.1.1s.1.1.2.1.2-.1.2-.2v-.1h.1c0 .1.1.2.2.2s.2-.1.2-.2v-.1.1c0 .1.1.1.2.1-.1.1-.1 0 0-.2-.1 0-.1 0 0 0" fill="#e5ad00" stroke="#7f2210" stroke-width=".031923"/><path d="m36.5 35c0-.2.1-.3.2-.3s.2.2.2.3c0 .2-.1.3-.2.3s-.2-.1-.2-.3" fill="#e5ad00" stroke="#7f2210" stroke-width=".031923"/><path d="m36.6 35c0-.2 0-.2.1-.2s.1.1.1.2c0 .2-.1.2-.1.2-.1.1-.1 0-.1-.2" fill="#e5ad00" stroke="#7f2210" stroke-width=".031923"/><path d="m36.6 34.7c0-.1.1-.2.2-.2s.2.1.2.2-.1.2-.2.2c-.2 0-.2-.1-.2-.2" fill="#e5ad00" stroke="#7f2210" stroke-width=".031923"/><path d="m36.7 34.6v-.1h.1v-.1h-.1v-.1h-.1v.1.1.1h-.1v.1h.4v-.1z" fill="#e5ad00" stroke="#7f2210" stroke-width=".031923"/><path d="m35.6 36.2c0-.1-.1-.2-.1-.2.2-.1.7-.2 1.2-.2.4 0 .8.1 1.2.2 0 0 0 .1-.1.2 0 .1-.1.1-.1.1-.2-.1-.6-.1-1-.1s-.8.1-1 .2c-.1 0-.1-.1-.1-.2z" fill="#e5ad00" stroke="#7f2210" stroke-width=".031923"/><path d="m36.6 36.6c.3 0 .7-.1.9-.1.1 0 .2-.1.2-.2 0 0 0-.1-.1-.1-.2-.1-.6-.1-1-.1s-.7.1-1 .1c0 0-.1 0-.1.1s.1.1.2.2c.2 0 .6.1.9.1" fill="#e5ad00" stroke="#7f2210" stroke-width=".031923"/><path d="m36.6 35.9c-.4 0-.8.1-1.2.2h-.1s0 0 0-.1c.5-.1.9-.1 1.3-.1.5-.1.8 0 1.2.1v.1s0 0-.1 0c-.2-.2-.6-.2-1.1-.2" fill="#e5ad00" stroke="#7f2210" stroke-width=".031923"/><path d="m36.6 36.3c-.3 0-.7 0-.9.1.2.1.6.1.9.1s.7 0 .9-.1c-.1 0-.5-.1-.9-.1z" fill="#e41a24" stroke="#7f2210" stroke-width=".031923"/><path d="m36.2 36.1c0-.1.1-.1 0 0 .1-.1.2 0 .2 0s-.1 0-.2 0z" fill="#fff" stroke="#7f2210" stroke-width=".031923"/><path d="m36.8 36h-.3s-.1 0-.1.1c0 0 0 .1.1.1h.3c.1-.1.1-.1 0-.2.1 0 .1 0 0 0z" fill="#e41a24" stroke="#7f2210" stroke-width=".031923"/><path d="m36.1 36h-.2s-.1 0-.1.1c0 0 0 .1.1 0l.2-.1c0 .1 0 .1 0 0z" fill="#008e6e" stroke="#7f2210" stroke-width=".031923"/><path d="m35.6 36.2v.1l.1-.1z" fill="#e41a24" stroke="#7f2210" stroke-width=".031923"/><path d="m37 36.1c0-.1 0-.1 0 0 .1-.1.2 0 .2 0z" fill="#fff" stroke="#7f2210" stroke-width=".031923"/><path d="m37.5 36.1h-.2-.1s0 .1.1.1l.2-.1c0 .1 0 .1 0 0z" fill="#008e6e" stroke="#7f2210" stroke-width=".031923"/><path d="m37.7 36.2h-.1l.1.1h.1z" fill="#e41a24" stroke="#7f2210" stroke-width=".031923"/><path d="m37.7 35.8.1-.2v.2z" fill="#e5ad00"/><path d="m37.8 35.7c0 .1 0 .1 0 0-.1.1-.1 0 0 0-.1 0 0 0 0 0m0-.1-.1.2s.1 0 .1-.2c.1.1 0 0 0 0z" fill="#7f2210"/><path d="m37 35.5s.1 0 0 0c0 .1 0 .1 0 0zm0 0v.2h.1c-.1 0 0 0-.1-.2.1 0 .1 0 0 0z" fill="#7f2210"/><path d="m36.3 35.5c0 .1 0 .1 0 0 0 .1-.1.1 0 0-.1 0 0 0 0 0zm0 0c-.1.1-.1.1 0 0-.1.1-.1.2 0 .2s.1 0 0-.2z" fill="#7f2210"/><path d="m35.6 35.7c0 .1 0 .1 0 0zm0-.1c-.1.1-.1.1 0 0v.2s0-.1 0-.2z" fill="#7f2210"/><path d="m37.5 35.2c0-.1 0-.1 0 0 .1-.1.2 0 .2 0s-.1 0-.2 0z" fill="#fff" stroke="#7f2210" stroke-width=".025783"/><path d="m37.5 35c0-.1 0-.1 0 0 .1-.1.2 0 .2 0-.1 0-.1 0-.2 0zm-.2-.2s.1-.1 0 0c.1-.1.2 0 .2 0 0 .1 0 .1-.2 0 .1.1 0 .1 0 0zm-.2-.1c.1-.1.2 0 .2 0 0 .1-.1.1-.2 0 0 .1 0 .1 0 0zm-.2 0s.1 0 0 0c.1-.1.2 0 .2 0-.1.1-.1.1-.2 0 .1.1 0 .1 0 0z" fill="#fff" stroke="#7f2210" stroke-width=".025783"/><path d="m38.2 35.6c0-.1 0-.1 0-.2 0-.2-.2-.4-.4-.4-.1 0-.2 0-.2.1" fill="none" stroke="#7f2210" stroke-linecap="round" stroke-width=".031923"/><path d="m37.5 35.3s0-.1 0-.2c0-.2-.2-.3-.4-.3-.1 0-.2 0-.2.1" fill="none" stroke="#7f2210" stroke-width=".031923"/><path d="m38.3 35.4c.1-.1.2 0 .2 0-.1 0-.1 0-.2 0zm-.1-.2c0-.1.1-.1 0 0 .1-.1.2 0 .2 0s0 0-.2 0zm-.2-.2s.1 0 0 0c.1-.1.2 0 .2 0s0 0-.2 0zm-.1-.1c.1-.1.2 0 .2 0-.1.1-.1.1-.2 0 0 .1 0 .1 0 0zm-.3 0s.1 0 0 0c.1-.1.2 0 .2 0 0 .1 0 .1-.2 0 .1.1 0 .1 0 0z" fill="#fff" stroke="#7f2210" stroke-width=".025783"/><path d="m35.6 35.2c0-.1.1-.1 0 0 .1-.1.2 0 .2 0s-.1 0-.2 0z" fill="#fff" stroke="#7f2210" stroke-width=".025783"/><path d="m35.7 35c0-.1 0-.1 0 0 .1-.1.2 0 .2 0-.1 0-.1 0-.2 0zm.2-.2c.1-.1.2 0 .2 0-.1.1-.1.1-.2 0 0 .1 0 .1 0 0zm.2-.1c.1-.1.2 0 .2 0-.1.1-.2.1-.2 0 0 .1 0 .1 0 0zm.2 0c.1-.1.2 0 .2 0-.1.1-.1.1-.2 0 0 .1 0 .1 0 0z" fill="#fff" stroke="#7f2210" stroke-width=".025783"/><path d="m35.2 35.6c0-.1 0-.1 0-.2 0-.2.2-.4.4-.4.1 0 .2 0 .2.1" fill="none" stroke="#7f2210" stroke-linecap="round" stroke-width=".031923"/><path d="m35.9 35.3s-.1-.1-.1-.2c0-.2.2-.3.4-.3.1 0 .2 0 .2.1" fill="none" stroke="#7f2210" stroke-width=".031923"/><path d="m34.9 35.4s.1 0 0 0c.1-.1.2 0 .2 0s0 0-.2 0zm.1-.2c0-.1 0-.1 0 0 .1-.1.2 0 .2 0-.1 0-.1 0-.2 0zm.2-.2c.1-.1.2 0 .2 0-.2 0-.2 0-.2 0zm.1-.1c.1-.1.2 0 .2 0 0 .1-.1.1-.2 0 0 .1 0 .1 0 0zm.3 0c.1-.1.2 0 .2 0-.2.1-.2.1-.2 0z" fill="#fff" stroke="#7f2210" stroke-width=".025783"/><path d="m36.1 35.4-.2.1.1-.2h-.2l-.1.1.2.1h-.3v.1l.1.1.2-.1.1-.1.1.1.1-.1z" fill="#e5ad00" stroke="#7f2210" stroke-width=".031923"/><path d="m35.2 35.7v.1l.2-.1v-.1l-.1-.1z" fill="#e5ad00" stroke="#7f2210" stroke-width=".031923"/><path d="m36.7 35.4.1-.1-.2-.1v.1.1h-.1-.1l.1.1h.1.1.2l.1-.1h-.1z" fill="#e5ad00" stroke="#7f2210" stroke-width=".031923"/><path d="m37.6 35.5h-.1l.1-.1-.1-.1h-.1v.2l-.2-.1-.1.1.1.1.2-.1.1.1.1.1.1-.1z" fill="#e5ad00" stroke="#7f2210" stroke-width=".031923"/><path d="m38 35.5-.1.1v.1l.2.1v-.1z" fill="#e5ad00" stroke="#7f2210" stroke-width=".031923"/><path d="m35.2 35.5c-.1 0-.1 0 0 0-.1 0-.2 0-.2 0s.1 0 .2 0v.2-.2c0 .1 0 .1 0 0z" fill="#e5ad00" stroke="#7f2210" stroke-width=".031923"/><path d="m38.3 35.5c-.1 0-.1 0 0 0-.1 0-.1 0-.2.1v.1.1l.1-.1.1-.2c.1.1 0 0 0 0z" fill="#e5ad00" stroke="#7f2210" stroke-width=".031923"/><path d="m35.8 35.5s.1-.1 0 0c.1-.1.2 0 .2 0 0 .1 0 .1-.2 0 .1.1 0 .1 0 0" fill="#e5ad00" stroke="#7f2210" stroke-width=".031923"/><path d="m36.6 35.4c.1-.1.2 0 .2 0-.1.1-.1.1-.2 0 0 .1 0 .1 0 0" fill="#e5ad00" stroke="#7f2210" stroke-width=".031923"/><path d="m37.4 35.5c.1-.1.2 0 .2 0-.1.1-.1.1-.2 0 0 .1 0 .1 0 0" fill="#e5ad00" stroke="#7f2210" stroke-width=".031923"/><path d="m35.2 35.8v-.1l.1.1-.1.1z" fill="#e5ad00"/><path d="m35.2 35.7c0 .1 0 .1 0 0zm0 0c-.1.1-.1.2 0 .2h.1.1s0 0 0-.1-.1-.1-.2-.1z" fill="#7f2210"/><path d="m38 35.8.1-.1v.1.1z" fill="#e5ad00"/><path d="m38.1 35.7c.1 0 0 .1 0 0 0 .1 0 .1 0 0-.1.1-.1.1 0 0zm0 0c-.1.1-.1.1 0 0-.1.1-.1.1-.1.2h.1.1c0-.1 0-.1-.1-.2.1 0 .1 0 0 0z" fill="#7f2210"/><path d="m15.8 35.9s.2-.1.3-.2c.6-.5-.2-.9-.4-.8-.2-.2-.7-.3-1-.2-.4-.2-.8 0-1 .2-.2-.1-1 .3-.4.8.1.1.3.2.3.2z" fill="#e41a24" stroke="#7f2210" stroke-width=".031923"/><path d="m14.7 35.9h-.7l-.1-.6c-.2-.2-.4-.4-.4-.4 0-.1 0-.1.1-.1.2-.1.6.2.8.6l.1.1h.6l.1-.1c.2-.4.7-.7.8-.6v.2c-.1 0-.2.2-.4.4l-.1.6z" fill="#e5ad00" stroke="#7f2210" stroke-width=".031923"/><path d="m13.5 35c.2-.1.5.2.7.6" fill="none" stroke="#7f2210" stroke-width=".031923"/><path d="m15.9 35c-.2-.1-.5.2-.7.6" fill="none" stroke="#7f2210" stroke-width=".031923"/><path d="m14.5 35c0-.2.1-.3.2-.3s.2.2.2.3c0 .2-.1.3-.2.3s-.2-.1-.2-.3z" fill="#e5ad00" stroke="#7f2210" stroke-width=".031923"/><path d="m14.6 35c0-.2.1-.3.1-.3.1 0 .1.2.1.3 0 .2 0 .3-.1.3s-.1-.2-.1-.3z" fill="#e5ad00" stroke="#7f2210" stroke-width=".031923"/><path d="m14.6 34.5c0-.1.1-.2.2-.2s.2.1.2.2-.1.2-.2.2-.2-.1-.2-.2" fill="#e5ad00" stroke="#7f2210" stroke-width=".031923"/><path d="m14.9 34.5-.4.1v-.1h.2v-.2h-.1v-.1h.1v-.1h.1v.1h.1v.1h-.1z" fill="#e5ad00" stroke="#7f2210" stroke-width=".036834"/><path d="m15.9 35.9-1.2-.3-1.2.3v.1c.2-.1.7-.2 1.1-.2.5.1 1 .1 1.3.1z" fill="#e5ad00"/><path d="m13.7 36.3c0-.1-.1-.2-.1-.2.3-.1.7-.2 1.2-.2.4 0 .8.1 1.2.2 0 0 0 .1-.1.2 0 .1-.1.1-.1.1-.2-.1-.6-.1-1-.2-.5 0-.9.1-1.1.1z" fill="#e5ad00" stroke="#7f2210" stroke-width=".031923"/><path d="m14.7 36.6c.3 0 .7-.1.9-.1.1 0 .2-.1.2-.2 0 0 0-.1-.1-.1-.2-.1-.6-.1-1-.1s-.7.1-1 .1c0 0-.1 0-.1.1s.1.1.2.2c.1 0 .5.1.9.1" fill="#e5ad00"/><path d="m14.7 36.6c.3 0 .7-.1.9-.1.1 0 .2-.1.2-.2 0 0 0-.1-.1-.1-.2-.1-.6-.1-1-.1s-.7.1-1 .1c0 0-.1 0-.1.1s.1.1.2.2c.1 0 .5.1.9.1z" fill="none" stroke="#7f2210" stroke-width=".031923"/><path d="m15.9 35.9c-.1-.1-.2 0-.2-.1-.1 0-.2-.2-.2-.2s-.1.1-.2.1-.2-.1-.2-.1-.1.1-.2.1-.2-.2-.2-.2-.1.1-.2.2c-.1 0-.2-.1-.2-.1s0 .1-.2.1c-.1 0-.2-.1-.2-.1s-.1.1-.2.2c-.1 0-.2 0-.2 0s0 0 0 .1h-.1v.1c.2-.1.7-.2 1.1-.2.6.1 1.1.1 1.4.1z" fill="none" stroke="#7f2210" stroke-width=".031923"/><path d="m14.7 35.5s0 .1 0 0c0 .2.1.2.2.2s.2-.1.2-.1v-.1.1c0 .1.1.2.2.2s.2-.1.2-.2l.1-.1v.1.1c0 .1.1.2.2.2s.1 0 .2-.1v.1c0 .1 0 .1.1.1 0 0 .1 0 .2-.1s.1-.1.1-.1v.1s-.1.2-.2.2c0 0-.1.1-.2 0-.1 0-.1-.1-.1-.1h-.1c-.1 0-.2-.1-.2-.2-.1.1-.1.1-.2.1s-.2 0-.2-.1c0 0-.1.1-.2.1s-.2-.1-.2-.1c-.1.1-.1.1-.2.1s-.1 0-.2-.1c-.1.1-.1.1-.2.1s-.2 0-.2-.1c0 .1-.1.2-.2.2h-.1c0 .1-.1.1-.1.1-.1 0-.1 0-.2 0s-.2-.2-.2-.2v-.1l.1.1c.1.1.2.1.2.1.1 0 .1-.1.1-.1s.1.1.2.1.2-.1.2-.2v-.1-.1l.1.1c0 .1.1.2.2.2s.2-.1.2-.2v-.1.1c0 .1.1.1.2.1-.1 0-.1-.1 0-.3-.1.1-.1 0 0 0z" fill="#e5ad00" stroke="#7f2210" stroke-width=".031923"/><path d="m14.7 35.9c-.4 0-.8.1-1.2.2h-.1s0 0 0-.1c.4-.1.8-.1 1.3-.1.5-.1.9 0 1.2.1v.1s0 0-.1 0c-.2-.1-.7-.2-1.1-.2z" fill="#e5ad00" stroke="#7f2210" stroke-linejoin="round" stroke-width=".031923"/><path d="m14.2 36.1c0-.1.1-.1 0 0 .1-.1.2 0 .2 0s0 .1-.2 0c.1.1 0 0 0 0z" fill="#fff" stroke="#7f2210" stroke-width=".031923"/><path d="m14.7 36.1h-.2s-.1 0-.1-.1c0 0 0-.1.1-.1h.3s.1 0 .1.1c0 0 0 .1-.1.1z" fill="#e41a24" stroke="#7f2210" stroke-width=".031923"/><path d="m14 36.2c-.1 0-.2 0-.2-.1v-.1h.1.1.1s0 .1-.1.2z" fill="#008e6e"/><path d="m14 36.2c-.1 0-.2 0-.2-.1v-.1h.1.1.1s0 .1-.1.2z" fill="none" stroke="#7f2210" stroke-width=".031923"/><path d="m13.6 36.3.2-.1z" fill="#e41a24" stroke="#7f2210" stroke-width=".031923"/><path d="m15 36.1c0-.1.1-.1 0 0 .1-.1.2 0 .2 0-.1 0-.1.1-.2 0 .1.1 0 0 0 0z" fill="#fff" stroke="#7f2210" stroke-width=".031923"/><path d="m15.5 36.2c.1 0 .1 0 0 0 .1-.1.1-.1 0 0l-.2-.1h-.1s0 .1.1.1z" fill="#008e6e" stroke="#7f2210" stroke-width=".031923"/><path d="m15.8 36.3-.2-.1z" fill="#e41a24" stroke="#7f2210" stroke-width=".031923"/><path d="m14.7 36.5c-.3 0-.7 0-.9-.1.2-.1.6-.1.9-.1s.7 0 .9.1c-.2.1-.5.1-.9.1z" fill="#e41a24" stroke="#7f2210" stroke-linejoin="round" stroke-width=".031923"/><path d="m15.8 35.7c0 .1 0 .1 0 0-.1.1-.1.1 0 0zm0-.1-.1.2h.1s.1 0 0-.2c.1.1.1.1 0 0z" fill="#7f2210"/><path d="m15.1 35.5c0 .1 0 .1 0 0zm0 0c-.1.1-.1.2-.1.2s0 0 .1 0 0 0 0-.2z" fill="#7f2210"/><path d="m14.3 35.5c.1.1 0 .1 0 0 0 .1 0 .1 0 0zm0 0c-.1 0-.1.1 0 0-.1.2-.1.2 0 .2.1-.1.1-.1 0-.2.1 0 .1 0 0 0z" fill="#7f2210"/><path d="m13.6 35.7s.1 0 0 0c.1.1.1.1 0 0 0 .1 0 .1 0 0zm0-.1c-.1 0-.1.1 0 0v.2h.1l-.1-.2c.1.1.1 0 0 0z" fill="#7f2210"/><path d="m14.7 35.2-.2.1.1.2h.1z" fill="#e5ad00" stroke="#7f2210" stroke-width=".031923"/><path d="m14.4 35.5h.2v-.1l-.2-.1z" fill="#e5ad00" stroke="#7f2210" stroke-width=".031923"/><path d="m15 35.5h-.2v-.1l.2-.1z" fill="#e5ad00" stroke="#7f2210" stroke-width=".031923"/><path d="m13.9 35.3.1.2h.1l.1-.2z" fill="#e5ad00" stroke="#7f2210" stroke-width=".031923"/><path d="m13.7 35.6h.2v-.1z" fill="#e5ad00" stroke="#7f2210" stroke-width=".031923"/><path d="m14.2 35.5-.2.1v-.1z" fill="#e5ad00" stroke="#7f2210" stroke-width=".031923"/><path d="m13.5 35.6-.2.1v-.1l.2-.2z" fill="#e5ad00" stroke="#7f2210" stroke-width=".031923"/><path d="m13.8 35.5s.1-.1 0 0c.1-.1.2 0 .2 0 0 .1 0 .1-.2 0 .1.1 0 .1 0 0" fill="#e5ad00"/><path d="m13.8 35.5s.1-.1 0 0c.1-.1.2 0 .2 0 0 .1 0 .1-.2 0 .1.1 0 .1 0 0z" fill="none" stroke="#7f2210" stroke-width=".031923"/><path d="m15.6 35.3-.1.2h-.1l-.1-.2z" fill="#e5ad00" stroke="#7f2210" stroke-width=".031923"/><path d="m15.7 35.6h-.2v-.1z" fill="#e5ad00" stroke="#7f2210" stroke-width=".031923"/><path d="m15.2 35.5.2.1v-.1z" fill="#e5ad00" stroke="#7f2210" stroke-width=".031923"/><path d="m15.9 35.6.2.1v-.1l-.1-.2z" fill="#e5ad00" stroke="#7f2210" stroke-width=".031923"/><path d="m14.6 35.4c.1-.1.2 0 .2 0-.1.1-.1.1-.2 0 0 .1 0 .1 0 0z" fill="#e5ad00" stroke="#7f2210" stroke-width=".031923"/><path d="m15.4 35.5c.1-.1.2 0 .2 0 0 .1-.1.1-.2 0 0 .1 0 .1 0 0z" fill="#e5ad00" stroke="#7f2210" stroke-width=".031923"/><path d="m13.2 35.8-.2-.2h.1.1v.2c0-.2 0-.1 0 0 0-.1 0 0 0 0z" fill="#e5ad00" stroke="#7f2210" stroke-width=".031923"/><path d="m13.2 35.8v-.1l.1.1-.1.1z" fill="#e5ad00"/><path d="m13.2 35.7c.1.1.1.1 0 0zm0 0c-.1.1-.1.2 0 .2h.1.1v-.1c-.1 0-.1-.1-.2-.1z" fill="#7f2210"/><path d="m16.2 35.8.2-.2h-.1-.1v.2c-.1-.2-.1-.1 0 0-.1-.1-.1 0 0 0z" fill="#e5ad00" stroke="#7f2210" stroke-width=".031923"/><path d="m16 35.8.1-.1.1.1-.1.1z" fill="#e5ad00"/><path d="m16.1 35.7s.1 0 0 0c0 .1 0 .1 0 0-.1.1-.1.1 0 0zm0 0c-.1.1-.1.1-.1.2h.1.1c0-.1 0-.2-.1-.2.1 0 .1 0 0 0z" fill="#7f2210"/><path d="m13.5 50.1h2.4v-11.7h-2.4z" fill="#fff" stroke="#7f2210" stroke-width=".047882"/><path d="m15.2 38.4v11.7m.3-11.7v11.7" fill="none" stroke="#7f2210" stroke-width=".047882"/><path d="m12.8 47.2c-.3.2-.6.4-.5.5 0 .1.1.2.2.2.2.2.4.5.2.6.2-.2.3-.4.3-.7.1-.2 0-.4-.2-.6" fill="#e41a24" stroke="#7f2210" stroke-width=".047882"/><path d="m18.4 42.8c-.5-.2-1.4-.4-2.4-.4-.3 0-.7 0-1.2.1-1.4.2-2.6.8-2.5 1.3l-.6-1.2c-.1-.5 1.2-1.2 2.7-1.4.5-.1 1-.1 1.4-.1 1 0 1.9.2 2.5.3v1.4" fill="#e41a24" stroke="#7f2210" stroke-width=".047882"/><path d="m13.5 44.3c-.7-.1-1.2-.2-1.2-.5s.2-.5.6-.7c.2 0 .4.1.6.1z" fill="#e41a24" stroke="#7f2210" stroke-width=".047882"/><path d="m15.9 43.4c.4.1.7.2.9.3.1.2-.3.5-.9.8z" fill="#e41a24" stroke="#7f2210" stroke-width=".047882"/><path d="m12 46.5c-.1-.2.6-.6 1.5-.9.4-.2.7-.3 1.2-.5 1.2-.6 2.2-1.2 2.1-1.5.1.1.2 1.2.2 1.2.1.2-.7.8-1.9 1.4-.4.2-1.2.5-1.6.6-.7.2-1.3.7-1.2.8z" fill="#e41a24" stroke="#7f2210" stroke-width=".047882"/><path d="m13.3 42.2c.3-.1.5-.2.4-.5-.1-.2-.2-.2-.4-.1l-.4.2.3.9s.1 0 .1-.1h.2zm-.1-.4c.2 0 .2 0 .3.1 0 .1 0 .2-.1.2 0 0-.1 0-.1.1z" fill="#e5ad00"/><path d="m14.2 41.4c-.1 0-.1 0-.2 0s-.1 0-.2 0l.2.9.7-.2s0 0 0-.1c0 0 0 0 0-.1-.1 0-.2.1-.4.1z" fill="#e5ad00"/><path d="m15.6 42.2c.1-.3.2-.7.4-1h-.1-.1c-.1.2-.2.5-.2.7-.1-.2-.2-.4-.3-.7-.1 0-.1 0-.2 0s-.1 0-.2 0c.2.4.3.7.7 1-.1 0-.1 0 0 0z" fill="#e5ad00"/><path d="m17 41.5c0-.1.1-.1.1-.2l-.2-.1c-.2 0-.4.1-.4.2 0 .3.5.3.5.5 0 .1-.1.2-.2.2s-.2-.1-.2-.2c0 .1-.1.1-.1.2.1.1.2.1.2.1.2 0 .5-.1.5-.2 0-.3-.5-.3-.5-.5 0-.1.1-.2.2-.1-.1 0 0 0 .1.1z" fill="#e5ad00"/><path d="m17 51.9c-.2 0-.4-.1-.6-.2-.1 0-.3-.1-.5-.1s-.4.1-.6.1c-.2.1-.3.2-.6.2s-.4-.1-.6-.2-.3-.1-.6-.1-.4.1-.6.1c-.2.1-.3.2-.6.2v.3c.2 0 .4-.1.6-.2s.3-.1.6-.1.4.1.6.1c.2.1.3.2.6.2s.4-.1.6-.2.3-.2.6-.2.4.1.6.2.3.2.6.2z" fill="#3861ab" stroke="#7f2210" stroke-width=".047882"/><path d="m17 52.3c-.2 0-.4-.1-.6-.2-.2 0-.4-.1-.6-.1s-.4.1-.6.2-.3.2-.6.2-.4-.1-.6-.2-.3-.1-.6-.1-.4.1-.6.1c-.2.1-.3.2-.6.2v.3c.2 0 .4-.1.6-.2s.3-.1.6-.1.4.1.6.1c.2.1.3.2.6.2s.4-.1.6-.2.3-.1.6-.1.4.1.6.1c.2.1.3.2.6.2z" fill="#fff" stroke="#7f2210" stroke-width=".047882"/><path d="m17 52.7c-.2 0-.4-.1-.6-.2s-.3-.1-.6-.1-.4.1-.6.1c-.2.1-.3.2-.6.2s-.4-.1-.6-.2-.3-.1-.6-.1-.4.1-.6.1c-.2.1-.3.2-.6.2v.3c.2 0 .4-.1.6-.2s.3-.1.6-.1.4.1.6.1c.2.1.3.2.6.2s.4-.1.6-.2.3-.1.6-.1.4.1.6.1c.2.1.3.2.6.2z" fill="#3861ab" stroke="#7f2210" stroke-width=".047882"/><path d="m17 53.3c-.2 0-.4-.1-.6-.2s-.3-.1-.6-.1-.4.1-.6.1c-.1.2-.3.2-.5.2s-.4-.1-.6-.2-.3-.1-.6-.1-.4 0-.6.1c-.2.2-.3.2-.6.2v-.3c.2 0 .4-.1.6-.2s.3-.1.6-.1.4.1.6.1c.2.1.3.2.6.2s.4-.1.6-.2.3-.1.6-.1c.2 0 .4.1.6.1.2.1.3.2.6.2z" fill="#fff" stroke="#7f2210" stroke-width=".047882"/><path d="m17 53.7c-.2 0-.4-.1-.6-.2s-.3-.2-.6-.2-.4.1-.6.2-.3.2-.6.2-.4-.1-.6-.2-.3-.1-.6-.1-.4.1-.6.1c-.2.1-.3.2-.6.2v-.3c.2 0 .4-.1.6-.2s.3-.1.6-.1.4.1.6.1c.2.1.3.2.6.2s.4-.1.6-.2.3-.1.6-.1.4.1.6.1c.2.1.3.2.6.2z" fill="#3861ab" stroke="#7f2210" stroke-width=".047882"/><path d="m13.4 50.5c0 .3-.2.5-.4.5h3.4c-.2 0-.4-.2-.4-.4v-.1h-.1z" fill="#e5ad00" stroke="#7f2210" stroke-width=".047882"/><path d="m13.5 50.3h2.5c.1 0 .2.1.2.1 0 .1-.1.1-.2.1h-2.5c-.1 0-.2-.1-.2-.1s.1-.1.2-.1" fill="#e5ad00" stroke="#7f2210" stroke-width=".047882"/><path d="m13 51.8h3.4v-.8h-3.4z" fill="#e5ad00" stroke="#7f2210" stroke-width=".047882"/><path d="m13.1 37.4h3.3v-.8h-3.3z" fill="#e5ad00" stroke="#7f2210" stroke-width=".047882"/><path d="m13.4 38h2.6c-.1 0-.2-.1-.2-.2s.1-.2.2-.2h-2.5-.1c.1 0 .2.1.2.2s-.1.2-.2.2" fill="#e5ad00" stroke="#7f2210" stroke-width=".047882"/><path d="m13.5 38h2.5c.1 0 .2.1.2.1 0 .1-.1.1-.2.1h-2.5c-.1 0-.2-.1-.2-.1s.1-.1.2-.1" fill="#e5ad00" stroke="#7f2210" stroke-width=".047882"/><path d="m13.5 37.4h2.5c.1 0 .2.1.2.1 0 .1-.1.1-.2.1h-2.5c-.1 0-.2-.1-.2-.1s.1-.1.2-.1" fill="#e5ad00" stroke="#7f2210" stroke-width=".047882"/><path d="m35 37.4h3.3v-.8h-3.3z" fill="#e5ad00" stroke="#7f2210" stroke-width=".047882"/><path d="m38 38h-2.6-.1c.1 0 .2-.1.2-.2s-.1-.2-.2-.2h.1 2.5.1c-.1 0-.2.1-.2.2s.1.2.2.2" fill="#e5ad00" stroke="#7f2210" stroke-width=".047882"/><path d="m35.5 38h2.5c.1 0 .2.1.2.1 0 .1-.1.1-.2.1h-2.5c-.1 0-.2-.1-.2-.1s.1-.1.2-.1" fill="#e5ad00" stroke="#7f2210" stroke-width=".047882"/><path d="m35.5 37.4h2.5c.1 0 .2.1.2.1 0 .1-.1.1-.2.1h-2.5c-.1 0-.2-.1-.2-.1s.1-.1.2-.1" fill="#e5ad00" stroke="#7f2210" stroke-width=".047882"/><path d="m34.4 51.9c.2 0 .4-.1.6-.2s.3-.1.6-.1.4.1.6.1c.2.1.3.2.6.2s.4-.1.6-.2.3-.1.6-.1.4.1.6.1c.2.1.3.2.6.2v.3c-.2 0-.4-.1-.6-.2-.3 0-.5 0-.7 0s-.4.1-.6.1c-.2.1-.3.2-.6.2s-.4-.1-.6-.2-.3-.2-.6-.2-.3.1-.5.2-.3.2-.6.2z" fill="#3861ab" stroke="#7f2210" stroke-width=".047882"/><path d="m34.4 52.3c.2 0 .4-.1.6-.2s.3-.2.6-.2.4.1.6.2.3.2.6.2.4-.1.6-.2.3-.1.6-.1.4.1.6.1c.2.1.3.2.6.2v.3c-.2 0-.4-.1-.6-.2s-.3-.1-.6-.1-.4.1-.6.1c-.2.1-.3.2-.6.2s-.4-.1-.6-.2-.3-.1-.6-.1-.4.1-.6.1c-.2.1-.3.2-.6.2z" fill="#fff" stroke="#7f2210" stroke-width=".047882"/><path d="m34.4 52.7c.2 0 .4-.1.6-.2s.3-.1.6-.1.4.1.6.1c.2.1.3.2.6.2s.4-.1.6-.2.3-.1.6-.1.4.1.6.1c.2.1.3.2.6.2v.3c-.2 0-.4-.1-.6-.2s-.3-.1-.6-.1-.4.1-.6.1c-.3.1-.4.2-.7.2s-.4-.1-.6-.2-.3-.1-.6-.1-.4.1-.6.1c-.2.1-.3.2-.6.2z" fill="#3861ab" stroke="#7f2210" stroke-width=".047882"/><path d="m34.4 53.3c.2 0 .4-.1.6-.2s.3-.1.6-.1.4.1.6.1c.2.1.3.2.6.2s.4-.1.6-.2.3-.1.6-.1.4 0 .6.1c.1.2.3.2.5.2v-.3c-.2 0-.4-.1-.6-.2s-.3-.1-.6-.1-.4.1-.6.1c-.3.1-.4.2-.7.2s-.4-.1-.6-.2-.3-.1-.6-.1-.4.1-.6.1c-.2.1-.3.2-.6.2z" fill="#fff" stroke="#7f2210" stroke-width=".047882"/><path d="m34.4 53.7c.2 0 .4-.1.6-.2s.3-.2.6-.2.4.1.6.2.3.2.6.2.4-.1.6-.2.3-.1.6-.1.4.1.6.1c.2.1.3.2.6.2v-.3c-.2 0-.4-.1-.6-.2s-.3-.1-.6-.1-.4.1-.6.1c-.2.1-.4.1-.6.1s-.4-.1-.6-.2-.3-.1-.6-.1-.4.1-.6.1c-.2.2-.4.2-.6.2z" fill="#3861ab" stroke="#7f2210" stroke-width=".047882"/><path d="m38 50.5c0 .3.2.5.4.5h-3.4c.2 0 .4-.2.4-.4v-.1h.1z" fill="#e5ad00" stroke="#7f2210" stroke-width=".047882"/><path d="m35.5 50.3h2.5c.1 0 .2.1.2.1 0 .1-.1.1-.2.1h-2.5c-.1 0-.2-.1-.2-.1 0-.1.1-.1.2-.1" fill="#e5ad00" stroke="#7f2210" stroke-width=".047882"/><path d="m35 51.8h3.4v-.8h-3.4z" fill="#e5ad00" stroke="#7f2210" stroke-width=".047882"/><path d="m38.6 47.2c.3.2.6.4.5.5 0 .1-.2.2-.2.2-.2.2-.4.5-.2.6-.2-.2-.3-.4-.3-.7-.1-.2 0-.4.2-.6" fill="#e41a24" stroke="#7f2210" stroke-width=".047882"/><path d="m35.5 50.1h2.4v-11.7h-2.4z" fill="#fff" stroke="#7f2210" stroke-width=".047882"/><path d="m37.2 38.4v11.7m.3-11.7v11.7" fill="none" stroke="#7f2210" stroke-width=".047882"/><path d="m33 42.8c.5-.2 1.4-.4 2.5-.4.3 0 .7 0 1.2.1 1.4.2 2.6.8 2.5 1.3s.5-1.2.6-1.2c.1-.5-1.2-1.2-2.7-1.4-.6-.2-1.1-.2-1.5-.2-1 0-1.9.2-2.5.3z" fill="#e41a24" stroke="#7f2210" stroke-width=".047882"/><path d="m37.9 44.3c.7-.1 1.2-.2 1.2-.5s-.2-.5-.6-.7c-.2 0-.4.1-.6.1z" fill="#e41a24" stroke="#7f2210" stroke-width=".047882"/><path d="m35.5 43.4c-.4.1-.7.2-.9.3-.1.2.3.5.9.8z" fill="#e41a24" stroke="#7f2210" stroke-width=".047882"/><path d="m39.4 46.5c.1-.2-.6-.6-1.5-.9-.4-.2-.7-.3-1.2-.5-1.2-.6-2.2-1.2-2.1-1.5-.1.1-.2 1.2-.2 1.2-.1.2.7.8 1.9 1.4.4.2 1.2.5 1.6.6.7.2 1.3.7 1.2.8z" fill="#e41a24" stroke="#7f2210" stroke-width=".047882"/><path d="m34.5 42.3c.1-.3.2-.7.3-1h-.1-.1c-.1.2-.2.5-.2.7-.2-.2-.3-.4-.4-.7-.1 0-.1 0-.2 0s-.1 0-.2 0c.2.2.4.6.7.9.1.1.1.1.2.1z" fill="#e5ad00"/><path d="m35.4 41.3c-.1 0-.1 0-.2 0s-.1 0-.2 0v.9h.7s0 0 0-.1v-.1c-.1 0-.2 0-.4 0z" fill="#e5ad00"/><path d="m36.5 41.4c.1 0 .2 0 .3.1 0 0 0 0 0-.1 0 0 0 0 0-.1l-.9-.1v.1.1h.3l-.1.8h.2.2z" fill="#e5ad00"/><path d="m36.9 42.4h.2s.1 0 .2 0l.1-.4c0 .1.1.2.1.2l.2.3h.2s.1 0 .2 0h-.2c-.1-.2-.2-.3-.2-.4.2 0 .3-.1.3-.2s0-.2-.1-.2c-.1-.1-.2-.1-.2-.1l-.3-.1zm.4-.9c.1 0 .2 0 .2.2v.1c0 .2-.2.2-.3.2z" fill="#e5ad00"/><path d="m38.5 42.6c0 .1 0 .2-.1.3.1 0 .1 0 .2.1.1 0 .1.1.2.1l.1-1.1h-.1s0 0-.1 0l-.9.6h.1.1c.1-.1.2-.1.2-.2zm-.2-.2.3-.2v.3z" fill="#e5ad00"/><path d="m25.7 54c-1.9 0-3.9-.5-5.4-1.2-1.2-.6-2-1.7-2-3.1v-4.9h14.8v4.9c0 1.3-.7 2.6-2 3.1-1.5.7-3.4 1.2-5.4 1.2" fill="#fff" stroke="#7f2210" stroke-width=".047882"/><path d="m26.1 51.8v-.2s-.1 0-.2 0-.1.1-.1.1v-.1l-.1-.1s-.1 0-.1.1c-.1.1-.1.1-.1.1l-.1-.1c-.1 0-.2 0-.2 0v.1.1c-.3 0-.5.3-.5.6s.3.6.8.6c.4 0 .8-.2.8-.6.2-.3 0-.6-.2-.6z" fill="#fed692" stroke="#7f2210" stroke-width=".063844"/><path d="m24.9 52.9c-.3-.1-.7 0-.8 0l.2.2c.1.1.3.2.5.2.5.1.9 0 .9 0s-.6-.3-.8-.4z" fill="#008e6e" stroke="#7f2210" stroke-width=".063844"/><path d="m26.6 52.9c-.4.1-.7.4-.7.4s.1 0 .2 0 .4 0 .7 0 .5-.2.6-.2c.1-.1.2-.2.2-.2-.2.1-.5 0-1 0z" fill="#008e6e" stroke="#7f2210" stroke-width=".063844"/><path d="m25.8 51.8c-.2.2-.2.3-.2.6s.1.4.2.6c.2-.2.2-.3.2-.6s-.1-.5-.2-.6z" fill="#e41a24" stroke="#7f2210" stroke-width=".063844"/><path d="m25.8 53c-.1 0-.1.2-.1.3 0 .2-.1.4-.1.4h.1.1s0-.2 0-.3c0-.2 0-.4 0-.4z" fill="#008e6e" stroke="#7f2210" stroke-width=".063844"/><path d="m25.7 36.4h-7.4v13.1c0 2 1.6 3.5 3.7 3.5s3.7-1.6 3.7-3.5z" fill="#e41a24" stroke="#7f2210" stroke-width=".047882"/><path d="m25.7 44.7h-.8v7.2c.5-.6.8-1.4.8-2.2z" fill="#e5ad00" stroke="#7f2210" stroke-width=".047882"/><path d="m19.9 44.7v7.8c.2.2.5.3.8.4v-8.2z" fill="#e5ad00" stroke="#7f2210" stroke-width=".047882"/><path d="m18.3 44.7v4.9c0 .8.3 1.6.8 2.2v-7.1z" fill="#e5ad00" stroke="#7f2210" stroke-width=".047882"/><path d="m23.2 44.7v8.2c.3-.1.6-.2.8-.4v-7.8z" fill="#e5ad00" stroke="#7f2210" stroke-width=".047882"/><path d="m21.6 44.7v8.4h.4s.2 0 .4 0v-8.4z" fill="#e5ad00" stroke="#7f2210" stroke-width=".047882"/><path d="m24.9 44.7h-5.8" fill="none" stroke="#7f2210" stroke-width=".047882"/><path d="m25.7 44.7h7.4v-8.2h-7.4c0-.1 0 8.2 0 8.2z" fill="#fff" stroke="#7f2210" stroke-width=".047882"/><path d="m33.1 44.7v4.9c0 2-1.6 3.5-3.7 3.5s-3.7-1.6-3.7-3.5v-4.9z" fill="#e41a24" stroke="#7f2210" stroke-width=".047882"/><path d="m29.1 48.6c-.1 0-.1 0 0 0l-.7-.1v-.2h.7s0 0 0-.1l-.7-.8.2-.2.7.8v-1.2h.2v1.2l.7-.8.2.2-.7.8s0 .1.1.1h.6v.2h-.6v.1l.7.8-.2.2-.7-.8v1.3h-.2v-1.3l-.7.8-.2-.2z" fill="#e5ad00" stroke="#7f2210" stroke-width=".031923"/><path d="m30.3 51.6c-.2.1-.3.2-.6.2-.1-.1-.2-.2-.2-.2v-1h-.2v1c-.1 0-.2.1-.2.2-.2 0-.4-.1-.6-.2l-.2.2c.2.1.4.2.7.2 0 .2.2.3.4.3s.3-.2.4-.3c.2 0 .5-.1.7-.2zm-.9.5c-.1 0-.2-.1-.2-.2s.1-.2.2-.2.2.1.2.2-.1.2-.2.2z" fill="#e5ad00" stroke="#7f2210" stroke-width=".031923"/><path d="m31.8 50.5c.1-.2.2-.5.2-.7h-.2c0 .2-.1.4-.2.7-.1 0-.2 0-.2 0l-.7-.7-.2.2.7.7c-.1.2-.1.3 0 .4-.2.2-.3.3-.5.4l.1.2c.2-.2.4-.3.6-.5.2 0 .2 0 .4-.1.1-.2.1-.4 0-.6zm-.2.4c-.1.1-.2.1-.2 0-.1-.1-.1-.2 0-.2.1-.1.2-.1.2 0 .1.1 0 .1 0 .2z" fill="#e5ad00" stroke="#7f2210" stroke-width=".031923"/><path d="m32.3 48.5c0-.2-.1-.3-.2-.3v-.8h-.2v.8c-.1 0-.2.2-.2.2h-.7v.2h.7c0 .1.2.2.2.2v.6h.1v-.6c.1 0 .3-.2.3-.3zm-.4.1c-.1 0-.2-.1-.2-.2s.1-.2.2-.2.2.1.2.2c-.1.1-.2.2-.2.2z" fill="#e5ad00" stroke="#7f2210" stroke-width=".031923"/><path d="m31.9 45.3c-.2 0-.3.1-.4.2h-.7v.2h.7v.1l-1 1.2.2.2.9-1.1h.1v.8h.2v-.8c.2-.1.2-.2.2-.3.2-.3-.1-.5-.2-.5zm0 .6c-.1 0-.2-.1-.2-.2s.1-.2.2-.2.2.1.2.2c-.1.1-.2.2-.2.2z" fill="#e5ad00" stroke="#7f2210" stroke-width=".031923"/><path d="m29.7 45.6c-.1-.2-.2-.2-.4-.2s-.3.1-.4.2h-.6v.2h.6c0 .1.2.2.2.2v.5h.3v-.5c.1 0 .2-.2.2-.2h.7v-.2zm-.3.3c-.1 0-.2-.1-.2-.2s.1-.2.2-.2.2.1.2.2-.1.2-.2.2z" fill="#e5ad00" stroke="#7f2210" stroke-width=".031923"/><path d="m27.2 45.9.7-.1v-.2h-.7c-.1-.2-.2-.2-.4-.2s-.4.2-.4.4.1.3.2.3v.8h.4v-.8l.9 1.1.2-.2zm-.3 0c-.1 0-.2-.1-.2-.2s.1-.2.2-.2.2.1.2.2-.1.2-.2.2z" fill="#e5ad00" stroke="#7f2210" stroke-width=".031923"/><path d="m27.2 48.3c0-.1-.2-.2-.2-.2v-.8h-.2v.7c-.2.1-.2.2-.2.3 0 .2.1.3.2.3v.6h.2v-.6c.1-.1.2-.2.2-.3l.7.1v-.2zm-.3.3c-.1 0-.2-.1-.2-.2s.1-.2.2-.2.2.1.2.2-.1.2-.2.2z" fill="#e5ad00" stroke="#7f2210" stroke-width=".031923"/><path d="m27.6 51c.1-.2.1-.3 0-.4l.7-.7-.2-.2-.7.7c-.1 0-.2 0-.2 0-.1-.1-.2-.4-.2-.6h-.2c0 .2.1.5.2.7-.2.2-.2.4.1.5.1.1.2.1.4.1.2.2.3.3.6.5l.2-.2c-.4-.1-.6-.2-.7-.4zm-.2-.2c-.1.1-.2.1-.2 0-.1-.1-.1-.2 0-.2.1-.1.2-.1.2 0z" fill="#e5ad00" stroke="#7f2210" stroke-width=".031923"/><path d="m26.8 50-.2-.1v-.7l.2-.1v.4z" fill="#e5ad00" stroke="#7f2210" stroke-width=".031923"/><path d="m27 49.2.2.1s0 .4 0 .3 0 .3 0 .3l-.2.1c0-.2 0-.2 0-.4z" fill="#e5ad00" stroke="#7f2210" stroke-width=".031923"/><path d="m26.8 46.6-.3.1v.7l.3.1z" fill="#e5ad00" stroke="#7f2210" stroke-width=".031923"/><path d="m27 46.6.2.1v.7l-.2.1z" fill="#e5ad00" stroke="#7f2210" stroke-width=".031923"/><path d="m28.6 45.8-.1.3h-.7l-.1-.3z" fill="#e5ad00" stroke="#7f2210" stroke-width=".031923"/><path d="m28.6 45.6-.1-.3h-.7l-.1.3z" fill="#e5ad00" stroke="#7f2210" stroke-width=".031923"/><path d="m27.8 51.3c.2.2.5.3.7.4l.1-.2c-.2-.1-.4-.2-.6-.3z" fill="#e5ad00" stroke="#7f2210" stroke-width=".031923"/><path d="m27.7 51.5c.2.2.5.3.7.4l-.2.2c-.2-.1-.4-.2-.6-.3z" fill="#e5ad00" stroke="#7f2210" stroke-width=".031923"/><path d="m28.1 50 .2.1.5-.5-.2-.2z" fill="#e5ad00" stroke="#7f2210" stroke-width=".031923"/><path d="m27.9 49.9-.2-.2.5-.5.2.1z" fill="#e5ad00" stroke="#7f2210" stroke-width=".031923"/><path d="m31.9 50 .2-.1v-.7l-.2-.1v.4z" fill="#e5ad00" stroke="#7f2210" stroke-width=".031923"/><path d="m31.7 49.2h-.2s0 .4 0 .3 0 .3 0 .3l.2.1c0-.2 0-.2 0-.4z" fill="#e5ad00" stroke="#7f2210" stroke-width=".031923"/><path d="m30.9 51.3c-.2.2-.5.3-.7.4l-.2-.3c.2-.1.4-.2.6-.3z" fill="#e5ad00" stroke="#7f2210" stroke-width=".031923"/><path d="m31 51.5c-.2.2-.5.3-.7.4l.2.2c.2-.1.4-.2.6-.3v-.3" fill="#e5ad00" stroke="#7f2210" stroke-width=".031923"/><path d="m31.7 46.6-.3.1v.7l.3.1z" fill="#e5ad00" stroke="#7f2210" stroke-width=".031923"/><path d="m31.9 46.6.3.1v.7l-.3.1z" fill="#e5ad00" stroke="#7f2210" stroke-width=".031923"/><path d="m30.6 50-.2.1-.4-.5v-.2z" fill="#e5ad00" stroke="#7f2210" stroke-width=".031923"/><path d="m30.8 49.9.2-.2-.5-.5-.2.1z" fill="#e5ad00" stroke="#7f2210" stroke-width=".031923"/><path d="m28.1 46.8.1-.1.5.5-.1.2z" fill="#e5ad00" stroke="#7f2210" stroke-width=".031923"/><path d="m27.8 47-.1.1.5.5h.2z" fill="#e5ad00" stroke="#7f2210" stroke-width=".031923"/><path d="m30.7 46.8-.2-.2-.5.6.1.2z" fill="#e5ad00" stroke="#7f2210" stroke-width=".031923"/><path d="m30.9 47 .1.1-.5.5h-.2z" fill="#e5ad00" stroke="#7f2210" stroke-width=".031923"/><path d="m27.7 48.3.1-.3h.7l.1.3z" fill="#e5ad00" stroke="#7f2210" stroke-width=".031923"/><path d="m27.7 48.5.1.3h.7l.1-.3z" fill="#e5ad00" stroke="#7f2210" stroke-width=".031923"/><path d="m31 48.3-.1-.3h-.7l-.1.3z" fill="#e5ad00" stroke="#7f2210" stroke-width=".031923"/><path d="m31 48.5-.1.3h-.7l-.1-.3z" fill="#e5ad00" stroke="#7f2210" stroke-width=".031923"/><path d="m29.5 50.7h.2v-.7l-.2-.1z" fill="#e5ad00" stroke="#7f2210" stroke-width=".031923"/><path d="m29.2 50.7h-.2v-.7l.2-.1z" fill="#e5ad00" stroke="#7f2210" stroke-width=".031923"/><path d="m29.2 46.4-.2.1v.7l.2.1zm.3 0 .2.1v.7h-.2z" fill="#e5ad00" stroke="#7f2210" stroke-width=".031923"/><path d="m30.1 45.8.1.3h.8v-.3z" fill="#e5ad00" stroke="#7f2210" stroke-width=".031923"/><path d="m30.1 45.6.1-.3h.8v.3z" fill="#e5ad00" stroke="#7f2210" stroke-width=".031923"/><path d="m29 48.5c0-.2.2-.4.4-.4s.4.2.4.4-.2.4-.4.4c-.3-.1-.4-.3-.4-.4" fill="#008e6e" stroke="#7f2210" stroke-width=".031923"/><path d="m20.8 38.3h-.2v-.2h-.2v.6h.2v.4h-.5v1.1h.2v2.1h-.6v1.2h4.3v-1.2h-.6v-2.1h.2v-1.1h-.5v-.4h.2v-.6h-.2v.2h-.1v-.2h-.2v.2h-.2v-.2h-.2v.6h.2v.4h-.5v-1.1h.2v-.6h-.2v.2h-.1v-.2h-.2v.2h-.2v-.2h-.2v.6h.2v1.2h-.3v-.4h.2v-.6h-.2v.2h-.2v-.2zm-.9 5.2h4.2m-4.2-.2h4.2m-4.2-.4h4.2m-4.2-.2h4.2m-4.2-.3h4.2m-3.6-.3h3.1m-3.1-.2h3.1m-3.1-.4h3.1m-3.1-.2h3.1m-3.1-.3h3.1m-3.1-.2h3.1m-3.1-.3h3.1m-3.4-.3h3.6m-3.6-.2h3.6m-3.6-.4h3.6m-3.6-.2h3.6m-3.1-.2h2.6m-1.6-.4h.5m-.5-.2h.5m-.5-.3h.5m-.5-.3h.5m-.7-.3h1.1m-1.9 1.1h.6m-.8-.3h1m-1 5v-.2m0-.4v-.2m-.3.2v.2m.5.2v-.3m.3.5v-.2m0-.4v-.2m0-.3v-.2m0-.3v-.3m-.3 1.1v-.3m-.5.3v-.3m1 0v.3m.3-.3v-.2m-.8-.3v.2m.5-.2v.2m.5-.2v.2m-.2-.2v-.3m.2-.3v.2m0-.7v.2m-.2-.5v.2m.2-.5v.2m-.5-.2v.2m-.5-.2v.2m-.2-.4v.2m.5-.2v.2m.5-.2v.2m.2-.6v.2m-.5-.2v.2m-.5-.2v.2m-.2-.4v.2m1-.2v.2m-.5-.8v.2m2.3-.2h-.6m.8-.3h-1m1 5v-.2m0-.4v-.2m.3.2v.2m-.5.2v-.3m-.3.5v-.2m0-.4v-.2m0-.3v-.2m0-.3v-.3m.3 1.1v-.3m.5.3v-.3m-1 0v.3m-.2-.3v-.2m.7-.3v.2m-.5-.2v.2m-.6-.2v.2m.4-.2v-.3m-.4-.3v.2m0-.7v.2m.4-.5v.2m-.4-.5v.2m.6-.2v.2m.5-.2v.2m.2-.4v.2m-.5-.2v.2m-.4-.2v.2m-.4-.6v.2m.6-.2v.2m.5-.2v.2m.2-.4v.2m-.9-.2v.2m.4-.8v.2m-1 2.9v-.3m0-.8v-.2m0 .7v-.3m0-.8v-.2m0-.4v-.2m0-.6v-.2m0-.3v-.2m-1.3.6h.6m.4-.8h.5m.6.8h.6" fill="#e5ad00" stroke="#7f2210" stroke-width=".056477"/><path d="m22.7 43.5v-.7c0-.2-.1-.6-.7-.6s-.7.4-.7.6v.7z" fill="#e5ad00" stroke="#7f2210" stroke-width=".056477"/><path d="m21.6 42.9h-.3c0-.2 0-.3.2-.4l.3.2c-.2 0-.2.1-.2.2z" fill="#e5ad00" stroke="#7f2210" stroke-width=".056477"/><path d="m22.5 42.9h.3c0-.2 0-.3-.2-.4l-.2.2s.1.1.1.2z" fill="#e5ad00" stroke="#7f2210" stroke-width=".056477"/><path d="m22.1 42.5.2-.3c-.1 0-.2-.1-.3-.1s-.2 0-.2.1z" fill="#e5ad00" stroke="#7f2210" stroke-width=".056477"/><path d="m21.5 41.6v-.7c0-.2-.2-.4-.4-.4s-.4.2-.4.4v.7z" fill="#e5ad00" stroke="#7f2210" stroke-width=".056477"/><path d="m22.6 41.6v-.7c0-.2.2-.4.4-.4s.4.2.4.4v.7z" fill="#e5ad00" stroke="#7f2210" stroke-width=".056477"/><path d="m22.2 39.8.1-.7h-.7v.7z" fill="#e5ad00" stroke="#7f2210" stroke-width=".056477"/><path d="m22.8 39.8-.1-.7h.7l-.1.7z" fill="#e5ad00" stroke="#7f2210" stroke-width=".056477"/><path d="m21.2 39.8v-.7h-.7l.1.7z" fill="#e5ad00" stroke="#7f2210" stroke-width=".056477"/><path d="m22.5 43.5v-.6c0-.1-.1-.4-.5-.4s-.4.3-.4.4v.6z" fill="#3861ab"/><path d="m21.4 41.5v-.5c0-.2-.1-.3-.3-.3s-.3.2-.3.3v.7z" fill="#3861ab"/><path d="m22.6 41.5v-.5c0-.2.1-.3.3-.3s.3.2.3.3v.7z" fill="#3861ab"/><path d="m23.3 44.6c0-1.5 1.1-2.7 2.4-2.7s2.4 1.2 2.4 2.7-1.1 2.7-2.4 2.7-2.4-1.2-2.4-2.7" fill="#e41a24" stroke="#7f2210" stroke-width=".047882"/><path d="m24 44.6c0-1.1.7-2 1.6-2s1.6.9 1.6 2-.7 2-1.6 2c-.8 0-1.6-.9-1.6-2" fill="#3861ab" stroke="#7f2210" stroke-width=".047882"/><path d="m25.3 43.9c-.1 0-.2.1-.2.2 0 0 .1-.2.1-.4s-.2-.4-.2-.4-.2.2-.2.4.1.4.1.4c0-.1-.1-.2-.2-.2s-.2.1-.2.2v.1l.1.2c0-.1.1-.1.2-.1s.2.1.2.2v.2l-.1.2.2-.1.1.2.2-.2.2.1-.1-.2v-.2c0-.1.1-.2.2-.2s.1 0 .2.1l.1-.2v-.1c-.6-.1-.6-.2-.7-.2z" fill="#e5ad00" stroke="#7f2210" stroke-width=".047882"/><path d="m24.6 44.7h.7v-.2h-.7z" fill="#e5ad00" stroke="#7f2210" stroke-width=".047882"/><path d="m26.8 43.9c-.1 0-.2.1-.2.2 0 0 .1-.2.1-.4s-.2-.4-.2-.4-.2.2-.2.4.1.4.1.4c0-.1-.1-.2-.2-.2s-.2.1-.2.2v.1l.1.2c0-.1.1-.1.2-.1s.2.1.2.2v.2l-.2.2.2-.1.1.2.1-.2.2.1-.1-.2v-.2c0-.1.1-.2.2-.2s.1 0 .2.1l.1-.2c-.3-.2-.4-.3-.5-.3z" fill="#e5ad00" stroke="#7f2210" stroke-width=".047882"/><path d="m26.2 44.7h.7v-.2h-.7z" fill="#e5ad00" stroke="#7f2210" stroke-width=".047882"/><path d="m26 45.2c-.1 0-.2.1-.2.2 0 0 .1-.2.1-.4s-.2-.4-.2-.4-.2.2-.2.4.1.4.1.4c0-.1-.1-.2-.2-.2s-.2.1-.2.2l.1.2c0-.1.1-.1.2-.1s.2.1.2.2v.3l-.1.2.2-.1.1.2.2-.2.2.1-.4-.2v-.2c0-.1.1-.2.2-.2s.1 0 .2.1l.1-.2c-.1-.2-.2-.3-.4-.3z" fill="#e5ad00" stroke="#7f2210" stroke-width=".047882"/><path d="m25.4 46h.6v-.2h-.7v.2z" fill="#e5ad00" stroke="#7f2210" stroke-width=".047882"/><path d="m26.9 38.6s-.1 0-.2.1-.1.2-.1.2.1-.1.2-.1.2 0 .2 0z" fill="#e41a24" stroke="#7f2210" stroke-width=".047882"/><path d="m29.5 38.5v-.2s-.2 0-.3 0c-.2 0-.2-.1-.3-.2s-.2-.2-.2-.2c-.2 0-.3.1-.3.1s.2.1.2.2c.1.2.2.2.2.2h.5s.2.1.2.1" fill="#e41a24" stroke="#7f2210" stroke-width=".047882"/><path d="m32.1 37.5c-.2.2-.4.2-.5.5 0-.2 0-.3-.2-.4 0 .3-.3.7-.2 1.2 0 .2-.1.4-.1.5s.1.4.2.7c.1.2.2.9-.2 1-.5.1-.7-.2-.8-.4-.3-.3-.3-.6-.3-.8 0 0 .1.1.2.1.1.1.1.2.1.2s0-.2 0-.3-.1-.2-.1-.2.2.2.3.3c.1-.1.1-.2-.1-.5.2.1.3.2.3.2v-.2c0-.1-.1-.2-.2-.2-.1-.1-.1-.2-.1-.2 0-.1 0-.2 0-.2s0 0 .1.1c.1 0 .1.1.1.1s0-.1 0-.2c0 0 0-.1-.1-.2 0-.1 0-.2 0-.2v-.2s-.2-.2-.3-.3c-.2-.2-.4-.2-.4-.2s-.2 0-.2.1c-.1 0-.1.1-.1.2h-.2s-.2 0-.2.1v.2c0 .1.2.1.3.2.2 0 .2.2.1.2 0 .2-.2.2-.3.2s-.2 0-.2.1.2.2.2.2c0 .1-.1.2-.2.2s-.3 0-.4 0-.2 0-.2 0-.1 0-.2-.1c-.1 0-.2-.2-.3-.2-.1-.1-.2-.1-.2-.2-.1-.1-.2-.2-.2-.2 0-.1 0-.2 0-.2.1-.1.1-.1.1-.2s-.1 0-.2 0-.1-.1-.2-.1-.1.1-.1.2 0 .2 0 .2c-.1-.4-.1-.6-.2-.6s-.1.1-.1.1l-.1.1c-.1 0 0 .1.1.1s.2.1.2.1h-.2v.2.1s0 .1.1.1.2-.1.2-.1c.1 0 .1.1.1.1s.1.1.1.2.2.1.2.1-.1 0-.2 0c-.2-.2-.3-.1-.3-.1s.3 0 .5.1c-.1 0-.3.2-.3.2.4.2.4 0 .8.4l-.2.2s-.2.1-.2.2c-.1 0-.2.1-.3 0-.1 0-.1-.1-.2-.2-.1 0-.1 0-.1.1 0 0 0 .1-.1.1-.1.1 0 .1.1.1s.2.1.1.1h-.2s-.1.1 0 .1v.2c0 .1.1.1.1 0 0 0 .1-.1.2 0 0 0-.1.1-.1.2v.1h.1c.1 0 .1.1.1.1s.1 0 .1-.1 0-.2 0-.2c0-.1.2-.1.2-.1.1 0 .2-.1.2-.2v.2c.2-.2.3-.3.3-.4v.3c.2-.2.4-.3.4-.3l.1.2.3.3c.1.1.6.3.6.3h-.4c-.1 0-.2 0-.4 0s-.3.2-.3.2v.3c0 .2.1.2.1.2v-.2l.1-.2v.2.2s0 .2 0 .2 0-.1.1-.1c0-.1.1-.1.1-.1s0 .1 0 .2v.2c0 .1-.1.1-.2.1-.2 0-.2 0-.3-.1s0-.2-.1-.2c-.2.1-.2.1-.2.1s0 0-.1.1 0 .1.1.1c.1.1.1.1 0 .1 0 .1-.2 0-.2 0-.1 0 0 .1 0 .2s0 .2.1.2c0 0 .1 0 .1-.1v.1s-.1.1-.1.1c0 .1.1.1.1.1h.2s.1 0 .1-.1.1-.1.1-.1c.1 0 .2 0 .2.1h.2s.2 0 .2 0 .1 0 .2 0c0 0 .1-.1.1-.2 0 0 0-.2-.1-.3-.1-.2-.1-.3 0-.4s.2-.1.2-.1h.2c-.1.2-.1.7.3.9-.1-.2 0-.3 0-.3l.2.3v-.3l.2.2c.1.1.1.2 0 .2 0 .1-.1.1-.2.1s-.1-.1-.2 0 0 .1 0 .1 0 .1 0 .2.1.1.1 0h.1s0 .1-.1.1c.7.1.6.2.6.2s.1.1.2.1l.1.1s0-.1.1-.2c0 0 0-.1.1-.1v.1s0 .1.1.1c0 0 .1-.1.2-.1 0 0 .1.1.2 0 .1 0-.1-.2-.1-.2 0-.1 0-.2 0-.2s.1-.2.2-.3.2-.2.2-.2c0-.1 0-.1-.1-.1l-.1-.1c0-.1-.1 0-.2-.1s-.2-.1-.2-.3.2-.4.2-.4c.1-.1.3-.1.5-.2.2-.2.2-.6.2-.7 0-.2-.2-.7-.3-.8 0-.1-.1-.7.1-.7.4-.2.2-.4.6-.7-.1 0-.2 0-.3 0-.4-.4-.2-.5-.2-1z" fill="#e086b6" stroke="#7f2210" stroke-miterlimit="10" stroke-width=".047882"/><path d="m29.7 37.8c0 .1 0 .1 0 0 .1.1.1.1 0 0 .2.1.2.2.2.2.1 0 0-.1-.2-.2z" fill="#7f2210"/><path d="m29.1 38v-.2h.2c-.2.2-.2.2-.2.2z" fill="#7f2210"/><path d="m27.4 38s.1.1.2.1.1 0 .1 0 0-.1 0-.2c0-.2-.2-.2-.2-.2s.1.1 0 .2c0 0-.1.1-.1.1" fill="#e41a24" stroke="#7f2210" stroke-width=".047882"/><path d="m27.1 38.2s-.1-.1-.2-.1c-.2 0-.2.1-.2.1h.2c.1 0 .1.2.1.2l.1-.2c-.1 0 0 0 0 0" fill="#e41a24" stroke="#7f2210" stroke-width=".047882"/><path d="m27.2 40.1s-.1-.1-.2-.1-.2.2-.2.2.1 0 .2 0 .1.1.1.1.1-.1.1-.2z" fill="#e41a24" stroke="#7f2210" stroke-width=".047882"/><path d="m27.2 40.6s-.1 0-.2.1-.1.2-.1.2.1-.1.2-.1.2 0 .2 0z" fill="#e41a24" stroke="#7f2210" stroke-width=".047882"/><path d="m27.3 41s0 .1.1.2.2.1.2.1v-.1c0-.1.1-.1.1-.1l-.2-.1c-.1 0-.2 0-.2 0" fill="#e41a24" stroke="#7f2210" stroke-width=".047882"/><path d="m28.5 42s-.1-.1-.2-.1-.2.1-.2.1h.2c0 .1.1.1.1.1s0-.1.1-.1c-.1 0 0 0 0 0" fill="#e41a24" stroke="#7f2210" stroke-width=".047882"/><path d="m28.2 42.4s-.2 0-.2.1c-.2.1-.2.2-.2.2s.1-.1.2-.1.2.1.2.1v-.1c0-.2 0-.2 0-.2" fill="#e41a24" stroke="#7f2210" stroke-width=".047882"/><path d="m28.4 42.9s-.1.1 0 .2.2.1.2.1v-.2c0-.1.1-.1.1-.1z" fill="#e41a24" stroke="#7f2210" stroke-width=".047882"/><path d="m30.2 43s-.1 0-.2 0v.2s0-.1.2-.2c0 .1.1.2.1.2s0-.1-.1-.2z" fill="#e41a24" stroke="#7f2210" stroke-width=".047882"/><path d="m30.3 43.4s-.1.1-.1.2.1.2.1.2 0-.1 0-.2c.1-.1.2-.1.2-.1l-.2-.1c.1.1 0 0 0 0" fill="#e41a24" stroke="#7f2210" stroke-width=".047882"/><path d="m30.8 43.6s-.1.1 0 .2.2.1.2.1-.1-.1-.2-.3h.2s-.1 0-.2 0c.1-.1 0 0 0 0" fill="#e41a24" stroke="#7f2210" stroke-width=".047882"/><path d="m30.8 38c0-.1 0-.1 0 0 0-.1-.1-.1 0 0-.1-.1-.1-.1 0-.2v-.1h-.1s-.1 0-.2 0v-.1h-.1s-.1-.1 0-.1c0 0 0-.1.1-.1v-.1h-.1v.1s-.1 0-.2 0c0 0 0 0 0-.1h-.1s-.1-.1 0-.1v-.1h-.1s-.1.1-.1 0c0 0 0 0 0-.1.1.2.1 0 .1 0v.2s-.1.2-.1.2c.1 0 .2.1.4.2.2.2.3.2.3.3 0 0 .1-.1.2-.1s.2 0 .2 0c0 .2-.2.3-.2.2z" fill="#e5ad00" stroke="#7f2210" stroke-linecap="round" stroke-linejoin="round" stroke-width=".031923"/><path d="m30.1 37.6s.1 0 0 0c.1 0 .1.1 0 0 .1.1.1.1 0 0z" fill="#7f2210"/><path d="m30.3 37.8c-.1-.1-.1-.1 0 0-.1-.1 0-.1 0 0 .1 0 .1 0 0 0z" fill="#7f2210"/><path d="m30 37.6c0-.1 0-.1 0 0 .1 0 .1 0 0 0z" fill="#7f2210"/><path d="m29.9 37.4c.1 0 .1.1 0 0 0 .1 0 .1 0 0z" fill="#7f2210"/><path d="m30.5 37.8c-.1 0-.1 0 0 0z" fill="#7f2210"/><path d="m30.5 37.9c0 .1.1.1 0 0 .1.1.1 0 0 0 0-.1 0-.1 0 0z" fill="#7f2210"/><path d="m30.7 38.1c0-.1 0-.1 0 0-.1-.1-.1-.1 0 0-.1 0 0 0 0 0" fill="#7f2210"/><path d="m30.3 37.2h-.1l-.1.1h.1.1z" fill="#e5ad00" stroke="#7f2210" stroke-width=".031923"/><path d="m30.2 37.3-.1-.1-.1.1h.1z" fill="#e5ad00" stroke="#7f2210" stroke-width=".031923"/><path d="m30.2 37.3h-.1l.1.1h.1v-.1z" fill="#e5ad00" stroke="#7f2210" stroke-width=".031923"/><path d="m30.2 37.3c-.1 0-.1 0 0 0m0 0c-.1 0-.1 0 0 0-.1.1-.1.1 0 .2h.1c0-.2 0-.2-.1-.2z" fill="#7f2210"/><path d="m29.9 37c-.1 0-.2 0-.2 0s.1 0 .2 0c-.1.1 0 .2 0 .2z" fill="#e5ad00" stroke="#7f2210" stroke-width=".031923"/><path d="m30 37.1-.2.1.1.1.1-.1z" fill="#e5ad00" stroke="#7f2210" stroke-width=".031923"/><path d="m29.8 37.1s.1 0 0 0c.1 0 .1.1 0 0 .1.1 0 .1 0 0 0 .1 0 .1 0 0zm0 0c-.1.1-.1.1 0 0-.1.1 0 .1 0 0 .1.1.1 0 0 0z" fill="#7f2210"/><path d="m30.6 37.3h-.1v.2l.1-.1z" fill="#e5ad00" stroke="#7f2210" stroke-width=".031923"/><path d="m30.5 37.3-.1.1v.1h.1z" fill="#e5ad00" stroke="#7f2210" stroke-width=".031923"/><path d="m30.5 37.5v.2l.1-.1v-.1z" fill="#e5ad00" stroke="#7f2210" stroke-width=".031923"/><path d="m30.5 37.6.1-.2z" fill="#e5ad00"/><path d="m30.5 37.4c-.1 0-.1.1 0 0l-.1.2h.1.1c-.1 0-.1 0-.1-.2z" fill="#7f2210"/><path d="m30.9 37.7-.1-.1v.2h.1z" fill="#e5ad00" stroke="#7f2210" stroke-width=".031923"/><path d="m30.8 37.8h-.1l.1.1.1-.1z" fill="#e5ad00" stroke="#7f2210" stroke-width=".031923"/><path d="m30.7 37.6-.1.1v.1h.2z" fill="#e5ad00" stroke="#7f2210" stroke-width=".031923"/><path d="m30.7 37.8h.1z" fill="#e5ad00"/><path d="m30.8 37.8c-.1 0-.1 0 0 0-.1 0 0 0 0 0m0-.1c-.1 0-.1 0 0 0-.1.1-.1.1-.1.2h.1.1c0-.1 0-.1-.1-.2z" fill="#7f2210"/><path d="m31.1 38c-.1-.1-.1 0-.1 0 0 .1 0 .1.1 0 0 .1 0 .1 0 0 .1.1.1.1 0 0z" fill="#e5ad00" stroke="#7f2210" stroke-width=".031923"/><path d="m31 37.9h-.1v.1l.1.1z" fill="#e5ad00" stroke="#7f2210" stroke-width=".031923"/><path d="m31 38.1v-.1z" fill="#e5ad00"/><path d="m31 38s0 .1 0 0c0 .1 0 .1 0 0zm0 0s0 .1 0 0c0 .1 0 .1 0 0z" fill="#7f2210"/><path d="m28.5 39.1s-.1 0-.2.1-.1.2-.1.2.1-.1.2-.1c.1.1.2.1.2.1.1 0 .2-.1.2-.1l-.1.2v.2s-.1.2-.1.2.1 0 .2-.1c.1 0 .2-.1.2-.1.1-.1.2-.2.2-.2v.2.2s.1-.1.2-.1c0 0 .1-.1.2-.3.1.2.2.5.2.5l.1-.2c.1-.1.1-.2.1-.2l.1.2m-1.8.1c.1-.1.3-.3.5-.3m.1.7.2-.1c.1-.1.2-.2.2-.2" fill="none" stroke="#7f2210" stroke-width=".047882"/><path d="m29.8 41.1s.3.2.3.3-.1.4-.1.4" fill="none" stroke="#7f2210" stroke-width=".047882"/></g><ellipse clip-path="url(#b)" cx="40" cy="40" fill="none" rx="36.9" ry="36.9"/><path d="m40.1 79.5c-21.8 0-39.5-17.7-39.5-39.5s17.7-39.5 39.5-39.5 39.5 17.7 39.5 39.5-17.7 39.5-39.5 39.5zm0-75c-19.6 0-35.5 15.9-35.5 35.5s15.9 35.5 35.5 35.5 35.5-15.9 35.5-35.5-15.9-35.5-35.5-35.5z" fill="#231f20"/></svg>