<svg enable-background="new 0 0 80 80" viewBox="0 0 80 80" xmlns="http://www.w3.org/2000/svg"><path clip-rule="evenodd" d="m40.1 77.5v-75c-20.7 0-37.4 16.8-37.5 37.5.1 20.7 16.8 37.5 37.5 37.5z" fill="#046a38" fill-rule="evenodd"/><path clip-rule="evenodd" d="m40.1 2.5c-1 0-2.2 0-3.3.2-1.1.1-2 .3-2.9.3v74c.8.2 1.8.3 2.8.3 1.3.1 2.3.2 3.4.2 20.4 0 37-16.4 37.5-36.7v-1.6c-.4-20.4-17-36.7-37.5-36.7z" fill="#da291c" fill-rule="evenodd"/><path d="m42.1 33.7 2.4-.6.7 1-3.1.9z" fill="#ff0"/><path d="m25.7 37.5-1.3.3-2.4-1.9.5-1.3 3.1 1.1z" fill="#ff0"/><path d="m20.2 40c-.1 0-.3 0-.3 0l-.2-.1s0 0 0-.1l.2-.2.2.1.1.3c.1-.1.1-.1 0 0zm0-.1-.2-.2-.2-.1-.2.2v-.1c0 .1.1.1.1.1.3.1.4.1.5.1z"/><path d="m20.5 41.4c-.3-.1-.4-.2-.6-.3-.1-.1-.1-.1-.1-.1s0 0 0-.1l.3-.3.4.1v.7c.1 0 .1 0 0 0zm0-.1-.2-.4-.3-.1-.3.2s.1.1.2.1c.2 0 .5.1.6.2z"/><path d="m22.5 47.2c-.3-.1-.6-.2-.8-.3s-.2-.1-.2-.1l.1-.2h.1l.3.1.5.5c0-.1 0-.1 0 0zm0-.1-.5-.3-.3-.1h.1l-.1.2s0 0 .2.1c0-.1.3.1.6.1z"/><path d="m23.1 48.3c-.3-.1-.7-.2-.8-.3-.2-.1-.2-.1-.3-.2 0 0 0 0 0-.1l.2-.2h.2l.7.8c.1-.1.1-.1 0 0 .1-.1 0 0 0 0m0-.1-.8-.4h-.2l-.1.2v-.1s0 0 .2.1c.3 0 .7.1.9.2z"/><path d="m22.3 47.7c-.1.1 0 .1.1.2s.3.1.6.2l-.5-.3z" fill="#ff0"/><path d="m21.7 46.7c-.1.1 0 .1.1.2s.3.1.6.2l-.4-.3z" fill="#ff0"/><path d="m20 40.8-.1.2s.1.1.2.1c.1.1.3.2.5.3l-.1-.4z" fill="#ff0"/><path d="m20 39.6v.2h.3l-.1-.2z" fill="#ff0"/><path d="m21 34.8-.1-.3.1-.2.2-.1z" fill="#ff0"/><path d="m21.9 32.8-.1-.3.1-.2.3-.1z" fill="#ff0"/><path d="m40.5 47.1 1.3.7 2.5-.5-1.3-1.2-1.4-1.1z" fill="#ff0"/><path d="m40.5 47.1.1.3 1 .5.5-.1v.1l-1.3-.7zm-.1 0 .3-.1 1.3.7-.5.1-1-.5z"/><path d="m40.6 47-.2.1v.2l1 .5.3-.1z" fill="#ff0"/><path d="m25.5 31.3-.1-.2c-.4.1-.8.2-1.3.3-.5.2-1 .3-1.5.6v-.1l.2.2h.2c.4-.2.8-.3 1.2-.4s.8-.2 1.3-.3zm.1-.1c0 .1 0 .1 0 0l-.1.3c-.4.1-.8.2-1.3.3s-.8.3-1.2.4h-.3l-.2-.2c.5-.3 1-.4 1.5-.6s.9-.3 1.3-.3z"/><path d="m25.6 32.4-.2-.2c-.2 0-.3 0-.5.1-.2 0-.3.1-.5.2v-.1l.4.2c.1 0 .3-.1.3-.1s.4 0 .5-.1zm0 0c.1 0 .1 0 0 0l-.2.2c-.1 0-.2 0-.3 0s-.3.1-.3.1l-.4-.2c.2-.1.3-.1.5-.2.2 0 .3-.1.5-.1z"/><path d="m25.5 31.2c-.4.1-.8.2-1.3.3-.4.2-.9.3-1.4.6l.2.1h.3c.4-.2.8-.3 1.2-.4.4-.1.8-.2 1.3-.3l.1-.2z" fill="#ff0"/><path d="m25.5 32.3c-.2 0-.3 0-.5.1-.2 0-.3.1-.4.1l.3.1c.1 0 .3-.1.3-.1h.3z" fill="#ff0"/><path d="m46.1 32.8c-.1-.1-.2-.2-.3-.2s-.1-.1-.1-.1c-.4.2-.8.4-1.5.6-.6.2-1.3.3-2.1.5l-.1.2v-.1l.2.2c.8-.2 1.6-.3 2.2-.5.7-.3 1.2-.5 1.7-.6zm.1-.1s0 .1 0 0c-.5.3-1 .5-1.7.7s-1.4.3-2.2.5l-.2-.2s0 0 0-.1l.1-.2c.8-.2 1.5-.3 2.1-.5s1-.3 1.4-.6.1 0 .1.1c.2.1.3.2.4.3z"/><path d="m45.8 32.5c-.4.2-.8.3-1.4.6-.6.2-1.3.3-2.1.5l-.1.2.1.1c.8-.2 1.6-.3 2.2-.5s1.1-.4 1.6-.6c-.1-.1-.2-.1-.3-.3z" fill="#ff0"/><path d="m46.8 33.8c0 .1-.1.1-.3.2-.3.1-.8.3-1.6.5s-1.7.4-2.6.6l-.2-.2s0 0 0-.1l.2-.2c.8-.2 1.7-.3 2.4-.5s1.3-.3 1.8-.6zm-.1 0-.3-.1c-.6.2-1.1.3-1.8.6-.7.2-1.5.3-2.4.5l-.1.2v-.1l.2.2c.9-.2 1.8-.4 2.5-.6.8-.2 1.3-.3 1.6-.5.3-.1.3-.2.3-.2z"/><path d="m42.2 41.1.2.2c.8-.2 1.6-.3 2.3-.4s1.4-.3 2.1-.6v.1l-.2-.4h.1c-.7.3-1.3.4-2.1.6s-1.5.3-2.4.5zm-.1 0 .2-.3c.8-.1 1.5-.3 2.3-.4.8-.2 1.4-.3 2.1-.6l.1.3v.1c-.7.2-1.3.4-2.1.6s-1.6.3-2.3.4z"/><path d="m42.2 42.3.1.2c.7-.1 1.3-.2 2.1-.3.8-.2 1.5-.4 2.3-.6v-.4h.1c-.7.3-1.3.4-2.1.6s-1.5.3-2.3.4zm0 0c-.1 0-.1 0 0 0l.1-.2c.8-.2 1.6-.3 2.3-.4.8-.2 1.4-.4 2.1-.6v.4c-.8.3-1.5.4-2.3.6s-1.4.3-2.2.2z"/><path d="m39.4 48.1.1.2c.8-.1 1.4-.2 2.3-.3.8-.2 1.8-.3 2.8-.5v.1l-.3-.3c-.9.2-1.8.3-2.5.5-.8.2-1.3.3-1.8.3zm-.1 0 .5-.3c.6-.1 1.1-.2 1.8-.3.8-.2 1.7-.3 2.5-.5l.3.3c-.9.2-1.9.4-2.8.5-.8.2-1.5.3-2.3.3z"/><path d="m37.2 49.6v.2-.2c.8 0 1.7 0 2.7-.2s2.1-.4 3.3-.7l.5-.5v.1c-1.2.3-2.3.6-3.3.8s-1.8.3-2.5.3zm-.1 0 .5-.3c.8-.1 1.5-.2 2.5-.3 1-.2 2.2-.4 3.3-.8h.1v.1l-.5.5c-1.2.3-2.3.5-3.3.7s-1.8.2-2.7.3z"/><path d="m24.7 48.6.5.3c.6.2 1.3.3 2.3.4 1 .2 2.3.3 3.8.4v.1l-.8-.4c-1-.1-2-.2-2.9-.3-.9-.2-1.8-.3-2.8-.6h.1zm0 .1v-.3c.9.3 1.8.4 2.8.6.9.2 1.9.3 2.9.3l.8.4v.1s0 0-.1 0c-1.3-.2-2.8-.3-3.8-.4-1-.2-1.6-.3-2.3-.4z"/><path d="m23.7 47.3.3.2c.8.2 1.5.3 2.3.4s1.6.3 2.3.3v.1l-.3-.3c-.7-.1-1.3-.2-2-.3-.8-.2-1.7-.3-2.6-.4zm0 .1v-.3c.9.2 1.8.4 2.6.5.8.2 1.4.3 2 .3l.3.3v.1c-.8-.1-1.6-.2-2.4-.3s-1.5-.3-2.3-.4z"/><path d="m25.7 42.4-.1-.2c-.6-.1-1.2-.2-1.9-.3-.8-.2-1.5-.3-2.3-.6h.1v.3c.8.2 1.5.4 2.2.6s1.3.3 2 .2zm.1 0-.1.3s0 0-.1 0c-.7-.1-1.3-.2-2-.3-.7-.2-1.4-.3-2.2-.6v-.3c.8.3 1.7.4 2.3.6s1.4.1 2.1.3z"/><path d="m25.7 41.2-.1-.2c-.6-.1-1.1-.2-1.8-.3-.7-.2-1.6-.4-2.4-.6h.1l-.1.3v-.1c.8.3 1.6.4 2.3.6s1.3.3 2 .3zm.1 0-.1.2c-.7-.1-1.3-.2-2-.3-.8-.2-1.5-.4-2.3-.6 0 0 0 0 0-.1l.1-.3c.8.3 1.7.4 2.4.6s1.3.3 1.8.3z"/><path d="m22 35.8.1.3c.3.3.7.5 1 .8s.8.5 1.1.8l.4-.1v.1c-.5-.3-.9-.7-1.3-1s-.8-.6-1.1-.8zm0 .1c0-.1 0-.1 0 0l.2-.1c.3.3.7.6 1.1.8.4.3.8.7 1.3 1l-.3.1c-.3-.3-.8-.5-1.1-.8s-.7-.5-1-.8z"/><path d="m44.1 47.1c-.9.2-1.8.3-2.5.5-.8.2-1.3.3-1.8.3l-.4.2.1.1c.8-.1 1.4-.2 2.3-.3.8-.2 1.8-.3 2.7-.5z" fill="#ff0"/><path d="m43.5 48.4c-1.2.3-2.3.5-3.3.7s-1.8.3-2.5.3l-.5.2v.1c.8-.1 1.7-.1 2.6-.3 1-.2 2.1-.4 3.3-.7z" fill="#ff0"/><path d="m24.8 48.5v.2l.4.2c.6.2 1.3.3 2.3.4.9.2 2.3.3 3.5.4l-.6-.3c-1-.1-2-.2-2.9-.3-1-.2-1.9-.5-2.7-.6z" fill="#ff0"/><path d="m23.7 47.1v.2l.3.2c.8.2 1.5.3 2.3.4s1.5.2 2.3.3l-.2-.3c-.7-.1-1.3-.2-2-.3-.9 0-1.8-.2-2.7-.5z" fill="#ff0"/><path d="m21.5 41.4v.3c.8.2 1.5.4 2.2.6.7.2 1.3.3 2 .3l.1-.2-.1-.1c-.6-.1-1.2-.2-1.9-.3-.7-.2-1.5-.5-2.3-.6z" fill="#ff0"/><path d="m21.5 40.1-.1.3c.8.3 1.6.4 2.3.6s1.3.3 1.9.3l.1-.1-.2-.2c-.6-.1-1.1-.2-1.8-.3-.6-.2-1.4-.3-2.2-.6z" fill="#ff0"/><path d="m22.2 35.8v.3c.3.3.7.5 1 .8s.8.5 1.1.8l.3-.1c-.4-.3-.8-.7-1.3-.9-.4-.3-.8-.6-1.1-.9z" fill="#ff0"/><path d="m46.6 41.2c-.7.2-1.3.4-2 .6-.8.2-1.5.3-2.3.4l-.1.1.1.1c.7-.1 1.3-.2 2.1-.3.8-.2 1.4-.4 2.2-.6z" fill="#ff0"/><path d="m46.6 40c-.7.2-1.3.4-2 .6-.8.2-1.5.3-2.3.4l-.1.2.1.1c.8-.2 1.6-.3 2.3-.4s1.3-.3 2-.6z" fill="#ff0"/><path d="m46.5 33.7c-.6.2-1.1.3-1.8.5s-1.5.3-2.3.5l-.1.2.1.2c.9-.2 1.8-.4 2.5-.6.8-.2 1.3-.3 1.6-.5.2-.1.3-.1.3-.2z" fill="#ff0"/><path d="m48 40.6.2.2v.1c-.1.1-.2.3-.3.3-.2 0-.3-.2-.4-.3zm0 .1-.5.2v-.1c.2.2.3.3.3.3.1-.1.2-.1.2-.4l.1.2z"/><path d="m48 40.7-.4.1c.2.1.3.3.3.3.1 0 .2-.1.3-.3z" fill="#ff0"/><path d="m47.9 39.5.3.2c-.1.1-.2.2-.3.2-.1 0-.2-.2-.2-.3 0 0 0 0 0-.1h.2c0-.1 0-.1 0 0m0 0-.2.2v-.1c.1.1.1.2.1.2.1 0 .2-.1.3-.2v.1z"/><path d="m47.9 39.5-.2.1c0 .1.1.2.1.2.1 0 .1-.1.2-.1z" fill="#ff0"/><path d="m45.1 48.5.1.3-.1.2s-.1.1-.2.1c0 0 0 0-.1 0s-.2 0-.3 0c.1-.2.3-.3.3-.4l.1-.1c.2-.2.2-.2.2-.1m0 0c-.2.1-.3.3-.3.4v-.1h.3c.1 0 .1 0 .1-.1z"/><path d="m46.5 46.5v.3c-.2.1-.4.2-.5.2h-.1c-.2-.1-.1-.3-.1-.4l.3-.3h.1zm-.1 0-.3-.2h.1l-.3.3v.3c.1 0 .3-.1.5-.2z"/><path d="m46.1 46.4-.3.3v.2c0 .1 0 .1.1.1h.1s.3-.1.4-.2v-.3z" fill="#ff0"/><path d="m45.1 48.5c-.1.1-.2.3-.3.3h.2c.1 0 .1 0 .1-.1l.1-.1z" fill="#ff0"/><path d="m46.6 40.3v.8z"/><path d="m42.3 41.2v1-1c-.1-.1-.1-.1 0 0 0-.1 0-.1 0 0z"/><path d="m46.6 40.4c-.6.2-1.2.3-1.8.5-.8.2-1.6.3-2.3.4v.8c.8-.2 1.5-.3 2.3-.4.7-.2 1.3-.3 1.9-.6v-.7z" fill="#ff0"/><path d="m44.2 47.5-.7.9s0 0-.1 0c0 0 0 0 0-.1l.8-.8c-.1-.1-.1-.1 0 0-.1-.1 0-.1 0 0z"/><path d="m39.4 48.2-1.7 1.2h-.1v-.1l1.8-1.1c0-.1 0-.1 0 0z"/><path d="m24.8 48.6c-.1 0-.1 0 0 0l-1.1-1.3v-.1h.1l1 1.4c-.1 0-.1 0 0 0z"/><path d="m30.5 49.4c-.1.1-.1.1 0 0l-1.9-1.2s0 0 0-.1h.1l1.8 1.3c-.1 0-.1 0 0 0-.1 0 0 0 0 0z"/><path d="m21.5 41.4-.2-1v-.1h.1l.1 1.1c0-.1 0-.1 0 0z"/><path d="m25.7 42.3-.1-1 .1 1c-.1 0 0 0 0 0z"/><path d="m23.1 32.1 1.4.3v.1s0 0-.1 0l-1.3-.4c-.1.1-.1.1 0 0-.1 0-.1 0 0 0-.1 0 0 0 0 0z"/><path d="m25.6 31.3v1.2-1.2c-.1-.1-.1-.1 0 0 0-.1 0-.1 0 0z"/><path d="m25.5 31.4c-.5.2-.9.3-1.3.3-.3.1-.7.3-1.1.4l1.3.3c.2-.1.3-.1.5-.2.2 0 .3-.1.5-.1l.1.1z" fill="#ff0"/><path d="m21.5 40.5.1.8c.8.3 1.6.4 2.3.6.7.2 1.3.3 1.8.3v-.8c-.7-.1-1.3-.2-2-.3-.7-.2-1.5-.5-2.2-.6z" fill="#ff0"/><path d="m24 47.6.8.9c.9.3 1.8.4 2.8.6.8.2 1.8.3 2.6.3l-1.4-1.1c-.8-.1-1.6-.2-2.3-.3-1-.1-1.8-.3-2.5-.4z" fill="#ff0"/><path d="m44.1 47.5c-.8.2-1.7.3-2.3.5-.8.2-1.6.3-2.3.3l-1.5 1c.7-.1 1.4-.2 2.3-.3s2.1-.4 3.3-.7z" fill="#ff0"/><path d="m47.7 39.9c.1 7.6-6 13.8-13.7 13.9-7.6.1-13.8-6-13.9-13.7-.1-7.6 6-13.8 13.7-13.9 7.7 0 13.9 6.1 13.9 13.7m0 0c-.1-7.6-6.3-13.6-13.8-13.6-7.6.1-13.6 6.3-13.6 13.8.1 7.6 6.3 13.6 13.8 13.6 7.5-.1 13.6-6.3 13.6-13.8z"/><path d="m46.8 39.9c.1 7.1-5.7 12.9-12.8 13-7 .1-12.9-5.7-13-12.8s5.7-12.9 12.8-13c7.2-.1 13 5.7 13 12.8m-.1 0c-.1-7.1-5.8-12.8-12.9-12.7s-12.8 5.8-12.7 12.9 5.9 12.8 13 12.7c7-.1 12.7-5.8 12.6-12.9z"/><path d="m46.6 39.9c.1 6.9-5.5 12.6-12.4 12.7s-12.6-5.5-12.7-12.4 5.5-12.6 12.4-12.7 12.6 5.4 12.7 12.4m-.1 0c-.1-6.9-5.7-12.4-12.6-12.3s-12.4 5.7-12.3 12.6c.1 6.8 5.7 12.3 12.6 12.3 6.8-.1 12.4-5.8 12.3-12.6z"/><path d="m33.9 27.4c6.9-.1 12.6 5.5 12.7 12.4s-5.5 12.6-12.4 12.7-12.6-5.5-12.7-12.4c-.1-7 5.5-12.6 12.4-12.7zm0-.2c-7.1.1-12.8 5.8-12.7 12.9s5.8 12.8 12.9 12.7 12.8-5.8 12.7-12.9-5.9-12.8-12.9-12.7z" fill="#ff0"/><path d="m33.9 26.2c7.6-.1 13.8 6 13.9 13.7.1 7.6-6 13.8-13.7 13.9-7.6.1-13.8-6-13.9-13.7-.1-7.6 6.1-13.8 13.7-13.9zm0-.2c-7.8.1-13.9 6.4-13.9 14.1s6.4 14 14.1 13.9 14-6.4 13.9-14.1-6.4-14-14.1-13.9z" fill="#ff0"/><path d="m33.9 27.1c7.1-.1 12.9 5.7 13 12.8s-5.7 12.9-12.8 13-12.9-5.7-13-12.8c-.1-7.2 5.6-12.9 12.8-13zm0-.8c-7.6.1-13.6 6.3-13.6 13.8.1 7.6 6.3 13.6 13.8 13.6 7.6-.1 13.6-6.3 13.6-13.8-.1-7.6-6.3-13.6-13.8-13.6z" fill="#ff0"/><path d="m34.5 54h-.8v-3.8h.8z" fill="#ff0"/><path d="m22.1 47.5-.5-.8.3-.3 1-.6 3.3-.8.3 1-3.2.9z" fill="#ff0"/><path d="m25.6 37.5.1 1.3-1.7.2-2.7.8-1.3.7v-1l1.1-.8z" fill="#ff0"/><path d="m25.6 32.9v2.7l-2.3-.9-2.2-.5 1.2-2.1 1.5.3z" fill="#ff0"/><path d="m34.6 30.5h-1.2v-4.7h1.1z" fill="#ff0"/><path d="m42.1 31.1v1.2c1.3.3 2.7.6 3.3.8s.8.3.8.4l-.6-1.2-1.3-.6z" fill="#ff0"/><path d="m42.1 38.5v-1.1l3.8.8 2.1 1.1v1.2l-2.1-1.1z" fill="#ff0"/><path d="m41.6 45.1.4-1.1.3-1.5 2.3 1.8 1.4 1.3.7.9-.7.9-.7 1-1.1-1.3z" fill="#ff0"/><path d="m48.1 39.9c.1 7.8-6.2 14.1-13.9 14.2s-14.2-6.2-14.2-14c-.1-7.8 6.2-14.1 13.9-14.2s14.1 6.2 14.2 14m-.1 0c-.1-7.8-6.3-13.9-14.1-13.9s-13.9 6.4-13.9 14.1 6.4 14 14.1 13.9 13.9-6.4 13.9-14.1z"/><path d="m26.3 44.8-.3-.1c-.6.1-1.2.3-1.8.4-.8.3-1.6.6-2.1.8-.5.3-.6.4-.7.6l.2.3h-.1c.1-.2.2-.3.7-.6s1.4-.6 2.2-.8 1.3-.3 1.8-.5zm.1-.1-.2.3c-.6.1-1.2.3-1.8.5-.8.3-1.7.6-2.1.8-.5.3-.6.4-.7.6l-.2-.3c.1-.2.2-.3.7-.6s1.3-.6 2.1-.8 1.3-.3 1.9-.4z"/><path d="m34.6 30.5.1-4.8h-.3v4.8zm0 .1-.3-.1v-4.8h.3z"/><path d="m33.5 30.6.1-4.8h-.3v4.8zm0 0s0 .1 0 0l-.3-.1v-4.8h.3z"/><path d="m33.5 50.2-.2.1v4h.3zm0-.1.2.1v4h-.3z"/><path d="m34.6 50.2-.2.1v4h.3zm0-.1.2.1v4h-.3z"/><path d="m42.1 32.3.1.2c1.1.3 2.2.4 3 .7s1.2.4 1.6.7h-.1l-.2-.4c-.4-.3-.8-.4-1.5-.7s-1.8-.4-2.9-.7h.1zm0 0 .1-.2h.1c1.1.3 2.2.4 2.9.7s1.2.4 1.5.7l.2.4v.1s0 0-.1 0c-.4-.3-.8-.4-1.6-.7s-1.8-.4-2.9-.7z"/><path d="m42.1 31.1.1.2c1 .3 2 .5 2.7.7.7.3 1 .5 1.3.7l-.1.1-.3-.5c-.3-.2-.7-.4-1.3-.6-.6-.3-1.4-.5-2.4-.6zm0 0 .1-.2h.1c.8.2 1.8.4 2.3.6.6.2.9.4 1.3.6l.3.5v.1s0 0-.1 0c-.3-.3-.6-.5-1.3-.7-.7-.3-1.7-.5-2.7-.7z"/><path d="m42.2 38.5.1.2c1.5.3 3.1.7 4.1 1s1.4.7 1.8 1.1h-.1v-.3c-.4-.3-.8-.7-1.8-1-.9-.4-2.4-.7-4.1-1l.2-.1zm-.1.1.1-.2h.1c1.6.3 3.1.7 4.1 1s1.4.7 1.8 1.1v.3s0 0-.1 0c-.4-.3-.8-.7-1.8-1s-2.5-.7-4.1-1z"/><path d="m42.2 37.4.1.2c1.5.3 3.1.7 4.1 1s1.4.7 1.8 1.1h-.1v-.3c-.4-.3-.8-.7-1.8-1-.9-.4-2.4-.8-4.1-1l.2-.1zm-.1.1c0-.1 0-.1 0 0l.1-.2h.1c1.6.3 3.1.7 4.1 1s1.4.7 1.8 1.1v.3s0 0-.1 0c-.4-.3-.8-.7-1.8-1s-2.5-.7-4.1-1z"/><path d="m42.2 42.4.1.3c1.2.9 2.3 1.8 3 2.3.7.6.9.9 1 1.2s.2.4.2.6h-.1l.3-.3c0-.2-.1-.3-.2-.5-.1-.3-.3-.6-1-1.2-.7-.7-1.9-1.6-3.1-2.5zm-.1.1c0-.1 0-.1 0 0l.2-.1c1.2.9 2.4 1.8 3.1 2.5s.9 1 1.1 1.3c.1.3.2.4.2.5l-.3.3s0 0-.1 0c0-.2-.1-.3-.2-.6s-.3-.6-1-1.2-1.8-1.5-3-2.3z"/><path d="m41.6 45 .1.3c.8.6 1.5 1.1 2.1 1.6s1.1 1 1.3 1.3c.3.3.3.5.2.7h-.1l.3-.3c0-.2 0-.3-.3-.5-.2-.3-.6-.7-1.2-1.2s-1.4-1.1-2.2-1.7zm0 0 .2-.1c.8.6 1.6 1.2 2.2 1.8.6.5 1 .9 1.2 1.3.3.3.3.4.3.6l-.3.3s0 0-.1 0c0 0 0 0 0-.1 0-.2 0-.3-.2-.6-.3-.3-.7-.8-1.3-1.3s-1.3-1.1-2.1-1.6z"/><path d="m26.7 46-.2-.1c-.5.1-.9.1-1.5.3-.7.2-1.5.5-2.1.8-.5.3-.7.4-.8.7v-.1l.2.3h-.1c.2-.2.3-.4.8-.7s1.4-.6 2.1-.8 1.1-.3 1.5-.3zm0-.1v.3c-.4.1-.8.2-1.5.3-.7.2-1.6.5-2.1.8s-.7.4-.8.7l-.2-.3s0 0 0-.1c.2-.2.3-.4.8-.7s1.4-.6 2.1-.8 1.2-.2 1.7-.2z"/><path d="m25.6 37.5-.2-.2c-.4.1-.8.1-1.7.3-.8.3-2.2.6-2.9.9-.8.3-.9.6-1.2.8v.3h-.1c.3-.3.4-.5 1.2-.8s1.9-.7 2.8-.9c.8-.3 1.3-.3 1.8-.4zm.1 0-.1.3c-.5.1-1 .2-1.8.4-.8.3-2 .6-2.8.9-.7.3-.9.6-1.2.8s0 0-.1 0v-.3c.3-.3.4-.5 1.2-.8s2.1-.8 2.9-.9c.8-.3 1.3-.3 1.7-.3z"/><path d="m25.7 38.7-.2-.2c-.6.1-1.3.2-2.1.4-.9.3-2 .6-2.7.9s-.8.5-1 .7v.3h-.1c.2-.3.4-.5 1.2-.8s1.9-.7 2.8-.9c.8-.3 1.3-.3 1.8-.3zm0 0-.2.3c-.5.1-1 .2-1.8.3-.8.3-2.1.6-2.8.9s-.9.6-1.1.8c0 0 0 0-.1 0v-.3c.2-.3.3-.4 1-.8.7-.3 1.8-.7 2.7-.9.9-.3 1.5-.3 2.1-.4z"/><path d="m21 34.8c0 .1 0 .1 0 0-.1.1-.1.1 0 0-.1-.2-.2-.4.1-.5h.2c.3 0 .6.1 1 .2.5.2 1.1.3 1.7.6s1.2.5 1.7.8h-.1l.1-.2v.1l-.1-.3c-.6-.2-1.1-.5-1.6-.7-.7-.3-1.5-.5-2-.7-.3 0-.4 0-.6 0s-.3 0-.3 0l-.2.3s0 0-.1 0c0 0 0 0 0-.1l.2-.3h.3c.2 0 .3 0 .6.1.5.1 1.3.4 2 .7s1.1.4 1.5.7l.1.3v.1h.1s0 0-.1 0c-.6-.3-1.1-.5-1.7-.8s-1.2-.4-1.7-.6c-.4-.1-.8-.2-.9-.2s-.2 0-.2 0c-.1.2-.1.3 0 .5-.1 0-.1 0 0 0z"/><path d="m22 32.8s0 .1 0 0c-.1.1-.1.1 0 0-.2-.1-.2-.3-.1-.4s.3-.2.5-.2h.2c.4 0 1.1.3 1.6.4.5.2.9.3 1.3.5l.2-.1v.1l-.2-.3c-.3-.1-.5-.3-1-.3-.5-.2-1.3-.3-1.7-.4-.2 0-.3 0-.3 0-.2 0-.3 0-.3.1l-.3.3s0 0-.1 0c0 0 0 0 0-.1l.3-.4c.1 0 .2-.1.3-.1h.4c.4.1 1.2.3 1.7.4.5.2.8.3 1 .3l.2.3-.2.1c-.4-.2-.8-.3-1.3-.5s-1.2-.3-1.6-.4c-.1 0-.2 0-.2 0-.3 0-.4.1-.5.2 0 .2 0 .3.1.5-.1 0-.1 0 0 0-.1 0 0 0 0 0z"/><g fill="#ff0"><path d="m22.5 32c-.2 0-.3 0-.3.1l-.2.2c.1 0 .2-.1.3-.1h.2c.4 0 1.1.3 1.6.4.5.2.9.3 1.3.5l.1-.1-.2-.2c-.3-.1-.5-.3-.9-.3-.5-.2-1.3-.3-1.7-.4 0-.1-.2-.1-.2-.1z"/><path d="m21.4 34.1c-.1 0-.3 0-.3 0l-.1.2h.2c.3 0 .6.1 1 .2.5.2 1.1.3 1.7.6s1.1.5 1.7.7l.1-.1-.1-.3c-.6-.2-1.1-.4-1.6-.6-.7-.3-1.5-.5-2-.7-.3 0-.5 0-.6 0z"/><path d="m25.5 37.4c-.4.1-.8.1-1.7.3-.8.3-2.2.6-2.9.9s-.9.6-1.2.8v.3c.2-.3.4-.4 1.1-.8.8-.3 1.9-.7 2.8-.9.8-.3 1.3-.3 1.8-.4z"/><path d="m25.5 38.5c-.6.1-1.3.2-2.1.4-.9.3-2 .6-2.7.9s-.8.5-1 .7v.3c.2-.3.4-.4 1.1-.8.8-.3 1.9-.7 2.8-.9.8-.3 1.3-.3 1.8-.3z"/><path d="m26 44.7c-.6.1-1.2.3-1.8.4-.8.3-1.6.6-2.1.8-.5.3-.6.4-.7.6l.1.2c.1-.2.2-.3.7-.5.5-.3 1.4-.6 2.2-.8s1.3-.3 1.8-.5l.1-.2z"/><path d="m26.5 45.9c-.5.1-1 .1-1.6.3-.7.2-1.5.5-2.1.8-.5.3-.7.4-.8.7l.1.2c.2-.2.3-.4.8-.6.5-.3 1.4-.6 2.1-.8s1.1-.3 1.5-.3z"/><path d="m33.5 50.2-.2.1v3.9h.3z"/><path d="m34.6 50.2-.2.1v3.9h.3z"/><path d="m41.8 45-.2.1v.2c.8.6 1.5 1.1 2.1 1.6s1.1 1 1.3 1.3.2.3.2.5l.2-.3c0-.2 0-.3-.3-.5-.2-.3-.6-.7-1.2-1.2-.5-.5-1.3-1.1-2.1-1.7z"/><path d="m42.3 42.4v.3c1.2.9 2.3 1.8 3 2.4s.9.9 1 1.2c.1.2.2.3.2.5l.2-.3c0-.2-.1-.3-.2-.5-.1-.3-.3-.6-1-1.2-.8-.6-1.9-1.5-3.2-2.4z"/><path d="m42.3 38.5v.3c1.5.3 3.1.7 4 1s1.3.7 1.8 1v-.3c-.4-.3-.8-.7-1.8-1-.9-.4-2.5-.7-4-1z"/><path d="m42.3 37.3v.3c1.5.3 3.1.7 4 1s1.3.7 1.8 1v-.3c-.4-.3-.8-.7-1.8-1-.9-.3-2.5-.7-4-1z"/><path d="m42.2 32.2.1.2c1.1.3 2.2.4 2.9.7s1.1.4 1.5.6l-.1-.3c-.4-.2-.8-.4-1.5-.6-.8-.2-1.8-.4-2.9-.6z"/><path d="m42.2 31v.3c1 .3 2 .5 2.7.7.6.2.8.4 1.2.6l-.3-.3c-.3-.2-.7-.4-1.3-.6-.6-.3-1.4-.5-2.3-.7z"/><path d="m34.4 25.8v4.7l.2.1.1-.1v-4.7z"/><path d="m33.2 25.8v4.7l.2.1.1-.1v-4.7z"/></g><path d="m25.6 30.6 16.5-.2.1 11.3c-.2 1.4-.3 2.9-1 4.2s-1.9 2.3-3.2 3.1c-1.3.7-2.4 1.1-3.8 1.1-.1 0-.1 0-.2 0-1.4 0-2.9-.4-4.3-1.2-1.3-.7-2.4-1.7-3-2.9-.7-1.3-.8-2.7-1.1-4.1z" fill="#f00"/><path d="m25.7 30.8.1 11.2h.1l-.2-11.2 16.3-.1.1 11.2h.1l-.1-11.3z"/><path d="m25.6 30.4c-.1 0-.1 0-.2.1 0 0-.1.1-.1.2l.2 11.3h.1l-.1-11.3v-.1c0-.1 0-.1.1-.2l16.5-.1c.1 0 .1.1.1.1l.1 11.3h.1l-.1-11.3c0-.1-.1-.2-.2-.2z"/><path d="m25.6 30.5c-.1 0-.1 0 0 0-.1.1-.1.1 0 0v11.5h.3l-.2-11.2 16.4-.2.1 11.3h.3l-.1-11.3c0-.1-.1-.1-.1-.1z" fill="#fff"/><path d="m25.9 42c-.1 4.5 3.7 8.1 8.2 8.1s8.1-3.8 8.1-8.3h-.1c0 4.4-3.6 8.1-8 8.2-4.6.1-8.2-3.5-8.2-8z"/><path d="m25.5 42c-.1 4.7 3.8 8.4 8.4 8.3 4.7 0 8.4-3.8 8.3-8.5h-.1c0 4.6-3.7 8.4-8.3 8.4-4.4.2-8.2-3.6-8.3-8.2z"/><path d="m25.5 42c0 4.6 3.8 8.3 8.4 8.3s8.3-3.8 8.3-8.4h-.3c0 4.5-3.6 8.2-8.1 8.3-4.5 0-8.2-3.6-8.3-8.2z" fill="#fff"/><path d="m38.7 41.7c-.1 0-.1 0 0 0-.1 2.6-2.1 4.7-4.7 4.8-2.6 0-4.6-2-4.7-4.6v-.1h-.1v.1c0 2.6 2.2 4.7 4.8 4.7 2.6-.1 4.7-2.2 4.7-4.9zm-9.4-7.7s-.1.1 0 0v7.7h.1l-.1-7.7h9.3l.1 7.6h.1l-.2-7.6z"/><path d="m29.3 34.1.1 7.7v.1c0 2.6 2.1 4.6 4.7 4.6s4.6-2.1 4.6-4.7v-.1l-.1-7.6z" fill="#fff"/><path d="m30 38.9v1.6.3l.1.2c0 .1.1.2.2.3.2.3.4.3.7.4h.2c.3 0 .4-.1.7-.3s.3-.4.4-.7v-.2-1.6z" fill="#00309a"/><path d="m31.9 39.4c0 .1-.1.3-.3.3-.1 0-.3-.1-.3-.3 0-.1.1-.3.3-.3s.3.2.3.3z" fill="#00309a"/><path d="m30.7 39.4c0 .1-.1.3-.3.3-.1 0-.3-.1-.3-.3 0-.1.1-.3.3-.3s.3.2.3.3z" fill="#00309a"/><path d="m31.3 40c0 .1-.1.3-.3.3-.1 0-.3-.1-.3-.3 0-.1.1-.3.3-.3s.3.2.3.3z" fill="#00309a"/><path d="m31.9 40.5c0 .1-.1.3-.3.3-.1 0-.3-.1-.3-.3 0-.1.1-.3.3-.3.2.1.3.3.3.3z" fill="#00309a"/><path d="m30.7 40.5c0 .1-.1.3-.3.3-.1 0-.3-.1-.3-.3 0-.1.1-.3.3-.3s.3.3.3.3z" fill="#00309a"/><path d="m30.5 39.1s0 .1 0 0c0 .1 0 .1 0 0h-.2s0 0-.1.1v.1.1.1.1s0 0 .1.1h.1.1.1s0 0 0-.1 0 0 0-.1v-.1s0 0-.1-.1c.1-.1 0-.1 0-.2z" fill="#fff"/><path d="m31.7 39.1c-.1 0-.1 0-.2.1-.1 0-.1.1-.1.2 0 .1 0 .1.1.2 0 .1.1.1.2.1.1 0 .1 0 .2-.1.1 0 .1-.1.1-.2s0 0 0-.1 0 0 0-.1c-.2 0-.2 0-.3-.1z" fill="#fff"/><path d="m31 39.7h-.2s0 0-.1.1v.1.1.1s0 0 .1.1h.2.1s0 0 0-.1 0 0 0-.1 0 0-.1-.1c.1-.1.1-.1 0-.2.1 0 .1 0 0 0z" fill="#fff"/><path d="m31.6 40.3c-.1 0-.1 0 0 0-.1 0-.1 0-.2 0v.1c0 .1 0 .1.1.2h.1.1.1.1v-.1-.1-.1c-.1.1-.2.1-.3 0 .1.1.1 0 0 0z" fill="#fff"/><path d="m30.5 40.3c-.1 0-.2.1-.2.2v.1.1.1l.1.1h.1l.1-.1v-.1-.1s0-.1-.1-.1 0 0-.1 0c.1-.1.1-.1.1-.2z" fill="#fff"/><path d="m32.9 35.2v1.6.3l.1.2c0 .1.1.2.2.3.2.3.4.3.7.4h.2c.3 0 .4-.1.7-.3s.3-.4.4-.7v-.2-1.6z" fill="#00309a"/><path d="m34.8 35.6c0 .1-.1.3-.3.3-.1 0-.3-.1-.3-.3 0-.1.1-.3.3-.3.1.2.3.2.3.3z" fill="#00309a"/><path d="m33.6 35.7c0 .1-.1.3-.3.3-.1 0-.3-.1-.3-.3 0-.1.1-.3.3-.3.2.1.3.1.3.3z" fill="#00309a"/><path d="m34.1 36.2c0 .1-.1.3-.3.3-.1 0-.3-.1-.3-.3 0-.1.1-.3.3-.3.3.1.3.2.3.3z" fill="#00309a"/><path d="m34.7 36.8c0 .1-.1.3-.3.3-.1 0-.3-.1-.3-.3 0-.1.1-.3.3-.3.2.1.3.2.3.3z" fill="#00309a"/><path d="m33.6 36.9c0 .1-.1.3-.3.3-.1 0-.3-.1-.3-.3 0-.1.1-.3.3-.3s.3.1.3.3z" fill="#00309a"/><path d="m33.4 35.5h-.2s0 0-.1.1v.1.1.1.1s0 0 .1.1h.1.1.1s0 0 0-.1 0 0 0-.1v-.1s0 0-.1-.1c.1-.2.1-.2 0-.2z" fill="#fff"/><path d="m34.6 35.5c-.1 0-.1 0-.2.1-.1 0-.1.1-.1.2 0 .1 0 .1.1.2 0 .1.1.1.2.1.1 0 .1 0 .2-.1.1 0 .1-.1.1-.2s0 0 0-.1 0 0 0-.1c-.2-.1-.3-.1-.3-.1z" fill="#fff"/><path d="m34 36c-.1 0-.1 0 0 0h-.2s0 0-.1.1v.1.1.1.1s0 0 .1.1h.1.1.1s0 0 0-.1 0 0 0-.1v-.1s0 0-.1-.1c.1-.2.1-.2 0-.2z" fill="#fff"/><path d="m34.6 36.6c-.1 0-.1 0 0 0-.1 0-.1 0-.2 0v.1c0 .1 0 .1.1.2h.1.1.1.1v-.1-.1-.1c-.3 0-.3 0-.3 0z" fill="#fff"/><path d="m33.4 36.6c-.1 0-.2.1-.2.2v.1.1.1l.1.1h.1l.1-.1v-.1-.1s0-.1-.1-.1 0 0-.1 0c.2-.2.1-.2.1-.2z" fill="#fff"/><path d="m33 38.9v1.6.3l.1.2c0 .1.1.2.2.3.2.3.4.3.7.4h.2c.3 0 .4-.1.7-.3s.3-.4.4-.7v-.2-1.6z" fill="#00309a"/><path d="m34.8 39.4c0 .1-.1.3-.3.3-.1 0-.3-.1-.3-.3 0-.1.1-.3.3-.3s.3.1.3.3z" fill="#00309a"/><path d="m33.6 39.4c0 .1-.1.3-.3.3-.1 0-.3-.1-.3-.3 0-.1.1-.3.3-.3s.3.1.3.3z" fill="#00309a"/><path d="m34.2 40c0 .1-.1.3-.3.3-.1 0-.3-.1-.3-.3 0-.1.1-.3.3-.3s.3.1.3.3z" fill="#00309a"/><path d="m34.8 40.5c0 .1-.1.3-.3.3-.1 0-.3-.1-.3-.3 0-.1.1-.3.3-.3.2.1.3.2.3.3z" fill="#00309a"/><path d="m33.6 40.5c0 .1-.1.3-.3.3-.1 0-.3-.1-.3-.3 0-.1.1-.3.3-.3s.3.2.3.3z" fill="#00309a"/><path d="m33.4 39.1h-.2s0 0-.1.1v.1.1.1.1s0 0 .1.1h.1.1.1s0 0 0-.1 0 0 0-.1v-.1s0 0-.1-.1c.2-.1.1-.2 0-.2.1 0 .1 0 0 0z" fill="#fff"/><path d="m34.6 39.1c-.1 0-.1 0-.2.1-.1 0-.1.1-.1.2s0 .1.1.2c0 .1.1.1.2.1.1 0 .1 0 .2-.1.1 0 .1-.1.1-.2s0 0 0-.1 0 0 0-.1c-.2 0-.2-.1-.3-.1z" fill="#fff"/><path d="m34 39.7c-.1 0-.1 0 0 0h-.2s0 0-.1.1v.1.1.1s0 0 .1.1h.1.1.1s0 0 0-.1 0 0 0-.1 0 0-.1-.1c.1-.2.1-.2 0-.2z" fill="#fff"/><path d="m34.6 40.3c-.1 0-.1 0 0 0-.1 0-.1 0-.2 0v.1c0 .1 0 .1.1.2h.1.1.1.1v-.1-.1-.1c-.3 0-.3 0-.3 0z" fill="#fff"/><path d="m33.4 40.3c-.1 0-.2.1-.2.2v.1.1.1l.1.1h.1l.1-.1v-.1-.1s0-.1-.1-.1 0 0-.1 0c.2-.2.2-.2.1-.2z" fill="#fff"/><path d="m36 38.8v1.6.3l.1.2c0 .1.1.2.2.3.2.3.4.3.7.4h.2c.3 0 .4-.1.7-.3s.3-.4.4-.7v-.2-1.6z" fill="#00309a"/><path d="m37.8 39.3c0 .1-.1.3-.3.3-.1 0-.3-.1-.3-.3 0-.1.1-.3.3-.3.2.1.3.2.3.3z" fill="#00309a"/><path d="m36.6 39.3c0 .1-.1.3-.3.3-.1 0-.3-.1-.3-.3 0-.1.1-.3.3-.3.2.1.3.2.3.3z" fill="#00309a"/><path d="m37.1 39.9c0 .1-.1.3-.3.3-.1 0-.3-.1-.3-.3 0-.1.1-.3.3-.3.3.1.3.2.3.3z" fill="#00309a"/><path d="m37.7 40.5c0 .1-.1.3-.3.3-.1 0-.3-.1-.3-.3 0-.1.1-.3.3-.3.2.1.3.2.3.3z" fill="#00309a"/><path d="m36.6 40.5c0 .1-.1.3-.3.3-.1 0-.3-.1-.3-.3 0-.1.1-.3.3-.3.2.1.3.2.3.3z" fill="#00309a"/><path d="m36.4 39.1h-.2s0 0-.1.1v.1.1.1.1s0 0 .1.1h.1.1.1s0 0 0-.1 0 0 0-.1v-.1s0 0-.1-.1c.1-.2.1-.2 0-.2z" fill="#fff"/><path d="m37.6 39.1c-.1 0-.1 0-.2.1-.1 0-.1.1-.1.2 0 .1 0 .1.1.2 0 .1.1.1.2.1.1 0 .1 0 .2-.1.1 0 .1-.1.1-.2s0 0 0-.1 0 0 0-.1c-.2-.1-.3-.1-.3-.1z" fill="#fff"/><path d="m37 39.7c-.1 0-.1 0 0 0h-.2s0 0-.1.1v.1.1.1s0 0 .1.1h.1.1.1s0 0 0-.1 0 0 0-.1 0 0-.1-.1c.1-.2.1-.2 0-.2z" fill="#fff"/><path d="m37.6 40.3c-.1 0-.1 0 0 0-.1 0-.1 0-.2 0v.1c0 .1 0 .1.1.2h.1.1.1.1v-.1-.1-.1c-.3 0-.3 0-.3 0z" fill="#fff"/><path d="m36.4 40.3c-.1 0-.2.1-.2.2v.1.1.1l.1.1h.1l.1-.1v-.1-.1s0-.1-.1-.1 0 0-.1 0c.2-.2.1-.2.1-.2z" fill="#fff"/><path d="m33 42.5v1.6.3l.1.2c0 .1.1.2.2.3.2.3.4.3.7.4h.2c.3 0 .4-.1.7-.3s.3-.4.4-.7v-.2-1.6z" fill="#00309a"/><path d="m34.8 43c0 .1-.1.3-.3.3-.1 0-.3-.1-.3-.3 0-.1.1-.3.3-.3.2.1.3.2.3.3z" fill="#00309a"/><path d="m33.6 43c0 .1-.1.3-.3.3-.1 0-.3-.1-.3-.3 0-.1.1-.3.3-.3s.3.2.3.3z" fill="#00309a"/><path d="m34.2 43.6c0 .1-.1.3-.3.3-.1 0-.3-.1-.3-.3 0-.1.1-.3.3-.3.2.1.3.2.3.3z" fill="#00309a"/><path d="m34.8 44.2c0 .1-.1.3-.3.3-.1 0-.3-.1-.3-.3 0-.1.1-.3.3-.3.2.1.3.1.3.3z" fill="#00309a"/><path d="m33.6 44.2c0 .1-.1.3-.3.3-.1 0-.3-.1-.3-.3 0-.1.1-.3.3-.3s.3.1.3.3z" fill="#00309a"/><path d="m33.5 42.8c-.1 0-.1 0 0 0h-.2s0 0-.1.1v.1.1.1.1s0 0 .1.1h.1.1.1s0 0 0-.1 0 0 0-.1v-.2s0 0-.1-.1c.1 0 .1-.1 0-.1z" fill="#fff"/><path d="m34.6 42.8c-.1 0-.1 0-.2.1-.1 0-.1.1-.1.2 0 .1 0 .1.1.2 0 .1.1.1.2.1.1 0 .1 0 .2-.1.1 0 .1-.1.1-.2s0 0 0-.1 0 0 0-.1c-.2 0-.2-.1-.3-.1z" fill="#fff"/><path d="m34.1 43.4c-.1 0-.1 0 0 0h-.2s0 0-.1.1v.1.1.1.1s0 0 .1.1h.1.1.1s0 0 0-.1 0 0 0-.1v-.1s0 0-.1-.1c0-.2 0-.2 0-.2z" fill="#fff"/><path d="m34.6 44c-.1 0-.1 0-.2 0 0 .1 0 .1.1.2h.1.1.1.1v-.1-.1c-.2 0-.2 0-.3 0z" fill="#fff"/><path d="m33.5 44c-.1 0-.2.1-.2.2v.1.1.1l.1.1h.1l.1-.1v-.1-.1s0-.1-.1-.1 0 0-.1 0c.1-.2.1-.2.1-.2z" fill="#fff"/><path d="m35.1 33.5-.1-.8c.1 0 .1-.1.1-.1v-.1c.1-.1.1-.1.1-.1v-.1h-2.4v.1s0 .1.1.1v.1l.1.1-.1.8c-.1 0-.1 0-.1.1v.2h.2 2.3s.1 0 .1-.1c0 0 0-.1 0-.2-.2 0-.3 0-.3 0zm0 0s.1 0 0 0c.1.2.1.2.1.3s-.1.1-.1.1h-2.3c-.1 0-.2 0-.2-.1s-.1-.2 0-.2c0-.1.1-.1.2-.1l.1-.8-.1-.1c0-.1 0-.1 0-.2l-.1-.1c0-.1 0-.1 0-.1h2.4l.1.1c0 .1-.1.1-.1.2l.1.1c0 .1-.1.1-.1.1z"/><path d="m35.1 33.5h-2.3z"/><path d="m35.1 32.6c0 .1 0 .1 0 0h-2.2 2.2c-.1 0 0 0 0 0z"/><path d="m33.4 33.5c0-.2 0-.4.1-.6s.3-.3.4-.3c.2.1.3.2.4.3.1.2.2.3.2.5 0-.2-.1-.4-.2-.5-.1-.2-.3-.2-.4-.3-.2.1-.3.2-.4.3 0 .2 0 .4-.1.6z"/><path d="m33.7 33.5c0-.2 0-.3 0-.3l.3-.3.3.3s.1.3.1.3c0-.2 0-.3-.1-.3-.1-.1-.2-.2-.3-.3-.1.1-.2.1-.3.2v.4c-.1 0-.1 0 0 0z"/><path d="m33 32.2-.1-.5-.1-.1v-.3h.2v.2h.2v-.2h.2v.2h.2v-.2h.2v.3l-.1.1v.5-.5l.1-.1v-.3h-.2v.2h-.2v-.2h-.2v.2h-.2v-.2h-.2v.3l.1.1.1.5s0 .1 0 0c-.1.1-.1 0 0 0-.1 0-.1 0 0 0z"/><path d="m33.7 32.2-.1-.9h-.1v-.3h.2v.2h.2v-.2h.2v.2h.2v-.2h.2v.3h-.2v.9-.9l.1-.1v-.3h-.1v.2h-.2v-.2h-.2v.2h-.2v-.2h-.2v.3h.1l.1 1s0 .1 0 0c-.1.1-.1 0 0 0-.1 0-.1 0 0 0z"/><path d="m34.5 32.2-.1-.5-.1-.1v-.3h.2v.2h.2v-.2h.2v.2h.1v-.2h.2v.3l-.1.1v.5-.5-.1-.3h-.2v.2h-.2v-.2h-.2v.2h-.2v-.2h-.2v.3l.1.1z"/><path d="m34.5 31.7h.5-.5c0-.1 0 0 0 0z"/><path d="m33.9 31.5.1.3h-.1z"/><path d="m34.7 31.9.1.2h-.1z"/><path d="m33.2 31.9.1.2h-.1z"/><path d="m34.1 32.7c.2.1.3.2.3.3.1.2.2.3.2.5h.6l-.1-.8z" fill="#ff0"/><path d="m32.8 33.5c-.1 0-.1 0 0 0-.1.1-.1.1-.1.2v.1h.2 2.3s.1 0 .1-.1v-.1-.1h-.1z" fill="#ff0"/><path d="m34 32.7c-.2.1-.3.2-.4.3-.1.2-.1.3-.2.5h.3c0-.2 0-.3.1-.3l.3-.3.3.3s.1.3.1.3h.3c0-.2-.1-.4-.2-.5-.3-.2-.5-.2-.6-.3z" fill="#ff0"/><path d="m34 32.9c-.1.1-.2.1-.3.2s-.1.3-.1.3h.5c0-.2 0-.3-.1-.3.1-.1.1-.2 0-.2z" fill="#ff0"/><path d="m32.8 32.4s0 .1 0 0c0 .1 0 .1 0 0 0 .1 0 .2.1.2h2.2c.1 0 .1-.1.1-.1s0 0 0-.1z" fill="#ff0"/><path d="m32.8 32.3c-.1 0-.1 0 0 0v.2h2.3c.1-.1.1-.1.1-.1s0 0 0-.1z" fill="#ff0"/><path d="m32.9 32.7-.1.8h.6c0-.2.1-.4.2-.5s.3-.2.3-.3z" fill="#ff0"/><path d="m33.2 31.9.1.2h-.1zm-.2-.2v.5h.5v-.5z" fill="#ff0"/><path d="m33.5 31.4-.2.1v-.1h-.1v.1h-.2v-.1h-.2v.3l.1.1h.6l.1-.1z" fill="#ff0"/><path d="m34 31.5.1.3h-.1zm-.3-.2v.9h.5v-.9z" fill="#ff0"/><path d="m34.2 30.9-.1.1v-.1h-.1v.1h-.2v-.1h-.1v.3h.1.5l.1-.1v-.3z" fill="#ff0"/><path d="m34.7 31.9.1.2h-.1zm-.2-.2v.5h.5v-.5z" fill="#ff0"/><path d="m35 31.4-.2.1v-.1h-.1v.1h-.2v-.1h-.2v.3l.1.1h.6v-.1z" fill="#ff0"/><path d="m41.5 33.5-.1-.8c.1 0 .1-.1.1-.1v-.1c.1-.1.1-.1.1-.1v-.1h-2.4v.1s0 .1.1.1v.1l.1.1-.1.8c-.1 0-.1 0-.1.1v.2h.2 2.3s.1 0 .1-.1c0 0 0-.1 0-.2-.2 0-.2 0-.3 0zm.1 0c.1.2.1.2.1.3s-.1.1-.1.1h-2.3c-.1 0-.2 0-.2-.1s-.1-.2 0-.2c0-.1.1-.1.2-.1l.1-.8-.1-.1c0-.1 0-.1 0-.2l-.1-.1c0-.1 0-.1 0-.1h2.4l.1.1c0 .1-.1.1-.1.2l.1.1c0 .1-.1.1-.1.1z"/><path d="m41.6 33.5h-2.3 2.3c-.1-.1-.1-.1 0 0 0-.1 0-.1 0 0z"/><path d="m41.5 32.6h-2.2 2.2c-.1-.1-.1-.1 0 0 0-.1 0-.1 0 0z"/><path d="m39.8 33.5c0-.2 0-.4.1-.6s.3-.3.4-.3c.2.1.3.2.4.3.1.2.2.3.2.5 0-.2-.1-.4-.2-.5-.1-.2-.3-.2-.4-.3-.2.1-.3.2-.4.3 0 .1-.1.3-.1.6 0-.1 0 0 0 0z"/><path d="m40.1 33.5c0-.2 0-.3 0-.3.1-.1.2-.2.3-.3l.3.3s.1.3.1.3c0-.2 0-.3-.1-.3-.1-.1-.2-.2-.3-.3-.1.1-.2.1-.3.2v.4c0-.1 0-.1 0 0z"/><path d="m39.4 32.2-.1-.5-.1-.1v-.3h.2v.2h.2v-.2h.2v.2h.2v-.2h.2v.3l-.2.1v.5-.5l.1-.1v-.3h-.2v.2h-.2v-.2h-.2v.2h-.2v-.2h-.2v.3l.1.1.2.5c-.1 0-.1 0 0 0-.1 0-.1-.1 0 0-.1-.1 0 0 0 0z"/><path d="m39.4 31.6h.5-.5c-.1.1-.1.1 0 0-.1 0-.1 0 0 0-.1 0 0 0 0 0z"/><path d="m40.1 32.2-.1-1v-.3h.2v.2h.2v-.2h.2v.2h.2v-.2h.2v.3l-.1.1v.9-.9l.1-.1v-.3h-.2v.2h-.2v-.2h-.2v.2h-.2v-.2h-.2v.3l.1 1c0-.1 0-.1 0 0z"/><path d="m40.9 32.1-.1-.5h-.1v-.3h.2v.2h.2v-.2h.2v.2h.2v-.2h.2v.3h-.2v.5-.5l.1-.1v-.3h-.2v.2h-.2v-.2h-.2v.2h-.2v-.2h-.2v.3l.3.1v.5s0 .1 0 0c-.1.1-.1 0 0 0-.1 0-.1 0 0 0z"/><path d="m40.1 31.2h.5z"/><path d="m40.3 31.4.1.3h-.1z"/><path d="m41.1 31.9.1.2h-.1z"/><path d="m39.6 31.9.1.2h-.1z"/><path d="m40.5 32.6c.2.1.3.2.3.3.1.2.2.3.2.5h.6l-.1-.8z" fill="#ff0"/><path d="m39.2 33.5c-.1 0-.1 0 0 0-.1.1-.1.1-.1.2v.1h.2 2.3s.1 0 .1-.1v-.1-.1h-.1z" fill="#ff0"/><path d="m40.3 32.6c-.2.1-.3.2-.4.3-.1.2-.1.3-.2.5h.3c0-.2 0-.3.1-.3s.2-.2.3-.3l.3.3s.1.3.1.3h.3c0-.2-.1-.4-.2-.5-.3-.1-.4-.2-.6-.3z" fill="#ff0"/><path d="m40.4 32.9c-.1.1-.2.1-.3.2s-.1.3-.1.3h.5c0-.2 0-.3-.1-.3.2-.2.1-.2 0-.2z" fill="#ff0"/><path d="m39.2 32.4c0 .1 0 .2.1.2h2.2c.1 0 .1-.1.1-.1s0 0 0-.1z" fill="#ff0"/><path d="m39.1 32.2c0 .1 0 .1 0 0v.2h2.3c.1-.1.1-.1.1-.1s0 0 0-.1z" fill="#ff0"/><path d="m39.3 32.6-.1.8h.6c0-.2.1-.4.2-.5s.3-.2.3-.3z" fill="#ff0"/><path d="m39.6 31.9.1.2h-.1zm-.2-.2v.5h.5v-.5z" fill="#ff0"/><path d="m39.8 31.4-.2.1v-.1h-.1v.1h-.2v-.1h-.2v.3l.1.1h.6l.1-.1z" fill="#ff0"/><path d="m40.3 31.4.1.3h-.1zm-.2-.1v.9h.5v-.9z" fill="#ff0"/><path d="m40.6 30.9-.2.1v-.1h-.1v.1h-.2v-.1h-.1v.3h.1.5l.1-.1v-.3z" fill="#ff0"/><path d="m41.1 31.9.1.2h-.1zm-.2-.3v.5h.5v-.5z" fill="#ff0"/><path d="m41.4 31.3-.2.1v-.1h-.1v.1h-.1v-.1h-.2v.3l.1.1h.6l.1-.1v-.3z" fill="#ff0"/><path d="m41.6 40-.1-.8c.1 0 .1-.1.1-.1v-.1c.1-.1.1-.1.1-.1v-.1h-2.4v.1s0 .1.1.1v.1l.1.1-.2.8c-.1 0-.1 0-.1.1v.2h.2 2.3s.1 0 .1-.1c0 0 0-.1 0-.2-.1 0-.2 0-.2 0zm0 0s.1 0 0 0c.1.2.1.2.1.3s-.1.1-.1.1h-2.3c-.1 0-.2 0-.2-.1s-.1-.2 0-.2c0-.1.1-.1.2-.1l.1-.8-.1-.2c0-.1 0-.1 0-.2l-.1-.1c0-.1 0-.1 0-.1h2.4l.1.1c0 .1-.1.1-.1.2l.1.1c0 .1-.1.1-.1.1z"/><path d="m41.6 39h-2.3 2.3c0-.1 0 0 0 0z"/><path d="m39.9 40c0-.2 0-.4.1-.6s.3-.3.4-.3c.2.1.3.2.4.3.1.2.2.3.2.5 0-.2-.1-.4-.2-.5-.1-.2-.3-.2-.4-.3-.2.1-.3.2-.4.3 0 .1-.1.4-.1.6z"/><path d="m40.1 40c0-.2 0-.3 0-.3.1-.1.2-.2.3-.3l.3.3s.1.3.1.3c0-.2 0-.3-.1-.3-.1-.1-.2-.2-.3-.3-.1.1-.2.1-.3.2z"/><path d="m39.5 38.7-.1-.5-.1-.1v-.3h.2v.2h.2v-.2h.2v.2h.1v-.2h.2v.3l-.1.1v.5-.5l.1-.1v-.3h-.2v.2h-.2v-.2h-.2v.2h-.2v-.2h-.2v.3l.1.1.2.5c-.1 0-.1 0 0 0-.1 0 0 0 0 0z"/><path d="m40.1 38.7-.1-.9v-.1-.3h.2v.2h.2v-.2h.2v.2h.2v-.2h.2v.3l-.1.1v.9-.9l.1-.1v-.3h-.2v.2h-.2v-.2h-.2v.2h-.2v-.2h-.2v.3l.1.1z"/><path d="m41 38.7-.1-.5-.1-.1v-.3h.2v.2h.2v-.2h.2v.2h.2v-.2h.2v.3l-.1.1v.5-.5l.1-.1v-.3h-.2v.2h-.2v-.2h-.2v.2h-.2v-.2h-.2v.3l.1.1.1.5c-.1 0-.1 0 0 0-.1 0-.1-.1 0 0 0-.1 0 0 0 0z"/><path d="m41 38.2h.5-.5c-.1 0-.1 0 0 0-.1-.1-.1-.1 0 0 0-.1 0-.1 0 0z"/><path d="m40.4 38 .1.3h-.1z"/><path d="m41.2 38.4.1.2h-.1z"/><path d="m39.6 38.4.1.2h-.1z"/><path d="m40.5 39.1c.2.1.3.2.3.3.1.2.2.3.2.5h.6l-.1-.8z" fill="#ff0"/><path d="m39.3 40c-.1 0-.1 0 0 0-.1.1-.1.1-.1.2v.1h.2 2.3s.1 0 .1-.1v-.1-.1h-.1z" fill="#ff0"/><path d="m40.4 39.2c-.2.1-.3.2-.4.3-.1.2-.1.3-.2.5h.3c0-.2 0-.3.1-.3.1-.1.2-.2.3-.3l.3.3s.1.3.1.3h.1c0-.2-.1-.4-.2-.5-.1-.2-.2-.3-.4-.3z" fill="#ff0"/><path d="m40.4 39.4c-.1.1-.2.1-.3.2s-.1.3-.1.3h.5c0-.2 0-.3-.1-.3.2-.1.2-.1 0-.2z" fill="#ff0"/><path d="m39.3 39c0 .1 0 .2.1.2h2.2c.1 0 .1-.1.1-.1s0 0 0-.1z" fill="#ff0"/><path d="m39.2 38.7c0 .1 0 .1 0 0v.2h2.3c.1-.1.1-.1.1-.1s0 0 0-.1z" fill="#ff0"/><path d="m39.4 39.1-.1.9h.6c0-.2.1-.4.2-.5s.3-.2.3-.3z" fill="#ff0"/><path d="m39.6 38.4.1.2h-.1zm-.2-.2v.5h.5v-.5z" fill="#ff0"/><path d="m39.9 37.9-.2.1v-.1h-.1v.1h-.2v-.1h-.2v.3l.1.1h.7l.1-.1v-.3z" fill="#ff0"/><path d="m40.4 38 .1.3h-.1zm-.3-.2v.9h.5v-.9z" fill="#ff0"/><path d="m40.6 37.4-.2.1v-.1h-.1v.1h-.2v-.1h-.1v.3h.1.5l.1-.1z" fill="#ff0"/><path d="m41.2 38.4.1.2h-.1zm-.2-.2v.5h.5v-.5z" fill="#ff0"/><path d="m41.5 37.9-.2.1v-.1h-.1v.1h-.2v-.1h-.2v.3l.1.1h.6l.1-.1z" fill="#ff0"/><path d="m28.7 33.5-.1-.8c.1 0 .1-.1.1-.1v-.1c.1-.1.1-.1.1-.1v-.1h-2.4v.1s0 .1.1.1v.1l.1.1-.1.8c-.1 0-.1 0-.1.1v.2h.2 2.3s.1 0 .1-.1c0 0 0-.1 0-.2-.2 0-.3 0-.3 0zm0 0s.1 0 0 0c.1.2.1.2.1.3s-.1.1-.1.1h-2.3c-.1 0-.2 0-.2-.1s-.1-.2 0-.2c0-.1.1-.1.2-.1l.1-.8-.1-.1c0-.1 0-.1 0-.2l-.1-.1c0-.1 0-.1 0-.1h2.4l.1.1c0 .1-.1.1-.1.2l.1.1c0 .1-.1.1-.1.1z"/><path d="m28.6 32.4c0 .1 0 .1 0 0h-2.3z"/><path d="m27 33.5c0-.2 0-.4.1-.6s.3-.3.4-.3c.2.1.3.2.4.3s.1.3.1.5c0-.2-.1-.4-.2-.5-.1-.2-.3-.2-.4-.3-.2.1-.3.2-.4.3z"/><path d="m27.2 33.5c0-.2 0-.3 0-.3.1-.1.2-.2.3-.3.1.1.2.2.3.3s.1.3.1.3c0-.2 0-.3-.1-.3s-.2-.2-.3-.3c-.1.1-.2.1-.3.2.1.2.1.3 0 .4z"/><path d="m26.5 32.3-.1-.5-.1-.1v-.3h.2v.2h.2v-.2h.2v.2h.1v-.2h.2v.3l-.1.1v.5-.5l.1-.1v-.3h-.2v.2h-.2v-.2h-.2v.2h-.2v-.2h-.2v.3l.1.1z"/><path d="m26.5 31.8h.5-.5c0-.1 0 0 0 0z"/><path d="m27.3 32.3-.1-.9-.1-.1h-.1v-.3h.2v.2h.2v-.2h.2v.2h.2v-.2h.2v.3l-.1.1v.9-.9l.1-.1v-.3h-.2v.2h-.2v-.2h-.2v.2h-.2v-.2h-.2v.3h.1l.1.1.1.9c-.1 0-.1 0 0 0-.1 0 0 0 0 0z"/><path d="m28 32.3v-.5l-.1-.1v-.3h.1v.2h.2v-.2h.2v.2h.2v-.2h.2v.3l-.1.1v.5-.5l.1-.1v-.3h-.2v.2h-.2v-.2h-.2v.2h-.2v-.2h-.2v.3l.1.1.1.5c0-.1 0-.1 0 0z"/><path d="m28 31.7h.5z"/><path d="m27.3 31.4h.5-.5c-.1 0-.1 0 0 0-.1-.1-.1-.1 0 0-.1-.1 0-.1 0 0z"/><path d="m27.5 31.6.1.3h-.1z"/><path d="m28.3 31.9.1.2h-.1z"/><path d="m26.7 31.9.1.2h-.1z"/><path d="m27.6 32.7c.2.1.3.2.3.3.1.2.2.3.2.5h.6l-.1-.8z" fill="#ff0"/><path d="m26.4 33.5c-.1 0-.1 0 0 0-.1.1-.1.1-.1.2v.1h.2 2.3s.1 0 .1-.1v-.1-.1h-.1z" fill="#ff0"/><path d="m27.5 32.7c-.2.1-.3.2-.4.3s-.1.3-.1.5h.3c0-.2 0-.3.1-.3.1-.1.2-.2.3-.3l.3.3c.1.1.1.3.1.3h.3c0-.2-.1-.4-.2-.5-.4-.1-.5-.2-.7-.3z" fill="#ff0"/><path d="m27.5 32.9c-.1.1-.2.1-.3.2s-.1.3-.1.3h.5c0-.2 0-.3-.1-.3.2 0 .1-.1 0-.2z" fill="#ff0"/><path d="m26.4 32.5c0 .1 0 .1 0 0 0 .1 0 .2.1.2h2.2c.1 0 .1-.1.1-.1s0 0 0-.1z" fill="#ff0"/><path d="m26.3 32.3c0 .1 0 .1 0 0v.2h2.3c.1-.1.1-.1.1-.1s0 0 0-.1z" fill="#ff0"/><path d="m26.5 32.7-.1.8h.6c0-.2.1-.4.2-.5s.3-.2.3-.3z" fill="#ff0"/><path d="m26.8 31.9.1.2h-.1zm-.3-.1v.5h.5v-.5z" fill="#ff0"/><path d="m27 31.4-.2.1v-.1h-.1v.1h-.2v-.1h-.2v.3l.1.1h.6l.1-.1v-.3z" fill="#ff0"/><path d="m27.5 31.6.1.3h-.1zm-.2-.2v.9h.5v-.9z" fill="#ff0"/><path d="m27.8 30.9-.2.1v-.1h-.1v.1h-.2v-.1h-.1v.3h.1.5l.1-.1v-.3z" fill="#ff0"/><path d="m28.3 31.9.1.2h-.1zm-.3-.1v.5h.5v-.5z" fill="#ff0"/><path d="m28.5 31.4-.2.1v-.1h-.1v.1h-.2v-.1.3l.1.1h.6l.1-.1v-.3z" fill="#ff0"/><path d="m28.6 40-.1-.8c.1 0 .1-.1.1-.1v-.1c.1-.1.1-.1.1-.1v-.1h-2.4v.2s0 .1.1.1v.1l.1.1-.1.7c-.1 0-.1 0-.1.1v.2h.2 2.3s.1 0 .1-.1c0 0 0-.1 0-.2-.1.1-.2.1-.3 0 .1.1 0 .1 0 0m.1 0s.1 0 0 0c.1.2.1.2.1.3s-.1.1-.1.1h-2.3c-.1 0-.2 0-.2-.1s-.1-.2 0-.2c0-.1.1-.1.2-.1l.1-.8-.1-.1c0-.1 0-.1 0-.2l-.1-.1c0-.1 0-.1 0-.1h2.4l.1.1c0 .1-.1.1-.1.2l.1.1c0 .1-.1.1-.1.1z"/><path d="m28.7 40s0 .1 0 0c0 .1 0 .1 0 0h-2.3 2.3c-.1 0-.1 0 0 0z"/><path d="m28.6 39.2s0 .1 0 0c0 .1 0 .1 0 0h-2.2 2.2c-.1 0-.1 0 0 0z"/><path d="m27 40c0-.2 0-.4.1-.6s.3-.3.4-.3c.2.1.3.2.4.3.1.2.2.3.2.5 0-.2-.1-.4-.2-.5-.1-.2-.3-.2-.4-.3-.2.1-.3.2-.4.3-.1.3-.1.5-.1.6 0 .1 0 .1 0 0z"/><path d="m27.2 40c0-.2 0-.3 0-.3.1-.1.2-.2.3-.3.1.1.2.2.3.3s.1.3.1.3c0-.2 0-.3-.1-.3-.1-.1-.2-.2-.3-.3-.1.1-.2.1-.3.2v.4s0 .1 0 0z"/><path d="m26.5 38.8-.1-.5h-.1v-.3h.2v.2h.2v-.2h.2v.2h.1v-.2h.2v.3h-.2v.5-.5l.1-.1v-.2h-.1v.2h-.2v-.2h-.2v.2h-.2v-.2h-.2v.3l.1.1.2.4c0 .1 0 .1 0 0z"/><path d="m26.5 38.3h.5z"/><path d="m27.3 38.8-.1-.9-.1-.1v-.3h.2v.2h.2v-.2h.2v.2h.2v-.2h.1v.3l-.1.1v.9-.9l.1-.1v-.3h-.2v.2h-.2v-.2h-.2v.2h-.2v-.2h-.2v.3l.1.1.2.9c0 .1-.1.1 0 0-.1.1-.1.1 0 0-.1 0-.1 0 0 0-.1 0 0 0 0 0z"/><path d="m28 38.8v-.5l-.1-.1v-.2h.1v.2h.2v-.2h.2v.2h.2v-.2h.2v.3l-.2.1v.5-.5l.1-.1v-.3h-.2v.2h-.2v-.2h-.2v.2h-.1v-.2h-.2v.3l.1.1z"/><path d="m27.5 38.1.1.3h-.1z"/><path d="m28.3 38.5.1.2h-.1z"/><path d="m26.7 38.5.1.2h-.1z"/><path d="m27.6 39.3c.2.1.3.2.3.3.1.2.2.3.2.5h.6l-.1-.8z" fill="#ff0"/><path d="m26.4 40.1c-.1 0-.1 0 0 0-.1.1-.1.1-.1.2v.1h.2 2.3s.1 0 .1-.1v-.1-.1h-.1z" fill="#ff0"/><path d="m27.5 39.3c-.2.1-.3.2-.4.3s-.1.3-.2.4h.3c0-.2 0-.3.1-.3.1-.1.2-.2.3-.3.1.1.2.2.3.3s.1.3.1.3c0-.2-.1-.4-.2-.5 0 0-.2-.1-.3-.2z" fill="#ff0"/><path d="m27.5 39.5c-.1.1-.2.1-.3.2s-.1.3-.1.3h.5c0-.2 0-.3-.1-.3.2-.1.1-.2 0-.2z" fill="#ff0"/><path d="m26.4 39c0 .1 0 .1 0 0 0 .1 0 .2.1.2h2.2c.1 0 .1-.1.1-.1s0 0 0-.1z" fill="#ff0"/><path d="m26.3 38.9s0 .1 0 0v.2h2.3c.1-.1.1-.1.1-.1s0 0 0-.1z" fill="#ff0"/><path d="m26.5 39.3-.1.8h.6c0-.2.1-.4.2-.5s.3-.2.3-.3z" fill="#ff0"/><path d="m26.7 38.5.1.2h-.1zm-.2-.1v.5h.5v-.5z" fill="#ff0"/><path d="m27 38h-.2-.1-.2-.2v.3l.1.1h.6l.1-.1v-.3z" fill="#ff0"/><path d="m27.5 38.1.1.3h-.1zm-.3-.2v.9h.5v-.9z" fill="#ff0"/><path d="m27.8 37.5-.2.1v-.1h-.1v.1h-.2v-.1h-.1v.3h.1.5l.1-.1z" fill="#ff0"/><path d="m28.3 38.5.1.2h-.1zm-.3-.2v.5h.5v-.5z" fill="#ff0"/><path d="m28.5 38h-.1-.1-.2-.1v.3l.1.1h.6l.1-.1v-.3z" fill="#ff0"/><path d="m30.8 45.7-.7-.5c0-.1 0-.1 0-.1s0 0-.1 0c0-.1 0-.1 0-.2 0 0 0 0-.1 0l-1.7 1.7v.1h.1c0 .1 0 .1.1.1h.1.1l.5.7v.1l.1.1s.1 0 .1-.1l1.6-1.7-.1-.2c0-.1 0-.1 0 0zm0-.1c.1-.1.1-.1 0 0 .2-.1.2 0 .2 0v.1l-1.6 1.7s-.1.1-.2.1c-.1 0-.1-.1-.2-.1 0-.1 0-.1 0-.2l-.5-.7h-.1-.1c0 .1 0 .1 0 0-.1 0-.1 0-.2 0l-.1-.1 1.7-1.7s.1 0 .1.1v.2s.1 0 .1.1v.2z"/><path d="m30.8 45.6-1.7 1.7 1.7-1.7c-.1 0-.1 0 0 0z"/><path d="m30 45-1.6 1.7z"/><path d="m30.1 45.1-1.5 1.6 1.5-1.6c-.1 0 0 0 0 0z"/><path d="m29.5 46.9c-.2-.2-.3-.3-.3-.5s0-.3.1-.5c.2-.1.3-.1.4-.1h.1c.2 0 .3.2.5.3-.2-.1-.3-.3-.5-.3h-.1c-.2 0-.3.1-.4.1-.1.2-.1.3-.1.5.1.1.3.3.3.5z"/><path d="m29.7 46.7c-.2-.1-.3-.2-.3-.3s0-.3 0-.3h.3s.1 0 .2 0 .2.1.3.3c-.1-.1-.2-.2-.3-.2h-.1c-.1 0-.2 0-.2 0 0 .1-.1.3 0 .3-.1 0 0 0 .1.2 0-.1 0 0 0 0z"/><path d="m28.4 46.3c0 .1 0 .1 0 0-.1.1-.1.1 0 0l-.4-.3h-.2l-.2-.2.1-.1.1.1.1-.1-.1-.1.1-.1.1.1.1-.1h-.1l.1-.1.2.2v.1l.3.3-.2-.3v-.1l-.2-.2-.1.1.1.1-.1.1-.1-.2v.1l.1.1-.2.1-.1-.1-.2.1.2.2h.2l.4.3c-.1 0-.1 0 0 0z"/><path d="m28 46 .3-.4z"/><path d="m28.9 45.8-.8-.7h-.1l-.2-.1.1-.1.1.1.1-.1-.1-.1.1-.1.1.1.1-.1-.1-.1.1-.1.2.2v.2l.7.7-.7-.7v-.2-.3l-.1.1.1.1-.1.1-.1-.1-.1.1.1.1-.3.2v-.1l-.1.1.2.2h.1l.7.6c-.1 0 0 0 0 0z"/><path d="m29.4 45.2-.4-.3h-.2l-.2-.2.1-.1.1.1.1-.1-.1-.1.1-.1.1.1.1-.1h-.1l.3-.3.2.2v.1l.3.3-.3-.3v-.1l-.2-.1-.1.1.1.1-.1.1-.2-.1v.1l.1.1h-.1l-.1-.1-.1.1.2.2h.2z"/><path d="m29 44.9.3-.4z"/><path d="m28.2 45.1.3-.4-.3.4c-.1 0-.1 0 0 0-.1 0 0 0 0 0z"/><path d="m28.5 45.1.3.1-.1.1z"/><path d="m29.4 44.8.2.1z"/><path d="m28.3 45.9.2.1z"/><path d="m29.5 45.9c.2-.1.3-.1.4-.1.2 0 .3.2.5.3l.4-.4-.6-.5z" fill="#ff0"/><path d="m29.1 47.3c0 .1 0 .1 0 0v.2h.1s.1 0 .1-.1l1.6-1.7v-.1s0 0 0-.1c0 0 0 0-.1 0h-.1z" fill="#ff0"/><path d="m29.4 46c-.1.2-.1.3-.1.5s.2.3.3.4l.2-.2c-.1-.1-.2-.2-.3-.3 0-.1 0-.3-.1-.4.2.1.3.1.4.1s.2.1.3.2l.2-.2c-.2-.1-.3-.3-.5-.3-.1 0-.3.1-.4.2z" fill="#ff0"/><path d="m29.5 46.1v.3s.1.2.2.3l.4-.4c-.1-.2-.1-.3-.2-.3-.2 0-.3 0-.4.1z" fill="#ff0"/><path d="m28.4 46.5c.1.1.1.1 0 0 .1.1.1.1.2.1l1.5-1.5c0-.1 0-.1 0-.1s0 0-.1 0z" fill="#ff0"/><path d="m28.2 46.5c.1 0 .1 0 0 0 .1.1.1.1.2.1l1.6-1.6c0-.1 0-.1 0-.2s0 0-.1 0z" fill="#ff0"/><path d="m28.6 46.6.5.6.4-.4c-.1-.2-.3-.3-.3-.5s0-.3.1-.4z" fill="#ff0"/><path d="m28.3 45.9.2.1zm-.3.1.3.3.3-.3-.3-.3z" fill="#ff0"/><path d="m28.1 45.4v.2-.2l-.1.1.1.1-.2.2-.1-.1-.1.1.2.2h.1l.4-.4v-.1z" fill="#ff0"/><path d="m28.5 45.1.3.2-.1.1zm-.3 0 .7.7.3-.3-.7-.7z" fill="#ff0"/><path d="m28.3 44.5v.2-.2l-.2.2.1.1-.2.2v-.1l-.1.1.2.2h.1l.4-.4v-.2z" fill="#ff0"/><path d="m29.4 44.8.2.1zm-.4.1.3.3.3-.3-.3-.3z" fill="#ff0"/><path d="m29.1 44.3v.2-.2l-.1.2.1.1h-.1l-.1-.1-.1.1.2.2.4-.4v-.1z" fill="#ff0"/><path d="m38.9 47.2.5-.7h.1.1s0 0 0-.1h.1s.1 0 .1 0 0 0 0-.1l-1.7-1.7h-.1v.1s-.1 0-.1.1v.2l-.7.5h-.1l-.1.1s0 .1.1.1l1.8 1.5c-.1 0-.1 0 0 0 .1.1.1.1 0 0zm.1 0c.1.2 0 .2 0 .2h-.1l-1.7-1.6s-.1-.1-.1-.2.1-.1.1-.2h.1l.7-.4c0-.1 0-.1 0-.2s.1-.1.1-.1c0-.1 0-.1 0-.2l.1-.1 1.7 1.7s0 .1-.1.1h-.1s0 0-.1 0 0 .1-.1.1h-.1-.1z"/><path d="m39 47.2c-.1 0-.1 0 0 0l-1.7-1.6 1.7 1.6c-.1 0-.1 0 0 0z"/><path d="m39.6 46.5-1.6-1.6z"/><path d="m39.5 46.5c0 .1 0 .1 0 0l-1.6-1.5 1.6 1.5c-.1 0 0 0 0 0z"/><path d="m37.7 46c.1-.2.3-.3.4-.3h.1c.2 0 .3.1.4.1.1.2.2.3.1.5 0 .2-.2.3-.3.5.1-.2.3-.3.3-.5s0-.3-.1-.5c-.2-.1-.3-.1-.4-.1h-.1c0 .1-.2.2-.4.3-.1 0-.1 0 0 0-.1 0 0 0 0 0z"/><path d="m37.9 46.2c.1-.1.2-.2.3-.3h.1.2c0 .1.1.3 0 .3 0 .1-.1.2-.3.3.1-.1.2-.2.2-.3s0-.2 0-.3c-.1 0-.2 0-.2 0h-.1c0 .1-.1.2-.2.3 0-.1 0 0 0 0z"/><path d="m38.3 44.8.3-.4v-.2l.2-.2.1.1-.1.1.1.1.1-.1.1.1-.1.1.1.1.1-.1.1.1-.2.2h-.1l-.4.3.3-.3h.1l.2-.2v.1l-.1.1-.1-.1.1-.1-.1-.1v.1l-.1-.1.1-.1-.3-.2-.2.2v.2l-.2.3c-.1 0-.1 0 0 0-.1 0 0 0 0 0z"/><path d="m38.6 44.5.4.3-.4-.3c0-.1 0-.1 0 0z"/><path d="m38.8 45.3.7-.7v-.1-.1l.2-.2.1.1-.1.1.1.1.1-.1.1.1-.1.1.1.1.1-.1.1.1-.2.2h-.2l-.5.8.7-.7h.2l.2-.2-.2-.2-.2.2-.1-.1.1-.1-.1-.1-.1.1-.1-.1.1-.1-.1-.1-.2.2v.1.1l-.7.6c0 .1 0 .1 0 0-.1 0 0 0 0 0z"/><path d="m39.4 45.9.3-.4v-.2l.2-.2.1.1-.1.1.1.1.1-.1.1.1-.1.1.1.1.1-.1.1.1-.2.2h-.1l-.4.2.3-.3h.1l.2-.2-.1-.1-.1.1-.1.1.1-.1-.1-.2v.2l-.1-.1.1-.1-.1-.1-.2.2v.2l-.3.3c-.1 0-.1 0 0 0-.1-.1-.1-.1 0 0 0-.1 0-.1 0 0z"/><path d="m39.7 45.5.4.3z"/><path d="m39.5 44.6.4.3-.4-.3c-.1 0-.1 0 0 0-.1 0 0 0 0 0z"/><path d="m39.4 45-.1.3-.1-.1z"/><path d="m39.7 45.8-.1.2z"/><path d="m38.6 44.7-.1.2z"/><path d="m38.7 45.9c.1.2.1.3.1.4 0 .2-.2.3-.3.5l.4.4.5-.6z" fill="#ff0"/><path d="m37.2 45.6c-.1 0-.1 0 0 0-.1 0-.1 0-.2 0v.1s0 .1.1.1l1.7 1.6h.1.1s0 0 0-.1v-.1z" fill="#ff0"/><path d="m38.6 45.8c-.2-.1-.3-.1-.5-.1s-.3.2-.4.3l.2.2c.1-.1.2-.2.3-.3.1 0 .3 0 .4-.1-.1.2-.1.3-.1.4s-.1.2-.2.3l.2.2c.1-.2.3-.3.3-.5 0-.1-.1-.2-.2-.4z" fill="#ff0"/><path d="m38.5 46c-.1 0-.2 0-.3 0s-.2.1-.3.2l.4.4c.1-.1.2-.2.2-.3s0-.2 0-.3z" fill="#ff0"/><path d="m38 44.9s0 .1 0 0c-.1.1-.1.1 0 0l1.4 1.6h.1s0 0 0-.1z" fill="#ff0"/><path d="m38.1 44.7c-.1.1-.1.1-.1.2l1.6 1.6h.2s0 0 0-.1z" fill="#ff0"/><path d="m37.9 45-.6.5.4.4c.2-.1.3-.3.5-.3s.3 0 .4.1z" fill="#ff0"/><path d="m38.6 44.7-.1.2zm0-.2-.3.3.3.3.3-.3z" fill="#ff0"/><path d="m39.2 44.5h-.2.2l-.2-.2v.2l-.1-.1.1-.1-.2-.2-.2.2v.1l.4.4h.1z" fill="#ff0"/><path d="m39.5 45-.2.3-.1-.2zm0-.3-.7.7.3.3.7-.7z" fill="#ff0"/><path d="m40.1 44.8h-.2.2l-.2-.2-.1.1-.1-.1.1-.1-.1-.1-.2.2v.1l.4.4h.2z" fill="#ff0"/><path d="m39.7 45.8-.1.2zm0-.3-.3.3.3.3.3-.3z" fill="#ff0"/><path d="m40.3 45.6h-.3l.1-.1-.1-.2v.2l-.1-.1.1-.1-.1-.1-.2.2v.1l.4.4h.1z" fill="#ff0"/><path d="m40.1 79.5c-21.8 0-39.5-17.7-39.5-39.5s17.7-39.5 39.5-39.5 39.5 17.7 39.5 39.5-17.7 39.5-39.5 39.5zm0-75c-19.6 0-35.5 15.9-35.5 35.5s15.9 35.5 35.5 35.5 35.5-15.9 35.5-35.5-15.9-35.5-35.5-35.5z" fill="#231f20"/></svg>