<svg enable-background="new 0 0 80 80" viewBox="0 0 80 80" xmlns="http://www.w3.org/2000/svg" xmlns:xlink="http://www.w3.org/1999/xlink"><clipPath id="a"><ellipse cx="40" cy="40.1" rx="36.9" ry="37" transform="matrix(.1602 -.9871 .9871 .1602 -5.9262 73.1407)"/></clipPath><clipPath id="b"><ellipse cx="40" cy="40" rx="37" ry="36.9" transform="matrix(.6001 -.7999 .7999 .6001 -16.0053 48.04)"/></clipPath><g clip-path="url(#a)"><path d="m3-15.3h73.8v110.7h-73.8z" fill="#ed2939"/><path d="m3.1-15.3h49.2v110.7h-49.2z" fill="#f2f2f2"/><path d="m3-15.3h24.6v110.7h-24.6z" fill="#002654"/></g><ellipse clip-path="url(#b)" cx="40" cy="40.1" fill="none" rx="36.9" ry="37" transform="matrix(.1602 -.9871 .9871 .1602 -5.9262 73.1407)"/><path d="m27.7 5.1c0 23.3.1 46.5.1 69.8 2.7.9 6.8 2 11.8 2 5.5.1 9.9-1.1 12.7-2.1 0-23.2 0-46.4 0-69.6-2.7-1-6.9-2.1-12.1-2.2-5.4 0-9.7 1.1-12.5 2.1z" fill="#fff"/><path d="m40.1 79.5c-21.8 0-39.5-17.7-39.5-39.5s17.7-39.5 39.5-39.5 39.5 17.7 39.5 39.5-17.7 39.5-39.5 39.5zm0-75c-19.6 0-35.5 15.9-35.5 35.5s15.9 35.5 35.5 35.5 35.5-15.9 35.5-35.5-15.9-35.5-35.5-35.5z" fill="#231f20"/></svg>