<svg enable-background="new 0 0 80 80" viewBox="0 0 80 80" xmlns="http://www.w3.org/2000/svg"><path clip-rule="evenodd" d="m2.4 40.2h75.5c0-20.8-16.9-37.7-37.7-37.8h-.1c-20.8.1-37.7 17-37.7 37.8z" fill="#fff" fill-rule="evenodd"/><path clip-rule="evenodd" d="m39.3 77.9h1.6c20.5-.4 36.9-17.1 36.9-37.7h-75.4c0 20.6 16.5 37.3 36.9 37.7z" fill="#d7141a" fill-rule="evenodd"/><path d="m39.8 40.3c-8.6-9.1-17.3-18.1-25.9-27.2-1.8 1.6-11.5 11.4-11.5 27.1 0 15.4 9.4 25 11.2 26.8 8.7-8.9 17.5-17.8 26.2-26.7z" fill="#11457e"/><path d="m40.1 79.5c-21.8 0-39.5-17.7-39.5-39.5s17.7-39.5 39.5-39.5 39.5 17.7 39.5 39.5-17.7 39.5-39.5 39.5zm0-75c-19.6 0-35.5 15.9-35.5 35.5s15.9 35.5 35.5 35.5 35.5-15.9 35.5-35.5-15.9-35.5-35.5-35.5z" fill="#231f20"/></svg>