<svg enable-background="new 0 0 80 80" viewBox="0 0 80 80" xmlns="http://www.w3.org/2000/svg" xmlns:xlink="http://www.w3.org/1999/xlink"><clipPath id="a"><ellipse cx="40" cy="40" rx="37.5" ry="37.6" transform="matrix(.1602 -.9871 .9871 .1602 -5.8654 73.0502)"/></clipPath><clipPath id="b"><ellipse cx="40" cy="40" rx="37.5" ry="37.6" transform="matrix(.1602 -.9871 .9871 .1602 -5.8654 73.0502)"/></clipPath><clipPath id="c"><ellipse cx="40" cy="40" rx="37.5" ry="37.6" transform="matrix(.1602 -.9871 .9871 .1602 -5.8654 73.0502)"/></clipPath><clipPath id="d"><ellipse cx="40" cy="40" rx="37.6" ry="37.5" transform="matrix(.6001 -.7999 .7999 .6001 -15.9627 48.0043)"/></clipPath><path clip-path="url(#a)" d="m2.4-16.3h75v112.5h-75z" fill="#cd212a"/><path clip-path="url(#b)" d="m2.5-16.3h50v112.5h-50z" fill="#f2f2f2"/><path clip-path="url(#c)" d="m2.4-16.3h25v112.5h-25z" fill="#008c45"/><ellipse clip-path="url(#d)" cx="40" cy="40" fill="none" rx="37.5" ry="37.6" transform="matrix(.1602 -.9871 .9871 .1602 -5.8648 73.0479)"/><path d="m27.5 4.6c0 23.6.1 47.2.1 70.8 2.8.9 6.9 2 12 2.1 5.6.1 10.1-1.1 13-2.1 0-23.6 0-47.1 0-70.7-2.7-1-7-2.1-12.3-2.2-5.6-.1-10 1.1-12.8 2.1z" fill="#fff"/><path d="m40.1 79.5c-21.8 0-39.5-17.7-39.5-39.5s17.7-39.5 39.5-39.5 39.5 17.7 39.5 39.5-17.7 39.5-39.5 39.5zm0-75c-19.6 0-35.5 15.9-35.5 35.5s15.9 35.5 35.5 35.5 35.5-15.9 35.5-35.5-15.9-35.5-35.5-35.5z" fill="#231f20"/></svg>