<svg enable-background="new 0 0 80 80" viewBox="0 0 80 80" xmlns="http://www.w3.org/2000/svg"><path clip-rule="evenodd" d="m39.2 77.1h1.6c20.1-.4 36.3-16.8 36.3-37h-74.2c0 20.2 16.2 36.6 36.3 37z" fill="#ba0c2f" fill-rule="evenodd"/><path clip-rule="evenodd" d="m2.9 40h74.2c0-20.5-16.6-37-37-37.1h-.1c-20.5.1-37.1 16.7-37.1 37.1z" fill="#ba0c2f" fill-rule="evenodd"/><path d="m76.9 43.9c-24.6 0-49.2 0-73.7 0-.2-1.3-.3-2.8-.2-4.4 0-1.5.2-2.9.2-4.1h73.6c.2 1.2.2 2.6.3 4.1 0 1.6-.1 3.1-.2 4.4z" fill="#efefef"/><path d="m29.9 4.3v71.4c-1.6-.4-3.3-1.1-5.2-1.9-1.5-.7-2.9-1.4-4-2.1 0-21.1 0-42.2 0-63.4 1.2-.7 2.7-1.6 4.5-2.3 1.6-.7 3.3-1.3 4.7-1.7z" fill="#efefef"/><path d="m77 42c-24.7 0-49.3 0-74.1 0-.1-.8-.1-1.8-.1-2.7 0-.7.1-1.2.1-1.9h74c.1.7.1 1.3.1 2.1.1.9.1 1.7 0 2.5z" fill="#00205b"/><path d="m27.7 5.1v70c-.7-.2-1.6-.6-2.5-1-.8-.3-1.6-.7-2.2-1.1 0-21.9 0-43.9 0-65.8.7-.4 1.6-.8 2.5-1.2.8-.4 1.4-.7 2.2-.9z" fill="#00205b"/><path d="m40.1 79.5c-21.8 0-39.5-17.7-39.5-39.5s17.7-39.5 39.5-39.5 39.5 17.7 39.5 39.5-17.7 39.5-39.5 39.5zm0-75c-19.6 0-35.5 15.9-35.5 35.5s15.9 35.5 35.5 35.5 35.5-15.9 35.5-35.5-15.9-35.5-35.5-35.5z" fill="#231f20"/></svg>