<svg enable-background="new 0 0 80 80" viewBox="0 0 80 80" xmlns="http://www.w3.org/2000/svg" xmlns:xlink="http://www.w3.org/1999/xlink"><clipPath id="a"><circle cx="40.5" cy="40.2" r="36"/></clipPath><clipPath id="b"><circle cx="40.5" cy="40.2" r="36"/></clipPath><g clip-path="url(#a)"><g transform="matrix(1.6 0 0 1.6 -200 -783.7795)"><path d="m96.4 479h107.9v71.9h-107.9z" fill="#0037a6"/><path d="m123.5 534.2 6.2-.2 47.7-34.3-.2-4.1-6.2.2-47.7 34.3z" fill="#fff"/><path d="m177.2 534.2-6.2-.2-47.7-34.2.2-4.1 6.2.2 47.7 34.2z" fill="#fff"/><g fill="#f20000"><path d="m123.5 534.2 4.1-.2 17.9-12.9-4.1.2z"/><path d="m155.2 508.7 4.1-.2 17.9-12.9-4.1.2z"/><path d="m177.2 534.2.1-2.7-13.9-9.9-4.1-.2z"/><path d="m123.5 495.7-.1 2.7 13.9 9.9 4.1.2z"/></g><path d="m145.2 491.6h10.2v46.8h-10.2z" fill="#fff"/><path d="m119.2 508.1h62.2v13.9h-62.2z" fill="#fff"/><path d="m119.2 510.9h62.2v8.3h-62.2z" fill="#f20000"/><path d="m147.2 492.3h6.2v45.4h-6.2z" fill="#f20000"/></g></g><ellipse clip-path="url(#b)" cx="40.5" cy="40.2" fill="none" rx="36" ry="36"/><path d="m40.1 79.5c-21.8 0-39.5-17.7-39.5-39.5s17.7-39.5 39.5-39.5 39.5 17.7 39.5 39.5-17.7 39.5-39.5 39.5zm0-75c-19.6 0-35.5 15.9-35.5 35.5s15.9 35.5 35.5 35.5 35.5-15.9 35.5-35.5-15.9-35.5-35.5-35.5z" fill="#231f20"/></svg>