<svg enable-background="new 0 0 78 78" viewBox="0 0 78 78" xmlns="http://www.w3.org/2000/svg" xmlns:xlink="http://www.w3.org/1999/xlink"><clipPath id="a"><ellipse cx="39" cy="39" rx="37" ry="37.1" transform="matrix(.1602 -.9871 .9871 .1602 -5.7184 71.2235)"/></clipPath><clipPath id="b"><ellipse cx="39" cy="39" rx="37" ry="37.1" transform="matrix(.1602 -.9871 .9871 .1602 -5.7184 71.2235)"/></clipPath><clipPath id="c"><ellipse cx="39" cy="39" rx="37" ry="37.1" transform="matrix(.1602 -.9871 .9871 .1602 -5.7184 71.2235)"/></clipPath><clipPath id="d"><ellipse cx="39" cy="39" rx="37.1" ry="37" transform="matrix(.6001 -.7999 .7999 .6001 -15.5632 46.8043)"/></clipPath><path clip-path="url(#a)" d="m1.9-16.5h74v111h-74z" fill="#cd212a"/><path clip-path="url(#b)" d="m2-16.5h49.3v111h-49.3z" fill="#f2f2f2"/><path clip-path="url(#c)" d="m1.9-16.5h24.7v111h-24.7z" fill="#008c45"/><ellipse clip-path="url(#d)" cx="39" cy="39" fill="none" rx="37" ry="37.1" transform="matrix(.1602 -.9871 .9871 .1602 -5.7178 71.2214)"/><path d="m26.6 4.1c0 23.3.1 46.6.1 69.9 2.7.9 6.8 2 11.8 2 5.5.1 10-1.1 12.8-2.1 0-23.2 0-46.5 0-69.7-2.6-1-6.9-2.2-12.1-2.2-5.4 0-9.8 1.1-12.6 2.1z" fill="#fff"/><path d="m39 77.5c-21.2 0-38.5-17.3-38.5-38.5s17.3-38.5 38.5-38.5 38.5 17.3 38.5 38.5-17.3 38.5-38.5 38.5zm0-75c-20.1 0-36.5 16.4-36.5 36.5s16.4 36.5 36.5 36.5 36.5-16.4 36.5-36.5-16.4-36.5-36.5-36.5z" fill="#231f20"/></svg>