<svg enable-background="new 0 0 78 78" viewBox="0 0 78 78" xmlns="http://www.w3.org/2000/svg"><path clip-rule="evenodd" d="m38.2 76h1.6c20.1-.4 36.2-16.8 36.2-37h-74c0 20.2 16.1 36.6 36.2 37z" fill="#ba0c2f" fill-rule="evenodd"/><path clip-rule="evenodd" d="m2 39h74c0-20.4-16.5-36.9-37-37-20.5.1-37 16.6-37 37z" fill="#ba0c2f" fill-rule="evenodd"/><path d="m75.8 42.9c-24.5 0-49.1 0-73.6 0-.2-1.3-.2-2.8-.2-4.4 0-1.5.2-2.9.2-4.1h73.5c.2 1.2.2 2.6.3 4.1 0 1.6-.1 3.1-.2 4.4z" fill="#efefef"/><path d="m28.9 3.4v71.2c-1.6-.4-3.3-1.1-5.2-1.9-1.5-.7-2.9-1.4-4-2.1 0-21.1 0-42.2 0-63.2 1.2-.7 2.7-1.6 4.4-2.3 1.8-.7 3.4-1.3 4.8-1.7z" fill="#efefef"/><path d="m75.9 41c-24.6 0-49.2 0-73.9 0-.1-.8-.1-1.8-.1-2.7 0-.7.1-1.2.1-1.9h73.9c.1.7.1 1.3.1 2.1 0 .9 0 1.7-.1 2.5z" fill="#00205b"/><path d="m26.7 4.1v69.8c-.7-.2-1.6-.6-2.5-1-.8-.3-1.6-.7-2.2-1.1 0-21.9 0-43.8 0-65.7.7-.4 1.6-.8 2.5-1.2.8-.3 1.4-.5 2.2-.8z" fill="#00205b"/><path d="m39 77.5c-21.2 0-38.5-17.3-38.5-38.5s17.3-38.5 38.5-38.5 38.5 17.3 38.5 38.5-17.3 38.5-38.5 38.5zm0-75c-20.1 0-36.5 16.4-36.5 36.5s16.4 36.5 36.5 36.5 36.5-16.4 36.5-36.5-16.4-36.5-36.5-36.5z" fill="#231f20"/></svg>