<svg enable-background="new 0 0 78 78" viewBox="0 0 78 78" xmlns="http://www.w3.org/2000/svg"><path clip-rule="evenodd" d="m2.2 39h73.7c0-20.3-16.5-36.8-36.8-36.9h-.1c-20.3.1-36.8 16.6-36.8 36.9z" fill="#c8102e" fill-rule="evenodd"/><path clip-rule="evenodd" d="m38.3 75.8h1.6c20-.4 36.1-16.7 36.1-36.8h-73.8c0 20.1 16.1 36.4 36.1 36.8z" fill="#c8102e" fill-rule="evenodd"/><path d="m75.8 41c-24.5 0-49 0-73.6 0 0-.7-.1-1.6-.1-2.4s.1-1.6.1-2.2h73.5c.1.7.1 1.5.1 2.2.1.9.1 1.7 0 2.4z" fill="#fff"/><path d="m26.8 4.3v69.5c-.8-.3-1.7-.7-2.6-1.1-.7-.3-1.4-.7-2-1 0-21.8 0-43.7 0-65.5.7-.4 1.6-.7 2.4-1.1.7-.3 1.5-.6 2.2-.8z" fill="#fff"/><path d="m39 77.5c-21.2 0-38.5-17.3-38.5-38.5s17.3-38.5 38.5-38.5 38.5 17.3 38.5 38.5-17.3 38.5-38.5 38.5zm0-75c-20.1 0-36.5 16.4-36.5 36.5s16.4 36.5 36.5 36.5 36.5-16.4 36.5-36.5-16.4-36.5-36.5-36.5z" fill="#231f20"/></svg>