<svg enable-background="new 0 0 78 78" viewBox="0 0 78 78" xmlns="http://www.w3.org/2000/svg" xmlns:xlink="http://www.w3.org/1999/xlink"><clipPath id="a"><ellipse cx="38.9" cy="39" rx="36.8" ry="36.7" transform="matrix(.1602 -.9871 .9871 .1602 -5.8341 71.195)"/></clipPath><clipPath id="b"><ellipse cx="38.9" cy="38.9" rx="36.8" ry="36.7" transform="matrix(.4642 -.8857 .8857 .4642 -13.6232 55.3649)"/></clipPath><g clip-path="url(#a)"><path d="m-16.2 2.3h110.2v73.5h-110.2z" fill="#050807"/><path d="m-16.2 26.7h110.2v49h-110.2z" fill="#ff0005"/><path d="m-16.2 51.3h110.2v24.5h-110.2z" fill="#ffdc00"/></g><ellipse clip-path="url(#b)" cx="38.9" cy="39" fill="none" rx="36.8" ry="36.7" transform="matrix(.1602 -.9871 .9871 .1602 -5.834 71.195)"/><path d="m39 77.5c-21.2 0-38.5-17.3-38.5-38.5s17.3-38.5 38.5-38.5 38.5 17.3 38.5 38.5-17.3 38.5-38.5 38.5zm0-75c-20.1 0-36.5 16.4-36.5 36.5s16.4 36.5 36.5 36.5 36.5-16.4 36.5-36.5-16.4-36.5-36.5-36.5z" fill="#231f20"/></svg>