<svg enable-background="new 0 0 78 78" viewBox="0 0 78 78" xmlns="http://www.w3.org/2000/svg" xmlns:xlink="http://www.w3.org/1999/xlink"><clipPath id="a"><circle cx="39" cy="39" r="36.7"/></clipPath><clipPath id="b"><circle cx="39" cy="39" r="36.7"/></clipPath><g clip-path="url(#a)"><path d="m-12 2.3h110.1v73.4h-110.1z" fill="#e5000e"/><path d="m-12 20.6h110.1v36.7h-110.1z" fill="#ffd500"/><g stroke="#7f2210"><path d="m32.1 31-.3.8-.5.8-1.6 1.1h-9.7l-1.2-1-.9-1-.1-.6-.4-.1c.7-.6 1.7-1.1 2.9-1.1 2.1.1 1.6-.7 4.4-.7s2.3.8 4.4.7c1.2 0 2.3.6 3 1.1z" fill="#e41a24" stroke-width=".047882"/><path d="m24.8 33.2c-2 0-3.8.2-5 .6-.1 0-.2 0-.2-.1s0-.2.1-.2c1.3-.4 3.1-.7 5.1-.7s3.8.2 5.1.7c.1 0 .2.1.1.2 0 .1-.1.1-.2.1-1.3-.3-3.1-.6-5-.6" fill="#e5ad00" stroke-width=".047882"/><path d="m24.8 31.7h.2v.2c0 .4.3.7.7.7.3 0 .6-.2.7-.5l.1-.2v.2c.1.3.3.6.7.6s.7-.3.7-.7v-.1l.2-.2.2.2c-.1.1-.1.2-.1.3 0 .3.3.7.7.7.2 0 .5-.1.6-.3l.2-.2v.2c0 .2.1.4.3.5 0 0 .2 0 .6-.2.3-.2.5-.5.5-.5v.2s-.2.4-.6.6c-.2.1-.4.2-.7.2-.2 0-.3-.2-.4-.4-.2.1-.3.2-.5.2-.4 0-.8-.2-.9-.6-.2.2-.5.3-.7.3-.3 0-.7-.2-.8-.4-.2.2-.4.2-.7.2s-.7-.2-.9-.4c-.2.2-.5.4-.9.4-.2 0-.5-.1-.7-.2-.2.2-.5.4-.8.4s-.6-.2-.7-.3c-.2.3-.5.6-.9.6-.2 0-.3-.1-.5-.2-.1.2-.2.3-.4.4-.2 0-.5-.1-.7-.2-.3-.2-.6-.6-.6-.6v-.2s.2.2.5.5c.3.2.6.2.6.2.2 0 .3-.2.3-.5v-.2l.2.2c.1.2.3.3.6.3.4 0 .7-.3.7-.7 0-.1 0-.2-.1-.3l.1-.2.2.2v.1c0 .4.3.7.7.7.3 0 .7-.2.7-.6v-.2l.1.2c.1.2.3.5.7.5s.7-.3.7-.7c0-.1 0-.2.1-.2z" fill="#e5ad00" stroke-width=".047882"/><path d="m28.4 30.5-.2.2-.2-.5c.3-.2.6-.6.6-1 0-.1 0-.1 0-.2 0-.7-.8-1.1-1.8-1.1-.5 0-1 .2-1.3.3 0-.1 0-.2 0-.2.3-.2.8-.3 1.3-.3 1.1 0 2 .7 2 1.4v.2c0 .4-.2.7-.5 1z" fill="#e5ad00" stroke-width=".047882"/><path d="m21.3 30.2c-.3-.2-.5-.7-.5-1 0-.1 0-.1 0-.2.1-.7.9-1.4 2-1.4.5 0 1 .2 1.3.3v.2c-.3-.2-.8-.3-1.3-.3-1 0-1.7.5-1.8 1.1v.2c0 .4.2.7.6 1l-.3.5-.2-.2z" fill="#e5ad00" stroke-width=".047882"/><path d="m24.8 27.5c.2 0 .5.2.6.4 0 .2.1.4.1.7v.2c0 .5.1 1 .2 1.2l-.8.7-.9-.7c.1-.2.2-.7.2-1.2v-.2c0-.2 0-.5.1-.7 0-.2.1-.4.5-.4" fill="#e5ad00" stroke-width=".047882"/><path d="m24.8 27.8c.2 0 .2.1.2.2 0 .2.1.4.1.7v.2c0 .5.1.9.2 1.1l-.5.5-.5-.5c.1-.2.2-.7.2-1.1v-.2c0-.2 0-.4.1-.7-.2-.2 0-.2.2-.2" fill="#e5ad00" stroke-width=".047882"/><path d="m28.4 30.5c.4-.3.6-.7.6-1.1 0-.5-.3-.9-.8-1.2.3.2.5.6.5.9v.2c0 .4-.2.7-.5 1z" fill="#e5ad00" stroke-width=".047882"/><path d="m31.7 31c.2-.2.3-.6.3-.9 0-.2-.1-.4-.2-.6-.3-.7-1.3-1.1-2.5-1.1-.3 0-.7 0-.9.1.1.1.1.2.2.2.2-.1.5-.1.7-.1 1.1 0 2 .4 2.2 1 .1.2.1.3.1.5 0 .3-.2.7-.4.8l.4.7.2-.2z" fill="#e5ad00" stroke-width=".047882"/><path d="m31.3 28.9c.2.2.5.4.6.7.1.2.2.4.2.6 0 .3-.2.7-.3.9l.2.4c.2-.3.3-.7.3-1 0-.8-.4-1.3-1-1.6" fill="#e5ad00" stroke-width=".047882"/><path d="m21.3 30.2c-.3-.2-.5-.7-.5-1 0-.1 0-.1 0-.2 0-.3.2-.7.5-.9-.5.3-.8.7-.8 1.2 0 .4.2.8.6 1.1z" fill="#e5ad00" stroke-width=".047882"/><path d="m17.7 31-.2.4.2.2.4-.7c-.2-.2-.4-.5-.4-.8 0-.2 0-.3.1-.5.2-.6 1.1-1 2.2-1 .2 0 .5 0 .7.1.1-.1.1-.2.2-.2-.2-.1-.6-.1-.9-.1-1.1 0-2.1.5-2.5 1.1-.1.2-.2.4-.2.6.1.4.2.6.4.9" fill="#e5ad00" stroke-width=".047882"/><path d="m18.1 28.9c-.6.3-1 .9-1 1.5 0 .3.2.7.3 1l.2-.4c-.2-.2-.3-.6-.3-.9 0-.2.1-.4.2-.6.2-.3.4-.4.6-.6" fill="#e5ad00" stroke-width=".047882"/><path d="m17.1 31.5c0-.1.1-.2.2-.2s.2.1.2.2-.1.2-.2.2-.2-.1-.2-.2z" fill="#fff" stroke-width=".047882"/><path d="m16.9 31.1c0-.1.1-.2.2-.2s.2.1.2.2-.1.2-.2.2c-.2 0-.2-.1-.2-.2z" fill="#fff" stroke-width=".047882"/><path d="m16.8 30.7c0-.1.1-.2.2-.2s.2.1.2.2-.1.2-.2.2c-.2 0-.2-.1-.2-.2z" fill="#fff" stroke-width=".047882"/><path d="m16.8 30.2c0-.1.1-.2.2-.2s.2.1.2.2-.1.2-.2.2c-.2 0-.2-.1-.2-.2z" fill="#fff" stroke-width=".047882"/><path d="m16.8 29.7c0-.1.1-.2.2-.2s.2.1.2.2-.1.2-.2.2-.2-.1-.2-.2z" fill="#fff" stroke-width=".047882"/><path d="m17.1 29.3c0-.1.1-.2.2-.2s.2.1.2.2-.1.2-.2.2-.2-.1-.2-.2z" fill="#fff" stroke-width=".047882"/><path d="m17.4 29c0-.1.1-.2.2-.2s.2.1.2.2-.1.2-.2.2c-.1-.1-.2-.1-.2-.2z" fill="#fff" stroke-width=".047882"/><path d="m17.8 28.7c0-.1.1-.2.2-.2s.2.1.2.2-.1.2-.2.2-.2-.2-.2-.2z" fill="#fff" stroke-width=".047882"/><path d="m18.2 28.4c0-.1.1-.2.2-.2s.2.1.2.2-.1.2-.2.2-.2-.1-.2-.2z" fill="#fff" stroke-width=".047882"/><path d="m18.7 28.3c0-.1.1-.2.2-.2s.2.1.2.2-.1.2-.2.2c-.1-.1-.2-.2-.2-.2z" fill="#fff" stroke-width=".047882"/><path d="m19.3 28.2c0-.1.1-.2.2-.2s.2.1.2.2-.1.2-.2.2c-.2-.1-.2-.1-.2-.2z" fill="#fff" stroke-width=".047882"/><path d="m19.8 28.1c0-.1.1-.2.2-.2s.2.1.2.2-.1.2-.2.2-.2-.1-.2-.2z" fill="#fff" stroke-width=".047882"/><path d="m20.3 28.2c0-.1.1-.2.2-.2s.2.1.2.2-.1.2-.2.2c-.1-.1-.2-.1-.2-.2z" fill="#fff" stroke-width=".047882"/><path d="m20.8 28.2c0-.1.1-.2.2-.2s.2.1.2.2-.1.2-.2.2c-.2-.1-.2-.1-.2-.2z" fill="#fff" stroke-width=".047882"/><path d="m20.5 28.6c0-.1.1-.2.2-.2s.2.1.2.2-.1.2-.2.2c-.1-.1-.2-.1-.2-.2" fill="#fff" stroke-width=".047882"/><path d="m20.4 29.1c0-.1.1-.2.2-.2s.2.1.2.2-.1.2-.2.2c-.2-.1-.2-.1-.2-.2" fill="#fff" stroke-width=".047882"/><path d="m20.4 29.5c0-.1.1-.2.2-.2s.2.1.2.2-.1.2-.2.2-.2-.1-.2-.2" fill="#fff" stroke-width=".047882"/><path d="m20.5 29.9c0-.1.1-.2.2-.2s.2.1.2.2-.1.2-.2.2-.2-.1-.2-.2" fill="#fff" stroke-width=".047882"/><path d="m20.8 30.3c0-.1.1-.2.2-.2s.2.1.2.2-.1.2-.2.2c-.2 0-.2-.1-.2-.2" fill="#fff" stroke-width=".047882"/><path d="m21.1 27.8c0-.1.1-.2.2-.2s.2.1.2.2-.1.2-.2.2-.2-.1-.2-.2z" fill="#fff" stroke-width=".047882"/><path d="m21.6 27.6c0-.1.1-.2.2-.2s.2.1.2.2-.1.2-.2.2-.2-.1-.2-.2z" fill="#fff" stroke-width=".047882"/><path d="m22.1 27.4c0-.1.1-.2.2-.2s.2.1.2.2-.1.2-.2.2-.2-.1-.2-.2z" fill="#fff" stroke-width=".047882"/><path d="m22.6 27.4c0-.1.1-.2.2-.2s.2.1.2.2-.1.2-.2.2c-.2-.1-.2-.2-.2-.2z" fill="#fff" stroke-width=".047882"/><path d="m23.1 27.4c0-.1.1-.2.2-.2s.2.1.2.2-.1.2-.2.2c-.2-.1-.2-.2-.2-.2z" fill="#fff" stroke-width=".047882"/><path d="m23.5 27.4c0-.1.1-.2.2-.2s.2.1.2.2-.1.2-.2.2-.2-.1-.2-.2z" fill="#fff" stroke-width=".047882"/><path d="m24 27.6c0-.1.1-.2.2-.2s.2.1.2.2-.1.2-.2.2-.2-.1-.2-.2z" fill="#fff" stroke-width=".047882"/><path d="m24.4 30.1c0-.2.2-.2.2-.2.2 0 .2.1.2.2 0 .2-.2.2-.2.2s-.2-.1-.2-.2z" fill="#fff" stroke-width=".047882"/><path d="m24.4 29.6c0-.2.2-.2.2-.2.2 0 .2.1.2.2 0 .2-.2.2-.2.2s-.2-.1-.2-.2" fill="#fff" stroke-width=".047882"/><path d="m24.5 29c0-.1.1-.2.2-.2s.2.1.2.2-.1.2-.2.2-.2 0-.2-.2" fill="#fff" stroke-width=".047882"/><path d="m24.6 28.5c0-.1.1-.2.2-.2s.2.1.2.2-.1.2-.2.2-.2-.1-.2-.2" fill="#fff" stroke-width=".047882"/><path d="m24.6 28.1c0-.1.1-.2.2-.2s.2.1.2.2-.1.1-.2.1-.2 0-.2-.1" fill="#fff" stroke-width=".047882"/><path d="m32.2 31.7c-.1 0-.2-.1-.2-.2s.1-.2.2-.2.2.1.2.2-.1.2-.2.2z" fill="#fff" stroke-width=".047882"/><path d="m32.5 31.3c-.1 0-.2-.1-.2-.2s.1-.2.2-.2.2.1.2.2c-.1.1-.2.2-.2.2z" fill="#fff" stroke-width=".047882"/><path d="m32.5 30.9c-.1 0-.2-.1-.2-.2s.1-.2.2-.2.2.1.2.2 0 .2-.2.2z" fill="#fff" stroke-width=".047882"/><path d="m32.6 30.4c-.1 0-.2-.1-.2-.2s.1-.2.2-.2.2.1.2.2-.1.2-.2.2z" fill="#fff" stroke-width=".047882"/><path d="m32.5 29.9c-.1 0-.2-.1-.2-.2s.1-.2.2-.2.2.1.2.2c-.1.1-.2.2-.2.2z" fill="#fff" stroke-width=".047882"/><path d="m32.2 29.5c-.1 0-.2-.1-.2-.2s.1-.2.2-.2.2.1.2.2-.1.2-.2.2z" fill="#fff" stroke-width=".047882"/><path d="m31.9 29.1c-.1 0-.2-.1-.2-.2s.1-.2.2-.2.2.1.2.2c0 .2-.1.2-.2.2z" fill="#fff" stroke-width=".047882"/><path d="m31.6 28.8c-.1 0-.2-.1-.2-.2s.1-.2.2-.2.2.1.2.2c-.2.1-.2.2-.2.2z" fill="#fff" stroke-width=".047882"/><path d="m31.1 28.6c-.1 0-.2-.1-.2-.2s.1-.2.2-.2.2.1.2.2c-.1.1-.1.2-.2.2z" fill="#fff" stroke-width=".047882"/><path d="m30.6 28.4c-.1 0-.2-.1-.2-.2s.1-.2.2-.2.2.1.2.2c-.1.1-.1.2-.2.2z" fill="#fff" stroke-width=".047882"/><path d="m30.1 28.3c-.1 0-.2-.1-.2-.2s.1-.1.2-.1.2.1.2.2-.1.1-.2.1z" fill="#fff" stroke-width=".047882"/><path d="m29.6 28.3c-.1 0-.2-.1-.2-.2s.1-.2.2-.2.2.1.2.2-.1.2-.2.2z" fill="#fff" stroke-width=".047882"/><path d="m29.1 28.3c-.1 0-.2-.1-.2-.2s.1-.2.2-.2.2.1.2.2c-.1.2-.1.2-.2.2z" fill="#fff" stroke-width=".047882"/><path d="m28.5 28.3c-.1 0-.2-.1-.2-.2s.1-.2.2-.2.2.1.2.2c0 .2 0 .2-.2.2z" fill="#fff" stroke-width=".047882"/><path d="m28.9 28.6c0 .1-.1.2-.2.2s-.2-.1-.2-.2.1-.2.2-.2c.2 0 .2.1.2.2" fill="#fff" stroke-width=".047882"/><path d="m29.1 29.1c0 .1-.1.2-.2.2s-.2-.1-.2-.2.1-.2.2-.2.2 0 .2.2" fill="#fff" stroke-width=".047882"/><path d="m29.1 29.5c0 .1-.1.2-.2.2s-.2-.1-.2-.2.1-.2.2-.2.2.1.2.2" fill="#fff" stroke-width=".047882"/><path d="m28.9 29.9c0 .1-.1.2-.2.2s-.2-.1-.2-.2.1-.2.2-.2c.2.1.2.1.2.2" fill="#fff" stroke-width=".047882"/><path d="m28.7 30.3c0 .1-.1.2-.2.2s-.2-.1-.2-.2.1-.2.2-.2.2.1.2.2" fill="#fff" stroke-width=".047882"/><path d="m28.2 28c-.1 0-.2-.1-.2-.2s.1-.2.2-.2.2.1.2.2-.1.2-.2.2z" fill="#fff" stroke-width=".047882"/><path d="m27.8 27.8c-.1 0-.2-.1-.2-.2s.1-.2.2-.2.2.1.2.2c-.1.1-.1.2-.2.2z" fill="#fff" stroke-width=".047882"/><path d="m27.3 27.6c-.1 0-.2-.1-.2-.2s.1-.2.2-.2.2.1.2.2-.1.2-.2.2z" fill="#fff" stroke-width=".047882"/><path d="m26.7 27.5c-.1 0-.2-.1-.2-.2s.1-.2.2-.2.2.1.2.2 0 .2-.2.2z" fill="#fff" stroke-width=".047882"/><path d="m26.2 27.5c-.1 0-.2-.1-.2-.2s.1-.2.2-.2.2.1.2.2 0 .2-.2.2z" fill="#fff" stroke-width=".047882"/><path d="m25.8 27.6c-.1 0-.2-.1-.2-.2s.1-.2.2-.2.2.1.2.2c-.1.1-.2.2-.2.2z" fill="#fff" stroke-width=".047882"/><path d="m25.3 27.8c-.1 0-.2-.1-.2-.2s.1-.2.2-.2.2.1.2.2-.1.2-.2.2z" fill="#fff" stroke-width=".047882"/><path d="m24.1 26.9c0-.3.3-.7.7-.7.3 0 .7.2.7.7 0 .3-.3.6-.7.6-.4.1-.7-.2-.7-.6" fill="#3861ab" stroke-width=".047882"/><path d="m25.3 26.9h-.5v-1h.4v-.3h-.3v-.3h-.3v.3h-.3v.3h.3v1h-.5v.1c0 .1 0 .2.1.2h1.2c0-.1.1-.2.1-.2-.1-.1-.2-.1-.2-.1z" fill="#e5ad00" stroke-width=".047882"/><path d="m21.3 32c-.1 0-.1-.1-.1-.2s0-.2 0-.2l-.2-.1h-.3c-.1 0-.2 0-.2 0s0 0 0 .1.1.1.1.1c-.2.1-.3.2-.4.3.2.1.3.2.5.2v.2.1s.1 0 .2-.1c.1 0 .2-.1.3-.2 0-.1.1-.2.1-.2z" fill="#e5ad00" stroke-width=".047882"/><path d="m25 31.7c.1-.1.1-.1.1-.2s0-.2-.1-.2c0 0 .2-.1.2-.2.1-.1.3-.1.4-.1s.2 0 .2 0 0 0 0 .1-.1.2-.1.2c.2 0 .4.1.6.2-.2.2-.3.2-.6.2 0 0 0 .1.1.2v.1h-.2c-.1 0-.2-.1-.4-.1-.1-.1-.2-.2-.2-.2z" fill="#e5ad00" stroke-width=".047882"/><path d="m19.7 32.1c-.2-.1-.4-.1-.6-.1v-.1c0-.1 0-.1 0-.1l-.1.1c-.1.1-.3.2-.3.2-.1.1-.2.2-.2.2s.1-.3 0-.6c-.1-.2-.3-.2-.3-.2v.2c-.1-.1-.2-.2-.3-.2-.2 0-.4.2-.4.4 0 0 .3 0 .5.1s.3.4.3.4c.1-.1.2-.1.3 0s.1.1.1.2h.2.4s.2 0 .2 0 0 0-.1-.1-.1-.1-.1-.1c.2-.1.3-.1.4-.3z" fill="#e5ad00" stroke-width=".047882"/><path d="m21.7 31.9c0-.1.1-.1 0-.2 0-.1-.1-.1-.1-.2 0 0 .1-.1.2-.2s.2-.1.3-.2c.1 0 .2-.1.2-.1s0 0 0 .1 0 .2 0 .2c.2 0 .4.1.5.2-.1.2-.2.2-.4.3 0 0 0 0 .1.1v.1s-.1 0-.2 0-.2 0-.3 0c-.2 0-.3-.1-.3-.1z" fill="#e5ad00" stroke-width=".047882"/><path d="m24.5 31.7c-.1 0-.1-.1-.1-.2s0-.2.1-.2c0 0-.2-.1-.2-.2-.1-.1-.3-.1-.4-.1s-.2 0-.2 0 0 0 0 .1.1.2.1.2c-.2 0-.4.1-.6.2.2.2.3.2.6.2 0 0 0 .1-.1.2v.1h.2c.1 0 .2-.1.4-.1.1-.1.2-.2.2-.2z" fill="#e5ad00" stroke-width=".047882"/><path d="m25.2 30.5c-.1 0-.2.1-.2.1 0-.2-.2-.4-.3-.6-.2.2-.2.3-.2.6 0 0 0 0-.2-.1-.1 0-.2 0-.2 0l.1.2s.1.2.2.4.2.2.2.2c.1-.1.2-.1.2-.1.1 0 .2.1.2.1s.1-.1.2-.2c.1-.2.1-.3.1-.4s.1-.2.1-.2-.1 0-.2 0z" fill="#e5ad00" stroke-width=".047882"/><path d="m21.6 30.9c-.1.1-.1.1 0 0-.2-.1-.2-.2-.4-.3-.1.1-.2.3-.2.4 0 0 0 0-.2-.1-.1 0-.2 0-.2 0s.1.1.1.2.1.2.2.3.2.2.2.2c0-.1.1-.1.2-.2.1 0 .2 0 .2.1 0 0 .1-.1.1-.2 0-.2 0-.3 0-.4.1 0 .1-.1 0 0 .1-.1.1-.1 0 0z" fill="#e5ad00" stroke-width=".047882"/><path d="m27.8 31.8c0-.1.1-.1.1-.2 0 0-.1-.1-.2-.2s-.2-.1-.3-.2c-.1 0-.2-.1-.2-.1s0 0 0 .1 0 .2 0 .2c-.2 0-.4.1-.5.2.1.2.2.2.4.3 0 0 0 0-.1.1 0 .1-.1.1-.1.1h.2.3c.2 0 .2-.1.2-.1.2-.1.2-.1.2-.2z" fill="#e5ad00" stroke-width=".047882"/><path d="m28.6 31c-.1 0-.2.1-.2.1 0-.2 0-.4-.2-.5-.1 0-.2.2-.2.4 0 0 0 0-.1-.1s-.2-.1-.2-.1v.2c0 .1 0 .2.1.3 0 .2.1.2.1.2.1-.1.2-.1.2-.1.1 0 .2.1.2.2 0 0 .1-.1.2-.2s.2-.2.2-.3c-.1-.1 0-.1-.1-.1.1 0 .1 0 0 0z" fill="#e5ad00" stroke-width=".047882"/><path d="m28.9 32.2c.2 0 .4-.1.5-.2-.1-.2-.2-.2-.4-.3 0 0 0-.1.1-.1 0-.1 0-.1 0-.1s-.1 0-.2 0-.2 0-.3 0c-.2 0-.2.1-.2.1 0 .1.1.1 0 .2 0 .1-.1.1-.1.2 0 0 .1.1.2.2h.4c0 .1.1.2.1.2s0-.1-.1-.2z" fill="#e5ad00" stroke-width=".047882"/><path d="m31.8 31.6c-.2 0-.2.1-.3.2v-.2s-.2 0-.3.2 0 .6 0 .6l-.1-.2c-.1-.1-.2-.2-.3-.2-.1-.1-.2-.1-.2-.1s0 0 0 .1v.1c-.2 0-.4 0-.6.1.1.2.2.2.4.3 0 0-.1.1-.2.1-.2.1-.2.1-.2.1h.2.4.2c0-.1.1-.1.1-.2.1-.1.2-.1.3 0s.2-.3.3-.4c.2-.1.5-.1.5-.1.2-.2.1-.4-.2-.4z" fill="#e5ad00" stroke-width=".047882"/><path d="m21.1 31.8c0-.2.2-.3.3-.3.2 0 .3.2.3.3 0 .2-.2.3-.3.3s-.3-.2-.3-.3" fill="#e41a24" stroke-width=".047882"/><path d="m27.8 31.8c0-.2.2-.3.3-.3.2 0 .3.2.3.3 0 .2-.2.3-.3.3-.2 0-.3-.2-.3-.3" fill="#e41a24" stroke-width=".047882"/><path d="m31.3 32.4c-.1-.1-.2-.1-.3 0s-.2.2-.1.3.2.1.3 0c.2 0 .2-.2.1-.3" fill="#e41a24" stroke-width=".047882"/><path d="m18.2 32.4c.1-.1.2-.1.3 0s.2.2.1.3-.2.1-.3 0c-.2 0-.2-.2-.1-.3" fill="#e41a24" stroke-width=".047882"/><path d="m24.4 31.5c0-.2.2-.3.3-.3s.3.2.3.3-.2.3-.3.3c-.1.1-.3-.1-.3-.3" fill="#e41a24" stroke-width=".047882"/><path d="m24.8 35.5c-1.8 0-3.4-.2-4.6-.6-.1 0-.2-.1-.1-.2 0-.1 0-.2.1-.2 1.1-.3 2.8-.6 4.6-.6s3.4.2 4.6.6c.1 0 .2.1.1.2 0 .1 0 .2-.1.2-1.3.5-2.8.6-4.6.6" fill="#e5ad00" stroke-width=".047882"/><path d="m24.8 34.1c-2.1 0-3.7.3-4.5.6.1-.1 0-.2-.1-.4-.2-.4-.3-.3-.3-.3 1.2-.4 3-.6 5-.6s3.8.2 5 .6c0 0-.2 0-.3.3s-.2.4 0 .5c-1.4-.5-3-.7-4.8-.7" fill="#e5ad00" stroke-width=".047882"/><path d="m29.7 32.6c0-.2 0-.2-.1-.2s-.2.1-.2.2c-.1.1 0 .2.1.2s.2 0 .2-.2" fill="#fff" stroke-width=".047882"/><path d="m26.6 32c0-.2-.1-.2-.2-.2s-.2.1-.2.2c0 .2.1.2.2.2s.2-.1.2-.2" fill="#fff" stroke-width=".047882"/><path d="m23 32c0-.2.1-.2.2-.2s.2.1.2.2c0 .2-.1.2-.2.2s-.2-.1-.2-.2" fill="#fff" stroke-width=".047882"/><path d="m19.8 32.6c0-.2 0-.2.1-.2s.2.1.2.2c.1.1 0 .2-.1.2s-.1 0-.2-.2" fill="#fff" stroke-width=".047882"/><path d="m23.4 33.7c0-.1.1-.2.2-.2s.2.1.2.2-.1.2-.2.2c-.2-.1-.2-.2-.2-.2" fill="#fff" stroke-width=".047882"/><path d="m24.3 33.8c-.1 0-.2-.1-.2-.2s.1-.2.2-.2h1c.1 0 .2.1.2.2s-.1.2-.2.2z" fill="#e41a24" stroke-width=".047882"/><path d="m22.6 33.6-.6.1c-.1 0-.2.1-.2.2s.1.1.2.1l.7-.1c.1 0 .2-.1.2-.2-.1 0-.2-.1-.3-.1z" fill="#008e6e" stroke-width=".047882"/><path d="m20.9 34c0-.1.1-.2.2-.2s.2.1.2.2-.1.2-.2.2c-.1-.1-.2-.1-.2-.2" fill="#fff" stroke-width=".047882"/><path d="m19.9 34.2.1-.2.5.1-.4.3z" fill="#e41a24" stroke-width=".047882"/><path d="m27.6 34c.1 0 .2-.1.2-.2s-.1-.2-.2-.2l-.7-.1c-.1 0-.2.1-.2.2s.1.2.2.2z" fill="#008e6e" stroke-width=".047882"/><path d="m25.8 33.7c0-.1.1-.2.2-.2s.2.1.2.2-.1.2-.2.2-.2-.2-.2-.2" fill="#fff" stroke-width=".047882"/><path d="m28.3 34c0-.1.1-.2.2-.2s.2.1.2.2-.1.2-.2.2c-.2-.1-.2-.1-.2-.2" fill="#fff" stroke-width=".047882"/><path d="m29.7 34.2-.2-.2-.5.1.4.3z" fill="#e41a24" stroke-width=".047882"/><path d="m24.8 35.3c-1.6 0-3.1-.2-4.2-.5 1.1-.3 2.5-.5 4.2-.5 1.6 0 3.1.2 4.2.5-1.1.3-2.6.5-4.2.5" fill="#e41a24" stroke-width=".047882"/><path d="m20.4 34.9c1.1-.3 2.7-.5 4.4-.5s3.3.2 4.4.5" fill="none" stroke-linecap="round" stroke-linejoin="round" stroke-width=".047882"/><path d="m24.9 35.3v-.9" fill="none" stroke-width=".011049"/><path d="m24.6 35.3v-.9" fill="none" stroke-width=".017189"/><path d="m24.4 35.3v-.9" fill="none" stroke-width=".022099"/><path d="m24.1 35.3v-.9" fill="none" stroke-width=".028239"/><path d="m23.9 35.3v-.9" fill="none" stroke-width=".034377"/><path d="m23.5 35.3v-.8m.2.8v-.9" fill="none" stroke-width=".040517"/><path d="m23.1 35.2v-.8m.2.9v-.8" fill="none" stroke-width=".045428"/><path d="m22.6 35.2v-.7m.1.7v-.7m.3.7v-.7" fill="none" stroke-width=".051566"/><path d="m22.4 35.2v-.7" fill="none" stroke-width=".056477"/><path d="m22.2 35.1v-.7" fill="none" stroke-width=".062617"/><path d="m22.1 35.1v-.6" fill="none" stroke-width=".068755"/><path d="m21.7 35v-.5m.2.6v-.5" fill="none" stroke-width=".073665"/><path d="m21.5 35v-.4" fill="none" stroke-width=".077349"/><path d="m21.3 35v-.3" fill="none" stroke-width=".083489"/><path d="m21.2 35v-.2" fill="none" stroke-width=".089627"/><path d="m20.9 35v-.2" fill="none" stroke-width=".094538"/><path d="m25.9 35.3v-.8m-.4.8v-.9m-.3.9v-.9" fill="none" stroke-width=".006138"/><path d="m35.7 34.7s-.1.1-.2.2c-.1 0-.2-.1-.2-.1s-.1.1-.2.1-.2-.1-.2-.1-.1.1-.2.2c-.1 0-.2 0-.2 0s0 .1-.1.1h-.1v-.1l-.1-.2h-.1s0-.2-.1-.2v-.1c0-.1.2-.2.3-.2s.2 0 .3 0c.1-.1.2-.1.5-.1.2 0 .3 0 .4.1.1-.1.2-.1.4-.1s.4.1.5.1.2 0 .3 0c.2.1.3.2.3.2v.1l-.1.2h.1v.1l-.1.1h-.1c-.1 0-.1-.1-.1-.1s-.1.1-.2 0c-.1 0-.2-.2-.2-.2s-.1.1-.2.1-.2-.1-.2-.1-.1.1-.2 0c.1.1 0 0 0 0" fill="#e41a24" stroke-width=".031923"/></g><path d="m36.8 35c-.1-.1-.2 0-.2-.1-.1 0-.2-.2-.2-.2s-.1.1-.2.1-.2-.1-.2-.1-.1.1-.2.1-.2-.1-.2-.1-.1.1-.2.2c-.1 0-.2-.1-.2-.1s0 .1-.2.1c-.1 0-.2-.1-.2-.1s-.1.1-.2.2c-.1 0-.2 0-.2 0s0 0 0 .1h-.1v.1c.2-.1.7-.2 1.1-.2.7-.1 1.2-.1 1.4 0z" fill="#e5ad00"/><path d="m35.7 34.6c0 .2.1.2.2.2s.2-.1.2-.1v-.1.1c0 .1.1.2.2.2s.2-.1.2-.2h.1v.1c0 .1.1.2.2.2s.1 0 .2-.1v-.1.1c0 .1 0 .1.1.1 0 0 .1 0 .2-.1s.1-.1.1-.1v.1s-.1.1-.2.2c0 0-.1.1-.2 0-.1 0-.1-.1-.1-.1h-.1c-.1 0-.2-.1-.2-.2 0 .1-.1.1-.2.1s-.2 0-.2-.1c-.1.1-.1.1-.2.1s-.2-.1-.2-.1c-.1.1-.1.1-.2.1s-.1 0-.2-.1c0 .1-.1.1-.2.1s-.2 0-.2-.1c0 .1-.1.2-.2.2s-.1 0-.1 0c0 .1-.1.1-.1.1-.1 0-.1 0-.2 0s-.2-.2-.2-.2v-.1l.1.1c.1.1.2.1.2.1.1 0 .1-.1.1-.1v-.1.1s.1.1.2.1.2-.1.2-.2v-.1h.1c0 .1.1.2.2.2s.2-.1.2-.2v-.1.1c0 .1.1.1.2.1-.1 0 0-.1 0-.2z" fill="#e5ad00" stroke="#7f2210" stroke-width=".031923"/><path d="m35.5 34.1c0-.2.1-.3.2-.3s.2.2.2.3c0 .2-.1.3-.2.3s-.2-.2-.2-.3" fill="#e5ad00" stroke="#7f2210" stroke-width=".031923"/><path d="m35.6 34.1c0-.2 0-.2.1-.2s.1.1.1.2c0 .2-.1.2-.1.2s-.1-.1-.1-.2" fill="#e5ad00" stroke="#7f2210" stroke-width=".031923"/><path d="m35.6 33.7c0-.1.1-.2.2-.2s.2.1.2.2-.1.2-.2.2-.2-.1-.2-.2" fill="#e5ad00" stroke="#7f2210" stroke-width=".031923"/><path d="m35.7 33.7v-.2h.1v-.1h-.1v-.1.1h-.1v.1h.1v.2h-.2.4z" fill="#e5ad00" stroke="#7f2210" stroke-width=".031923"/><path d="m34.7 35.2c0-.1-.1-.2-.1-.2.2-.1.7-.2 1.1-.2s.8.1 1.1.2c0 0 0 .1-.1.2 0 .1-.1.1-.1.1-.2-.1-.6-.1-1-.1s-.8.1-1 .2c.1 0 .1-.1.1-.2z" fill="#e5ad00" stroke="#7f2210" stroke-width=".031923"/><path d="m35.7 35.6c.3 0 .7-.1.9-.1.1 0 .2-.1.2-.2 0 0 0-.1-.1-.1-.2-.1-.6-.1-1-.1s-.7.1-1 .1c0 0-.1 0-.1.1s.1.1.2.2c.1 0 .5.1.9.1" fill="#e5ad00" stroke="#7f2210" stroke-width=".031923"/><path d="m35.7 35c-.4 0-.8.1-1.1.2h-.1s0 0 0-.1c.3-.1.7-.2 1.2-.1.5-.1.8 0 1.1.1v.1s0 0-.1 0c-.1-.2-.6-.2-1-.2" fill="#e5ad00" stroke="#7f2210" stroke-width=".031923"/><path d="m35.7 35.3c-.3 0-.7 0-.9.1.2.1.6.1.9.1s.7 0 .9-.1c-.2 0-.5-.1-.9-.1z" fill="#e41a24" stroke="#7f2210" stroke-width=".031923"/><path d="m35.2 35.1c0-.1.1-.1 0 0 .1-.1.2 0 .2 0s-.1 0-.2 0z" fill="#fff" stroke="#7f2210" stroke-width=".031923"/><path d="m35.8 35h-.3s-.1 0-.1.1c0 0 0 .1.1.1h.3c.1-.1.1-.1 0-.2.1 0 .1 0 0 0z" fill="#e41a24" stroke="#7f2210" stroke-width=".031923"/><path d="m35.1 35h-.2s-.1 0-.1.1c0 0 0 .1.1 0l.2-.1c0 .1.1.1 0 0z" fill="#008e6e" stroke="#7f2210" stroke-width=".031923"/><path d="m34.6 35.2.1.1.1-.1z" fill="#e41a24" stroke="#7f2210" stroke-width=".031923"/><path d="m36 35.1c0-.1 0-.1 0 0 .1-.1.2 0 .2 0s-.1 0-.2 0z" fill="#fff" stroke="#7f2210" stroke-width=".031923"/><path d="m36.5 35.1h-.2-.1s0 .1.1.1l.2-.1c.1.1.1.1 0 0 .1 0 .1 0 0 0z" fill="#008e6e" stroke="#7f2210" stroke-width=".031923"/><path d="m36.7 35.2h-.1l.1.1h.1z" fill="#e41a24" stroke="#7f2210" stroke-width=".031923"/><path d="m36.7 34.8.1-.2v.2z" fill="#e5ad00"/><path d="m36.8 34.7c0 .1 0 .1 0 0-.1.1-.1 0 0 0-.1 0 0 0 0 0m0-.1-.1.2s.1 0 .1-.2c.1.1 0 0 0 0z" fill="#7f2210"/><path d="m36.1 34.6c-.1 0-.1 0 0 0l-.1.1h.1s0 0 0-.1z" fill="#7f2210"/><path d="m35.3 34.6c-.1 0 0 0 0 0zm0 0c-.1 0-.1 0 0 0-.1.1-.1.2 0 .2 0-.1.1-.1 0-.2z" fill="#7f2210"/><path d="m34.6 34.7c.1.1.1.1 0 0 0 .1 0 .1 0 0zm0-.1c-.1.1-.1.1 0 0v.2c.1 0 .1-.1 0-.2z" fill="#7f2210"/><path d="m36.6 34.2c0-.1 0-.1 0 0 .1-.1.2 0 .2 0z" fill="#fff" stroke="#7f2210" stroke-width=".025783"/><path d="m36.6 34c0-.1 0-.1 0 0 .1-.1.2 0 .2 0-.2 0-.2.1-.2 0zm-.3-.2s.1-.1 0 0c.1-.1.2 0 .2 0 0 .1 0 .1-.2 0 .1.1 0 .1 0 0zm-.2-.1c.1-.1.2 0 .2 0 0 .1-.1.1-.2 0 0 .1 0 .1 0 0zm-.2 0s.1 0 0 0c.1-.1.2 0 .2 0 0 .1 0 .1-.2 0 .1.1 0 .1 0 0z" fill="#fff" stroke="#7f2210" stroke-width=".025783"/><path d="m37.2 34.6c0-.1 0-.1 0-.2 0-.2-.2-.4-.4-.4-.1 0-.2 0-.2.1" fill="none" stroke="#7f2210" stroke-linecap="round" stroke-width=".031923"/><path d="m36.5 34.3s0-.1 0-.2c0-.2-.2-.3-.4-.3-.1 0-.2 0-.2.1" fill="none" stroke="#7f2210" stroke-width=".031923"/><path d="m37.3 34.4c.1-.1.2 0 .2 0-.1.1-.1.1-.2 0 0 .1 0 .1 0 0zm-.1-.2c0-.1.1-.1 0 0 .1-.1.2 0 .2 0s0 0-.2 0zm-.2-.2s.1 0 0 0c.1-.1.2 0 .2 0 0 .1 0 .1-.2 0 .1.1 0 .1 0 0zm-.1-.1c.1-.1.2 0 .2 0-.1.1-.1.1-.2 0 0 .1 0 .1 0 0zm-.3 0s.1 0 0 0c.1-.1.2 0 .2 0 0 .1 0 .1-.2 0 .1.1 0 .1 0 0z" fill="#fff" stroke="#7f2210" stroke-width=".025783"/><path d="m34.7 34.2c0-.1.1-.1 0 0 .1-.1.2 0 .2 0s-.1 0-.2 0z" fill="#fff" stroke="#7f2210" stroke-width=".025783"/><path d="m34.8 34c0-.1 0-.1 0 0 .1-.1.2 0 .2 0-.2 0-.2.1-.2 0zm.1-.2c.1-.1.2 0 .2 0-.1.1-.1.1-.2 0 0 .1 0 .1 0 0zm.2-.1s.1 0 0 0c.1-.1.2 0 .2 0-.1.1-.1.1-.2 0 .1.1 0 .1 0 0zm.2 0c.1-.1.2 0 .2 0-.1.1-.1.1-.2 0 0 .1 0 .1 0 0z" fill="#fff" stroke="#7f2210" stroke-width=".025783"/><path d="m34.2 34.6c0-.1 0-.1 0-.2 0-.2.2-.4.4-.4.1 0 .2 0 .2.1" fill="none" stroke="#7f2210" stroke-linecap="round" stroke-width=".031923"/><path d="m34.9 34.3s-.1-.1-.1-.2c0-.2.2-.3.4-.3.1 0 .2 0 .2.1" fill="none" stroke="#7f2210" stroke-width=".031923"/><path d="m33.9 34.4s.1 0 0 0c.1-.1.2 0 .2 0 0 .1 0 .1-.2 0 .1.1 0 .1 0 0zm.1-.2c0-.1 0-.1 0 0 .1-.1.2 0 .2 0-.1 0-.1 0-.2 0zm.2-.2c.1-.1.2 0 .2 0-.1.1-.1.1-.2 0 0 .1 0 .1 0 0zm.1-.1c.1-.1.2 0 .2 0 0 .1-.1.1-.2 0 0 .1 0 .1 0 0zm.3 0c.1-.1.2 0 .2 0-.1.1-.1.1-.2 0 0 .1 0 .1 0 0z" fill="#fff" stroke="#7f2210" stroke-width=".025783"/><path d="m35.2 34.5-.3.1.1-.3h-.2v.1l.1.2h-.2l.1.1.1-.1h.1.2z" fill="#e5ad00" stroke="#7f2210" stroke-width=".031923"/><path d="m34.2 34.7.1.1.1-.1v-.1h-.1z" fill="#e5ad00" stroke="#7f2210" stroke-width=".031923"/><path d="m35.7 34.5.1-.2-.1-.1-.1.1.1.2-.2-.1-.1.1.1.1h.2.2l.1-.1-.1-.1z" fill="#e5ad00" stroke="#7f2210" stroke-width=".031923"/><path d="m36.6 34.6h-.1l.1-.2-.1-.1h-.1v.3l-.2-.1-.1.1h.1.2.1l.1.1.1-.1z" fill="#e5ad00" stroke="#7f2210" stroke-width=".031923"/><path d="m37 34.6h-.1v.1l.2.1v-.1z" fill="#e5ad00" stroke="#7f2210" stroke-width=".031923"/><path d="m34.2 34.6c-.1 0-.1 0 0 0-.1 0-.2 0-.2 0s.1 0 .2 0v.2z" fill="#e5ad00" stroke="#7f2210" stroke-width=".031923"/><path d="m37.3 34.6c-.1 0-.1 0 0 0-.1 0-.1 0-.2.1v.1.1l.1-.1z" fill="#e5ad00" stroke="#7f2210" stroke-width=".031923"/><path d="m34.8 34.6s.1-.1 0 0c.1-.1.2 0 .2 0s0 0-.2 0z" fill="#e5ad00" stroke="#7f2210" stroke-width=".031923"/><path d="m35.7 34.5c.1-.1.2 0 .2 0-.2.1-.2.1-.2 0" fill="#e5ad00" stroke="#7f2210" stroke-width=".031923"/><path d="m36.4 34.6c.1-.1.2 0 .2 0s-.1 0-.2 0z" fill="#e5ad00" stroke="#7f2210" stroke-width=".031923"/><path d="m34.2 34.8v-.1l.1.1v.1z" fill="#e5ad00"/><path d="m34.2 34.7c.1 0 .1 0 0 0 .1.1.1.1 0 0zm0 0c-.1.1-.1.2 0 .2h.1.1s0 0 0-.1-.1-.1-.2-.1c.1 0 .1 0 0 0z" fill="#7f2210"/><path d="m37 34.8.1-.1v.1.1z" fill="#e5ad00"/><path d="m37.1 34.7c.1 0 0 .1 0 0 0 .1 0 .1 0 0-.1.1-.1.1 0 0zm0 0c-.1.1-.1.1 0 0-.1.1-.1.1-.1.2h.1.1c0-.1 0-.1-.1-.2.1 0 .1 0 0 0z" fill="#7f2210"/><path d="m15 35s.2-.1.3-.2c.6-.5-.2-.9-.4-.8-.2-.2-.7-.3-1-.2-.4-.2-.8 0-1 .2-.2-.1-1 .3-.4.8.1.1.3.2.3.2z" fill="#e41a24" stroke="#7f2210" stroke-width=".031923"/><path d="m13.9 35h-.7l-.1-.6c-.2-.2-.4-.4-.4-.4 0-.1 0-.1.1-.1.2-.1.6.2.8.6l.1.1h.6l.1-.1c.2-.4.7-.7.8-.6l.1.1c-.1 0-.2.2-.4.4l-.2.6z" fill="#e5ad00" stroke="#7f2210" stroke-width=".031923"/><path d="m12.7 34c.2-.1.5.2.7.6" fill="none" stroke="#7f2210" stroke-width=".031923"/><path d="m15 34c-.2-.1-.5.2-.7.6" fill="none" stroke="#7f2210" stroke-width=".031923"/><path d="m13.6 34c0-.2.1-.3.2-.3s.2.1.2.3-.1.3-.2.3-.2-.1-.2-.3z" fill="#e5ad00" stroke="#7f2210" stroke-width=".031923"/><path d="m13.7 34c0-.2.1-.3.1-.3.1 0 .1.2.1.3s0 .3-.1.3c0 0-.1-.2-.1-.3z" fill="#e5ad00" stroke="#7f2210" stroke-width=".031923"/><path d="m13.7 33.6c0-.1.1-.2.2-.2s.2.1.2.2-.1.2-.2.2-.2-.1-.2-.2" fill="#e5ad00" stroke="#7f2210" stroke-width=".031923"/><path d="m14.1 33.6-.4.1v-.1h.2v-.2h-.1v-.1h.1v-.1h.1v.1.1h-.1v.2z" fill="#e5ad00" stroke="#7f2210" stroke-width=".036834"/><path d="m15 35-1.1-.3-1.2.3c.2-.1.7-.2 1.1-.2.5.1.9.2 1.2.2z" fill="#e5ad00"/><path d="m12.8 35.3c0-.1-.1-.2-.1-.2.3-.1.7-.2 1.1-.2s.8.1 1.1.2c0 0 0 .1-.1.2 0 .1-.1.1-.1.1-.2-.1-.6-.1-1-.2-.2 0-.6.1-.9.1z" fill="#e5ad00" stroke="#7f2210" stroke-width=".031923"/><path d="m13.9 35.6c.3 0 .7-.1.9-.1.1 0 .2-.1.2-.2 0 0 0-.1-.1-.1-.2-.1-.6-.1-1-.1s-.7.1-1 .1c0 0-.1 0-.1.1s.1.1.2.2c.1 0 .5.1.9.1" fill="#e5ad00"/><path d="m13.9 35.6c.3 0 .7-.1.9-.1.1 0 .2-.1.2-.2 0 0 0-.1-.1-.1-.2-.1-.6-.1-1-.1s-.7.1-1 .1c0 0-.1 0-.1.1s.1.1.2.2c.1 0 .5.1.9.1z" fill="none" stroke="#7f2210" stroke-width=".031923"/><path d="m15 35c-.1-.1-.2 0-.2-.1-.1 0-.2-.2-.2-.2s-.1.1-.2.1-.2-.1-.2-.1-.1.1-.2.1-.2-.2-.2-.2-.1.1-.2.2c-.1 0-.2-.1-.2-.1s0 .1-.2.1c-.1 0-.2-.1-.2-.1s-.1.1-.2.2c-.1 0-.2 0-.2 0s0 0 0 .1h-.1c.2-.1.7-.2 1.1-.2.7.1 1.1.2 1.4.2z" fill="none" stroke="#7f2210" stroke-width=".031923"/><path d="m13.9 34.6c0 .2.1.2.2.2s.2-.1.2-.1v-.1.1c0 .1.1.2.2.2s.2-.1.2-.2l.1-.1v.1.1c0 .1.1.2.2.2s.1 0 .2-.1v.1c-.2 0-.2 0-.2 0s.1 0 .2-.1.1-.1.1-.1v.2s-.1.2-.2.2c0 0-.1.1-.2 0-.1 0-.1-.1-.1-.1h-.1c-.1 0-.2-.1-.2-.2 0 .1 0 .1-.1.1s-.2 0-.2-.1c0 0-.1.1-.2.1s-.2-.1-.2-.1c0 .1 0 .1-.1.1s-.1 0-.2-.1c0 .1 0 .1-.1.1s-.2 0-.2-.1c0 .1-.1.2-.2.2h-.1c0 .1-.1.1-.1.1-.1 0-.1 0-.2 0s-.1-.2-.1-.2v-.1l.1.1c.1.1.2.1.2.1.1 0 .1-.1.1-.1s.1.1.2.1.2-.1.2-.2v-.1-.1l.1.1c0 .1.1.2.2.2s.2-.1.2-.2v-.1.1c0 .1.1.1.2.1-.3-.1-.2-.2-.1-.3-.1 0-.1 0 0 0z" fill="#e5ad00" stroke="#7f2210" stroke-width=".031923"/><path d="m13.9 35c-.4 0-.8.1-1.1.2h-.1s0 0 0-.1c.3-.1.7-.2 1.2-.1.5-.1.9 0 1.1.1v.1s0 0-.1 0c-.2-.2-.6-.2-1-.2z" fill="#e5ad00" stroke="#7f2210" stroke-linejoin="round" stroke-width=".031923"/><path d="m13.4 35.1c0-.1.1-.1 0 0 .1-.1.2 0 .2 0s0 .1-.2 0c.1.1 0 0 0 0z" fill="#fff" stroke="#7f2210" stroke-width=".031923"/><path d="m13.9 35.1h-.2s-.1 0-.1-.1c0 0 0-.1.1-.1h.3s.1 0 .1.1c0 0 0 .1-.1.1z" fill="#e41a24" stroke="#7f2210" stroke-width=".031923"/><path d="m13.2 35.2c-.1 0-.2 0-.2-.1v-.1h.1.1.1c-.1 0-.1.1-.1.2z" fill="#008e6e"/><path d="m13.2 35.2c-.1 0-.2 0-.2-.1v-.1h.1.1.1c-.1 0-.1.1-.1.2z" fill="none" stroke="#7f2210" stroke-width=".031923"/><path d="m12.7 35.3.2-.1z" fill="#e41a24" stroke="#7f2210" stroke-width=".031923"/><path d="m14.1 35.1c0-.1.1-.1 0 0 .1-.1.2 0 .2 0s-.1.1-.2 0c.1.1 0 0 0 0z" fill="#fff" stroke="#7f2210" stroke-width=".031923"/><path d="m14.6 35.2c.1 0 .1 0 0 0 .1-.1.1-.1 0 0l-.2-.1h-.1s0 .1.1.1z" fill="#008e6e" stroke="#7f2210" stroke-width=".031923"/><path d="m15 35.3-.2-.1z" fill="#e41a24" stroke="#7f2210" stroke-width=".031923"/><path d="m13.9 35.5c-.3 0-.7 0-.9-.1.2-.1.6-.1.9-.1s.7 0 .9.1c-.3.1-.6.1-.9.1z" fill="#e41a24" stroke="#7f2210" stroke-linejoin="round" stroke-width=".031923"/><path d="m15 34.7c0 .1 0 .1 0 0-.1.1-.1.1 0 0zm0-.1-.1.2h.1s0 0 0-.2c0 .1 0 .1 0 0z" fill="#7f2210"/><path d="m14.2 34.6c.1 0 .1 0 0 0zm0 0c-.1.1-.1.2-.1.2s0 0 .1 0c0-.1.1-.1 0-.2.1 0 .1 0 0 0z" fill="#7f2210"/><path d="m13.5 34.6c-.1 0-.1 0 0 0-.1.2-.1.2 0 .2.1-.2.1-.2 0-.2z" fill="#7f2210"/><path d="m12.7 34.7s.1 0 0 0c.1.1.1.1 0 0 0 .1 0 .1 0 0zm0-.1s0 .1 0 0v.2h.1l-.1-.2c.1.1.1 0 0 0z" fill="#7f2210"/><path d="m13.9 34.2-.2.1.1.2h.1z" fill="#e5ad00" stroke="#7f2210" stroke-width=".031923"/><path d="m13.6 34.6h.2v-.1l-.2-.1z" fill="#e5ad00" stroke="#7f2210" stroke-width=".031923"/><path d="m14.1 34.6h-.2v-.1l.2-.1z" fill="#e5ad00" stroke="#7f2210" stroke-width=".031923"/><path d="m13.1 34.3.1.2h.1l.1-.2z" fill="#e5ad00" stroke="#7f2210" stroke-width=".031923"/><path d="m12.8 34.6h.2v-.1z" fill="#e5ad00" stroke="#7f2210" stroke-width=".031923"/><path d="m13.4 34.6-.2.1v-.1z" fill="#e5ad00" stroke="#7f2210" stroke-width=".031923"/><path d="m12.7 34.6-.2.1v-.1l.2-.2z" fill="#e5ad00" stroke="#7f2210" stroke-width=".031923"/><path d="m13 34.6s.1-.1 0 0c.1-.1.2 0 .2 0s0 0-.2 0z" fill="#e5ad00"/><path d="m13 34.6s.1-.1 0 0c.1-.1.2 0 .2 0s0 0-.2 0z" fill="none" stroke="#7f2210" stroke-width=".031923"/><path d="m14.7 34.3-.1.2h-.1l-.1-.2z" fill="#e5ad00" stroke="#7f2210" stroke-width=".031923"/><path d="m14.9 34.6h-.2v-.1z" fill="#e5ad00" stroke="#7f2210" stroke-width=".031923"/><path d="m14.4 34.6.2.1v-.1z" fill="#e5ad00" stroke="#7f2210" stroke-width=".031923"/><path d="m15 34.6.2.1v-.1l-.2-.2z" fill="#e5ad00" stroke="#7f2210" stroke-width=".031923"/><path d="m13.8 34.5c.1-.1.2 0 .2 0-.1.1-.1.1-.2 0 0 .1 0 .1 0 0z" fill="#e5ad00" stroke="#7f2210" stroke-width=".031923"/><path d="m14.5 34.6c.1-.1.2 0 .2 0s-.1 0-.2 0z" fill="#e5ad00" stroke="#7f2210" stroke-width=".031923"/><path d="m12.3 34.8-.2-.2h.1.1v.2c.1-.2.1-.1 0 0 .1-.1 0 0 0 0z" fill="#e5ad00" stroke="#7f2210" stroke-width=".031923"/><path d="m12.3 34.8.1-.1.1.1-.1.1z" fill="#e5ad00"/><path d="m12.4 34.7c.1.1.1.1 0 0-.1.1-.1 0 0 0-.1 0 0 0 0 0m0 0c-.1 0-.1 0 0 0-.1.1-.1.2 0 .2h.1.1v-.1c-.1 0-.1-.1-.2-.1z" fill="#7f2210"/><path d="m15.4 34.8.2-.2h-.1-.1v.2c-.1-.2-.1-.1 0 0-.1-.1-.1 0 0 0z" fill="#e5ad00" stroke="#7f2210" stroke-width=".031923"/><path d="m15.2 34.8.1-.1.1.1-.1.1z" fill="#e5ad00"/><path d="m15.3 34.7s.1 0 0 0c0 .1 0 .1 0 0-.1.1-.1.1 0 0zm0 0c-.1.1-.2.1-.1.2h.1.1c0-.1 0-.2-.1-.2.1 0 .1 0 0 0z" fill="#7f2210"/><path d="m12.7 49h2.3v-11.6h-2.4z" fill="#fff" stroke="#7f2210" stroke-width=".047882"/><path d="m14.4 37.4v11.6m.2-11.6v11.6" fill="none" stroke="#7f2210" stroke-width=".047882"/><path d="m11.9 46.2c-.3.2-.6.4-.5.5 0 .1.1.2.2.2.2.2.4.5.2.6.2-.2.3-.4.3-.7.2-.2.1-.5-.2-.6" fill="#e41a24" stroke="#7f2210" stroke-width=".047882"/><path d="m17.5 41.8c-.5-.2-1.4-.4-2.4-.4-.3 0-.7 0-1.1.1-1.4.2-2.5.8-2.5 1.3l-.6-1.2c-.1-.5 1.1-1.1 2.7-1.4.5-.1 1-.1 1.4-.1 1 0 1.9.2 2.5.3z" fill="#e41a24" stroke="#7f2210" stroke-width=".047882"/><path d="m12.7 43.2c-.7-.1-1.1-.2-1.1-.5 0-.2.2-.5.6-.7.2 0 .4.1.6.1v1.1" fill="#e41a24" stroke="#7f2210" stroke-width=".047882"/><path d="m15 42.3c.4.1.7.2.9.3.1.2-.3.5-.9.8z" fill="#e41a24" stroke="#7f2210" stroke-width=".047882"/><path d="m11.2 45.4c-.1-.2.6-.6 1.5-.9.4-.2.7-.3 1.1-.5 1.2-.6 2.2-1.2 2-1.5.1.1.2 1.2.2 1.2.1.2-.7.8-1.9 1.4-.4.2-1.1.5-1.6.6-.7.2-1.3.7-1.2.8z" fill="#e41a24" stroke="#7f2210" stroke-width=".047882"/><path d="m12.5 41.2c.3-.1.5-.2.4-.5-.1-.2-.2-.2-.4-.1l-.4.2.3.9s.1 0 .1-.1h.2zm-.2-.4c.2 0 .2 0 .3.1 0 .1 0 .2-.1.2 0 0-.1 0-.1.1z" fill="#e5ad00"/><path d="m13.4 40.4c-.1 0-.1 0-.2 0s-.1 0-.2 0l.2.9.7-.2s0 0 0-.1c0 0 0 0 0-.1-.1 0-.2.1-.4.1z" fill="#e5ad00"/><path d="m14.7 41.2c.1-.3.2-.7.4-1h-.1c-.1.2-.2.5-.2.7-.1-.2-.2-.4-.3-.7-.1 0-.1 0-.2 0s-.1 0-.2 0c.1.4.3.7.6 1-.1 0-.1 0 0 0z" fill="#e5ad00"/><path d="m16.1 40.4c0-.1.1-.1.1-.2l-.2-.1c-.2 0-.4.1-.4.2 0 .3.5.3.5.5 0 .1-.1.2-.2.2s-.2-.1-.2-.2c0 .1-.1.1-.1.2.1.1.2.1.2.1.2 0 .5-.1.5-.2 0-.3-.5-.3-.5-.5 0-.1.1-.2.2-.1-.1.1 0 .1.1.1z" fill="#e5ad00"/><path d="m16.1 50.8c-.2 0-.4-.1-.6-.2-.1 0-.3-.1-.5-.1s-.4.1-.6.1c-.2.1-.3.2-.6.2-.2 0-.4-.1-.6-.2s-.3-.1-.6-.1-.4.1-.6.1c-.2.1-.3.2-.6.2v.3c.2 0 .4-.1.6-.2s.3-.1.6-.1.4.1.6.1c.2.1.3.2.6.2.2 0 .4-.1.6-.2s.3-.2.6-.2c.2 0 .4.1.6.2s.3.2.6.2z" fill="#3861ab" stroke="#7f2210" stroke-width=".047882"/><path d="m16.1 51.2c-.2 0-.4-.1-.6-.2s-.3-.2-.6-.2-.4.1-.6.2-.3.2-.6.2-.4-.1-.6-.2c0 0-.2 0-.4 0s-.4.1-.6.1c-.2.1-.3.2-.6.2v.3c.2 0 .4-.1.6-.2s.3-.1.6-.1c.2 0 .4.1.6.1.2.1.3.2.6.2s.4-.1.6-.2.3-.1.6-.1.4.1.6.1c.2.1.3.2.6.2v-.4" fill="#fff" stroke="#7f2210" stroke-width=".047882"/><path d="m16.1 51.6c-.2 0-.4-.1-.6-.2s-.3-.1-.6-.1-.4.1-.6.1c-.2.1-.3.2-.6.2s-.4-.1-.6-.2-.3-.1-.6-.1c-.2 0-.4.1-.6.1-.2.1-.3.2-.6.2v.3c.2 0 .4-.1.6-.2s.3-.1.6-.1c.2 0 .4.1.6.1.2.1.3.2.6.2s.4-.1.6-.2.3-.1.6-.1.4.1.6.1c.2.1.3.2.6.2z" fill="#3861ab" stroke="#7f2210" stroke-width=".047882"/><path d="m16.1 52.2c-.2 0-.4-.1-.6-.2-.1 0-.3 0-.5 0s-.4.1-.6.1c-.1.2-.3.2-.5.2s-.4-.1-.6-.2c-.1-.1-.3-.1-.6-.1s-.4 0-.6.1c-.2.2-.3.2-.6.2v-.3c.2 0 .4-.1.6-.2s.3-.1.6-.1.4.1.6.1c.2.1.3.2.6.2s.4-.1.6-.2.3-.1.6-.1.4.1.6.1c.2.1.3.2.6.2z" fill="#fff" stroke="#7f2210" stroke-width=".047882"/><path d="m16.1 52.6c-.2 0-.4-.1-.6-.2s-.3-.2-.6-.2-.4.1-.6.2-.3.2-.6.2-.4-.1-.6-.2-.3-.1-.6-.1c-.2 0-.4.1-.6.1-.2.1-.3.2-.6.2v-.3c.2 0 .4-.1.6-.2s.3-.1.6-.1c.2 0 .4.1.6.1.2.1.3.2.6.2s.4-.1.6-.2.3-.1.6-.1.4.1.6.1c.2.1.3.2.6.2z" fill="#3861ab" stroke="#7f2210" stroke-width=".047882"/><path d="m12.6 49.4c0 .3-.2.5-.4.5h3.4c-.2 0-.4-.2-.4-.4v-.1h-.2z" fill="#e5ad00" stroke="#7f2210" stroke-width=".047882"/><path d="m12.7 49.2h2.5c.1 0 .2.1.2.1 0 .1-.1.1-.2.1h-2.5c-.1 0-.2-.1-.2-.1s.1-.1.2-.1" fill="#e5ad00" stroke="#7f2210" stroke-width=".047882"/><path d="m12.2 50.8h3.4v-.8h-3.4z" fill="#e5ad00" stroke="#7f2210" stroke-width=".047882"/><path d="m12.3 36.4h3.3v-.8h-3.3z" fill="#e5ad00" stroke="#7f2210" stroke-width=".047882"/><path d="m12.6 37h2.5.1c-.1 0-.2-.1-.2-.2s.1-.2.2-.2h-.1-2.5-.1c.1 0 .2.1.2.2s0 .2-.1.2" fill="#e5ad00" stroke="#7f2210" stroke-width=".047882"/><path d="m12.7 37h2.5c.1 0 .2.1.2.1 0 .1-.1.1-.2.1h-2.5c-.1 0-.2-.1-.2-.1s.1-.1.2-.1" fill="#e5ad00" stroke="#7f2210" stroke-width=".047882"/><path d="m12.7 36.4h2.5c.1 0 .2.1.2.1 0 .1-.1.1-.2.1h-2.5c-.1 0-.2-.1-.2-.1s.1-.1.2-.1" fill="#e5ad00" stroke="#7f2210" stroke-width=".047882"/><path d="m34 36.4h3.3v-.8h-3.3z" fill="#e5ad00" stroke="#7f2210" stroke-width=".047882"/><path d="m37 37h-2.5-.1c.1 0 .2-.1.2-.2s-.1-.2-.2-.2h.1 2.5c-.1 0-.2.1-.2.2s.1.2.2.2" fill="#e5ad00" stroke="#7f2210" stroke-width=".047882"/><path d="m34.5 37h2.5c.1 0 .2.1.2.1 0 .1-.1.1-.2.1h-2.5c-.1 0-.2-.1-.2-.1s.1-.1.2-.1" fill="#e5ad00" stroke="#7f2210" stroke-width=".047882"/><path d="m34.5 36.4h2.5c.1 0 .2.1.2.1 0 .1-.1.1-.2.1h-2.5c-.1 0-.2-.1-.2-.1s.1-.1.2-.1" fill="#e5ad00" stroke="#7f2210" stroke-width=".047882"/><path d="m33.4 50.8c.2 0 .4-.1.6-.2s.3-.1.6-.1c.2 0 .4.1.6.1.2.1.3.2.6.2.2 0 .4-.1.6-.2s.3-.1.6-.1.4.1.6.1c.2.1.3.2.6.2v.3c-.2 0-.4-.1-.6-.2s-.3-.1-.6-.1-.5.2-.7.2c-.2.1-.3.2-.6.2-.2 0-.4-.1-.6-.2s-.3-.2-.6-.2c-.2 0-.4.1-.6.2s-.3.2-.6.2z" fill="#3861ab" stroke="#7f2210" stroke-width=".047882"/><path d="m33.4 51.2c.2 0 .4-.1.6-.2s.3-.2.6-.2c.2 0 .4.1.6.2s.3.2.6.2c.2 0 .4-.1.6-.2s.3-.1.6-.1.4.1.6.1c.2.1.3.2.6.2v.3c-.2 0-.4-.1-.6-.2s-.3-.1-.6-.1-.4.1-.6.1c-.2.1-.3.2-.6.2-.2 0-.4-.1-.6-.2s-.3-.1-.6-.1c-.2 0-.4.1-.6.1-.2.1-.3.2-.6.2z" fill="#fff" stroke="#7f2210" stroke-width=".047882"/><path d="m33.4 51.6c.2 0 .4-.1.6-.2s.3-.1.6-.1c.2 0 .4.1.6.1.2.1.3.2.6.2.2 0 .4-.1.6-.2s.3-.1.6-.1.4.1.6.1c.2.1.3.2.6.2v.3c-.2 0-.4-.1-.6-.2s-.3-.1-.6-.1-.4.1-.6.1c-.2.1-.3.2-.6.2-.2 0-.4-.1-.6-.2s-.3-.1-.6-.1c-.2 0-.4.1-.6.1-.2.1-.3.2-.6.2z" fill="#3861ab" stroke="#7f2210" stroke-width=".047882"/><path d="m33.4 52.2c.2 0 .4-.1.6-.2s.3-.1.6-.1c.2 0 .4.1.6.1.2.1.3.2.6.2.2 0 .4-.1.6-.2s.3-.1.6-.1.4 0 .6.1c.1.2.3.2.5.2v-.3c-.2 0-.4-.1-.6-.2s-.3-.1-.6-.1-.4.1-.6.1c-.2.1-.3.2-.6.2s-.4-.1-.6-.2-.3-.1-.6-.1c-.2 0-.4.1-.6.1-.2.1-.3.2-.6.2z" fill="#fff" stroke="#7f2210" stroke-width=".047882"/><path d="m33.4 52.6c.2 0 .4-.1.6-.2s.3-.2.6-.2c.2 0 .4.1.6.2s.3.2.6.2c.2 0 .4-.1.6-.2s.3-.1.6-.1.4.1.6.1c.2.1.3.2.6.2v-.3c-.2 0-.4-.1-.6-.2s-.3-.1-.6-.1-.4.1-.6.1c-.2.1-.4.1-.6.1s-.4-.1-.6-.2c-.2 0-.4 0-.6 0s-.4.1-.6.1c-.2.2-.4.2-.6.2z" fill="#3861ab" stroke="#7f2210" stroke-width=".047882"/><path d="m37 49.4c0 .3.2.5.4.5h-3.4c.2 0 .4-.2.4-.4v-.1h.1z" fill="#e5ad00" stroke="#7f2210" stroke-width=".047882"/><path d="m34.5 49.2h2.5c.1 0 .2.1.2.1 0 .1-.1.1-.2.1h-2.5c-.1 0-.2-.1-.2-.1 0-.1.1-.1.2-.1" fill="#e5ad00" stroke="#7f2210" stroke-width=".047882"/><path d="m34 50.8h3.4v-.8h-3.4z" fill="#e5ad00" stroke="#7f2210" stroke-width=".047882"/><path d="m37.6 46.2c.3.2.6.4.5.5 0 .1-.2.2-.2.2-.2.2-.4.5-.2.6-.2-.2-.3-.4-.3-.7-.1-.2.1-.5.2-.6" fill="#e41a24" stroke="#7f2210" stroke-width=".047882"/><path d="m34.5 49h2.4v-11.6h-2.4z" fill="#fff" stroke="#7f2210" stroke-width=".047882"/><path d="m36.2 37.4v11.6m.3-11.6v11.6" fill="none" stroke="#7f2210" stroke-width=".047882"/><path d="m32.1 41.8c.5-.2 1.4-.4 2.5-.4.3 0 .7 0 1.1.1 1.4.2 2.5.8 2.5 1.3s.5-1.2.6-1.2c.1-.5-1.1-1.1-2.7-1.4-.6-.2-1.1-.2-1.5-.2-1 0-1.9.2-2.5.3z" fill="#e41a24" stroke="#7f2210" stroke-width=".047882"/><path d="m36.9 43.2c.7-.1 1.1-.2 1.1-.5 0-.2-.2-.5-.6-.7-.2 0-.4.1-.6.1z" fill="#e41a24" stroke="#7f2210" stroke-width=".047882"/><path d="m34.5 42.3c-.4.1-.7.2-.9.3-.1.2.3.5.9.8z" fill="#e41a24" stroke="#7f2210" stroke-width=".047882"/><path d="m38.4 45.4c.1-.2-.6-.6-1.5-.9-.4-.2-.7-.3-1.1-.5-1.2-.6-2.2-1.2-2-1.5-.1.1-.2 1.2-.2 1.2-.1.2.7.8 1.9 1.4.4.2 1.1.5 1.6.6.7.2 1.3.7 1.2.8z" fill="#e41a24" stroke="#7f2210" stroke-width=".047882"/><path d="m33.5 41.3c.1-.3.2-.7.3-1h-.1-.1c-.1.2-.2.5-.2.7-.2-.2-.3-.4-.4-.7-.1 0-.1 0-.2 0s-.1 0-.2 0c.2.2.4.6.7.9.1.1.1.1.2.1z" fill="#e5ad00"/><path d="m34.4 40.3c-.1 0-.1 0-.2 0s-.1 0-.2 0v.9h.7s0 0 0-.1v-.1c-.1 0-.2 0-.4 0z" fill="#e5ad00"/><path d="m35.5 40.4c.1 0 .2 0 .3.1 0 0 0 0 0-.1 0 0 0 0 0-.1l-.9-.1v.1.1h.3l-.1.8h.2s.1 0 .2 0z" fill="#e5ad00"/><path d="m35.9 41.3h.2.2l.1-.4c0 .1.1.2.1.2l.2.3h.2s.1 0 .2 0h-.2c-.1-.2-.2-.3-.2-.4.2 0 .3-.1.3-.2s0-.2-.1-.2c-.1-.1-.2-.1-.2-.1l-.3-.1zm.4-.8c.1 0 .2 0 .2.2v.1c0 .2-.2.2-.3.2z" fill="#e5ad00"/><path d="m37.5 41.6c0 .1 0 .2-.1.3.1 0 .1 0 .2.1.1 0 .1.1.2.1l.1-1.1h-.1s0 0-.1 0l-.9.6h.1.1c.1-.1.2-.1.2-.2zm-.2-.3.3-.2v.3z" fill="#e5ad00"/><path d="m24.8 52.9c-1.9 0-3.8-.5-5.4-1.2-1.1-.6-2-1.7-2-3.1v-4.9h14.7v4.9c0 1.3-.7 2.5-2 3.1-1.5.7-3.4 1.2-5.3 1.2" fill="#fff" stroke="#7f2210" stroke-width=".047882"/><path d="m25.2 50.7v-.2s-.1 0-.2 0-.1.1-.1.1v-.1l-.1-.1s-.1 0-.1.1c-.1.1-.1.1-.1.1l-.1-.1c-.1 0-.2 0-.2 0v.1.1c-.3 0-.5.3-.5.6s.3.6.8.6c.4 0 .8-.2.8-.6.2-.3 0-.5-.2-.6z" fill="#fed692" stroke="#7f2210" stroke-width=".063844"/><path d="m24 51.8c-.3-.1-.7 0-.8 0l.2.2c.1.1.3.2.5.2.5.1.9 0 .9 0s-.6-.3-.8-.4z" fill="#008e6e" stroke="#7f2210" stroke-width=".063844"/><path d="m25.7 51.8c-.4.1-.7.4-.7.4s.1 0 .2 0 .4 0 .7 0 .5-.2.6-.2c.1-.1.2-.2.2-.2-.2.1-.5 0-1 0z" fill="#008e6e" stroke="#7f2210" stroke-width=".063844"/><path d="m24.9 50.8c-.2.2-.2.3-.2.6 0 .2.1.4.2.6.2-.2.2-.3.2-.6s-.1-.6-.2-.6z" fill="#e41a24" stroke="#7f2210" stroke-width=".063844"/><path d="m24.9 51.9c-.1 0-.1.2-.1.3s-.1.4-.1.4h.1.1s0-.2 0-.3c0-.2 0-.4 0-.4z" fill="#008e6e" stroke="#7f2210" stroke-width=".063844"/><path d="m24.8 35.5h-7.4v13c0 2 1.6 3.5 3.7 3.5s3.7-1.6 3.7-3.5z" fill="#e41a24" stroke="#7f2210" stroke-width=".047882"/><path d="m24.8 43.6h-.8v7.1c.5-.6.8-1.4.8-2.2z" fill="#e5ad00" stroke="#7f2210" stroke-width=".047882"/><path d="m19 43.6v7.8c.2.2.5.3.8.4v-8.2z" fill="#e5ad00" stroke="#7f2210" stroke-width=".047882"/><path d="m17.4 43.6v4.9c0 .8.3 1.6.8 2.2v-7z" fill="#e5ad00" stroke="#7f2210" stroke-width=".047882"/><path d="m22.3 43.6v8.2c.3-.1.6-.2.8-.4v-7.8z" fill="#e5ad00" stroke="#7f2210" stroke-width=".047882"/><path d="m20.7 43.6v8.4h.4.4v-8.3h-.8z" fill="#e5ad00" stroke="#7f2210" stroke-width=".047882"/><path d="m24 43.6h-5.8" fill="none" stroke="#7f2210" stroke-width=".047882"/><path d="m24.8 43.6h7.4v-8.2h-7.4z" fill="#fff" stroke="#7f2210" stroke-width=".047882"/><path d="m32.1 43.6v4.9c0 2-1.6 3.5-3.7 3.5s-3.7-1.6-3.7-3.5v-4.9z" fill="#e41a24" stroke="#7f2210" stroke-width=".047882"/><path d="m28.1 47.6c-.1 0-.1 0 0 0l-.7-.1v-.2h.7s0 0 0-.1l-.7-.8.2-.2.7.8v-1.1h.2v1.1l.7-.8.2.2-.7.8s0 .1.1.1h.6v.2h-.6v.1l.7.8-.2.2-.7-.8v1.2h-.2v-1.3l-.7.8-.2-.2z" fill="#e5ad00" stroke="#7f2210" stroke-width=".031923"/><path d="m29.4 50.5c-.2.1-.3.2-.6.2-.1-.1-.2-.2-.2-.2v-1h-.2v1c-.1 0-.2.1-.2.2-.2 0-.4-.1-.6-.2l-.2.2c.2.1.4.2.7.2 0 .2.2.3.4.3s.3-.2.4-.3c.2 0 .5-.1.7-.2zm-.9.5c-.1 0-.2-.1-.2-.2s.1-.2.2-.2.2.1.2.2-.2.2-.2.2z" fill="#e5ad00" stroke="#7f2210" stroke-width=".031923"/><path d="m30.8 49.4c.1-.2.2-.5.2-.7h-.2c0 .2-.1.4-.2.7-.1 0-.2 0-.2 0l-.7-.7-.2.2.7.7c-.1.2-.1.3 0 .4-.2.2-.3.3-.5.4l.1.2c.2-.2.4-.3.6-.5.2 0 .2 0 .4-.1.1-.1.2-.4 0-.6zm-.1.5c-.1.1-.2.1-.2 0-.1-.1-.1-.2 0-.2.1-.1.2-.1.2 0z" fill="#e5ad00" stroke="#7f2210" stroke-width=".031923"/><path d="m31.3 47.4c0-.2-.1-.3-.2-.3v-.8h-.2v.8c-.1 0-.2.2-.2.2h-.7v.2h.7c0 .1.2.2.2.2v.6h.2v-.6c.1 0 .2-.1.2-.3zm-.4.2c-.1 0-.2-.1-.2-.2s.1-.2.2-.2.2.1.2.2-.1.2-.2.2z" fill="#e5ad00" stroke="#7f2210" stroke-width=".031923"/><path d="m30.9 44.3c-.2 0-.3.1-.4.2h-.7v.2h.7v.1l-.9 1.1.2.2.9-1.1h.1v.8h.2v-.8c.2-.1.2-.2.2-.3.1-.2-.1-.4-.3-.4zm0 .6c-.1 0-.2-.1-.2-.2s.1-.2.2-.2.2.1.2.2-.1.2-.2.2z" fill="#e5ad00" stroke="#7f2210" stroke-width=".031923"/><path d="m28.8 44.5c-.1-.2-.2-.2-.4-.2s-.3.1-.4.2h-.6v.2h.6c0 .1.2.2.2.2v.5h.3v-.4c.1 0 .2-.2.2-.2h.7v-.2zm-.3.4c-.1 0-.2-.1-.2-.2s.1-.2.2-.2.2.1.2.2c-.1.1-.2.2-.2.2z" fill="#e5ad00" stroke="#7f2210" stroke-width=".031923"/><path d="m26.3 44.9.7-.1v-.2h-.7c-.1-.2-.2-.2-.4-.2s-.4.2-.4.4.1.3.2.3v.8h.2v-.9l.9 1.1.2-.2zm-.3 0c-.1 0-.2-.1-.2-.2s.1-.2.2-.2.2.1.2.2-.1.2-.2.2z" fill="#e5ad00" stroke="#7f2210" stroke-width=".031923"/><path d="m26.3 47.2c0-.1-.2-.2-.2-.2v-.8h-.2v.8c-.2.1-.2.2-.2.3 0 .2.1.3.2.3v.6h.2v-.6c.1-.1.2-.2.2-.2h.7v-.2zm-.3.4c-.1 0-.2-.1-.2-.2s.1-.2.2-.2.2.1.2.2-.1.2-.2.2z" fill="#e5ad00" stroke="#7f2210" stroke-width=".031923"/><path d="m26.7 49.9c.1-.2.1-.3 0-.4l.7-.7-.2-.2-.7.7c-.1 0-.2 0-.2 0-.1-.2-.2-.4-.2-.7h-.2c0 .2.1.5.2.7-.2.2-.2.4.1.5.1.1.2.1.4.1.2.2.3.3.6.5l.2-.2c-.4 0-.6-.1-.7-.3zm-.2-.1c-.1.1-.2.1-.2 0-.1-.1-.1-.2 0-.2.1-.1.2-.1.2 0z" fill="#e5ad00" stroke="#7f2210" stroke-width=".031923"/><path d="m25.9 49-.2-.1v-.7l.2-.1v.4c-.1.1-.1.3 0 .5z" fill="#e5ad00" stroke="#7f2210" stroke-width=".031923"/><path d="m26.1 48.1.2.1s0 .4 0 .3 0 .3 0 .3l-.2.2c0-.2 0-.2 0-.4z" fill="#e5ad00" stroke="#7f2210" stroke-width=".031923"/><path d="m25.8 45.6-.2.1v.6l.2.1z" fill="#e5ad00" stroke="#7f2210" stroke-width=".031923"/><path d="m26.1 45.6.2.1v.6l-.2.1z" fill="#e5ad00" stroke="#7f2210" stroke-width=".031923"/><path d="m27.6 44.8v.2h-.7l-.1-.2z" fill="#e5ad00" stroke="#7f2210" stroke-width=".031923"/><path d="m27.6 44.5v-.2h-.7l-.1.2z" fill="#e5ad00" stroke="#7f2210" stroke-width=".031923"/><path d="m26.9 50.2c.2.2.5.3.7.4l.1-.2c-.2-.1-.4-.2-.6-.3z" fill="#e5ad00" stroke="#7f2210" stroke-width=".031923"/><path d="m26.8 50.4c.2.2.5.3.7.4l-.1.2c-.2-.1-.4-.2-.6-.3z" fill="#e5ad00" stroke="#7f2210" stroke-width=".031923"/><path d="m27.1 49h.3l.5-.5-.2-.1z" fill="#e5ad00" stroke="#7f2210" stroke-width=".031923"/><path d="m27 48.8-.2-.2.4-.5.3.1z" fill="#e5ad00" stroke="#7f2210" stroke-width=".031923"/><path d="m31 49 .2-.1v-.7l-.2-.1v.4z" fill="#e5ad00" stroke="#7f2210" stroke-width=".031923"/><path d="m30.7 48.1h-.2s0 .4 0 .3 0 .3 0 .3l.2.1c0-.2 0-.2 0-.4z" fill="#e5ad00" stroke="#7f2210" stroke-width=".031923"/><path d="m29.9 50.2c-.2.2-.5.3-.7.4l-.1-.2.6-.3z" fill="#e5ad00" stroke="#7f2210" stroke-width=".031923"/><path d="m30 50.4c-.2.2-.5.3-.7.4l.2.2c.2-.1.4-.2.6-.3v-.3" fill="#e5ad00" stroke="#7f2210" stroke-width=".031923"/><path d="m30.7 45.6-.2.1v.6l.2.1z" fill="#e5ad00" stroke="#7f2210" stroke-width=".031923"/><path d="m31 45.6.2.1v.6l-.2.1z" fill="#e5ad00" stroke="#7f2210" stroke-width=".031923"/><path d="m29.7 49h-.3l-.4-.5.1-.1z" fill="#e5ad00" stroke="#7f2210" stroke-width=".031923"/><path d="m29.8 48.8.2-.2-.4-.5-.2.1z" fill="#e5ad00" stroke="#7f2210" stroke-width=".031923"/><path d="m27.1 45.8.2-.1.5.5-.2.1z" fill="#e5ad00" stroke="#7f2210" stroke-width=".031923"/><path d="m26.9 45.9-.2.2.5.5.3-.1z" fill="#e5ad00" stroke="#7f2210" stroke-width=".031923"/><path d="m29.8 45.8-.3-.2-.5.6.2.1z" fill="#e5ad00" stroke="#7f2210" stroke-width=".031923"/><path d="m29.9 45.9.2.2-.5.5-.2-.1z" fill="#e5ad00" stroke="#7f2210" stroke-width=".031923"/><path d="m26.8 47.2.1-.2h.7v.2z" fill="#e5ad00" stroke="#7f2210" stroke-width=".031923"/><path d="m26.8 47.5.1.2h.7v-.2z" fill="#e5ad00" stroke="#7f2210" stroke-width=".031923"/><path d="m30 47.2-.1-.2h-.6l-.1.2z" fill="#e5ad00" stroke="#7f2210" stroke-width=".031923"/><path d="m30 47.5-.1.2h-.6l-.1-.2z" fill="#e5ad00" stroke="#7f2210" stroke-width=".031923"/><path d="m28.5 49.6h.3v-.6l-.3-.1z" fill="#e5ad00" stroke="#7f2210" stroke-width=".031923"/><path d="m28.3 49.6h-.3v-.6l.3-.1z" fill="#e5ad00" stroke="#7f2210" stroke-width=".031923"/><path d="m28.3 45.4h-.3v.7l.2.1zm.2 0 .2.1v.7h-.2z" fill="#e5ad00" stroke="#7f2210" stroke-width=".031923"/><path d="m29.2 44.8.1.2h.7v-.2z" fill="#e5ad00" stroke="#7f2210" stroke-width=".031923"/><path d="m29.2 44.5.1-.2h.7v.2z" fill="#e5ad00" stroke="#7f2210" stroke-width=".031923"/><path d="m28 47.4c0-.2.2-.4.4-.4s.4.2.4.4-.2.4-.4.4c-.2-.1-.4-.2-.4-.4" fill="#008e6e" stroke="#7f2210" stroke-width=".031923"/><path d="m19.9 37.3h-.2v-.2h-.2v.6h.2v.4h-.5v1.1h.2v2.1h-.4v1.1h4.2v-1.1h-.6v-2.1h.2v-1.1h-.5v-.4h.2v-.6h-.2v.2h-.2v-.2h-.2v.2h-.2v-.2h-.2v.6h.2v.4h-.5v-1.1h.2v-.6h-.2v.2h-.2v-.2h-.2v.2h-.2v-.2h-.2v.6h.2v1.1h-.3v-.4h.2v-.6h-.2v.2h-.2v-.2h-.2zm-.9 5.2h4.2m-4.2-.3h4.2m-4.2-.3h4.2m-4.2-.2h4.2m-4.2-.4h4.2m-3.6-.2h3.1m-3.1-.2h3.1m-3.1-.4h3.1m-3.1-.2h3.1m-3.1-.3h3.1m-3.1-.2h3.1m-3.1-.3h3.1m-3.4-.3h3.6m-3.6-.2h3.6m-3.6-.4h3.6m-3.6-.2h3.6m-3.1-.2h2.6m-1.6-.4h.5m-.5-.2h.5m-.5-.3h.5m-.5-.3h.5m-.7-.3h1.1m-1.9 1.1h.6m-.8-.3h1m-1 5v-.2m0-.4v-.2m-.3.2v.2m.5.1v-.2m.3.5v-.2m0-.4v-.2m0-.4v-.2m0-.2v-.3m-.3 1.1v-.3m-.5.3v-.3m1.1-.1v.3m.2-.3v-.2m-.8-.2v.2m.6-.2v.2m.4-.2v.2m-.2-.2v-.3m.2-.3v.2m0-.7v.2m-.2-.5v.2m.2-.5v.2m-.4-.2v.2m-.6-.2v.2m-.2-.4v.2m.5-.2v.2m.5-.2v.2m.2-.6v.2m-.4-.2v.2m-.6-.2v.2m-.2-.4v.2m1-.2v.2m-.5-.8v.2m2.3-.2h-.6m.8-.3h-1m1 5v-.2m0-.4v-.2m.3.2v.2m-.5.1v-.2m-.2.5v-.2m0-.4v-.2m0-.4v-.2m0-.2v-.3m.2 1.1v-.3m.5.3v-.3m-1-.1v.3m-.2-.3v-.2m.7-.2v.2m-.5-.2v.2m-.6-.2v.2m.4-.2v-.3m-.4-.3v.2m0-.7v.2m.4-.5v.2m-.4-.5v.2m.6-.2v.2m.5-.2v.2m.2-.4v.2m-.4-.2v.2m-.5-.2v.2m-.4-.6v.2m.6-.2v.2m.5-.2v.2m.2-.4v.2m-.9-.2v.2m.5-.8v.2m-1.1 2.9v-.3m0-.8v-.2m0 .7v-.3m0-.8v-.2m0-.4v-.2m0-.6v-.2m0-.3v-.2m-1.3.6h.6m.4-.8h.5m.6.8h.6" fill="#e5ad00" stroke="#7f2210" stroke-width=".056477"/><path d="m21.8 42.5v-.7c0-.2-.1-.6-.7-.6s-.7.4-.7.6v.7z" fill="#e5ad00" stroke="#7f2210" stroke-width=".056477"/><path d="m20.7 41.8h-.3c0-.2 0-.3.2-.4l.3.2c-.1.1-.2.2-.2.2z" fill="#e5ad00" stroke="#7f2210" stroke-width=".056477"/><path d="m21.6 41.8h.3c0-.2 0-.3-.2-.4l-.2.2c0 .1.1.2.1.2z" fill="#e5ad00" stroke="#7f2210" stroke-width=".056477"/><path d="m21.3 41.5.2-.3c-.1 0-.2-.1-.3-.1s-.2 0-.2.1z" fill="#e5ad00" stroke="#7f2210" stroke-width=".056477"/><path d="m20.6 40.6v-.7c0-.2-.2-.4-.4-.4s-.4.2-.4.4v.7z" fill="#e5ad00" stroke="#7f2210" stroke-width=".056477"/><path d="m21.7 40.6v-.7c0-.2.2-.4.4-.4s.4.2.4.4v.7z" fill="#e5ad00" stroke="#7f2210" stroke-width=".056477"/><path d="m21.3 38.8.1-.7h-.7v.7z" fill="#e5ad00" stroke="#7f2210" stroke-width=".056477"/><path d="m21.9 38.8-.1-.7h.7l-.1.7z" fill="#e5ad00" stroke="#7f2210" stroke-width=".056477"/><path d="m20.4 38.8v-.7h-.7l.1.7z" fill="#e5ad00" stroke="#7f2210" stroke-width=".056477"/><path d="m21.6 42.5v-.6c0-.1-.1-.4-.5-.4s-.4.3-.4.4v.6z" fill="#3861ab"/><path d="m20.5 40.5v-.5c0-.2-.1-.3-.3-.3s-.3.2-.3.3v.7z" fill="#3861ab"/><path d="m21.7 40.5v-.5c0-.2.1-.3.3-.3s.3.2.3.3v.7z" fill="#3861ab"/><path d="m22.4 43.6c0-1.5 1.1-2.7 2.4-2.7s2.4 1.2 2.4 2.7-1.1 2.7-2.4 2.7-2.4-1.3-2.4-2.7" fill="#e41a24" stroke="#7f2210" stroke-width=".047882"/><path d="m23.1 43.6c0-1.1.7-2 1.6-2s1.6.9 1.6 2-.7 2-1.6 2c-.8-.1-1.6-.9-1.6-2" fill="#3861ab" stroke="#7f2210" stroke-width=".047882"/><path d="m24.4 42.9c-.1 0-.2.1-.2.2 0 0 .1-.2.1-.4s-.2-.4-.2-.4-.2.2-.2.4.1.4.1.4c0-.1-.1-.2-.2-.2s-.2.1-.2.2v.1l.1.2c0-.1.1-.1.2-.1s.2.1.2.2v.2l-.1.2.2-.1-.2.2.2-.2.2.1-.1-.2v-.2c0-.1.1-.2.2-.2s.1 0 .2.1l.1-.2v-.1c-.3-.1-.4-.2-.4-.2z" fill="#e5ad00" stroke="#7f2210" stroke-width=".047882"/><path d="m23.7 43.6h.7v-.2h-.7z" fill="#e5ad00" stroke="#7f2210" stroke-width=".047882"/><path d="m25.9 42.9c-.1 0-.2.1-.2.2 0 0 .1-.2.1-.4s-.2-.4-.2-.4-.2.2-.2.4.1.4.1.4c0-.1-.1-.2-.2-.2s-.2.1-.2.2v.1l.1.2c0-.1.1-.1.2-.1s.2.1.2.2v.2l-.2.2.2-.1.1.2.1-.2.2.1-.1-.2v-.2c0-.1.1-.2.2-.2s.1 0 .2.1l.1-.2c-.3-.2-.4-.3-.5-.3z" fill="#e5ad00" stroke="#7f2210" stroke-width=".047882"/><path d="m25.3 43.6h.7v-.2h-.7z" fill="#e5ad00" stroke="#7f2210" stroke-width=".047882"/><path d="m25.1 44.2c-.1 0-.2.1-.2.2 0 0 .1-.2.1-.4s-.2-.4-.2-.4-.2.2-.2.4.1.4.1.4c0-.1-.1-.2-.2-.2s-.2.1-.2.2l.1.2c0-.1.1-.1.2-.1s.2.1.2.2v.2l-.1.2.2-.1.1.2.2-.2.2.1-.4-.2v-.2c0-.1.1-.2.2-.2s.1 0 .2.1l.1-.2c-.2-.1-.2-.2-.4-.2z" fill="#e5ad00" stroke="#7f2210" stroke-width=".047882"/><path d="m24.4 44.9h.7v-.2h-.7z" fill="#e5ad00" stroke="#7f2210" stroke-width=".047882"/><path d="m26 37.6s-.1 0-.2.1-.1.2-.1.2.1-.1.2-.1.2 0 .2 0z" fill="#e41a24" stroke="#7f2210" stroke-width=".047882"/><path d="m28.5 37.5v-.2s-.2 0-.3 0c-.2 0-.2-.1-.3-.2s-.2-.2-.2-.2c-.2 0-.3.1-.3.1s.2.1.2.2c.1.2.2.2.2.2h.5c.1 0 .2.1.2.1" fill="#e41a24" stroke="#7f2210" stroke-width=".047882"/><path d="m31.2 36.5c-.2.2-.4.2-.5.5 0-.2 0-.3-.2-.4 0 .3-.3.7-.2 1.2 0 .2-.1.4-.1.5s.1.4.2.7c.1.2.2.9-.2 1-.5.1-.7-.2-.8-.4-.2-.3-.2-.7-.3-.8 0 0 .1.1.2.1.1.1.1.2.1.2s0-.2 0-.3-.1-.2-.1-.2.2.2.3.3c.1-.1.1-.2-.1-.5.2.1.3.2.3.2v-.2c0-.1-.1-.2-.2-.2-.1-.1-.1-.2-.1-.2 0-.1 0-.2 0-.2s0 0 .1.1c.1 0 .1.1.1.1s0-.1 0-.2c0 0 0-.1-.1-.2 0-.1 0-.2 0-.2 0-.1 0-.2 0-.2s-.2-.2-.3-.3c-.2-.2-.4-.2-.4-.2s-.2 0-.2.1c-.1 0-.1.1-.1.2h-.2c-.1 0-.2 0-.2.1v.2s.2.1.3.2c.2 0 .2.2.1.2 0 .2-.2.2-.3.2s-.2 0-.2.1.2.2.2.2c0 .1-.1.2-.2.2s-.3 0-.4 0-.2 0-.2 0-.1 0-.2-.1c-.1 0-.2-.2-.3-.2-.1-.1-.2-.1-.2-.2-.1-.1-.2-.2-.2-.2 0-.1 0-.2 0-.2.1-.1.1-.1.1-.2s-.1 0-.2 0-.1-.1-.2-.1-.1.1-.1.2 0 .2 0 .2c-.1 0-.1-.2-.2-.2s-.1.1-.1.1l-.1.1c-.1 0 0 .1.1.1s.2.1.2.1h-.2c-.1 0 0 .1 0 .2v.1s0 .1.1.1.2-.1.2-.1c.1 0 .1.1.1.1s.1.1.1.2.2.1.2.1-.1 0-.2 0-.2.1-.2.1.3 0 .5.1c-.1 0-.3.2-.3.2.4.2.4 0 .8.4l-.2.2c-.1 0-.2.1-.2.2-.1 0-.2.1-.3 0-.1 0-.1-.1-.2-.2-.1 0-.1 0-.1.1 0 0 0 .1-.1.1-.1.1 0 .1.1.1s.2.1.1.1h-.2s-.1.1 0 .1v.2s.1.1.1 0c0 0 .1-.1.2 0 0 0-.1.1-.1.2v.1h.1c.1 0 .1.1.1.1s.1 0 .1-.1 0-.2 0-.2c0-.1.2-.1.2-.1s.2-.1.2-.2v.2c.2-.2.3-.3.3-.4v.3c.2-.2.4-.3.4-.3l.1.2c.1.1.2.2.3.3s.6.3.6.3-.5-.6-.6-.6-.2 0-.4 0-.3.2-.3.2v.3s.1.2.1.2v-.2l.1-.2v.2.2s0 .2 0 .2 0-.1.1-.1c0-.1.1-.1.1-.1s0 .1 0 .2v.2c0 .1-.1.1-.2.1-.2 0-.2 0-.3-.1s0-.2-.1-.2-.1.1-.1.1 0 0-.1.1 0 .1.1.1c.1.1.1.1 0 .1 0 .1-.2 0-.2 0-.1 0 0 .1 0 .2s0 .2.1.2c0 0 .1 0 .1-.1h.1v.1s-.1.1-.1.1c0 .1.1.1.1.1h.2s.1 0 .1-.1.1-.1.1-.1c.1 0 .2 0 .2.1h.2s.2 0 .2 0 .1 0 .2 0c0 0 .1-.1.1-.2 0 0 0-.2-.1-.3-.4-.3-.4-.4-.4-.5.1-.1.2-.1.2-.1h.2c-.1.2-.1.7.3.9-.1-.2 0-.3 0-.3l.2.3v-.3l.2.2c.1.1.1.2 0 .2 0 .1-.1.1-.2.1s-.1-.1-.2 0 0 .1 0 .1 0 .1 0 .2.1.1.1 0h.1s0 .1-.1.1c.7.1.6.2.6.2s.1.1.2.1l.1.1s0-.1.1-.2c0 0 0-.1.1-.1v.1s0 .1.1.1c0 0 .1-.1.2-.1 0 0 .1.1.2 0 .1 0-.1-.2-.1-.2 0-.1 0-.2 0-.2s.1-.2.2-.3.2-.2.2-.2c0-.1 0-.1-.1-.1l-.1-.1c0-.1-.1 0-.2-.1s-.2-.1-.2-.3.2-.4.2-.4c.1-.1.3-.1.5-.2.2-.2.2-.6.2-.7 0-.2-.2-.7-.3-.8 0-.1-.1-.7.1-.7.4-.2.2-.4.6-.7-.1 0-.2 0-.3 0-.2-.3.1-.4.1-.9z" fill="#e086b6" stroke="#7f2210" stroke-miterlimit="10" stroke-width=".047882"/><path d="m28.8 36.8c0 .1 0 .1 0 0 .1.1.1.1 0 0 .2.1.2.2.2.2s-.1-.1-.2-.2z" fill="#7f2210"/><path d="m28.1 37v-.2h.2c-.1.2-.2.2-.2.2z" fill="#7f2210"/><path d="m26.5 37s.1.1.2.1.1 0 .1 0 0-.1 0-.2c0-.2-.2-.2-.2-.2s.1.1 0 .2c0 0-.1.1-.1.1" fill="#e41a24" stroke="#7f2210" stroke-width=".047882"/><path d="m26.2 37.2s-.1-.1-.2-.1c-.2 0-.2.1-.2.1h.2c.1 0 .1.2.1.2l.1-.2c-.1.1 0 0 0 0" fill="#e41a24" stroke="#7f2210" stroke-width=".047882"/><path d="m26.3 39.1s-.1-.1-.2-.1-.2.2-.2.2.1 0 .2 0 .1.1.1.1.1-.1.1-.2z" fill="#e41a24"/><path d="m26.2 39.4c0-.1 0-.1-.1-.1h-.2s.1-.2.2-.2.2.1.2.1-.1.1-.1.2zm-.3-.2h.2c.1 0 .1 0 .1.1 0 0 .1-.1.1-.1s-.1-.1-.2-.1c-.1-.1-.1 0-.2.1z" fill="#7f2210"/><path d="m26.2 39.5s-.1 0-.2.1v.2s.1-.1.2-.1.2 0 .2 0z" fill="#e41a24"/><path d="m26 39.9v-.3c.1-.1.2-.1.2-.1l.2.2h-.3s-.1.1-.1.2zm0-.3v.1s.1-.1.2-.1h.1l-.1-.1c-.1 0-.1.1-.2.1z" fill="#7f2210"/><path d="m26.4 40s0 .1.1.2.2.1.2.1v-.1c0-.1.1-.1.1-.1l-.2-.1c-.1 0-.2 0-.2 0" fill="#e41a24"/><path d="m26.7 40.3s-.1 0-.2-.1-.1-.2-.1-.2h.2l.2.1s-.1 0-.1.1zm-.3-.3s0 .1.1.2.1.1.2.1v-.1c0-.1 0-.1.1-.1l-.2-.1z" fill="#7f2210"/><path d="m27.6 40.9s-.1-.1-.2-.1-.2.1-.2.1h.2c0 .1.1.1.1.1s0 0 .1-.1c-.1.1 0 0 0 0" fill="#e41a24"/><path d="m27.5 41s-.1 0-.1-.1h-.2s.1-.1.2-.1.2.1.2.1zm-.2-.1h.2c0 .1 0 .1.1.1l.1-.1s-.1-.1-.2-.1-.2.1-.2.1z" fill="#7f2210"/><path d="m27.2 41.3s-.2 0-.2.1c-.2.1-.2.2-.2.2s.1-.1.2-.1.2.1.2.1v-.1c0-.1 0-.2 0-.2" fill="#e41a24"/><path d="m27.2 41.7s-.1-.1-.2-.1-.2.1-.2.1v-.1s0-.1.2-.2c0-.1.2-.1.2-.1zm-.2-.2c.1 0 .1 0 .2.1v-.2c-.1-.1-.2-.1-.2.1-.1 0-.1 0-.1 0z" fill="#7f2210"/><path d="m27.5 41.8s-.1.1 0 .2.2.1.2.1v-.1c0-.1.1-.1.1-.1z" fill="#e41a24"/><path d="m27.7 42.1s-.1 0-.2-.1-.1-.1 0-.2v-.1l.3.1s-.1 0-.1.1zm-.2-.3s-.1.1 0 .2.1.1.2.1v-.1-.1z" fill="#7f2210"/><path d="m29.3 42s-.1 0-.2 0-.1.2-.1.2.1-.1.3-.2c0 .1.1.2.1.2s0-.1-.1-.2z" fill="#e41a24"/><path d="m29.4 42.3s-.1-.1-.1-.2c-.2.1-.3.2-.3.2v-.1s0-.2.1-.2h.2c.1.1.1.2.1.3zm-.3-.3s-.1.1-.1.1.1-.1.2-.1z" fill="#7f2210"/><path d="m29.4 42.4s-.1.1-.1.2.1.2.1.2 0-.1 0-.2c.1-.1.2-.1.2-.1z" fill="#e41a24"/><path d="m29.4 42.9s-.1-.1-.1-.3c0-.1.1-.2.1-.2l.2.1s-.1 0-.2.1zm0-.5s-.1.1-.1.2c0 0 0 .1.1.1v-.1c.1-.1.1-.1.1-.1z" fill="#7f2210"/><path d="m29.8 42.6s-.1.1 0 .2.2.1.2.1-.1-.2-.2-.3h.2s-.1 0-.2 0c.1-.1 0 0 0 0" fill="#e41a24"/><path d="m30 42.9s-.1 0-.3-.1c-.1-.1-.1-.1 0-.2h.3-.1c0 .1.1.3.1.3zm-.2-.3v.1c.1.1.1.1.1.1s0-.1-.1-.2z" fill="#7f2210"/><path d="m29.8 37c0-.1 0-.1 0 0-.1-.1-.1-.1 0-.2v-.1h-.1s-.1 0-.2 0v-.1h-.1s-.1-.1 0-.1c0 0 0-.1.1-.1v-.1h-.1v.1s-.1 0-.2 0c0 0 0 0 0-.1h-.1s-.1-.1 0-.1v-.1h-.1s-.1.1-.1 0c0 0 0 0 0-.1.1.2.1 0 .1 0v.2c0 .1-.1.2-.1.2.1 0 .2.1.4.2.2.2.3.2.3.3 0 0 .1-.1.2-.1s.2 0 .2 0c0 .2-.2.3-.2.2z" fill="#e5ad00"/><path d="m29.8 37.1c0-.1 0-.1 0 0-.1-.1-.1-.2-.1-.2-.1 0-.1.1-.1.1s0-.1-.1-.1c0 0-.1-.1-.2-.2-.1 0-.1-.1-.2-.1-.1-.1-.1-.1-.2-.1s.1-.1.1-.2v-.1h-.1s0 0 0-.1v-.1c0 .1.1.1.1.1s0 0 0-.1v.1h.1v.1.1h.1v.1h.2v-.1h.1v.1c-.1 0-.1.1-.1.1s0 0 0 0v.1h.1v.1h.3v.1h.2c0 .2-.1.3-.2.3zm0-.2c0 .1 0 .1 0 0 .1.1.2 0 .2-.1h-.2c-.1.1-.1.1 0 .1zm-.9-.5c.1 0 .1 0 .2.1.1 0 .1.1.2.1l.2.2c.1 0 .1.1.1.1s.1-.1.2-.1v-.1h-.3v-.1h-.1s-.1-.1 0-.1 0-.1.1-.1v-.1h-.1v.1h-.2v-.1h-.1s-.1-.1 0-.1v-.1h-.1v.1c0 .1 0 .2-.1.2zm0-.3s.1 0 0 0c.1 0 .1 0 0 0z" fill="#7f2210"/><path d="m29.2 36.6s.1 0 0 0c.1 0 .1.1 0 0 .1.1.1.1 0 0z" fill="#7f2210"/><path d="m29.4 36.8c-.1-.1-.1-.1 0 0-.1-.1 0-.1 0 0z" fill="#7f2210"/><path d="m29.1 36.6c-.1-.1-.1-.1 0 0-.1-.1 0-.1 0 0 .1 0 .1 0 0 0z" fill="#7f2210"/><path d="m28.9 36.4c.1 0 .1.1 0 0 0 .1 0 .1 0 0z" fill="#7f2210"/><path d="m29.5 36.8c-.1 0-.1 0 0 0z" fill="#7f2210"/><path d="m29.6 36.9c0 .1.1.1 0 0 .1.1.1 0 0 0 0-.1 0-.1 0 0-.1 0-.1 0 0 0z" fill="#7f2210"/><path d="m29.8 37.1c0-.1 0-.1 0 0-.1-.1-.1-.1 0 0-.1 0 0 0 0 0" fill="#7f2210"/><path d="m29.4 36.2h-.1l-.1.1.1.1.1-.1z" fill="#e5ad00"/><path d="m29.3 36.4-.1-.1.1-.1h.1v.1zm-.1-.1h.2v-.1z" fill="#7f2210"/><path d="m29.3 36.3-.1-.1-.1.1v.1h.1.1z" fill="#e5ad00"/><path d="m29.3 36.4h-.2v-.1l.1-.1.1.1zm-.2 0h.2v-.1l-.1-.1z" fill="#7f2210"/><path d="m29.3 36.3-.1.1h.1.1z" fill="#e5ad00"/><path d="m29.4 36.4h-.3l.1-.1zm-.2 0h.1z" fill="#7f2210"/><path d="m29.3 36.3s0 .1 0 0c0 .1 0 .1 0 0-.1.1-.1.1 0 0-.1 0-.1 0 0 0m0 0c-.1 0-.1 0 0 0-.1.1-.1.1 0 .2h.1c0-.1 0-.1-.1-.2z" fill="#7f2210"/><path d="m28.9 36c-.1 0-.2 0-.2 0h.2c-.1.1 0 .2 0 .2z" fill="#e5ad00"/><path d="m28.9 36.2s-.1-.1-.1-.2h-.2.2v.2zm0-.2v.1z" fill="#7f2210"/><path d="m29 36.1-.1.1v.1l.1-.1z" fill="#e5ad00"/><path d="m28.9 36.3v-.1l.1-.1v.1z" fill="#7f2210"/><path d="m28.9 36.1s0 .1 0 0c0 .1 0 .1 0 0zm0 0c-.1.1-.1.1 0 0-.1.1 0 .1 0 0z" fill="#7f2210"/><path d="m29.7 36.4h-.1l-.1.1h.1z" fill="#e5ad00"/><path d="m29.6 36.5h-.1l.1-.1h.1zm-.1 0 .1-.1z" fill="#7f2210"/><path d="m29.5 36.4h-.1v.1h.1.1z" fill="#e5ad00"/><path d="m29.6 36.5h-.3v-.1h.1zm-.2 0h.1z" fill="#7f2210"/><path d="m29.5 36.5.1.2.1-.1v-.1z" fill="#e5ad00"/><path d="m29.6 36.7-.1-.2h.2v.1zm-.1-.2.1.2.1-.1v-.1z" fill="#7f2210"/><path d="m29.5 36.6.1-.2z" fill="#e5ad00"/><path d="m29.5 36.5s.1 0 0 0c.1 0 .1 0 0 0zm0-.1c-.1 0-.1.1 0 0l-.1.2h.1.1s0 0-.1-.2c.1.1.1 0 0 0 .1 0 .1 0 0 0z" fill="#7f2210"/><path d="m29.9 36.7-.1-.1v.2h.1z" fill="#e5ad00"/><path d="m29.9 36.8h-.1v-.3l.1.1zm-.1 0v-.1z" fill="#7f2210"/><path d="m29.8 36.8v.1l.1-.1z" fill="#e5ad00"/><path d="m29.8 36.9v-.2h.2z" fill="#7f2210"/><path d="m29.8 36.6-.1.1v.1h.1z" fill="#e5ad00"/><path d="m29.8 36.8h-.1v-.1l.1-.1zm-.1 0 .1-.1z" fill="#7f2210"/><path d="m29.8 36.7c-.1.1-.1.1-.1.2h.1.1c0-.1 0-.1-.1-.2z" fill="#7f2210"/><path d="m30.2 37c-.1-.1-.2 0-.2 0 0 .1.1.1.2 0 0 .1 0 .1 0 0 .1.1.1.1 0 0z" fill="#e5ad00"/><path d="m30.1 37.1c-.1 0-.1 0 0 0l-.1-.1h.1.1l.1.1c-.2 0-.2 0-.2 0zm-.1-.1c.1.1.1 0 .2 0-.1-.1-.2 0-.2 0z" fill="#7f2210"/><path d="m30 36.9h-.1v.1l.1.1h.1z" fill="#e5ad00"/><path d="m30.1 37.1h-.1l-.1-.1v-.1h.1zm-.1 0v-.2h-.1z" fill="#7f2210"/><path d="m30 37.1.1-.1z" fill="#e5ad00"/><path d="m30.1 37s0 .1 0 0c-.1.1-.1.1 0 0-.1.1-.1 0 0 0-.1 0-.1 0 0 0m0 0c-.1 0-.1 0 0 0-.1 0-.1.1 0 0-.1.1-.1.1 0 0 0 .1 0 .1 0 0z" fill="#7f2210"/><path d="m28 39.3.2-.1c.1-.1.2-.2.2-.2s-.1.1-.2.2zm.9-.2c0-.1-.1-.3-.2-.5-.1.2-.2.3-.2.3-.1 0-.2.1-.2.1v-.4s-.1.1-.2.2c0 0-.1.1-.2.1-.1.1-.2.1-.2.1h-.1s.1-.1.1-.2v-.1c-.1.1-.3.2-.4.3.1-.1.2-.2.4-.3v-.1l.1-.1h-.1s-.1 0-.2-.1c-.1 0-.2.1-.2.1v-.1s0-.1.1-.2.2-.1.2-.1-.1 0-.2.1c0 0-.1.1-.1.1s.1-.1.2-.1c.1.1.2.1.2.1.1 0 .2-.1.2-.1l-.1.2v.1h.1-.1v.1c0 .1 0 .1-.1.2 0 0 .1 0 .1-.1.1 0 .2-.1.2-.1.1-.1.2-.2.2-.2v.4s.1-.1.2-.1c0 0 .1-.1.2-.3.1.1.1.4.2.4l.1-.2c.1-.1.1-.2.1-.2l.1.2-.1-.1s0 .1-.1.1z" fill="#7f2210"/><path d="m29 40.7s.2-.1.2-.3c0-.1-.2-.2-.3-.3.1 0 .3.2.3.3 0 .2-.2.3-.2.3z" fill="#7f2210"/></g><ellipse clip-path="url(#b)" cx="39" cy="39" fill="none" rx="36.7" ry="36.7"/><path d="m39 77.5c-21.2 0-38.5-17.3-38.5-38.5s17.3-38.5 38.5-38.5 38.5 17.3 38.5 38.5-17.3 38.5-38.5 38.5zm0-75c-20.1 0-36.5 16.4-36.5 36.5s16.4 36.5 36.5 36.5 36.5-16.4 36.5-36.5-16.4-36.5-36.5-36.5z" fill="#231f20"/></svg>