<svg enable-background="new 0 0 78 78" viewBox="0 0 78 78" xmlns="http://www.w3.org/2000/svg"><path clip-rule="evenodd" d="m2 39h74c0-20.4-16.5-37-37-37-20.5.1-37 16.6-37 37z" fill="#fff" fill-rule="evenodd"/><path clip-rule="evenodd" d="m38.2 76h1.6c20.1-.4 36.2-16.8 36.2-37h-74c0 20.2 16.1 36.6 36.2 37z" fill="#d7141a" fill-rule="evenodd"/><path d="m38.7 39.1c-8.5-8.9-17-17.8-25.4-26.7-1.8 1.7-11.3 11.2-11.3 26.6 0 15.1 9.2 24.5 10.9 26.3 8.6-8.7 17.3-17.5 25.8-26.2z" fill="#11457e"/><path d="m39 77.5c-21.2 0-38.5-17.3-38.5-38.5s17.3-38.5 38.5-38.5 38.5 17.3 38.5 38.5-17.3 38.5-38.5 38.5zm0-75c-20.1 0-36.5 16.4-36.5 36.5s16.4 36.5 36.5 36.5 36.5-16.4 36.5-36.5-16.4-36.5-36.5-36.5z" fill="#231f20"/></svg>