<svg enable-background="new 0 0 78 78" viewBox="0 0 78 78" xmlns="http://www.w3.org/2000/svg" xmlns:xlink="http://www.w3.org/1999/xlink"><clipPath id="a"><ellipse cx="39.2" cy="39.2" rx="36.8" ry="36.9" transform="matrix(.1602 -.9871 .9871 .1602 -5.7576 71.591)"/></clipPath><clipPath id="b"><ellipse cx="39.2" cy="39.2" rx="36.9" ry="36.8" transform="matrix(.6001 -.7999 .7999 .6001 -15.6575 47.0155)"/></clipPath><g clip-path="url(#a)"><path d="m2.3-16.1h73.8v110.6h-73.8z" fill="#ed2939"/><path d="m2.4-16.1h49.2v110.6h-49.2z" fill="#f2f2f2"/><path d="m2.3-16.1h24.6v110.6h-24.6z" fill="#002654"/></g><ellipse clip-path="url(#b)" cx="39.2" cy="39.2" fill="none" rx="36.8" ry="36.9" transform="matrix(.1602 -.9871 .9871 .1602 -5.7576 71.591)"/><path d="m26.9 4.3c0 23.2.1 46.5.1 69.8 2.7.9 6.8 2 11.8 2 5.5.1 9.9-1.1 12.7-2.1 0-23.2 0-46.4 0-69.7-2.7-1-6.9-2.1-12.1-2.1-5.4-.1-9.8 1.1-12.5 2.1z" fill="#fff"/><path d="m39 77.5c-21.2 0-38.5-17.3-38.5-38.5s17.3-38.5 38.5-38.5 38.5 17.3 38.5 38.5-17.3 38.5-38.5 38.5zm0-75c-20.1 0-36.5 16.4-36.5 36.5s16.4 36.5 36.5 36.5 36.5-16.4 36.5-36.5-16.4-36.5-36.5-36.5z" fill="#231f20"/></svg>