<svg enable-background="new 0 0 78 78" viewBox="0 0 78 78" xmlns="http://www.w3.org/2000/svg" xmlns:xlink="http://www.w3.org/1999/xlink"><clipPath id="a"><circle cx="38.8" cy="38.8" r="36.8"/></clipPath><clipPath id="b"><circle cx="38.8" cy="38.8" r="36.8"/></clipPath><g clip-path="url(#a)"><g transform="matrix(1.6 0 0 1.6 -200 -783.7795)"><path d="m94.1 477.3h110.3v73.5h-110.3z" fill="#0037a6"/><path d="m121.8 533.8 6.3-.2 48.8-35-.2-4.2-6.3.2-48.8 35z" fill="#fff"/><path d="m176.7 533.8-6.3-.2-48.8-35 .2-4.2 6.3.2 48.8 35z" fill="#fff"/><g fill="#f20000"><path d="m121.8 533.8 4.2-.2 18.3-13.2-4.2.2z"/><path d="m154.2 507.7 4.2-.2 18.3-13.2-4.2.2z"/><path d="m176.7 533.8.1-2.8-14.2-10.2-4.2-.2z"/><path d="m121.8 494.4-.1 2.8 14.2 10.2 4.2.2z"/></g><path d="m144.1 490.2h10.5v47.9h-10.5z" fill="#fff"/><path d="m117.5 507h63.6v14.2h-63.6z" fill="#fff"/><path d="m117.5 509.9h63.6v8.5h-63.6z" fill="#f20000"/><path d="m146.1 490.9h6.3v46.4h-6.3z" fill="#f20000"/></g></g><ellipse clip-path="url(#b)" cx="38.8" cy="38.8" fill="none" rx="36.8" ry="36.8"/><path d="m39 77.5c-21.2 0-38.5-17.3-38.5-38.5s17.3-38.5 38.5-38.5 38.5 17.3 38.5 38.5-17.3 38.5-38.5 38.5zm0-75c-20.1 0-36.5 16.4-36.5 36.5s16.4 36.5 36.5 36.5 36.5-16.4 36.5-36.5-16.4-36.5-36.5-36.5z" fill="#231f20"/></svg>