<svg enable-background="new 0 0 78 78" viewBox="0 0 78 78" xmlns="http://www.w3.org/2000/svg"><path clip-rule="evenodd" d="m39 75.9v-73.8c-20.3 0-36.8 16.5-36.9 36.9.1 20.4 16.6 36.9 36.9 36.9z" fill="#046a38" fill-rule="evenodd"/><path clip-rule="evenodd" d="m39 2.1c-1 0-2.1 0-3.3.2-1.1.1-2 .2-2.9.3v72.8c.8.2 1.8.2 2.8.3 1.2.1 2.3.2 3.4.2 20.1 0 36.5-16.1 36.9-36.1v-1.6c-.4-20-16.7-36.1-36.9-36.1z" fill="#da291c" fill-rule="evenodd"/><path d="m41 32.8 2.4-.6.7 1-3.1.8z" fill="#ff0"/><path d="m24.8 36.5-1.3.2-2.3-1.8.5-1.3 3 1.1z" fill="#ff0"/><path d="m19.4 39c-.1 0-.2 0-.3 0s-.2-.1-.2-.1 0 0 0-.1l.2-.2.2.1.1.3c.1-.1.1-.1 0 0zm0-.1-.2-.2-.2-.1-.2.2v-.1c0 .1.1.1.1.1.3.1.4.1.5.1z"/><path d="m19.7 40.4c-.2-.1-.4-.2-.6-.2-.1-.2-.1-.2-.1-.3 0 0 0 0 0-.1l.2-.2.4.1.1.7c.1 0 .1 0 0 0zm0-.1-.2-.4-.4-.1-.2.2v-.1s.1.1.2.1c.2.1.5.2.6.3z"/><path d="m21.6 46.1c-.3-.1-.6-.2-.7-.2-.2-.1-.2-.1-.2-.1l.1-.2h.1l.3.1.4.4c.1-.1.1-.1 0 0 .1 0 .1 0 0 0m.1-.1-.6-.3-.3-.1h.1l-.1.2s0 0 .2.1c.1-.1.4 0 .7.1z"/><path d="m22.3 47.2c-.3-.1-.7-.2-.7-.2-.2-.1-.2-.1-.2-.2 0 0 0 0 0-.1l.2-.2h.2l.5.7c.1-.1.1-.1 0 0 .1-.1 0 0 0 0m0-.1-.7-.4h-.2l-.2.2v-.1s0 0 .2.1c.3-.1.6.1.9.2z"/><path d="m21.5 46.6c-.1.1 0 .1.1.2s.3.1.6.2l-.5-.3z" fill="#ff0"/><path d="m20.9 45.6c-.1.1 0 .1.1.2s.3.1.6.2l-.3-.2z" fill="#ff0"/><path d="m19.2 39.8-.2.2s.1.1.2.1c.1.1.3.2.5.2l-.1-.4z" fill="#ff0"/><path d="m19.2 38.6v.2h.2l-.1-.2z" fill="#ff0"/><path d="m20.2 33.9-.1-.2.1-.2.2-.1z" fill="#ff0"/><path d="m21.1 31.9-.1-.3.1-.2.2-.1z" fill="#ff0"/><path d="m39.4 45.9 1.3.7 2.5-.5-1.4-1.1-1.3-1z" fill="#ff0"/><path d="m39.4 45.9.1.2 1 .5.5-.1v.1l-1.4-.6zm-.1 0 .2-.1 1.3.7-.5.1-1-.5z"/><path d="m39.5 45.9-.2.1v.2l1 .5.3-.1z" fill="#ff0"/><path d="m24.7 30.4-.1-.2c-.4.1-.8.2-1.3.3-.5.2-1 .3-1.5.6v-.1l.2.2h.2c.4-.2.7-.3 1.1-.4s.8-.2 1.2-.2zm.1-.1c0 .1 0 .1 0 0l-.1.2c-.4.1-.8.2-1.2.2-.4.1-.7.2-1.1.4h-.4l-.2-.2c.5-.2 1-.4 1.5-.6s.9-.2 1.3-.3z"/><path d="m24.8 31.6-.2-.2c-.2 0-.3 0-.5.1-.2 0-.3.1-.5.2v-.1l.4.2c.1 0 .2-.1.3-.1s.3-.1.5-.1zm0-.1s0 .1 0 0l-.2.2c-.1 0-.2 0-.3 0s-.2.1-.3.1l-.4-.2c.2-.1.3-.1.5-.2.2 0 .3-.1.5-.1z"/><path d="m24.6 30.3c-.4.1-.8.2-1.3.3-.4.2-.9.3-1.4.6l.2.1h.2c.4-.2.7-.3 1.1-.4.4-.1.8-.2 1.2-.2l.1-.2z" fill="#ff0"/><path d="m24.6 31.4c-.2 0-.3 0-.5.1-.2 0-.2.1-.4.1l.2.1c.1 0 .2-.1.3-.1h.3z" fill="#ff0"/><path d="m45 31.9c-.1-.1-.2-.2-.2-.2-.1 0-.1-.1-.1-.1-.4.2-.8.4-1.5.6-.6.2-1.3.3-2.1.5l-.1.2v-.1l.2.2c.7-.2 1.6-.3 2.1-.5.7-.3 1.2-.5 1.7-.6zm0-.1s0 .1 0 0c-.5.2-1 .5-1.6.7s-1.4.3-2.1.5l-.2-.2s0 0 0-.1l.1-.2c.7-.2 1.5-.3 2.1-.5s1-.3 1.4-.6.1 0 .1.1.2.2.2.3z"/><path d="m44.6 31.6c-.4.2-.8.3-1.4.6-.6.2-1.3.3-2.1.5l-.1.2.1.1c.7-.2 1.6-.3 2.1-.5.6-.2 1.1-.4 1.6-.6 0-.1-.1-.1-.2-.3z" fill="#ff0"/><path d="m45.6 32.9c0 .1-.1.1-.3.2-.3.1-.8.3-1.6.5-.7.2-1.6.4-2.5.6l-.2-.3s0 0 0-.1l.2-.2c.8-.2 1.6-.3 2.4-.5.7-.2 1.2-.3 1.8-.6zm-.1 0-.2-.1c-.6.2-1.1.3-1.8.6-.7.2-1.5.3-2.4.5l-.2.1v-.1l.2.2c.9-.2 1.8-.4 2.5-.6s1.3-.3 1.6-.5c.3 0 .3-.1.3-.1z"/><path d="m41.1 40.1.2.2c.8-.2 1.6-.2 2.3-.4s1.4-.3 2.1-.6v.1l-.3-.4h.1c-.7.2-1.3.4-2.1.6-.7.2-1.5.2-2.2.4zm-.1 0 .2-.2c.7-.1 1.5-.2 2.2-.4s1.4-.3 2.1-.6l.1.3v.1c-.7.2-1.3.4-2.1.6-.7.2-1.6.3-2.3.4z"/><path d="m41.1 41.3.1.2c.7-.1 1.3-.2 2.1-.3s1.5-.4 2.2-.6v-.4h.1c-.7.2-1.3.4-2.1.6-.7.2-1.5.3-2.2.4zm0 0c-.1 0-.1 0 0 0l.1-.2c.7-.2 1.6-.2 2.2-.4.7-.2 1.4-.4 2.1-.6v.4c-.7.2-1.5.4-2.2.6s-1.4.2-2.2.2z"/><path d="m38.3 46.9.1.2c.7-.1 1.4-.2 2.2-.3.8-.2 1.7-.3 2.7-.5v.1l-.2-.2c-.9.2-1.8.3-2.5.5s-1.2.2-1.8.3zm-.1.1c0-.1 0-.1 0 0l.5-.2c.6-.1 1.1-.2 1.8-.3.7-.2 1.6-.3 2.5-.5l.2.2c-.9.2-1.9.4-2.7.5s-1.5.2-2.3.3z"/><path d="m36.2 48.4v.2-.2c.8 0 1.6 0 2.6-.2s2.1-.4 3.2-.7l.5-.5v.1c-1.1.2-2.3.6-3.3.7-1 .2-1.7.2-2.5.3zm-.1 0 .5-.2c.7-.1 1.5-.2 2.5-.3 1-.2 2.1-.4 3.3-.7h.1v.1l-.5.5c-1.1.2-2.2.5-3.2.7s-1.8.2-2.6.2z"/><path d="m23.8 47.5.5.2c.6.2 1.2.2 2.2.4s2.3.2 3.7.4v.1l-.7-.4c-1-.1-2-.2-2.9-.3-.9-.2-1.8-.3-2.7-.6h.1zm0 .1v-.2c.9.2 1.8.4 2.7.6s1.9.2 2.9.3l.7.4v.1s0 0-.1 0c-1.3-.2-2.7-.2-3.7-.4s-1.6-.2-2.2-.4z"/><path d="m22.9 46.2.2.2c.7.2 1.5.3 2.2.4s1.6.2 2.3.3v.1l-.2-.3c-.7-.1-1.2-.2-2-.3s-1.6-.3-2.5-.4l.1-.1zm0 .1v-.3c.9.2 1.8.4 2.5.5.7.2 1.4.2 2 .3l.2.3v.1c-.8-.1-1.6-.2-2.4-.3-.7-.1-1.5-.2-2.2-.4z"/><path d="m24.8 41.3-.1-.2c-.6-.1-1.1-.2-1.9-.3-.7-.2-1.5-.3-2.3-.6h.1v.3c.7.2 1.5.4 2.1.6s1.3.2 2.1.2l-.2.1zm.1 0-.1.2s0 0-.1 0c-.7-.1-1.3-.2-2-.3-.7-.2-1.4-.3-2.1-.6v-.3c.8.2 1.6.4 2.3.6s1.4.3 2 .4z"/><path d="m24.8 40.2v-.2c-.6-.1-1.1-.2-1.8-.3-.7-.2-1.6-.4-2.4-.6h.1l-.1.3v-.1c.8.2 1.6.4 2.3.6.6.2 1.3.3 1.9.3zm.1 0-.1.2c-.7-.1-1.2-.2-2-.3-.7-.2-1.5-.4-2.3-.6 0 0 0 0 0-.1l.1-.3c.8.2 1.6.4 2.4.6.7.2 1.2.2 1.7.3z"/><path d="m21.2 34.9.1.2c.3.2.7.5 1 .8.3.2.7.5 1.1.7l.4-.1v.1c-.5-.3-.9-.7-1.3-1s-.7-.6-1.1-.8zm-.1 0 .2-.1c.3.2.7.6 1.1.8.4.3.8.7 1.3 1l-.3.1c-.3-.2-.7-.5-1.1-.7s-.7-.5-1-.8z"/><path d="m43 46c-.9.2-1.8.3-2.5.5s-1.2.2-1.8.3l-.4.2.1.1c.7-.1 1.4-.2 2.2-.3.8-.2 1.7-.3 2.6-.5z" fill="#ff0"/><path d="m42.3 47.3c-1.1.2-2.2.5-3.2.7s-1.7.2-2.5.3l-.5.2v.1c.8-.1 1.6-.1 2.5-.2 1-.2 2.1-.4 3.2-.7z" fill="#ff0"/><path d="m23.9 47.3v.2l.4.2c.6.2 1.2.2 2.2.4.9.2 2.2.2 3.4.4l-.6-.2c-1-.1-2-.2-2.9-.3s-1.6-.5-2.5-.7z" fill="#ff0"/><path d="m22.9 46v.2l.2.2c.7.2 1.5.3 2.2.4s1.5.2 2.2.2l-.2-.2c-.7-.1-1.2-.2-2-.3-.6-.1-1.5-.2-2.4-.5z" fill="#ff0"/><path d="m20.6 40.4v.2c.7.2 1.5.4 2.1.6.7.2 1.3.2 2 .3l.1-.2-.1-.1c-.6-.1-1.1-.2-1.9-.3-.5-.1-1.3-.4-2.2-.5z" fill="#ff0"/><path d="m20.6 39.1-.1.2c.7.2 1.6.4 2.2.6s1.3.2 1.9.3l.1-.1v-.1c-.6-.1-1.1-.2-1.8-.3-.6-.2-1.4-.3-2.3-.6z" fill="#ff0"/><path d="m21.4 34.9v.3c.3.2.7.5 1 .8.3.2.7.5 1.1.7l.3-.1c-.4-.3-.8-.7-1.2-.9-.6-.3-.9-.5-1.2-.8z" fill="#ff0"/><path d="m45.4 40.2c-.7.2-1.3.4-2 .6s-1.5.3-2.2.4l-.1.1.1.1c.7-.1 1.3-.2 2.1-.3.7-.2 1.4-.4 2.1-.6z" fill="#ff0"/><path d="m45.4 39c-.7.2-1.3.4-2 .6s-1.5.2-2.2.4l-.1.2.1.1c.8-.2 1.6-.2 2.3-.4s1.3-.3 2-.6z" fill="#ff0"/><path d="m45.3 32.8c-.6.2-1.1.3-1.7.5-.7.2-1.5.3-2.3.5l-.1.2.1.2c.9-.2 1.7-.4 2.5-.6.7-.2 1.3-.3 1.6-.5.2-.1.2-.1.2-.2z" fill="#ff0"/><path d="m46.8 39.6.2.2v.1c-.1.1-.2.2-.3.2-.2 0-.2-.2-.4-.2zm0 .1-.5.2v-.1c.2.2.2.2.3.2.1 0 .2-.1.2-.3l.1.2z"/><path d="m46.8 39.7-.4.1c.2.1.2.2.3.2.1 0 .2-.1.1-.3z" fill="#ff0"/><path d="m46.7 38.5.2.2c-.1.1-.2.2-.2.2-.1 0-.2-.2-.2-.2s0 0 0-.1l.2-.1c0-.1 0-.1 0 0m0 0-.2.2v-.1c.1.1.1.2.1.2.1 0 .2-.1.2-.2v.1z"/><path d="m46.7 38.5-.2.1c0 .1.1.2.1.2.1 0 .1-.1.2-.1z" fill="#ff0"/><path d="m44 47.3.1.2-.1.2s-.1.1-.2.1c0 0 0 0-.1 0s-.2 0-.2 0c.1-.2.2-.3.2-.4l.1-.1zm-.1 0c-.2.1-.2.2-.3.4v-.1h.2c.1 0 .1 0 .1-.1z"/><path d="m45.3 45.4v.3c-.2.1-.4.2-.5.2h-.1c-.2-.1-.1-.2-.1-.4l.2-.3h.1zm-.1 0-.3-.2h.1l-.2.3v.3c.1 0 .2-.1.5-.2z"/><path d="m45 45.3-.2.3v.2c0 .1 0 .1.1.1h.1s.2-.1.4-.2v-.3z" fill="#ff0"/><path d="m43.9 47.3c-.1.1-.2.2-.3.3h.2c.1 0 .1 0 .1-.1l.1-.1z" fill="#ff0"/><path d="m45.4 39.3v.8z"/><path d="m41.2 40.2v1-1c-.1-.1-.1-.1 0 0 0-.1 0-.1 0 0z"/><path d="m45.4 39.4c-.6.2-1.1.3-1.8.5s-1.6.3-2.3.4v.8c.7-.2 1.5-.2 2.2-.4s1.3-.3 1.9-.6z" fill="#ff0"/><path d="m43.1 46.4-.7.9s0 0-.1 0c0 0 0 0 0-.1l.8-.8c-.1-.1-.1-.1 0 0-.1-.1 0-.1 0 0z"/><path d="m38.3 47.1-1.6 1.1h-.1v-.1l1.7-1c0-.1 0-.1 0 0z"/><path d="m23.9 47.4s0 .1 0 0c-.1.1-.1.1 0 0l-1.1-1.2v-.1h.1l1 1.3c-.1 0-.1 0 0 0z"/><path d="m29.5 48.2c-.1.1-.1.1 0 0l-1.9-1.1s0 0 0-.1h.1l1.8 1.2c-.1 0-.1 0 0 0-.1 0 0 0 0 0z"/><path d="m20.7 40.4c-.1 0-.1 0 0 0l-.2-1v-.1h.1l.1 1.1c-.1-.1-.1-.1 0 0-.1-.1 0-.1 0 0z"/><path d="m24.8 41.3-.1-1z"/><path d="m22.3 31.2 1.4.2v.1s0 0-.1 0l-1.3-.3c-.1.1-.1.1 0 0-.1 0-.1 0 0 0-.1 0 0 0 0 0z"/><path d="m24.8 30.4v1.1-1.1c-.1-.1-.1-.1 0 0 0-.1 0-.1 0 0z"/><path d="m24.7 30.5c-.1.1-.1.1 0 0-.5.2-.9.2-1.3.3-.3.1-.7.2-1.1.4l1.2.2c.2-.1.3-.1.5-.2.2 0 .3-.1.5-.1l.1.1z" fill="#ff0"/><path d="m20.6 39.5.1.8c.8.2 1.6.4 2.2.6.7.2 1.2.2 1.8.3v-.8c-.7-.1-1.2-.2-2-.3-.6-.2-1.3-.5-2.1-.6z" fill="#ff0"/><path d="m23.1 46.4.7.9c.9.2 1.8.4 2.7.6.8.2 1.7.2 2.5.3l-1.4-1.1c-.8-.1-1.6-.2-2.3-.3-.7 0-1.5-.2-2.2-.4z" fill="#ff0"/><path d="m42.9 46.4c-.8.2-1.6.3-2.3.5-.8.2-1.6.2-2.2.3l-1.5 1c.7-.1 1.4-.2 2.3-.3.9-.2 2.1-.4 3.2-.7z" fill="#ff0"/><path d="m46.5 38.9c.1 7.5-5.9 13.6-13.5 13.6-7.5.1-13.6-5.9-13.6-13.5-.1-7.5 5.9-13.6 13.5-13.6 7.5 0 13.5 6 13.6 13.5m-.1 0c-.1-7.5-6.2-13.4-13.6-13.4-7.5.1-13.4 6.2-13.4 13.6.1 7.5 6.2 13.4 13.6 13.4 7.5-.2 13.5-6.2 13.4-13.6z"/><path d="m45.6 38.9c.1 7-5.6 12.7-12.6 12.8s-12.7-5.6-12.8-12.6 5.6-12.7 12.6-12.8c7.1-.1 12.8 5.6 12.8 12.6m-.1 0c-.1-7-5.7-12.6-12.7-12.5s-12.6 5.7-12.5 12.7 5.7 12.6 12.7 12.5 12.6-5.7 12.5-12.7z"/><path d="m45.4 38.9c.1 6.8-5.4 12.4-12.2 12.5s-12.4-5.4-12.5-12.2 5.4-12.4 12.2-12.5 12.4 5.4 12.5 12.2m-.1 0c-.1-6.8-5.6-12.2-12.4-12.2s-12.2 5.6-12.2 12.4c.1 6.7 5.6 12.2 12.4 12.2 6.8-.1 12.3-5.7 12.2-12.4z"/><path d="m32.9 26.6c6.8-.1 12.4 5.4 12.5 12.2s-5.4 12.4-12.2 12.5-12.4-5.4-12.5-12.2c-.1-6.9 5.4-12.4 12.2-12.5zm0-.2c-7 .1-12.6 5.7-12.5 12.7s5.7 12.6 12.7 12.5 12.6-5.7 12.5-12.7-5.8-12.6-12.7-12.5z" fill="#ff0"/><path d="m32.9 25.4c7.5-.1 13.6 5.9 13.6 13.5.1 7.5-5.9 13.6-13.5 13.6-7.5.1-13.6-5.9-13.6-13.5-.1-7.4 6-13.5 13.5-13.6zm0-.2c-7.6.1-13.7 6.2-13.6 13.9.1 7.6 6.2 13.7 13.9 13.6s13.7-6.2 13.6-13.9c-.1-7.6-6.4-13.6-13.9-13.6z" fill="#ff0"/><path d="m32.9 26.3c7-.1 12.7 5.6 12.8 12.6s-5.6 12.7-12.6 12.8-12.7-5.6-12.8-12.6 5.5-12.7 12.6-12.8zm0-.8c-7.5.1-13.4 6.2-13.4 13.6.1 7.5 6.2 13.4 13.6 13.4 7.5-.1 13.4-6.2 13.4-13.6-.1-7.5-6.2-13.4-13.6-13.4z" fill="#ff0"/><path d="m33.5 52.8h-.8v-3.7h.8z" fill="#ff0"/><path d="m21.3 46.4-.5-.8.3-.3 1-.6 3.3-.8.3 1-3.1.9z" fill="#ff0"/><path d="m24.8 36.5.1 1.2-1.7.3-2.6.7-1.3.7v-1l1.1-.7z" fill="#ff0"/><path d="m24.8 32.1v2.6l-2.2-.9-2.1-.5 1.1-2.1 1.5.2z" fill="#ff0"/><path d="m33.5 29.7h-1.1v-4.6h1.1z" fill="#ff0"/><path d="m41 30.3v1.1c1.3.2 2.6.6 3.3.7s.7.2.8.4l-.6-1.1-1.3-.6z" fill="#ff0"/><path d="m41 37.6v-1.1l3.7.8 2.1 1.1v1.1l-2.1-1.1z" fill="#ff0"/><path d="m40.5 44.1.3-1.1.2-1.5 2.2 1.7 1.4 1.2.7.9-.7.9-.7 1-.9-1.3z" fill="#ff0"/><path d="m46.8 38.9c.1 7.6-6.1 13.9-13.7 14s-13.9-6.1-14-13.7 6.1-13.9 13.7-14 14 6 14 13.7m0 0c-.1-7.6-6.2-13.7-13.9-13.6s-13.7 6.2-13.6 13.9c.1 7.6 6.2 13.7 13.9 13.6 7.5-.1 13.6-6.3 13.6-13.9z"/><path d="m25.4 43.7-.3-.1c-.6.1-1.1.2-1.8.4s-1.6.6-2.1.8-.6.4-.7.6l.2.2h-.1c.1-.2.2-.3.7-.6.5-.2 1.4-.6 2.1-.8s1.3-.3 1.8-.5zm.1-.1-.2.2c-.6.1-1.1.2-1.8.5-.7.2-1.6.6-2.1.8s-.6.4-.7.6l-.2-.2c.1-.2.2-.3.7-.6.5-.2 1.3-.6 2.1-.8.7-.2 1.3-.3 1.9-.4z"/><path d="m33.5 29.7.1-4.8h-.3v4.7zm.1.1-.2-.1v-4.7h.3z"/><path d="m32.5 29.8.1-4.8h-.3v4.7zm0 0-.2-.1v-4.7h.3z"/><path d="m32.5 49.1-.2.1v3.9h.3zm0-.1.2.1v3.9h-.3z"/><path d="m33.6 49.1-.2.1v3.9h.3zm0-.1.2.1v3.9h-.3z"/><path d="m41 31.4.1.2c1.1.2 2.1.4 3 .7.7.2 1.1.4 1.6.7h-.1l-.2-.4c-.4-.2-.7-.4-1.5-.7-.7-.2-1.8-.4-2.9-.7h.1zm-.1 0 .1-.2h.1c1.1.2 2.1.4 2.9.7.7.2 1.1.4 1.5.7l.2.4v.1s0 0-.1 0c-.4-.2-.8-.4-1.6-.7-.7-.2-1.8-.4-2.9-.7z"/><path d="m41 30.3.1.2c1 .2 2 .5 2.6.7.7.2 1 .5 1.3.7v-.1l-.3-.5c-.3-.2-.7-.4-1.3-.6-.7-.1-1.5-.4-2.4-.4zm0 0c-.1 0-.1 0 0 0l.1-.2h.1c.8.2 1.7.4 2.3.6s.9.4 1.3.6l.3.5v.1s0 0-.1 0c-.3-.2-.6-.5-1.2-.7-.7-.2-1.6-.5-2.6-.7z"/><path d="m41.1 37.6.1.2c1.5.3 3 .7 4 1s1.4.7 1.8 1.1h-.1v-.3c-.4-.3-.8-.7-1.7-1-1-.5-2.5-.8-4.1-1l.2-.1zm-.1 0 .1-.2h.1c1.6.3 3 .7 4 1s1.4.7 1.7 1.1v.3s0 0-.1 0c-.4-.3-.8-.7-1.8-1s-2.5-.7-4-1z"/><path d="m41.1 36.4.1.2c1.5.3 3 .7 4 1s1.4.7 1.8 1.1h-.1v-.3c-.4-.3-.8-.7-1.7-1-1-.4-2.5-.7-4.1-1l.2-.1zm-.1.1c0-.1 0-.1 0 0l.1-.2h.1c1.6.3 3 .7 4 1s1.4.7 1.7 1.1v.3s0 0-.1 0c-.4-.3-.8-.7-1.8-1s-2.5-.7-4-1z"/><path d="m41.1 41.3.1.3c1.1.9 2.2 1.7 3 2.3.7.6.9.9 1 1.1s.2.4.2.6h-.1l.2-.3c0-.2-.1-.2-.2-.5-.1-.2-.3-.6-1-1.1-.7-.7-1.9-1.6-3-2.5zm-.1.1c0-.1 0-.1 0 0l.2-.1c1.1.9 2.4 1.8 3 2.5.7.7.9 1 1.1 1.2.1.2.2.4.2.5l-.2.3s0 0-.1 0c0-.2-.1-.3-.2-.6-.1-.2-.3-.6-1-1.1-.7-.6-1.8-1.5-3-2.3z"/><path d="m40.5 44 .1.2c.7.6 1.5 1.1 2.1 1.6s1.1 1 1.2 1.3c.2.3.2.5.2.7h-.1l.2-.3c0-.2 0-.2-.2-.5-.2-.2-.6-.7-1.1-1.1-.6-.5-1.4-1.1-2.1-1.6zm-.1 0 .2-.1c.8.6 1.6 1.1 2.1 1.7.6.5 1 .9 1.1 1.2.2.2.2.4.2.6l-.2.3s0 0-.1 0c0 0 0 0 0-.1 0-.2 0-.2-.2-.6-.2-.3-.7-.7-1.2-1.2s-1.3-1.1-2.1-1.6z"/><path d="m25.8 44.9-.2-.1c-.5.1-.9.2-1.6.3s-1.5.5-2.1.7c-.5.2-.7.4-.8.7v-.1l.2.2h-.1c.2-.2.3-.4.8-.7.5-.2 1.4-.6 2.1-.7s1.1-.2 1.5-.3zm0-.1v.2c-.4.1-.8.2-1.5.3-.7.2-1.6.5-2.1.7s-.7.4-.8.7l-.2-.2s0 0 0-.1c.2-.2.3-.4.8-.7.5-.2 1.4-.6 2.1-.7s1.2-.2 1.7-.2z"/><path d="m24.8 36.6-.2-.2c-.4.1-.8.1-1.6.3s-2.1.6-2.9.9c-.7.3-.9.6-1.1.8v.3h-.1c.2-.2.4-.5 1.1-.8s1.9-.7 2.7-.9 1.3-.3 1.8-.4zm0-.1s0 .1 0 0l-.1.2c-.5.1-1 .2-1.8.4s-2 .6-2.7.9-.9.6-1.1.7 0 0-.1 0v-.3c.2-.2.4-.5 1.1-.8s2.1-.7 2.9-.9 1.2-.2 1.6-.3z"/><path d="m24.8 37.7-.2-.2c-.6.1-1.2.2-2.1.4s-2 .6-2.6.9c-.7.2-.8.5-1 .7v.3h-.1c.2-.2.4-.5 1.1-.8s1.9-.7 2.8-.9c.8-.2 1.3-.3 1.8-.3zm0 0-.1.3c-.5.1-1 .2-1.8.3-.8.2-2.1.6-2.8.9s-.9.6-1.1.7c0 0 0 0-.1 0v-.3c.2-.2.3-.4 1-.7s1.8-.7 2.6-.9c.9-.2 1.5-.3 2.1-.4z"/><path d="m20.2 33.9c-.1 0-.1 0 0 0-.1-.2-.2-.4.1-.5h.2c.2 0 .6.1 1 .2.5.2 1.1.3 1.6.6.6.2 1.1.5 1.6.7h-.1l.1-.2v.1l-.1-.2c-.4-.2-.9-.4-1.5-.7-.7-.2-1.5-.5-2-.7-.2 0-.4 0-.6 0s-.2 0-.3 0l-.2.3s0 0-.1 0c0 0 0 0 0-.1l.2-.3h.3c.2 0 .3 0 .6.1.5.1 1.3.4 2 .7.7.2 1.1.4 1.5.7l.1.2v.1h.1s0 0-.1 0c-.6-.2-1.1-.5-1.6-.7-.6-.2-1.1-.4-1.6-.6-.4-.1-.7-.2-.9-.2-.1 0-.2 0-.2 0-.2.1-.2.3-.1.5-.1 0-.1 0 0 0z"/><path d="m21.1 31.9s0 .1 0 0c0 .1 0 .1 0 0-.2-.1-.2-.2-.1-.4.1-.1.2-.2.5-.2h.2c.4 0 1.1.2 1.6.4s.9.3 1.3.5l.2-.1v.1l-.2-.2c-.2-.1-.5-.2-1-.3-.5-.2-1.2-.3-1.6-.4-.2 0-.2 0-.3 0-.2 0-.2 0-.3.1l-.2.2s0 0-.1 0c0 0 0 0 0-.1l.2-.4c.1 0 .2-.1.3-.1h.4c.4.1 1.1.2 1.6.4s.7.2 1 .3l.2.2-.2.1c-.4-.2-.7-.3-1.3-.5-.5-.2-1.1-.3-1.6-.4-.1 0-.2 0-.2 0-.2 0-.4.1-.5.2.1.3.1.4.1.6z"/><g fill="#ff0"><path d="m21.6 31.2c-.2 0-.2 0-.3.1l-.2.2c.1 0 .2-.1.3-.1h.2c.4 0 1.1.2 1.6.4s.9.3 1.3.5l.1-.1-.2-.2c-.2-.1-.5-.2-.9-.3-.5-.2-1.2-.3-1.6-.4 0-.1-.2-.1-.3-.1z"/><path d="m20.6 33.2c-.1 0-.2 0-.3 0l-.1.2h.2c.2 0 .6.1 1 .2.5.2 1.1.3 1.6.6.6.2 1.1.5 1.6.7l.1-.1-.1-.2c-.4-.2-.9-.4-1.5-.6-.7-.2-1.5-.5-2-.7-.2-.1-.4-.1-.5-.1z"/><path d="m24.6 36.4c-.4.1-.8.1-1.6.3s-2.1.6-2.9.9c-.7.3-.9.6-1.1.8v.2c.2-.2.4-.4 1.1-.7s1.9-.7 2.7-.9 1.3-.3 1.8-.4z"/><path d="m24.7 37.6c-.6.1-1.2.2-2.1.4s-2 .6-2.6.9c-.7.2-.8.5-1 .7v.2c.2-.2.4-.4 1.1-.7s1.9-.7 2.8-.9c.8-.2 1.3-.3 1.8-.3z"/><path d="m25.2 43.6c-.6.1-1.1.2-1.8.4s-1.6.6-2.1.8-.6.4-.7.6l.1.2c.1-.2.2-.3.7-.5s1.4-.6 2.1-.8 1.2-.3 1.8-.5l.1-.2z"/><path d="m25.6 44.8c-.4.1-.9.2-1.6.3-.7.2-1.5.5-2.1.7-.5.2-.7.4-.8.7l.1.2c.2-.2.3-.4.8-.6s1.4-.6 2.1-.7c.7-.2 1.1-.2 1.5-.3v-.1z"/><path d="m32.5 49.1-.2.1v3.8h.2z"/><path d="m33.6 49.1-.2.1v3.8h.2z"/><path d="m40.7 44-.2.1v.2c.7.6 1.5 1.1 2.1 1.6s1.1 1 1.2 1.3c.2.2.2.3.2.5l.2-.2c0-.2 0-.2-.2-.5-.2-.2-.6-.7-1.1-1.1-.7-.8-1.5-1.4-2.2-1.9z"/><path d="m41.2 41.3v.3c1.1.9 2.3 1.7 3 2.4.7.6.9.9 1 1.1s.2.3.2.5l.2-.2c0-.2-.1-.2-.2-.5-.1-.2-.3-.6-1-1.1-.8-.7-2-1.6-3.2-2.5z"/><path d="m41.2 37.5v.2c1.5.3 3 .7 3.9 1s1.3.7 1.7 1v-.2c-.4-.3-.7-.7-1.7-1-.9-.4-2.4-.7-3.9-1z"/><path d="m41.2 36.3v.2c1.5.3 3 .7 3.9 1s1.3.7 1.7 1v-.2c-.4-.3-.7-.7-1.7-1-.9-.3-2.4-.6-3.9-1z"/><path d="m41.1 31.3.1.2c1.1.2 2.1.4 2.9.7.7.2 1.1.4 1.5.6l-.1-.2c-.4-.2-.7-.4-1.5-.6-.9-.3-1.8-.5-2.9-.7z"/><path d="m41.1 30.2v.2c1 .2 2 .5 2.6.7s.8.4 1.1.6l-.2-.3c-.3-.2-.7-.4-1.2-.6-.7-.2-1.5-.5-2.3-.6z"/><path d="m33.4 25v4.6l.2.1.1-.1v-4.6z"/><path d="m32.2 25v4.6l.2.1.1-.1v-4.6z"/></g><path d="m24.8 29.8 16.2-.2.1 11.2c-.2 1.4-.3 2.9-1 4.1s-1.9 2.3-3.1 3-2.4 1.1-3.8 1.1c-.1 0-.1 0-.2 0-1.4 0-2.9-.4-4.2-1.1s-2.4-1.6-3-2.9c-.7-1.2-.8-2.6-1.1-4z" fill="#f00"/><path d="m24.8 29.9.1 11.1h.1l-.2-11.1 16-.1.1 11h.1l-.1-11.1z"/><path d="m24.8 29.6c-.1 0-.1 0-.2.1 0 0-.1.1-.1.2l.1 11.1h.1l-.1-11.2v-.1c.1 0 .1 0 .2-.1l16.2-.1c.1 0 .1.1.1.1l.1 11.2h.1l-.1-11.2c0-.1-.1-.2-.2-.2z"/><path d="m24.8 29.7c-.1 0-.1 0 0 0-.1.1-.1.1 0 0v11.3h.2l-.2-11 16.1-.2.1 11h.2l-.1-11.2c0-.1-.1-.1-.1-.1z" fill="#fff"/><path d="m25 41c-.1 4.4 3.6 8 8 8s8-3.7 8-8.1h-.1c0 4.4-3.5 8-7.9 8s-8-3.5-8-7.9z"/><path d="m24.7 41c-.1 4.6 3.7 8.3 8.3 8.2 4.6 0 8.3-3.8 8.2-8.4h-.1c0 4.5-3.6 8.3-8.2 8.3-4.5.1-8.1-3.6-8.2-8.1z"/><path d="m24.7 41c0 4.5 3.8 8.2 8.3 8.2s8.2-3.8 8.2-8.3h-.2c0 4.4-3.5 8-8 8.1-4.4 0-8-3.5-8.1-8z" fill="#fff"/><path d="m37.6 40.7c-.1 2.5-2.1 4.6-4.6 4.7-2.5 0-4.5-2-4.6-4.5v-.1h-.1v.1c0 2.5 2.1 4.6 4.7 4.6 2.6-.1 4.6-2.2 4.6-4.8zm-9.2-7.6s-.1.1 0 0v7.6h.1l-.1-7.6h9.1l.1 7.5h.1l-.1-7.6z"/><path d="m28.4 33.2.1 7.6v.1c0 2.5 2.1 4.5 4.6 4.5s4.5-2.1 4.5-4.6v-.1l-.1-7.5z" fill="#fff"/><path d="m29.1 37.9v1.6.2l.1.2c0 .1.1.2.2.2.2.2.4.3.7.4h.2c.2 0 .4-.1.7-.2.2-.2.3-.4.4-.7v-.2-1.6z" fill="#00309a"/><path d="m30.9 38.4c0 .1-.1.2-.2.2s-.2-.1-.2-.2.1-.2.2-.2c.1-.1.2.1.2.2z" fill="#00309a"/><path d="m29.8 38.4c0 .1-.1.2-.2.2s-.2-.1-.2-.2.1-.2.2-.2.2.1.2.2z" fill="#00309a"/><path d="m30.3 39c0 .1-.1.2-.2.2s-.2-.1-.2-.2.1-.2.2-.2c.2-.1.2.1.2.2z" fill="#00309a"/><path d="m30.9 39.5c0 .1-.1.2-.2.2s-.2-.1-.2-.2.1-.2.2-.2.2.2.2.2z" fill="#00309a"/><path d="m29.8 39.5c0 .1-.1.2-.2.2s-.2-.1-.2-.2.1-.2.2-.2.2.2.2.2z" fill="#00309a"/><path d="m29.5 38.1s0 .1 0 0c0 .1 0 .1 0 0h-.2s0 0-.1.1v.1.1.1.1s0 0 .1.1h.1.1.1s0 0 0-.1 0 0 0-.1v-.1s0 0-.1-.1c.2-.1.1-.1 0-.2.1.1.1 0 0 0z" fill="#fff"/><path d="m30.7 38.1c-.1 0-.1 0-.2.1-.1 0-.1.1-.1.2 0 .1 0 .1.1.2 0 .1.1.1.2.1.1 0 .1 0 .2-.1.1 0 .1-.1.1-.2s0 0 0-.1 0 0 0-.1c-.2 0-.2 0-.3-.1z" fill="#fff"/><path d="m30.1 38.7c-.1 0-.1 0 0 0h-.2s0 0-.1.1v.1.1.1s0 0 .1.1h.1.1.1s0 0 0-.1 0 0 0-.1 0 0-.1-.1c.1-.1.1-.1 0-.2.1 0 .1 0 0 0z" fill="#fff"/><path d="m30.7 39.3c-.1 0-.1 0 0 0-.1 0-.1 0-.2 0v.1c0 .1 0 .1.1.2h.1.1.1.1v-.1-.1-.1c-.2.1-.3.1-.3 0z" fill="#fff"/><path d="m29.5 39.3c-.1 0-.2.1-.2.2v.1.1.1l.1.1h.1l.1-.1v-.1-.1s0-.1-.1-.1 0 0-.1 0c.2-.1.2-.1.1-.2.1.1.1 0 0 0z" fill="#fff"/><path d="m31.9 34.3v1.6.2l.1.2c0 .1.1.2.2.2.2.2.4.3.7.4h.2c.2 0 .4-.1.7-.2.2-.2.3-.4.4-.7v-.2-1.6z" fill="#00309a"/><path d="m33.8 34.7c0 .1-.1.2-.2.2s-.2-.1-.2-.2.1-.2.2-.2c0 0 .2.1.2.2z" fill="#00309a"/><path d="m32.6 34.8c0 .1-.1.2-.2.2s-.2-.1-.2-.2.1-.2.2-.2c.1-.1.2 0 .2.2z" fill="#00309a"/><path d="m33.1 35.3c0 .1-.1.2-.2.2s-.2-.1-.2-.2.1-.2.2-.2.2.1.2.2z" fill="#00309a"/><path d="m33.7 35.8c0 .1-.1.2-.2.2s-.2-.1-.2-.2.1-.2.2-.2c.1.1.2.2.2.2z" fill="#00309a"/><path d="m32.6 35.9c0 .1-.1.2-.2.2s-.2-.1-.2-.2.1-.2.2-.2.2.1.2.2z" fill="#00309a"/><path d="m32.4 34.5h-.2s0 0-.1.1v.1.1.1.1s0 0 .1.1h.1.1.1s0 0 0-.1 0 0 0-.1v-.1s0 0-.1-.1c.1-.2.1-.2 0-.2z" fill="#fff"/><path d="m33.5 34.5c-.1 0-.1 0-.2.1-.1 0-.1.1-.1.2 0 .1 0 .1.1.2 0 .1.1.1.2.1.1 0 .1 0 .2-.1.1 0 .1-.1.1-.2s0 0 0-.1 0 0 0-.1c-.1-.1-.2-.1-.3-.1z" fill="#fff"/><path d="m33 35.1c-.1 0-.1 0 0 0h-.2s0 0-.1.1v.1.1.1.1s0 0 .1.1h.1.1.1s0 0 0-.1 0 0 0-.1v-.1s0 0-.1-.1c0-.2 0-.2 0-.2z" fill="#fff"/><path d="m33.5 35.7c-.1 0-.1 0-.2 0v.1c0 .1 0 .1.1.2h.1.1.1.1v-.1-.1-.1c-.2 0-.2 0-.3 0z" fill="#fff"/><path d="m32.4 35.7c-.1 0-.2.1-.2.2v.1.1l.1.1h.1l.1-.1v-.1-.1s0-.1-.1-.1 0 0-.1 0c.2-.1.1-.1.1-.1z" fill="#fff"/><path d="m32 37.9v1.6.2l.1.2c0 .1.1.2.2.2.2.2.4.3.7.4h.2c.2 0 .4-.1.7-.2.2-.2.3-.4.4-.7v-.2-1.6z" fill="#00309a"/><path d="m33.8 38.4c0 .1-.1.2-.2.2s-.2-.1-.2-.2.1-.2.2-.2c.1-.1.2 0 .2.2z" fill="#00309a"/><path d="m32.6 38.4c0 .1-.1.2-.2.2s-.2-.1-.2-.2.1-.2.2-.2.2 0 .2.2z" fill="#00309a"/><path d="m33.2 39c0 .1-.1.2-.2.2s-.2-.1-.2-.2.1-.2.2-.2c0-.1.2 0 .2.2z" fill="#00309a"/><path d="m33.8 39.5c0 .1-.1.2-.2.2s-.2-.1-.2-.2.1-.2.2-.2.2.1.2.2z" fill="#00309a"/><path d="m32.6 39.5c0 .1-.1.2-.2.2s-.2-.1-.2-.2.1-.2.2-.2.2.1.2.2z" fill="#00309a"/><path d="m32.4 38.1h-.2s0 0-.1.1v.1.1.1.1s0 0 .1.1h.1.1.1s0 0 0-.1 0 0 0-.1v-.1s0 0-.1-.1c.2-.1.1-.2 0-.2.1 0 .1 0 0 0z" fill="#fff"/><path d="m33.5 38.1c-.1 0-.1 0-.2.1-.1 0-.1.1-.1.2s0 .1.1.2c0 .1.1.1.2.1.1 0 .1 0 .2-.1.1 0 .1-.1.1-.2s0 0 0-.1 0 0 0-.1c-.1 0-.1-.1-.3-.1.1 0 .1 0 0 0z" fill="#fff"/><path d="m33 38.7c-.1 0-.1 0 0 0h-.2s0 0-.1.1v.1.1.1s0 0 .1.1h.1.1.1s0 0 0-.1 0 0 0-.1 0 0-.1-.1c0-.2 0-.2 0-.2z" fill="#fff"/><path d="m33.5 39.3c-.1 0-.1 0-.2 0v.1c0 .1 0 .1.1.2h.1.1.1.1v-.1-.1-.1c-.2 0-.2 0-.3 0z" fill="#fff"/><path d="m32.4 39.3c-.1 0-.2.1-.2.2v.1.1.1l.1.1h.1l.1-.1v-.1-.1s0-.1-.1-.1 0 0-.1 0c.2-.2.2-.2.1-.2z" fill="#fff"/><path d="m34.9 37.8v1.6.2l.1.2c0 .1.1.2.2.2.2.2.4.3.7.4h.2c.2 0 .4-.1.7-.2.2-.2.3-.4.4-.7v-.2-1.6z" fill="#00309a"/><path d="m36.7 38.3c0 .1-.1.2-.2.2s-.2-.1-.2-.2.1-.2.2-.2c.2 0 .2.1.2.2z" fill="#00309a"/><path d="m35.6 38.3c0 .1-.1.2-.2.2s-.2-.1-.2-.2.1-.2.2-.2c0 0 .2.1.2.2z" fill="#00309a"/><path d="m36.1 38.9c0 .1-.1.2-.2.2s-.2-.1-.2-.2.1-.2.2-.2.2.1.2.2z" fill="#00309a"/><path d="m36.7 39.5c0 .1-.1.2-.2.2s-.2-.1-.2-.2.1-.2.2-.2.2.1.2.2z" fill="#00309a"/><path d="m35.5 39.5c0 .1-.1.2-.2.2s-.2-.1-.2-.2.1-.2.2-.2.2.1.2.2z" fill="#00309a"/><path d="m35.3 38.1h-.2s0 0-.1.1v.1.1.1.1s0 0 .1.1h.1.1.1s0 0 0-.1 0 0 0-.1v-.1s0 0-.1-.1c.1-.2.1-.2 0-.2z" fill="#fff"/><path d="m36.5 38.1c-.1 0-.1 0-.2.1-.1 0-.1.1-.1.2 0 .1 0 .1.1.2 0 .1.1.1.2.1.1 0 .1 0 .2-.1.1 0 .1-.1.1-.2s0 0 0-.1 0 0 0-.1c-.1-.1-.2-.1-.3-.1z" fill="#fff"/><path d="m35.9 38.7c-.1 0-.1 0 0 0h-.2s0 0-.1.1v.1.1.1s0 0 .1.1h.1.1.1s0 0 0-.1 0 0 0-.1 0 0-.1-.1c.1-.2.1-.2 0-.2z" fill="#fff"/><path d="m36.5 39.3c-.1 0-.1 0 0 0-.1 0-.1 0-.2 0v.1c0 .1 0 .1.1.2h.1.1.1.1v-.1-.1-.1c-.2 0-.2 0-.3 0z" fill="#fff"/><path d="m35.3 39.3c-.1 0-.2.1-.2.2v.1.1.1l.1.1h.1l.1-.1v-.1-.1s0-.1-.1-.1 0 0-.1 0c.2-.2.1-.2.1-.2z" fill="#fff"/><path d="m32 41.5v1.6.2l.1.2c0 .1.1.2.2.2.2.2.4.3.7.4h.2c.2 0 .4-.1.7-.2.2-.2.3-.4.4-.7v-.2-1.6z" fill="#00309a"/><path d="m33.8 42c0 .1-.1.2-.2.2s-.2-.1-.2-.2.1-.2.2-.2.2 0 .2.2z" fill="#00309a"/><path d="m32.6 42c0 .1-.1.2-.2.2s-.2-.1-.2-.2.1-.2.2-.2.2 0 .2.2z" fill="#00309a"/><path d="m33.2 42.6c0 .1-.1.2-.2.2s-.2-.1-.2-.2.1-.2.2-.2c.1-.1.2 0 .2.2z" fill="#00309a"/><path d="m33.8 43.1c0 .1-.1.2-.2.2s-.2-.1-.2-.2.1-.2.2-.2.2.1.2.2z" fill="#00309a"/><path d="m32.6 43.1c0 .1-.1.2-.2.2s-.2-.1-.2-.2.1-.2.2-.2.2.1.2.2z" fill="#00309a"/><path d="m32.5 41.8c-.1 0-.1 0 0 0h-.2s0 0-.1.1v.1.1.1.1s0 0 .1.1h.1.1.1s0 0 0-.1 0 0 0-.1v-.2s0 0-.1-.1c.1-.1.1-.1 0-.1z" fill="#fff"/><path d="m33.6 41.8c-.1 0-.1 0-.2.1-.1 0-.1.1-.1.2 0 .1 0 .1.1.2 0 .1.1.1.2.1.1 0 .1 0 .2-.1.1 0 .1-.1.1-.2s0 0 0-.1 0 0 0-.1c-.2-.1-.2-.1-.3-.1z" fill="#fff"/><path d="m33 42.3h-.2s0 0-.1.1v.1.1.1.1s0 0 .1.1h.2.1s0 0 0-.1 0 0 0-.1v-.1s0 0-.1-.1c.1-.2.1-.2 0-.2z" fill="#fff"/><path d="m33.6 42.9c-.1 0-.1 0 0 0-.1 0-.1 0-.2 0v.1c0 .1 0 .1.1.2h.1.1.1.1v-.1-.1-.1c-.2.1-.2 0-.3 0z" fill="#fff"/><path d="m32.5 42.9c-.1 0-.2.1-.2.2v.1.1.1l.1.1h.1l.1-.1v-.1-.1s0-.1-.1-.1 0 0-.1 0c.1-.2.1-.2.1-.2z" fill="#fff"/><path d="m34.1 32.6-.1-.9c.1 0 .1-.1.1-.1v-.1c.1-.1.1-.1.1-.1v-.1h-2.4v.1s0 .1.1.1v.1l.1.1-.1.8c-.1 0-.1 0-.1.1v.2h.2 2.3s.1 0 .1-.1c0 0 0-.1 0-.2-.2.1-.3.1-.3.1zm0 0s.1 0 0 0c.1.2.1.2.1.2l-.1.1h-2.3c-.1 0-.2 0-.2-.1s-.1-.2 0-.2c0-.1.1-.1.2-.1l.1-.8-.1-.1c0-.1 0-.1 0-.2l-.1-.1c0-.1 0-.1 0-.1h2.4l.1.1c0 .1-.1.1-.1.2l.1.1c0 .1-.1.1-.1.1z"/><path d="m34.1 32.6h-2.3z"/><path d="m34 31.7c0 .1 0 .1 0 0h-2.1 2.1c-.1 0 0 0 0 0z"/><path d="m32.4 32.6c0-.2 0-.4.1-.6s.2-.2.4-.3c.2.1.3.2.4.2.1.2.2.3.2.5 0-.2-.1-.4-.2-.5-.1-.2-.2-.2-.4-.2-.2.1-.3.2-.4.2 0 .3 0 .5-.1.7z"/><path d="m32.7 32.6c0-.2 0-.2 0-.3.1-.1.2-.2.2-.2.1.1.2.2.2.2.1.1.1.2.1.3 0-.2 0-.2-.1-.3 0-.2-.1-.2-.1-.3-.1.1-.2.1-.2.2-.1.1-.1.3-.1.4-.1 0-.1 0 0 0z"/><path d="m32 31.3-.1-.5-.1-.1v-.2h.2v.2h.2v-.2h.2v.2h.2v-.2h.2v.2l-.1.1v.5-.5l.1-.1v-.2h-.2v.2h-.2v-.2h-.2v.2h-.2v-.2h-.2v.2l.1.1.1.5s0 .1 0 0c-.1.1-.1 0 0 0-.1 0-.1 0 0 0z"/><path d="m32.7 31.3-.1-.9h-.1v-.2h.2v.2h.2v-.2h.1v.2h.2v-.2h.2v.2h-.2v.9-.9l.1-.1v-.2h-.1v.2h-.2v-.2h-.2v.2h-.2v-.2h-.2v.2h.1l.2 1s0 .1 0 0c-.1.1-.1 0 0 0-.1 0-.1 0 0 0z"/><path d="m33.5 31.3-.1-.5-.1-.1v-.2h.2v.2h.2v-.2h.2v.2h.2v-.2h.2v.2l-.3.1v.5-.5-.1-.2h-.2v.2h-.2v-.2h-.2v.2h-.2v-.2h-.2v.2l.1.1z"/><path d="m33.5 30.8h.5-.5c0-.1 0 0 0 0z"/><path d="m32.9 30.7.1.2h-.1z"/><path d="m33.7 31 .1.2h-.1z"/><path d="m32.2 31 .1.2h-.1z"/><path d="m33 31.8c.2.1.2.2.3.2.1.2.2.3.2.5h.6l-.1-.7z" fill="#ff0"/><path d="m31.8 32.6c-.1 0-.1 0 0 0-.1.1-.1.1-.1.2v.1h.2 2.2s.1 0 .1-.1v-.1-.1h-.1z" fill="#ff0"/><path d="m33 31.8c-.2.1-.3.2-.4.2-.1.2-.1.3-.2.5h.2c0-.2 0-.2.1-.3s.2-.2.2-.2c.1.1.2.2.2.2.1.1.1.2.1.3h.2c0-.2-.1-.4-.2-.5.1-.1-.1-.1-.2-.2z" fill="#ff0"/><path d="m33 32.1c-.1.1-.2.1-.2.2-.1.1-.1.2-.1.3h.5c0-.2 0-.2-.1-.3 0-.2-.1-.2-.1-.2z" fill="#ff0"/><path d="m31.8 31.6c0 .1 0 .2.1.2h2.1c.1 0 .1-.1.1-.1s0 0 0-.1z" fill="#ff0"/><path d="m31.8 31.4c-.1 0-.1 0 0 0v.2h2.2c.1-.1.1-.1.1-.1s0 0 0-.1z" fill="#ff0"/><path d="m31.9 31.8-.1.8h.6c0-.2.1-.4.2-.5s.2-.2.3-.2z" fill="#ff0"/><path d="m32.2 31 .1.2h-.1zm-.2-.2v.5h.5v-.5z" fill="#ff0"/><path d="m32.5 30.5-.2.1v-.1h-.1v.1h-.2v-.1h-.2v.2l.1.1h.6l.1-.1z" fill="#ff0"/><path d="m33 30.7.1.2h-.1zm-.3-.3v.9h.5v-.9z" fill="#ff0"/><path d="m33.2 30.1-.2.1v-.1.1h-.2v-.1h-.1v.2h.1.5l.1-.1v-.2z" fill="#ff0"/><path d="m33.7 31 .1.2h-.1zm-.2-.2v.5h.5v-.5z" fill="#ff0"/><path d="m33.9 30.5-.2.1v-.1h-.1v.1h-.2v-.1h-.2v.2l.1.1h.7v-.1z" fill="#ff0"/><path d="m40.4 32.6-.1-.8c.1 0 .1-.1.1-.1v-.1c.1-.1.1-.1.1-.1v-.1h-2.4v.1s0 .1.1.1v.1l.1.1-.1.8c-.1 0-.1 0-.1.1v.2h.2 2.3s.1 0 .1-.1c0 0 0-.1 0-.2-.2 0-.3 0-.3 0zm0 0s.1 0 0 0c.1.2.1.2.1.2l-.1.1h-2.3c-.1 0-.2 0-.2-.1s-.1-.2 0-.2c0-.1.1-.1.2-.1l.1-.8-.1-.1c0-.1 0-.1 0-.2l-.1-.1c0-.1 0-.1 0-.1h2.4l.1.1c0 .1-.1.1-.1.2l.1.1c0 .1-.1.1-.1.1z"/><path d="m40.4 32.6h-2.3 2.3c0-.1 0-.1 0 0z"/><path d="m40.4 31.7h-2.1 2.1c-.1-.1-.1-.1 0 0 0-.1 0-.1 0 0z"/><path d="m38.7 32.6c0-.2 0-.4.1-.6s.2-.2.4-.3c.2.1.3.2.4.2.1.2.2.3.2.5 0-.2-.1-.4-.2-.5-.1-.2-.2-.2-.4-.2-.2.1-.3.2-.4.2 0 .2-.1.4-.1.7 0-.1 0 0 0 0z"/><path d="m39 32.6c0-.2 0-.2 0-.3.1-.1.2-.2.2-.2.1.1.2.2.2.2.1.1.1.2.1.3 0-.2 0-.2-.1-.3s-.2-.2-.2-.2c-.1.1-.2.1-.2.2 0-.1 0 .1 0 .3 0-.1 0-.1 0 0z"/><path d="m38.3 31.3-.1-.5-.1-.1v-.2h.2v.2h.2v-.2h.2v.2h.2v-.2h.1v.2l-.1.1v.5-.5l.1-.1v-.2h-.2v.2h-.2v-.2h-.2v.2h-.2v-.2h-.2v.2l.1.1.2.5c-.1 0-.1 0 0 0-.1 0-.1-.1 0 0-.1-.1 0 0 0 0z"/><path d="m38.3 30.7h.5-.5c-.1.1-.1.1 0 0-.1 0-.1 0 0 0-.1 0 0 0 0 0z"/><path d="m39 31.3-.1-1v-.2h.2v.2h.2v-.2h.2v.2h.2v-.2h.2v.2l-.1.1v.9-.9l.1-.1v-.2h-.2v.2h-.2v-.2h-.2v.2h-.2v-.2h-.1v.2 1c0-.1 0-.1 0 0z"/><path d="m39.8 31.2-.1-.5h-.1v-.2h.2v.2h.2v-.2h.2v.2h.2v-.2h.2v.2h-.2v.5-.5l.1-.1v-.2h-.2v.2h-.3v-.2h-.2v.2h-.2v-.2h-.2v.2l.2.1v.5c.2 0 .2.1.2 0-.1.1-.1 0 0 0-.1 0-.1 0 0 0z"/><path d="m39 30.3h.5z"/><path d="m39.2 30.6.1.2h-.1z"/><path d="m40 31 .1.2h-.1z"/><path d="m38.5 31 .1.2h-.1z"/><path d="m39.4 31.7c.2.1.2.2.3.2.1.2.2.3.2.5h.6l-.1-.7z" fill="#ff0"/><path d="m38.1 32.6c-.1.1-.1.1-.1.2v.1h.2 2.2s.1 0 .1-.1v-.1-.1h-.1z" fill="#ff0"/><path d="m39.2 31.7c-.2.1-.3.2-.4.2-.1.2-.1.3-.2.5h.2c0-.2 0-.2.1-.3s.2-.2.2-.2c.1.1.2.2.2.2.1.1.1.2.1.3h.2c0-.2-.1-.4-.2-.5.1 0 0-.1-.2-.2z" fill="#ff0"/><path d="m39.3 32c-.1.1-.2.1-.2.2s-.1.2-.1.3h.5c0-.2 0-.2-.1-.3.1-.1 0-.1-.1-.2z" fill="#ff0"/><path d="m38.1 31.5c0 .1 0 .1 0 0 0 .1 0 .2.1.2h2.1c.1 0 .1-.1.1-.1s0 0 0-.1z" fill="#ff0"/><path d="m38.1 31.3c0 .1 0 .1 0 0v.2h2.2c.1-.1.1-.1.1-.1s0 0 0-.1z" fill="#ff0"/><path d="m38.2 31.7-.1.8h.6c0-.2.1-.4.2-.5s.2-.2.3-.2z" fill="#ff0"/><path d="m38.5 31 .1.2h-.1zm-.2-.2v.5h.5v-.5z" fill="#ff0"/><path d="m38.7 30.5-.2.1v-.1h-.1v.1h-.2v-.1h-.2v.2l.1.1h.6l.1-.1z" fill="#ff0"/><path d="m39.2 30.6.1.2h-.1zm-.2-.2v.9h.5v-.9z" fill="#ff0"/><path d="m39.5 30-.2.1v-.1h-.1v.1h-.2v-.1.2h.1.5l.1-.1v-.2z" fill="#ff0"/><path d="m40 31 .1.2h-.1zm-.2-.3v.5h.5v-.5z" fill="#ff0"/><path d="m40.3 30.4-.2.1v-.1h-.1v.1h-.2v-.1h-.2v.2l.1.1h.6l.1-.1z" fill="#ff0"/><path d="m40.4 39-.1-.8c.1 0 .1-.1.1-.1v-.1c.1-.1.1-.1.1-.1v-.1h-2.4v.1s0 .1.1.1v.1l.1.1-.1.8c-.1 0-.1 0-.1.1v.2h.2 2.3s.1 0 .1-.1c0 0 0-.1 0-.2-.1 0-.2 0-.3 0zm.1 0s.1 0 0 0c.1.2.1.2.1.2 0 .1-.1.1-.1.1h-2.3c-.1 0-.2 0-.2-.1s-.1-.2 0-.2c0-.1.1-.1.2-.1l.1-.8-.1-.1c0-.1 0-.1 0-.2l-.1-.1c0-.1 0-.1 0-.1h2.4l.1.1c0 .1-.1.1-.1.2l.1.1c0 .1-.1.1-.1.1z"/><path d="m40.4 38h-2.3 2.3c0-.1 0 0 0 0z"/><path d="m38.8 39c0-.2 0-.4.1-.6s.2-.2.4-.3c.2.1.3.2.4.2.1.2.2.3.2.5 0-.2-.1-.4-.2-.5-.1-.2-.2-.2-.4-.2-.2.1-.3.2-.4.2 0 .2-.1.5-.1.7z"/><path d="m39 39c0-.2 0-.2 0-.3.1-.1.2-.2.2-.2.1.1.2.2.2.2.1.1.1.2.1.3 0-.2 0-.2-.1-.3s-.2-.2-.2-.2c-.1.1-.2.1-.2.2z"/><path d="m38.4 37.7-.1-.5-.1-.1v-.2h.2v.2h.2v-.2h.2v.2h.2v-.2.2.1.5-.5l.1-.1v-.2h-.2v.2h-.2v-.2h-.2v.2h-.2v-.2h-.2v.2l.1.1.2.5c-.1 0-.1 0 0 0-.1 0 0 0 0 0z"/><path d="m39 37.7v-.9-.1-.2h.2v.2h.2v-.2h.2v.2h.2v-.2h.2v.2l-.1.1v.9-.9l.1-.1v-.2h-.2v.2h-.2v-.2h-.2v.2h-.2v-.2h-.2v.2l.1.1z"/><path d="m39.9 37.7-.1-.5-.1-.1v-.2h.2v.2h.1v-.2h.2v.2h.2v-.2h.2v.2l-.1.1v.5-.5l.1-.1v-.2h-.2v.2h-.2v-.2h-.2v.2h-.2v-.2h-.2v.2l.1.1.2.5c-.1 0-.1 0 0 0-.1 0-.1-.1 0 0 0-.1 0 0 0 0z"/><path d="m39.9 37.2h.5-.5c-.1 0-.1 0 0 0z"/><path d="m39.3 37.1.1.2h-.1z"/><path d="m40.1 37.4.1.2h-.1z"/><path d="m38.5 37.4.1.2h-.1z"/><path d="m39.4 38.1c.2.1.2.2.3.2.1.2.2.3.2.5h.6l-.1-.7z" fill="#ff0"/><path d="m38.2 39c-.1 0-.1 0 0 0-.1.1-.1.1-.1.2v.1h.2 2.2s.1 0 .1-.1v-.1-.1h-.1z" fill="#ff0"/><path d="m39.3 38.2c-.2.1-.3.2-.4.2-.1.2-.1.3-.2.5h.3c0-.2 0-.2.1-.3s.2-.2.2-.2c.1.1.2.2.2.2.1.1.1.2.1.3h.2c0-.2-.1-.4-.2-.5 0-.1-.1-.2-.3-.2z" fill="#ff0"/><path d="m39.3 38.4c-.1.1-.2.1-.2.2-.1 0-.1.2-.1.3h.5c0-.2 0-.2-.1-.3.1-.1.1-.1-.1-.2z" fill="#ff0"/><path d="m38.2 38s0 .1 0 0c0 .1 0 .1 0 0 0 .1 0 .2.1.2h2.1c.1 0 .1-.1.1-.1s0 0 0-.1z" fill="#ff0"/><path d="m38.1 37.7c0 .1 0 .1 0 0v.2h2.2c.1-.1.1-.1.1-.1s0 0 0-.1z" fill="#ff0"/><path d="m38.3 38.1-.1.9h.6c0-.2.1-.4.2-.5s.2-.2.3-.2z" fill="#ff0"/><path d="m38.5 37.4.1.2h-.1zm-.2-.2v.5h.5v-.5z" fill="#ff0"/><path d="m38.8 36.9-.2.1v-.1h-.1v.1h-.2v-.1h-.2v.2l.1.1h.6l.1-.1z" fill="#ff0"/><path d="m39.3 37.1.1.2h-.1zm-.3-.3v.9h.5v-.9z" fill="#ff0"/><path d="m39.5 36.4-.2.1v-.1h-.1v.1h-.2v-.1.2h.1.5l.1-.1v-.2z" fill="#ff0"/><path d="m40.1 37.4.1.2h-.1zm-.2-.2v.5h.5v-.5z" fill="#ff0"/><path d="m40.4 36.9-.2.1v-.1h-.1v.1h-.2v-.1h-.2v.2l.1.1h.6l.1-.1z" fill="#ff0"/><path d="m27.8 32.6-.1-.8c.1 0 .1-.1.1-.1v-.1c.1-.1.1-.1.1-.1v-.1h-2.4v.1s0 .1.1.1v.1l.1.1-.1.8c-.1 0-.1 0-.1.1v.2h.2 2.3s.1 0 .1-.1c0 0 0-.1 0-.2-.2 0-.3 0-.3 0zm0 0s.1 0 0 0c.1.2.1.2.1.2 0 .1-.1.1-.1.1h-2.3c-.1 0-.2 0-.2-.1s-.1-.2 0-.2c0-.1.1-.1.2-.1l.1-.8-.1-.1c0-.1 0-.1 0-.2l-.1-.1c0-.1 0-.1 0-.1h2.4l.1.1c0 .1-.1.1-.1.2l.1.1c0 .1-.1.1-.1.1z"/><path d="m27.7 31.6h-2.3z"/><path d="m26.1 32.6c0-.2 0-.4.1-.6s.2-.2.4-.3c.2.1.3.2.4.2.1.2.2.3.2.5 0-.2-.1-.4-.2-.5-.1-.2-.2-.2-.4-.2-.2.1-.3.2-.4.2-.1.3-.1.6-.1.7z"/><path d="m26.3 32.6c0-.2 0-.2 0-.3.1-.1.2-.2.2-.2.1.1.2.2.2.2.1.1.1.2.1.3 0-.2 0-.2-.1-.3s-.2-.2-.2-.2c-.1.1-.2.1-.2.2.1.1.1.2 0 .3z"/><path d="m25.7 31.4-.1-.5-.1-.1v-.2h.2v.2h.2v-.2h.1v.2h.2v-.2h.2v.2l-.1.1v.5-.5l.1-.1v-.2h-.2v.2h-.2v-.2h-.2v.2h-.2v-.2h-.2v.2l.1.1.2.5c-.1 0-.1 0 0 0z"/><path d="m25.7 30.9h.5-.5c-.1 0-.1 0 0 0-.1 0-.1-.1 0 0 0-.1 0 0 0 0z"/><path d="m26.4 31.4-.1-.9-.1-.1h-.1v-.2h.2v.2h.2v-.2h.2v.2h.2v-.2h.1v.2l-.1.1v.9-.9l.1-.1v-.2h-.2v.2h-.2v-.2h-.2v.2h-.2v-.2h-.2v.2h.1l.1.1.2.9c-.1 0-.1 0 0 0-.1 0 0 0 0 0z"/><path d="m27.1 31.4-.1-.5v-.1-.2h.2v.2h.2v-.2h.2v.2h.2v-.2h.2v.2l-.1.1v.5-.5l.1-.1v-.2h-.2v.2h-.2v-.2h-.2v.2h-.2v-.2h-.2v.2l.1.1v.5c0-.1 0-.1 0 0z"/><path d="m27.1 30.8h.5z"/><path d="m26.4 30.5h.5-.5c-.1 0-.1 0 0 0-.1-.1-.1-.1 0 0-.1-.1 0-.1 0 0z"/><path d="m26.6 30.7.1.2h-.1z"/><path d="m27.4 31.1.1.2h-.1z"/><path d="m25.8 31.1.1.2h-.1z"/><path d="m26.7 31.8c.2.1.2.2.3.2.1.2.2.3.2.5h.6l-.1-.7z" fill="#ff0"/><path d="m25.5 32.6c-.1 0-.1 0 0 0-.1.1-.1.1-.1.2v.1h.2 2.2s.1 0 .1-.1v-.1-.1h-.1z" fill="#ff0"/><path d="m26.6 31.8c-.2.1-.3.2-.4.2-.1.2-.1.3-.2.5h.2c0-.2 0-.2.1-.3s.2-.2.2-.2c.1.1.2.2.2.2.1.1.1.2.1.3h.2c0-.2-.1-.4-.2-.5.1 0 0-.1-.2-.2z" fill="#ff0"/><path d="m26.6 32.1c-.1.1-.2.1-.2.2-.1.1-.1.2-.1.3h.5c0-.2 0-.2-.1-.3.1-.1 0-.2-.1-.2z" fill="#ff0"/><path d="m25.5 31.6c0 .1 0 .1 0 0 0 .1 0 .2.1.2h2.1c.1 0 .1-.1.1-.1s0 0 0-.1z" fill="#ff0"/><path d="m25.4 31.4c0 .1 0 .1 0 0v.2h2.2c.1-.1.1-.1.1-.1s0 0 0-.1z" fill="#ff0"/><path d="m25.6 31.8-.1.8h.6c0-.2.1-.4.2-.5s.2-.2.3-.2z" fill="#ff0"/><path d="m25.9 31.1.1.2h-.1zm-.2-.2v.5h.5v-.5z" fill="#ff0"/><path d="m26.1 30.6-.2.1v-.1h-.1v.1h-.2v-.1h-.2v.2l.1.1h.6l.1-.1z" fill="#ff0"/><path d="m26.6 30.7.1.2h-.1zm-.2-.2v.9h.5v-.9z" fill="#ff0"/><path d="m26.9 30.1-.2.1v-.1h-.1v.1h-.2v-.1h-.1v.2h.1.6l.1-.1v-.2z" fill="#ff0"/><path d="m27.4 31.1.1.2h-.1zm-.3-.2v.5h.5v-.5z" fill="#ff0"/><path d="m27.6 30.5-.2.1v-.1h-.1v.1h-.2v-.1h-.2v.2l.1.1h.6l.1-.1z" fill="#ff0"/><path d="m27.7 39-.1-.8c.1 0 .1-.1.1-.1v-.1c.1-.1.1-.1.1-.1v-.1h-2.4v.2s0 .1.1.1v.1l.1.1-.1.7c-.1 0-.1 0-.1.1v.2h.2 2.3s.1 0 .1-.1c0 0 0-.1 0-.2-.1.1-.2.1-.3 0 .1.1 0 .1 0 0m.1 0s.1 0 0 0c.1.2.1.2.1.2l-.1.1h-2.3c-.1 0-.2 0-.2-.1s-.1-.2 0-.2c0-.1.1-.1.2-.1l.1-.8-.1-.1c0-.1 0-.1 0-.2l-.1-.1c0-.1 0-.1 0-.1h2.4l.1.1c0 .1-.1.1-.1.2l.1.1c0 .1-.1.1-.1.1z"/><path d="m27.8 39s0 .1 0 0c0 .1 0 .1 0 0h-2.3 2.3c-.1 0-.1 0 0 0z"/><path d="m27.7 38.2s0 .1 0 0c0 .1 0 .1 0 0h-2.1 2.1c-.1 0-.1 0 0 0z"/><path d="m26.1 39c0-.2 0-.4.1-.6s.2-.2.4-.3c.2.1.3.2.4.2.1.2.2.3.2.5 0-.2-.1-.4-.2-.5-.1-.2-.2-.2-.4-.2-.2.1-.3.2-.4.2-.1.4-.1.6-.1.7 0 .1 0 .1 0 0z"/><path d="m26.3 39c0-.2 0-.2 0-.3.1-.1.2-.2.2-.2.1.1.2.2.2.2.1.1.1.2.1.3 0-.2 0-.2-.1-.3s-.2-.2-.2-.2c-.1.1-.2.1-.2.2v.3s0 .1 0 0z"/><path d="m25.7 37.8-.1-.5h-.1v-.2h.2v.2h.2v-.2h.1v.2h.2v-.2h.2v.2h-.2v.5-.5l.1-.1v-.2h-.2v.2h-.2v-.2h-.2v.2h-.2v-.2h-.2v.2l.1.1.3.5c0 .1-.1.1 0 0-.1.1-.1.1 0 0-.1 0-.1 0 0 0-.1 0 0 0 0 0z"/><path d="m25.7 37.3h.5-.5c-.1.1-.1 0 0 0-.1 0-.1 0 0 0-.1 0 0 0 0 0z"/><path d="m26.4 37.8-.1-.9-.1-.1v-.2h.2v.2h.2v-.2h.2v.2h.2v-.2h.2v.2l-.2.1v.9-.9l.1-.1v-.2h-.2v.2h-.2v-.2h-.2v.2h-.2v-.2h-.2v.2l.1.1.2.9c0 .1-.1.1 0 0-.1.1-.1.1 0 0-.1 0-.1 0 0 0-.1 0 0 0 0 0z"/><path d="m27.1 37.8-.1-.5v-.1-.2h.2v.2h.2v-.2h.2v.2h.2v-.2h.2v.2l-.2.1v.5-.5l.1-.1v-.2h-.2v.2h-.2v-.2h-.2v.2h-.2v-.2h-.2v.2l.1.1z"/><path d="m26.6 37.2.1.2h-.1z"/><path d="m27.4 37.5.1.2h-.1z"/><path d="m25.8 37.5.1.2h-.1z"/><path d="m26.7 38.3c.2.1.2.2.3.2.1.2.2.3.2.5h.6l-.1-.7z" fill="#ff0"/><path d="m25.5 39.1c-.1 0-.1 0 0 0-.1.1-.1.1-.1.2v.1h.2 2.2s.1 0 .1-.1v-.1-.1h-.1z" fill="#ff0"/><path d="m26.6 38.3c-.2.1-.3.2-.4.2-.1.2-.1.3-.2.5h.2c0-.2 0-.2.1-.3s.2-.2.2-.2c.1.1.2.2.2.2.1.1.1.2.1.3h.2c0-.2-.1-.4-.2-.5.1 0-.1-.1-.2-.2z" fill="#ff0"/><path d="m26.6 38.5c-.1.1-.2.1-.2.2-.1.1-.1.2-.1.3h.5c0-.2 0-.2-.1-.3.1-.1 0-.2-.1-.2z" fill="#ff0"/><path d="m25.5 38.1c0 .1 0 .2.1.2h2.1c.1 0 .1-.1.1-.1s0 0 0-.1z" fill="#ff0"/><path d="m25.4 37.9s0 .1 0 0v.2h2.2c.1-.1.1-.1.1-.1s0 0 0-.1z" fill="#ff0"/><path d="m25.6 38.3-.1.8h.6c0-.2.1-.4.2-.5s.2-.2.3-.2z" fill="#ff0"/><path d="m25.8 37.5.1.2h-.1zm-.1-.1v.5h.5v-.5z" fill="#ff0"/><path d="m26.1 37-.2.1v-.1h-.1v.1h-.2v-.1h-.2v.2l.1.1h.6l.1-.1z" fill="#ff0"/><path d="m26.6 37.2.1.2h-.1zm-.3-.3v.9h.5v-.9z" fill="#ff0"/><path d="m26.9 36.6-.2.1v-.1h-.1v.1h-.2v-.1h-.1v.2h.1.6l.1-.1v-.2z" fill="#ff0"/><path d="m27.4 37.5.1.2h-.1zm-.3-.2v.5h.5v-.5z" fill="#ff0"/><path d="m27.6 37-.2.1v-.1h-.1v.1h-.2v-.1h-.2v.2l.1.1h.6l.1-.1z" fill="#ff0"/><path d="m29.8 44.6-.7-.5c0-.1 0-.1 0-.1s0 0-.1 0c0-.1 0-.1 0-.2 0 0 0 0-.1 0l-1.6 1.6v.1h.1c0 .1 0 .1.1.1h.1.1l.5.7v.1l.1.1s.1 0 .1-.1l1.6-1.6-.2-.2c0-.1 0-.1 0 0zm0-.1c.1 0 .1 0 0 0 .2-.1.2 0 .2 0v.1l-1.6 1.6s-.1.1-.2.1c-.1 0-.1-.1-.2-.1 0-.1 0-.1 0-.2l-.5-.7h-.1-.1c0 .1 0 .1 0 0-.1 0-.1 0-.2 0l-.1-.1 1.6-1.6s.1 0 .1.1v.2s.1 0 .1.1v.2z"/><path d="m29.8 44.5-1.6 1.6z"/><path d="m29.1 43.9-1.6 1.6 1.6-1.6c-.1 0-.1 0 0 0z"/><path d="m29.2 44.1-1.5 1.6 1.5-1.6c-.1 0 0 0 0 0z"/><path d="m28.6 45.8c-.2-.2-.2-.3-.3-.5 0-.2 0-.3.1-.5.2-.1.2-.1.4-.1h.1c.2 0 .3.2.5.2-.2-.1-.3-.2-.5-.2h-.1c-.2 0-.2.1-.4.1-.1.2-.1.3-.1.5.1.1.2.3.3.5z"/><path d="m28.8 45.6c-.2-.1-.2-.2-.2-.2 0-.1 0-.2 0-.3h.2.2s.2.1.3.2c-.1-.1-.2-.2-.2-.2h-.1c-.1 0-.2 0-.2 0 0 .1-.1.2 0 .3-.2 0-.1 0 0 .2 0-.1 0 0 0 0z"/><path d="m27.5 45.2c0 .1 0 .1 0 0-.1.1-.1.1 0 0l-.4-.3h-.2l-.2-.2.1-.1.1.1.1-.1-.1-.1.1-.1.1.1.1-.1-.1-.1.1-.1.2.2v.1l.3.3-.2-.3v-.1l-.2-.2-.1.1.1.1-.1.1-.1-.1-.1.1.1.1-.1.1-.1-.1-.2.1.2.2h.2l.4.3c-.1 0-.1 0 0 0z"/><path d="m27.1 44.9.3-.4z"/><path d="m28 44.7-.7-.7h-.1l-.2-.2.1-.1.1.1.1-.1-.1-.1.1-.1.1.1.1-.1-.1-.1.1-.1.2.2v.2l.7.7-.7-.7v-.2-.3l-.1.1.1.1-.1.1-.1-.1-.1.1.1.1-.2.2-.1-.1-.2.2.2.2h.1l.7.6c-.1 0 0 0 0 0z"/><path d="m28.4 44.1-.4-.3h-.2l-.2-.2.1-.1.1.1.1-.1-.1-.1.1-.1.1.1.1-.1h-.1l.2-.2.2.2v.1l.3.3-.3-.3v-.1l-.2-.1-.1.1.1.1-.1.1-.1-.1.1.1-.1.1v-.1l-.1.1.2.2h.2z"/><path d="m28.1 43.8.3-.4-.3.4c-.1 0-.1 0 0 0-.1 0 0 0 0 0z"/><path d="m27.3 44.1.3-.4-.3.4c-.1 0-.1 0 0 0-.1 0 0 0 0 0z"/><path d="m27.6 44.1.2.1-.1.1z"/><path d="m28.4 43.7.2.1z"/><path d="m27.4 44.8.2.1z"/><path d="m28.5 44.8c.2-.1.3-.1.4-.1.2 0 .3.2.5.2l.4-.4-.6-.5z" fill="#ff0"/><path d="m28.2 46.2c0 .1 0 .1 0 0v.2h.1s.1 0 .1-.1l1.6-1.6v-.1s0 0 0-.1c0 0 0 0-.1 0h-.1z" fill="#ff0"/><path d="m28.4 44.9c-.1.2-.1.3-.1.5s.2.3.2.4l.2-.2c-.1-.1-.2-.2-.2-.3s0-.3-.1-.4c.2.1.3.1.4.1s.2.1.3.2l.2-.2c-.2-.1-.3-.2-.5-.2 0-.1-.2 0-.4.1z" fill="#ff0"/><path d="m28.6 45v.2c0 .1.1.2.2.2l.4-.4c-.1 0-.2 0-.3 0s-.2 0-.3 0z" fill="#ff0"/><path d="m27.5 45.4c0 .1 0 .1 0 0 .1.1.1.1.2.1l1.5-1.5c0-.1 0-.1 0-.1s0 0-.1 0z" fill="#ff0"/><path d="m27.3 45.4c.1 0 .1 0 0 0 .1.1.1.1.2.1l1.6-1.6c0-.1 0-.1 0-.2s0 0-.1 0z" fill="#ff0"/><path d="m27.7 45.5.5.6.4-.4c-.1-.2-.2-.3-.2-.5s0-.2.1-.4z" fill="#ff0"/><path d="m27.4 44.8.2.1zm-.3.1.3.3.3-.3-.2-.3z" fill="#ff0"/><path d="m27.2 44.3v.2-.2l-.2.2.1.1-.1.1-.1-.1-.1.1.2.2h.1l.4-.4v-.1z" fill="#ff0"/><path d="m27.6 44.1.2.2-.1.1zm-.3 0 .7.7.3-.3-.7-.7z" fill="#ff0"/><path d="m27.4 43.4v.2-.2l-.2.2.1.1-.2.2-.1-.1v.1l.2.2h.1l.4-.4v-.2z" fill="#ff0"/><path d="m28.4 43.7.2.1zm-.3.1.3.3.3-.3-.3-.3z" fill="#ff0"/><path d="m28.2 43.2v.2-.2l-.2.2.1.1-.1.1v-.1l-.1.1.2.2h.1l.4-.4v-.1z" fill="#ff0"/><path d="m37.8 46.1.5-.7h.1.1s0 0 0-.1h.1s.1 0 .1 0 0 0 0-.1l-1.7-1.6h-.1v.1s-.1 0-.1.1v.1l-.7.5h-.1v.1s0 .1.1.1l1.7 1.5c-.1 0-.1 0 0 0 .1.1.1.1 0 0zm.1 0c.1.2 0 .2 0 .2h-.1l-1.6-1.6s-.1-.1-.1-.2.1-.1.1-.2h.1l.7-.5c0-.1 0-.1 0-.2s.1-.1.1-.1c0-.1 0-.1 0-.2l.1-.1 1.6 1.6s0 .1-.1.1h-.1s0 0-.1 0 0 .1-.1.1h-.1-.1z"/><path d="m37.9 46.1c-.1 0-.1 0 0 0l-1.6-1.6 1.6 1.6c-.1 0-.1 0 0 0z"/><path d="m38.5 45.4-1.6-1.6z"/><path d="m38.4 45.4c0 .1 0 .1 0 0l-1.6-1.4 1.6 1.4c-.1 0 0 0 0 0z"/><path d="m36.7 44.9c.1-.2.2-.2.4-.3h.1c.2 0 .2.1.4.1.1.2.2.3.1.5 0 .2-.2.3-.2.5.1-.2.2-.3.2-.5s0-.3-.1-.5c-.2-.1-.2-.1-.4-.1h-.1c-.1.1-.3.2-.4.3 0 .1 0 .1 0 0-.1.1-.1.1 0 0-.1 0 0 0 0 0z"/><path d="m36.8 45.1c.1-.1.2-.2.2-.2h.1.2c0 .1.1.2 0 .3 0 .1-.1.2-.2.3.1-.1.2-.2.2-.2 0-.1 0-.2 0-.3-.1 0-.2 0-.2 0h-.1c.1 0-.1 0-.2.1 0-.1 0 0 0 0z"/><path d="m37.2 43.7.3-.4v-.2l.2-.2.1.1-.1.1.1.1.1-.1.1.1-.1.1.1.1.1-.1.1.1-.2.2h-.1l-.3.3.3-.3h.1l.2-.2v.1l-.1.1-.1-.1.1-.1-.1-.1-.1.1-.1-.1.1-.1-.2-.2-.2.2v.2z"/><path d="m37.6 43.4.4.3-.4-.3c-.1 0-.1 0 0 0-.1-.1 0-.1 0 0 0-.1 0-.1 0 0z"/><path d="m37.7 44.2.7-.7v-.1-.1l.2-.2.1.1-.1.1.1.1.1-.1.1.1-.1.1.1.1.1-.1.1.1-.2.2h-.2l-.5.8.7-.7h.1l.2-.2-.2-.1-.1.1-.1-.1.1-.1-.1-.1-.1.1-.1-.1.1-.1-.1-.1-.2.2v.1.1l-.7.6c0 .1 0 .1 0 0-.1 0 0 0 0 0z"/><path d="m38.3 44.8.3-.4v-.2l.2-.2.1.1-.1.1.1.1.1-.1.1.1-.1.1.1.1.1-.1.1.1-.3.1-.4.4.3-.3h.1l.2-.2-.1-.1-.1.1.1-.1-.1-.1-.1.1-.1-.1.1-.1-.1-.1-.2.2v.2l-.3.3c-.1 0-.1 0 0 0-.1-.1-.1-.1 0 0 0-.1 0-.1 0 0z"/><path d="m38.6 44.4.4.3z"/><path d="m38.4 43.6.4.3-.4-.3c-.1 0-.1 0 0 0-.1 0 0 0 0 0z"/><path d="m38.3 43.9-.1.2-.1-.1z"/><path d="m38.6 44.7-.1.2z"/><path d="m37.6 43.6-.1.2z"/><path d="m37.6 44.8c.1.2.1.2.1.4s-.2.3-.2.5l.4.4.5-.6z" fill="#ff0"/><path d="m36.2 44.5c-.1 0-.1 0 0 0-.1 0-.1 0-.2 0v.1s0 .1.1.1l1.6 1.6h.1.1s0 0 0-.1v-.1z" fill="#ff0"/><path d="m37.6 44.7c-.2-.1-.3-.1-.5-.1s-.3.2-.4.2l.2.2c.1-.1.2-.2.3-.2 0 0 .2 0 .4-.1-.1.2-.1.3-.1.4s-.1.2-.2.3l.2.2c.1-.2.2-.3.2-.5 0-.1-.1-.2-.1-.4z" fill="#ff0"/><path d="m37.4 44.9c-.1 0-.2 0-.2 0-.1 0-.2.1-.2.2l.4.4c.1-.1.2-.2.2-.2s-.2-.3-.2-.4z" fill="#ff0"/><path d="m36.9 43.8s0 .1 0 0c-.1.1-.1.1-.1.2l1.5 1.5h.1s0 0 0-.1z" fill="#ff0"/><path d="m37.1 43.6c-.1 0-.1 0 0 0-.1.1-.1.1-.1.2l1.6 1.6h.2s0 0 0-.1z" fill="#ff0"/><path d="m36.8 44-.6.5.4.4c.2-.1.3-.2.5-.2s.2 0 .4.1z" fill="#ff0"/><path d="m37.6 43.6-.1.2zm0-.2-.3.3.3.3.3-.3z" fill="#ff0"/><path d="m38.1 43.5-.1-.2-.1.1-.1-.1.1-.1-.2-.2-.2.2v.1l.4.4h.1z" fill="#ff0"/><path d="m38.4 44-.2.2-.1-.2zm0-.4-.7.7.3.3.7-.7z" fill="#ff0"/><path d="m39 43.7h-.2.2l-.2-.2-.1.1-.1-.1.1-.1-.1-.1-.2.2v.1l.4.4h.2z" fill="#ff0"/><path d="m38.6 44.7-.1.2zm0-.2-.3.3.3.3.3-.3z" fill="#ff0"/><path d="m39.2 44.5h-.2l.1-.1-.1-.1-.1.1-.1-.1.1-.1-.1-.1-.2.2v.1l.4.4h.1z" fill="#ff0"/><path d="m39 77.5c-21.2 0-38.5-17.3-38.5-38.5s17.3-38.5 38.5-38.5 38.5 17.3 38.5 38.5-17.3 38.5-38.5 38.5zm0-75c-20.1 0-36.5 16.4-36.5 36.5s16.4 36.5 36.5 36.5 36.5-16.4 36.5-36.5-16.4-36.5-36.5-36.5z" fill="#231f20"/></svg>