<svg enable-background="new 0 0 142.6 143.2" viewBox="0 0 142.6 143.2" xmlns="http://www.w3.org/2000/svg"><circle cx="71.3" cy="71.6" fill="#009fe3" r="65.7"/><path d="m71.3 139.3c-37.3 0-67.7-30.4-67.7-67.7 0-37.3 30.4-67.7 67.7-67.7s67.7 30.4 67.7 67.7-30.4 67.7-67.7 67.7zm0-131.4c-35.1 0-63.7 28.6-63.7 63.7s28.6 63.7 63.7 63.7 63.7-28.6 63.7-63.7-28.6-63.7-63.7-63.7z" fill="#009fe3"/><g fill="#fff"><path d="m97.4 58.2c-.9 0-1.6.7-1.6 1.6v37.8h-52.5v-37.8c0-.9-.7-1.6-1.6-1.6s-1.6.7-1.6 1.6v39.4c0 .9.7 1.6 1.6 1.6h55.7c.9 0 1.6-.7 1.6-1.6v-39.4c0-.9-.7-1.6-1.6-1.6z"/><path d="m97.4 101.3h-55.7c-1.2 0-2.1-.9-2.1-2.1v-39.4c0-1.2.9-2.1 2.1-2.1s2.1.9 2.1 2.1v37.3h51.5v-37.3c0-1.2.9-2.1 2.1-2.1s2.1.9 2.1 2.1v39.4c0 1.2-.9 2.1-2.1 2.1zm-55.7-42.6c-.6 0-1.1.5-1.1 1.1v39.4c0 .6.5 1.1 1.1 1.1h55.7c.6 0 1.1-.5 1.1-1.1v-39.4c0-.6-.5-1.1-1.1-1.1s-1.1.5-1.1 1.1v38.3h-53.5v-38.3c0-.6-.5-1.1-1.1-1.1z"/><path d="m69.3 42.5c-.9 0-1.6.7-1.6 1.6v23.5l-14-14c-.3-.3-.7-.5-1.1-.5s-.8.2-1.1.5c-.6.6-.6 1.6 0 2.2l16.7 16.7c.3.3.7.5 1.1.5s.8-.2 1.1-.5l16.7-16.7c.6-.6.6-1.6 0-2.2s-1.6-.6-2.2 0l-14 14v-23.6c0-.8-.7-1.5-1.6-1.5z"/><path d="m69.3 73.5c-.5 0-1-.2-1.5-.6l-16.7-16.7c-.4-.4-.6-.9-.6-1.5s.2-1.1.6-1.5c.8-.8 2.1-.8 2.9 0l13.1 13.1v-22.2c0-1.2.9-2.1 2.1-2.1s2.1.9 2.1 2v22.4l13.1-13.1c.8-.8 2.1-.8 2.9 0 .4.4.6.9.6 1.5s-.2 1.1-.6 1.5l-16.5 16.6c-.5.4-1 .6-1.5.6zm-16.7-19.9c-.2 0-.5.1-.7.4-.2.2-.3.5-.3.7s.1.6.3.7l16.7 16.7c.4.4 1.1.4 1.5 0l16.7-16.7c.2-.2.3-.5.3-.7s-.1-.6-.3-.7c-.4-.4-1.1-.4-1.5 0l-14.9 14.8v-24.8c0-.5-.5-1-1.1-1s-1.1.5-1.1 1.1v24.7l-14.9-14.8c-.2-.3-.5-.4-.7-.4z"/></g></svg>