<svg enable-background="new 0 0 567.4 134.9" viewBox="0 0 567.4 134.9" xmlns="http://www.w3.org/2000/svg"><path d="m499.3 133h-431.5c-36.1 0-65.7-29.6-65.7-65.7 0-36.1 29.6-65.7 65.7-65.7h431.5c36.1 0 65.7 29.6 65.7 65.7 0 36.2-29.6 65.7-65.7 65.7z" fill="#009fe3"/><g enable-background="new" fill="#fff"><path d="m138.7 53.2-8.1 24.5h-4.8l-6.1-18.1-6.2 18.1h-4.9l-8.1-24.5h4.7l6.1 18.6 6.3-18.6h4.2l6.2 18.7 6.3-18.7z"/><path d="m161.4 59-8.8 20.2c-1.7 4.2-4.1 5.5-7.2 5.5-1.9 0-3.8-.6-5-1.7l1.8-3.2c.8.8 2 1.3 3.2 1.3 1.5 0 2.5-.7 3.3-2.6l.3-.7-8.2-18.8h4.6l5.9 13.8 5.9-13.8z"/><path d="m184.1 59v15.9c0 6.8-3.5 9.9-10.1 9.9-3.5 0-7-.9-9.1-2.7l2-3.3c1.6 1.4 4.3 2.2 6.9 2.2 4.1 0 6-1.9 6-5.7v-1c-1.5 1.7-3.7 2.5-6.3 2.5-5.4 0-9.5-3.6-9.5-9.1 0-5.4 4.1-9 9.5-9 2.6 0 4.9.8 6.5 2.7v-2.4zm-4.3 8.8c0-3.2-2.4-5.3-5.7-5.3s-5.7 2.1-5.7 5.3 2.4 5.4 5.7 5.4c3.3-.1 5.7-2.2 5.7-5.4z"/><path d="m209.4 69.8h-14.7c.5 2.7 2.8 4.5 6.1 4.5 2.1 0 3.7-.7 5.1-2l2.3 2.7c-1.7 2-4.3 3-7.5 3-6.3 0-10.3-4-10.3-9.6s4.1-9.6 9.7-9.6c5.5 0 9.5 3.8 9.5 9.7-.2.3-.2.8-.2 1.3zm-14.7-3h10.6c-.3-2.7-2.4-4.5-5.3-4.5s-4.9 1.8-5.3 4.5z"/><path d="m234 67v10.7h-4.4v-10.2c0-3.3-1.6-4.9-4.4-4.9-3.1 0-5.2 1.9-5.2 5.6v9.5h-4.4v-18.7h4.2v2.4c1.4-1.7 3.7-2.6 6.4-2.6 4.5 0 7.8 2.6 7.8 8.2z"/><path d="m259.3 69.8h-14.7c.5 2.7 2.8 4.5 6.1 4.5 2.1 0 3.7-.7 5.1-2l2.3 2.7c-1.7 2-4.3 3-7.5 3-6.3 0-10.3-4-10.3-9.6s4.1-9.6 9.7-9.6c5.5 0 9.5 3.8 9.5 9.7-.2.3-.2.8-.2 1.3zm-14.7-3h10.6c-.4-2.7-2.4-4.5-5.3-4.5s-4.9 1.8-5.3 4.5z"/><path d="m276.3 58.8v4.2c-.4-.1-.7-.1-1-.1-3.3 0-5.4 2-5.4 5.8v9.1h-4.4v-18.8h4.2v2.7c1.3-1.9 3.5-2.9 6.6-2.9z"/><path d="m300.3 59v18.7h-4.2v-2.4c-1.4 1.7-3.6 2.6-6 2.6-4.8 0-8.1-2.6-8.1-8.3v-10.6h4.4v10.1c0 3.4 1.6 5 4.4 5 3 0 5.1-1.9 5.1-5.6v-9.5z"/><path d="m301.9 83.7 1.3-3.3c.7.5 1.6.7 2.6.7 1.6 0 2.5-1 2.5-3v-19.1h4.4v19c0 4.1-2.3 6.7-6.5 6.7-1.7 0-3.3-.3-4.3-1zm5.7-30.4c0-1.5 1.2-2.6 2.8-2.6s2.8 1.1 2.8 2.5c0 1.5-1.2 2.7-2.8 2.7s-2.8-1.1-2.8-2.6z"/><path d="m339.7 69.7-3.3 3.1v4.9h-4.4v-26h4.4v15.7l9.1-8.4h5.3l-7.8 7.8 8.5 10.9h-5.3z"/><path d="m371.6 66.7v11h-4.1v-2.3c-1.1 1.6-3.1 2.5-5.9 2.5-4.3 0-7-2.3-7-5.6 0-3.1 2.1-5.6 7.8-5.6h4.8v-.3c0-2.6-1.5-4.1-4.7-4.1-2.1 0-4.3.7-5.7 1.9l-1.7-3.2c2-1.5 4.9-2.3 7.9-2.3 5.5.1 8.6 2.7 8.6 8zm-4.4 5.2v-2.2h-4.5c-3 0-3.8 1.1-3.8 2.5 0 1.6 1.3 2.6 3.6 2.6 2.1 0 4-1 4.7-2.9z"/><path d="m390 58.8v4.2c-.4-.1-.7-.1-1-.1-3.3 0-5.4 2-5.4 5.8v9.1h-4.4v-18.8h4.2v2.7c1.2-1.9 3.5-2.9 6.6-2.9z"/><path d="m407.6 76.7c-1 .8-2.6 1.3-4.2 1.3-4.1 0-6.4-2.2-6.4-6.3v-9h-3.1v-3.5h3.1v-4.3h4.4v4.3h5v3.5h-5v8.9c0 1.8.9 2.8 2.6 2.8.9 0 1.8-.2 2.5-.8z"/><path d="m420.9 69.7-3.3 3.1v4.9h-4.4v-26h4.4v15.7l9.1-8.4h5.3l-7.8 7.8 8.5 10.9h-5.3z"/><path d="m454.2 69.8h-14.7c.5 2.7 2.8 4.5 6.1 4.5 2.1 0 3.7-.7 5.1-2l2.3 2.7c-.4.5-.8.9-1.4 1.3-3.1 2.4-3.9 4-3.9 5.3 0 1.2.8 1.9 2.1 1.9.7 0 1.6-.2 2.1-.6l.7 2.1c-.9.5-2.1.8-3.4.8-2.8 0-4.5-1.5-4.5-3.9 0-1.3.5-2.7 1.6-3.9-.3 0-.6 0-.9 0-6.3 0-10.3-4-10.3-9.6s4.1-9.6 9.7-9.6c5.5 0 9.5 3.8 9.5 9.7 0 .3-.1.8-.1 1.3zm-14.7-3h10.6c-.3-2.7-2.4-4.5-5.3-4.5-2.8 0-4.9 1.8-5.3 4.5z"/></g></svg>