<svg enable-background="new 0 0 52 52" viewBox="0 0 52 52" xmlns="http://www.w3.org/2000/svg"><circle cx="26" cy="26" fill="#009640" r="25"/><g fill="#fff"><path d="m20.4 35c.2.2.4.3.7.3.2 0 .5-.1.7-.3l18.4-18.4c.4-.4.4-.9 0-1.3s-.9-.4-1.3 0l-17.8 17.8-8.6-8.6c-.4-.4-.9-.4-1.3 0s-.4.9 0 1.3z"/><path d="m21.1 35.8c-.4 0-.7-.1-1.1-.4l-9.2-9.2c-.3-.3-.4-.6-.4-1s.2-.7.4-1c.6-.6 1.4-.6 2 0l8.2 8.2 17.4-17.4c.6-.6 1.4-.6 2 0s.6 1.4 0 2l-18.2 18.4c-.4.3-.8.4-1.1.4zm-.3-1.2c.1.1.2.2.3.2s.2-.1.3-.2l18.4-18.4c.2-.2.2-.4 0-.6-.1-.1-.5-.1-.6 0l-18.1 18.2-9-9c-.1-.1-.5-.1-.6 0s-.2.2-.2.3.1.2.2.3z"/></g></svg>