<svg enable-background="new 0 0 203.5 203" viewBox="0 0 203.5 203" xmlns="http://www.w3.org/2000/svg"><circle cx="101.7" cy="101.5" fill="#be1622" r="99.4"/><path d="m132.3 80.8c10 0 18.2-8.1 18.2-18.2s-8.1-18.2-18.2-18.2c-10 0-18.2 8.1-18.2 18.2 0 1.9.3 3.7.8 5.4l-36.1 21.7c-3.3-4.5-8.6-7.4-14.6-7.4-10 0-18.2 8.1-18.2 18.2s8.1 18.2 18.2 18.2c6 0 11.3-2.9 14.6-7.4l36.2 21.7c-.5 1.7-.8 3.5-.8 5.4 0 10 8.1 18.2 18.2 18.2 10 0 18.2-8.1 18.2-18.2 0-10-8.1-18.2-18.2-18.2-6 0-11.3 2.9-14.6 7.4l-36.2-21.7c.5-1.7.8-3.5.8-5.4s-.3-3.7-.8-5.4l36.2-21.7c3.3 4.5 8.6 7.4 14.5 7.4zm0 45.4c6.7 0 12.1 5.4 12.1 12.1s-5.4 12.1-12.1 12.1-12.1-5.4-12.1-12.1 5.5-12.1 12.1-12.1zm-68.1-13.6c-6.7 0-12.1-5.4-12.1-12.1s5.4-12.1 12.1-12.1 12.1 5.4 12.1 12.1-5.4 12.1-12.1 12.1zm68.1-62c6.7 0 12.1 5.4 12.1 12.1s-5.4 12.1-12.1 12.1-12.1-5.4-12.1-12.1 5.5-12.1 12.1-12.1z" fill="#fff"/></svg>