<svg enable-background="new 0 0 198 181" viewBox="0 0 198 181" xmlns="http://www.w3.org/2000/svg" xmlns:xlink="http://www.w3.org/1999/xlink"><clipPath id="a"><ellipse cx="92.4" cy="90.1" rx="54.3" ry="54.4" transform="matrix(.1602 -.9871 .9871 .1602 -11.3698 166.8183)"/></clipPath><clipPath id="b"><ellipse cx="92.4" cy="90" rx="54.5" ry="54.3" transform="matrix(.6001 -.7999 .7999 .6001 -35.0538 109.8693)"/></clipPath><path d="m198.1 9.9h-112.6c-41.9 3.8-74.2 39.5-73.8 81.2.4 41.2 32.5 76 73.8 79.7v.3h112.6z" fill="#fff"/><g clip-path="url(#a)"><path d="m37.9 8.5h108.8v163.1h-108.8z" fill="#ed2939"/><path d="m38 8.5h72.5v163.1h-72.5z" fill="#f2f2f2"/><path d="m37.9 8.5h36.3v163.1h-36.3z" fill="#002654"/></g><ellipse clip-path="url(#b)" cx="92.4" cy="90.1" fill="none" rx="54.3" ry="54.4" transform="matrix(.1602 -.9871 .9871 .1602 -11.3697 166.8184)"/><path d="m74.2 38.6c0 34.3.1 68.5.1 102.8 4 1.4 10 2.9 17.3 3 8.1.1 14.6-1.7 18.8-3.1 0-34.2 0-68.4 0-102.6-4-1.4-10.1-3.1-17.8-3.2-7.9-.1-14.3 1.6-18.4 3.1z" fill="#fff"/><path d="m91.8 147c-31.3 0-56.8-25.5-56.8-56.8s25.5-56.8 56.8-56.8 56.8 25.5 56.8 56.8-25.5 56.8-56.8 56.8zm0-109.6c-29.1 0-52.8 23.7-52.8 52.8s23.7 52.8 52.8 52.8 52.8-23.7 52.8-52.8-23.7-52.8-52.8-52.8z" fill="#231f20"/></svg>