<svg enable-background="new 0 0 198 181" viewBox="0 0 198 181" xmlns="http://www.w3.org/2000/svg" xmlns:xlink="http://www.w3.org/1999/xlink"><clipPath id="a"><circle cx="91.7" cy="89.9" r="53.1"/></clipPath><clipPath id="b"><circle cx="91.7" cy="89.9" r="53.1"/></clipPath><path d="m198.1 9.9h-112.6c-41.9 3.8-74.2 39.5-73.8 81.2.4 41.2 32.5 76 73.8 79.7v.3h112.6z" fill="#fff"/><g clip-path="url(#a)"><g transform="matrix(1.6 0 0 1.6 -200 -783.7795)"><path d="m102.7 492.9h159.3v106.2h-159.3z" fill="#0037a6"/><path d="m142.6 574.5 9.1-.4 70.5-50.6-.2-6-9.1.4-70.5 50.6z" fill="#fff"/><path d="m222 574.5-9.1-.4-70.5-50.5.2-6 9.1.4 70.5 50.5z" fill="#fff"/><g fill="#f20000"><path d="m142.6 574.5 6-.2 26.5-19-6 .2z"/><path d="m189.5 536.8 6-.2 26.5-19-6 .2z"/><path d="m222 574.5.1-4-20.6-14.7-6-.2z"/><path d="m142.6 517.6-.1 4 20.6 14.7 6 .2z"/></g><path d="m174.8 511.5h15.1v69.2h-15.1z" fill="#fff"/><path d="m136.4 535.9h91.9v20.5h-91.9z" fill="#fff"/><path d="m136.4 540h91.9v12.3h-91.9z" fill="#f20000"/><path d="m177.8 512.6h9.1v67.1h-9.1z" fill="#f20000"/></g></g><ellipse clip-path="url(#b)" cx="91.7" cy="89.9" fill="none" rx="53.1" ry="53.1"/><path d="m91.8 147c-31.3 0-56.8-25.5-56.8-56.8s25.5-56.8 56.8-56.8 56.8 25.5 56.8 56.8-25.5 56.8-56.8 56.8zm0-109.6c-29.1 0-52.8 23.7-52.8 52.8s23.7 52.8 52.8 52.8 52.8-23.7 52.8-52.8-23.7-52.8-52.8-52.8z" fill="#231f20"/></svg>