<svg enable-background="new 0 0 198 181" viewBox="0 0 198 181" xmlns="http://www.w3.org/2000/svg"><path d="m198.1 9.9h-112.6c-41.9 3.8-74.2 39.5-73.8 81.2.4 41.2 32.5 76 73.8 79.7v.3h112.6z" fill="#fff"/><path clip-rule="evenodd" d="m91 143.3h2.2c28.8-.6 52-24.1 52-53.1h-106.2c0 29 23.2 52.5 52 53.1z" fill="#ba0c2f" fill-rule="evenodd"/><path clip-rule="evenodd" d="m39 90.3h106.2c0-29.3-23.8-53.1-53.1-53.2h-.1c-29.2.1-53 23.9-53 53.2z" fill="#ba0c2f" fill-rule="evenodd"/><path d="m145 95.8c-35.2 0-70.4 0-105.6 0-.2-1.9-.4-4-.2-6.4 0-2.1.2-4.1.4-5.9h105.4c.2 1.8.4 3.8.5 5.9-.2 2.4-.4 4.5-.5 6.4z" fill="#efefef"/><path d="m77.7 39.1v102.2c-2.2-.6-4.7-1.5-7.4-2.7-2.1-.9-4.1-2-5.8-3.1 0-30.3 0-60.5 0-90.8 1.8-1.1 3.9-2.2 6.4-3.3 2.4-.9 4.8-1.7 6.8-2.3z" fill="#efefef"/><path d="m145.1 93.1c-35.3 0-70.7 0-106.1 0-.1-1.2-.1-2.6-.1-3.9 0-.9.1-1.8.1-2.7h106c.1.9.1 1.9.1 3 .2 1.2.2 2.4 0 3.6z" fill="#00205b"/><path d="m74.5 40.2v100.2c-1.1-.4-2.2-.8-3.5-1.4-1.2-.5-2.2-1.1-3.2-1.5 0-31.4 0-62.9 0-94.3 1.1-.6 2.2-1.2 3.5-1.7 1.2-.6 2.1-1 3.2-1.3z" fill="#00205b"/><path d="m91.8 147c-31.3 0-56.8-25.5-56.8-56.8s25.5-56.8 56.8-56.8 56.8 25.5 56.8 56.8-25.5 56.8-56.8 56.8zm0-109.6c-29.1 0-52.8 23.7-52.8 52.8s23.7 52.8 52.8 52.8 52.8-23.7 52.8-52.8-23.7-52.8-52.8-52.8z" fill="#231f20"/></svg>