<svg enable-background="new 0 0 198 181" viewBox="0 0 198 181" xmlns="http://www.w3.org/2000/svg" xmlns:xlink="http://www.w3.org/1999/xlink"><clipPath id="a"><ellipse cx="91.9" cy="90.2" rx="53.8" ry="53.9" transform="matrix(.1602 -.9871 .9871 .1602 -11.8721 166.3998)"/></clipPath><clipPath id="b"><ellipse cx="91.9" cy="90.2" rx="53.8" ry="53.9" transform="matrix(.1602 -.9871 .9871 .1602 -11.8721 166.3998)"/></clipPath><clipPath id="c"><ellipse cx="91.9" cy="90.2" rx="53.8" ry="53.9" transform="matrix(.1602 -.9871 .9871 .1602 -11.8721 166.3998)"/></clipPath><clipPath id="d"><ellipse cx="91.9" cy="90.1" rx="53.9" ry="53.8" transform="matrix(.6001 -.7999 .7999 .6001 -35.3195 109.4918)"/></clipPath><path d="m198.1 9.9h-112.6c-41.9 3.8-74.2 39.5-73.8 81.2.4 41.2 32.5 76 73.8 79.7v.3h112.6z" fill="#fff"/><path clip-path="url(#a)" d="m38 9.5h107.6v161.4h-107.6z" fill="#cd212a"/><path clip-path="url(#b)" d="m38.1 9.5h71.7v161.4h-71.7z" fill="#f2f2f2"/><path clip-path="url(#c)" d="m38 9.5h35.9v161.4h-35.9z" fill="#008c45"/><ellipse clip-path="url(#d)" cx="91.9" cy="90.2" fill="none" rx="53.8" ry="53.9" transform="matrix(.1602 -.9871 .9871 .1602 -11.8709 166.3948)"/><path d="m73.9 39.4c0 33.9.1 67.7.1 101.6 3.9 1.4 9.9 2.9 17.2 2.9 8 .1 14.5-1.6 18.6-3.1 0-33.8 0-67.6 0-101.4-3.9-1.4-10.1-3.1-17.7-3.1-7.9 0-14.2 1.7-18.2 3.1z" fill="#fff"/><path d="m91.8 147c-31.3 0-56.8-25.5-56.8-56.8s25.5-56.8 56.8-56.8 56.8 25.5 56.8 56.8-25.5 56.8-56.8 56.8zm0-109.6c-29.1 0-52.8 23.7-52.8 52.8s23.7 52.8 52.8 52.8 52.8-23.7 52.8-52.8-23.7-52.8-52.8-52.8z" fill="#231f20"/></svg>