<svg enable-background="new 0 0 198 181" viewBox="0 0 198 181" xmlns="http://www.w3.org/2000/svg"><path d="m198.1 9.9h-112.6c-41.9 3.8-74.2 39.5-73.8 81.2.4 41.2 32.5 76 73.8 79.7v.3h112.6z" fill="#fff"/><path clip-rule="evenodd" d="m91.9 143.5v-106.7c-29.4 0-53.3 23.9-53.4 53.3v.1c.1 29.5 24 53.3 53.4 53.3z" fill="#046a38" fill-rule="evenodd"/><path clip-rule="evenodd" d="m91.9 36.8c-1.4 0-3.1 0-4.7.2-1.5.1-2.8.4-4.2.5v105.3c1.2.2 2.6.4 4 .5 1.8.1 3.3.2 4.9.2 29.1 0 52.7-23.3 53.3-52.2v-2.3c-.6-28.9-24.2-52.2-53.3-52.2z" fill="#da291c" fill-rule="evenodd"/><path d="m94.7 81.2 3.4-.8.9 1.4-4.3 1.2z" fill="#ff0"/><path d="m71.4 86.6-1.9.4-3.3-2.6.7-1.9 4.4 1.5z" fill="#ff0"/><path d="m63.5 90.1c-.1 0-.4 0-.5 0s-.2-.1-.2-.1 0 0 0-.1l.2-.2.2.1.3.3c.1-.1.1-.1 0 0zm0-.1-.2-.2-.2-.1-.2.2v-.1c0 .1.1.1.1.1.3.1.4.1.5.1z"/><path d="m64 92.1c-.4-.1-.6-.2-.8-.4-.2-.1-.2-.1-.2-.2 0 0 0 0 0-.1l.4-.4.6.1v1c.1 0 .1 0 0 0zm0-.1-.2-.6-.6-.1-.4.4v-.1s.1.1.2.1c.4.1.8.2 1 .3z"/><path d="m66.7 100.4c-.5-.1-.8-.2-1.1-.4-.2-.1-.2-.1-.2-.1l.1-.2h.1l.5.1.6.6c.2-.1.2-.1 0 0 .2 0 .2 0 0 0m.2-.1-.9-.5-.5-.1h.1l-.1.2s0 0 .2.1c.2 0 .7.2 1.2.3z"/><path d="m67.7 102c-.5-.1-.9-.2-1.1-.4-.2-.1-.2-.1-.4-.2 0 0 0 0 0-.1l.2-.2h.2l1.1.9c.1-.1.1-.1 0 0 .1-.1 0 0 0 0m0-.1-1.1-.6h-.2l-.2.2v-.1s0 0 .2.1c.5 0 .9.2 1.3.4z"/><path d="m66.5 101.2c-.1.1 0 .1.1.2s.5.1.8.2l-.7-.5z" fill="#ff0"/><path d="m65.7 99.7c-.1.1 0 .1.1.2s.5.1.8.2l-.5-.4z" fill="#ff0"/><path d="m63.3 91.3-.2.2s.1.1.2.1c.1.1.5.2.7.4l-.1-.6z" fill="#ff0"/><path d="m63.2 89.6v.2h.4l-.1-.2z" fill="#ff0"/><path d="m64.6 82.8-.1-.4.1-.2.2-.1z" fill="#ff0"/><path d="m65.9 79.9-.1-.4.1-.2.4-.1z" fill="#ff0"/><path d="m92.4 100.2 1.9.9 3.6-.7-1.9-1.5-2-1.5z" fill="#ff0"/><path d="m92.4 100.2.1.4 1.4.7.7-.1v.1l-1.9-.9zm-.1 0 .4-.1 1.9.9-.7.1-1.4-.7z"/><path d="m92.6 100.1-.2.1v.2l1.4.7.5-.1z" fill="#ff0"/><path d="m71.1 77.8-.1-.3c-.6.1-1.2.2-1.9.5-.7.2-1.4.5-2.1.8v-.1l.2.2h.4c.6-.2 1.1-.5 1.7-.6s1.2-.2 1.8-.5zm.1-.1c0 .1 0 .1 0 0l-.1.3c-.6.1-1.2.2-1.8.4s-1.1.4-1.7.6h-.4l-.2-.2c.7-.4 1.4-.6 2.1-.8s1.3-.4 1.9-.5z"/><path d="m71.2 79.4-.2-.2c-.2 0-.5 0-.7.1-.2 0-.5.1-.7.2v-.1l.6.2c.1 0 .4-.1.5-.1s.4 0 .5-.1zm0-.1c.2 0 .2.1 0 0l-.2.3c-.1 0-.2 0-.5 0-.1 0-.4.1-.5.1l-.6-.2c.2-.1.5-.1.7-.2.2 0 .5-.1.7-.1z"/><path d="m71 77.7c-.6.1-1.2.2-1.9.5-.6.2-1.3.5-2 .8l.2.1h.4c.6-.2 1.1-.5 1.7-.6.6-.1 1.2-.2 1.8-.4l.1-.2z" fill="#ff0"/><path d="m71 79.2c-.2 0-.5 0-.7.1-.2 0-.4.1-.6.1l.4.1c.1 0 .4-.1.5-.1h.5l.1-.1z" fill="#ff0"/><path d="m100.4 79.9c-.1-.1-.2-.2-.4-.2s-.1-.1-.1-.1c-.6.2-1.2.6-2.1.8-.8.2-1.9.5-3 .7l-.1.2v-.1l.2.2c1.1-.2 2.3-.5 3.1-.7 1-.3 1.7-.7 2.4-.8zm.2-.1s0 .1 0 0c-.7.4-1.4.7-2.4.9-.9.2-2 .5-3.1.7l-.2-.2s0 0 0-.1l.1-.2c1.1-.2 2.1-.5 3-.7.8-.2 1.4-.5 2-.8s.1 0 .1.1c.1.1.3.2.5.3z"/><path d="m100 79.6c-.6.2-1.2.5-2 .8-.8.2-1.9.5-3 .7l-.1.2.1.1c1.1-.2 2.3-.5 3.1-.7s1.5-.6 2.3-.8c-.1-.1-.2-.1-.2-.2s-.2-.1-.2-.1z" fill="#ff0"/><path d="m101.4 81.3c0 .1-.1.1-.5.2-.5.1-1.2.5-2.3.7s-2.4.6-3.7.8l-.2-.2s0 0 0-.1l.2-.2c1.2-.2 2.4-.5 3.4-.7.9-.2 1.8-.5 2.6-.8zm-.1 0-.4-.1c-.8.2-1.5.5-2.6.8-.9.2-2.1.5-3.4.7l-.3.3v-.1l.2.2c1.3-.2 2.6-.6 3.6-.8 1.1-.2 1.9-.5 2.3-.7.6-.1.6-.3.6-.3z"/><path d="m94.9 91.8.2.2c1.2-.2 2.3-.4 3.3-.6 1.1-.2 2-.5 3-.8v.1l-.2-.6h.1c-.9.4-1.9.6-3 .8s-2.1.4-3.2.6zm-.2 0 .2-.4c1.1-.1 2.1-.4 3.2-.6s2-.5 3-.8l.1.5v.1c-.9.2-1.9.6-3 .8s-2.3.5-3.3.6z"/><path d="m94.9 93.4.1.2c.9-.1 1.9-.2 3-.5 1.1-.2 2.1-.6 3.2-.8v-.6h.1c-.9.4-1.9.6-3 .8s-2.1.5-3.2.6zm0 0c-.2 0-.2 0 0 0l.1-.2c1.1-.2 2.3-.4 3.2-.6 1.1-.2 2-.6 3-.8v.6c-1.1.4-2.1.6-3.2.8s-2 .4-3 .5z"/><path d="m90.8 101.6.1.2c1.1-.1 2-.2 3.2-.5 1.2-.2 2.5-.5 3.9-.7v.1l-.4-.4c-1.3.2-2.6.5-3.6.7-1.1.2-1.8.4-2.6.5h-.6zm-.1.1c0-.1 0-.1 0 0l.7-.4c.8-.1 1.5-.2 2.6-.5 1.1-.2 2.4-.5 3.6-.7l.4.4c-1.3.2-2.7.6-3.9.7-1.2.2-2.3.4-3.2.5z"/><path d="m87.7 103.8v.2-.2c1.2 0 2.4 0 3.8-.3 1.4-.2 3-.6 4.6-.9l.7-.7v.1c-1.7.4-3.3.8-4.7 1.1-1.4.2-2.5.4-3.6.5zm-.1 0 .7-.4c1.1-.1 2.1-.2 3.6-.5 1.4-.2 3.1-.6 4.7-1.1h.1v.1l-.7.7c-1.7.4-3.2.7-4.6.9s-2.6.2-3.8.3z"/><path d="m69.9 102.5.7.4c.8.2 1.8.4 3.2.6s3.3.4 5.3.6v.1l-1.1-.6c-1.4-.1-2.8-.2-4.2-.5-1.3-.2-2.6-.5-3.9-.8h.1zm0 .1v-.4c1.3.4 2.6.6 3.9.8s2.7.4 4.2.5l1.1.6v.1s0 0-.1 0c-1.9-.2-3.9-.4-5.3-.6s-2.3-.4-3.2-.6z"/><path d="m68.5 100.6.4.2c1.1.2 2.1.5 3.2.6s2.3.4 3.3.5v.1l-.4-.5c-.9-.1-1.8-.2-2.8-.5s-2.4-.5-3.7-.7h.1zm0 .1v-.4c1.3.2 2.6.6 3.7.7 1.1.2 2 .4 2.8.5l.4.5v.1c-1.2-.1-2.3-.2-3.4-.5-1.1-.1-2.1-.4-3.2-.6z"/><path d="m71.4 93.6-.1-.2c-.8-.1-1.7-.2-2.7-.5-1.1-.2-2.1-.5-3.3-.8h.1v.5c1.1.2 2.1.6 3.1.8s1.9.4 2.8.5h-.1zm.1 0-.1.4s0 0-.1 0c-.9-.1-1.9-.2-2.8-.5s-2-.5-3.1-.8v-.5c1.2.4 2.4.6 3.3.8s1.9.4 2.8.6z"/><path d="m71.4 91.9-.1-.2c-.8-.1-1.5-.2-2.6-.5-.9-.2-2.3-.6-3.4-.8h.1l-.1.5v-.1c1.2.4 2.3.6 3.3.8.9.2 1.8.3 2.8.3l-.2.1zm.1 0-.1.2c-.9-.1-1.8-.2-2.8-.5-1.1-.2-2.1-.6-3.3-.8 0 0 0 0 0-.1l.1-.5c1.2.4 2.4.6 3.4.8.9.2 1.8.4 2.5.5z"/><path d="m66.1 84.2.1.4c.5.4.9.7 1.4 1.2.5.4 1.1.7 1.5 1.1l.6-.1v.1c-.7-.5-1.3-.9-1.9-1.4s-1.1-.8-1.5-1.2zm-.1.1c0-.1 0-.1 0 0l.2-.1c.5.4.9.8 1.5 1.2.6.5 1.2.9 1.9 1.4l-.5.1c-.5-.4-1.1-.7-1.5-1.1-.5-.4-.9-.7-1.4-1.2z"/><path d="m97.6 100.3c-1.3.2-2.6.5-3.6.7-1.1.2-1.8.4-2.6.5l-.6.2.1.1c1.1-.1 2-.2 3.2-.5 1.2-.2 2.5-.5 3.8-.7z" fill="#ff0"/><path d="m96.6 102.1c-1.7.4-3.2.7-4.6.9s-2.5.4-3.6.5l-.7.2v.1c1.2-.1 2.4-.1 3.7-.4 1.4-.2 3-.6 4.6-.9z" fill="#ff0"/><path d="m70.1 102.2v.2l.6.2c.8.2 1.8.4 3.2.6 1.3.2 3.2.4 5 .6l-.8-.4c-1.4-.1-2.8-.2-4.2-.5-1.4-.1-2.7-.4-3.8-.7z" fill="#ff0"/><path d="m68.5 100.3v.2l.4.2c1.1.2 2.1.5 3.2.6s2.1.2 3.2.4l-.2-.4c-.9-.1-1.8-.2-2.8-.5-1.2.1-2.5-.1-3.8-.5z" fill="#ff0"/><path d="m65.3 92.1v.4c1.1.2 2.1.6 3.1.8.9.2 1.9.4 2.8.5l.1-.2-.1-.1c-.8-.1-1.7-.2-2.7-.5-.8-.3-2-.6-3.2-.9z" fill="#ff0"/><path d="m65.3 90.4-.1.4c1.1.4 2.3.6 3.2.8s1.9.4 2.7.5l.1-.1-.1-.2c-.8-.1-1.5-.2-2.6-.5-.8-.4-2-.6-3.2-.9z" fill="#ff0"/><path d="m66.4 84.2v.5c.5.4.9.7 1.4 1.2.5.4 1.1.7 1.5 1.1l.5-.1c-.6-.5-1.2-.9-1.8-1.3-.7-.6-1.1-.9-1.6-1.4z" fill="#ff0"/><path d="m101.2 91.9c-.9.2-1.9.6-2.8.8-1.1.2-2.1.5-3.2.6l-.2.1.1.1c.9-.1 1.9-.2 3-.5 1.1-.2 2-.6 3.1-.8z" fill="#ff0"/><path d="m101.2 90.2c-.9.2-1.9.6-2.8.8-1.1.2-2.1.4-3.2.6l-.2.3.1.1c1.2-.2 2.3-.4 3.3-.6 1.1-.2 1.9-.5 2.8-.8z" fill="#ff0"/><path d="m100.9 81.2c-.8.2-1.5.5-2.5.7-.9.2-2.1.5-3.3.7l-.1.3.1.2c1.3-.2 2.5-.6 3.6-.8s1.9-.5 2.3-.7c.2-.1.4-.1.4-.2z" fill="#ff0"/><path d="m103.1 91.1.2.2v.1c-.1.1-.2.4-.5.4-.2 0-.4-.2-.6-.4zm0 .1-.7.2v-.1c.2.2.4.4.5.4.1 0 .2-.1.4-.4v.1z"/><path d="m103.1 91.2-.6.1c.2.1.4.4.5.4.1 0 .2-.1.4-.4z" fill="#ff0"/><path d="m102.9 89.4.4.2c-.1.1-.2.2-.4.2-.1 0-.2-.2-.2-.4 0 0 0 0 0-.1h.2zm0 0-.2.2v-.1c.1.1.1.2.1.2.1 0 .2-.1.4-.2v.1z"/><path d="m102.9 89.5-.2.1c0 .1.1.2.1.2.1 0 .1-.1.2-.1z" fill="#ff0"/><path d="m99 102.2.1.4-.1.2s-.1.1-.2.1c0 0 0 0-.1 0s-.2 0-.4 0c.1-.2.4-.5.4-.6l.1-.1c.2-.1.2-.1.2 0m-.1 0c-.2.1-.4.4-.5.6v-.1h.4c.1 0 .1 0 .1-.1l.1-.2z"/><path d="m100.9 99.5v.5c-.2.1-.6.2-.7.2h-.1c-.2-.1-.1-.4-.1-.6l.4-.5h.1l.4.4c0-.1 0 0 0 0m-.1 0-.5-.2h.1l-.4.5v.5c.1 0 .4-.1.7-.2v-.6z"/><path d="m100.4 99.3-.4.5v.2c0 .1 0 .1.1.1h.1s.4-.1.6-.2v-.5z" fill="#ff0"/><path d="m98.9 102.2c-.1.1-.2.4-.5.5h.2c.1 0 .1 0 .1-.1l.1-.1z" fill="#ff0"/><path d="m101.2 90.6v1.2-1.2c-.2 0-.2 0 0 0z"/><path d="m95 91.9v1.4-1.4c-.1-.1-.1-.1 0 0 0-.1 0-.1 0 0z"/><path d="m101 90.7c-.8.2-1.7.5-2.6.7-1.1.2-2.3.5-3.3.6v1.2c1.1-.2 2.1-.4 3.2-.6.9-.2 1.9-.5 2.7-.8z" fill="#ff0"/><path d="m97.7 100.8-.9 1.3s0 0-.1 0c0 0 0 0 0-.1l1-1.2c-.1-.1-.1-.1 0 0-.1-.1 0-.1 0 0z"/><path d="m90.8 101.9-2.4 1.7h-.1v-.1l2.5-1.6c0-.2 0-.2 0 0z"/><path d="m70.1 102.3s0 .2 0 0c-.2.2-.2.2 0 0l-1.5-1.8v-.1h.1l1.4 1.9c-.2 0-.2 0 0 0z"/><path d="m78.1 103.5c-.1.1-.1.1 0 0l-2.7-1.7s0 0 0-.1h.1l2.6 1.8c-.1 0-.1 0 0 0-.1 0 0 0 0 0z"/><path d="m65.4 92.1c-.1 0-.1 0 0 0l-.2-1.4v-.1h.1l.1 1.5c-.1-.1-.1-.1 0 0-.1-.1 0-.1 0 0z"/><path d="m71.4 93.4-.2-1.4.2 1.4c-.2 0 0 0 0 0z"/><path d="m67.7 79 2 .4v.1s0 0-.1 0l-1.9-.5c-.1.1-.1.1 0 0-.1 0-.1 0 0 0-.1 0 0 0 0 0z"/><path d="m71.2 77.8v1.7-1.7c-.1-.1-.1-.1 0 0 0-.1 0-.1 0 0z"/><path d="m71.1 77.9c-.1.1-.1.1 0 0-.7.2-1.3.4-1.9.5-.5.1-.9.4-1.5.6l1.8.4c.2-.1.5-.1.7-.2.2 0 .5-.1.7-.1l.1.1z" fill="#ff0"/><path d="m65.3 90.8.1 1.2c1.2.4 2.3.6 3.2.8.9.2 1.8.4 2.6.5v-1.2c-.9-.1-1.8-.2-2.8-.5-1-.2-2-.5-3.1-.8z" fill="#ff0"/><path d="m68.9 100.9 1.1 1.3c1.3.4 2.6.6 3.9.8 1.2.2 2.5.4 3.7.5l-2-1.5c-1.2-.1-2.3-.2-3.3-.5-1.3-.1-2.4-.3-3.4-.6z" fill="#ff0"/><path d="m97.5 100.8c-1.2.2-2.4.5-3.3.7-1.2.2-2.3.4-3.2.5l-2.1 1.4c.9-.1 2-.2 3.3-.5 1.3-.2 3-.6 4.6-.9z" fill="#ff0"/><path d="m102.7 90c.1 10.8-8.5 19.6-19.5 19.7-10.8.1-19.6-8.5-19.7-19.5-.1-10.8 8.6-19.6 19.5-19.7 10.8 0 19.6 8.7 19.7 19.5m-.1 0c-.1-10.8-8.9-19.3-19.6-19.3-10.8.1-19.3 8.9-19.3 19.6.1 10.8 8.9 19.3 19.6 19.3 10.7-.1 19.4-8.9 19.3-19.6z"/><path d="m101.4 90c.1 10.1-8.1 18.4-18.2 18.5s-18.4-8.1-18.5-18.2c-.1-10 8.1-18.3 18.2-18.5 10.2-.1 18.5 8.1 18.5 18.2m-.1 0c-.1-10.1-8.3-18.2-18.4-18s-18.2 8.3-18 18.4 8.3 18.2 18.4 18c10-.1 18.1-8.3 18-18.4z"/><path d="m101 90c.1 9.9-7.8 17.9-17.7 18s-17.9-7.8-18-17.7 7.8-17.9 17.7-18c9.8-.1 17.9 7.8 18 17.7m-.1 0c-.1-9.9-8.1-17.7-17.9-17.6s-17.7 8.1-17.6 17.9c.1 9.7 8.1 17.6 17.9 17.6 9.8-.1 17.7-8.2 17.6-17.9z"/><path d="m83 72.3c9.9-.1 17.9 7.8 18 17.7s-7.8 17.9-17.7 18-17.9-7.8-18-17.7 7.8-17.9 17.7-18zm0-.3c-10.1.1-18.2 8.3-18 18.4s8.3 18.2 18.4 18 18.2-8.3 18-18.4-8.4-18.2-18.4-18z" fill="#ff0"/><path d="m83 70.5c10.8-.1 19.6 8.5 19.7 19.5.1 10.8-8.5 19.6-19.5 19.7-10.8.1-19.6-8.5-19.7-19.5-.1-10.6 8.7-19.6 19.5-19.7zm0-.2c-11 .1-19.8 9-19.7 20.1.1 11 9 19.8 20.1 19.7 11-.1 19.8-9 19.7-20.1s-9.2-19.8-20.1-19.7z" fill="#ff0"/><path d="m83 71.8c10.1-.1 18.4 8.1 18.5 18.2s-8.1 18.4-18.2 18.5-18.3-8.1-18.5-18.1c-.1-10.3 8-18.4 18.2-18.6zm0-1.2c-10.8.1-19.3 8.9-19.3 19.6.1 10.8 8.9 19.3 19.6 19.3 10.8-.1 19.3-8.9 19.3-19.6-.1-10.7-8.9-19.3-19.6-19.3z" fill="#ff0"/><path d="m83.8 110.1h-1.2v-5.3h1.2z" fill="#ff0"/><path d="m66.3 100.8-.7-1.2.5-.5 1.4-.8 4.7-1.2.5 1.4-4.5 1.3z" fill="#ff0"/><path d="m71.2 86.6.1 1.8-2.5.5-3.8 1.1-1.9.9v-1.4l1.5-1.1z" fill="#ff0"/><path d="m71.2 80.1v3.8l-3.2-1.3-3-.7 1.7-3 2.1.4z" fill="#ff0"/><path d="m83.9 76.7h-1.7v-6.6h1.5z" fill="#ff0"/><path d="m94.7 77.5v1.7c1.9.4 3.8.8 4.7 1.1.9.2 1.1.4 1.2.6l-.8-1.7-1.8-.8z" fill="#ff0"/><path d="m94.7 88.1v-1.5l5.3 1.2 3 1.5v1.7l-3-1.5z" fill="#ff0"/><path d="m94 97.5.5-1.7.4-2.1 3.2 2.5 2 1.8.9 1.3-.9 1.3-.9 1.4-1.5-1.8z" fill="#ff0"/><path d="m103.2 90c.1 11-8.8 20.1-19.8 20.2s-20.1-8.8-20.2-19.8 8.8-20.1 19.8-20.2 20.1 8.8 20.2 19.8m-.1 0c-.1-11-9-19.8-20.1-19.7-11 .1-19.8 9-19.7 20.1.1 11 9 19.8 20.1 19.7 10.9-.2 19.7-9.1 19.7-20.1z"/><path d="m72.2 97-.5-.1c-.8.1-1.7.4-2.6.6-1.1.4-2.3.8-3 1.2s-.8.6-.9.8l.2.4h-.1c.1-.2.2-.5.9-.8.7-.4 2-.8 3.1-1.2s1.9-.5 2.6-.7zm.1-.1-.2.4c-.8.1-1.7.4-2.6.7-1.1.4-2.4.8-3 1.2-.7.4-.8.6-.9.8l-.2-.4c.1-.2.2-.5.9-.8.7-.4 1.9-.8 3-1.2s1.9-.5 2.7-.6z"/><path d="m83.9 76.7.1-6.9h-.5v6.8zm.2.1-.4-.1v-6.8h.5z"/><path d="m82.4 76.8.1-6.9h-.5v6.8zm0 0s0 .1 0 0l-.4-.1v-6.8h.5v6.8z"/><path d="m82.4 104.7-.2.1v5.7h.5v-5.7zm0-.1.2.1v5.7h-.5v-5.7z"/><path d="m84.1 104.7-.2.1v5.7h.5v-5.7zm0-.1.2.1v5.7h-.5v-5.7z"/><path d="m94.7 79.2.1.2c1.5.4 3.1.6 4.3.9 1.1.4 1.7.6 2.3.9h-.1l-.2-.6c-.6-.4-1.1-.6-2.1-.9-1.1-.4-2.6-.6-4.2-.9h.1zm-.1 0 .1-.2h.1c1.5.4 3.1.6 4.2.9 1.1.4 1.7.6 2.1.9l.2.6v.1s0 0-.1 0c-.6-.4-1.2-.6-2.3-.9-1.1-.4-2.6-.6-4.2-.9z"/><path d="m94.7 77.5.1.2c1.4.4 2.8.7 3.8.9.9.4 1.4.7 1.9.9l-.1.1-.5-.7c-.5-.2-.9-.6-1.9-.8-.8-.2-2-.6-3.3-.8h.1zm0 0c-.1 0-.1 0 0 0l.1-.2h.1c1.2.2 2.5.6 3.3.8s1.3.6 1.9.8l.5.7v.1s0 0-.1 0c-.5-.4-.8-.7-1.8-.9-.9-.4-2.4-.7-3.8-.9z"/><path d="m94.9 88.1.1.2c2.1.5 4.4.9 5.8 1.4s2 .9 2.6 1.5h-.1v-.5c-.6-.5-1.2-.9-2.5-1.4-1.4-.5-3.6-.9-5.8-1.4h.1zm-.2.1.1-.2h.1c2.3.5 4.4.9 5.8 1.4s2 .9 2.5 1.5v.5s0 0-.1 0c-.6-.5-1.2-.9-2.6-1.4s-3.5-1-5.8-1.4z"/><path d="m94.9 86.4.1.2c2.1.5 4.4.9 5.8 1.4s2 .9 2.6 1.5h-.1v-.5c-.6-.5-1.2-.9-2.5-1.4-1.4-.5-3.6-.9-5.8-1.4h.1zm-.2.2c0-.2 0-.2 0 0l.1-.2h.1c2.3.5 4.4.9 5.8 1.4s2 .9 2.5 1.5v.5s0 0-.1 0c-.6-.5-1.2-.9-2.6-1.4s-3.6-.9-5.8-1.4z"/><path d="m94.9 93.6.1.4c1.7 1.3 3.2 2.5 4.3 3.3.9.8 1.3 1.3 1.4 1.7s.2.6.2.8h-.1l.4-.5c0-.2-.1-.4-.2-.7-.1-.4-.5-.8-1.4-1.7s-2.7-2.3-4.4-3.6zm-.2.1c0-.1 0-.1 0 0l.2-.1c1.7 1.3 3.4 2.6 4.4 3.6s1.3 1.4 1.5 1.8c.1.4.2.6.2.7l-.4.5s0 0-.1 0c0-.2-.1-.5-.2-.8s-.5-.8-1.4-1.7-2.6-2.1-4.3-3.3v-.7z"/><path d="m94 97.4.1.4c1.1.8 2.1 1.5 3 2.3.8.7 1.5 1.4 1.8 1.9.4.5.4.7.2.9h-.1l.4-.5c0-.2 0-.4-.4-.7-.2-.4-.8-.9-1.7-1.7-.8-.7-2-1.5-3.1-2.4zm-.1 0 .2-.1c1.2.8 2.3 1.7 3.1 2.5.8.7 1.4 1.3 1.7 1.8.4.4.4.6.4.8l-.4.5s0 0-.1 0c0 0 0 0 0-.1 0-.2 0-.4-.2-.8-.4-.5-.9-1.1-1.8-1.8-.8-.7-1.9-1.5-3-2.3z"/><path d="m72.8 98.7-.2-.1c-.7.1-1.3.2-2.3.5-.9.2-2.1.7-3 1.1-.7.4-.9.6-1.2.9v-.1l.2.4h-.1c.2-.2.5-.6 1.2-.9.7-.4 2-.8 3-1.1.9-.2 1.5-.4 2.1-.5zm0-.2v.4c-.6.1-1.2.2-2.1.5s-2.3.7-3 1.1-.9.6-1.2.9l-.2-.4s0 0 0-.1c.2-.2.5-.6 1.2-.9.7-.4 2-.8 3-1.1.9-.2 1.7-.4 2.3-.4z"/><path d="m71.2 86.7-.2-.3c-.6.1-1.2.1-2.4.5s-3.1.8-4.2 1.3-1.3.8-1.7 1.2v.5h-.1c.4-.4.6-.7 1.7-1.2s2.7-.9 3.9-1.3 1.9-.5 2.6-.6zm.2-.1s0 .1 0 0l-.1.4c-.7.1-1.4.2-2.6.6s-2.8.8-3.9 1.3c-.9.5-1.3.8-1.7 1.1s0 0-.1 0v-.5c.4-.4.6-.7 1.7-1.2s3-1.1 4.2-1.3c1.2-.4 1.8-.4 2.5-.4z"/><path d="m71.4 88.3-.2-.2c-.8.1-1.8.2-3 .6-1.3.4-2.8.8-3.8 1.3-.9.4-1.2.7-1.4.9v.5h-.1c.2-.4.6-.7 1.7-1.2s2.7-.9 4-1.3c1.2-.4 1.9-.5 2.6-.5zm0 0-.2.4c-.7.1-1.4.2-2.6.5-1.2.4-3 .8-4 1.3-1.1.5-1.3.8-1.5 1.1 0 0 0 0-.1 0v-.5c.2-.4.5-.6 1.4-1.1s2.6-.9 3.8-1.3c1.3-.4 2.1-.5 3-.6z"/><path d="m64.6 82.8c0 .1 0 .1 0 0-.1.1-.1.1 0 0-.1-.2-.2-.6.1-.7h.2c.4 0 .8.1 1.4.2.7.2 1.5.5 2.4.8s1.7.7 2.4 1.1h-.1l.1-.2v.1l-.1-.4c-.6-.2-1.3-.6-2.1-.9-.9-.4-2.1-.7-2.8-.9-.4 0-.6 0-.8 0s-.4 0-.5 0l-.2.5s0 0-.1 0c0 0 0 0 0-.1l.2-.5h.5c.2 0 .5 0 .8.1.7.1 1.9.6 2.8.9.9.4 1.5.6 2.1.9l.1.4v.1h.1s0 0-.1 0c-.8-.4-1.5-.7-2.4-1.1s-1.7-.6-2.4-.8c-.5-.1-1-.3-1.2-.3-.1 0-.2 0-.2 0-.3.3-.3.5-.2.8-.1 0-.1 0 0 0z"/><path d="m66 79.9s0 .1 0 0c-.1.1-.1.1 0 0-.2-.1-.2-.4-.1-.6.1-.1.4-.2.7-.2h.2c.6 0 1.5.4 2.3.6.7.2 1.3.5 1.9.7l.2-.1v.1l-.2-.4c-.4-.1-.7-.4-1.4-.5-.7-.2-1.8-.5-2.4-.6-.2 0-.4 0-.5 0-.2 0-.4 0-.5.1l-.4.4s0 0-.1 0c0 0 0 0 0-.1l.4-.6c.1 0 .2-.1.5-.1h.6c.6.1 1.7.4 2.4.6s1.1.4 1.4.5l.2.4h-.2c-.6-.2-1.1-.5-1.9-.7-.7-.2-1.7-.5-2.3-.6-.1 0-.2 0-.2 0-.4 0-.6.1-.7.2 0 .6 0 .7.1.9-.1 0-.1 0 0 0-.1 0 0 0 0 0z"/><g fill="#ff0"><path d="m66.7 78.8c-.2 0-.4 0-.5.1l-.2.3c.1 0 .2-.1.5-.1h.2c.6 0 1.5.4 2.3.6.7.2 1.3.5 1.9.7l.1-.1-.2-.3c-.4-.1-.7-.4-1.3-.5-.7-.2-1.8-.5-2.4-.6 0-.1-.2-.1-.4-.1z"/><path d="m65.2 81.8c-.1 0-.4 0-.5 0l-.1.2h.2c.4 0 .8.1 1.4.2.7.2 1.5.5 2.4.8.8.4 1.5.7 2.4.9l.1-.1-.1-.2c-.6-.2-1.3-.6-2.1-.8-.9-.4-2.1-.7-2.8-.9-.4-.1-.7-.1-.9-.1z"/><path d="m71 86.4c-.6.1-1.2.1-2.4.5s-3.1.8-4.2 1.3-1.3.8-1.7 1.2v.4c.2-.4.6-.6 1.5-1.1 1.1-.5 2.7-.9 3.9-1.3s1.9-.5 2.6-.6l.1-.2v-.2z"/><path d="m71.1 88.1c-.8.1-1.8.2-3 .6-1.3.4-2.8.8-3.8 1.3-.9.4-1.2.7-1.4.9v.4c.2-.4.6-.6 1.5-1.1 1.1-.5 2.7-.9 4-1.3 1.2-.4 1.9-.5 2.6-.5l.1-.2z"/><path d="m71.8 96.9c-.8.1-1.7.4-2.6.6-1.1.4-2.3.8-3 1.2s-.8.6-.9.8l.1.2c.1-.2.2-.5.9-.7.7-.4 2-.8 3.1-1.2s1.8-.5 2.6-.7l.1-.2z"/><path d="m72.4 98.5c-.6.1-1.3.2-2.3.5-.9.2-2.1.7-3 1.1-.7.4-.9.6-1.2.9l.1.2c.2-.2.5-.6 1.2-.8.7-.4 2-.8 3-1.1s1.5-.4 2.1-.5v-.1-.2z"/><path d="m82.4 104.7-.2.1v5.6h.4v-5.6z"/><path d="m84.1 104.7-.2.1v5.6h.4v-5.6z"/><path d="m94.3 97.4-.3.1v.2c1.1.8 2.1 1.5 3 2.3.8.7 1.5 1.4 1.8 1.9.2.4.2.5.2.7l.2-.4c0-.2 0-.4-.4-.7-.2-.4-.8-.9-1.7-1.7-.6-.8-1.8-1.6-2.8-2.4z"/><path d="m95 93.6v.4c1.7 1.3 3.3 2.5 4.3 3.4.9.8 1.3 1.3 1.4 1.7.1.2.2.5.2.7l.2-.4c0-.2-.1-.4-.2-.7-.1-.4-.5-.8-1.4-1.7-1.1-.8-2.7-2.1-4.5-3.4z"/><path d="m95 88v.3c2.1.5 4.4.9 5.7 1.4s1.9.9 2.5 1.4v-.4c-.6-.5-1.1-.9-2.5-1.4-1.3-.4-3.6-.8-5.7-1.3z"/><path d="m95 86.3v.3c2.1.5 4.4.9 5.7 1.4s1.9.9 2.5 1.4v-.4c-.6-.5-1.1-.9-2.5-1.4-1.3-.3-3.6-.8-5.7-1.3z"/><path d="m94.9 79.1.1.2c1.5.4 3.1.6 4.2.9.9.4 1.5.6 2.1.8l-.1-.4c-.6-.2-1.1-.6-2.1-.8-1.3-.1-2.7-.5-4.2-.7z"/><path d="m94.9 77.4v.3c1.4.4 2.8.7 3.8.9.8.2 1.2.6 1.7.8l-.4-.5c-.5-.2-.9-.6-1.8-.8-1-.1-2.1-.4-3.3-.7z"/><path d="m83.7 69.9v6.6l.2.1.1-.1v-6.6z"/><path d="m82 69.9v6.6l.2.1.1-.1v-6.6z"/></g><path d="m71.2 76.8 23.5-.2.1 16.1c-.2 2-.5 4.2-1.4 5.9s-2.7 3.3-4.5 4.4c-1.8.9-3.4 1.5-5.5 1.5-.1 0-.1 0-.2 0-2 0-4.2-.6-6.1-1.7-1.9-.9-3.4-2.4-4.3-4.2-.8-1.6-1.1-3.6-1.4-5.6z" fill="#f00"/><path d="m71.4 77.1.1 16h.1l-.2-16 23.1-.1.1 15.9h.1l-.1-16z"/><path d="m71.2 76.6c-.1 0-.1 0-.2.1 0 0-.1.1-.1.2l.1 16.2h.1l-.1-16.2v-.1c.1-.1.1-.1.2-.2l23.5-.1c.1 0 .1.1.1.1l.2 16.1h.1l-.1-16.1c0-.1-.1-.2-.2-.2z"/><path d="m71.2 76.7c-.1 0-.1 0 0 0-.1.1-.1.1 0 0v16.3h.4l-.2-15.9 23.3-.2.1 16h.4l-.2-16.2c0-.1-.1-.1-.1-.1z" fill="#fff"/><path d="m71.6 93.1c-.1 6.4 5.2 11.5 11.6 11.5s11.5-5.3 11.5-11.8h-.1c0 6.3-5.1 11.5-11.4 11.6-6.4.1-11.6-5-11.6-11.3z"/><path d="m71.1 93.1c-.1 6.6 5.3 12 12 11.9 6.6 0 12-5.5 11.9-12.1h-.1c0 6.5-5.2 12-11.9 12-6.4.1-11.8-5.3-11.9-11.8z"/><path d="m71.1 93.1c0 6.5 5.5 11.9 12 11.9s11.9-5.5 11.9-12h-.4c0 6.4-5.1 11.6-11.5 11.8-6.4 0-11.6-5.1-11.8-11.5z" fill="#fff"/><path d="m89.9 92.6c-.1 0-.1 0 0 0-.1 3.7-3 6.6-6.6 6.8-3.7 0-6.5-2.8-6.6-6.5v-.1h-.1v.1c0 3.7 3.1 6.6 6.8 6.6 3.5-.1 6.5-3.1 6.5-6.9zm-13.4-10.9s-.2.1 0 0v10.9h.1l-.1-10.9h13.2l.1 10.8h.1l-.1-10.9z"/><path d="m76.5 81.8.1 10.9v.1c0 3.7 3 6.5 6.6 6.5s6.5-3 6.5-6.6v-.1l-.1-10.8z" fill="#fff"/><path d="m77.5 88.6v2.3.4l.1.2c0 .1.1.2.2.4.2.4.6.5.9.6h.2c.4 0 .6-.1.9-.4.4-.2.5-.6.6-.9v-.2-2.3z" fill="#00309a"/><path d="m80.1 89.3c0 .1-.1.4-.4.4-.1 0-.4-.1-.4-.4 0-.1.1-.4.4-.4s.4.3.4.4z" fill="#00309a"/><path d="m78.5 89.3c0 .1-.1.4-.4.4-.1 0-.4-.1-.4-.4 0-.1.1-.4.4-.4s.4.3.4.4z" fill="#00309a"/><path d="m79.3 90.1c0 .1-.1.4-.4.4-.1 0-.4-.1-.4-.4 0-.1.1-.4.4-.4.3.1.4.3.4.4z" fill="#00309a"/><path d="m80.1 90.9c0 .1-.1.4-.4.4-.1 0-.4-.1-.4-.4 0-.1.1-.4.4-.4.3.1.4.3.4.4z" fill="#00309a"/><path d="m78.5 90.9c0 .1-.1.4-.4.4-.1 0-.4-.1-.4-.4 0-.1.1-.4.4-.4.3.1.4.3.4.4z" fill="#00309a"/><path d="m78.1 88.9s0 .1 0 0c0 .1 0 .1 0 0h-.2s0 0-.1.1v.1.1.1.1s0 0 .1.1h.1.1.1s0 0 0-.1 0 0 0-.1v-.1s0 0-.1-.1c.3-.1.1-.1 0-.2.1.1.1 0 0 0z" fill="#fff"/><path d="m79.9 88.9c-.1 0-.1 0-.2.1-.1 0-.1.1-.1.2 0 .1 0 .1.1.2 0 .1.1.1.2.1.1 0 .1 0 .2-.1.1 0 .1-.1.1-.2s0 0 0-.1 0 0 0-.1c-.2 0-.2 0-.3-.1z" fill="#fff"/><path d="m79 89.8c-.1 0-.1 0 0 0h-.2s0 0-.1.1v.1.1.1.1s0 0 .1.1h.1.1.1s0 0 0-.1 0 0 0-.1v-.1s0 0-.1-.1c.1-.1.1-.1 0-.2.1 0 .1 0 0 0z" fill="#fff"/><path d="m79.8 90.6c-.1 0-.1 0 0 0-.1 0-.1 0-.2 0v.1c0 .1 0 .1.1.2h.1.1.1.1v-.1-.1-.1c-.1.1-.2.1-.3 0 .1.1.1 0 0 0z" fill="#fff"/><path d="m78.1 90.6c-.1 0-.2.1-.2.2v.1.1.1l.1.1h.1l.1-.1v-.1-.1s0-.1-.1-.1 0 0-.1 0c.2-.1.2-.1.1-.2.1.1.1 0 0 0z" fill="#fff"/><path d="m81.6 83.3v2.3.4l.1.2c0 .1.1.2.2.4.2.4.6.5.9.6h.2c.4 0 .6-.1.9-.4.4-.2.5-.6.6-.9v-.2-2.3z" fill="#00309a"/><path d="m84.3 83.9c0 .1-.1.4-.4.4-.1 0-.4-.1-.4-.4 0-.1.1-.4.4-.4.2.2.4.3.4.4z" fill="#00309a"/><path d="m82.5 84.1c0 .1-.1.4-.4.4-.1 0-.4-.1-.4-.4 0-.1.1-.4.4-.4s.4.1.4.4z" fill="#00309a"/><path d="m83.4 84.8c0 .1-.1.4-.4.4-.1 0-.4-.1-.4-.4 0-.1.1-.4.4-.4.2.1.4.3.4.4z" fill="#00309a"/><path d="m84.2 85.6c0 .1-.1.4-.4.4-.1 0-.4-.1-.4-.4 0-.1.1-.4.4-.4.3.2.4.3.4.4z" fill="#00309a"/><path d="m82.5 85.7c0 .1-.1.4-.4.4-.1 0-.4-.1-.4-.4 0-.1.1-.4.4-.4.3.1.4.2.4.4z" fill="#00309a"/><path d="m82.3 83.7h-.3s0 0-.1.1v.1.1.1.1s0 0 .1.1h.1.1.1s0 0 0-.1 0 0 0-.1v-.1s0 0-.1-.1c.2-.2.2-.2.1-.2z" fill="#fff"/><path d="m83.9 83.7c-.1 0-.1 0-.2.1-.1 0-.1.1-.1.2 0 .1 0 .1.1.2 0 .1.1.1.2.1.1 0 .1 0 .2-.1.1 0 .1-.1.1-.2s0 0 0-.1 0 0 0-.1-.1-.1-.3-.1z" fill="#fff"/><path d="m83.1 84.5c-.1 0-.1 0 0 0h-.2s0 0-.1.1v.1.1.2.1s0 0 .1.1h.1.1.1s0 0 0-.1 0 0 0-.1v-.1s0 0-.1-.1c.1-.3.1-.3 0-.3z" fill="#fff"/><path d="m83.9 85.4c-.1 0-.1 0 0 0-.1 0-.1 0-.2 0v.1c0 .1 0 .1.1.2h.1.1.1.1v-.1-.1-.1c-.1 0-.1 0-.3 0z" fill="#fff"/><path d="m82.3 85.4c-.1 0-.2.1-.2.2v.1.1.1l.1.1h.1l.1-.1v-.1-.1s0-.1-.1-.1 0 0-.1 0c.2-.2.1-.2.1-.2z" fill="#fff"/><path d="m81.7 88.6v2.3.4l.1.2c0 .1.1.2.2.4.2.4.6.5.9.6h.2c.4 0 .6-.1.9-.4.4-.2.5-.6.6-.9v-.2-2.3z" fill="#00309a"/><path d="m84.3 89.3c0 .1-.1.4-.4.4-.1 0-.4-.1-.4-.4 0-.1.1-.4.4-.4s.4.1.4.4z" fill="#00309a"/><path d="m82.6 89.3c0 .1-.1.4-.4.4-.1 0-.4-.1-.4-.4 0-.1.1-.4.4-.4s.4.1.4.4z" fill="#00309a"/><path d="m83.5 90.1c0 .1-.1.4-.4.4-.1 0-.4-.1-.4-.4 0-.1.1-.4.4-.4.1.1.4.2.4.4z" fill="#00309a"/><path d="m84.3 90.9c0 .1-.1.4-.4.4-.1 0-.4-.1-.4-.4 0-.1.1-.4.4-.4.3.1.4.2.4.4z" fill="#00309a"/><path d="m82.6 90.9c0 .1-.1.4-.4.4-.1 0-.4-.1-.4-.4 0-.1.1-.4.4-.4.3.1.4.2.4.4z" fill="#00309a"/><path d="m82.3 88.9h-.3s0 0-.1.1v.1.1.1.1s0 0 .1.1h.1.1.1s0 0 0-.1 0 0 0-.1v-.1s0 0-.1-.1c.3-.1.2-.2.1-.2.1 0 .1 0 0 0z" fill="#fff"/><path d="m83.9 88.9c-.1 0-.1 0-.2.1-.1 0-.1.1-.1.2s0 .1.1.2c0 .1.1.1.2.1.1 0 .1 0 .2-.1.1 0 .1-.1.1-.2s0 0 0-.1 0 0 0-.1c0 0 0-.1-.3-.1.2 0 .2 0 0 0z" fill="#fff"/><path d="m83.1 89.8c-.1 0-.1 0 0 0h-.2s0 0-.1.1v.1.1.1.1s0 0 .1.1h.1.1.1s0 0 0-.1 0 0 0-.1v-.1s0 0-.1-.1c.1-.2.1-.2 0-.2z" fill="#fff"/><path d="m83.9 90.6c-.1 0-.1 0 0 0-.1 0-.1 0-.2 0v.1c0 .1 0 .1.1.2h.1.1.1.1v-.1-.1-.1c-.1 0-.1 0-.3 0z" fill="#fff"/><path d="m82.3 90.6c-.1 0-.2.1-.2.2v.1.1.1l.1.1h.1l.1-.1v-.1-.1s0-.1-.1-.1 0 0-.1 0c.2-.2.2-.2.1-.2z" fill="#fff"/><path d="m86 88.5v2.3.4l.1.2c0 .1.1.2.2.4.2.4.6.5.9.6h.2c.4 0 .6-.1.9-.4.4-.2.5-.6.6-.9v-.2-2.3z" fill="#00309a"/><path d="m88.6 89.2c0 .1-.1.4-.4.4-.1 0-.4-.1-.4-.4 0-.1.1-.4.4-.4.3.1.4.2.4.4z" fill="#00309a"/><path d="m86.9 89.2c0 .1-.1.4-.4.4-.1 0-.4-.1-.4-.4 0-.1.1-.4.4-.4.2.1.4.2.4.4z" fill="#00309a"/><path d="m87.6 90c0 .1-.1.4-.4.4-.1 0-.4-.1-.4-.4 0-.1.1-.4.4-.4.3.2.4.3.4.4z" fill="#00309a"/><path d="m88.5 90.8c0 .1-.1.4-.4.4-.1 0-.4-.1-.4-.4 0-.1.1-.4.4-.4.2.2.4.3.4.4z" fill="#00309a"/><path d="m86.8 90.8c0 .1-.1.4-.4.4-.1 0-.4-.1-.4-.4 0-.1.1-.4.4-.4.3.2.4.3.4.4z" fill="#00309a"/><path d="m86.6 88.9h-.2s0 0-.1.1v.1.1.1.1s0 0 .1.1h.1.1.1s0 0 0-.1 0 0 0-.1v-.1s0 0-.1-.1c.1-.2.1-.2 0-.2z" fill="#fff"/><path d="m88.2 88.9c-.1 0-.1 0-.2.1-.1 0-.1.1-.1.2 0 .1 0 .1.1.2 0 .1.1.1.2.1.1 0 .1 0 .2-.1.1 0 .1-.1.1-.2s0 0 0-.1 0 0 0-.1-.2-.1-.3-.1z" fill="#fff"/><path d="m87.4 89.8c-.1 0-.1 0 0 0h-.2s0 0-.1.1v.1.1.1.1s0 0 .1.1h.1.1.1s0 0 0-.1 0 0 0-.1v-.1s0 0-.1-.1c.1-.2.1-.2 0-.2z" fill="#fff"/><path d="m88.2 90.6c-.1 0-.1 0 0 0-.1 0-.1 0-.2 0v.1c0 .1 0 .1.1.2h.1.1.1.1v-.1-.1-.1c-.2 0-.2 0-.3 0z" fill="#fff"/><path d="m86.6 90.6c-.1 0-.2.1-.2.2v.1.1.1l.1.1h.1l.1-.1v-.1-.1s0-.1-.1-.1 0 0-.1 0c.2-.2.1-.2.1-.2z" fill="#fff"/><path d="m81.7 93.8v2.3.4l.1.2c0 .1.1.2.2.4.2.4.6.5.9.6h.2c.4 0 .6-.1.9-.4.4-.2.5-.6.6-.9v-.2-2.3z" fill="#00309a"/><path d="m84.3 94.5c0 .1-.1.4-.4.4-.1 0-.4-.1-.4-.4 0-.1.1-.4.4-.4.3.1.4.2.4.4z" fill="#00309a"/><path d="m82.6 94.5c0 .1-.1.4-.4.4-.1 0-.4-.1-.4-.4 0-.1.1-.4.4-.4.3.1.4.2.4.4z" fill="#00309a"/><path d="m83.5 95.3c0 .1-.1.4-.4.4-.1 0-.4-.1-.4-.4 0-.1.1-.4.4-.4.3.1.4.2.4.4z" fill="#00309a"/><path d="m84.3 96.2c0 .1-.1.4-.4.4-.1 0-.4-.1-.4-.4 0-.1.1-.4.4-.4s.4.1.4.4z" fill="#00309a"/><path d="m82.6 96.2c0 .1-.1.4-.4.4-.1 0-.4-.1-.4-.4 0-.1.1-.4.4-.4s.4.1.4.4z" fill="#00309a"/><path d="m82.4 94.2c-.1 0-.1 0 0 0h-.2s0 0-.1.1v.1.1.1.1s0 0 .1.1h.1.1.1s0 0 0-.1 0 0 0-.1v-.1s0 0-.1-.1c.1-.1.1-.2 0-.2z" fill="#fff"/><path d="m84.1 94.2c-.1 0-.1 0-.2.1-.1 0-.1.1-.1.2 0 .1 0 .1.1.2 0 .1.1.1.2.1.1 0 .1 0 .2-.1.1 0 .1-.1.1-.2s0 0 0-.1 0 0 0-.1c-.2 0-.2-.1-.3-.1z" fill="#fff"/><path d="m83.2 95c-.1 0-.1 0 0 0h-.2s0 0-.1.1v.1.1.1.1s0 0 .1.1h.1.1.1s0 0 0-.1 0 0 0-.1v-.1s0 0-.1-.1c.2-.2.2-.2 0-.2z" fill="#fff"/><path d="m84.1 95.8c-.2 0-.2 0 0 0-.1 0-.1 0 0 0-.1 0-.1 0-.2 0v.1c0 .1 0 .1.1.2h.1.1.1.1v-.1-.1-.1c-.2.1-.2 0-.3 0z" fill="#fff"/><path d="m82.4 95.8c-.1 0-.2.1-.2.2v.1.1.1l.1.1h.1l.1-.1v-.1-.1s0-.1-.1-.1 0 0-.1 0c.1-.2.1-.2.1-.2z" fill="#fff"/><path d="m84.8 80.9-.1-1.2c.1 0 .1-.1.1-.1v-.1c.1-.1.1-.1.1-.1v-.1h-3.4v.1s0 .1.1.1v.1l.1.1-.1 1.2c-.1 0-.1 0-.1.1v.2h.2 3.3s.1 0 .1-.1c0 0 0-.1 0-.2-.2.1-.3.1-.3 0zm0 0s.1 0 0 0c.1.2.1.2.1.3s-.1.1-.1.1h-3.3c-.1 0-.2 0-.2-.1s-.1-.2 0-.2c0-.1.1-.1.2-.1l.1-1.2-.1-.1c0-.1 0-.1 0-.2l-.1-.1c0-.1 0-.1 0-.1h3.4l.1.1c0 .1-.1.1-.1.2l.1.1c0 .1-.1.1-.1.1z"/><path d="m84.8 80.9s0 .1 0 0h-3.3z"/><path d="m84.7 79.7c0 .1 0 .1 0 0h-3.1 3.1c-.2 0 0 0 0 0z"/><path d="m82.3 80.9c0-.2 0-.6.1-.8s.4-.4.6-.5c.2.1.5.2.6.4s.2.5.2.7c0-.2-.1-.6-.2-.7-.1-.2-.4-.2-.6-.4-.2.1-.5.2-.6.4 0 .4 0 .6-.1.9 0 0 0 .1 0 0z"/><path d="m82.8 80.9c0-.2 0-.4 0-.5.1-.1.2-.2.4-.4l.4.4s.1.4.1.5c0-.2 0-.4-.1-.5s-.2-.2-.4-.4c-.1.1-.2.1-.4.2v.7c-.2 0-.2 0 0 0z"/><path d="m81.7 79.1-.1-.7-.1-.1v-.4h.2v.2h.2v-.2h.2v.2h.2v-.2h.2v.4l-.1.1v.7-.7l.1-.1v-.4h-.2v.2h-.2v-.2h-.2v.2h-.2v-.2h-.2v.4l.1.1.1.7s0 .1 0 0c-.1.1-.1 0 0 0-.1 0-.1 0 0 0z"/><path d="m82.8 79.1-.1-1.3h-.1v-.4h.2v.2h.2v-.2h.2v.2h.2v-.2h.2v.4h-.2v1.3-1.3l.1-.1v-.4h-.1v.2h-.2v-.2h-.2v.2h-.2v-.2h-.2v.4h.1l.1 1.4s0 .1 0 0c-.2.1-.2 0 0 0-.2 0-.2 0 0 0z"/><path d="m83.8 79.1-.1-.7-.1-.1v-.4h.2v.2h.2v-.2h.2v.2h.2v-.2h.2v.4l-.1.1v.7-.7-.1-.4h-.2v.2h-.2v-.2h-.2v.2h-.2v-.2h-.2v.4l.1.1z"/><path d="m83.8 78.4h.7-.7c0-.2 0 0 0 0z"/><path d="m83 78.1.1.4h-.1z"/><path d="m84.2 78.6.1.2h-.1z"/><path d="m82 78.6.1.2h-.1z"/><path d="m83.2 79.8c.2.1.4.2.5.4s.2.5.2.7h.8l-.1-1.1z" fill="#ff0"/><path d="m81.5 81c-.1 0-.1 0 0 0-.1.1-.1.1-.1.2v.1h.2 3.2s.1 0 .1-.1v-.1-.1h-.1z" fill="#ff0"/><path d="m83.1 79.8c-.2.1-.5.2-.6.4s-.1.5-.2.7h.4c0-.2 0-.4.1-.5s.2-.2.4-.4l.4.4s.1.4.1.5h.4c0-.2-.1-.6-.2-.7-.3-.3-.5-.3-.8-.4z" fill="#ff0"/><path d="m83.1 80.1c-.1.1-.2.1-.4.2-.1.1-.1.4-.1.5h.7c0-.2 0-.4-.1-.5.2 0 0-.2-.1-.2z" fill="#ff0"/><path d="m81.5 79.4s0 .2 0 0c0 .1 0 .1 0 0 0 .1 0 .2.1.2h3.1c.1 0 .1-.1.1-.1s0 0 0-.1z" fill="#ff0"/><path d="m81.5 79.2c-.2 0-.2 0 0 0v.2h3.2c.1-.1.1-.1.1-.1s0 0 0-.1z" fill="#ff0"/><path d="m81.6 79.8-.1 1.2h.8c0-.2.1-.6.2-.7s.4-.2.5-.4z" fill="#ff0"/><path d="m82 78.6.1.2h-.1zm-.3-.2v.7h.7v-.7z" fill="#ff0"/><path d="m82.4 77.9-.2.1v-.1h-.2v.1h-.2v-.1h-.2v.4l.1.1h.8l.1-.1v-.4z" fill="#ff0"/><path d="m83.1 78.1.1.4h-.1zm-.3-.3v1.3h.7v-1.3z" fill="#ff0"/><path d="m83.5 77.3-.2.1v-.1h-.1v.1h-.2v-.1h-.1v.4h.1.7l.1-.1v-.4h-.2v.1z" fill="#ff0"/><path d="m84.2 78.6.1.2h-.1zm-.4-.2v.7h.7v-.7z" fill="#ff0"/><path d="m84.5 77.9-.2.1v-.1h-.1v.1h-.2v-.1h-.2v.4l.1.1h.8v-.1-.4z" fill="#ff0"/><path d="m93.8 80.9-.1-1.2c.1 0 .1-.1.1-.1v-.1c.1-.1.1-.1.1-.1v-.1h-3.4v.1s0 .1.1.1v.1l.1.1-.1 1.2c-.1 0-.1 0-.1.1v.2h.2 3.3s.1 0 .1-.1c0 0 0-.1 0-.2-.1 0-.2 0-.3 0zm.1 0s.1 0 0 0c.1.2.1.2.1.3s-.1.1-.1.1h-3.3c-.1 0-.2 0-.2-.1s-.1-.2 0-.2c0-.1.1-.1.2-.1l.1-1.2-.1-.1c0-.1 0-.1 0-.2l-.1-.1c0-.1 0-.1 0-.1h3.4l.1.1c0 .1-.1.1-.1.2l.1.1c0 .1-.1.1-.1.1z"/><path d="m93.9 80.9h-3.3 3.3c-.1-.2-.1-.2 0 0 0-.2 0-.2 0 0z"/><path d="m93.8 79.7h-3.1 3.1c-.1-.1-.1-.1 0 0 0-.1 0-.1 0 0z"/><path d="m91.4 80.9c0-.2 0-.6.1-.8s.4-.4.6-.5c.2.1.5.2.6.4s.2.5.2.7c0-.2-.1-.6-.2-.7-.1-.2-.4-.2-.6-.4-.2.1-.5.2-.6.4 0 .3-.1.5-.1.9 0-.2 0 0 0 0z"/><path d="m91.8 80.9c0-.2 0-.4 0-.5.1-.1.2-.2.4-.4l.4.4s.1.4.1.5c0-.2 0-.4-.1-.5s-.2-.2-.4-.4c-.1.1-.2.1-.4.2v.7c0-.2 0-.2 0 0z"/><path d="m90.8 79.1-.1-.7-.1-.1v-.4h.2v.2h.2v-.2h.2v.2h.2v-.2h.2v.4l-.1.1v.7-.7l.1-.1v-.4h-.2v.2h-.2v-.2h-.2v.2h-.2v-.2h-.2v.4l.1.1.1.7c-.1 0-.1 0 0 0-.1 0-.1-.1 0 0-.1-.1 0 0 0 0z"/><path d="m90.8 78.2h.7-.7c-.1.2-.1.2 0 0-.1 0-.1 0 0 0-.1 0 0 0 0 0z"/><path d="m91.9 79.1-.1-1.4v-.4h.2v.2h.2v-.2h.2v.2h.2v-.2h.4v.4l-.1.1v1.3-1.3l.1-.1v-.4h-.2v.2h-.2v-.2h-.2v.2h-.4v-.2h-.2v.4l.1 1.4c-.1 0-.1 0 0 0-.1-.1-.1-.1 0 0-.1-.1 0-.1 0 0z"/><path d="m93 79-.1-.7h-.1v-.4h.2v.2h.2v-.2h.2v.2h.2v-.2h.2v.4h-.2v.7-.7l.1-.1v-.4h-.2v.2h-.2v-.2h-.2v.2h-.2v-.2h-.2v.4l.4.1v.7c-.1 0-.1.1-.1 0-.2.1-.2 0 0 0-.2 0-.2 0 0 0z"/><path d="m91.8 77.7h.7z"/><path d="m92.1 78 .1.4h-.1z"/><path d="m93.3 78.6.1.2h-.1z"/><path d="m91.1 78.6.1.2h-.1z"/><path d="m92.4 79.7c.2.1.4.2.5.4s.2.5.2.7h.8l-.1-1.1z" fill="#ff0"/><path d="m90.6 80.9c-.1 0-.1 0 0 0-.1.1-.1.1-.1.2v.1h.2 3.2s.1 0 .1-.1v-.1-.1h-.1z" fill="#ff0"/><path d="m92.1 79.7c-.2.1-.5.2-.6.4s-.1.5-.2.7h.4c0-.2 0-.4.1-.5s.2-.2.4-.4l.4.4s.1.4.1.5h.3c0-.2-.1-.6-.2-.7-.2-.2-.4-.3-.7-.4z" fill="#ff0"/><path d="m92.3 80c-.1.1-.2.1-.4.2-.1.1-.1.4-.1.5h.7c0-.2 0-.4-.1-.5.1-.1 0-.1-.1-.2z" fill="#ff0"/><path d="m90.6 79.3c0 .1 0 .1 0 0 0 .1 0 .2.1.2h3.1c.1 0 .1-.1.1-.1s0 0 0-.1z" fill="#ff0"/><path d="m90.5 79.1c0 .1 0 .1 0 0v.2h3.2c.1-.1.1-.1.1-.1s0 0 0-.1z" fill="#ff0"/><path d="m90.7 79.7-.1 1.2h.8c0-.2.1-.6.2-.7s.4-.2.5-.4z" fill="#ff0"/><path d="m91.1 78.6.1.2h-.1zm-.3-.2v.7h.7v-.7z" fill="#ff0"/><path d="m91.4 77.9-.2.1v-.1h-.1v.1h-.2v-.1h-.2v.4l.1.1h.8l.1-.1v-.4z" fill="#ff0"/><path d="m92.1 78 .1.4h-.1zm-.3-.2v1.3h.7v-1.3z" fill="#ff0"/><path d="m92.6 77.2-.2.1v-.1h-.1v.1h-.3v-.1h-.1v.4h.1.7l.1-.1v-.4z" fill="#ff0"/><path d="m93.3 78.6.1.2h-.1zm-.3-.4v.8h.7v-.7h-.7z" fill="#ff0"/><path d="m93.7 77.8-.2.1v-.1h-.1v.1h-.2v-.1h-.2v.4l.1.1h.8l.1-.1v-.4z" fill="#ff0"/><path d="m93.9 90.1-.1-1.2c.1 0 .1-.1.1-.1v-.1c.1-.1.1-.1.1-.1v-.1h-3.4v.1s0 .1.1.1v.1l.1.1-.1 1.2c-.1 0-.1 0-.1.1v.2h.2 3.3s.1 0 .1-.1c0 0 0-.1 0-.2 0 .1-.2 0-.3 0zm.1 0s.1 0 0 0c.1.2.1.2.1.3s-.1.1-.1.1h-3.3c-.1 0-.2 0-.2-.1s-.1-.2 0-.2c0-.1.1-.1.2-.1l.1-1.2-.1-.1c0-.1 0-.1 0-.2l-.1-.1c0-.1 0-.1 0-.1h3.4l.1.1c0 .1-.1.1-.1.2l.1.1c0 .1-.1.1-.1.1z"/><path d="m93.9 88.7h-3.3 3.3c0-.1 0 0 0 0z"/><path d="m91.5 90.1c0-.2 0-.6.1-.8s.4-.4.6-.5c.2.1.5.2.6.4s.2.5.2.7c0-.2-.1-.6-.2-.7-.1-.2-.4-.2-.6-.4-.2.1-.5.2-.6.4.1.3-.1.7-.1.9z"/><path d="m91.9 90.1c0-.2 0-.4 0-.5l.4-.4.4.4s.1.4.1.5c0-.2 0-.4-.1-.5s-.2-.2-.4-.4c-.1.1-.2.1-.4.2z"/><path d="m90.9 88.3-.1-.7-.1-.1v-.4h.2v.2h.2v-.2h.2v.2h.2v-.2h.2v.4l-.1.1v.7-.7l.1-.1v-.4h-.2v.2h-.2v-.2h-.2v.2h-.2v-.2h-.2v.4l.1.1.1.7c-.1 0-.1 0 0 0-.1 0 0 0 0 0z"/><path d="m91.9 88.3-.1-1.3v-.1-.4h.2v.2h.2v-.2h.2v.2h.2v-.2h.4v.4l-.2.1v1.3-1.3l.1-.1v-.4h-.2v.2h-.2v-.2h-.2v.2h-.3v-.2h-.2v.4l.1.1z"/><path d="m93.1 88.3-.1-.7-.1-.1v-.4h.2v.2h.2v-.2h.2v.2h.2v-.2h.3v.4l-.1.1v.7-.7l.1-.1v-.4h-.2v.2h-.2v-.2h-.2v.2h-.2v-.2h-.2v.4l.1.1v.7c-.1 0-.1 0 0 0-.1 0-.1-.1 0 0 0-.1 0 0 0 0z"/><path d="m93.1 87.6h.7-.7c-.1 0-.1 0 0 0-.1-.1-.1-.1 0 0 0-.1 0-.1 0 0z"/><path d="m92.3 87.4.1.4h-.1z"/><path d="m93.4 87.9.1.2h-.1z"/><path d="m91.2 87.9.1.2h-.1z"/><path d="m92.4 88.9c.2.1.4.2.5.4s.2.5.2.7h.8l-.1-1.1z" fill="#ff0"/><path d="m90.7 90.2c-.1 0-.1 0 0 0-.1.1-.1.1-.1.2v.1h.2 3.2s.1 0 .1-.1v-.1-.1h-.1z" fill="#ff0"/><path d="m92.3 89c-.2.1-.5.2-.6.4s-.1.5-.2.7h.4c0-.2 0-.4.1-.5s.2-.2.4-.4l.4.4s.1.4.1.5h.4c0-.2-.1-.6-.2-.7-.4-.2-.6-.4-.8-.4z" fill="#ff0"/><path d="m92.3 89.3c-.1.1-.2.1-.4.2-.1.1-.1.4-.1.5h.7c0-.2 0-.4-.1-.5.2 0 .1-.1-.1-.2z" fill="#ff0"/><path d="m90.7 88.7s0 .1 0 0c0 .1 0 .1 0 0 0 .1 0 .2.1.2h3.1c.1 0 .1-.1.1-.1s0 0 0-.1z" fill="#ff0"/><path d="m90.6 88.3c0 .2 0 .2 0 0v.2h3.2c.1-.1.1-.1.1-.1s0 0 0-.1z" fill="#ff0"/><path d="m90.8 88.9-.1 1.2h.8c0-.2.1-.6.2-.7s.4-.2.5-.4z" fill="#ff0"/><path d="m91.2 87.9.1.2h-.1zm-.4-.3v.7h.7v-.7z" fill="#ff0"/><path d="m91.5 87.1-.2.1v-.1h-.1v.1h-.2v-.1h-.2v.4l.1.1h.8l.1-.1v-.4z" fill="#ff0"/><path d="m92.3 87.4.1.4h-.1zm-.4-.4v1.3h.7v-1.3z" fill="#ff0"/><path d="m92.6 86.4-.2.1v-.1h-.1v.1h-.3v-.1h-.1v.4h.1.7l.1-.1v-.4z" fill="#ff0"/><path d="m93.4 87.9.1.2h-.1zm-.3-.3v.7h.7v-.7z" fill="#ff0"/><path d="m93.8 87.1-.2.1v-.1h-.1v.1h-.2v-.1h-.3v.4l.1.1h.8l.1-.1v-.4z" fill="#ff0"/><path d="m75.6 81-.1-1.2c.1 0 .1-.1.1-.1v-.1c.1-.1.1-.1.1-.1v-.1h-3.4v.1s0 .1.1.1v.1l.1.1-.1 1.2c-.1 0-.1 0-.1.1v.2h.2 3.3s.1 0 .1-.1c0 0 0-.1 0-.2-.1 0-.3 0-.3 0zm0 0s.1 0 0 0c.1.2.1.2.1.3s-.1.1-.1.1h-3.3c-.1 0-.2 0-.2-.1s-.1-.2 0-.2c0-.1.1-.1.2-.1l.1-1.2-.1-.1c0-.1 0-.1 0-.2l-.1-.1c0-.1 0-.1 0-.1h3.4l.1.1c0 .1-.1.1-.1.2l.1.1c0 .1-.1.1-.1.1z"/><path d="m75.5 79.4c0 .2 0 .2 0 0h-3.3z"/><path d="m73.1 81c0-.2 0-.6.1-.8s.4-.4.6-.5c.2.1.5.2.6.4s.2.5.2.7c0-.2-.1-.6-.2-.7-.1-.2-.4-.2-.6-.4-.2.1-.5.2-.6.4.1.3-.1.6-.1.9z"/><path d="m73.5 81c0-.2 0-.4 0-.5l.4-.4.4.4s.1.4.1.5c0-.2 0-.4-.1-.5s-.2-.2-.4-.4c-.1.1-.2.1-.4.2.1.3.1.4 0 .7z"/><path d="m72.5 79.2-.1-.7-.1-.1v-.4h.2v.2h.2v-.2h.3v.2h.2v-.2h.2v.4l-.1.1v.7-.7l.1-.1v-.4h-.2v.2h-.2v-.2h-.2v.2h-.2v-.2h-.2v.4l.1.1v.7c-.1 0-.1 0 0 0z"/><path d="m72.5 78.5h.7-.7c-.1 0-.1 0 0 0-.1 0-.1-.1 0 0 0-.1 0 0 0 0z"/><path d="m73.6 79.2-.1-1.3-.1-.1h-.1v-.4h.2v.2h.2v-.2h.3v.2h.2v-.2h.2v.4l-.1.1v1.3-1.3l.1-.1v-.4h-.2v.2h-.2v-.2h-.2v.2h-.2v-.2h-.2v.4h.1l.1.1v1.3c-.1 0-.1 0 0 0-.1 0 0 0 0 0z"/><path d="m74.7 79.2-.1-.7-.1-.1v-.4h.2v.2h.2v-.2h.2v.2h.2v-.2h.2v.4l-.1.1v.7-.7l.1-.1v-.4h-.2v.2h-.2v-.2h-.2v.2h-.2v-.2h-.2v.4l.1.1.1.7c-.1-.1 0-.1 0 0 0-.1 0-.1 0 0z"/><path d="m74.7 78.4h.7-.7c0 .1-.1 0 0 0-.1 0 0 0 0 0z"/><path d="m73.6 77.9h.7-.7c-.1 0-.1 0 0 0-.1-.1-.1-.1 0 0-.1-.1 0-.1 0 0z"/><path d="m73.9 78.2.1.4h-.1z"/><path d="m75 78.7.1.2h-.1z"/><path d="m72.8 78.7.1.2h-.1z"/><path d="m74.1 79.8c.2.1.4.2.5.4s.2.5.2.7h.8l-.1-1.1z" fill="#ff0"/><path d="m72.3 81c-.1 0-.1 0 0 0-.1.1-.1.1-.1.2v.1h.2 3.2s.1 0 .1-.1v-.1-.1h-.1z" fill="#ff0"/><path d="m74 79.8c-.2.1-.5.2-.6.4s-.1.5-.2.7h.4c0-.2 0-.4.1-.5s.2-.2.4-.4l.4.4s.1.4.1.5h.4c0-.2-.1-.6-.2-.7-.5-.2-.6-.3-.8-.4z" fill="#ff0"/><path d="m74 80.1c-.1.1-.2.1-.4.2-.1.1-.1.4-.1.5h.7c0-.2 0-.4-.1-.5.1.1 0 0-.1-.2z" fill="#ff0"/><path d="m72.3 79.6c0 .1 0 .1 0 0 0 .1 0 .2.1.2h3.1c.1 0 .1-.1.1-.1s0 0 0-.1z" fill="#ff0"/><path d="m72.2 79.2c0 .1 0 .1 0 0v.2h3.2c.1-.1.1-.1.1-.1s0 0 0-.1z" fill="#ff0"/><path d="m72.4 79.8-.1 1.2h.8c0-.2.1-.6.2-.7s.4-.2.5-.4z" fill="#ff0"/><path d="m72.9 78.7.1.3h-.1zm-.4-.2v.7h.7v-.7z" fill="#ff0"/><path d="m73.1 78-.2.1v-.1h-.1v.1h-.2v-.1h-.2v.4l.1.1h.8l.1-.1v-.4z" fill="#ff0"/><path d="m74 78.2.1.4h-.1zm-.4-.3v1.3h.7v-1.3z" fill="#ff0"/><path d="m74.3 77.3-.2.1v-.1h-.1v.1h-.2v-.1h-.1v.4h.1.7l.1-.1v-.4z" fill="#ff0"/><path d="m75 78.7.1.2h-.1zm-.3-.2v.7h.7v-.7z" fill="#ff0"/><path d="m75.4 77.9-.2.1v-.1h-.2v.1h-.2v-.1h-.2v.4l.1.1h.8l.1-.1v-.4z" fill="#ff0"/><path d="m75.5 90.2-.1-1.2c.1 0 .1-.1.1-.1v-.1c.1-.1.1-.1.1-.1v-.1h-3.4v.1s0 .1.1.1v.1l.1.1-.1 1.2c-.1 0-.1 0-.1.1v.2h.2 3.3s.1 0 .1-.1c0 0 0-.1 0-.2 0 .2-.2.2-.3 0 .1.2 0 .2 0 0m.1 0s.1 0 0 0c.1.2.1.2.1.3s-.1.1-.1.1h-3.3c-.1 0-.2 0-.2-.1s-.1-.2 0-.2c0-.1.1-.1.2-.1l.1-1.2-.1-.1c0-.1 0-.1 0-.2l-.1-.1c0-.1 0-.1 0-.1h3.4l.1.1c0 .1-.1.1-.1.2l.1.1c0 .1-.1.1-.1.1z"/><path d="m75.6 90.2s0 .2 0 0c0 .2 0 .2 0 0h-3.3 3.3c-.1 0-.1 0 0 0z"/><path d="m75.5 89s0 .2 0 0c0 .2 0 .2 0 0h-3.1 3.1c-.1 0-.1 0 0 0z"/><path d="m73.1 90.2c0-.2 0-.6.1-.8s.4-.4.6-.5c.2.1.5.2.6.4s.2.5.2.7c0-.2-.1-.6-.2-.7-.1-.2-.4-.2-.6-.4-.2.1-.5.2-.6.4.1.5-.1.7-.1.9 0 .2 0 .2 0 0z"/><path d="m73.5 90.2c0-.2 0-.4 0-.5.1-.1.2-.2.4-.4l.4.4s.1.4.1.5c0-.2 0-.4-.1-.5s-.2-.2-.4-.4c-.1.1-.2.1-.4.2v.7s0 .2 0 0z"/><path d="m72.5 88.5-.1-.7h-.1v-.4h.2v.2h.2v-.2h.3v.2h.2v-.2h.2v.4h-.2v.7-.7l.1-.1v-.4h-.2v.2h-.2v-.2h-.2v.2h-.2v-.2h-.2v.4l.1.1.1.7c0 .1-.1.1 0 0-.1.1-.1.1 0 0-.1 0-.1 0 0 0-.1 0 0 0 0 0z"/><path d="m72.5 87.7h.7-.7c-.1.2-.1 0 0 0-.1 0-.1 0 0 0-.1 0 0 0 0 0z"/><path d="m73.6 88.5-.1-1.3-.1-.2v-.4h.2v.2h.2v-.2h.2v.2h.2v-.2h.2v.4l-.1.1v1.3-1.3l.1-.1v-.4h-.2v.2h-.2v-.2h-.2v.2h-.2v-.2h-.2v.4l.1.1.1 1.4c0 .1-.1.1 0 0-.1.1-.1.1 0 0-.1 0-.1 0 0 0-.1 0 0 0 0 0z"/><path d="m74.7 88.5-.1-.7-.1-.1v-.4h.2v.2h.2v-.2h.2v.2h.2v-.2h.2v.4l-.2.1v.7-.7l.1-.1v-.4h-.2v.2h-.2v-.2h-.2v.2h-.2v-.2h-.2v.4l.1.1.2.7c-.1 0-.1 0 0 0z"/><path d="m73.9 87.5.1.4h-.1z"/><path d="m75 88 .1.2h-.1z"/><path d="m72.8 88 .1.2h-.1z"/><path d="m74.1 89.2c.2.1.4.2.5.4s.2.5.2.7h.8l-.1-1.1z" fill="#ff0"/><path d="m72.3 90.4c-.1 0-.1 0 0 0-.1.1-.1.1-.1.2v.1h.2 3.2s.1 0 .1-.1v-.1-.1h-.1z" fill="#ff0"/><path d="m73.9 89.2c-.2.1-.5.2-.6.4s-.1.5-.2.7h.4c0-.2 0-.4.1-.5s.2-.2.4-.4l.4.4s.1.4.1.5h.4c0-.2-.1-.6-.2-.7s-.6-.3-.8-.4z" fill="#ff0"/><path d="m74 89.5c-.1.1-.2.1-.4.2s-.1.4-.1.5h.7c0-.2 0-.4-.1-.5.1-.1 0-.2-.1-.2z" fill="#ff0"/><path d="m72.3 88.8c0 .1 0 .1 0 0 0 .1 0 .2.1.2h3.1c.1 0 .1-.1.1-.1s0 0 0-.1z" fill="#ff0"/><path d="m72.2 88.6s0 .1 0 0v.2h3.2c.1-.1.1-.1.1-.1s0 0 0-.1z" fill="#ff0"/><path d="m72.4 89.2-.1 1.2h.8c0-.2.1-.6.2-.7s.4-.2.5-.4z" fill="#ff0"/><path d="m72.8 88 .1.2h-.1zm-.3-.1v.7h.7v-.7z" fill="#ff0"/><path d="m73.1 87.3-.2.1v-.1h-.1v.1h-.2v-.1h-.2v.4l.1.1h.8l.1-.1v-.4z" fill="#ff0"/><path d="m73.9 87.5.1.4h-.1zm-.4-.4v1.3h.7v-1.3z" fill="#ff0"/><path d="m74.3 86.7-.2.1v-.1h-.1v.1h-.2v-.1h-.1v.3h.1.7l.1-.1v-.4h-.2z" fill="#ff0"/><path d="m75 88 .1.2h-.1zm-.3-.3v.7h.7v-.7z" fill="#ff0"/><path d="m75.4 87.3-.2.1v-.1h-.2v.1h-.2v-.1h-.2v.4l.1.1h.8l.1-.1v-.4z" fill="#ff0"/><path d="m78.6 98.3-.9-.7c0-.1 0-.1 0-.1s0 0-.1 0c0-.1 0-.1 0-.2 0 0 0 0-.1 0l-2.5 2.3v.1h.1c0 .1 0 .1.1.1h.1.1l.7.9v.1l.1.1s.1 0 .1-.1l2.3-2.5c0-.1 0-.1 0 0zm0-.1c.1-.1.1-.1 0 0 .2-.1.2 0 .2 0v.1l-2.3 2.4s-.1.1-.2.1c-.1 0-.1-.1-.2-.1 0-.1 0-.1 0-.2l-.7-.9h-.1-.1c0 .1 0 .1 0 0-.1 0-.1 0-.2 0l-.1-.1 2.4-2.4s.1 0 .1.1v.2s.1 0 .1.1v.2z"/><path d="m78.6 98.2-2.4 2.4 2.4-2.4c-.1 0-.1 0 0 0z"/><path d="m77.5 97.2-2.3 2.4 2.3-2.4c-.1 0-.1 0 0 0z"/><path d="m77.7 97.5-2.1 2.3 2.1-2.3c-.2 0 0 0 0 0z"/><path d="m76.8 100c-.2-.2-.4-.5-.5-.7 0-.2 0-.5.1-.7.2-.1.4-.1.6-.1h.1c.2 0 .5.2.7.4-.2-.1-.5-.4-.7-.4h-.1c-.2 0-.4.1-.6.1-.1.2-.1.5-.1.7.2.2.4.4.5.7z"/><path d="m77.1 99.7c-.2-.1-.4-.2-.4-.4s0-.4 0-.5h.4s.1 0 .2 0 .2.1.5.4c-.1-.1-.2-.2-.4-.2h-.1c-.1 0-.2 0-.2 0 0 .1-.1.4 0 .5-.3-.1-.2 0 0 .2 0-.1 0 0 0 0z"/><path d="m75.2 99.1c0 .2 0 .2 0 0-.2.2-.2.2 0 0l-.6-.5h-.2l-.2-.2.1-.1.1.1.1-.1-.1-.1.1-.1.1.1.1-.1-.1-.1.1-.1.2.2v.1l.5.5-.2-.5v-.1l-.2-.2-.2.1.1.1-.1.1-.1-.1-.1.1.1.1-.2.1-.1-.1-.2.1.2.2h.2l.6.5c-.2 0-.2 0 0 0z"/><path d="m74.6 98.7.5-.6z"/><path d="m75.9 98.4-1.1-.9h-.1l-.4-.2.1-.1.1.1.1-.1v-.2l.1-.1.1.1.1-.1-.1-.1.1-.1.2.2v.2l.9.9-.9-.9v-.2-.5l-.1.1.1.1-.1.2-.1-.1-.1.1.1.1-.2.4-.1-.1-.1.1.2.2h.1l1.1.9c-.1 0 0 0 0 0z"/><path d="m76.6 97.6-.6-.5h-.2l-.2-.2.1-.1.1.1.1-.1-.1-.1.1-.1.1.1.1-.1-.1-.2.4-.4.2.2v.1l.5.5-.5-.5v-.1l-.2-.1-.1.1.1.1-.1.1-.1-.1-.2.2.1.1-.1.2-.1-.1-.1.1.2.2h.2z"/><path d="m76.1 97.1.5-.6-.5.6c-.1 0-.1 0 0 0-.1 0 0 0 0 0z"/><path d="m74.9 97.5.5-.6-.5.6c-.1 0-.1 0 0 0-.1 0 0 0 0 0z"/><path d="m75.4 97.5.4.1-.1.1z"/><path d="m76.6 97 .2.1z"/><path d="m75 98.5.2.1z"/><path d="m76.7 98.5c.2-.1.5-.1.6-.1.2 0 .5.2.7.4l.6-.6-.8-.7z" fill="#ff0"/><path d="m76.2 100.6c0 .1 0 .1 0 0v.2h.1s.1 0 .1-.1l2.3-2.4v-.1s0 0 0-.1c0 0 0 0-.1 0h-.1z" fill="#ff0"/><path d="m76.6 98.7c-.1.2-.1.5-.1.7s.2.5.4.6l.2-.2c-.1-.1-.2-.2-.4-.5 0-.1 0-.4-.1-.6.2.1.5.1.6.1s.2.1.5.2l.2-.2c-.2-.1-.5-.4-.7-.4-.1 0-.4.1-.6.3z" fill="#ff0"/><path d="m76.8 98.9v.4s.1.2.2.4l.6-.6c-.1-.1-.2-.2-.4-.2-.1-.1-.3-.1-.4 0z" fill="#ff0"/><path d="m75.2 99.5c.1.1.1.1 0 0 .1.1.1.1.2.1l2.1-2.1c0-.1 0-.1 0-.1s0 0-.1 0z" fill="#ff0"/><path d="m74.9 99.4c.1.1.1.1 0 0 .1.1.1.1.2.1l2.3-2.3c0-.1 0-.1 0-.2s0 0-.1 0z" fill="#ff0"/><path d="m75.5 99.6.7.8.6-.6c-.1-.2-.4-.5-.4-.7s0-.4.1-.6z" fill="#ff0"/><path d="m75 98.5.2.1zm-.4.2.5.5.5-.5-.4-.5z" fill="#ff0"/><path d="m74.8 97.8v.2h-.1l-.1.1.1.1-.2.2-.1-.1-.1.1.2.2h.1l.6-.6z" fill="#ff0"/><path d="m75.4 97.5.4.2-.1.1zm-.5 0 .9.9.5-.5-.9-.9z" fill="#ff0"/><path d="m75 96.5v.3l-.1-.1-.1.1.1.1-.2.4-.1-.1-.1.1.2.2h.1l.6-.6v-.2z" fill="#ff0"/><path d="m76.6 97 .2.1zm-.5.1.5.5.5-.5-.5-.5z" fill="#ff0"/><path d="m76.2 96.3v.2-.2l-.2.2.1.1-.1.2-.1-.1-.1.1.2.2h.1l.6-.6v-.1z" fill="#ff0"/><path d="m90.1 100.4.7-.9h.1.1s0 0 0-.1h.1s.1 0 .1 0 0 0 0-.1l-2.4-2.4h-.1v.1s-.1 0-.1.1v.1l-.9.8h-.1l-.1.1s0 .1.1.1l2.5 2.2c-.1 0-.1 0 0 0 .1.2.1.2 0 0zm.1 0c.1.2 0 .2 0 .2h-.1l-2.4-2.3s-.1-.1-.1-.2.1-.1.1-.2h.1l.9-.7c0-.1 0-.1 0-.2s.1-.1.1-.1c0-.1 0-.1 0-.2l.1-.1 2.4 2.4s0 .1-.1.1h-.1s0 0-.1 0 0 .1-.1.1h-.1-.1z"/><path d="m90.2 100.4c-.1 0-.1 0 0 0l-2.4-2.3 2.4 2.3c-.1 0-.1 0 0 0z"/><path d="m91.2 99.4-2.4-2.3z"/><path d="m90.9 99.5c0 .1 0 .1 0 0l-2.3-2.1 2.3 2.1c-.1 0 0 0 0 0z"/><path d="m88.5 98.7c.1-.2.4-.4.6-.5h.1c.2 0 .4.1.6.1.1.2.2.5.1.7 0 .2-.2.5-.4.7.1-.2.4-.5.4-.7s0-.5-.1-.7c-.2-.1-.4-.1-.6-.1h-.2c-.1.2-.3.3-.5.5 0 .1 0 .1 0 0-.2.1-.2.1 0 0-.2 0 0 0 0 0z"/><path d="m88.7 99c.1-.1.2-.2.4-.4h.1.2c0 .1.1.4 0 .5 0 .1-.1.2-.4.5.1-.1.2-.2.2-.4s0-.2 0-.5c-.1 0-.2 0-.2 0h-.1c.1.1-.1.2-.2.3 0-.1 0 0 0 0z"/><path d="m89.3 97 .5-.6v-.2l.2-.2.1.1-.1.1.1.1.1-.1.1.1-.1.1.1.1.1-.1.1.1-.2.2h-.1l-.5.5.5-.5h.1l.2-.2v.1l-.1.1-.1-.1.1-.1-.1-.1-.1.1-.1-.1.1-.1-.4-.2-.2.2v.2l-.3.5c-.1 0-.1 0 0 0-.1 0 0 0 0 0z"/><path d="m89.8 96.5.6.5-.6-.5c-.2 0-.2 0 0 0-.2-.1 0-.1 0 0 0-.1 0-.1 0 0z"/><path d="m90 97.7.9-.9v-.1-.1l.2-.2.1.1-.1.1.1.1.1-.1.1.1-.1.1.1.1.1-.1.1.1-.2.2h-.2l-.7 1.2.9-.9h.2l.2-.2-.2-.2h.1l-.1-.1.1-.1-.1-.1-.1.1-.1-.1.1-.1-.1-.1-.2.2v.1.1l-1.2.8c0 .1 0 .1 0 0-.1 0 0 0 0 0z"/><path d="m90.8 98.5.5-.6v-.2l.2-.2.1.1-.1.1.1.1.1-.1.1.1v.2l.1.1.1-.1.1.1-.2.2h-.1l-.5.5.5-.5h.1l.2-.2-.1-.1-.1.1-.1.1.1-.1-.1-.2-.1.1-.1-.1.1-.1-.1-.1-.2.2v.2l-.6.4c-.1 0-.1 0 0 0-.1-.1-.1-.1 0 0 0-.1 0-.1 0 0z"/><path d="m91.3 98 .6.5z"/><path d="m90.9 96.8.6.5-.6-.5c-.1 0-.1 0 0 0-.1 0 0 0 0 0z"/><path d="m90.8 97.2-.1.4-.1-.1z"/><path d="m91.3 98.4-.1.2z"/><path d="m89.8 96.9-.1.2z"/><path d="m89.9 98.5c.1.2.1.4.1.6s-.2.5-.4.7l.6.6.7-.8z" fill="#ff0"/><path d="m87.7 98.2c-.1 0-.1 0 0 0-.1 0-.1 0-.2 0v.1s0 .1.1.1l2.4 2.3h.1.1s0 0 0-.1v-.1z" fill="#ff0"/><path d="m89.8 98.4c-.2-.1-.5-.1-.7-.1s-.5.2-.6.4l.2.2c.1-.1.2-.2.5-.4.1 0 .4 0 .6-.1-.1.2-.1.5-.1.6s-.1.2-.2.5l.2.2c.1-.2.4-.5.4-.7-.1-.1-.2-.3-.3-.6z" fill="#ff0"/><path d="m89.5 98.7c-.1 0-.2 0-.4 0s-.2.1-.4.2l.6.6c.1-.1.2-.2.2-.4.1-.1 0-.2 0-.4z" fill="#ff0"/><path d="m88.8 97.1s0 .1 0 0c-.1.1-.1.1-.1.2l2.1 2.1h.1s0 0 0-.1z" fill="#ff0"/><path d="m89 96.9c-.1 0-.1 0 0 0-.1.1-.1.1-.1.2l2.3 2.3h.2s0 0 0-.1z" fill="#ff0"/><path d="m88.7 97.4-.8.7.6.6c.2-.1.5-.4.7-.4s.4 0 .6.1z" fill="#ff0"/><path d="m89.8 96.9-.1.2zm0-.4-.5.5.5.5.5-.5z" fill="#ff0"/><path d="m90.6 96.6h-.2.2l-.2-.2-.1.1-.1-.1.1-.1-.3-.2-.2.2v.1l.6.6h.1z" fill="#ff0"/><path d="m90.9 97.4-.2.4-.1-.2zm0-.5-.9.9.5.5.9-.9z" fill="#ff0"/><path d="m91.8 97h-.3l.1-.1-.1-.1-.1.1-.1-.1.1-.1-.1-.1-.2.2v.1l.6.6h.2z" fill="#ff0"/><path d="m91.3 98.4-.1.2zm0-.3-.5.5.5.5.5-.5z" fill="#ff0"/><path d="m92.1 98.2-.1.1-.2-.1.1-.1-.1-.2-.1.1-.1-.1.1-.1-.1-.1-.2.2v.1l.6.6z" fill="#ff0"/><path d="m91.8 147c-31.3 0-56.8-25.5-56.8-56.8s25.5-56.8 56.8-56.8 56.8 25.5 56.8 56.8-25.5 56.8-56.8 56.8zm0-109.6c-29.1 0-52.8 23.7-52.8 52.8s23.7 52.8 52.8 52.8 52.8-23.7 52.8-52.8-23.7-52.8-52.8-52.8z" fill="#231f20"/></svg>