<svg enable-background="new 0 0 198 181" viewBox="0 0 198 181" xmlns="http://www.w3.org/2000/svg"><path d="m198.1 9.9h-112.6c-41.9 3.8-74.2 39.5-73.8 81.2.4 41.2 32.5 76 73.8 79.7v.3h112.6z" fill="#fff"/><path d="m146.6 90.2c0 30.2-24.5 54.8-54.8 54.8s-54.8-24.5-54.8-54.8" fill="#e30613"/><path d="m91.8 147c-31.3 0-56.8-25.5-56.8-56.8s25.5-56.8 56.8-56.8 56.8 25.5 56.8 56.8-25.5 56.8-56.8 56.8zm0-109.6c-29.1 0-52.8 23.7-52.8 52.8s23.7 52.8 52.8 52.8 52.8-23.7 52.8-52.8-23.7-52.8-52.8-52.8z" fill="#231f20"/></svg>