<svg enable-background="new 0 0 198 181" viewBox="0 0 198 181" xmlns="http://www.w3.org/2000/svg" xmlns:xlink="http://www.w3.org/1999/xlink"><clipPath id="a"><ellipse cx="91.6" cy="89.9" rx="53.4" ry="53.3" transform="matrix(.1602 -.9871 .9871 .1602 -11.7936 165.9346)"/></clipPath><clipPath id="b"><ellipse cx="91.7" cy="89.8" rx="53.4" ry="53.3" transform="matrix(.4642 -.8857 .8857 .4642 -30.4081 129.3281)"/></clipPath><path d="m198.1 9.9h-112.6c-41.9 3.8-74.2 39.5-73.8 81.2.4 41.2 32.5 76 73.8 79.7v.3h112.6z" fill="#fff"/><g clip-path="url(#a)"><path d="m11.7 36.7h159.9v106.6h-159.9z" fill="#050807"/><path d="m11.7 72.2h159.9v71.1h-159.9z" fill="#ff0005"/><path d="m11.7 107.8h159.9v35.6h-159.9z" fill="#ffdc00"/></g><ellipse clip-path="url(#b)" cx="91.6" cy="89.9" fill="none" rx="53.4" ry="53.3" transform="matrix(.1602 -.9871 .9871 .1602 -11.7936 165.9346)"/><path d="m91.8 147c-31.3 0-56.8-25.5-56.8-56.8s25.5-56.8 56.8-56.8 56.8 25.5 56.8 56.8-25.5 56.8-56.8 56.8zm0-109.6c-29.1 0-52.8 23.7-52.8 52.8s23.7 52.8 52.8 52.8 52.8-23.7 52.8-52.8-23.7-52.8-52.8-52.8z" fill="#231f20"/></svg>