<svg enable-background="new 0 0 198 181" viewBox="0 0 198 181" xmlns="http://www.w3.org/2000/svg" xmlns:xlink="http://www.w3.org/1999/xlink"><clipPath id="a"><circle cx="91.8" cy="90.2" r="53.5"/></clipPath><clipPath id="b"><circle cx="91.8" cy="90.2" r="53.5"/></clipPath><path d="m198.1 9.9h-112.6c-41.9 3.8-74.2 39.5-73.8 81.2.4 41.2 32.5 76 73.8 79.7v.3h112.6z" fill="#fff"/><g clip-path="url(#a)"><path d="m17.5 36.7h160.6v107.1h-160.6z" fill="#e5000e"/><path d="m17.5 63.4h160.6v53.5h-160.6z" fill="#ffd500"/><g stroke="#7f2210"><path d="m81.7 78.6-.5 1.2-.7 1.2-2.4 1.6h-14.2l-1.8-1.4-1.3-1.4-.1-.8-.4-.4c1-.8 2.5-1.7 4.2-1.6 3.1.1 2.4-1.1 6.4-1.1s3.3 1.2 6.4 1.1c1.9-.1 3.5.7 4.4 1.6z" fill="#e41a24" stroke-width=".047882"/><path d="m71.1 81.8c-2.9 0-5.5.4-7.3.8-.1 0-.2 0-.2-.1s0-.2.1-.2c1.9-.6 4.5-1 7.4-1 3 0 5.6.4 7.4 1 .1 0 .2.1.1.2 0 .1-.1.1-.2.1-1.9-.5-4.5-.8-7.3-.8" fill="#e5ad00" stroke-width=".047882"/><path d="m71.1 79.5h.2v.4c0 .6.5 1 1.1 1 .5 0 .8-.2 1-.7l.1-.4v.4c.1.5.5.8 1.1.8s1.1-.5 1.1-1v-.1l.4-.4.2.4c-.1.1-.1.2-.1.5 0 .5.5 1 1 1 .4 0 .7-.1.8-.5l.2-.2v.4c0 .4.1.6.5.7 0 0 .4 0 .8-.4.5-.4.7-.7.7-.7v.4s-.4.6-.8.8c-.2.1-.6.2-1 .2s-.5-.2-.6-.6c-.2.1-.5.2-.7.2-.6 0-1.2-.4-1.3-.8-.2.4-.7.5-1.1.5-.5 0-1-.2-1.2-.6-.2.2-.6.4-1.1.4s-1-.2-1.3-.6c-.2.4-.7.6-1.3.6-.4 0-.7-.1-1.1-.4-.2.4-.7.6-1.2.6s-.8-.2-1.1-.5c-.2.5-.7.8-1.3.8-.2 0-.5-.1-.7-.2-.1.2-.4.5-.6.6-.2 0-.7-.1-1-.2-.5-.2-.8-.8-.8-.8v-.4s.2.4.7.7c.5.4.8.4.8.4.4 0 .5-.4.5-.7v-.4l.2.2c.1.2.5.5.8.5.6 0 1-.5 1-1 0-.1 0-.4-.1-.5l.1-.4.4.4v.1c0 .6.5 1 1.1 1 .5 0 1-.4 1.1-.8v-.4l.1.4c.1.4.5.7 1 .7.6 0 1.1-.5 1.1-1 0-.1 0-.2 0-.4z" fill="#e5ad00" stroke-width=".047882"/><path d="m76.3 77.7-.3.3-.4-.7c.5-.2.8-.8.8-1.4 0-.1 0-.1 0-.2 0-1-1.2-1.7-2.6-1.7-.7 0-1.4.2-1.9.5 0-.1 0-.2 0-.4.5-.4 1.2-.5 1.9-.5 1.7 0 3 1 3 2v.2c0 .6-.2 1.1-.7 1.4z" fill="#e5ad00" stroke-width=".047882"/><path d="m65.9 77.4c-.5-.4-.7-1-.7-1.4 0-.1 0-.1 0-.2.1-1.1 1.3-2 3-2 .7 0 1.4.2 1.9.5v.4c-.5-.4-1.2-.5-1.9-.5-1.4 0-2.5.7-2.6 1.7v.2c0 .6.4 1.1.8 1.4l-.5.7-.2-.2z" fill="#e5ad00" stroke-width=".047882"/><path d="m71.1 73.4c.4 0 .7.2.8.6 0 .2.1.6.1 1v.2c0 .7.1 1.4.2 1.8l-1.2 1.1-1.1-1.1c.1-.4.2-1.1.2-1.8v-.2c0-.4 0-.7.1-1 .2-.3.4-.6.9-.6" fill="#e5ad00" stroke-width=".047882"/><path d="m71.1 73.8c.2 0 .4.1.4.2 0 .2.1.6.1 1v.2c0 .7.1 1.3.2 1.7l-.7.7-.7-.7c.1-.4.2-1 .2-1.7v-.2c0-.4 0-.6.1-1-.1-.1.1-.2.4-.2" fill="#e5ad00" stroke-width=".047882"/><path d="m76.3 77.7c.6-.5.8-1 .8-1.7s-.5-1.3-1.2-1.8c.5.4.7.8.7 1.3v.2c0 .6-.2 1.1-.7 1.4z" fill="#e5ad00" stroke-width=".047882"/><path d="m81.2 78.4c.4-.4.5-.8.5-1.3 0-.2-.1-.6-.2-.8-.5-1-1.9-1.7-3.6-1.7-.5 0-1 0-1.3.1.1.1.1.2.2.4.4-.1.7-.1 1.1-.1 1.6 0 2.9.6 3.2 1.4.1.2.1.5.1.7 0 .5-.2 1-.6 1.2l.6 1 .2-.4z" fill="#e5ad00" stroke-width=".047882"/><path d="m80.6 75.5c.4.2.7.6.8 1 .1.2.2.6.2.8 0 .5-.2 1-.5 1.3l.4.6c.4-.5.5-1 .5-1.4.1-1.2-.5-1.9-1.4-2.3" fill="#e5ad00" stroke-width=".047882"/><path d="m65.9 77.4c-.5-.4-.7-1-.7-1.4 0-.1 0-.1 0-.2 0-.5.4-1 .7-1.3-.7.5-1.2 1.1-1.2 1.8 0 .6.4 1.2.8 1.7z" fill="#e5ad00" stroke-width=".047882"/><path d="m60.8 78.4-.3.6.2.4.6-1c-.4-.4-.6-.7-.6-1.2 0-.2 0-.5.1-.7.4-.8 1.7-1.4 3.2-1.4.4 0 .7 0 1.1.1.1-.1.1-.2.2-.4-.4-.1-.8-.1-1.3-.1-1.7 0-3.1.7-3.6 1.7-.1.2-.2.6-.2.8.1.5.3.9.6 1.2" fill="#e5ad00" stroke-width=".047882"/><path d="m61.4 75.5c-.8.5-1.4 1.3-1.4 2.1 0 .5.2 1 .5 1.4l.4-.6c-.4-.4-.5-.8-.5-1.3 0-.2.1-.6.2-.8.1-.4.5-.6.8-.8" fill="#e5ad00" stroke-width=".047882"/><path d="m59.9 79.3c0-.1.1-.2.2-.2s.2.1.2.2-.1.2-.2.2-.2-.1-.2-.2z" fill="#fff" stroke-width=".047882"/><path d="m59.6 78.7c0-.1.1-.2.2-.2s.2.1.2.2-.1.2-.2.2c-.2 0-.2-.1-.2-.2z" fill="#fff" stroke-width=".047882"/><path d="m59.4 78.1c0-.1.1-.2.2-.2s.2.1.2.2-.1.2-.2.2-.2-.1-.2-.2z" fill="#fff" stroke-width=".047882"/><path d="m59.4 77.4c0-.1.1-.2.2-.2s.2.1.2.2-.1.2-.2.2c-.2 0-.2-.1-.2-.2z" fill="#fff" stroke-width=".047882"/><path d="m59.5 76.6c0-.1.1-.2.2-.2s.2.1.2.2-.1.2-.2.2c-.1.1-.2 0-.2-.2z" fill="#fff" stroke-width=".047882"/><path d="m59.9 76.1c0-.1.1-.2.2-.2s.2.1.2.2-.1.2-.2.2-.2-.1-.2-.2z" fill="#fff" stroke-width=".047882"/><path d="m60.3 75.6c0-.1.1-.2.2-.2s.2.1.2.2-.1.2-.2.2c0-.1-.2-.1-.2-.2z" fill="#fff" stroke-width=".047882"/><path d="m60.9 75.1c0-.1.1-.2.2-.2s.2.1.2.2-.1.2-.2.2-.2-.1-.2-.2z" fill="#fff" stroke-width=".047882"/><path d="m61.5 74.7c0-.1.1-.2.2-.2s.2.1.2.2-.1.2-.2.2-.2 0-.2-.2z" fill="#fff" stroke-width=".047882"/><path d="m62.2 74.5c0-.1.1-.2.2-.2s.2.1.2.2-.1.2-.2.2c0 0-.2-.1-.2-.2z" fill="#fff" stroke-width=".047882"/><path d="m63.1 74.4c0-.1.1-.2.2-.2s.2.1.2.2-.1.2-.2.2c-.2 0-.2-.1-.2-.2z" fill="#fff" stroke-width=".047882"/><path d="m63.8 74.3c0-.1.1-.2.2-.2s.2.1.2.2-.1.2-.2.2-.2-.1-.2-.2z" fill="#fff" stroke-width=".047882"/><path d="m64.5 74.4c0-.1.1-.2.2-.2s.2.1.2.2-.1.2-.2.2c-.1-.1-.2-.1-.2-.2z" fill="#fff" stroke-width=".047882"/><path d="m65.2 74.4c0-.1.1-.2.2-.2s.2.1.2.2-.1.2-.2.2c-.1-.1-.2-.1-.2-.2z" fill="#fff" stroke-width=".047882"/><path d="m64.9 75c0-.1.1-.2.2-.2s.2.1.2.2-.1.2-.2.2-.2-.1-.2-.2" fill="#fff" stroke-width=".047882"/><path d="m64.8 75.7c0-.1.1-.2.2-.2s.2.1.2.2-.1.2-.2.2c-.2-.1-.2-.1-.2-.2" fill="#fff" stroke-width=".047882"/><path d="m64.6 76.3c0-.1.1-.2.2-.2s.2.1.2.2-.1.2-.2.2c0 0-.2-.1-.2-.2" fill="#fff" stroke-width=".047882"/><path d="m64.9 76.9c0-.1.1-.2.2-.2s.2.1.2.2-.1.2-.2.2-.2-.1-.2-.2" fill="#fff" stroke-width=".047882"/><path d="m65.2 77.5c0-.1.1-.2.2-.2s.2.1.2.2-.1.2-.2.2-.2-.1-.2-.2" fill="#fff" stroke-width=".047882"/><path d="m65.7 73.9c0-.1.1-.2.2-.2s.2.1.2.2-.1.2-.2.2-.2-.1-.2-.2z" fill="#fff" stroke-width=".047882"/><path d="m66.4 73.5c0-.1.1-.2.2-.2s.2.1.2.2-.1.2-.2.2c-.1.1-.2 0-.2-.2z" fill="#fff" stroke-width=".047882"/><path d="m67.1 73.3c0-.1.1-.2.2-.2s.2.1.2.2-.1.2-.2.2c0 0-.2-.1-.2-.2z" fill="#fff" stroke-width=".047882"/><path d="m67.9 73.2c0-.1.1-.2.2-.2s.2.1.2.2-.1.2-.2.2-.2-.1-.2-.2z" fill="#fff" stroke-width=".047882"/><path d="m68.6 73.2c0-.1.1-.2.2-.2s.2.1.2.2-.1.2-.2.2-.2-.1-.2-.2z" fill="#fff" stroke-width=".047882"/><path d="m69.3 73.3c0-.1.1-.2.2-.2s.2.1.2.2-.1.2-.2.2-.2-.1-.2-.2z" fill="#fff" stroke-width=".047882"/><path d="m70 73.5c0-.1.1-.2.2-.2s.2.1.2.2-.1.2-.2.2c-.1.1-.2 0-.2-.2z" fill="#fff" stroke-width=".047882"/><path d="m70.6 77.2c0-.2.2-.4.4-.4s.4.1.4.4-.2.4-.4.4-.4-.2-.4-.4z" fill="#fff" stroke-width=".047882"/><path d="m70.6 76.4c0-.2.2-.4.4-.4s.4.1.4.4-.2.4-.4.4-.4-.2-.4-.4" fill="#fff" stroke-width=".047882"/><path d="m70.7 75.6c0-.1.1-.4.4-.4.1 0 .4.1.4.4 0 .1-.1.4-.4.4-.3-.1-.4-.2-.4-.4" fill="#fff" stroke-width=".047882"/><path d="m70.8 74.9c0-.1.1-.2.2-.2s.2.1.2.2-.1.2-.2.2c0 0-.2-.1-.2-.2" fill="#fff" stroke-width=".047882"/><path d="m70.8 74.3c0-.1.1-.2.2-.2s.2.1.2.2-.1.1-.2.1c0 0-.2 0-.2-.1" fill="#fff" stroke-width=".047882"/><path d="m81.9 79.5c-.1 0-.2-.1-.2-.2s.1-.2.2-.2.2.1.2.2 0 .2-.2.2z" fill="#fff" stroke-width=".047882"/><path d="m82.3 78.9c-.1 0-.2-.1-.2-.2s.1-.2.2-.2.2.1.2.2-.1.2-.2.2z" fill="#fff" stroke-width=".047882"/><path d="m82.4 78.3c-.1 0-.2-.1-.2-.2s.1-.2.2-.2.2.1.2.2c.1.1.1.2-.2.2z" fill="#fff" stroke-width=".047882"/><path d="m82.5 77.6c-.1 0-.2-.1-.2-.2s.1-.2.2-.2.2.1.2.2 0 .2-.2.2z" fill="#fff" stroke-width=".047882"/><path d="m82.3 76.9c-.1 0-.2-.1-.2-.2s.1-.2.2-.2.2.1.2.2-.1.2-.2.2z" fill="#fff" stroke-width=".047882"/><path d="m81.9 76.3c-.1 0-.2-.1-.2-.2s.1-.2.2-.2.2.1.2.2 0 .2-.2.2z" fill="#fff" stroke-width=".047882"/><path d="m81.5 75.7c-.1 0-.2-.1-.2-.2s.1-.2.2-.2.2.1.2.2c0 .2-.1.2-.2.2z" fill="#fff" stroke-width=".047882"/><path d="m81 75.3c-.1 0-.2-.1-.2-.2s.1-.2.2-.2.2.1.2.2c-.1.1-.1.2-.2.2z" fill="#fff" stroke-width=".047882"/><path d="m80.3 75c-.1 0-.2-.1-.2-.2s.1-.2.2-.2.2.1.2.2-.1.2-.2.2z" fill="#fff" stroke-width=".047882"/><path d="m79.6 74.7c-.1 0-.2-.1-.2-.2s.1-.2.2-.2.2.1.2.2-.1.2-.2.2z" fill="#fff" stroke-width=".047882"/><path d="m78.8 74.6c-.1 0-.2-.1-.2-.2s.1-.2.2-.2.2.1.2.2c.1.1 0 .2-.2.2z" fill="#fff" stroke-width=".047882"/><path d="m78.1 74.5c-.1 0-.2-.1-.2-.2s.1-.3.2-.3.2.1.2.2-.1.3-.2.3z" fill="#fff" stroke-width=".047882"/><path d="m77.4 74.5c-.1 0-.2-.1-.2-.2s.1-.2.2-.2.2.1.2.2c-.1.2-.1.2-.2.2z" fill="#fff" stroke-width=".047882"/><path d="m76.6 74.5c-.1 0-.2-.1-.2-.2s.1-.2.2-.2.2.1.2.2c0 .2 0 .2-.2.2z" fill="#fff" stroke-width=".047882"/><path d="m77.2 75c0 .1-.1.2-.2.2s-.2-.1-.2-.2.1-.2.2-.2c.2-.1.2.1.2.2" fill="#fff" stroke-width=".047882"/><path d="m77.4 75.7c0 .1-.1.2-.2.2s-.2-.1-.2-.2.1-.2.2-.2.2 0 .2.2" fill="#fff" stroke-width=".047882"/><path d="m77.4 76.3c0 .1-.1.2-.2.2s-.2-.1-.2-.2.1-.2.2-.2.2.1.2.2" fill="#fff" stroke-width=".047882"/><path d="m77.2 76.9c0 .1-.1.2-.2.2s-.2-.1-.2-.2.1-.2.2-.2c0 .1.2.1.2.2" fill="#fff" stroke-width=".047882"/><path d="m76.8 77.5c0 .1-.1.2-.2.2s-.2-.1-.2-.2.1-.2.2-.2c.1-.1.2.1.2.2" fill="#fff" stroke-width=".047882"/><path d="m76.1 74.1c-.1 0-.2-.1-.2-.2s.1-.2.2-.2.2.1.2.2-.1.2-.2.2z" fill="#fff" stroke-width=".047882"/><path d="m75.5 73.8c-.1 0-.2-.1-.2-.2s.1-.2.2-.2.2.1.2.2c-.1.1-.1.2-.2.2z" fill="#fff" stroke-width=".047882"/><path d="m74.8 73.5c-.1 0-.2-.1-.2-.2s.1-.2.2-.2.2.1.2.2-.1.2-.2.2z" fill="#fff" stroke-width=".047882"/><path d="m73.9 73.4c-.1 0-.2-.1-.2-.2s.1-.2.2-.2.2.1.2.2c.1.1.1.2-.2.2z" fill="#fff" stroke-width=".047882"/><path d="m73.2 73.4c-.1 0-.2-.1-.2-.2s.1-.2.2-.2.2.1.2.2c.1.1.1.2-.2.2z" fill="#fff" stroke-width=".047882"/><path d="m72.5 73.5c-.1 0-.2-.1-.2-.2s.1-.2.2-.2.2.1.2.2c.1.1-.1.2-.2.2z" fill="#fff" stroke-width=".047882"/><path d="m71.8 73.8c-.1 0-.2-.1-.2-.2s.1-.2.2-.2.2.1.2.2 0 .2-.2.2z" fill="#fff" stroke-width=".047882"/><path d="m70.1 72.6c0-.5.5-1 1-1s1 .4 1 1c0 .5-.5.8-1 .8-.6.1-1-.3-1-.8" fill="#3861ab" stroke-width=".047882"/><path d="m71.9 72.5h-.7v-1.5h.6v-.5h-.5v-.5h-.5v.5h-.5v.5h.5v1.4h-.7v.1c0 .1 0 .2.1.4h1.8c0-.1.1-.2.1-.4-.1 0-.2 0-.2 0z" fill="#e5ad00" stroke-width=".047882"/><path d="m65.9 80c-.1 0-.1-.1-.1-.2s0-.2 0-.2-.2-.1-.4-.1-.5 0-.5 0c-.1 0-.2 0-.2 0s0 0 0 .1.1.1.1.1c-.2.1-.5.2-.6.5.2.1.5.2.7.2v.2s0 .1 0 .1.1 0 .2-.1c.1 0 .4-.1.5-.2.2-.3.3-.4.3-.4z" fill="#e5ad00" stroke-width=".047882"/><path d="m71.4 79.5c.1-.1.1-.1.1-.2s0-.2-.1-.2c0 0 .2-.1.4-.2.1-.1.5-.1.6-.1s.2 0 .2 0 0 0 0 .1-.1.1-.1.1c.4 0 .6.1.8.4-.2.2-.5.4-.8.4 0 0 0 .1.1.2v.1h-.2c-.1 0-.4-.1-.6-.1-.2-.4-.4-.5-.4-.5z" fill="#e5ad00" stroke-width=".047882"/><path d="m63.7 80.1c-.3-.1-.6-.1-.9-.1v-.1c0-.1 0-.1 0-.1s-.1.1-.2.1c-.1.1-.5.2-.5.4-.1.1-.2.4-.2.4s.1-.5 0-.8c-.1-.4-.5-.4-.5-.4v.2c-.1-.1-.4-.2-.5-.2-.4 0-.6.2-.6.6 0 0 .5 0 .7.1s.5.6.5.6c.1-.1.4-.1.5 0s.1.1.1.2h.4.6s.2 0 .2 0 0 0-.1-.1-.1-.1-.1-.1c.2-.3.5-.5.6-.7z" fill="#e5ad00" stroke-width=".047882"/><path d="m66.5 79.9c0-.1.1-.1 0-.2 0-.1-.1-.1-.1-.2 0 0 .1-.1.4-.2.1-.1.4-.1.5-.2.1 0 .2-.1.2-.1s0 0 0 .1 0 .2 0 .2c.2 0 .6.1.7.2-.1.2-.4.4-.6.5 0 0 0 0 .1.1v.1s-.1 0-.2 0-.4 0-.5 0c-.2-.2-.5-.3-.5-.3z" fill="#e5ad00" stroke-width=".047882"/><path d="m70.7 79.5c-.1 0-.1-.1-.1-.2s0-.2.1-.2c0 0-.2-.1-.4-.2-.1-.1-.5-.1-.6-.1s-.2 0-.2 0 0 0 0 .1.1.2.1.2c-.4 0-.6.1-.8.4.2.2.5.4.8.4 0 0 0 .1-.1.2v.1h.2c.1 0 .4-.1.6-.1.2-.5.4-.6.4-.6z" fill="#e5ad00" stroke-width=".047882"/><path d="m71.7 77.8c-.1 0-.2.1-.2.1 0-.4-.2-.6-.5-.8-.2.2-.4.5-.4.8 0 0 0 0-.2-.1-.1 0-.2 0-.2 0s.1.2.1.4c0 .1.1.4.2.6s.2.4.2.4c.1-.2.3-.2.4-.2s.2.1.4.1c0 0 .1-.1.2-.4.1-.2.1-.5.1-.6s.1-.4.1-.4-.1 0-.2.1z" fill="#e5ad00" stroke-width=".047882"/><path d="m66.4 78.3c-.1.1-.1.1 0 0-.2-.1-.3-.4-.6-.5-.1.2-.2.5-.2.7 0 0 0 0-.2-.1-.1 0-.2 0-.2 0s.1.1.1.2.1.2.2.5c.1.1.2.2.2.2 0-.1.1-.1.2-.2.1 0 .2 0 .4.1 0 0 .1-.1.1-.4s0-.5 0-.5c.1-.1.1-.2.1-.2s0 .1-.1.2z" fill="#e5ad00" stroke-width=".047882"/><path d="m75.5 79.6c0-.1.1-.1.1-.2 0 0-.1-.1-.4-.2-.1-.1-.4-.1-.5-.2-.1 0-.2-.1-.2-.1s0 0 0 .1 0 .2 0 .2c-.2 0-.6.1-.7.2.1.2.4.4.6.5 0 0 0 0-.1.1 0 .1-.1.1-.1.1h.2.5c.2 0 .4-.1.4-.1.2-.2.2-.2.2-.4z" fill="#e5ad00" stroke-width=".047882"/><path d="m76.7 78.4c-.1 0-.2.1-.2.1 0-.2 0-.6-.2-.7-.2.1-.5.4-.5.6 0 0 0 0-.1-.1s-.2-.1-.2-.1v.2c0 .1 0 .2.1.5 0 .2.1.4.1.4.1-.1.2-.1.4-.1.1 0 .2.1.2.2 0 0 .1-.1.2-.2s.2-.4.2-.5.1-.2.1-.2 0-.1-.1-.1z" fill="#e5ad00" stroke-width=".047882"/><path d="m77.2 80.2c.2 0 .6-.1.7-.2-.1-.2-.4-.4-.6-.5 0 0 0-.1.1-.1 0-.1 0-.1 0-.1s-.1 0-.2 0-.4 0-.5 0c-.2 0-.4.1-.4.1 0 .1.1.1 0 .2 0 .1-.1.1-.1.2 0 0 .1.1.4.2.1.1.4.1.6.2 0 0 .1.1 0 0 .1.1.1.1 0 0z" fill="#e5ad00" stroke-width=".047882"/><path d="m81.3 79.4c-.2 0-.4.1-.5.2v-.2s-.2 0-.5.4c-.1.4 0 .8 0 .8s-.1-.2-.1-.4c-.1-.1-.4-.2-.5-.4s-.2-.1-.2-.1 0 0 0 .1 0 .1 0 .1c-.2 0-.6 0-.8.1.1.2.4.4.6.5 0 0-.1.1-.2.1-.2.1-.4.1-.4.1h.3.6.4c0-.1.1-.1.1-.2.1-.1.4-.1.5 0s.2-.5.5-.6.7-.1.7-.1c.1-.2-.1-.4-.5-.4z" fill="#e5ad00" stroke-width=".047882"/><path d="m65.7 79.6c0-.2.2-.5.5-.5s.5.2.5.5-.2.5-.5.5-.5-.2-.5-.5" fill="#e41a24" stroke-width=".047882"/><path d="m75.5 79.6c0-.2.2-.5.5-.5s.5.2.5.5-.2.5-.5.5c-.4 0-.5-.2-.5-.5" fill="#e41a24" stroke-width=".047882"/><path d="m80.6 80.6c-.1-.1-.4-.1-.5 0s-.2.4-.1.5.4.1.5 0c.3-.2.3-.4.1-.5" fill="#e41a24" stroke-width=".047882"/><path d="m61.5 80.6c.1-.1.4-.1.5 0s.2.4.1.5-.4.1-.5 0c-.2-.2-.2-.4-.1-.5" fill="#e41a24" stroke-width=".047882"/><path d="m70.6 79.3c0-.2.2-.5.5-.5.2 0 .5.2.5.5s-.2.5-.5.5-.5-.3-.5-.5" fill="#e41a24" stroke-width=".047882"/><path d="m71.1 85.1c-2.6 0-5-.4-6.7-.8-.1 0-.2-.1-.1-.2 0-.1 0-.2.1-.2 1.7-.5 4.1-.8 6.7-.8s5 .4 6.7.8c.1 0 .2.1.1.2 0 .1 0 .2-.1.2-1.8.6-4.1.8-6.7.8" fill="#e5ad00" stroke-width=".047882"/><path d="m71.1 83c-3.1 0-5.4.5-6.6.8.1-.1 0-.2-.1-.6-.2-.6-.5-.5-.5-.5 1.8-.6 4.4-.8 7.3-.8s5.5.4 7.3.8c0 0-.4 0-.5.5s-.2.6 0 .7c-1.9-.6-4.3-.9-6.9-.9" fill="#e5ad00" stroke-width=".047882"/><path d="m78.2 80.8c0-.2 0-.4-.1-.4s-.2.1-.4.2 0 .4.1.4.4.1.4-.2" fill="#fff" stroke-width=".047882"/><path d="m73.7 80c0-.2-.1-.4-.2-.4s-.2.1-.2.4.1.4.2.4c.1-.2.2-.3.2-.4" fill="#fff" stroke-width=".047882"/><path d="m68.5 80c0-.2.1-.4.2-.4s.2.1.2.4-.1.4-.2.4c-.1-.2-.2-.3-.2-.4" fill="#fff" stroke-width=".047882"/><path d="m63.8 80.8c0-.2 0-.4.1-.4s.2.1.4.2c.1.1 0 .4-.1.4s-.3.1-.4-.2" fill="#fff" stroke-width=".047882"/><path d="m69 82.4c0-.1.1-.2.2-.2s.2.1.2.2-.1.2-.2.2c-.2 0-.2-.1-.2-.2" fill="#fff" stroke-width=".047882"/><path d="m70.4 82.6c-.1 0-.2-.1-.2-.2s.1-.2.2-.2h1.4c.1 0 .2.1.2.2s-.1.2-.2.2z" fill="#e41a24" stroke-width=".047882"/><path d="m68 82.3-1 .1c-.1 0-.2.1-.2.2s.1.2.2.2l1.1-.1c.1 0 .2-.1.2-.2-.1-.1-.2-.2-.3-.2z" fill="#008e6e" stroke-width=".047882"/><path d="m65.5 82.9c0-.1.1-.2.2-.2s.2.1.2.2-.1.2-.2.2-.2-.1-.2-.2" fill="#fff" stroke-width=".047882"/><path d="m63.9 83.2.2-.4.7.1-.6.5z" fill="#e41a24" stroke-width=".047882"/><path d="m75.1 82.9c.1 0 .2-.1.2-.2s-.1-.2-.2-.2l-1.1-.1c-.1 0-.2.1-.2.2s.1.2.2.2z" fill="#008e6e" stroke-width=".047882"/><path d="m72.6 82.4c0-.1.1-.2.2-.2s.2.1.2.2-.1.2-.2.2-.2-.1-.2-.2" fill="#fff" stroke-width=".047882"/><path d="m76.2 82.9c0-.1.1-.2.2-.2s.2.1.2.2-.1.2-.2.2c-.2 0-.2-.1-.2-.2" fill="#fff" stroke-width=".047882"/><path d="m78.2 83.2-.2-.3-.7.1.6.5z" fill="#e41a24" stroke-width=".047882"/><path d="m71.1 84.8c-2.4 0-4.5-.2-6.1-.7 1.7-.5 3.7-.7 6.1-.7s4.5.2 6.1.7c-1.6.4-3.7.7-6.1.7" fill="#e41a24" stroke-width=".047882"/><path d="m64.6 84.2c1.7-.5 3.9-.7 6.4-.7s4.8.2 6.4.7" fill="none" stroke-linecap="round" stroke-linejoin="round" stroke-width=".047882"/><path d="m71.2 84.8v-1.3" fill="none" stroke-width=".011049"/><path d="m70.8 84.8v-1.3" fill="none" stroke-width=".017189"/><path d="m70.5 84.8v-1.3" fill="none" stroke-width=".022099"/><path d="m70.1 84.8v-1.3" fill="none" stroke-width=".028239"/><path d="m69.8 84.8v-1.3" fill="none" stroke-width=".034377"/><path d="m69.2 84.8v-1.2m.3 1.2v-1.3" fill="none" stroke-width=".040517"/><path d="m68.7 84.6v-1.2m.2 1.4v-1.2" fill="none" stroke-width=".045428"/><path d="m67.9 84.6v-1m.2 1v-1.1m.4 1.1v-1.1" fill="none" stroke-width=".051566"/><path d="m67.6 84.6v-1" fill="none" stroke-width=".056477"/><path d="m67.4 84.5v-1" fill="none" stroke-width=".062617"/><path d="m67.1 84.5v-.8" fill="none" stroke-width=".068755"/><path d="m66.5 84.4v-.7m.4.8v-.7" fill="none" stroke-width=".073665"/><path d="m66.3 84.4v-.6" fill="none" stroke-width=".077349"/><path d="m66.1 84.4v-.5" fill="none" stroke-width=".083489"/><path d="m65.8 84.3v-.4" fill="none" stroke-width=".089627"/><path d="m65.5 84.3v-.2" fill="none" stroke-width=".094538"/><path d="m72.8 84.8v-1.2m-.6 1.2v-1.3m-.5 1.3v-1.3" fill="none" stroke-width=".006138"/><path d="m87 83.9s-.1.1-.2.2c-.1 0-.2-.1-.2-.1s-.1.1-.2.1-.4-.1-.4-.1-.1.1-.2.2c-.1 0-.2 0-.2 0s0 .1-.1.1h-.1-.4l-.1-.2h-.1s0-.2-.1-.2v-.1c0-.1.2-.2.5-.4h.5c.1-.1.4-.1.7-.1.2 0 .5 0 .6.1.1-.1.4-.1.6-.1.4 0 .6.1.7.1s.2 0 .5 0c.4.1.5.2.5.4v.1l-.1.2h-.2l-.1.1-.1.1h-.1c-.1 0-.1-.1-.1-.1s-.1.1-.2 0c-.1 0-.2-.2-.2-.2s-.1.1-.4.1c-.1 0-.2-.1-.2-.1s-.1.1-.2.1c-.2 0-.4-.2-.4-.2" fill="#e41a24" stroke-width=".031923"/></g><path d="m88.6 84.3c-.1-.1-.2 0-.3-.1-.1 0-.2-.2-.2-.2s-.1.1-.4.1c-.1 0-.2-.1-.2-.1s-.1.1-.2.1-.2-.1-.2-.1-.1.1-.2.2c-.1 0-.2-.1-.2-.1s0 .1-.2.1c-.1 0-.4-.1-.4-.1s-.1.1-.2.2c-.1 0-.2 0-.2 0s0 0 0 .1h-.1v.1c.4-.1 1-.2 1.6-.2.5-.1 1.1-.1 1.4 0z" fill="#e5ad00"/><path d="m87.1 83.7c0 .2.1.4.2.4s.2-.1.2-.1v-.1.1c0 .1.1.2.2.2s.2-.1.2-.2h.1v.1c0 .1.1.2.2.2s.1 0 .2-.1v-.1.1c0 .1 0 .1.1.1 0 0 .1 0 .2-.1s.1-.1.1-.1v.1s-.1.1-.2.2c0 0-.1.1-.2 0-.1 0-.1-.1-.1-.1h-.1c-.1 0-.2-.1-.4-.2 0 .1-.1.1-.2.1s-.2 0-.2-.1c-.1.1-.1.1-.2.1s-.2-.1-.2-.1c-.1.1-.1.1-.2.1s-.1 0-.2-.1c0 .1-.1.1-.2.1s-.2 0-.2-.1c0 .1-.1.2-.4.2-.1 0-.1 0-.1 0 0 .1-.1.1-.1.1-.1 0-.1 0-.2 0s-.2-.2-.2-.2v-.1l.1.1c.1.1.2.1.2.1.1 0 .1-.1.1-.1v-.1.1s.1.1.2.1.2-.1.2-.2v-.1h.1c0 .1.1.2.2.2s.2-.1.2-.2v-.1.1c0 .1.1.1.2.1s.3-.2.4-.4c-.1 0-.1 0 0 0" fill="#e5ad00" stroke="#7f2210" stroke-width=".031923"/><path d="m86.7 83c0-.2.1-.5.2-.5s.2.2.2.5c0 .2-.1.5-.2.5s-.2-.3-.2-.5" fill="#e5ad00" stroke="#7f2210" stroke-width=".031923"/><path d="m86.8 83c0-.2 0-.4.1-.4s.1.1.1.4c0 .2-.1.4-.1.4s-.1-.2-.1-.4" fill="#e5ad00" stroke="#7f2210" stroke-width=".031923"/><path d="m86.8 82.5c0-.1.1-.2.2-.2s.2.1.2.2-.1.2-.2.2c0 0-.2-.1-.2-.2" fill="#e5ad00" stroke="#7f2210" stroke-width=".031923"/><path d="m87.1 82.4v-.3h.1v-.1h-.1v-.1h-.1v.1h-.2v.1h.2v.3h-.3v.1h.6v-.1z" fill="#e5ad00" stroke="#7f2210" stroke-width=".031923"/><path d="m85.5 84.6c0-.1-.1-.2-.1-.2.4-.1 1-.2 1.7-.2.6 0 1.2.1 1.7.2 0 0 0 .1-.1.2 0 .1-.1.1-.1.1-.4-.1-.8-.1-1.4-.1s-1.2.1-1.4.2c-.3.1-.3 0-.3-.2z" fill="#e5ad00" stroke="#7f2210" stroke-width=".031923"/><path d="m87 85.2c.5 0 1.1-.1 1.3-.1.1 0 .2-.1.2-.2 0 0 0-.1-.1-.1-.4-.1-.8-.1-1.4-.1s-1.1.1-1.4.1c0 0-.1 0-.1.1s.1.1.2.2c.2 0 .8.1 1.3.1" fill="#e5ad00" stroke="#7f2210" stroke-width=".031923"/><path d="m87 84.3c-.6 0-1.2.1-1.7.2h-.1s0 0 0-.1c.6-.1 1.2-.2 1.8-.1.7-.1 1.2 0 1.7.1v.1s0 0-.1 0c-.3-.2-.9-.2-1.6-.2" fill="#e5ad00" stroke="#7f2210" stroke-width=".031923"/><path d="m87 84.8c-.5 0-1 0-1.3.1.3.1.8.1 1.3.1s1 0 1.3-.1c-.3 0-.7-.1-1.3-.1z" fill="#e41a24" stroke="#7f2210" stroke-width=".031923"/><path d="m86.4 84.5c0-.1.1-.1 0 0 .1-.1.2 0 .2 0s-.1 0-.2 0z" fill="#fff" stroke="#7f2210" stroke-width=".031923"/><path d="m87.2 84.4h-.5s-.1 0-.1.1c0 0 0 .1.1.1h.5c.1-.1.1-.1 0-.2.1 0 .1 0 0 0z" fill="#e41a24" stroke="#7f2210" stroke-width=".031923"/><path d="m86.1 84.4h-.4s-.1 0-.1.1c0 0 0 .1.1 0l.4-.1c0 .1.1.1 0 0z" fill="#008e6e" stroke="#7f2210" stroke-width=".031923"/><path d="m85.4 84.6.1.2.1-.2z" fill="#e41a24" stroke="#7f2210" stroke-width=".031923"/><path d="m87.4 84.5c0-.1 0-.1 0 0 .1-.1.2 0 .2 0s0 0-.2 0z" fill="#fff" stroke="#7f2210" stroke-width=".031923"/><path d="m88.2 84.5h-.4-.1s0 .1.1.1l.4-.1c.1.1.1.1 0 0 .1 0 .1 0 0 0z" fill="#008e6e" stroke="#7f2210" stroke-width=".031923"/><path d="m88.5 84.6h-.1l.1.2h.1z" fill="#e41a24" stroke="#7f2210" stroke-width=".031923"/><path d="m88.5 84.1.1-.3v.3z" fill="#e5ad00"/><path d="m88.6 83.9c0 .1 0 .1 0 0-.1.2-.1 0 0 0-.1 0 0 0 0 0m0-.1-.1.2s.1 0 .1-.2c.2.1 0 0 0 0z" fill="#7f2210"/><path d="m87.6 83.7s.1 0 0 0c0 .1 0 .1 0 0 0 .1-.2.1 0 0zm0 0c-.1 0-.1 0 0 0l-.1.2h.1s.1 0 0-.2c.1 0 .1 0 0 0z" fill="#7f2210"/><path d="m86.5 83.7c0 .1 0 .1 0 0 0 .1-.1.1 0 0-.1 0 0 0 0 0zm0 0c-.1.1-.1.1 0 0-.1.1-.1.2 0 .2s.1 0 0-.2z" fill="#7f2210"/><path d="m85.4 83.9c.1.1.1.1 0 0 0 .2 0 .2 0 0zm0-.1c-.1.1-.1.1 0 0v.2c.1.1.1-.1 0-.2z" fill="#7f2210"/><path d="m88.3 83.2c0-.1 0-.1 0 0 .1-.1.2 0 .2 0s-.1 0-.2 0z" fill="#fff" stroke="#7f2210" stroke-width=".025783"/><path d="m88.3 82.9c0-.2 0-.2 0 0 .1-.1.2 0 .2 0-.1 0-.1.1-.2 0zm-.4-.3s.1-.1 0 0c.1-.1.2 0 .2 0 .1.1.1.1-.2 0 .1.1 0 .1 0 0zm-.2-.1c.1-.1.2 0 .2 0 0 .1-.1.1-.2 0 0 .1 0 .1 0 0zm-.4 0s.1 0 0 0c.1-.1.2 0 .2 0 .1.1.1.1-.2 0 .1.1 0 .1 0 0z" fill="#fff" stroke="#7f2210" stroke-width=".025783"/><path d="m89.2 83.8c0-.1 0-.1 0-.2 0-.4-.2-.6-.6-.6-.1 0-.2 0-.2.1" fill="none" stroke="#7f2210" stroke-linecap="round" stroke-width=".031923"/><path d="m88.2 83.3s0-.1 0-.2c0-.2-.2-.5-.6-.5-.1 0-.2 0-.4.1" fill="none" stroke="#7f2210" stroke-width=".031923"/><path d="m89.3 83.5c.1-.1.2 0 .2 0 0 .1 0 .1-.2 0 0 .1 0 .1 0 0zm-.1-.3c0-.1.1-.1 0 0 .1-.1.2 0 .2 0s.1 0-.2 0zm-.2-.3s.1 0 0 0c.1-.1.2 0 .2 0 0 .1 0 .1-.2 0 .1.1 0 .1 0 0zm-.2-.2c.1-.1.2 0 .2 0 0 .2-.1.2-.2 0 0 .2 0 .2 0 0zm-.4 0s.1 0 0 0c.1-.1.2 0 .2 0 0 .2 0 .2-.2 0 .1.2 0 .2 0 0z" fill="#fff" stroke="#7f2210" stroke-width=".025783"/><path d="m85.5 83.2c0-.1.1-.1 0 0 .1-.1.2 0 .2 0s-.1 0-.2 0z" fill="#fff" stroke="#7f2210" stroke-width=".025783"/><path d="m85.6 82.9c0-.2 0-.2 0 0 .1-.1.2 0 .2 0s0 .1-.2 0zm.3-.3c.1-.1.2 0 .2 0-.1.1-.1.1-.2 0 0 .1 0 .1 0 0zm.2-.1s.1 0 0 0c.1-.1.2 0 .2 0 .1.1-.1.1-.2 0 .1.1 0 .1 0 0zm.4 0c.1-.1.2 0 .2 0-.1.1-.1.1-.2 0 0 .1 0 .1 0 0z" fill="#fff" stroke="#7f2210" stroke-width=".025783"/><path d="m84.8 83.8c0-.1 0-.1 0-.2 0-.4.2-.6.6-.6.1 0 .2 0 .2.1" fill="none" stroke="#7f2210" stroke-linecap="round" stroke-width=".031923"/><path d="m85.9 83.3s-.1-.1-.1-.2c0-.2.2-.5.6-.5.1 0 .2 0 .4.1" fill="none" stroke="#7f2210" stroke-width=".031923"/><path d="m84.5 83.5s.1 0 0 0c.1-.1.2 0 .2 0 0 .1 0 .1-.2 0 .1.1 0 .1 0 0zm.1-.3c0-.1 0-.1 0 0 .1-.1.2 0 .2 0-.1 0-.1 0-.2 0zm.2-.3c.1-.1.2 0 .2 0-.1.1-.1.1-.2 0 0 .1 0 .1 0 0zm.2-.2c.1-.1.2 0 .2 0 .1.2 0 .2-.2 0 0 .2 0 .2 0 0zm.4 0c.1-.1.2 0 .2 0-.1.2-.1.2-.2 0 0 .2 0 .2 0 0z" fill="#fff" stroke="#7f2210" stroke-width=".025783"/><path d="m86.2 83.6-.3.1.1-.4h-.2l-.2.2.3.2h-.4v.1l.1.1.3-.1.1-.1.2.1.2-.1z" fill="#e5ad00" stroke="#7f2210" stroke-width=".031923"/><path d="m84.8 83.9.1.2.3-.2v-.1l-.2-.1z" fill="#e5ad00" stroke="#7f2210" stroke-width=".031923"/><path d="m87.1 83.6.1-.3-.2-.1-.2.1.2.3-.3-.1-.1.1.1.1h.3.1.2l.1-.1-.1-.1z" fill="#e5ad00" stroke="#7f2210" stroke-width=".031923"/><path d="m88.4 83.7h-.2l.2-.2-.2-.2h-.2v.4l-.2-.1-.1.1.1.1.2-.1.2.1.2.1.1-.1z" fill="#e5ad00" stroke="#7f2210" stroke-width=".031923"/><path d="m88.9 83.7-.1.1v.1l.3.2v-.2z" fill="#e5ad00" stroke="#7f2210" stroke-width=".031923"/><path d="m84.8 83.7c-.1 0-.1 0 0 0-.1 0-.2 0-.2 0s.1 0 .2 0v.2-.2c0 .1 0 .1 0 0z" fill="#e5ad00" stroke="#7f2210" stroke-width=".031923"/><path d="m89.3 83.7c-.1 0-.1 0 0 0-.1 0-.1 0-.2.1v.1.1l.1-.1.1-.2c.2.1 0 0 0 0z" fill="#e5ad00" stroke="#7f2210" stroke-width=".031923"/><path d="m85.8 83.7s.1-.1 0 0c.1-.1.2 0 .2 0 0 .1 0 .1-.2 0 .1.1 0 .1 0 0" fill="#e5ad00" stroke="#7f2210" stroke-width=".031923"/><path d="m87 83.6c.1-.1.2 0 .2 0-.1.1-.1.1-.2 0 0 .1 0 .1 0 0" fill="#e5ad00" stroke="#7f2210" stroke-width=".031923"/><path d="m88 83.7c.1-.1.2 0 .2 0 .1.1 0 .1-.2 0 0 .1 0 .1 0 0" fill="#e5ad00" stroke="#7f2210" stroke-width=".031923"/><path d="m84.8 84.1v-.2l.2.2-.1.1z" fill="#e5ad00"/><path d="m84.8 83.9c.1 0 .1 0 0 0 .1.1.1.1 0 0zm0 0c-.1.1-.1.2 0 .2h.1.1s0 0 0-.1 0-.1-.2-.1c.1 0 .1 0 0 0z" fill="#7f2210"/><path d="m89 84.1.1-.2v.2.1z" fill="#e5ad00"/><path d="m89.1 83.9c.1 0 0 .1 0 0 0 .1 0 .1 0 0-.1.2-.1.2 0 0zm0 0c-.1.2-.1.2-.1.2s0 0 0 .1h.1.1c0-.1 0-.1-.1-.3.1 0 .1 0 0 0z" fill="#7f2210"/><path d="m56.8 84.3s.2-.1.5-.2c.8-.7-.2-1.3-.6-1.2-.2-.2-1-.5-1.4-.2-.6-.2-1.2 0-1.4.2-.4-.1-1.4.5-.6 1.2.1.1.5.2.5.2z" fill="#e41a24" stroke="#7f2210" stroke-width=".031923"/><path d="m55.2 84.3h-1.1l-.1-.8c-.2-.4-.6-.6-.6-.6 0-.1 0-.1.1-.1.2-.1.8.2 1.2.8l.1.1h.8l.1-.1c.4-.6 1-1 1.2-.8l.1.1c-.1 0-.4.2-.6.6l-.1.8z" fill="#e5ad00" stroke="#7f2210" stroke-width=".031923"/><path d="m53.4 82.9c.2-.1.7.2 1.1.8" fill="none" stroke="#7f2210" stroke-width=".031923"/><path d="m56.9 82.9c-.2-.1-.7.2-1.1.8" fill="none" stroke="#7f2210" stroke-width=".031923"/><path d="m54.8 82.9c0-.2.1-.5.2-.5s.2.2.2.5c0 .2-.1.5-.2.5 0-.1-.2-.2-.2-.5z" fill="#e5ad00" stroke="#7f2210" stroke-width=".031923"/><path d="m55 82.9c0-.2.1-.5.1-.5.1 0 .1.2.1.5 0 .2 0 .5-.1.5 0-.1-.1-.3-.1-.5z" fill="#e5ad00" stroke="#7f2210" stroke-width=".031923"/><path d="m55 82.3c0-.1.1-.2.2-.2s.2.1.2.2-.1.2-.2.2-.2-.1-.2-.2" fill="#e5ad00" stroke="#7f2210" stroke-width=".031923"/><path d="m55.4 82.3-.6.1v-.1h.2v-.3-.1h.1v-.1h.1v.1h.1v.1h-.1v.2h.2z" fill="#e5ad00" stroke="#7f2210" stroke-width=".036834"/><path d="m56.9 84.3-1.7-.5-1.7.5v.1c.4-.1 1-.2 1.6-.2.7 0 1.3.1 1.8.1z" fill="#e5ad00"/><path d="m53.6 84.8c0-.1-.1-.2-.1-.2.5-.1 1-.2 1.7-.2.6 0 1.2.1 1.7.2 0 0 0 .1-.1.2 0 .1-.1.1-.1.1-.4-.1-.8-.1-1.4-.2-.6 0-1.2.1-1.4.2-.3 0-.3-.1-.3-.1z" fill="#e5ad00" stroke="#7f2210" stroke-width=".031923"/><path d="m55.2 85.2c.5 0 1.1-.1 1.3-.1.1 0 .2-.1.2-.2 0 0 0-.1-.1-.1-.4-.1-.8-.1-1.4-.1s-1.1.1-1.4.1c0 0-.1 0-.1.1s.1.1.2.2c.1 0 .7.1 1.3.1" fill="#e5ad00"/><path d="m55.2 85.2c.5 0 1.1-.1 1.3-.1.1 0 .2-.1.2-.2 0 0 0-.1-.1-.1-.4-.1-.8-.1-1.4-.1s-1.1.1-1.4.1c0 0-.1 0-.1.1s.1.1.2.2c.1 0 .7.1 1.3.1z" fill="none" stroke="#7f2210" stroke-width=".031923"/><path d="m56.9 84.3c-.1-.1-.2 0-.3-.1-.1 0-.2-.2-.2-.2s-.1.1-.4.1c-.1 0-.2-.1-.2-.1s-.1.1-.2.1-.2-.2-.2-.2-.1.1-.2.2c-.1 0-.2-.1-.2-.1s0 .1-.2.1c-.1 0-.4-.1-.4-.1s-.1.1-.2.2c-.1 0-.2 0-.2 0s0 0 0 .1h-.1v.1c.4-.1 1-.2 1.6-.2.3 0 .9.1 1.4.1z" fill="none" stroke="#7f2210" stroke-width=".031923"/><path d="m55.2 83.7s0 .1 0 0c0 .2.1.4.2.4s.2-.1.2-.1v-.1.1c0 .1.1.2.2.2s.2-.1.2-.2l.1-.1v.1.1c0 .1.1.2.2.2s.1 0 .2-.1v.1c0 .1 0 .1.1.1 0 0 .1 0 .2-.1s.1-.1.1-.1v.1s-.1.2-.2.2c0 0-.1.1-.2 0-.1 0-.1-.1-.1-.1h-.1c-.1 0-.2-.1-.4-.2-.1.1-.1.1-.2.1s-.2 0-.2-.1c0 0-.1.1-.2.1s-.2-.1-.2-.1c-.1.1-.1.1-.2.1s-.1 0-.2-.1c-.1.1-.1.1-.2.1s-.2 0-.2-.1c0 .1-.1.2-.4.2h-.1c0 .1-.1.1-.1.1-.1 0-.1 0-.2 0s-.2-.2-.2-.2v-.1l.1.1c.1.1.2.1.2.1.1 0 .1-.1.1-.1s.1.1.2.1.2-.1.2-.2v-.1-.1l.1.1c0 .1.1.2.2.2s.2-.1.2-.2v-.1.1c0 .1.1.1.2.1.2-.1.3-.3.4-.5-.1.1-.1 0 0 0z" fill="#e5ad00" stroke="#7f2210" stroke-width=".031923"/><path d="m55.2 84.3c-.6 0-1.2.1-1.7.2h-.1s0 0 0-.1c.5-.1 1.1-.2 1.8-.1.7-.1 1.3 0 1.7.1v.1s0 0-.1 0c-.4-.1-1-.2-1.6-.2z" fill="#e5ad00" stroke="#7f2210" stroke-linejoin="round" stroke-width=".031923"/><path d="m54.5 84.5c0-.1.1-.1 0 0 .1-.1.2 0 .2 0s0 .1-.2 0c.1.1 0 0 0 0z" fill="#fff" stroke="#7f2210" stroke-width=".031923"/><path d="m55.2 84.5h-.2s-.1 0-.1-.1c0 0 0-.1.1-.1h.5s.1 0 .1.1c0 0 0 .1-.1.1z" fill="#e41a24" stroke="#7f2210" stroke-width=".031923"/><path d="m54.1 84.6c-.1 0-.2 0-.2-.1v-.1h.1.1.1s0 .1-.1.2z" fill="#008e6e"/><path d="m54.1 84.6c-.1 0-.2 0-.2-.1v-.1h.1.1.1s0 .1-.1.2z" fill="none" stroke="#7f2210" stroke-width=".031923"/><path d="m53.5 84.8.2-.1-.1.1z" fill="#e41a24" stroke="#7f2210" stroke-width=".031923"/><path d="m55.6 84.5c0-.1.1-.1 0 0 .1-.1.2 0 .2 0s-.1.1-.2 0c.1.1 0 0 0 0z" fill="#fff" stroke="#7f2210" stroke-width=".031923"/><path d="m56.3 84.6c.1 0 .1 0 0 0 .1-.1.1-.1 0 0l-.4-.1h-.1s0 .1.1.1z" fill="#008e6e" stroke="#7f2210" stroke-width=".031923"/><path d="m56.8 84.8-.2-.1.1.1z" fill="#e41a24" stroke="#7f2210" stroke-width=".031923"/><path d="m55.2 85.1c-.5 0-1 0-1.3-.1.4-.1.8-.1 1.3-.1s1 0 1.3.1c-.3.1-.8.1-1.3.1z" fill="#e41a24" stroke="#7f2210" stroke-linejoin="round" stroke-width=".031923"/><path d="m56.8 83.9c0 .1 0 .1 0 0-.2.2-.2.2 0 0zm0-.1-.1.2h.1s.1 0 0-.2c.1.1.1.1 0 0z" fill="#7f2210"/><path d="m55.7 83.7c.1 0 .1 0 0 0 0 .1 0 .1 0 0zm0 0c-.1.1-.1.2-.1.2s0 0 .1 0 .1 0 0-.2c.1 0 .1 0 0 0z" fill="#7f2210"/><path d="m54.6 83.7c.1.1 0 .1 0 0 0 .1 0 .1 0 0zm0 0c-.1 0-.1.1 0 0-.1.2-.1.2 0 .2.1-.1.1-.1 0-.2.1 0 .1 0 0 0z" fill="#7f2210"/><path d="m53.5 83.9s.1 0 0 0c.1.1.1.1 0 0 0 .2 0 .2 0 0zm0-.1c-.1 0-.1.1 0 0v.2h.1l-.1-.2c.1.1.1 0 0 0z" fill="#7f2210"/><path d="m55.2 83.2-.2.1.1.2h.1l.1-.2z" fill="#e5ad00" stroke="#7f2210" stroke-width=".031923"/><path d="m54.7 83.7h.3v-.1l-.2-.1z" fill="#e5ad00" stroke="#7f2210" stroke-width=".031923"/><path d="m55.6 83.7h-.3v-.1l.2-.1z" fill="#e5ad00" stroke="#7f2210" stroke-width=".031923"/><path d="m54 83.3.1.3h.1l.1-.2z" fill="#e5ad00" stroke="#7f2210" stroke-width=".031923"/><path d="m53.6 83.8h.4v-.1h-.2z" fill="#e5ad00" stroke="#7f2210" stroke-width=".031923"/><path d="m54.5 83.7-.4.1v-.1z" fill="#e5ad00" stroke="#7f2210" stroke-width=".031923"/><path d="m53.4 83.8-.4.1v-.1l.2-.2z" fill="#e5ad00" stroke="#7f2210" stroke-width=".031923"/><path d="m53.9 83.7s.1-.1 0 0c.1-.1.2 0 .2 0 0 .1 0 .1-.2 0 .1.1 0 .1 0 0" fill="#e5ad00"/><path d="m53.9 83.7s.1-.1 0 0c.1-.1.2 0 .2 0 0 .1 0 .1-.2 0 .1.1 0 .1 0 0z" fill="none" stroke="#7f2210" stroke-width=".031923"/><path d="m56.4 83.3-.1.3h-.1l-.2-.1z" fill="#e5ad00" stroke="#7f2210" stroke-width=".031923"/><path d="m56.6 83.8h-.4v-.1z" fill="#e5ad00" stroke="#7f2210" stroke-width=".031923"/><path d="m55.9 83.7.4.1v-.1z" fill="#e5ad00" stroke="#7f2210" stroke-width=".031923"/><path d="m56.9 83.8.4.1v-.1l-.3-.2z" fill="#e5ad00" stroke="#7f2210" stroke-width=".031923"/><path d="m55.1 83.6c.1-.1.2 0 .2 0-.1.1-.1.1-.2 0 0 .1 0 .1 0 0z" fill="#e5ad00" stroke="#7f2210" stroke-width=".031923"/><path d="m56.2 83.7c.1-.1.2 0 .2 0 0 .1-.1.1-.2 0 0 .1 0 .1 0 0z" fill="#e5ad00" stroke="#7f2210" stroke-width=".031923"/><path d="m52.9 84.1-.2-.2h.1.1v.2c.2-.3.2-.2 0 0 .2-.2 0 0 0 0z" fill="#e5ad00" stroke="#7f2210" stroke-width=".031923"/><path d="m52.9 84.1.2-.2.1.2-.1.1z" fill="#e5ad00"/><path d="m53.1 83.9c.1.1.1.1 0 0-.2.2-.2 0 0 0-.2 0 0 0 0 0m0 0c-.2 0-.2 0 0 0-.1.1-.1.2 0 .2h.1.1v-.1c-.1.1-.1-.1-.2-.1z" fill="#7f2210"/><path d="m57.3 84.1.2-.2h-.1-.1v.2c-.1-.3-.1-.2 0 0-.1-.2-.1 0 0 0z" fill="#e5ad00" stroke="#7f2210" stroke-width=".031923"/><path d="m57.1 84.1.1-.2.1.2-.1.1z" fill="#e5ad00"/><path d="m57.2 83.9s.1 0 0 0c0 .1 0 .1 0 0-.1.2-.1.2 0 0zm0 0c-.1.1-.2.1-.1.2h.1.1s0-.2-.1-.2c.1 0 .1 0 0 0z" fill="#7f2210"/><path d="m53.4 104.8h3.5v-17h-3.5z" fill="#fff" stroke="#7f2210" stroke-width=".047882"/><path d="m55.9 87.9v17m.4-17v17" fill="none" stroke="#7f2210" stroke-width=".047882"/><path d="m52.3 100.6c-.5.2-.8.6-.7.7 0 .1.1.2.4.4.4.2.6.7.4.8.2-.2.5-.6.5-1-.1-.3-.2-.6-.6-.9" fill="#e41a24" stroke="#7f2210" stroke-width=".047882"/><path d="m60.5 94.2c-.7-.4-2-.6-3.5-.6-.5 0-1.1 0-1.7.1-2 .4-3.7 1.2-3.6 1.9l-.8-1.8c-.1-.7 1.7-1.7 3.9-2 .7-.1 1.4-.1 2-.1 1.4 0 2.7.2 3.6.5z" fill="#e41a24" stroke="#7f2210" stroke-width=".047882"/><path d="m53.4 96.3c-1-.1-1.7-.4-1.7-.7s.2-.7.8-1c.2 0 .6.1.8.1v1.6" fill="#e41a24" stroke="#7f2210" stroke-width=".047882"/><path d="m56.9 95c.6.1 1.1.2 1.3.5.1.2-.5.7-1.3 1.2z" fill="#e41a24" stroke="#7f2210" stroke-width=".047882"/><path d="m51.3 99.6c-.1-.2.8-.8 2.1-1.3.6-.2 1.1-.5 1.7-.7 1.8-.8 3.2-1.8 3-2.1.1.1.2 1.8.2 1.8.1.4-1.1 1.2-2.7 2-.6.2-1.7.7-2.3.8-1 .4-1.9 1-1.8 1.2z" fill="#e41a24" stroke="#7f2210" stroke-width=".047882"/><path d="m53.2 93.4c.5-.1.7-.4.6-.7-.1-.2-.4-.2-.6-.1l-.6.2.5 1.3s.1 0 .1-.1h.2zm-.3-.6c.2 0 .3 0 .5.1 0 .1 0 .2-.1.4 0 0-.1 0-.1.1z" fill="#e5ad00"/><path d="m54.5 92.2c-.1 0-.1 0-.2 0s-.1 0-.2 0l.4 1.3 1-.2s0 0 0-.1c0 0 0 0 0-.1-.1 0-.4.1-.6.1z" fill="#e5ad00"/><path d="m56.4 93.4c.1-.5.4-1 .6-1.4h-.1-.1c-.1.4-.2.7-.4 1.1-.1-.4-.4-.6-.5-1-.1 0-.1 0-.2 0s-.1 0-.2 0c.2.5.5.8.8 1.3z" fill="#e5ad00"/><path d="m58.4 92.3c0-.1.1-.1.1-.2 0 0-.2-.1-.4-.1-.4 0-.6.1-.6.4 0 .5.7.5.7.7 0 .1-.1.2-.4.2-.1 0-.4-.1-.4-.2 0 .1-.1.1-.1.2.1.1.2.1.4.1.4 0 .7-.1.7-.4 0-.5-.7-.5-.7-.7 0-.1.1-.2.2-.1.3 0 .4 0 .5.1z" fill="#e5ad00"/><path d="m58.4 107.5c-.4 0-.6-.1-.8-.2-.1 0-.5-.1-.7-.1-.4 0-.6.1-.8.1-.2.1-.5.2-.8.2-.4 0-.6-.1-.8-.2s-.5-.1-.8-.1-.6.1-.8.1c-.2.1-.5.2-.8.2v.5c.4 0 .6-.1.8-.2s.5-.1.8-.1.6.1.8.1c.2.1.5.2.8.2.4 0 .6-.1.8-.2s.5-.2.8-.2c.4 0 .6.1.8.2s.5.2.8.2z" fill="#3861ab" stroke="#7f2210" stroke-width=".047882"/><path d="m58.4 108c-.4 0-.6-.1-.8-.2s-.5-.2-.8-.2-.6.1-.8.2-.5.2-.8.2c-.4 0-.6-.1-.8-.2s-.5-.1-.8-.1-.6.1-.8.1c-.2.1-.5.2-.8.2v.5c.4 0 .6-.1.8-.2s.5-.1.8-.1.6.1.8.1c.2.1.5.2.8.2.4 0 .6-.1.8-.2s.5-.1.8-.1.6.1.8.1c.2.1.5.2.8.2z" fill="#fff" stroke="#7f2210" stroke-width=".047882"/><path d="m58.4 108.5c-.4 0-.6-.1-.8-.2s-.5-.1-.8-.1-.6.1-.8.1c-.2.1-.5.2-.8.2-.4 0-.6-.1-.8-.2s-.5-.1-.8-.1-.6.1-.8.1c-.2.1-.5.2-.8.2v.5c.4 0 .6-.1.8-.2s.5-.1.8-.1.6.1.8.1c.2.1.5.2.8.2.4 0 .6-.1.8-.2s.5-.1.8-.1.6.1.8.1c.2.1.5.2.8.2z" fill="#3861ab" stroke="#7f2210" stroke-width=".047882"/><path d="m58.4 109.5c-.4 0-.6-.1-.8-.2s-.5-.1-.8-.1-.6.1-.8.1c-.1.2-.5.2-.7.2s-.6-.1-.8-.2-.5-.1-.8-.1-.6 0-.8.1c-.2.2-.5.2-.8.2v-.5c.4 0 .6-.1.8-.2s.5-.1.8-.1c.4 0 .6.1.8.1.2.1.5.2.8.2.4 0 .6-.1.8-.2s.5-.1.8-.1.6.1.8.1c.2.1.5.2.8.2z" fill="#fff" stroke="#7f2210" stroke-width=".047882"/><path d="m58.4 110.1c-.4 0-.6-.1-.8-.2s-.5-.2-.8-.2-.6.1-.8.2-.5.2-.8.2c-.4 0-.6-.1-.8-.2s-.5-.1-.8-.1-.6.1-.8.1c-.2.1-.5.2-.8.2v-.5c.4 0 .6-.1.8-.2s.5-.1.8-.1.6.1.8.1c.2.1.5.2.8.2.4 0 .6-.1.8-.2s.5-.1.8-.1.6.1.8.1c.2.1.5.2.8.2z" fill="#3861ab" stroke="#7f2210" stroke-width=".047882"/><path d="m53.3 105.4c0 .5-.2.7-.6.7h4.9c-.4 0-.6-.2-.6-.6v-.1h-.1z" fill="#e5ad00" stroke="#7f2210" stroke-width=".047882"/><path d="m53.4 105.1h3.6c.1 0 .2.1.2.1 0 .1-.1.1-.2.1h-3.6c-.1 0-.2-.1-.2-.1s.1-.1.2-.1" fill="#e5ad00" stroke="#7f2210" stroke-width=".047882"/><path d="m52.7 107.3h4.9v-1.2h-4.9z" fill="#e5ad00" stroke="#7f2210" stroke-width=".047882"/><path d="m52.8 86.4h4.8v-1.2h-4.8z" fill="#e5ad00" stroke="#7f2210" stroke-width=".047882"/><path d="m53.3 87.3h3.7.1c-.1 0-.2-.1-.2-.2s.1-.2.2-.2h-.1-3.6-.1c.1 0 .2.1.2.2s-.1.2-.2.2" fill="#e5ad00" stroke="#7f2210" stroke-width=".047882"/><path d="m53.4 87.3h3.6c.1 0 .2.1.2.1 0 .1-.1.1-.2.1h-3.6c-.1 0-.2-.1-.2-.1s.1-.1.2-.1" fill="#e5ad00" stroke="#7f2210" stroke-width=".047882"/><path d="m53.4 86.4h3.6c.1 0 .2.1.2.1 0 .1-.1.1-.2.1h-3.6c-.1 0-.2-.1-.2-.1 0 .1.1-.1.2-.1" fill="#e5ad00" stroke="#7f2210" stroke-width=".047882"/><path d="m84.6 86.4h4.8v-1.2h-4.8z" fill="#e5ad00" stroke="#7f2210" stroke-width=".047882"/><path d="m88.9 87.3h-3.7-.2c.1 0 .2-.1.2-.2s-.1-.2-.2-.2h.1 3.6.1c-.1 0-.2.1-.2.2s.2.2.3.2" fill="#e5ad00" stroke="#7f2210" stroke-width=".047882"/><path d="m85.3 87.3h3.6c.1 0 .2.1.2.1 0 .1-.1.1-.2.1h-3.6c-.1 0-.2-.1-.2-.1s.1-.1.2-.1" fill="#e5ad00" stroke="#7f2210" stroke-width=".047882"/><path d="m85.3 86.4h3.6c.1 0 .2.1.2.1 0 .1-.1.1-.2.1h-3.6c-.1 0-.2-.1-.2-.1s.1-.1.2-.1" fill="#e5ad00" stroke="#7f2210" stroke-width=".047882"/><path d="m83.7 107.5c.4 0 .6-.1.8-.2s.5-.1.8-.1.6.1.8.1c.2.1.5.2.8.2s.6-.1.8-.2.5-.1.8-.1.6.1.8.1c.2.1.5.2.8.2v.5c-.4 0-.6-.1-.8-.2s-.5-.1-.8-.1-.6.1-.8.1c-.2.1-.5.2-.8.2s-.6-.1-.8-.2-.5-.2-.8-.2-.6.1-.8.2-.5.2-.8.2z" fill="#3861ab" stroke="#7f2210" stroke-width=".047882"/><path d="m83.7 108c.4 0 .6-.1.8-.2s.5-.2.8-.2.6.1.8.2.5.2.8.2.6-.1.8-.2.5-.1.8-.1.6.1.8.1c.2.1.5.2.8.2v.5c-.4 0-.6-.1-.8-.2s-.5-.1-.8-.1-.6.1-.8.1c-.2.1-.5.2-.8.2s-.6-.1-.8-.2-.5-.1-.8-.1-.6.1-.8.1c-.2.1-.5.2-.8.2z" fill="#fff" stroke="#7f2210" stroke-width=".047882"/><path d="m83.7 108.5c.4 0 .6-.1.8-.2s.5-.1.8-.1.6.1.8.1c.2.1.5.2.8.2s.6-.1.8-.2.5-.1.8-.1.6.1.8.1c.2.1.5.2.8.2v.5c-.4 0-.6-.1-.8-.2s-.5-.1-.8-.1-.6.1-.8.1c-.2.1-.5.2-.8.2s-.6-.1-.8-.2-.5-.1-.8-.1-.6.1-.8.1c-.2.1-.5.2-.8.2z" fill="#3861ab" stroke="#7f2210" stroke-width=".047882"/><path d="m83.7 109.5c.4 0 .6-.1.8-.2s.5-.1.8-.1.6.1.8.1c.2.1.5.2.8.2s.6-.1.8-.2.5-.1.8-.1.6 0 .8.1c.1.2.5.2.7.2v-.5c-.4 0-.6-.1-.8-.2s-.5-.1-.8-.1-.6.1-.8.1c-.2.1-.5.2-.8.2s-.6-.1-.8-.2-.5-.1-.8-.1-.6.1-.8.1c-.2.1-.5.2-.8.2z" fill="#fff" stroke="#7f2210" stroke-width=".047882"/><path d="m83.7 110.1c.4 0 .6-.1.8-.2s.5-.2.8-.2.6.1.8.2.5.2.8.2.6-.1.8-.2.5-.1.8-.1.6.1.8.1c.2.1.5.2.8.2v-.5c-.4 0-.6-.1-.8-.2s-.5-.1-.8-.1-.6.1-.8.1c-.2.1-.6.1-.8.1-.4 0-.6-.1-.8-.2s-.5-.1-.8-.1-.6.1-.8.1c-.2.2-.6.2-.8.2z" fill="#3861ab" stroke="#7f2210" stroke-width=".047882"/><path d="m88.9 105.4c0 .5.2.7.6.7h-4.9c.4 0 .6-.2.6-.6v-.1h.1z" fill="#e5ad00" stroke="#7f2210" stroke-width=".047882"/><path d="m85.3 105.1h3.6c.1 0 .2.1.2.1 0 .1-.1.1-.2.1h-3.6c-.1 0-.2-.1-.2-.1-.1-.1.1-.1.2-.1" fill="#e5ad00" stroke="#7f2210" stroke-width=".047882"/><path d="m84.6 107.3h4.9v-1.2h-4.9z" fill="#e5ad00" stroke="#7f2210" stroke-width=".047882"/><path d="m89.8 100.6c.5.2.8.6.7.7 0 .1-.2.2-.4.4-.4.2-.6.7-.4.8-.2-.2-.5-.6-.5-1s.4-.6.6-.9" fill="#e41a24" stroke="#7f2210" stroke-width=".047882"/><path d="m85.3 104.8h3.5v-17h-3.5z" fill="#fff" stroke="#7f2210" stroke-width=".047882"/><path d="m87.8 87.9v17m.4-17v17" fill="none" stroke="#7f2210" stroke-width=".047882"/><path d="m81.7 94.2c.7-.4 2-.6 3.6-.6.5 0 1.1 0 1.7.1 2 .4 3.7 1.2 3.6 1.9s.7-1.8.8-1.8c.1-.7-1.7-1.7-3.9-2-.7-.1-1.4-.1-2-.1-1.4 0-2.7.2-3.6.5z" fill="#e41a24" stroke="#7f2210" stroke-width=".047882"/><path d="m88.8 96.3c1-.1 1.7-.4 1.7-.7s-.2-.7-.8-1c-.2 0-.6.1-.8.1z" fill="#e41a24" stroke="#7f2210" stroke-width=".047882"/><path d="m85.3 95c-.6.1-1.1.2-1.3.5-.1.2.5.7 1.3 1.2z" fill="#e41a24" stroke="#7f2210" stroke-width=".047882"/><path d="m90.9 99.6c.1-.2-.8-.8-2.1-1.3-.6-.2-1.1-.5-1.7-.7-1.8-.8-3.2-1.8-3-2.1-.1.1-.2 1.8-.2 1.8-.1.4 1.1 1.2 2.7 2 .6.2 1.7.7 2.3.8 1 .4 1.9 1 1.8 1.2z" fill="#e41a24" stroke="#7f2210" stroke-width=".047882"/><path d="m83.9 93.5c.1-.5.2-1 .5-1.4h-.1-.1c-.1.4-.2.7-.4 1.1-.2-.4-.5-.6-.6-1-.1 0-.1 0-.2 0s-.1 0-.2 0c.4.4.6.8 1.1 1.3-.2 0-.2 0 0 0z" fill="#e5ad00"/><path d="m85.2 92.1c-.1 0-.1 0-.2 0s-.1 0-.2 0v1.3h1s0 0 0-.1v-.1c-.1 0-.4 0-.6 0z" fill="#e5ad00"/><path d="m86.7 92.2c.1 0 .4 0 .5.1 0 0 0 0 0-.1 0 0 0 0 0-.1l-1.3-.1v.1.1h.5l-.1 1.2h.2s.1 0 .2 0z" fill="#e5ad00"/><path d="m87.3 93.6h.2s.1 0 .2 0l.1-.6c0 .1.1.2.1.2l.2.5h.2s.1 0 .2 0h-.2c-.1-.2-.2-.5-.4-.6.2 0 .5-.1.5-.2s0-.2-.1-.4-.2-.1-.4-.1l-.5-.1zm.6-1.2c.1 0 .4 0 .4.2v.1c0 .2-.2.2-.5.2z" fill="#e5ad00"/><path d="m89.7 94c0 .1 0 .2-.1.5.1 0 .1 0 .2.1.1 0 .1.1.2.1l.1-1.6h-.1s0 0-.1 0l-1.3.9h.1.1c.1-.1.2-.1.4-.2zm-.4-.4.5-.2v.5z" fill="#e5ad00"/><path d="m71.1 110.4c-2.7 0-5.6-.7-7.9-1.8-1.7-.8-2.9-2.5-2.9-4.5v-7.2h21.5v7.2c0 1.9-1.1 3.7-2.9 4.5-2.2 1.1-5 1.8-7.8 1.8" fill="#fff" stroke="#7f2210" stroke-width=".047882"/><path d="m71.7 107.2v-.2s-.1 0-.2 0-.1.1-.1.1v-.1l-.1-.1s-.1 0-.1.1c-.1.1-.1.1-.1.1l-.1-.1c-.1 0-.2 0-.2 0v.1.1c-.5 0-.7.5-.7.8 0 .5.5.8 1.2.8.6 0 1.2-.4 1.2-.8-.2-.3-.5-.7-.8-.8z" fill="#fed692" stroke="#7f2210" stroke-width=".063844"/><path d="m69.9 108.9c-.5-.1-1 0-1.2 0 0 0 .2.2.4.4.1.1.5.4.7.4.7.1 1.3 0 1.3 0s-.9-.7-1.2-.8z" fill="#008e6e" stroke="#7f2210" stroke-width=".063844"/><path d="m72.4 108.9c-.6.1-1.1.6-1.1.6s.1 0 .2 0 .6 0 1.1 0 .7-.2.8-.4c.1-.1.4-.2.4-.2-.2.1-.7 0-1.4 0z" fill="#008e6e" stroke="#7f2210" stroke-width=".063844"/><path d="m71.2 107.3c-.2.2-.4.5-.4.8s.1.6.4.8c.2-.2.4-.5.4-.8s-.2-.6-.4-.8z" fill="#e41a24" stroke="#7f2210" stroke-width=".063844"/><path d="m71.2 109c-.1 0-.1.2-.1.5 0 .2-.1.6-.1.6h.1.1s0-.2 0-.5c.1-.4 0-.6 0-.6z" fill="#008e6e" stroke="#7f2210" stroke-width=".063844"/><path d="m71.1 85h-10.8v19c0 2.9 2.4 5.1 5.4 5.1s5.4-2.3 5.4-5.1z" fill="#e41a24" stroke="#7f2210" stroke-width=".047882"/><path d="m71.1 96.9h-1.2v10.4c.7-.8 1.2-2 1.2-3.2z" fill="#e5ad00" stroke="#7f2210" stroke-width=".047882"/><path d="m62.7 96.9v11.3c.4.2.7.5 1.2.6v-11.9z" fill="#e5ad00" stroke="#7f2210" stroke-width=".047882"/><path d="m60.3 96.9v7.2c0 1.2.5 2.3 1.2 3.2v-10.2h-1.2z" fill="#e5ad00" stroke="#7f2210" stroke-width=".047882"/><path d="m67.5 96.9v11.9c.5-.1.8-.4 1.2-.6v-11.3z" fill="#e5ad00" stroke="#7f2210" stroke-width=".047882"/><path d="m65.1 96.9v12.2h.6s.4 0 .6 0v-12.2z" fill="#e5ad00" stroke="#7f2210" stroke-width=".047882"/><path d="m69.9 96.9h-8.4" fill="none" stroke="#7f2210" stroke-width=".047882"/><path d="m71.1 96.9h10.7v-11.9h-10.7z" fill="#fff" stroke="#7f2210" stroke-width=".047882"/><path d="m81.8 96.9v7.2c0 2.9-2.4 5.1-5.4 5.1s-5.4-2.3-5.4-5.1v-7.2z" fill="#e41a24" stroke="#7f2210" stroke-width=".047882"/><path d="m76 102.7c-.1 0-.1 0 0 0l-1-.1v-.4h1s0 0 0-.1l-1.1-1.2.2-.2 1.1 1.2v-1.7h.4v1.7l1.1-1.2.2.2-1.1 1.2s0 .1.1.1h.8v.4h-.8v.1l1.1 1.2-.2.2-1.1-1.2v1.9h-.4v-1.9l-1.1 1.2-.2-.2z" fill="#e5ad00" stroke="#7f2210" stroke-width=".031923"/><path d="m77.8 107c-.2.1-.5.2-.8.2-.1-.1-.2-.2-.4-.4v-1.4h-.4v1.4c-.1 0-.2.1-.4.4-.4 0-.6-.1-.8-.2l-.2.4c.4.1.6.2 1 .2 0 .2.2.5.6.5.2 0 .5-.2.6-.5.4 0 .7-.1 1-.2zm-1.3.7c-.1 0-.2-.1-.2-.2s.1-.2.2-.2.2.1.2.2-.1.2-.2.2z" fill="#e5ad00" stroke="#7f2210" stroke-width=".031923"/><path d="m79.9 105.4c.1-.4.2-.7.2-1.1h-.4c0 .4-.1.6-.2 1-.1 0-.2 0-.4 0l-1-1-.2.2 1 1c-.1.2-.1.5 0 .6-.2.2-.5.5-.7.6l.1.4c.4-.2.6-.5.8-.7.2 0 .4 0 .6-.1.3-.3.5-.6.2-.9zm-.2.6c-.1.1-.2.1-.4 0-.1-.1-.1-.2 0-.4.1-.1.2-.1.4 0 .1.2 0 .3 0 .4z" fill="#e5ad00" stroke="#7f2210" stroke-width=".031923"/><path d="m80.6 102.4c0-.2-.1-.5-.4-.5v-1.2h-.4v1.2c-.1 0-.4.2-.4.4h-1v.4h1c0 .1.2.2.4.4v.8h.4v-.9c.2-.1.4-.3.4-.6zm-.6.3c-.1 0-.2-.1-.2-.2s.1-.2.2-.2.2.1.2.2c.1.1 0 .2-.2.2z" fill="#e5ad00" stroke="#7f2210" stroke-width=".031923"/><path d="m80 97.9c-.2 0-.5.1-.6.4h-1v.4h1v.1l-1.3 1.6.2.2 1.3-1.6h.1v1.2h.4v-1.2c.2-.1.4-.2.4-.5.1-.4-.2-.6-.5-.6zm0 .8c-.1 0-.2-.1-.2-.2s.1-.2.2-.2.2.1.2.2c.1.1 0 .2-.2.2z" fill="#e5ad00" stroke="#7f2210" stroke-width=".031923"/><path d="m76.9 98.3c-.1-.2-.2-.4-.6-.4-.2 0-.5.1-.6.4h-.8v.4h.8c0 .1.2.4.4.4v.7h.5v-.8c.1 0 .4-.2.4-.4h1v-.4h-1.1zm-.4.4c-.1 0-.2-.1-.2-.2s.1-.2.2-.2.2.1.2.2-.1.2-.2.2z" fill="#e5ad00" stroke="#7f2210" stroke-width=".031923"/><path d="m73.3 98.7 1.1-.1v-.4h-1c-.1-.2-.4-.4-.6-.4-.4 0-.6.2-.6.6 0 .2.1.5.4.5v1.2h.4v-1.1l1.3 1.6.2-.2zm-.4 0c-.1 0-.2-.1-.2-.2s.1-.2.2-.2.2.1.2.2-.1.2-.2.2z" fill="#e5ad00" stroke="#7f2210" stroke-width=".031923"/><path d="m73.3 102.2c0-.1-.2-.4-.4-.4v-1.2h-.4v1.2c-.2.1-.4.2-.4.5s.1.5.4.5v.8h.5v-.8c.1-.1.4-.2.4-.4h1v-.4h-1zm-.4.5c-.1 0-.2-.1-.2-.2s.1-.2.2-.2.2.1.2.2-.1.2-.2.2z" fill="#e5ad00" stroke="#7f2210" stroke-width=".031923"/><path d="m73.8 106.1c.1-.2.1-.5 0-.6l1-1-.2-.2-1 1c-.1 0-.2 0-.4 0-.1-.2-.2-.6-.2-1h-.4c0 .4.1.7.2 1.1-.2.2-.2.6.1.7.1.1.4.1.6.1.2.2.5.5.8.7l.2-.4c-.2 0-.4-.1-.7-.4zm-.2-.2c-.1.1-.2.1-.4 0s-.1-.2 0-.4.2-.1.4 0z" fill="#e5ad00" stroke="#7f2210" stroke-width=".031923"/><path d="m72.8 104.7-.4-.1v-1l.4-.1v.6c-.2.1-.2.4 0 .6z" fill="#e5ad00" stroke="#7f2210" stroke-width=".031923"/><path d="m73 103.5.4.1s0 .6 0 .5 0 .5 0 .5l-.4.1c0-.2 0-.4 0-.6z" fill="#e5ad00" stroke="#7f2210" stroke-width=".031923"/><path d="m72.6 99.8-.3.1v1l.3.1z" fill="#e5ad00" stroke="#7f2210" stroke-width=".031923"/><path d="m73 99.8.3.1v1l-.3.1z" fill="#e5ad00" stroke="#7f2210" stroke-width=".031923"/><path d="m75.3 98.6-.2.4h-.9l-.1-.4z" fill="#e5ad00" stroke="#7f2210" stroke-width=".031923"/><path d="m75.3 98.3-.2-.4h-.9l-.1.4z" fill="#e5ad00" stroke="#7f2210" stroke-width=".031923"/><path d="m74.2 106.5c.4.2.7.5 1.1.6l.1-.4c-.4-.1-.6-.2-.8-.5z" fill="#e5ad00" stroke="#7f2210" stroke-width=".031923"/><path d="m74.1 106.9c.4.2.7.5 1.1.6l-.2.2c-.4-.1-.6-.2-.8-.5z" fill="#e5ad00" stroke="#7f2210" stroke-width=".031923"/><path d="m74.5 104.7.4.1.7-.7-.2-.2z" fill="#e5ad00" stroke="#7f2210" stroke-width=".031923"/><path d="m74.3 104.5-.2-.3.6-.7.3.1z" fill="#e5ad00" stroke="#7f2210" stroke-width=".031923"/><path d="m80.2 104.7.4-.1v-1l-.4-.1v.6z" fill="#e5ad00" stroke="#7f2210" stroke-width=".031923"/><path d="m79.8 103.5h-.4s0 .6 0 .5 0 .5 0 .5l.4.1c0-.2 0-.4 0-.6z" fill="#e5ad00" stroke="#7f2210" stroke-width=".031923"/><path d="m78.6 106.5c-.4.2-.7.5-1.1.6l-.1-.4c.4-.1.6-.2.8-.5z" fill="#e5ad00" stroke="#7f2210" stroke-width=".031923"/><path d="m78.7 106.9c-.4.2-.7.5-1.1.6l.2.2c.4-.1.6-.2.8-.5z" fill="#e5ad00" stroke="#7f2210" stroke-width=".031923"/><path d="m79.8 99.8-.4.1v1l.4.1z" fill="#e5ad00" stroke="#7f2210" stroke-width=".031923"/><path d="m80.2 99.8.3.1v1l-.3.1z" fill="#e5ad00" stroke="#7f2210" stroke-width=".031923"/><path d="m78.2 104.7-.3.1-.6-.7.1-.2z" fill="#e5ad00" stroke="#7f2210" stroke-width=".031923"/><path d="m78.5 104.5.2-.3-.6-.7-.3.1z" fill="#e5ad00" stroke="#7f2210" stroke-width=".031923"/><path d="m74.5 100 .3-.1.7.7-.2.3z" fill="#e5ad00" stroke="#7f2210" stroke-width=".031923"/><path d="m74.2 100.3-.3.2.8.7.3-.1z" fill="#e5ad00" stroke="#7f2210" stroke-width=".031923"/><path d="m78.4 100-.4-.2-.7.8.2.3z" fill="#e5ad00" stroke="#7f2210" stroke-width=".031923"/><path d="m78.6 100.3.2.2-.7.7-.3-.1z" fill="#e5ad00" stroke="#7f2210" stroke-width=".031923"/><path d="m74.1 102.2.1-.4h.9l.2.4z" fill="#e5ad00" stroke="#7f2210" stroke-width=".031923"/><path d="m74.1 102.6.1.3h.9l.2-.3z" fill="#e5ad00" stroke="#7f2210" stroke-width=".031923"/><path d="m78.7 102.2-.1-.4h-1l-.1.4z" fill="#e5ad00" stroke="#7f2210" stroke-width=".031923"/><path d="m78.7 102.6-.1.3h-1l-.1-.3z" fill="#e5ad00" stroke="#7f2210" stroke-width=".031923"/><path d="m76.6 105.7h.3v-1l-.3-.1z" fill="#e5ad00" stroke="#7f2210" stroke-width=".031923"/><path d="m76.2 105.7h-.3v-1l.3-.1z" fill="#e5ad00" stroke="#7f2210" stroke-width=".031923"/><path d="m76.2 99.5-.4.1v1l.4.1zm.4 0 .4.1v1h-.4z" fill="#e5ad00" stroke="#7f2210" stroke-width=".031923"/><path d="m77.5 98.6.1.4h1.1v-.4z" fill="#e5ad00" stroke="#7f2210" stroke-width=".031923"/><path d="m77.5 98.3.1-.4h1.1v.4z" fill="#e5ad00" stroke="#7f2210" stroke-width=".031923"/><path d="m75.9 102.4c0-.4.2-.6.6-.6s.6.2.6.6-.2.6-.6.6c-.4-.1-.6-.3-.6-.6" fill="#008e6e" stroke="#7f2210" stroke-width=".031923"/><path d="m64 87.8h-.2v-.2h-.4v.8h.4v.6h-.7v1.6h.4v3.1h-.8v1.7h6.1v-1.7h-.8v-3.1h.4v-1.6h-.7v-.6h.4v-.8h-.4v.2h-.2v-.2h-.4v.2h-.2v-.2h-.4v.8h.4v.6h-.7v-1.7h.4v-.8h-.4v.2h-.2v-.2h-.4v.2h-.2v-.2h-.4v.8h.4v1.7h-.5v-.6h.1v-.8h-.4v.2h-.2v-.2h-.4zm-1.3 7.5h6.1m-6.1-.4h6.1m-6.1-.5h6.1m-6.1-.3h6.1m-6.1-.5h6.1m-5.2-.4h4.5m-4.5-.3h4.5m-4.5-.5h4.5m-4.5-.3h4.5m-4.5-.4h4.5m-4.5-.4h4.5m-4.5-.4h4.5m-5-.4h5.3m-5.3-.4h5.3m-5.3-.4h5.3m-5.3-.4h5.3m-4.6-.4h3.8m-2.3-.4h.7m-.7-.4h.7m-.7-.3h.7m-.7-.5h.7m-1-.5h1.6m-2.8 1.7h.8m-1-.5h1.4m-1.4 7.3v-.4m0-.5v-.4m-.5.4v.4m.7.1v-.4m.5.8v-.4m0-.5v-.4m0-.4v-.4m0-.3v-.5m-.5 1.7v-.5m-.7.5v-.5m1.5 0v.5m.4-.5v-.4m-1.2-.3v.4m.8-.4v.4m.7-.4v.4m-.3-.4v-.5m.3-.3v.4m0-1.2v.4m-.3-.8v.4m.3-.8v.4m-.7-.4v.4m-.8-.4v.4m-.2-.8v.4m.7-.4v.4m.7-.4v.4m.3-.8v.3m-.7-.3v.3m-.8-.3v.3m-.2-.7v.4m1.4-.4v.4m-.7-1.2v.4m3.3-.4h-.8m1.2-.5h-1.4m1.4 7.3v-.4m0-.5v-.4m.3.4v.4m-.7.1v-.4m-.3.8v-.4m0-.5v-.4m0-.4v-.4m0-.3v-.5m.3 1.7v-.5m.7.5v-.5m-1.4 0v.5m-.4-.5v-.4m1.1-.3v.4m-.7-.4v.4m-.8-.4v.4m.4-.4v-.5m-.4-.3v.4m0-1.2v.4m.4-.8v.4m-.4-.8v.4m.8-.4v.4m.7-.4v.4m.4-.8v.4m-.7-.4v.4m-.8-.4v.4m-.4-.8v.3m.8-.3v.3m.7-.3v.3m.4-.7v.4m-1.5-.4v.4m.8-1.2v.4m-1.6 4v-.5m0-1.1v-.3m0 1.1v-.4m0-1.2v-.4m0-.4v-.4m0-.8v-.4m0-.3v-.4m-1.9.9h.8m.7-1.1h.7m.9 1.1h.8" fill="#e5ad00" stroke="#7f2210" stroke-width=".056477"/><path d="m66.8 95.3v-1.1c0-.2-.1-.8-1.1-.8-.8 0-1 .6-1 .8v1.1z" fill="#e5ad00" stroke="#7f2210" stroke-width=".056477"/><path d="m65.1 94.3h-.5c0-.2 0-.5.2-.6l.5.4c-.1 0-.2.1-.2.2z" fill="#e5ad00" stroke="#7f2210" stroke-width=".056477"/><path d="m66.4 94.3h.5c0-.2 0-.5-.2-.6l-.4.3c0 .1.1.2.1.3z" fill="#e5ad00" stroke="#7f2210" stroke-width=".056477"/><path d="m65.9 93.8.2-.5c-.1 0-.2-.1-.5-.1-.1 0-.2 0-.4.1l.2.5z" fill="#e5ad00" stroke="#7f2210" stroke-width=".056477"/><path d="m65 92.5v-1.1c0-.2-.2-.6-.6-.6s-.6.2-.6.6v1.1z" fill="#e5ad00" stroke="#7f2210" stroke-width=".056477"/><path d="m66.5 92.5v-1.1c0-.2.2-.6.6-.6s.6.2.6.6v1.1z" fill="#e5ad00" stroke="#7f2210" stroke-width=".056477"/><path d="m66.1 89.9.1-1h-1v1z" fill="#e5ad00" stroke="#7f2210" stroke-width=".056477"/><path d="m66.9 89.9-.1-1h1l-.1 1z" fill="#e5ad00" stroke="#7f2210" stroke-width=".056477"/><path d="m64.6 89.9v-1h-1l.1 1z" fill="#e5ad00" stroke="#7f2210" stroke-width=".056477"/><path d="m66.4 95.3v-.8c0-.1-.1-.6-.7-.6s-.6.5-.6.6v.8z" fill="#3861ab"/><path d="m64.9 92.4v-.8c0-.2-.1-.5-.5-.5-.2 0-.5.2-.5.5v1h1z" fill="#3861ab"/><path d="m66.7 92.4v-.8c0-.2.1-.5.5-.5.2 0 .5.2.5.5v1h-1z" fill="#3861ab"/><path d="m67.6 96.8c0-2.1 1.6-3.9 3.5-3.9s3.5 1.8 3.5 3.9-1.6 3.9-3.5 3.9c-1.9.1-3.5-1.7-3.5-3.9" fill="#e41a24" stroke="#7f2210" stroke-width=".047882"/><path d="m68.7 96.8c0-1.6 1.1-2.9 2.4-2.9s2.4 1.3 2.4 2.9-1.1 2.9-2.4 2.9-2.4-1.2-2.4-2.9" fill="#3861ab" stroke="#7f2210" stroke-width=".047882"/><path d="m70.5 95.9c-.1 0-.2.1-.4.2 0 0 .1-.2.1-.6 0-.2-.2-.6-.2-.6s-.2.4-.2.6.1.6.1.6c0-.1-.1-.2-.4-.2-.1 0-.4.1-.4.4v.1l.1.2c0-.1.1-.1.2-.1s.2.1.2.2v.2l-.1.4.2-.1.1.2.2-.2.2.1-.1-.4v-.2c0-.1.1-.2.2-.2s.1 0 .2.1l.1-.2v-.1c.1-.3 0-.4-.1-.4z" fill="#e5ad00" stroke="#7f2210" stroke-width=".047882"/><path d="m69.5 96.9h1v-.2h-1z" fill="#e5ad00" stroke="#7f2210" stroke-width=".047882"/><path d="m72.8 95.9c-.1 0-.2.1-.4.2 0 0 .1-.2.1-.6 0-.2-.2-.6-.2-.6s-.3.4-.3.6.1.6.1.6c0-.1-.1-.2-.4-.2-.1 0-.4.1-.4.4v.1l.1.2c0-.1.1-.1.2-.1s.2.1.2.2v.2l-.2.2.2-.1.1.2.1-.2.2.1-.1-.4v-.2c0-.1.1-.2.2-.2s.1 0 .2.1l.1-.4c.4 0 .3-.1.2-.1z" fill="#e5ad00" stroke="#7f2210" stroke-width=".047882"/><path d="m71.8 96.9h1v-.2h-1z" fill="#e5ad00" stroke="#7f2210" stroke-width=".047882"/><path d="m71.6 97.8c-.1 0-.2.1-.4.2 0 0 .1-.2.1-.6 0-.2-.2-.6-.2-.6s-.2.4-.2.6.1.6.1.6c0-.1-.1-.2-.4-.2-.1 0-.4.1-.4.4l.1.4c0-.1.1-.1.2-.1s.2.1.2.2v.2l-.1.4.2-.1.1.2.2-.2.2.1-.1-.4v-.2c0-.1.1-.2.2-.2s.1 0 .2.1l.1-.4c.2-.3.1-.4-.1-.4z" fill="#e5ad00" stroke="#7f2210" stroke-width=".047882"/><path d="m70.6 98.9h1v-.2h-1z" fill="#e5ad00" stroke="#7f2210" stroke-width=".047882"/><path d="m72.9 88.1s-.1 0-.2.1-.1.2-.1.2.1-.1.2-.1.2 0 .2 0z" fill="#e41a24" stroke="#7f2210" stroke-width=".047882"/><path d="m76.6 88v-.2s-.4 0-.5 0c-.2 0-.4-.1-.5-.2s-.2-.2-.4-.2-.5.1-.5.1.2.1.4.2c.1.2.4.4.4.4h.7c.1-.2.4-.1.4-.1" fill="#e41a24" stroke="#7f2210" stroke-width=".047882"/><path d="m80.4 86.6c-.2.4-.6.4-.7.7 0-.2 0-.5-.2-.6 0 .5-.5 1.1-.4 1.8 0 .2-.1.6-.1.7s.1.6.2 1.1c.1.4.4 1.3-.2 1.4-.7.1-1-.4-1.2-.6-.4-.5-.4-1-.5-1.2 0 0 .1.1.2.1.1.1.1.2.1.2s0-.4 0-.5-.1-.4-.1-.4.2.2.5.5c.1-.1.1-.4-.1-.7.2.1.5.4.5.4s0-.2 0-.4-.1-.2-.2-.2c-.2-.1-.2-.2-.2-.2 0-.1 0-.2 0-.2s0 0 .1.1c.1 0 .1.1.1.1s0-.1 0-.2c0 0 0-.1-.1-.2 0-.1 0-.2 0-.4s0-.4 0-.4-.2-.4-.5-.5c-.2-.2-.6-.4-.6-.4s-.2 0-.4.1c-.1 0-.1.1-.1.2 0 0-.2 0-.4 0-.1 0-.2 0-.4.1v.2s.2.1.5.2c.2 0 .2.2.1.4 0 .2-.2.2-.5.2-.1 0-.2 0-.2.1s.2.2.2.2c0 .1-.1.2-.2.2s-.5 0-.6 0-.2 0-.2 0-.1 0-.2-.1c-.1 0-.4-.2-.5-.4-.1-.1-.2-.1-.4-.2-.1-.1-.2-.2-.2-.4s0-.2 0-.4c.1-.1.1-.1.1-.2s-.1 0-.2 0-.1-.1-.2-.1-.1.1-.1.2 0 .2 0 .2c-.1 0-.1-.2-.2-.2s-.1.1-.1.1l-.1.1c-.1 0 0 .1.1.1s.2.1.2.1-.2 0-.4 0 0 .1 0 .2v.1s0 .1.1.1.2-.1.2-.1c.1 0 .1.1.1.1s.1.1.1.2.2.1.2.1-.1 0-.2 0-.2.1-.2.1.5 0 .7.1c-.1 0-.5.2-.5.2.6.4.6 0 1.2.6 0 0-.2.2-.4.2-.1 0-.2.1-.4.2-.1 0-.4.1-.5 0-.1 0-.1-.1-.2-.2-.1 0-.1 0-.1.1 0 0 0 .1-.1.1-.1.1 0 .1.1.1s.2.1.1.1h-.2s-.1.1 0 .1v.2s.1.1.1 0c0 0 .1-.1.2 0 0 0-.1.1-.1.2v.1h.1c.1 0 .1.1.1.1s.1 0 .1-.1 0-.2 0-.2c0-.1.2-.1.4-.1s.2-.1.2-.2v.4c.4-.2.5-.5.5-.6v.5c.2-.4.6-.5.6-.5s.1.2.1.4c.1.1.2.4.5.5.1.1.8.5.8.5s-.4.1-.5.1-.4 0-.6 0-.5.2-.5.4 0 .2 0 .5.1.4.1.4v-.2l.1-.2v.2.2s0 .2 0 .2 0-.1.1-.1c0-.1.1-.1.1-.1s0 .1 0 .2v.2s-.1.1-.2.1c-.2 0-.4 0-.5-.1s0-.2-.1-.4c-.1 0-.1.1-.1.1s0 0-.1.1 0 .1.1.1c.1.1.1.1 0 .1 0 .1-.2 0-.4 0s0 .1 0 .2 0 .2.1.2c0 0 .1 0 .1-.1h.1v.1s-.1.1-.1.1c0 .1.1.1.1.1h.2s.1 0 .1-.1.1-.1.1-.1c.1 0 .2 0 .2.1h.2s.2 0 .2 0 .1 0 .2 0c0 0 .1-.1.1-.2 0 0 0-.2-.1-.5-.1-.2-.1-.5 0-.6s.2-.1.4-.1h.2c-.1.2-.1 1 .5 1.3-.1-.2 0-.5 0-.5l.2.5v-.5s.2.2.2.4c.1.1.1.2 0 .4 0 .1-.1.1-.2.1s-.1-.1-.4 0c-.1.1 0 .1 0 .1s0 .1 0 .2.1.1.1 0h.8s0 .1-.1.1c1 .1.8.4.8.4s.1.1.2.1l.1.1s0-.1.1-.2c0 0 0-.1.1-.1v.1s0 .1.1.1c0 0 .1-.1.2-.1 0 0 .1.1.2 0 .1 0-.1-.2-.1-.2 0-.1 0-.2 0-.2s.1-.4.2-.5.2-.4.2-.4c0-.1 0-.1-.1-.1l-.1-.1c0-.1-.1 0-.2-.1s-.2-.1-.2-.5.2-.6.2-.6c.1-.1.5-.1.7-.2.4-.4.4-.8.4-1.1s-.4-1.1-.5-1.2c0-.1-.1-1 .1-1.1.6-.4.2-.6.8-1.1-.1 0-.2 0-.5 0 .4.5.8.4.8-.3z" fill="#e086b6" stroke="#7f2210" stroke-miterlimit="10" stroke-width=".047882"/><path d="m76.9 87c0 .2 0 .2 0 0 .1.1.1.1 0 0 .2.1.2.2.3.2 0 0-.1-.1-.3-.2 0-.1-.1-.1 0 0z" fill="#7f2210"/><path d="m76 87.3v-.3h.2c-.1.3-.2.3-.2.3z" fill="#7f2210"/><path d="m73.6 87.3s.1.1.2.1.1 0 .1 0 0-.1 0-.2c0-.2-.2-.4-.2-.4s.1.1 0 .2c0 .2-.1.3-.1.3" fill="#e41a24" stroke="#7f2210" stroke-width=".047882"/><path d="m73.1 87.5s-.1-.1-.2-.1c-.2 0-.4.1-.4.1h.2c.1 0 .1.2.1.2l.1-.1c.1 0 .2-.1.2-.1" fill="#e41a24" stroke="#7f2210" stroke-width=".047882"/><path d="m73.3 90.4s-.1-.1-.2-.1-.2.2-.2.2.1 0 .2 0 .1.1.1.1.1-.1.1-.2z" fill="#e41a24" stroke="#7f2210" stroke-width=".047882"/><path d="m73.2 91s-.1 0-.2.1-.1.2-.1.2.1-.1.2-.1.2 0 .2 0z" fill="#e41a24" stroke="#7f2210" stroke-width=".047882"/><path d="m73.5 91.6s0 .1.1.2.2.1.2.1v-.1c0-.1.1-.1.1-.1l-.2-.1c-.1 0-.2 0-.2 0" fill="#e41a24" stroke="#7f2210" stroke-width=".047882"/><path d="m75.1 93s-.1-.1-.2-.1-.4.1-.4.1h.2c0 .1.1.1.1.1s.1 0 .1-.1c.1.1.2 0 .2 0" fill="#e41a24" stroke="#7f2210" stroke-width=".047882"/><path d="m74.7 93.6s-.2 0-.2.1c-.2.1-.2.2-.2.2s.1-.1.2-.1.2.1.2.1v-.1c0-.1 0-.2 0-.2" fill="#e41a24" stroke="#7f2210" stroke-width=".047882"/><path d="m75 94.3s-.1.1 0 .2.2.1.2.1v-.1c0-.1.1-.1.1-.1z" fill="#e41a24" stroke="#7f2210" stroke-width=".047882"/><path d="m77.6 94.6s-.1 0-.2 0-.1.2-.1.2.1-.1.3-.2c0 .1.1.2.1.2s.1-.1-.1-.2z" fill="#e41a24" stroke="#7f2210" stroke-width=".047882"/><path d="m77.8 95.2s-.1.1-.1.2.1.2.1.2 0-.1 0-.2c.1-.1.2-.1.2-.1l-.2-.1c.1.1 0 0 0 0" fill="#e41a24" stroke="#7f2210" stroke-width=".047882"/><path d="m78.5 95.4s-.1.1 0 .2.2.1.2.1-.1-.1-.2-.3h.2s-.1 0-.2 0c.1-.1 0 0 0 0" fill="#e41a24" stroke="#7f2210" stroke-width=".047882"/><path d="m78.5 87.3c0-.1 0-.1 0 0 0-.1-.1-.1 0 0-.1-.1-.1-.1 0-.2v-.1h-.1s-.1 0-.2 0v-.1h-.2s-.1-.1 0-.1c0 0 0-.1.1-.1v-.1h-.1v.1s-.1 0-.2 0c0 0 0 0 0-.1h-.1s-.1-.1 0-.1v-.1h-.1s-.1.1-.1 0c0 0 0 0 0-.1-.1 0-.1-.2-.1-.2v.2s-.1.2-.1.2c.1 0 .4.1.6.4.2.2.5.4.5.5 0 0 .1-.1.2-.1s.2 0 .2 0c-.1 0-.3.1-.3 0z" fill="#e5ad00" stroke="#7f2210" stroke-linecap="round" stroke-linejoin="round" stroke-width=".031923"/><path d="m77.5 86.7s.1 0 0 0c.1 0 .1.1 0 0 .1.1.1.1 0 0z" fill="#7f2210"/><path d="m77.8 86.9c-.2-.1-.2-.1 0 0-.2-.1 0-.1 0 0 .1 0 .1 0 0 0z" fill="#7f2210"/><path d="m77.4 86.7c-.1-.1-.1-.1 0 0-.1-.1 0-.1 0 0 .1 0 .1 0 0 0z" fill="#7f2210"/><path d="m77.2 86.4c.1 0 .1.2 0 0 0 .2 0 .2 0 0z" fill="#7f2210"/><path d="m78 87c0-.1-.1-.1 0 0-.1 0-.1 0 0 0z" fill="#7f2210"/><path d="m78.1 87.2c0 .1.1.1 0 0 .1.1.1 0 0 0 0-.2 0-.2 0 0-.1 0-.1 0 0 0z" fill="#7f2210"/><path d="m78.4 87.4c0-.1 0-.1 0 0-.2-.1-.2-.1 0 0-.2 0 0 0 0 0" fill="#7f2210"/><path d="m77.8 86.1h-.2l-.1.1.1.1.2-.1z" fill="#e5ad00" stroke="#7f2210" stroke-width=".031923"/><path d="m77.6 86.2-.1-.1-.1.1v.1h.1.1z" fill="#e5ad00" stroke="#7f2210" stroke-width=".031923"/><path d="m77.6 86.2-.1.1.1.1h.2v-.1z" fill="#e5ad00" stroke="#7f2210" stroke-width=".031923"/><path d="m77.6 86.2s0 .1 0 0c0 .1 0 .1 0 0-.1.1-.1.1 0 0-.1 0-.1 0 0 0m0 0c-.1 0-.1 0 0 0-.1.1-.1.1 0 .2h.1c.1-.1.1-.1-.1-.2z" fill="#7f2210"/><path d="m77.2 85.8c-.1 0-.2 0-.2 0s0 0 .2 0c-.1.1 0 .2 0 .2z" fill="#e5ad00" stroke="#7f2210" stroke-width=".031923"/><path d="m77.3 86-.3.1.2.1.1-.1z" fill="#e5ad00" stroke="#7f2210" stroke-width=".031923"/><path d="m77 86s.2 0 0 0c.2 0 .2.1 0 0 .2.1 0 .1 0 0 0 .1 0 .1 0 0zm0 0c-.1.1-.1.1 0 0-.1.1 0 .1 0 0 .2.1.2 0 0 0z" fill="#7f2210"/><path d="m78.2 86.3h-.1l-.1.3h.1l.1-.2z" fill="#e5ad00" stroke="#7f2210" stroke-width=".031923"/><path d="m78 86.3-.1.1v.2h.1.1z" fill="#e5ad00" stroke="#7f2210" stroke-width=".031923"/><path d="m78 86.6.1.2.1-.1v-.1z" fill="#e5ad00" stroke="#7f2210" stroke-width=".031923"/><path d="m78 86.7.1-.2z" fill="#e5ad00"/><path d="m78 86.6s.1 0 0 0c.1 0 .1 0 0 0zm0-.2c-.1 0-.1.1 0 0l-.1.2h.1.1s0 0-.1-.2c.1.2.1 0 0 0 .1 0 .1 0 0 0z" fill="#7f2210"/><path d="m78.6 86.8-.1-.1v.2h.1z" fill="#e5ad00" stroke="#7f2210" stroke-width=".031923"/><path d="m78.5 86.9h-.1l.1.3.1-.2z" fill="#e5ad00" stroke="#7f2210" stroke-width=".031923"/><path d="m78.4 86.7-.2.1v.1h.3z" fill="#e5ad00" stroke="#7f2210" stroke-width=".031923"/><path d="m78.4 87 .1-.1v.1z" fill="#e5ad00"/><path d="m78.5 86.9c0 .1 0 .1 0 0-.1.1-.1.1 0 0-.1 0-.1 0 0 0-.1 0 0 0 0 0m0-.1c-.1 0-.1 0 0 0-.1.1-.1.1-.1.2h.1.1s0 0-.1-.2c.1.1.1.1 0 0z" fill="#7f2210"/><path d="m79 87.3c-.1-.1-.2 0-.2 0-.1.1 0 .1.2 0 0 .1 0 .1 0 0 .1.1.1.1 0 0z" fill="#e5ad00" stroke="#7f2210" stroke-width=".031923"/><path d="m78.7 87.2h-.1v.1l.1.1h.1z" fill="#e5ad00" stroke="#7f2210" stroke-width=".031923"/><path d="m78.7 87.4.1-.1z" fill="#e5ad00"/><path d="m78.8 87.3s0 .1 0 0c-.1.1-.1.1 0 0-.1.1-.1 0 0 0-.1 0-.1 0 0 0m0 0c-.1 0-.1 0 0 0-.1 0-.1.1 0 0-.1.1-.1.1 0 0 0 .1 0 .1 0 0z" fill="#7f2210"/><path d="m75.1 88.8s-.1 0-.2.1-.1.2-.1.2.1-.1.4-.1c.1.1.2.1.2.1.1 0 .2-.1.2-.1s-.1.2-.1.4 0 .1 0 .2-.1.4-.1.4.1 0 .2-.1c.1 0 .2-.1.4-.1.1-.1.2-.2.2-.2s0 .2 0 .4v.4s.1-.1.2-.1c0 0 .1-.1.2-.5.1.2.2.7.2.7l.1-.2c.1-.1.1-.4.1-.4l.1.2m-2.2-.1c.1-.1.5-.5.7-.5m.1 1.1s.2-.1.4-.1c.1-.1.2-.2.2-.2" fill="none" stroke="#7f2210" stroke-width=".047882"/><path d="m77 91.8s.5.2.5.5c0 .2-.2.5-.2.5" fill="none" stroke="#7f2210" stroke-width=".047882"/></g><ellipse clip-path="url(#b)" cx="91.8" cy="90.2" fill="none" rx="53.5" ry="53.5"/><path d="m91.8 147c-31.3 0-56.8-25.5-56.8-56.8s25.5-56.8 56.8-56.8 56.8 25.5 56.8 56.8-25.5 56.8-56.8 56.8zm0-109.6c-29.1 0-52.8 23.7-52.8 52.8s23.7 52.8 52.8 52.8 52.8-23.7 52.8-52.8-23.7-52.8-52.8-52.8z" fill="#231f20"/></svg>