<svg enable-background="new 0 0 198 181" viewBox="0 0 198 181" xmlns="http://www.w3.org/2000/svg"><path d="m198.1 9.9h-112.6c-41.9 3.8-74.2 39.5-73.8 81.2.4 41.2 32.5 76 73.8 79.7v.3h112.6z" fill="#fff"/><path clip-rule="evenodd" d="m38.1 90h107.1c0-29.5-23.9-53.5-53.5-53.6h-.1c-29.5.2-53.5 24.1-53.5 53.6z" fill="#c8102e" fill-rule="evenodd"/><path clip-rule="evenodd" d="m90.5 143.5h2.3c29.1-.6 52.4-24.3 52.4-53.5h-107.1c0 29.2 23.4 52.9 52.4 53.5z" fill="#c8102e" fill-rule="evenodd"/><path d="m145.1 92.9c-35.6 0-71.2 0-106.9 0 0-1.1-.1-2.3-.1-3.5s.1-2.3.1-3.2h106.8c.1 1.1.1 2.1.1 3.2.1 1.2.1 2.4 0 3.5z" fill="#fff"/><path d="m73.9 39.5v101c-1.2-.5-2.5-1-3.8-1.5-1.1-.5-2-1-3-1.4 0-31.7 0-63.5 0-95.1 1.1-.6 2.3-1.1 3.5-1.7 1.1-.5 2.2-.9 3.3-1.3z" fill="#fff"/><path d="m91.8 147c-31.3 0-56.8-25.5-56.8-56.8s25.5-56.8 56.8-56.8 56.8 25.5 56.8 56.8-25.5 56.8-56.8 56.8zm0-109.6c-29.1 0-52.8 23.7-52.8 52.8s23.7 52.8 52.8 52.8 52.8-23.7 52.8-52.8-23.7-52.8-52.8-52.8z" fill="#231f20"/></svg>