<svg enable-background="new 0 0 198 181" viewBox="0 0 198 181" xmlns="http://www.w3.org/2000/svg"><path d="m197.1 9.9h-112.6c-41.9 3.8-74.2 39.5-73.8 81.2.4 41.2 32.5 76 73.8 79.7v.3h112.6z" fill="#fff"/><path clip-rule="evenodd" d="m37.3 90.2h109c0-30.1-24.4-54.5-54.5-54.6h-.1c-30 .2-54.4 24.6-54.4 54.6z" fill="#fff" fill-rule="evenodd"/><path clip-rule="evenodd" d="m90.7 144.7h2.3c29.6-.6 53.4-24.7 53.4-54.5h-109c-.1 29.8 23.7 53.9 53.3 54.5z" fill="#d7141a" fill-rule="evenodd"/><path d="m91.4 90.4c-12.5-13.1-25-26.2-37.5-39.3-2.5 2.4-16.6 16.5-16.6 39.2 0 22.2 13.6 36.1 16.1 38.7 12.7-12.9 25.4-25.8 38-38.6z" fill="#11457e"/><path d="m91.8 147c-31.3 0-56.8-25.5-56.8-56.8s25.5-56.8 56.8-56.8 56.8 25.5 56.8 56.8-25.5 56.8-56.8 56.8zm0-109.6c-29.1 0-52.8 23.7-52.8 52.8s23.7 52.8 52.8 52.8 52.8-23.7 52.8-52.8-23.7-52.8-52.8-52.8z" fill="#231f20"/></svg>