<svg enable-background="new 0 0 198 181" viewBox="0 0 198 181" xmlns="http://www.w3.org/2000/svg"><path d="m-.4 171.1h112.6c41.9-3.8 74.2-39.5 73.8-81.2-.4-41.2-32.5-76-73.8-79.7v-.3h-112.6z" fill="#fff"/><g fill="#231f20"><path d="m55.4 92.7h72.1c1.1 0 2.1-.9 2.1-2.1 0-1.1-.9-2.1-2.1-2.1h-72.1c-1.1 0-2.1.9-2.1 2.1 0 1.1.9 2.1 2.1 2.1z"/><path d="m55.4 113.3h72.1c1.1 0 2.1-.9 2.1-2.1 0-1.1-.9-2.1-2.1-2.1h-72.1c-1.1 0-2.1.9-2.1 2.1 0 1.1.9 2.1 2.1 2.1z"/><path d="m55.4 72.1h72.1c1.1 0 2.1-.9 2.1-2.1s-.9-2.1-2.1-2.1h-72.1c-1.1 0-2.1.9-2.1 2.1s.9 2.1 2.1 2.1z"/></g></svg>